<svg width="53" height="16" viewBox="0 0 53 16" fill="none" xmlns="http://www.w3.org/2000/svg">
<path d="M4.72861 15.2994C3.96861 15.2994 3.28861 15.1194 2.68861 14.7594C2.10194 14.3994 1.64194 13.8994 1.30861 13.2594C0.988611 12.6061 0.828611 11.8528 0.828611 10.9994V5.27943C0.828611 4.4261 0.988611 3.67943 1.30861 3.03943C1.64194 2.3861 2.10194 1.87943 2.68861 1.51943C3.28861 1.15943 3.96861 0.979435 4.72861 0.979435H6.84861C7.62194 0.979435 8.30194 1.15943 8.88861 1.51943C9.47528 1.87943 9.92861 2.3861 10.2486 3.03943C10.5686 3.67943 10.7286 4.4261 10.7286 5.27943V10.9994C10.7286 11.8528 10.5686 12.6061 10.2486 13.2594C9.92861 13.8994 9.47528 14.3994 8.88861 14.7594C8.30194 15.1194 7.62194 15.2994 6.84861 15.2994H4.72861ZM6.80861 14.2994C7.66194 14.2994 8.34194 13.9994 8.84861 13.3994C9.36861 12.7861 9.62861 11.9861 9.62861 10.9994V5.27943C9.62861 4.27943 9.36861 3.47943 8.84861 2.87943C8.34194 2.2661 7.66194 1.95943 6.80861 1.95943H4.76861C3.91528 1.95943 3.22861 2.2661 2.70861 2.87943C2.18861 3.47943 1.92861 4.27943 1.92861 5.27943V10.9994C1.92861 11.9861 2.18861 12.7861 2.70861 13.3994C3.22861 13.9994 3.91528 14.2994 4.76861 14.2994H6.80861ZM17.502 15.2994C16.742 15.2994 16.062 15.1194 15.462 14.7594C14.8754 14.3994 14.4154 13.8994 14.082 13.2594C13.762 12.6061 13.602 11.8528 13.602 10.9994V5.27943C13.602 4.4261 13.762 3.67943 14.082 3.03943C14.4154 2.3861 14.8754 1.87943 15.462 1.51943C16.062 1.15943 16.742 0.979435 17.502 0.979435H19.622C20.3954 0.979435 21.0754 1.15943 21.662 1.51943C22.2487 1.87943 22.702 2.3861 23.022 3.03943C23.342 3.67943 23.502 4.4261 23.502 5.27943V10.9994C23.502 11.8528 23.342 12.6061 23.022 13.2594C22.702 13.8994 22.2487 14.3994 21.662 14.7594C21.0754 15.1194 20.3954 15.2994 19.622 15.2994H17.502ZM19.582 14.2994C20.4354 14.2994 21.1154 13.9994 21.622 13.3994C22.142 12.7861 22.402 11.9861 22.402 10.9994V5.27943C22.402 4.27943 22.142 3.47943 21.622 2.87943C21.1154 2.2661 20.4354 1.95943 19.582 1.95943H17.542C16.6887 1.95943 16.002 2.2661 15.482 2.87943C14.962 3.47943 14.702 4.27943 14.702 5.27943V10.9994C14.702 11.9861 14.962 12.7861 15.482 13.3994C16.002 13.9994 16.6887 14.2994 17.542 14.2994H19.582ZM26.5481 15.3394C26.2815 15.3394 26.0615 15.2594 25.8881 15.0994C25.7281 14.9261 25.6481 14.7061 25.6481 14.4394C25.6481 14.1728 25.7281 13.9594 25.8881 13.7994C26.0615 13.6261 26.2815 13.5394 26.5481 13.5394C26.8281 13.5394 27.0481 13.6261 27.2081 13.7994C27.3681 13.9594 27.4481 14.1728 27.4481 14.4394C27.4481 14.7061 27.3615 14.9261 27.1881 15.0994C27.0281 15.2594 26.8148 15.3394 26.5481 15.3394ZM33.4981 15.2994C32.7381 15.2994 32.0581 15.1194 31.4581 14.7594C30.8715 14.3994 30.4115 13.8994 30.0781 13.2594C29.7581 12.6061 29.5981 11.8528 29.5981 10.9994V5.27943C29.5981 4.4261 29.7581 3.67943 30.0781 3.03943C30.4115 2.3861 30.8715 1.87943 31.4581 1.51943C32.0581 1.15943 32.7381 0.979435 33.4981 0.979435H35.6181C36.3915 0.979435 37.0715 1.15943 37.6581 1.51943C38.2448 1.87943 38.6981 2.3861 39.0181 3.03943C39.3381 3.67943 39.4981 4.4261 39.4981 5.27943V10.9994C39.4981 11.8528 39.3381 12.6061 39.0181 13.2594C38.6981 13.8994 38.2448 14.3994 37.6581 14.7594C37.0715 15.1194 36.3915 15.2994 35.6181 15.2994H33.4981ZM35.5781 14.2994C36.4315 14.2994 37.1115 13.9994 37.6181 13.3994C38.1381 12.7861 38.3981 11.9861 38.3981 10.9994V5.27943C38.3981 4.27943 38.1381 3.47943 37.6181 2.87943C37.1115 2.2661 36.4315 1.95943 35.5781 1.95943H33.5381C32.6848 1.95943 31.9981 2.2661 31.4781 2.87943C30.9581 3.47943 30.6981 4.27943 30.6981 5.27943V10.9994C30.6981 11.9861 30.9581 12.7861 31.4781 13.3994C31.9981 13.9994 32.6848 14.2994 33.5381 14.2994H35.5781ZM46.2716 15.2994C45.5116 15.2994 44.8316 15.1194 44.2316 14.7594C43.6449 14.3994 43.1849 13.8994 42.8516 13.2594C42.5316 12.6061 42.3716 11.8528 42.3716 10.9994V5.27943C42.3716 4.4261 42.5316 3.67943 42.8516 3.03943C43.1849 2.3861 43.6449 1.87943 44.2316 1.51943C44.8316 1.15943 45.5116 0.979435 46.2716 0.979435H48.3916C49.1649 0.979435 49.8449 1.15943 50.4316 1.51943C51.0182 1.87943 51.4716 2.3861 51.7916 3.03943C52.1116 3.67943 52.2716 4.4261 52.2716 5.27943V10.9994C52.2716 11.8528 52.1116 12.6061 51.7916 13.2594C51.4716 13.8994 51.0182 14.3994 50.4316 14.7594C49.8449 15.1194 49.1649 15.2994 48.3916 15.2994H46.2716ZM48.3516 14.2994C49.2049 14.2994 49.8849 13.9994 50.3916 13.3994C50.9116 12.7861 51.1716 11.9861 51.1716 10.9994V5.27943C51.1716 4.27943 50.9116 3.47943 50.3916 2.87943C49.8849 2.2661 49.2049 1.95943 48.3516 1.95943H46.3116C45.4582 1.95943 44.7716 2.2661 44.2516 2.87943C43.7316 3.47943 43.4716 4.27943 43.4716 5.27943V10.9994C43.4716 11.9861 43.7316 12.7861 44.2516 13.3994C44.7716 13.9994 45.4582 14.2994 46.3116 14.2994H48.3516Z" fill="url(#paint0_linear_611_2444)"/>
<defs>
<linearGradient id="paint0_linear_611_2444" x1="-4.16089" y1="1.90088" x2="-0.0987752" y2="24.5882" gradientUnits="userSpaceOnUse">
<stop stop-color="#727272"/>
<stop offset="1" stop-color="white"/>
</linearGradient>
</defs>
</svg>
