<svg width="53" height="15" viewBox="0 0 53 15" fill="none" xmlns="http://www.w3.org/2000/svg">
<path d="M4.72861 14.5305C3.96861 14.5305 3.28861 14.3505 2.68861 13.9905C2.10194 13.6305 1.64194 13.1305 1.30861 12.4905C0.988611 11.8372 0.828611 11.0838 0.828611 10.2305V4.51051C0.828611 3.65718 0.988611 2.91051 1.30861 2.27051C1.64194 1.61718 2.10194 1.11051 2.68861 0.750513C3.28861 0.390513 3.96861 0.210514 4.72861 0.210514H6.84861C7.62194 0.210514 8.30194 0.390513 8.88861 0.750513C9.47528 1.11051 9.92861 1.61718 10.2486 2.27051C10.5686 2.91051 10.7286 3.65718 10.7286 4.51051V10.2305C10.7286 11.0838 10.5686 11.8372 10.2486 12.4905C9.92861 13.1305 9.47528 13.6305 8.88861 13.9905C8.30194 14.3505 7.62194 14.5305 6.84861 14.5305H4.72861ZM6.80861 13.5305C7.66194 13.5305 8.34194 13.2305 8.84861 12.6305C9.36861 12.0172 9.62861 11.2172 9.62861 10.2305V4.51051C9.62861 3.51051 9.36861 2.71051 8.84861 2.11051C8.34194 1.49718 7.66194 1.19051 6.80861 1.19051H4.76861C3.91528 1.19051 3.22861 1.49718 2.70861 2.11051C2.18861 2.71051 1.92861 3.51051 1.92861 4.51051V10.2305C1.92861 11.2172 2.18861 12.0172 2.70861 12.6305C3.22861 13.2305 3.91528 13.5305 4.76861 13.5305H6.80861ZM17.502 14.5305C16.742 14.5305 16.062 14.3505 15.462 13.9905C14.8754 13.6305 14.4154 13.1305 14.082 12.4905C13.762 11.8372 13.602 11.0838 13.602 10.2305V4.51051C13.602 3.65718 13.762 2.91051 14.082 2.27051C14.4154 1.61718 14.8754 1.11051 15.462 0.750513C16.062 0.390513 16.742 0.210514 17.502 0.210514H19.622C20.3954 0.210514 21.0754 0.390513 21.662 0.750513C22.2487 1.11051 22.702 1.61718 23.022 2.27051C23.342 2.91051 23.502 3.65718 23.502 4.51051V10.2305C23.502 11.0838 23.342 11.8372 23.022 12.4905C22.702 13.1305 22.2487 13.6305 21.662 13.9905C21.0754 14.3505 20.3954 14.5305 19.622 14.5305H17.502ZM19.582 13.5305C20.4354 13.5305 21.1154 13.2305 21.622 12.6305C22.142 12.0172 22.402 11.2172 22.402 10.2305V4.51051C22.402 3.51051 22.142 2.71051 21.622 2.11051C21.1154 1.49718 20.4354 1.19051 19.582 1.19051H17.542C16.6887 1.19051 16.002 1.49718 15.482 2.11051C14.962 2.71051 14.702 3.51051 14.702 4.51051V10.2305C14.702 11.2172 14.962 12.0172 15.482 12.6305C16.002 13.2305 16.6887 13.5305 17.542 13.5305H19.582ZM26.5481 14.5705C26.2815 14.5705 26.0615 14.4905 25.8881 14.3305C25.7281 14.1572 25.6481 13.9372 25.6481 13.6705C25.6481 13.4038 25.7281 13.1905 25.8881 13.0305C26.0615 12.8572 26.2815 12.7705 26.5481 12.7705C26.8281 12.7705 27.0481 12.8572 27.2081 13.0305C27.3681 13.1905 27.4481 13.4038 27.4481 13.6705C27.4481 13.9372 27.3615 14.1572 27.1881 14.3305C27.0281 14.4905 26.8148 14.5705 26.5481 14.5705ZM33.4981 14.5305C32.7381 14.5305 32.0581 14.3505 31.4581 13.9905C30.8715 13.6305 30.4115 13.1305 30.0781 12.4905C29.7581 11.8372 29.5981 11.0838 29.5981 10.2305V4.51051C29.5981 3.65718 29.7581 2.91051 30.0781 2.27051C30.4115 1.61718 30.8715 1.11051 31.4581 0.750513C32.0581 0.390513 32.7381 0.210514 33.4981 0.210514H35.6181C36.3915 0.210514 37.0715 0.390513 37.6581 0.750513C38.2448 1.11051 38.6981 1.61718 39.0181 2.27051C39.3381 2.91051 39.4981 3.65718 39.4981 4.51051V10.2305C39.4981 11.0838 39.3381 11.8372 39.0181 12.4905C38.6981 13.1305 38.2448 13.6305 37.6581 13.9905C37.0715 14.3505 36.3915 14.5305 35.6181 14.5305H33.4981ZM35.5781 13.5305C36.4315 13.5305 37.1115 13.2305 37.6181 12.6305C38.1381 12.0172 38.3981 11.2172 38.3981 10.2305V4.51051C38.3981 3.51051 38.1381 2.71051 37.6181 2.11051C37.1115 1.49718 36.4315 1.19051 35.5781 1.19051H33.5381C32.6848 1.19051 31.9981 1.49718 31.4781 2.11051C30.9581 2.71051 30.6981 3.51051 30.6981 4.51051V10.2305C30.6981 11.2172 30.9581 12.0172 31.4781 12.6305C31.9981 13.2305 32.6848 13.5305 33.5381 13.5305H35.5781ZM46.2716 14.5305C45.5116 14.5305 44.8316 14.3505 44.2316 13.9905C43.6449 13.6305 43.1849 13.1305 42.8516 12.4905C42.5316 11.8372 42.3716 11.0838 42.3716 10.2305V4.51051C42.3716 3.65718 42.5316 2.91051 42.8516 2.27051C43.1849 1.61718 43.6449 1.11051 44.2316 0.750513C44.8316 0.390513 45.5116 0.210514 46.2716 0.210514H48.3916C49.1649 0.210514 49.8449 0.390513 50.4316 0.750513C51.0182 1.11051 51.4716 1.61718 51.7916 2.27051C52.1116 2.91051 52.2716 3.65718 52.2716 4.51051V10.2305C52.2716 11.0838 52.1116 11.8372 51.7916 12.4905C51.4716 13.1305 51.0182 13.6305 50.4316 13.9905C49.8449 14.3505 49.1649 14.5305 48.3916 14.5305H46.2716ZM48.3516 13.5305C49.2049 13.5305 49.8849 13.2305 50.3916 12.6305C50.9116 12.0172 51.1716 11.2172 51.1716 10.2305V4.51051C51.1716 3.51051 50.9116 2.71051 50.3916 2.11051C49.8849 1.49718 49.2049 1.19051 48.3516 1.19051H46.3116C45.4582 1.19051 44.7716 1.49718 44.2516 2.11051C43.7316 2.71051 43.4716 3.51051 43.4716 4.51051V10.2305C43.4716 11.2172 43.7316 12.0172 44.2516 12.6305C44.7716 13.2305 45.4582 13.5305 46.3116 13.5305H48.3516Z" fill="url(#paint0_linear_611_2443)"/>
<defs>
<linearGradient id="paint0_linear_611_2443" x1="-4.16089" y1="1.13196" x2="-0.0987752" y2="23.8193" gradientUnits="userSpaceOnUse">
<stop stop-color="#727272"/>
<stop offset="1" stop-color="white"/>
</linearGradient>
</defs>
</svg>
