<svg width="87" height="156" viewBox="0 0 87 156" fill="none" xmlns="http://www.w3.org/2000/svg">
<g opacity="0.7">
<mask id="path-1-inside-1_734_269" fill="white">
<path fill-rule="evenodd" clip-rule="evenodd" d="M58.5 3.05183e-05C71.0507 3.10532e-05 77.3261 3.30116e-05 82.505 1.24339C87.1438 2.35706 87.348 8.42864 83.8105 11.6294C77.2097 17.6018 72.4003 25.5107 70.2434 34.495C69 39.6739 69 45.9493 69 58.5L69 97.5C69 110.051 69 116.326 70.2434 121.505C72.4003 130.489 77.2097 138.398 83.8105 144.371C87.348 147.571 87.1438 153.643 82.505 154.757C77.3261 156 71.0507 156 58.5 156C45.9493 156 39.6739 156 34.495 154.757C18.0408 150.806 5.19366 137.959 1.24335 121.505C-8.43209e-07 116.326 -5.61887e-07 110.051 7.56596e-10 97.5L1.74911e-06 58.5C2.31175e-06 45.9493 4.37164e-06 39.6739 1.24336 34.495C5.19366 18.0408 18.0408 5.19369 34.495 1.24338C39.6739 2.97159e-05 45.9493 2.99834e-05 58.5 3.05183e-05Z"/>
</mask>
<path fill-rule="evenodd" clip-rule="evenodd" d="M58.5 3.05183e-05C71.0507 3.10532e-05 77.3261 3.30116e-05 82.505 1.24339C87.1438 2.35706 87.348 8.42864 83.8105 11.6294C77.2097 17.6018 72.4003 25.5107 70.2434 34.495C69 39.6739 69 45.9493 69 58.5L69 97.5C69 110.051 69 116.326 70.2434 121.505C72.4003 130.489 77.2097 138.398 83.8105 144.371C87.348 147.571 87.1438 153.643 82.505 154.757C77.3261 156 71.0507 156 58.5 156C45.9493 156 39.6739 156 34.495 154.757C18.0408 150.806 5.19366 137.959 1.24335 121.505C-8.43209e-07 116.326 -5.61887e-07 110.051 7.56596e-10 97.5L1.74911e-06 58.5C2.31175e-06 45.9493 4.37164e-06 39.6739 1.24336 34.495C5.19366 18.0408 18.0408 5.19369 34.495 1.24338C39.6739 2.97159e-05 45.9493 2.99834e-05 58.5 3.05183e-05Z" fill="url(#paint0_linear_734_269)" fill-opacity="0.15"/>
<path d="M70.2434 34.495L72.1881 34.9619L70.2434 34.495ZM69 58.5H71H69ZM69 97.5H67H69ZM70.2434 121.505L72.1881 121.038L70.2434 121.505ZM34.495 154.757L34.9618 152.812L34.495 154.757ZM1.24335 121.505L3.18809 121.038L1.24335 121.505ZM7.56596e-10 97.5H2H7.56596e-10ZM1.74911e-06 58.5H-2H1.74911e-06ZM1.24336 34.495L-0.701383 34.0281L-0.701383 34.0281L1.24336 34.495ZM34.495 1.24338L34.0281 -0.701357V-0.701357L34.495 1.24338ZM83.8105 144.371L82.4686 145.854L83.8105 144.371ZM83.8105 11.6294L82.4686 10.1463L83.8105 11.6294ZM82.9719 -0.701355C77.5048 -2.0139 70.9352 -1.99997 58.5 -1.99997V2.00003C71.1663 2.00003 77.1474 2.01396 82.0382 3.18813L82.9719 -0.701355ZM72.1881 34.9619C74.2492 26.3769 78.8444 18.8199 85.1523 13.1124L82.4686 10.1463C75.575 16.3837 70.5514 24.6444 68.2986 34.0281L72.1881 34.9619ZM71 58.5C71 45.8338 71.0139 39.8526 72.1881 34.9619L68.2986 34.0281C66.9861 39.4952 67 46.0648 67 58.5H71ZM71 97.5L71 58.5H67L67 97.5H71ZM72.1881 121.038C71.0139 116.147 71 110.166 71 97.5H67C67 109.935 66.9861 116.505 68.2986 121.972L72.1881 121.038ZM85.1523 142.888C78.8444 137.18 74.2492 129.623 72.1881 121.038L68.2986 121.972C70.5514 131.356 75.575 139.616 82.4686 145.854L85.1523 142.888ZM58.5 158C70.9352 158 77.5048 158.014 82.9719 156.701L82.0381 152.812C77.1474 153.986 71.1662 154 58.5 154V158ZM34.0281 156.701C39.4952 158.014 46.0648 158 58.5 158V154C45.8337 154 39.8526 153.986 34.9618 152.812L34.0281 156.701ZM-0.701387 121.972C3.42449 139.157 16.8426 152.576 34.0281 156.701L34.9618 152.812C19.2389 149.037 6.96283 136.761 3.18809 121.038L-0.701387 121.972ZM-2 97.5C-2 109.935 -2.01393 116.505 -0.701387 121.972L3.18809 121.038C2.01393 116.147 2 110.166 2 97.5H-2ZM-2 58.5L-2 97.5H2L2 58.5H-2ZM-0.701383 34.0281C-2.01393 39.4952 -2 46.0648 -2 58.5H2C2 45.8338 2.01393 39.8526 3.1881 34.9619L-0.701383 34.0281ZM34.0281 -0.701357C16.8426 3.42452 3.42449 16.8426 -0.701383 34.0281L3.1881 34.9619C6.96283 19.239 19.239 6.96286 34.9619 3.18812L34.0281 -0.701357ZM58.5 -1.99997C46.0648 -1.99997 39.4952 -2.0139 34.0281 -0.701357L34.9619 3.18812C39.8526 2.01396 45.8338 2.00003 58.5 2.00003V-1.99997ZM82.4686 145.854C83.7735 147.034 84.3631 148.736 84.2322 150.164C84.1088 151.509 83.3939 152.486 82.0381 152.812L82.9719 156.701C86.2549 155.913 87.9615 153.298 88.2155 150.529C88.462 147.842 87.385 144.908 85.1523 142.888L82.4686 145.854ZM82.0382 3.18813C83.394 3.51363 84.1088 4.49101 84.2322 5.83642C84.3631 7.26353 83.7735 8.9657 82.4686 10.1463L85.1523 13.1124C87.385 11.0923 88.462 8.15834 88.2155 5.47105C87.9615 2.70207 86.2549 0.0868232 82.9719 -0.701355L82.0382 3.18813Z" fill="url(#paint1_linear_734_269)" mask="url(#path-1-inside-1_734_269)"/>
</g>
<path d="M46.144 119.006C46.144 119.774 45.958 120.458 45.586 121.058C45.214 121.646 44.692 122.102 44.02 122.426C43.336 122.75 42.55 122.912 41.662 122.912L37.72 122.912C36.832 122.912 36.052 122.75 35.38 122.426C34.708 122.09 34.186 121.622 33.814 121.022C33.442 120.41 33.256 119.714 33.256 118.934L33.256 117.026C33.256 116.282 33.418 115.622 33.742 115.046C34.066 114.47 34.522 114.026 35.11 113.714C35.686 113.402 36.352 113.246 37.108 113.246L37.108 114.2C36.22 114.2 35.506 114.458 34.966 114.974C34.414 115.49 34.138 116.174 34.138 117.026L34.138 118.934C34.138 119.822 34.468 120.542 35.128 121.094C35.788 121.646 36.652 121.922 37.72 121.922L41.662 121.922C42.742 121.922 43.612 121.658 44.272 121.13C44.92 120.59 45.244 119.882 45.244 119.006L45.244 117.062C45.244 116.186 44.95 115.484 44.362 114.956C43.762 114.428 42.97 114.164 41.986 114.164L41.986 113.21C42.814 113.21 43.546 113.372 44.182 113.696C44.806 114.008 45.292 114.458 45.64 115.046C45.976 115.622 46.144 116.294 46.144 117.062L46.144 119.006ZM46.144 108.398C46.144 109.238 45.928 109.91 45.496 110.414C45.052 110.918 44.464 111.17 43.732 111.17L43.048 111.17C42.316 111.17 41.734 110.912 41.302 110.396C40.87 109.88 40.654 109.196 40.654 108.344L40.654 107.174C40.654 106.766 40.72 106.346 40.852 105.914C40.984 105.47 41.164 105.092 41.392 104.78L39.646 104.78C39.082 104.78 38.62 104.954 38.26 105.302C37.9 105.65 37.72 106.1 37.72 106.652L37.72 108.056C37.72 108.62 37.852 109.076 38.116 109.424C38.38 109.772 38.734 109.946 39.178 109.946L39.178 110.918C38.482 110.918 37.924 110.654 37.504 110.126C37.084 109.598 36.874 108.908 36.874 108.056L36.874 106.652C36.874 105.8 37.126 105.122 37.63 104.618C38.134 104.102 38.806 103.844 39.646 103.844L46 103.844L46 104.762L44.596 104.762C45.076 105.074 45.454 105.458 45.73 105.914C46.006 106.37 46.144 106.832 46.144 107.3L46.144 108.398ZM45.28 107.282C45.28 106.778 45.1 106.298 44.74 105.842C44.38 105.374 43.906 105.02 43.318 104.78L42.346 104.78C42.094 105.044 41.89 105.398 41.734 105.842C41.578 106.274 41.5 106.718 41.5 107.174L41.5 108.344C41.5 108.908 41.644 109.358 41.932 109.694C42.208 110.03 42.58 110.198 43.048 110.198L43.732 110.198C44.2 110.198 44.578 110.036 44.866 109.712C45.142 109.388 45.28 108.95 45.28 108.398L45.28 107.282ZM46 98.8245C46 99.6045 45.82 100.163 45.46 100.499C45.1 100.835 44.5 101.003 43.66 101.003L33.4 101.003L33.4 100.031L43.66 100.031C44.188 100.031 44.566 99.9405 44.794 99.7605C45.022 99.5685 45.136 99.2565 45.136 98.8245L45.136 98.2485L46 98.2485L46 98.8245ZM46 94.2366C46 95.0166 45.82 95.5746 45.46 95.9106C45.1 96.2466 44.5 96.4146 43.66 96.4146L33.4 96.4146L33.4 95.4426L43.66 95.4426C44.188 95.4426 44.566 95.3526 44.794 95.1726C45.022 94.9806 45.136 94.6686 45.136 94.2366L45.136 93.6606L46 93.6606L46 94.2366ZM35.488 90.9113C35.488 91.1513 35.416 91.3493 35.272 91.5053C35.128 91.6493 34.936 91.7213 34.696 91.7213C34.456 91.7213 34.264 91.6493 34.12 91.5053C33.964 91.3493 33.886 91.1513 33.886 90.9113C33.886 90.6713 33.964 90.4793 34.12 90.3353C34.264 90.1913 34.456 90.1193 34.696 90.1193C34.924 90.1193 35.116 90.1913 35.272 90.3353C35.416 90.4793 35.488 90.6713 35.488 90.9113ZM37.018 91.3973L37.018 90.4433L46 90.4433L46 91.3973L37.018 91.3973ZM46.144 83.8205C46.144 84.2525 46.006 84.6965 45.73 85.1525C45.442 85.5965 45.082 85.9565 44.65 86.2325L46 86.2325L46 87.1685L33.4 87.1685L33.4 86.1965L38.278 86.1965C37.846 85.9325 37.504 85.5845 37.252 85.1525C37 84.7085 36.874 84.2345 36.874 83.7305L36.874 82.4705C36.874 81.5825 37.174 80.8625 37.774 80.3105C38.374 79.7585 39.166 79.4825 40.15 79.4825L42.67 79.4825C43.702 79.4825 44.542 79.7705 45.19 80.3465C45.826 80.9105 46.144 81.6545 46.144 82.5785L46.144 83.8205ZM45.28 82.5965C45.28 81.9605 45.04 81.4445 44.56 81.0485C44.08 80.6405 43.45 80.4365 42.67 80.4365L40.15 80.4365C39.43 80.4365 38.848 80.6285 38.404 81.0125C37.96 81.3845 37.738 81.8765 37.738 82.4885L37.738 83.6945C37.738 84.3785 37.978 84.9545 38.458 85.4225C38.926 85.8785 39.544 86.1365 40.312 86.1965L43.012 86.1965C43.624 86.0885 44.158 85.8065 44.614 85.3505C45.058 84.8825 45.28 84.3725 45.28 83.8205L45.28 82.5965ZM37.018 76.8853L37.018 75.9493L38.476 75.9493C38.02 75.6853 37.66 75.3073 37.396 74.8153C37.12 74.3233 36.982 73.7953 36.982 73.2313L36.982 72.5653L37.846 72.5653L37.846 73.2493C37.846 74.0293 38.098 74.6713 38.602 75.1753C39.106 75.6673 39.76 75.9133 40.564 75.9133L46 75.9133L46 76.8853L37.018 76.8853ZM46.144 68.4428C46.144 69.2828 45.928 69.9548 45.496 70.4588C45.052 70.9628 44.464 71.2148 43.732 71.2148L43.048 71.2148C42.316 71.2148 41.734 70.9568 41.302 70.4408C40.87 69.9248 40.654 69.2408 40.654 68.3888L40.654 67.2188C40.654 66.8108 40.72 66.3908 40.852 65.9588C40.984 65.5148 41.164 65.1368 41.392 64.8248L39.646 64.8248C39.082 64.8248 38.62 64.9988 38.26 65.3468C37.9 65.6948 37.72 66.1448 37.72 66.6968L37.72 68.1008C37.72 68.6648 37.852 69.1208 38.116 69.4688C38.38 69.8168 38.734 69.9908 39.178 69.9908L39.178 70.9628C38.482 70.9628 37.924 70.6988 37.504 70.1708C37.084 69.6428 36.874 68.9528 36.874 68.1008L36.874 66.6968C36.874 65.8448 37.126 65.1668 37.63 64.6628C38.134 64.1468 38.806 63.8888 39.646 63.8888L46 63.8888L46 64.8068L44.596 64.8068C45.076 65.1188 45.454 65.5028 45.73 65.9588C46.006 66.4148 46.144 66.8768 46.144 67.3448L46.144 68.4428ZM45.28 67.3268C45.28 66.8228 45.1 66.3428 44.74 65.8868C44.38 65.4188 43.906 65.0648 43.318 64.8248L42.346 64.8248C42.094 65.0888 41.89 65.4428 41.734 65.8868C41.578 66.3188 41.5 66.7628 41.5 67.2188L41.5 68.3888C41.5 68.9528 41.644 69.4028 41.932 69.7388C42.208 70.0748 42.58 70.2428 43.048 70.2428L43.732 70.2428C44.2 70.2428 44.578 70.0808 44.866 69.7568C45.142 69.4328 45.28 68.9948 45.28 68.4428L45.28 67.3268ZM46 57.6274C46 58.5394 45.808 59.1934 45.424 59.5894C45.028 59.9854 44.38 60.1834 43.48 60.1834L37.882 60.1834L37.882 61.7674L37.018 61.7674L37.018 60.1834L34.3 60.1834L34.3 59.2294L37.018 59.2294L37.018 56.8894L37.882 56.8894L37.882 59.2294L43.48 59.2294C44.068 59.2294 44.494 59.1094 44.758 58.8694C45.01 58.6294 45.136 58.2274 45.136 57.6634L45.136 56.8894L46 56.8894L46 57.6274ZM35.488 53.4874C35.488 53.7274 35.416 53.9254 35.272 54.0814C35.128 54.2254 34.936 54.2974 34.696 54.2974C34.456 54.2974 34.264 54.2254 34.12 54.0814C33.964 53.9254 33.886 53.7274 33.886 53.4874C33.886 53.2474 33.964 53.0554 34.12 52.9114C34.264 52.7674 34.456 52.6954 34.696 52.6954C34.924 52.6954 35.116 52.7674 35.272 52.9114C35.416 53.0554 35.488 53.2474 35.488 53.4874ZM37.018 53.9734L37.018 53.0194L46 53.0194L46 53.9734L37.018 53.9734ZM46.144 46.9007C46.144 47.8607 45.844 48.6347 45.244 49.2227C44.632 49.8107 43.834 50.1047 42.85 50.1047L40.168 50.1047C39.184 50.1047 38.392 49.8107 37.792 49.2227C37.18 48.6227 36.874 47.8367 36.874 46.8647L36.874 45.4427C36.874 44.4707 37.18 43.6907 37.792 43.1027C38.392 42.5027 39.184 42.2027 40.168 42.2027L42.85 42.2027C43.834 42.2027 44.632 42.5027 45.244 43.1027C45.844 43.7027 46.144 44.4947 46.144 45.4787L46.144 46.9007ZM45.28 45.4787C45.28 44.7827 45.058 44.2247 44.614 43.8047C44.17 43.3727 43.582 43.1567 42.85 43.1567L40.168 43.1567C39.436 43.1567 38.848 43.3667 38.404 43.7867C37.96 44.2067 37.738 44.7587 37.738 45.4427L37.738 46.8647C37.738 47.5487 37.96 48.1007 38.404 48.5207C38.848 48.9287 39.436 49.1327 40.168 49.1327L42.85 49.1327C43.582 49.1327 44.17 48.9287 44.614 48.5207C45.058 48.1127 45.28 47.5727 45.28 46.9007L45.28 45.4787ZM37.018 39.6021L37.018 38.6661L38.548 38.6661C38.032 38.3661 37.624 37.9881 37.324 37.5321C37.024 37.0641 36.874 36.5901 36.874 36.1101L36.874 34.9041C36.874 34.1241 37.15 33.4941 37.702 33.0141C38.242 32.5221 38.962 32.2761 39.862 32.2761L46 32.2761L46 33.2301L39.844 33.2301C39.22 33.2301 38.716 33.3861 38.332 33.6981C37.936 34.0101 37.738 34.4181 37.738 34.9221L37.738 36.0921C37.738 36.6321 37.96 37.1421 38.404 37.6221C38.848 38.1021 39.424 38.4381 40.132 38.6301L46 38.6301L46 39.6021L37.018 39.6021Z" fill="url(#paint2_linear_734_269)"/>
<defs>
<linearGradient id="paint0_linear_734_269" x1="78.7501" y1="21.0234" x2="-20.6714" y2="62.6664" gradientUnits="userSpaceOnUse">
<stop stop-color="#FCB433"/>
<stop offset="1" stop-color="#966B1E"/>
</linearGradient>
<linearGradient id="paint1_linear_734_269" x1="78.7501" y1="21.0234" x2="-20.6714" y2="62.6664" gradientUnits="userSpaceOnUse">
<stop stop-color="#FCB433"/>
<stop offset="1" stop-color="#966B1E"/>
</linearGradient>
<linearGradient id="paint2_linear_734_269" x1="34.0215" y1="35.7826" x2="59.8564" y2="40.8473" gradientUnits="userSpaceOnUse">
<stop stop-color="#FCB433"/>
<stop offset="1" stop-color="#966B1E"/>
</linearGradient>
</defs>
</svg>
