<svg width="87" height="156" viewBox="0 0 87 156" fill="none" xmlns="http://www.w3.org/2000/svg">
<g opacity="0.7">
<mask id="path-1-inside-1_734_270" fill="white">
<path fill-rule="evenodd" clip-rule="evenodd" d="M58.5 3.05183e-05C71.0507 3.10532e-05 77.3261 3.30116e-05 82.505 1.24339C87.1438 2.35706 87.348 8.42864 83.8105 11.6294C77.2097 17.6018 72.4003 25.5107 70.2434 34.495C69 39.6739 69 45.9493 69 58.5L69 97.5C69 110.051 69 116.326 70.2434 121.505C72.4003 130.489 77.2097 138.398 83.8105 144.371C87.348 147.571 87.1438 153.643 82.505 154.757C77.3261 156 71.0507 156 58.5 156C45.9493 156 39.6739 156 34.495 154.757C18.0408 150.806 5.19366 137.959 1.24335 121.505C-8.43209e-07 116.326 -5.61887e-07 110.051 7.56596e-10 97.5L1.74911e-06 58.5C2.31175e-06 45.9493 4.37164e-06 39.6739 1.24336 34.495C5.19366 18.0408 18.0408 5.19369 34.495 1.24338C39.6739 2.97159e-05 45.9493 2.99834e-05 58.5 3.05183e-05Z"/>
</mask>
<path fill-rule="evenodd" clip-rule="evenodd" d="M58.5 3.05183e-05C71.0507 3.10532e-05 77.3261 3.30116e-05 82.505 1.24339C87.1438 2.35706 87.348 8.42864 83.8105 11.6294C77.2097 17.6018 72.4003 25.5107 70.2434 34.495C69 39.6739 69 45.9493 69 58.5L69 97.5C69 110.051 69 116.326 70.2434 121.505C72.4003 130.489 77.2097 138.398 83.8105 144.371C87.348 147.571 87.1438 153.643 82.505 154.757C77.3261 156 71.0507 156 58.5 156C45.9493 156 39.6739 156 34.495 154.757C18.0408 150.806 5.19366 137.959 1.24335 121.505C-8.43209e-07 116.326 -5.61887e-07 110.051 7.56596e-10 97.5L1.74911e-06 58.5C2.31175e-06 45.9493 4.37164e-06 39.6739 1.24336 34.495C5.19366 18.0408 18.0408 5.19369 34.495 1.24338C39.6739 2.97159e-05 45.9493 2.99834e-05 58.5 3.05183e-05Z" fill="url(#paint0_linear_734_270)" fill-opacity="0.15"/>
<path d="M70.2434 34.495L72.1881 34.9619L70.2434 34.495ZM69 58.5H71H69ZM69 97.5H67H69ZM70.2434 121.505L72.1881 121.038L70.2434 121.505ZM34.495 154.757L34.9618 152.812L34.495 154.757ZM1.24335 121.505L3.18809 121.038L1.24335 121.505ZM7.56596e-10 97.5H2H7.56596e-10ZM1.74911e-06 58.5H-2H1.74911e-06ZM1.24336 34.495L-0.701383 34.0281L-0.701383 34.0281L1.24336 34.495ZM34.495 1.24338L34.0281 -0.701357V-0.701357L34.495 1.24338ZM83.8105 144.371L82.4686 145.854L83.8105 144.371ZM83.8105 11.6294L82.4686 10.1463L83.8105 11.6294ZM82.9719 -0.701355C77.5048 -2.0139 70.9352 -1.99997 58.5 -1.99997V2.00003C71.1663 2.00003 77.1474 2.01396 82.0382 3.18813L82.9719 -0.701355ZM72.1881 34.9619C74.2492 26.3769 78.8444 18.8199 85.1523 13.1124L82.4686 10.1463C75.575 16.3837 70.5514 24.6444 68.2986 34.0281L72.1881 34.9619ZM71 58.5C71 45.8338 71.0139 39.8526 72.1881 34.9619L68.2986 34.0281C66.9861 39.4952 67 46.0648 67 58.5H71ZM71 97.5L71 58.5H67L67 97.5H71ZM72.1881 121.038C71.0139 116.147 71 110.166 71 97.5H67C67 109.935 66.9861 116.505 68.2986 121.972L72.1881 121.038ZM85.1523 142.888C78.8444 137.18 74.2492 129.623 72.1881 121.038L68.2986 121.972C70.5514 131.356 75.575 139.616 82.4686 145.854L85.1523 142.888ZM58.5 158C70.9352 158 77.5048 158.014 82.9719 156.701L82.0381 152.812C77.1474 153.986 71.1662 154 58.5 154V158ZM34.0281 156.701C39.4952 158.014 46.0648 158 58.5 158V154C45.8337 154 39.8526 153.986 34.9618 152.812L34.0281 156.701ZM-0.701387 121.972C3.42449 139.157 16.8426 152.576 34.0281 156.701L34.9618 152.812C19.2389 149.037 6.96283 136.761 3.18809 121.038L-0.701387 121.972ZM-2 97.5C-2 109.935 -2.01393 116.505 -0.701387 121.972L3.18809 121.038C2.01393 116.147 2 110.166 2 97.5H-2ZM-2 58.5L-2 97.5H2L2 58.5H-2ZM-0.701383 34.0281C-2.01393 39.4952 -2 46.0648 -2 58.5H2C2 45.8338 2.01393 39.8526 3.1881 34.9619L-0.701383 34.0281ZM34.0281 -0.701357C16.8426 3.42452 3.42449 16.8426 -0.701383 34.0281L3.1881 34.9619C6.96283 19.239 19.239 6.96286 34.9619 3.18812L34.0281 -0.701357ZM58.5 -1.99997C46.0648 -1.99997 39.4952 -2.0139 34.0281 -0.701357L34.9619 3.18812C39.8526 2.01396 45.8338 2.00003 58.5 2.00003V-1.99997ZM82.4686 145.854C83.7735 147.034 84.3631 148.736 84.2322 150.164C84.1088 151.509 83.3939 152.486 82.0381 152.812L82.9719 156.701C86.2549 155.913 87.9615 153.298 88.2155 150.529C88.462 147.842 87.385 144.908 85.1523 142.888L82.4686 145.854ZM82.0382 3.18813C83.394 3.51363 84.1088 4.49101 84.2322 5.83642C84.3631 7.26353 83.7735 8.9657 82.4686 10.1463L85.1523 13.1124C87.385 11.0923 88.462 8.15834 88.2155 5.47105C87.9615 2.70207 86.2549 0.0868232 82.9719 -0.701355L82.0382 3.18813Z" fill="url(#paint1_linear_734_270)" mask="url(#path-1-inside-1_734_270)"/>
</g>
<path d="M46.144 99.6811C46.144 100.749 45.826 101.601 45.19 102.237C44.554 102.861 43.69 103.173 42.598 103.173L42.598 102.201C43.414 102.201 44.062 101.973 44.542 101.517C45.01 101.061 45.244 100.443 45.244 99.6631L45.244 97.6471C45.244 96.8911 45.07 96.2851 44.722 95.8291C44.374 95.3611 43.918 95.1271 43.354 95.1271L42.13 95.1271C41.674 95.1271 41.284 95.2951 40.96 95.6311C40.636 95.9671 40.426 96.4351 40.33 97.0351L39.79 100.257C39.646 101.121 39.334 101.799 38.854 102.291C38.374 102.771 37.774 103.011 37.054 103.011L36.01 103.011C35.182 103.011 34.516 102.699 34.012 102.075C33.508 101.451 33.256 100.629 33.256 99.6091L33.256 97.5751C33.256 96.6031 33.55 95.8231 34.138 95.2351C34.726 94.6351 35.5 94.3351 36.46 94.3351L36.46 95.3071C35.764 95.3071 35.206 95.5171 34.786 95.9371C34.354 96.3451 34.138 96.8911 34.138 97.5751L34.138 99.6091C34.138 100.341 34.312 100.929 34.66 101.373C34.996 101.805 35.446 102.021 36.01 102.021L37.054 102.021C37.534 102.021 37.936 101.859 38.26 101.535C38.584 101.211 38.794 100.755 38.89 100.167L39.448 96.9631C39.604 96.0751 39.916 95.3851 40.384 94.8931C40.852 94.3891 41.434 94.1371 42.13 94.1371L43.354 94.1371C44.194 94.1371 44.872 94.4551 45.388 95.0911C45.892 95.7271 46.144 96.5731 46.144 97.6291L46.144 99.6811ZM46 88.231C46 89.143 45.808 89.797 45.424 90.193C45.028 90.589 44.38 90.787 43.48 90.787L37.882 90.787L37.882 92.371L37.018 92.371L37.018 90.787L34.3 90.787L34.3 89.833L37.018 89.833L37.018 87.493L37.882 87.493L37.882 89.833L43.48 89.833C44.068 89.833 44.494 89.713 44.758 89.473C45.01 89.233 45.136 88.831 45.136 88.267L45.136 87.493L46 87.493L46 88.231ZM46.144 82.6459C46.144 83.4859 45.928 84.1579 45.496 84.6619C45.052 85.1659 44.464 85.4179 43.732 85.4179L43.048 85.4179C42.316 85.4179 41.734 85.1599 41.302 84.6439C40.87 84.1279 40.654 83.4439 40.654 82.5919L40.654 81.4219C40.654 81.0139 40.72 80.5939 40.852 80.1619C40.984 79.7179 41.164 79.3399 41.392 79.0279L39.646 79.0279C39.082 79.0279 38.62 79.2019 38.26 79.5499C37.9 79.8979 37.72 80.3479 37.72 80.8999L37.72 82.3039C37.72 82.8679 37.852 83.3239 38.116 83.6719C38.38 84.0199 38.734 84.1939 39.178 84.1939L39.178 85.1659C38.482 85.1659 37.924 84.9019 37.504 84.3739C37.084 83.8459 36.874 83.1559 36.874 82.3039L36.874 80.8999C36.874 80.0479 37.126 79.3699 37.63 78.8659C38.134 78.3499 38.806 78.0919 39.646 78.0919L46 78.0919L46 79.0099L44.596 79.0099C45.076 79.3219 45.454 79.7059 45.73 80.1619C46.006 80.6179 46.144 81.0799 46.144 81.5479L46.144 82.6459ZM45.28 81.5299C45.28 81.0259 45.1 80.5459 44.74 80.0899C44.38 79.6219 43.906 79.2679 43.318 79.0279L42.346 79.0279C42.094 79.2919 41.89 79.6459 41.734 80.0899C41.578 80.5219 41.5 80.9659 41.5 81.4219L41.5 82.5919C41.5 83.1559 41.644 83.6059 41.932 83.9419C42.208 84.2779 42.58 84.4459 43.048 84.4459L43.732 84.4459C44.2 84.4459 44.578 84.2839 44.866 83.9599C45.142 83.6359 45.28 83.1979 45.28 82.6459L45.28 81.5299ZM46 71.8306C46 72.7426 45.808 73.3966 45.424 73.7926C45.028 74.1886 44.38 74.3866 43.48 74.3866L37.882 74.3866L37.882 75.9706L37.018 75.9706L37.018 74.3866L34.3 74.3866L34.3 73.4326L37.018 73.4326L37.018 71.0926L37.882 71.0926L37.882 73.4326L43.48 73.4326C44.068 73.4326 44.494 73.3126 44.758 73.0726C45.01 72.8326 45.136 72.4306 45.136 71.8666L45.136 71.0926L46 71.0926L46 71.8306ZM46.144 66.068C46.144 66.848 45.88 67.484 45.352 67.976C44.812 68.468 44.104 68.714 43.228 68.714L37.018 68.714L37.018 67.742L43.246 67.742C43.846 67.742 44.338 67.592 44.722 67.292C45.094 66.98 45.28 66.572 45.28 66.068L45.28 64.952C45.28 64.604 45.166 64.25 44.938 63.89C44.71 63.53 44.404 63.212 44.02 62.936C43.624 62.66 43.21 62.474 42.778 62.378L37.018 62.378L37.018 61.424L46 61.424L46 62.36L44.38 62.36C44.896 62.66 45.322 63.05 45.658 63.53C45.982 64.01 46.144 64.472 46.144 64.916L46.144 66.068ZM46.144 56.0875C46.144 56.9395 45.898 57.6295 45.406 58.1575C44.902 58.6735 44.242 58.9315 43.426 58.9315L43.426 57.9955C43.978 57.9955 44.428 57.8215 44.776 57.4735C45.124 57.1135 45.298 56.6515 45.298 56.0875L45.298 54.5395C45.298 53.9515 45.178 53.4835 44.938 53.1355C44.698 52.7755 44.386 52.5955 44.002 52.5955L43.3 52.5955C43.036 52.5955 42.802 52.6975 42.598 52.9015C42.394 53.0935 42.262 53.3455 42.202 53.6575L41.662 56.7895C41.566 57.3775 41.344 57.8515 40.996 58.2115C40.636 58.5595 40.216 58.7335 39.736 58.7335L39.124 58.7335C38.452 58.7335 37.912 58.4875 37.504 57.9955C37.084 57.4915 36.874 56.8315 36.874 56.0155L36.874 54.4855C36.874 53.6935 37.102 53.0575 37.558 52.5775C38.014 52.0855 38.614 51.8395 39.358 51.8395L39.358 52.7755C38.866 52.7995 38.47 52.9675 38.17 53.2795C37.87 53.5795 37.72 53.9815 37.72 54.4855L37.72 56.0155C37.72 56.5435 37.852 56.9695 38.116 57.2935C38.368 57.6175 38.704 57.7795 39.124 57.7795L39.7 57.7795C39.976 57.7795 40.222 57.6715 40.438 57.4555C40.642 57.2395 40.768 56.9575 40.816 56.6095L41.356 53.4775C41.452 52.9255 41.674 52.4815 42.022 52.1455C42.37 51.8095 42.784 51.6415 43.264 51.6415L44.02 51.6415C44.656 51.6415 45.172 51.9055 45.568 52.4335C45.952 52.9615 46.144 53.6635 46.144 54.5395L46.144 56.0875Z" fill="white"/>
<defs>
<linearGradient id="paint0_linear_734_270" x1="8.86131" y1="8.54797" x2="120.404" y2="70.4691" gradientUnits="userSpaceOnUse">
<stop stop-color="#727272"/>
<stop offset="1" stop-color="white"/>
</linearGradient>
<linearGradient id="paint1_linear_734_270" x1="8.86131" y1="8.54797" x2="120.404" y2="70.4691" gradientUnits="userSpaceOnUse">
<stop stop-color="#727272"/>
<stop offset="1" stop-color="white"/>
</linearGradient>
</defs>
</svg>
