<svg width="104" height="104" viewBox="0 0 104 104" fill="none" xmlns="http://www.w3.org/2000/svg">
<path d="M1.00098 51.6772C1.00098 72.9188 3.32643 85.3745 10.6334 92.6211C14.2756 96.2332 19.2353 98.6289 25.9905 100.118C32.7567 101.609 41.2618 102.177 51.9302 102.177C62.5985 102.177 71.1036 101.609 77.8698 100.118C84.625 98.6289 89.5847 96.2332 93.227 92.6211C100.534 85.3745 102.859 72.9188 102.859 51.6772C102.859 30.4357 100.534 17.98 93.227 10.7334C89.5847 7.12131 84.625 4.72564 77.8698 3.23674C71.1036 1.74544 62.5985 1.17725 51.9302 1.17725C41.2618 1.17725 32.7567 1.74544 25.9905 3.23674C19.2353 4.72564 14.2756 7.12131 10.6334 10.7334C3.32643 17.98 1.00098 30.4357 1.00098 51.6772Z" fill="url(#paint0_linear_613_85)" fill-opacity="0.1" stroke="url(#paint1_linear_613_85)" stroke-width="2" stroke-linecap="round" stroke-linejoin="round"/>
<path d="M41.5634 59.3956C40.7634 59.3956 40.0567 59.2289 39.4434 58.8956C38.8301 58.5489 38.3501 58.0689 38.0034 57.4556C37.6701 56.8289 37.5034 56.1089 37.5034 55.2956H38.9434C38.9434 56.1222 39.1834 56.7956 39.6634 57.3156C40.1567 57.8222 40.8034 58.0756 41.6034 58.0756H43.8234C44.6101 58.0756 45.2434 57.9022 45.7234 57.5556C46.2034 57.1956 46.4434 56.7289 46.4434 56.1556V54.8756C46.4434 54.4222 46.2634 54.0356 45.9034 53.7156C45.5567 53.3956 45.0767 53.1889 44.4634 53.0956L40.8634 52.4956C39.8501 52.3222 39.0634 51.9622 38.5034 51.4156C37.9434 50.8689 37.6634 50.1822 37.6634 49.3556V48.2756C37.6634 47.3022 38.0234 46.5289 38.7434 45.9556C39.4767 45.3689 40.4434 45.0756 41.6434 45.0756H43.9034C45.0367 45.0756 45.9501 45.4222 46.6434 46.1156C47.3367 46.7956 47.6834 47.6956 47.6834 48.8156H46.2434C46.2434 48.0822 46.0301 47.4956 45.6034 47.0556C45.1767 46.6156 44.6101 46.3956 43.9034 46.3956H41.6434C40.8834 46.3956 40.2767 46.5689 39.8234 46.9156C39.3701 47.2489 39.1434 47.7022 39.1434 48.2756V49.3556C39.1434 49.8222 39.3101 50.2156 39.6434 50.5356C39.9901 50.8556 40.4634 51.0689 41.0634 51.1756L44.6434 51.7956C45.6834 51.9822 46.4901 52.3422 47.0634 52.8756C47.6367 53.3956 47.9234 54.0622 47.9234 54.8756V56.1556C47.9234 57.1289 47.5501 57.9156 46.8034 58.5156C46.0567 59.1022 45.0767 59.3956 43.8634 59.3956H41.5634ZM53.7625 59.3956C52.6425 59.3956 51.7425 59.0689 51.0625 58.4156C50.3825 57.7489 50.0425 56.8689 50.0425 55.7756V52.9156C50.0425 51.7689 50.3825 50.8489 51.0625 50.1556C51.7425 49.4489 52.6425 49.0956 53.7625 49.0956H55.4025C56.4691 49.0956 57.3291 49.4356 57.9825 50.1156C58.6358 50.7956 58.9625 51.6956 58.9625 52.8156V54.5756H51.4825V55.7756C51.4825 56.4689 51.6891 57.0356 52.1025 57.4756C52.5291 57.9022 53.0825 58.1156 53.7625 58.1156H55.2825C55.9491 58.1156 56.4891 57.9356 56.9025 57.5756C57.3158 57.2022 57.5225 56.7089 57.5225 56.0956H58.9225C58.9225 57.0822 58.5891 57.8822 57.9225 58.4956C57.2558 59.0956 56.3758 59.3956 55.2825 59.3956H53.7625ZM57.5225 53.3356V52.8156C57.5225 52.0822 57.3291 51.4956 56.9425 51.0556C56.5558 50.6022 56.0425 50.3756 55.4025 50.3756H53.7625C53.0825 50.3756 52.5291 50.6089 52.1025 51.0756C51.6891 51.5422 51.4825 52.1556 51.4825 52.9156V53.3356H57.5225ZM65.2804 59.2356C64.2271 59.2356 63.4671 59.0089 63.0004 58.5556C62.5471 58.1022 62.3204 57.3556 62.3204 56.3156V50.5356H60.5604V49.2556H62.3204V46.2356H63.7604V49.2556H66.3604V50.5356H63.7604V56.3156C63.7604 56.9022 63.8738 57.3222 64.1004 57.5756C64.3404 57.8289 64.7338 57.9556 65.2804 57.9556H66.3604V59.2356H65.2804Z" fill="url(#paint2_linear_613_85)"/>
<defs>
<linearGradient id="paint0_linear_613_85" x1="51.9301" y1="103.177" x2="51.9301" y2="0.177246" gradientUnits="userSpaceOnUse">
<stop stop-color="#FCB433"/>
<stop offset="1" stop-color="#966B1E"/>
</linearGradient>
<linearGradient id="paint1_linear_613_85" x1="94.8282" y1="89.2964" x2="5.96203" y2="21.4125" gradientUnits="userSpaceOnUse">
<stop stop-color="#FCB433"/>
<stop offset="1" stop-color="#966B1E"/>
</linearGradient>
<linearGradient id="paint2_linear_613_85" x1="82.7743" y1="44.6647" x2="73.4492" y2="73.9317" gradientUnits="userSpaceOnUse">
<stop stop-color="#FCB433"/>
<stop offset="1" stop-color="#966B1E"/>
</linearGradient>
</defs>
</svg>
