<svg width="38" height="58" viewBox="0 0 38 58" fill="none" xmlns="http://www.w3.org/2000/svg">
<path opacity="0.4" d="M3.876 42.8H4.756V47.952H11.22V42.8H12.1V54H11.22V48.736H4.756V54H3.876V42.8ZM17.2768 54.128C16.4341 54.128 15.7514 53.872 15.2288 53.36C14.7168 52.848 14.4608 52.1707 14.4608 51.328V48.848C14.4608 47.9627 14.7168 47.248 15.2288 46.704C15.7514 46.16 16.4341 45.888 17.2768 45.888H18.5888C19.3994 45.888 20.0501 46.1547 20.5408 46.688C21.0421 47.2107 21.2928 47.9093 21.2928 48.784V50.128H15.3248V51.328C15.3248 51.936 15.5008 52.4267 15.8528 52.8C16.2154 53.1733 16.6901 53.36 17.2768 53.36H18.4928C19.0688 53.36 19.5328 53.1947 19.8848 52.864C20.2474 52.5227 20.4288 52.08 20.4288 51.536H21.2608C21.2608 52.3147 21.0048 52.944 20.4928 53.424C19.9914 53.8933 19.3248 54.128 18.4928 54.128H17.2768ZM20.4448 49.392V48.784C20.4448 48.144 20.2741 47.632 19.9328 47.248C19.5914 46.8533 19.1434 46.656 18.5888 46.656H17.2768C16.6901 46.656 16.2154 46.8587 15.8528 47.264C15.5008 47.6693 15.3248 48.1973 15.3248 48.848V49.392H20.4448ZM25.4355 54C24.7422 54 24.2462 53.84 23.9475 53.52C23.6488 53.2 23.4995 52.6667 23.4995 51.92V42.8H24.3635V51.92C24.3635 52.3893 24.4435 52.7253 24.6035 52.928C24.7742 53.1307 25.0515 53.232 25.4355 53.232H25.9475V54H25.4355ZM27.6714 46.016H28.5034V47.264C28.738 46.848 29.0474 46.5173 29.4314 46.272C29.826 46.016 30.226 45.888 30.6314 45.888H31.7994C32.61 45.888 33.2607 46.1547 33.7514 46.688C34.2527 47.2107 34.5034 47.904 34.5034 48.768V50.944C34.5034 51.904 34.2527 52.6773 33.7514 53.264C33.25 53.84 32.578 54.128 31.7354 54.128H30.5674C30.1834 54.128 29.8047 54.016 29.4314 53.792C29.0687 53.568 28.77 53.2693 28.5354 52.896V57.184H27.6714V46.016ZM31.7194 53.36C32.306 53.36 32.7754 53.1413 33.1274 52.704C33.4794 52.256 33.6554 51.6693 33.6554 50.944V48.768C33.6554 48.1387 33.4847 47.632 33.1434 47.248C32.802 46.8533 32.3487 46.656 31.7834 46.656H30.6314C30.162 46.656 29.73 46.848 29.3354 47.232C28.9514 47.6053 28.6847 48.0587 28.5354 48.592V51.344C28.6314 51.8773 28.8714 52.3467 29.2554 52.752C29.6394 53.1573 30.0874 53.36 30.5994 53.36H31.7194Z" fill="white"/>
<g opacity="0.4">
<path d="M6 14.5C6 17.4624 6.16004 19.7746 6.56264 21.5862C6.96272 23.3864 7.58892 24.6303 8.47933 25.5207C9.36973 26.4111 10.6136 27.0373 12.4138 27.4374C14.2254 27.84 16.5376 28 19.5 28C22.4624 28 24.7746 27.84 26.5862 27.4374C28.3864 27.0373 29.6303 26.4111 30.5207 25.5207C31.4111 24.6303 32.0373 23.3864 32.4374 21.5862C32.84 19.7746 33 17.4624 33 14.5C33 11.5376 32.84 9.22538 32.4374 7.41382C32.0373 5.61361 31.4111 4.36973 30.5207 3.47933C29.6303 2.58892 28.3864 1.96272 26.5862 1.56264C24.7746 1.16004 22.4624 1 19.5 1C16.5376 1 14.2254 1.16004 12.4138 1.56264C10.6136 1.96272 9.36973 2.58892 8.47933 3.47933C7.58892 4.36973 6.96272 5.61361 6.56264 7.41382C6.16004 9.22538 6 11.5376 6 14.5Z" stroke="url(#paint0_linear_1219_359)" stroke-width="2" stroke-linecap="round" stroke-linejoin="round"/>
<path fill-rule="evenodd" clip-rule="evenodd" d="M20 10C20 9.44772 19.5523 9 19 9C18.4477 9 18 9.44772 18 10V17C18 17.5523 18.4477 18 19 18C19.5523 18 20 17.5523 20 17V10ZM19 20C18.4477 20 18 20.4477 18 21C18 21.5523 18.4477 22 19 22C19.5523 22 20 21.5523 20 21C20 20.4477 19.5523 20 19 20Z" fill="url(#paint1_linear_1219_359)"/>
</g>
<defs>
<linearGradient id="paint0_linear_1219_359" x1="7.97945" y1="27.411" x2="32.411" y2="2.88014" gradientUnits="userSpaceOnUse">
<stop stop-color="#727272"/>
<stop offset="1" stop-color="white"/>
</linearGradient>
<linearGradient id="paint1_linear_1219_359" x1="18.2055" y1="9.71233" x2="21.5102" y2="10.2228" gradientUnits="userSpaceOnUse">
<stop stop-color="#727272"/>
<stop offset="1" stop-color="white"/>
</linearGradient>
</defs>
</svg>
