<svg width="46" height="77" viewBox="0 0 46 77" fill="none" xmlns="http://www.w3.org/2000/svg">
<path opacity="0.4" d="M6.4855 60.4H7.4755V66.196H14.7475V60.4H15.7375V73H14.7475V67.078H7.4755V73H6.4855V60.4ZM21.5613 73.144C20.6133 73.144 19.8453 72.856 19.2573 72.28C18.6813 71.704 18.3933 70.942 18.3933 69.994V67.204C18.3933 66.208 18.6813 65.404 19.2573 64.792C19.8453 64.18 20.6133 63.874 21.5613 63.874H23.0373C23.9493 63.874 24.6813 64.174 25.2333 64.774C25.7973 65.362 26.0793 66.148 26.0793 67.132V68.644H19.3653V69.994C19.3653 70.678 19.5633 71.23 19.9593 71.65C20.3673 72.07 20.9013 72.28 21.5613 72.28H22.9293C23.5773 72.28 24.0993 72.094 24.4953 71.722C24.9033 71.338 25.1073 70.84 25.1073 70.228H26.0433C26.0433 71.104 25.7553 71.812 25.1793 72.352C24.6153 72.88 23.8653 73.144 22.9293 73.144H21.5613ZM25.1253 67.816V67.132C25.1253 66.412 24.9333 65.836 24.5493 65.404C24.1653 64.96 23.6613 64.738 23.0373 64.738H21.5613C20.9013 64.738 20.3673 64.966 19.9593 65.422C19.5633 65.878 19.3653 66.472 19.3653 67.204V67.816H25.1253ZM30.7399 73C29.9599 73 29.4019 72.82 29.0659 72.46C28.7299 72.1 28.5619 71.5 28.5619 70.66V60.4H29.5339V70.66C29.5339 71.188 29.6239 71.566 29.8039 71.794C29.9959 72.022 30.3079 72.136 30.7399 72.136H31.3159V73H30.7399ZM33.2553 64.018H34.1913V65.422C34.4553 64.954 34.8033 64.582 35.2353 64.306C35.6793 64.018 36.1293 63.874 36.5853 63.874H37.8993C38.8113 63.874 39.5433 64.174 40.0953 64.774C40.6593 65.362 40.9413 66.142 40.9413 67.114V69.562C40.9413 70.642 40.6593 71.512 40.0953 72.172C39.5313 72.82 38.7753 73.144 37.8273 73.144H36.5133C36.0813 73.144 35.6553 73.018 35.2353 72.766C34.8273 72.514 34.4913 72.178 34.2273 71.758V76.582H33.2553V64.018ZM37.8093 72.28C38.4693 72.28 38.9973 72.034 39.3933 71.542C39.7893 71.038 39.9873 70.378 39.9873 69.562V67.114C39.9873 66.406 39.7953 65.836 39.4113 65.404C39.0273 64.96 38.5173 64.738 37.8813 64.738H36.5853C36.0573 64.738 35.5713 64.954 35.1273 65.386C34.6953 65.806 34.3953 66.316 34.2273 66.916V70.012C34.3353 70.612 34.6053 71.14 35.0373 71.596C35.4693 72.052 35.9733 72.28 36.5493 72.28H37.8093Z" fill="white"/>
<g opacity="0.4">
<path d="M1 23C1 27.7123 1.2538 31.4308 1.90643 34.3673C2.55653 37.2925 3.589 39.3802 5.10442 40.8956C6.61984 42.411 8.70748 43.4435 11.6327 44.0936C14.5692 44.7462 18.2877 45 23 45C27.7123 45 31.4308 44.7462 34.3673 44.0936C37.2925 43.4435 39.3802 42.411 40.8956 40.8956C42.411 39.3802 43.4435 37.2925 44.0936 34.3673C44.7462 31.4308 45 27.7123 45 23C45 18.2877 44.7462 14.5692 44.0936 11.6327C43.4435 8.70748 42.411 6.61984 40.8956 5.10442C39.3802 3.589 37.2925 2.55653 34.3673 1.90643C31.4308 1.2538 27.7123 1 23 1C18.2877 1 14.5692 1.2538 11.6327 1.90643C8.70748 2.55653 6.61984 3.589 5.10442 5.10442C3.589 6.61984 2.55653 8.70748 1.90643 11.6327C1.2538 14.5692 1 18.2877 1 23Z" stroke="url(#paint0_linear_1146_580)" stroke-width="2" stroke-linecap="round" stroke-linejoin="round"/>
<path fill-rule="evenodd" clip-rule="evenodd" d="M24 15C24 14.4477 23.5523 14 23 14C22.4477 14 22 14.4477 22 15V26C22 26.5523 22.4477 27 23 27C23.5523 27 24 26.5523 24 26V15ZM23 30C21.8954 30 21 30.8954 21 32C21 33.1046 21.8954 34 23 34C24.1046 34 25 33.1046 25 32C25 30.8954 24.1046 30 23 30Z" fill="url(#paint1_linear_1146_580)"/>
</g>
<defs>
<linearGradient id="paint0_linear_1146_580" x1="4.72603" y1="43.4795" x2="43.4795" y2="4.56849" gradientUnits="userSpaceOnUse">
<stop stop-color="#727272"/>
<stop offset="1" stop-color="white"/>
</linearGradient>
<linearGradient id="paint1_linear_1146_580" x1="21.411" y1="15.0959" x2="27.9158" y2="16.4022" gradientUnits="userSpaceOnUse">
<stop stop-color="#727272"/>
<stop offset="1" stop-color="white"/>
</linearGradient>
</defs>
</svg>
