<svg width="71" height="76" viewBox="0 0 71 76" fill="none" xmlns="http://www.w3.org/2000/svg">
<path fill-rule="evenodd" clip-rule="evenodd" d="M36.9915 40.8688C37.1621 40.8683 37.3316 40.8675 37.5 40.8665C56.8193 40.7451 61 36.9811 61 20.4348C61 3.60674 56.6758 0 36.5 0C16.3243 0 12 3.60674 12 20.4348C12 36.8401 16.1097 40.68 35.0094 40.8626C35.0032 40.9075 35 40.9534 35 41V46H28C27.4477 46 27 46.4477 27 47C27 47.5523 27.4477 48 28 48H36H44C44.5523 48 45 47.5523 45 47C45 46.4477 44.5523 46 44 46H37V41C37 40.9555 36.9971 40.9118 36.9915 40.8688ZM14 20.4348C14 28.8739 15.1409 33.0712 17.9651 35.4268C19.4065 36.629 21.4692 37.5102 24.5248 38.0766C27.5855 38.6439 31.4935 38.8696 36.5 38.8696C41.5065 38.8696 45.4145 38.6439 48.4753 38.0766C51.5308 37.5102 53.5935 36.629 55.0349 35.4268C57.8591 33.0712 59 28.8739 59 20.4348C59 11.9957 57.8591 7.79837 55.0349 5.44276C53.5935 4.24059 51.5308 3.35938 48.4753 2.79299C45.4145 2.22564 41.5065 2 36.5 2C31.4935 2 27.5855 2.22564 24.5248 2.79299C21.4692 3.35938 19.4065 4.24059 17.9651 5.44276C15.1409 7.79837 14 11.9957 14 20.4348Z" fill="url(#paint0_linear_1219_369)"/>
<path d="M6.22476 62.4H7.21476L11.8408 71.04L16.3408 62.4H17.3128V75H16.3408V64.254L12.3268 71.922C12.2428 72.078 12.1648 72.186 12.0928 72.246C12.0328 72.306 11.9608 72.336 11.8768 72.336H11.5708L7.19676 64.254V75H6.22476V62.4ZM22.8043 75.144C21.9643 75.144 21.2923 74.928 20.7883 74.496C20.2843 74.052 20.0323 73.464 20.0323 72.732V72.048C20.0323 71.316 20.2903 70.734 20.8063 70.302C21.3223 69.87 22.0063 69.654 22.8583 69.654H24.0283C24.4363 69.654 24.8563 69.72 25.2883 69.852C25.7323 69.984 26.1103 70.164 26.4223 70.392V68.646C26.4223 68.082 26.2483 67.62 25.9003 67.26C25.5523 66.9 25.1023 66.72 24.5503 66.72H23.1463C22.5823 66.72 22.1263 66.852 21.7783 67.116C21.4303 67.38 21.2563 67.734 21.2563 68.178H20.2843C20.2843 67.482 20.5483 66.924 21.0763 66.504C21.6043 66.084 22.2943 65.874 23.1463 65.874H24.5503C25.4023 65.874 26.0803 66.126 26.5843 66.63C27.1003 67.134 27.3583 67.806 27.3583 68.646V75H26.4403V73.596C26.1283 74.076 25.7443 74.454 25.2883 74.73C24.8323 75.006 24.3703 75.144 23.9023 75.144H22.8043ZM23.9203 74.28C24.4243 74.28 24.9043 74.1 25.3603 73.74C25.8283 73.38 26.1823 72.906 26.4223 72.318V71.346C26.1583 71.094 25.8043 70.89 25.3603 70.734C24.9283 70.578 24.4843 70.5 24.0283 70.5H22.8583C22.2943 70.5 21.8443 70.644 21.5083 70.932C21.1723 71.208 21.0043 71.58 21.0043 72.048V72.732C21.0043 73.2 21.1663 73.578 21.4903 73.866C21.8143 74.142 22.2523 74.28 22.8043 74.28H23.9203ZM30.1996 66.018H31.1356V67.548C31.4356 67.032 31.8136 66.624 32.2696 66.324C32.7376 66.024 33.2116 65.874 33.6916 65.874H34.8976C35.6776 65.874 36.3076 66.15 36.7876 66.702C37.2796 67.242 37.5256 67.962 37.5256 68.862V75H36.5716V68.844C36.5716 68.22 36.4156 67.716 36.1036 67.332C35.7916 66.936 35.3836 66.738 34.8796 66.738H33.7096C33.1696 66.738 32.6596 66.96 32.1796 67.404C31.6996 67.848 31.3636 68.424 31.1716 69.132V75H30.1996V66.018ZM41.1874 64.488C40.9474 64.488 40.7494 64.416 40.5934 64.272C40.4494 64.128 40.3774 63.936 40.3774 63.696C40.3774 63.456 40.4494 63.264 40.5934 63.12C40.7494 62.964 40.9474 62.886 41.1874 62.886C41.4274 62.886 41.6194 62.964 41.7634 63.12C41.9074 63.264 41.9794 63.456 41.9794 63.696C41.9794 63.924 41.9074 64.116 41.7634 64.272C41.6194 64.416 41.4274 64.488 41.1874 64.488ZM40.7014 66.018H41.6554V75H40.7014V66.018ZM48.3501 75C47.4381 75 46.7841 74.808 46.3881 74.424C45.9921 74.028 45.7941 73.38 45.7941 72.48V66.882H44.2101V66.018H45.7941V63.3H46.7481V66.018H49.0881V66.882H46.7481V72.48C46.7481 73.068 46.8681 73.494 47.1081 73.758C47.3481 74.01 47.7501 74.136 48.3141 74.136H49.0881V75H48.3501ZM54.2429 75.144C53.2829 75.144 52.5089 74.844 51.9209 74.244C51.3329 73.632 51.0389 72.834 51.0389 71.85V69.168C51.0389 68.184 51.3329 67.392 51.9209 66.792C52.5209 66.18 53.3069 65.874 54.2789 65.874H55.7009C56.6729 65.874 57.4529 66.18 58.0409 66.792C58.6409 67.392 58.9409 68.184 58.9409 69.168V71.85C58.9409 72.834 58.6409 73.632 58.0409 74.244C57.4409 74.844 56.6489 75.144 55.6649 75.144H54.2429ZM55.6649 74.28C56.3609 74.28 56.9189 74.058 57.3389 73.614C57.7709 73.17 57.9869 72.582 57.9869 71.85V69.168C57.9869 68.436 57.7769 67.848 57.3569 67.404C56.9369 66.96 56.3849 66.738 55.7009 66.738H54.2789C53.5949 66.738 53.0429 66.96 52.6229 67.404C52.2149 67.848 52.0109 68.436 52.0109 69.168V71.85C52.0109 72.582 52.2149 73.17 52.6229 73.614C53.0309 74.058 53.5709 74.28 54.2429 74.28H55.6649ZM61.5414 66.018H62.4774V67.476C62.7414 67.02 63.1194 66.66 63.6114 66.396C64.1034 66.12 64.6314 65.982 65.1954 65.982H65.8614V66.846H65.1774C64.3974 66.846 63.7554 67.098 63.2514 67.602C62.7594 68.106 62.5134 68.76 62.5134 69.564V75H61.5414V66.018Z" fill="url(#paint1_linear_1219_369)"/>
<defs>
<linearGradient id="paint0_linear_1219_369" x1="49.2472" y1="65.7352" x2="54.4787" y2="30.2432" gradientUnits="userSpaceOnUse">
<stop stop-color="#101010" stop-opacity="0.2"/>
<stop offset="1" stop-color="white" stop-opacity="0.7"/>
</linearGradient>
<linearGradient id="paint1_linear_1219_369" x1="7.29452" y1="60.8767" x2="13.055" y2="86.5429" gradientUnits="userSpaceOnUse">
<stop stop-color="#727272"/>
<stop offset="1" stop-color="white"/>
</linearGradient>
</defs>
</svg>
