<svg width="71" height="55" viewBox="0 0 71 55" fill="none" xmlns="http://www.w3.org/2000/svg">
<path opacity="0.4" fill-rule="evenodd" clip-rule="evenodd" d="M36.6892 26.0853C36.7936 26.0845 36.8971 26.0835 37 26.0824C48.4965 25.9544 51 23.4893 51 13.0439C51 2.30225 48.3525 0 36 0C23.6475 0 21 2.30225 21 13.0439C21 23.3969 23.4594 25.9101 34.6971 26.0784C34.6943 26.1089 34.6929 26.1398 34.6929 26.171V29.0009H30.7949C30.2426 29.0009 29.7949 29.4487 29.7949 30.0009C29.7949 30.5532 30.2426 31.0009 30.7949 31.0009H35.6929H40.5908C41.1431 31.0009 41.5908 30.5532 41.5908 30.0009C41.5908 29.4487 41.1431 29.0009 40.5908 29.0009H36.6929V26.171C36.6929 26.1421 36.6917 26.1135 36.6892 26.0853ZM23 13.0439C23 18.4535 23.725 20.8193 25.1802 22.0847C25.9234 22.731 27.0372 23.2511 28.8245 23.5965C30.6207 23.9437 32.951 24.0878 36 24.0878C39.049 24.0878 41.3793 23.9437 43.1755 23.5965C44.9628 23.2511 46.0766 22.731 46.8198 22.0847C48.275 20.8193 49 18.4535 49 13.0439C49 7.63424 48.275 5.26844 46.8198 4.00302C46.0766 3.35671 44.9628 2.83665 43.1755 2.49123C41.3793 2.14411 39.049 2 36 2C32.951 2 30.6207 2.14411 28.8245 2.49123C27.0372 2.83665 25.9234 3.35671 25.1802 4.00302C23.725 5.26844 23 7.63424 23 13.0439Z" fill="url(#paint0_linear_1219_367)"/>
<path opacity="0.4" d="M6.22476 41.4H7.21476L11.8408 50.04L16.3408 41.4H17.3128V54H16.3408V43.254L12.3268 50.922C12.2428 51.078 12.1648 51.186 12.0928 51.246C12.0328 51.306 11.9608 51.336 11.8768 51.336H11.5708L7.19676 43.254V54H6.22476V41.4ZM22.8043 54.144C21.9643 54.144 21.2923 53.928 20.7883 53.496C20.2843 53.052 20.0323 52.464 20.0323 51.732V51.048C20.0323 50.316 20.2903 49.734 20.8063 49.302C21.3223 48.87 22.0063 48.654 22.8583 48.654H24.0283C24.4363 48.654 24.8563 48.72 25.2883 48.852C25.7323 48.984 26.1103 49.164 26.4223 49.392V47.646C26.4223 47.082 26.2483 46.62 25.9003 46.26C25.5523 45.9 25.1023 45.72 24.5503 45.72H23.1463C22.5823 45.72 22.1263 45.852 21.7783 46.116C21.4303 46.38 21.2563 46.734 21.2563 47.178H20.2843C20.2843 46.482 20.5483 45.924 21.0763 45.504C21.6043 45.084 22.2943 44.874 23.1463 44.874H24.5503C25.4023 44.874 26.0803 45.126 26.5843 45.63C27.1003 46.134 27.3583 46.806 27.3583 47.646V54H26.4403V52.596C26.1283 53.076 25.7443 53.454 25.2883 53.73C24.8323 54.006 24.3703 54.144 23.9023 54.144H22.8043ZM23.9203 53.28C24.4243 53.28 24.9043 53.1 25.3603 52.74C25.8283 52.38 26.1823 51.906 26.4223 51.318V50.346C26.1583 50.094 25.8043 49.89 25.3603 49.734C24.9283 49.578 24.4843 49.5 24.0283 49.5H22.8583C22.2943 49.5 21.8443 49.644 21.5083 49.932C21.1723 50.208 21.0043 50.58 21.0043 51.048V51.732C21.0043 52.2 21.1663 52.578 21.4903 52.866C21.8143 53.142 22.2523 53.28 22.8043 53.28H23.9203ZM30.1996 45.018H31.1356V46.548C31.4356 46.032 31.8136 45.624 32.2696 45.324C32.7376 45.024 33.2116 44.874 33.6916 44.874H34.8976C35.6776 44.874 36.3076 45.15 36.7876 45.702C37.2796 46.242 37.5256 46.962 37.5256 47.862V54H36.5716V47.844C36.5716 47.22 36.4156 46.716 36.1036 46.332C35.7916 45.936 35.3836 45.738 34.8796 45.738H33.7096C33.1696 45.738 32.6596 45.96 32.1796 46.404C31.6996 46.848 31.3636 47.424 31.1716 48.132V54H30.1996V45.018ZM41.1874 43.488C40.9474 43.488 40.7494 43.416 40.5934 43.272C40.4494 43.128 40.3774 42.936 40.3774 42.696C40.3774 42.456 40.4494 42.264 40.5934 42.12C40.7494 41.964 40.9474 41.886 41.1874 41.886C41.4274 41.886 41.6194 41.964 41.7634 42.12C41.9074 42.264 41.9794 42.456 41.9794 42.696C41.9794 42.924 41.9074 43.116 41.7634 43.272C41.6194 43.416 41.4274 43.488 41.1874 43.488ZM40.7014 45.018H41.6554V54H40.7014V45.018ZM48.3501 54C47.4381 54 46.7841 53.808 46.3881 53.424C45.9921 53.028 45.7941 52.38 45.7941 51.48V45.882H44.2101V45.018H45.7941V42.3H46.7481V45.018H49.0881V45.882H46.7481V51.48C46.7481 52.068 46.8681 52.494 47.1081 52.758C47.3481 53.01 47.7501 53.136 48.3141 53.136H49.0881V54H48.3501ZM54.2429 54.144C53.2829 54.144 52.5089 53.844 51.9209 53.244C51.3329 52.632 51.0389 51.834 51.0389 50.85V48.168C51.0389 47.184 51.3329 46.392 51.9209 45.792C52.5209 45.18 53.3069 44.874 54.2789 44.874H55.7009C56.6729 44.874 57.4529 45.18 58.0409 45.792C58.6409 46.392 58.9409 47.184 58.9409 48.168V50.85C58.9409 51.834 58.6409 52.632 58.0409 53.244C57.4409 53.844 56.6489 54.144 55.6649 54.144H54.2429ZM55.6649 53.28C56.3609 53.28 56.9189 53.058 57.3389 52.614C57.7709 52.17 57.9869 51.582 57.9869 50.85V48.168C57.9869 47.436 57.7769 46.848 57.3569 46.404C56.9369 45.96 56.3849 45.738 55.7009 45.738H54.2789C53.5949 45.738 53.0429 45.96 52.6229 46.404C52.2149 46.848 52.0109 47.436 52.0109 48.168V50.85C52.0109 51.582 52.2149 52.17 52.6229 52.614C53.0309 53.058 53.5709 53.28 54.2429 53.28H55.6649ZM61.5414 45.018H62.4774V46.476C62.7414 46.02 63.1194 45.66 63.6114 45.396C64.1034 45.12 64.6314 44.982 65.1954 44.982H65.8614V45.846H65.1774C64.3974 45.846 63.7554 46.098 63.2514 46.602C62.7594 47.106 62.5134 47.76 62.5134 48.564V54H61.5414V45.018Z" fill="url(#paint1_linear_1219_367)"/>
<defs>
<linearGradient id="paint0_linear_1219_367" x1="24.0822" y1="1.69868" x2="50.1888" y2="27.0651" gradientUnits="userSpaceOnUse">
<stop stop-color="#727272"/>
<stop offset="1" stop-color="white"/>
</linearGradient>
<linearGradient id="paint1_linear_1219_367" x1="7.29452" y1="39.8767" x2="13.055" y2="65.5429" gradientUnits="userSpaceOnUse">
<stop stop-color="#727272"/>
<stop offset="1" stop-color="white"/>
</linearGradient>
</defs>
</svg>
