<svg width="59" height="62" viewBox="0 0 59 62" fill="none" xmlns="http://www.w3.org/2000/svg">
<path d="M25.1664 6.18492C24.8378 7.94763 23.0159 8.9992 21.3287 8.40341C16.1879 6.58816 12.362 13.24 16.4944 16.7811C17.8548 17.9468 17.8548 20.0531 16.4944 21.2188C12.362 24.7599 16.1879 31.4118 21.3287 29.5965C23.0159 29.0007 24.8378 30.0523 25.1664 31.815C26.165 37.1727 33.835 37.1727 34.8336 31.815C35.1622 30.0523 36.9841 29.0007 38.6713 29.5965C43.8121 31.4118 47.638 24.7599 43.5056 21.2188C42.1452 20.0531 42.1452 17.9468 43.5056 16.7811C47.638 13.24 43.8121 6.58816 38.6713 8.40341C36.9841 8.9992 35.1622 7.94763 34.8336 6.18492C33.835 0.827196 26.165 0.827195 25.1664 6.18492Z" stroke="url(#paint0_linear_1219_361)" stroke-width="2" stroke-linejoin="round"/>
<circle cx="6.33333" cy="6.33333" r="5.33333" transform="matrix(-1 0 0 1 36.334 12.6666)" stroke="url(#paint1_linear_1219_361)" stroke-width="2"/>
<path d="M7.20538 58.128C6.25604 58.128 5.49871 57.8453 4.93338 57.28C4.37871 56.7147 4.10138 55.9467 4.10138 54.976H4.96538C4.96538 55.7013 5.16804 56.2773 5.57338 56.704C5.97871 57.12 6.52804 57.328 7.22137 57.328H9.01338C9.68538 57.328 10.224 57.1733 10.6294 56.864C11.0454 56.5547 11.2534 56.1493 11.2534 55.648V54.56C11.2534 54.1547 11.104 53.808 10.8054 53.52C10.5067 53.232 10.0907 53.0453 9.55738 52.96L6.69338 52.48C5.92538 52.352 5.32271 52.0747 4.88538 51.648C4.45871 51.2213 4.24538 50.688 4.24538 50.048V49.12C4.24538 48.384 4.52271 47.792 5.07738 47.344C5.63204 46.896 6.36271 46.672 7.26938 46.672H9.07738C9.94138 46.672 10.6347 46.9333 11.1574 47.456C11.6907 47.9787 11.9574 48.6667 11.9574 49.52H11.0934C11.0934 48.9013 10.9067 48.4053 10.5334 48.032C10.1707 47.648 9.68538 47.456 9.07738 47.456H7.26938C6.61871 47.456 6.09604 47.6107 5.70138 47.92C5.31738 48.2187 5.12538 48.6187 5.12538 49.12V50.048C5.12538 50.4747 5.26938 50.832 5.55738 51.12C5.84538 51.408 6.25071 51.5947 6.77338 51.68L9.62138 52.176C10.4107 52.3147 11.024 52.592 11.4614 53.008C11.9094 53.424 12.1334 53.9413 12.1334 54.56V55.648C12.1334 56.3947 11.8507 56.9973 11.2854 57.456C10.72 57.904 9.96804 58.128 9.02938 58.128H7.20538ZM16.8393 58.128C15.9966 58.128 15.3139 57.872 14.7913 57.36C14.2793 56.848 14.0233 56.1707 14.0233 55.328V52.848C14.0233 51.9627 14.2793 51.248 14.7913 50.704C15.3139 50.16 15.9966 49.888 16.8393 49.888H18.1513C18.9619 49.888 19.6126 50.1547 20.1033 50.688C20.6046 51.2107 20.8553 51.9093 20.8553 52.784V54.128H14.8873V55.328C14.8873 55.936 15.0633 56.4267 15.4153 56.8C15.7779 57.1733 16.2526 57.36 16.8393 57.36H18.0553C18.6313 57.36 19.0953 57.1947 19.4473 56.864C19.8099 56.5227 19.9913 56.08 19.9913 55.536H20.8233C20.8233 56.3147 20.5673 56.944 20.0553 57.424C19.5539 57.8933 18.8873 58.128 18.0553 58.128H16.8393ZM20.0073 53.392V52.784C20.0073 52.144 19.8366 51.632 19.4953 51.248C19.1539 50.8533 18.7059 50.656 18.1513 50.656H16.8393C16.2526 50.656 15.7779 50.8587 15.4153 51.264C15.0633 51.6693 14.8873 52.1973 14.8873 52.848V53.392H20.0073ZM26.0083 58C25.1976 58 24.6163 57.8293 24.2643 57.488C23.9123 57.136 23.7363 56.56 23.7363 55.76V50.784H22.3283V50.016H23.7363V47.6H24.5843V50.016H26.6643V50.784H24.5843V55.76C24.5843 56.2827 24.6909 56.6613 24.9043 56.896C25.1176 57.12 25.4749 57.232 25.9763 57.232H26.6643V58H26.0083ZM32.0083 58C31.1976 58 30.6163 57.8293 30.2643 57.488C29.9123 57.136 29.7363 56.56 29.7363 55.76V50.784H28.3283V50.016H29.7363V47.6H30.5843V50.016H32.6643V50.784H30.5843V55.76C30.5843 56.2827 30.6909 56.6613 30.9043 56.896C31.1176 57.12 31.4749 57.232 31.9763 57.232H32.6643V58H32.0083ZM35.6883 48.656C35.4749 48.656 35.2989 48.592 35.1603 48.464C35.0323 48.336 34.9683 48.1653 34.9683 47.952C34.9683 47.7387 35.0323 47.568 35.1603 47.44C35.2989 47.3013 35.4749 47.232 35.6883 47.232C35.9016 47.232 36.0723 47.3013 36.2003 47.44C36.3283 47.568 36.3923 47.7387 36.3923 47.952C36.3923 48.1547 36.3283 48.3253 36.2003 48.464C36.0723 48.592 35.9016 48.656 35.6883 48.656ZM35.2563 50.016H36.1043V58H35.2563V50.016ZM39.0151 50.016H39.8471V51.376C40.1138 50.9173 40.4498 50.5547 40.8551 50.288C41.2711 50.0213 41.6925 49.888 42.1191 49.888H43.1911C43.8845 49.888 44.4445 50.1333 44.8711 50.624C45.3085 51.104 45.5271 51.744 45.5271 52.544V58H44.6791V52.528C44.6791 51.9733 44.5405 51.5253 44.2631 51.184C43.9858 50.832 43.6231 50.656 43.1751 50.656H42.1351C41.6551 50.656 41.2018 50.8533 40.7751 51.248C40.3485 51.6427 40.0498 52.1547 39.8791 52.784V58H39.0151V50.016ZM50.51 61.248C49.8487 61.248 49.3047 61.072 48.878 60.72C48.4513 60.3787 48.2113 59.9253 48.158 59.36H49.022C49.0647 59.7013 49.2193 59.9733 49.486 60.176C49.7633 60.3893 50.1047 60.496 50.51 60.496H51.838C52.4353 60.496 52.8993 60.2987 53.23 59.904C53.5607 59.52 53.726 58.9813 53.726 58.288V56.72C53.47 57.104 53.1447 57.4133 52.75 57.648C52.366 57.8827 51.9767 58 51.582 58H50.398C49.6087 58 48.9687 57.728 48.478 57.184C47.9873 56.64 47.742 55.92 47.742 55.024V52.96C47.742 52.0427 47.998 51.3013 48.51 50.736C49.0327 50.1707 49.7207 49.888 50.574 49.888H51.758C52.142 49.888 52.5153 49.9947 52.878 50.208C53.2513 50.4107 53.5393 50.6827 53.742 51.024V50.016H54.574V58.288C54.574 59.216 54.334 59.9413 53.854 60.464C53.374 60.9867 52.702 61.248 51.838 61.248H50.51ZM51.566 57.232C52.0993 57.232 52.5633 57.024 52.958 56.608C53.3633 56.1813 53.6193 55.6853 53.726 55.12V52.464C53.63 51.9307 53.3953 51.4987 53.022 51.168C52.6593 50.8267 52.238 50.656 51.758 50.656H50.59C49.9927 50.656 49.5127 50.8693 49.15 51.296C48.7873 51.7227 48.606 52.2773 48.606 52.96V55.024C48.606 55.6747 48.7713 56.208 49.102 56.624C49.4433 57.0293 49.8807 57.232 50.414 57.232H51.566Z" fill="white"/>
<defs>
<linearGradient id="paint0_linear_1219_361" x1="15.6769" y1="28.9384" x2="38.844" y2="7.49303" gradientUnits="userSpaceOnUse">
<stop stop-color="#727272"/>
<stop offset="1" stop-color="white"/>
</linearGradient>
<linearGradient id="paint1_linear_1219_361" x1="1.30137" y1="0.694064" x2="11.9726" y2="11.4087" gradientUnits="userSpaceOnUse">
<stop stop-color="#727272"/>
<stop offset="1" stop-color="white"/>
</linearGradient>
</defs>
</svg>
