<svg width="57" height="80" viewBox="0 0 57 80" fill="none" xmlns="http://www.w3.org/2000/svg">
<path d="M21.7411 9.36905C21.1921 12.3144 18.1473 14.0727 15.3265 13.0766C8.14006 10.5391 2.78673 19.8389 8.56699 24.7921C10.8404 26.7402 10.8404 30.2598 8.56699 32.2079C2.78672 37.1611 8.14006 46.4609 15.3265 43.9234C18.1473 42.9273 21.1921 44.6856 21.7411 47.6309C23.1375 55.123 33.8625 55.123 35.2589 47.6309C35.8079 44.6856 38.8527 42.9273 41.6735 43.9234C48.8599 46.4609 54.2133 37.1611 48.433 32.2079C46.1596 30.2598 46.1596 26.7402 48.433 24.7921C54.2133 19.8389 48.8599 10.5391 41.6735 13.0766C38.8527 14.0727 35.8079 12.3144 35.2589 9.36906C33.8625 1.87698 23.1375 1.87698 21.7411 9.36905Z" stroke="url(#paint0_linear_1219_382)" stroke-width="2" stroke-linejoin="round"/>
<circle cx="9.5" cy="9.5" r="8.5" transform="matrix(-1 0 0 1 38 19)" stroke="url(#paint1_linear_1219_382)" stroke-width="2"/>
<path d="M52.4111 80C51.6643 80 51.0499 79.8068 50.5681 79.4204C50.0862 79.0458 49.8152 78.5481 49.755 77.9276H50.7307C50.7789 78.3023 50.9536 78.6008 51.2547 78.8233C51.5679 79.0575 51.9534 79.1746 52.4111 79.1746H53.9109C54.5855 79.1746 55.1095 78.9579 55.4829 78.5247C55.8563 78.1032 56.043 77.5119 56.043 76.7508V75.0296C55.7539 75.4512 55.3865 75.7907 54.9408 76.0483C54.5072 76.3059 54.0675 76.4347 53.6218 76.4347H52.2846C51.3932 76.4347 50.6705 76.1361 50.1163 75.539C49.5622 74.9418 49.2852 74.1515 49.2852 73.1679V70.9023C49.2852 69.8953 49.5743 69.0816 50.1525 68.461C50.7427 67.8404 51.5197 67.5302 52.4834 67.5302H53.8205C54.2542 67.5302 54.6758 67.6472 55.0854 67.8814C55.507 68.1039 55.8322 68.4025 56.0611 68.7771V67.6707H57.0007V76.7508C57.0007 77.7695 56.7297 78.5657 56.1876 79.1394C55.6455 79.7132 54.8866 80 53.9109 80H52.4111ZM53.6037 75.5917C54.206 75.5917 54.73 75.3633 55.1757 74.9067C55.6335 74.4383 55.9226 73.8939 56.043 73.2733V70.3578C55.9346 69.7724 55.6696 69.2982 55.248 68.9352C54.8384 68.5605 54.3626 68.3732 53.8205 68.3732H52.5015C51.8269 68.3732 51.2848 68.6074 50.8752 69.0757C50.4657 69.5441 50.2609 70.1529 50.2609 70.9023V73.1679C50.2609 73.8822 50.4476 74.4676 50.821 74.9243C51.2065 75.3692 51.7004 75.5917 52.3027 75.5917H53.6037Z" fill="white"/>
<path d="M39.4277 67.6707H40.3673V69.1635C40.6685 68.6601 41.0479 68.262 41.5057 67.9692C41.9755 67.6765 42.4513 67.5302 42.9332 67.5302H44.1438C44.9268 67.5302 45.5592 67.7995 46.0411 68.3381C46.535 68.865 46.7819 69.5675 46.7819 70.4456V76.4347H45.8242V70.4281C45.8242 69.8192 45.6676 69.3275 45.3544 68.9528C45.0412 68.5664 44.6317 68.3732 44.1257 68.3732H42.9512C42.4092 68.3732 41.8972 68.5898 41.4153 69.023C40.9335 69.4562 40.5962 70.0183 40.4035 70.7091V76.4347H39.4277V67.6707Z" fill="white"/>
<path d="M35.6705 66.1777C35.4296 66.1777 35.2309 66.1075 35.0743 65.967C34.9297 65.8265 34.8574 65.6391 34.8574 65.405C34.8574 65.1708 34.9297 64.9835 35.0743 64.8429C35.2309 64.6907 35.4296 64.6146 35.6705 64.6146C35.9115 64.6146 36.1042 64.6907 36.2488 64.8429C36.3933 64.9835 36.4656 65.1708 36.4656 65.405C36.4656 65.6274 36.3933 65.8148 36.2488 65.967C36.1042 66.1075 35.9115 66.1777 35.6705 66.1777ZM35.1827 67.6706H36.1403V76.4347H35.1827V67.6706Z" fill="white"/>
<path d="M31.5153 76.4346C30.5998 76.4346 29.9433 76.2473 29.5457 75.8726C29.1482 75.4862 28.9495 74.8539 28.9495 73.9758V68.5136H27.3594V67.6706H28.9495V65.0186H29.9071V67.6706H32.2561V68.5136H29.9071V73.9758C29.9071 74.5495 30.0276 74.9652 30.2685 75.2228C30.5094 75.4687 30.913 75.5916 31.4792 75.5916H32.2561V76.4346H31.5153Z" fill="white"/>
<path d="M24.7399 76.4346C23.8244 76.4346 23.1679 76.2473 22.7704 75.8726C22.3728 75.4862 22.1741 74.8539 22.1741 73.9758V68.5136H20.584V67.6706H22.1741V65.0186H23.1317V67.6706H25.4807V68.5136H23.1317V73.9758C23.1317 74.5495 23.2522 74.9652 23.4931 75.2228C23.7341 75.4687 24.1376 75.5916 24.7038 75.5916H25.4807V76.4346H24.7399Z" fill="white"/>
<path d="M14.3853 76.5752C13.4336 76.5752 12.6627 76.2942 12.0724 75.7322C11.4942 75.1701 11.2051 74.4266 11.2051 73.5016V70.7793C11.2051 69.8075 11.4942 69.023 12.0724 68.4259C12.6627 67.8287 13.4336 67.5302 14.3853 67.5302H15.8669C16.7824 67.5302 17.5173 67.8229 18.0714 68.4083C18.6375 68.982 18.9206 69.749 18.9206 70.7091V72.1844H12.1808V73.5016C12.1808 74.169 12.3796 74.7076 12.7771 75.1175C13.1867 75.5273 13.7227 75.7322 14.3853 75.7322H15.7585C16.409 75.7322 16.933 75.5507 17.3305 75.1877C17.7401 74.813 17.9449 74.3271 17.9449 73.73H18.8845C18.8845 74.5847 18.5954 75.2755 18.0172 75.8024C17.451 76.3176 16.6981 76.5752 15.7585 76.5752H14.3853ZM17.963 71.3765V70.7091C17.963 70.0066 17.7702 69.4445 17.3847 69.023C16.9993 68.5898 16.4933 68.3732 15.8669 68.3732H14.3853C13.7227 68.3732 13.1867 68.5957 12.7771 69.0406C12.3796 69.4855 12.1808 70.0651 12.1808 70.7793V71.3765H17.963Z" fill="white"/>
<path d="M3.50543 76.5753C2.43332 76.5753 1.57804 76.265 0.939599 75.6444C0.3132 75.0238 0 74.1808 0 73.1153H0.975737C0.975737 73.9115 1.20461 74.5438 1.66236 75.0121C2.12012 75.4688 2.74049 75.6971 3.52349 75.6971H5.54725C6.30615 75.6971 6.91448 75.5273 7.37223 75.1878C7.84203 74.8482 8.07693 74.4033 8.07693 73.853V72.6587C8.07693 72.2137 7.90829 71.8332 7.571 71.5171C7.2337 71.2009 6.7639 70.996 6.1616 70.9023L2.92721 70.3754C2.05989 70.2349 1.37928 69.9305 0.885391 69.4622C0.403545 68.9938 0.162622 68.4084 0.162622 67.7058V66.6872C0.162622 65.8793 0.475822 65.2294 1.10222 64.7377C1.72862 64.2459 2.55378 64 3.5777 64H5.61952C6.59526 64 7.37826 64.2869 7.96852 64.8606C8.57082 65.4343 8.87198 66.1895 8.87198 67.1262H7.89624C7.89624 66.4471 7.68543 65.9027 7.26382 65.4929C6.85425 65.0714 6.30615 64.8606 5.61952 64.8606H3.5777C2.84289 64.8606 2.25263 65.0304 1.80692 65.3699C1.37326 65.6978 1.15643 66.1369 1.15643 66.6872V67.7058C1.15643 68.1742 1.31905 68.5664 1.6443 68.8826C1.96954 69.1987 2.4273 69.4036 3.01756 69.4973L6.23387 70.0417C7.12529 70.194 7.81794 70.4984 8.31183 70.955C8.81777 71.4117 9.07074 71.9795 9.07074 72.6587V73.853C9.07074 74.6726 8.75152 75.3341 8.11307 75.8376C7.47463 76.3294 6.62537 76.5753 5.56531 76.5753H3.50543Z" fill="white"/>
<defs>
<linearGradient id="paint0_linear_1219_382" x1="7.01538" y1="43.4077" x2="41.766" y2="11.2396" gradientUnits="userSpaceOnUse">
<stop stop-color="#727272"/>
<stop offset="1" stop-color="white"/>
</linearGradient>
<linearGradient id="paint1_linear_1219_382" x1="1.95206" y1="1.0411" x2="17.9589" y2="17.113" gradientUnits="userSpaceOnUse">
<stop stop-color="#727272"/>
<stop offset="1" stop-color="white"/>
</linearGradient>
</defs>
</svg>
