<svg width="67" height="61" viewBox="0 0 67 61" fill="none" xmlns="http://www.w3.org/2000/svg">
<path d="M7.01006 58.128C6.06073 58.128 5.3034 57.8453 4.73806 57.28C4.1834 56.7147 3.90606 55.9467 3.90606 54.976H4.77006C4.77006 55.7013 4.97273 56.2773 5.37806 56.704C5.7834 57.12 6.33273 57.328 7.02606 57.328H8.81806C9.49006 57.328 10.0287 57.1733 10.4341 56.864C10.8501 56.5547 11.0581 56.1493 11.0581 55.648V54.56C11.0581 54.1547 10.9087 53.808 10.6101 53.52C10.3114 53.232 9.8954 53.0453 9.36206 52.96L6.49806 52.48C5.73006 52.352 5.1274 52.0747 4.69006 51.648C4.2634 51.2213 4.05006 50.688 4.05006 50.048V49.12C4.05006 48.384 4.3274 47.792 4.88206 47.344C5.43673 46.896 6.1674 46.672 7.07406 46.672H8.88206C9.74606 46.672 10.4394 46.9333 10.9621 47.456C11.4954 47.9787 11.7621 48.6667 11.7621 49.52H10.8981C10.8981 48.9013 10.7114 48.4053 10.3381 48.032C9.9754 47.648 9.49006 47.456 8.88206 47.456H7.07406C6.4234 47.456 5.90073 47.6107 5.50606 47.92C5.12206 48.2187 4.93006 48.6187 4.93006 49.12V50.048C4.93006 50.4747 5.07406 50.832 5.36206 51.12C5.65006 51.408 6.0554 51.5947 6.57806 51.68L9.42606 52.176C10.2154 52.3147 10.8287 52.592 11.2661 53.008C11.7141 53.424 11.9381 53.9413 11.9381 54.56V55.648C11.9381 56.3947 11.6554 56.9973 11.0901 57.456C10.5247 57.904 9.77273 58.128 8.83406 58.128H7.01006ZM17.1879 58C16.3773 58 15.7959 57.8293 15.4439 57.488C15.0919 57.136 14.9159 56.56 14.9159 55.76V50.784H13.5079V50.016H14.9159V47.6H15.7639V50.016H17.8439V50.784H15.7639V55.76C15.7639 56.2827 15.8706 56.6613 16.0839 56.896C16.2973 57.12 16.6546 57.232 17.1559 57.232H17.8439V58H17.1879ZM22.1524 58.128C21.4058 58.128 20.8084 57.936 20.3604 57.552C19.9124 57.1573 19.6884 56.6347 19.6884 55.984V55.376C19.6884 54.7253 19.9178 54.208 20.3764 53.824C20.8351 53.44 21.4431 53.248 22.2004 53.248H23.2404C23.6031 53.248 23.9764 53.3067 24.3604 53.424C24.7551 53.5413 25.0911 53.7013 25.3684 53.904V52.352C25.3684 51.8507 25.2138 51.44 24.9044 51.12C24.5951 50.8 24.1951 50.64 23.7044 50.64H22.4564C21.9551 50.64 21.5498 50.7573 21.2404 50.992C20.9311 51.2267 20.7764 51.5413 20.7764 51.936H19.9124C19.9124 51.3173 20.1471 50.8213 20.6164 50.448C21.0858 50.0747 21.6991 49.888 22.4564 49.888H23.7044C24.4618 49.888 25.0644 50.112 25.5124 50.56C25.9711 51.008 26.2004 51.6053 26.2004 52.352V58H25.3844V56.752C25.1071 57.1787 24.7658 57.5147 24.3604 57.76C23.9551 58.0053 23.5444 58.128 23.1284 58.128H22.1524ZM23.1444 57.36C23.5924 57.36 24.0191 57.2 24.4244 56.88C24.8404 56.56 25.1551 56.1387 25.3684 55.616V54.752C25.1338 54.528 24.8191 54.3467 24.4244 54.208C24.0404 54.0693 23.6458 54 23.2404 54H22.2004C21.6991 54 21.2991 54.128 21.0004 54.384C20.7018 54.6293 20.5524 54.96 20.5524 55.376V55.984C20.5524 56.4 20.6964 56.736 20.9844 56.992C21.2724 57.2373 21.6618 57.36 22.1524 57.36H23.1444ZM31.7661 58C30.9554 58 30.3741 57.8293 30.0221 57.488C29.6701 57.136 29.4941 56.56 29.4941 55.76V50.784H28.0861V50.016H29.4941V47.6H30.3421V50.016H32.4221V50.784H30.3421V55.76C30.3421 56.2827 30.4487 56.6613 30.6621 56.896C30.8754 57.12 31.2327 57.232 31.7341 57.232H32.4221V58H31.7661ZM35.4461 48.656C35.2327 48.656 35.0567 48.592 34.9181 48.464C34.7901 48.336 34.7261 48.1653 34.7261 47.952C34.7261 47.7387 34.7901 47.568 34.9181 47.44C35.0567 47.3013 35.2327 47.232 35.4461 47.232C35.6594 47.232 35.8301 47.3013 35.9581 47.44C36.0861 47.568 36.1501 47.7387 36.1501 47.952C36.1501 48.1547 36.0861 48.3253 35.9581 48.464C35.8301 48.592 35.6594 48.656 35.4461 48.656ZM35.0141 50.016H35.8621V58H35.0141V50.016ZM40.8849 58.128C40.1276 58.128 39.5143 57.9093 39.0449 57.472C38.5863 57.024 38.3569 56.4373 38.3569 55.712H39.1889C39.1889 56.2027 39.3436 56.6027 39.6529 56.912C39.9729 57.2213 40.3836 57.376 40.8849 57.376H42.2609C42.7836 57.376 43.1996 57.2693 43.5089 57.056C43.8289 56.8427 43.9889 56.5653 43.9889 56.224V55.6C43.9889 55.3653 43.8983 55.1573 43.7169 54.976C43.5463 54.7947 43.3223 54.6773 43.0449 54.624L40.2609 54.144C39.7383 54.0587 39.3169 53.8613 38.9969 53.552C38.6876 53.232 38.5329 52.8587 38.5329 52.432V51.888C38.5329 51.2907 38.7516 50.8107 39.1889 50.448C39.6369 50.0747 40.2236 49.888 40.9489 49.888H42.3089C43.0129 49.888 43.5783 50.0907 44.0049 50.496C44.4423 50.9013 44.6609 51.4347 44.6609 52.096H43.8289C43.8076 51.6587 43.6583 51.3067 43.3809 51.04C43.1143 50.7733 42.7569 50.64 42.3089 50.64H40.9489C40.4796 50.64 40.1009 50.7573 39.8129 50.992C39.5249 51.216 39.3809 51.5147 39.3809 51.888V52.4C39.3809 52.6453 39.4769 52.864 39.6689 53.056C39.8609 53.2373 40.1116 53.3493 40.4209 53.392L43.2049 53.872C43.6956 53.9573 44.0903 54.1547 44.3889 54.464C44.6876 54.7733 44.8369 55.1413 44.8369 55.568V56.24C44.8369 56.8053 44.6023 57.264 44.1329 57.616C43.6636 57.9573 43.0396 58.128 42.2609 58.128H40.8849ZM49.9223 58C49.1116 58 48.5303 57.8293 48.1783 57.488C47.8263 57.136 47.6503 56.56 47.6503 55.76V50.784H46.2423V50.016H47.6503V47.6H48.4983V50.016H50.5783V50.784H48.4983V55.76C48.4983 56.2827 48.605 56.6613 48.8183 56.896C49.0316 57.12 49.389 57.232 49.8903 57.232H50.5783V58H49.9223ZM53.6023 48.656C53.389 48.656 53.213 48.592 53.0743 48.464C52.9463 48.336 52.8823 48.1653 52.8823 47.952C52.8823 47.7387 52.9463 47.568 53.0743 47.44C53.213 47.3013 53.389 47.232 53.6023 47.232C53.8156 47.232 53.9863 47.3013 54.1143 47.44C54.2423 47.568 54.3063 47.7387 54.3063 47.952C54.3063 48.1547 54.2423 48.3253 54.1143 48.464C53.9863 48.592 53.8156 48.656 53.6023 48.656ZM53.1703 50.016H54.0183V58H53.1703V50.016ZM59.3772 58.128C58.5452 58.128 57.8732 57.872 57.3612 57.36C56.8599 56.8373 56.6092 56.1547 56.6092 55.312V52.848C56.6092 51.9627 56.8599 51.248 57.3612 50.704C57.8732 50.16 58.5399 49.888 59.3612 49.888H60.6732C61.4519 49.888 62.0759 50.1013 62.5452 50.528C63.0252 50.9547 63.2652 51.5147 63.2652 52.208H62.4332C62.4332 51.7387 62.2679 51.3653 61.9372 51.088C61.6172 50.8 61.1959 50.656 60.6732 50.656H59.3612C58.7959 50.656 58.3372 50.8587 57.9852 51.264C57.6439 51.6587 57.4732 52.1867 57.4732 52.848V55.312C57.4732 55.9307 57.6439 56.4267 57.9852 56.8C58.3372 57.1733 58.8012 57.36 59.3772 57.36H60.6892C61.2225 57.36 61.6545 57.1733 61.9852 56.8C62.3159 56.4267 62.4812 55.936 62.4812 55.328H63.3132C63.3132 56.1707 63.0732 56.848 62.5932 57.36C62.1132 57.872 61.4785 58.128 60.6892 58.128H59.3772Z" fill="white"/>
<path d="M19 15.5C19 18.6682 19.1711 21.1459 19.6031 23.0898C20.0326 25.0224 20.7066 26.3655 21.6705 27.3295C22.6345 28.2934 23.9776 28.9674 25.9102 29.3969C27.8541 29.8289 30.3318 30 33.5 30C36.6682 30 39.1459 29.8289 41.0898 29.3969C43.0224 28.9674 44.3655 28.2934 45.3295 27.3295C46.2934 26.3655 46.9674 25.0224 47.3969 23.0898C47.8289 21.1459 48 18.6682 48 15.5C48 12.3318 47.8289 9.85407 47.3969 7.91016C46.9674 5.9776 46.2934 4.63445 45.3295 3.67051C44.3655 2.70658 43.0224 2.03258 41.0898 1.60308C39.1459 1.17107 36.6682 1 33.5 1C30.3318 1 27.8541 1.17107 25.9102 1.60308C23.9776 2.03258 22.6345 2.70658 21.6705 3.67051C20.7066 4.63445 20.0326 5.9776 19.6031 7.91016C19.1711 9.85407 19 12.3318 19 15.5Z" stroke="url(#paint0_linear_1219_360)" stroke-width="2" stroke-linecap="round" stroke-linejoin="round"/>
<path d="M33.5 9V22M40 14.2V22M27 16.8V22" stroke="url(#paint1_linear_1219_360)" stroke-width="2" stroke-linecap="round" stroke-linejoin="round"/>
<defs>
<linearGradient id="paint0_linear_1219_360" x1="21.1849" y1="29.3014" x2="47.3014" y2="3.07877" gradientUnits="userSpaceOnUse">
<stop stop-color="#727272"/>
<stop offset="1" stop-color="white"/>
</linearGradient>
<linearGradient id="paint1_linear_1219_360" x1="28.3356" y1="9.71233" x2="39.2877" y2="20.7089" gradientUnits="userSpaceOnUse">
<stop stop-color="#727272"/>
<stop offset="1" stop-color="white"/>
</linearGradient>
</defs>
</svg>
