<svg width="69" height="76" viewBox="0 0 69 76" fill="none" xmlns="http://www.w3.org/2000/svg">
<path opacity="0.4" d="M4.69882 73.144C3.63082 73.144 2.77882 72.826 2.14282 72.19C1.51882 71.554 1.20682 70.69 1.20682 69.598H2.17882C2.17882 70.414 2.40682 71.062 2.86282 71.542C3.31882 72.01 3.93682 72.244 4.71682 72.244H6.73282C7.48882 72.244 8.09482 72.07 8.55082 71.722C9.01882 71.374 9.25282 70.918 9.25282 70.354V69.13C9.25282 68.674 9.08482 68.284 8.74882 67.96C8.41282 67.636 7.94482 67.426 7.34482 67.33L4.12282 66.79C3.25882 66.646 2.58082 66.334 2.08882 65.854C1.60882 65.374 1.36882 64.774 1.36882 64.054V63.01C1.36882 62.182 1.68082 61.516 2.30482 61.012C2.92882 60.508 3.75082 60.256 4.77082 60.256H6.80482C7.77682 60.256 8.55682 60.55 9.14482 61.138C9.74482 61.726 10.0448 62.5 10.0448 63.46H9.07282C9.07282 62.764 8.86282 62.206 8.44282 61.786C8.03482 61.354 7.48882 61.138 6.80482 61.138H4.77082C4.03882 61.138 3.45082 61.312 3.00682 61.66C2.57482 61.996 2.35882 62.446 2.35882 63.01V64.054C2.35882 64.534 2.52082 64.936 2.84482 65.26C3.16882 65.584 3.62482 65.794 4.21282 65.89L7.41682 66.448C8.30482 66.604 8.99482 66.916 9.48682 67.384C9.99082 67.852 10.2428 68.434 10.2428 69.13V70.354C10.2428 71.194 9.92482 71.872 9.28882 72.388C8.65282 72.892 7.80682 73.144 6.75082 73.144H4.69882ZM16.1489 73C15.2369 73 14.5829 72.808 14.1869 72.424C13.7909 72.028 13.5929 71.38 13.5929 70.48V64.882H12.0089V64.018H13.5929V61.3H14.5469V64.018H16.8869V64.882H14.5469V70.48C14.5469 71.068 14.6669 71.494 14.9069 71.758C15.1469 72.01 15.5489 72.136 16.1129 72.136H16.8869V73H16.1489ZM21.734 73.144C20.894 73.144 20.222 72.928 19.718 72.496C19.214 72.052 18.962 71.464 18.962 70.732V70.048C18.962 69.316 19.22 68.734 19.736 68.302C20.252 67.87 20.936 67.654 21.788 67.654H22.958C23.366 67.654 23.786 67.72 24.218 67.852C24.662 67.984 25.04 68.164 25.352 68.392V66.646C25.352 66.082 25.178 65.62 24.83 65.26C24.482 64.9 24.032 64.72 23.48 64.72H22.076C21.512 64.72 21.056 64.852 20.708 65.116C20.36 65.38 20.186 65.734 20.186 66.178H19.214C19.214 65.482 19.478 64.924 20.006 64.504C20.534 64.084 21.224 63.874 22.076 63.874H23.48C24.332 63.874 25.01 64.126 25.514 64.63C26.03 65.134 26.288 65.806 26.288 66.646V73H25.37V71.596C25.058 72.076 24.674 72.454 24.218 72.73C23.762 73.006 23.3 73.144 22.832 73.144H21.734ZM22.85 72.28C23.354 72.28 23.834 72.1 24.29 71.74C24.758 71.38 25.112 70.906 25.352 70.318V69.346C25.088 69.094 24.734 68.89 24.29 68.734C23.858 68.578 23.414 68.5 22.958 68.5H21.788C21.224 68.5 20.774 68.644 20.438 68.932C20.102 69.208 19.934 69.58 19.934 70.048V70.732C19.934 71.2 20.096 71.578 20.42 71.866C20.744 72.142 21.182 72.28 21.734 72.28H22.85ZM32.5493 73C31.6373 73 30.9833 72.808 30.5873 72.424C30.1913 72.028 29.9933 71.38 29.9933 70.48V64.882H28.4093V64.018H29.9933V61.3H30.9473V64.018H33.2873V64.882H30.9473V70.48C30.9473 71.068 31.0673 71.494 31.3073 71.758C31.5473 72.01 31.9493 72.136 32.5133 72.136H33.2873V73H32.5493ZM36.6893 62.488C36.4493 62.488 36.2513 62.416 36.0953 62.272C35.9513 62.128 35.8793 61.936 35.8793 61.696C35.8793 61.456 35.9513 61.264 36.0953 61.12C36.2513 60.964 36.4493 60.886 36.6893 60.886C36.9293 60.886 37.1213 60.964 37.2653 61.12C37.4093 61.264 37.4813 61.456 37.4813 61.696C37.4813 61.924 37.4093 62.116 37.2653 62.272C37.1213 62.416 36.9293 62.488 36.6893 62.488ZM36.2033 64.018H37.1573V73H36.2033V64.018ZM42.8081 73.144C41.9561 73.144 41.2661 72.898 40.7381 72.406C40.2221 71.902 39.9641 71.242 39.9641 70.426H40.9001C40.9001 70.978 41.0741 71.428 41.4221 71.776C41.7821 72.124 42.2441 72.298 42.8081 72.298H44.3561C44.9441 72.298 45.4121 72.178 45.7601 71.938C46.1201 71.698 46.3001 71.386 46.3001 71.002V70.3C46.3001 70.036 46.1981 69.802 45.9941 69.598C45.8021 69.394 45.5501 69.262 45.2381 69.202L42.1061 68.662C41.5181 68.566 41.0441 68.344 40.6841 67.996C40.3361 67.636 40.1621 67.216 40.1621 66.736V66.124C40.1621 65.452 40.4081 64.912 40.9001 64.504C41.4041 64.084 42.0641 63.874 42.8801 63.874H44.4101C45.2021 63.874 45.8381 64.102 46.3181 64.558C46.8101 65.014 47.0561 65.614 47.0561 66.358H46.1201C46.0961 65.866 45.9281 65.47 45.6161 65.17C45.3161 64.87 44.9141 64.72 44.4101 64.72H42.8801C42.3521 64.72 41.9261 64.852 41.6021 65.116C41.2781 65.368 41.1161 65.704 41.1161 66.124V66.7C41.1161 66.976 41.2241 67.222 41.4401 67.438C41.6561 67.642 41.9381 67.768 42.2861 67.816L45.4181 68.356C45.9701 68.452 46.4141 68.674 46.7501 69.022C47.0861 69.37 47.2541 69.784 47.2541 70.264V71.02C47.2541 71.656 46.9901 72.172 46.4621 72.568C45.9341 72.952 45.2321 73.144 44.3561 73.144H42.8081ZM52.9751 73C52.0631 73 51.4091 72.808 51.0131 72.424C50.6171 72.028 50.4191 71.38 50.4191 70.48V64.882H48.8351V64.018H50.4191V61.3H51.3731V64.018H53.7131V64.882H51.3731V70.48C51.3731 71.068 51.4931 71.494 51.7331 71.758C51.9731 72.01 52.3751 72.136 52.9391 72.136H53.7131V73H52.9751ZM57.1151 62.488C56.8751 62.488 56.6771 62.416 56.5211 62.272C56.3771 62.128 56.3051 61.936 56.3051 61.696C56.3051 61.456 56.3771 61.264 56.5211 61.12C56.6771 60.964 56.8751 60.886 57.1151 60.886C57.3551 60.886 57.5471 60.964 57.6911 61.12C57.8351 61.264 57.9071 61.456 57.9071 61.696C57.9071 61.924 57.8351 62.116 57.6911 62.272C57.5471 62.416 57.3551 62.488 57.1151 62.488ZM56.6291 64.018H57.5831V73H56.6291V64.018ZM63.6118 73.144C62.6758 73.144 61.9198 72.856 61.3438 72.28C60.7798 71.692 60.4978 70.924 60.4978 69.976V67.204C60.4978 66.208 60.7798 65.404 61.3438 64.792C61.9198 64.18 62.6698 63.874 63.5938 63.874H65.0698C65.9458 63.874 66.6478 64.114 67.1758 64.594C67.7158 65.074 67.9858 65.704 67.9858 66.484H67.0498C67.0498 65.956 66.8638 65.536 66.4918 65.224C66.1318 64.9 65.6578 64.738 65.0698 64.738H63.5938C62.9578 64.738 62.4418 64.966 62.0458 65.422C61.6618 65.866 61.4698 66.46 61.4698 67.204V69.976C61.4698 70.672 61.6618 71.23 62.0458 71.65C62.4418 72.07 62.9638 72.28 63.6118 72.28H65.0878C65.6878 72.28 66.1738 72.07 66.5458 71.65C66.9178 71.23 67.1038 70.678 67.1038 69.994H68.0398C68.0398 70.942 67.7698 71.704 67.2298 72.28C66.6898 72.856 65.9758 73.144 65.0878 73.144H63.6118Z" fill="white"/>
<g opacity="0.4">
<path d="M12 23.5C12 28.3152 12.2593 32.1164 12.9266 35.1192C13.5915 38.1105 14.6478 40.2478 16.2 41.8C17.7522 43.3522 19.8895 44.4085 22.8808 45.0734C25.8836 45.7407 29.6848 46 34.5 46C39.3152 46 43.1164 45.7407 46.1192 45.0734C49.1105 44.4085 51.2478 43.3522 52.8 41.8C54.3522 40.2478 55.4085 38.1105 56.0734 35.1192C56.7407 32.1164 57 28.3152 57 23.5C57 18.6848 56.7407 14.8836 56.0734 11.8808C55.4085 8.88947 54.3522 6.7522 52.8 5.20001C51.2478 3.64783 49.1105 2.59146 46.1192 1.92665C43.1164 1.25932 39.3152 1 34.5 1C29.6848 1 25.8836 1.25932 22.8808 1.92665C19.8895 2.59146 17.7522 3.64783 16.2 5.20001C14.6478 6.7522 13.5915 8.88947 12.9266 11.8808C12.2593 14.8836 12 18.6848 12 23.5Z" stroke="url(#paint0_linear_1219_368)" stroke-width="2" stroke-linecap="round" stroke-linejoin="round"/>
<path d="M35 14V34M45 22V34M25 26V34" stroke="url(#paint1_linear_1219_368)" stroke-width="2" stroke-linecap="round" stroke-linejoin="round"/>
</g>
<defs>
<linearGradient id="paint0_linear_1219_368" x1="15.8288" y1="44.4247" x2="55.4247" y2="4.66781" gradientUnits="userSpaceOnUse">
<stop stop-color="#727272"/>
<stop offset="1" stop-color="white"/>
</linearGradient>
<linearGradient id="paint1_linear_1219_368" x1="27.0548" y1="15.0959" x2="43.9041" y2="32.0137" gradientUnits="userSpaceOnUse">
<stop stop-color="#727272"/>
<stop offset="1" stop-color="white"/>
</linearGradient>
</defs>
</svg>
