<svg width="49" height="49" viewBox="0 0 49 49" fill="none" xmlns="http://www.w3.org/2000/svg">
<path d="M48 24.5219C48 14.6521 46.8929 9.10249 43.6499 5.91733C42.0383 4.33454 39.8189 3.25767 36.7165 2.58049C33.6037 1.90104 29.6655 1.63748 24.6813 1.63748C19.6971 1.63748 15.7589 1.90104 12.6461 2.58049C9.54366 3.25767 7.32431 4.33454 5.71274 5.91733C2.46967 9.10249 1.3626 14.6521 1.3626 24.5219C1.3626 34.3917 2.46967 39.9413 5.71274 43.1265C7.32431 44.7093 9.54365 45.7862 12.6461 46.4633C15.7589 47.1428 19.6971 47.4063 24.6813 47.4063C29.6655 47.4063 33.6037 47.1428 36.7165 46.4633C39.8189 45.7862 42.0383 44.7093 43.6499 43.1265C46.8929 39.9413 48 34.3917 48 24.5219Z" fill="url(#paint0_linear_611_2534)" fill-opacity="0.15" stroke="url(#paint1_linear_611_2534)" stroke-width="2" stroke-linecap="round" stroke-linejoin="round"/>
<path d="M32.7871 20.5412L24.6809 28.5027L16.5746 20.5412" stroke="url(#paint2_linear_611_2534)" stroke-width="2" stroke-linecap="round" stroke-linejoin="round"/>
<defs>
<linearGradient id="paint0_linear_611_2534" x1="44.003" y1="3.25495" x2="3.76885" y2="44.3872" gradientUnits="userSpaceOnUse">
<stop stop-color="#727272"/>
<stop offset="1" stop-color="white"/>
</linearGradient>
<linearGradient id="paint1_linear_611_2534" x1="0.362604" y1="22.7849" x2="106.738" y2="21.7366" gradientUnits="userSpaceOnUse">
<stop stop-color="#727272"/>
<stop offset="1" stop-color="white"/>
</linearGradient>
<linearGradient id="paint2_linear_611_2534" x1="31.1214" y1="28.0664" x2="25.827" y2="17.2412" gradientUnits="userSpaceOnUse">
<stop stop-color="#727272"/>
<stop offset="1" stop-color="white"/>
</linearGradient>
</defs>
</svg>
