<svg width="50" height="48" viewBox="0 0 50 48" fill="none" xmlns="http://www.w3.org/2000/svg">
<path d="M1.51465 23.8844C1.51465 33.7542 2.62172 39.3039 5.86479 42.489C7.47636 44.0718 9.6957 45.1487 12.7981 45.8258C15.911 46.5053 19.8491 46.7689 24.8333 46.7689C29.8176 46.7689 33.7557 46.5053 36.8685 45.8258C39.971 45.1487 42.1903 44.0718 43.8019 42.489C47.045 39.3039 48.152 33.7542 48.152 23.8844C48.152 14.0146 47.045 8.46501 43.8019 5.27985C42.1903 3.69706 39.971 2.62019 36.8685 1.94301C33.7557 1.26356 29.8176 0.999996 24.8333 0.999996C19.8491 0.999996 15.911 1.26356 12.7981 1.94301C9.6957 2.62019 7.47636 3.69706 5.86479 5.27985C2.62172 8.46501 1.51465 14.0146 1.51465 23.8844Z" fill="url(#paint0_linear_611_2537)" fill-opacity="0.15" stroke="url(#paint1_linear_611_2537)" stroke-width="2" stroke-linecap="round" stroke-linejoin="round"/>
<path d="M16.7275 27.8652L24.8338 19.9037L32.94 27.8652" stroke="url(#paint2_linear_611_2537)" stroke-width="2" stroke-linecap="round" stroke-linejoin="round"/>
<defs>
<linearGradient id="paint0_linear_611_2537" x1="5.51164" y1="45.1514" x2="45.7458" y2="4.01917" gradientUnits="userSpaceOnUse">
<stop stop-color="#727272"/>
<stop offset="1" stop-color="white"/>
</linearGradient>
<linearGradient id="paint1_linear_611_2537" x1="49.152" y1="25.6215" x2="-57.2234" y2="26.6698" gradientUnits="userSpaceOnUse">
<stop stop-color="#727272"/>
<stop offset="1" stop-color="white"/>
</linearGradient>
<linearGradient id="paint2_linear_611_2537" x1="18.3932" y1="20.3399" x2="23.6876" y2="31.1652" gradientUnits="userSpaceOnUse">
<stop stop-color="#727272"/>
<stop offset="1" stop-color="white"/>
</linearGradient>
</defs>
</svg>
