<svg width="49" height="48" viewBox="0 0 49 48" fill="none" xmlns="http://www.w3.org/2000/svg">
<path d="M48 23.8845C48 14.0147 46.8929 8.46504 43.6499 5.27988C42.0383 3.69709 39.8189 2.62022 36.7165 1.94304C33.6037 1.26359 29.6655 1.00003 24.6813 1.00003C19.6971 1.00003 15.7589 1.26359 12.6461 1.94304C9.54366 2.62022 7.32431 3.69709 5.71274 5.27988C2.46967 8.46504 1.3626 14.0147 1.3626 23.8845C1.3626 33.7542 2.46967 39.3039 5.71274 42.489C7.32431 44.0718 9.54365 45.1487 12.6461 45.8259C15.7589 46.5053 19.6971 46.7689 24.6813 46.7689C29.6655 46.7689 33.6037 46.5053 36.7165 45.8259C39.8189 45.1487 42.0383 44.0718 43.6499 42.489C46.8929 39.3039 48 33.7543 48 23.8845Z" fill="url(#paint0_linear_611_2538)" fill-opacity="0.15" stroke="url(#paint1_linear_611_2538)" stroke-width="2" stroke-linecap="round" stroke-linejoin="round"/>
<path d="M32.7871 19.9037L24.6809 27.8652L16.5746 19.9037" stroke="url(#paint2_linear_611_2538)" stroke-width="2" stroke-linecap="round" stroke-linejoin="round"/>
<defs>
<linearGradient id="paint0_linear_611_2538" x1="44.003" y1="2.6175" x2="3.76885" y2="43.7497" gradientUnits="userSpaceOnUse">
<stop stop-color="#727272"/>
<stop offset="1" stop-color="white"/>
</linearGradient>
<linearGradient id="paint1_linear_611_2538" x1="0.362604" y1="22.1474" x2="106.738" y2="21.0991" gradientUnits="userSpaceOnUse">
<stop stop-color="#727272"/>
<stop offset="1" stop-color="white"/>
</linearGradient>
<linearGradient id="paint2_linear_611_2538" x1="31.1214" y1="27.429" x2="25.827" y2="16.6037" gradientUnits="userSpaceOnUse">
<stop stop-color="#727272"/>
<stop offset="1" stop-color="white"/>
</linearGradient>
</defs>
</svg>
