<svg width="77" height="14" viewBox="0 0 77 14" fill="none" xmlns="http://www.w3.org/2000/svg">
<path d="M1.33168 13C0.95968 13 0.67168 12.898 0.46768 12.694C0.26368 12.49 0.16168 12.202 0.16168 11.83V0.399999H5.38168C6.26968 0.399999 7.04968 0.573999 7.72168 0.922C8.39368 1.258 8.91568 1.744 9.28768 2.38C9.65968 3.004 9.84568 3.724 9.84568 4.54V8.5C9.84568 9.976 9.47368 11.098 8.72968 11.866C7.98568 12.622 6.89368 13 5.45368 13H1.33168ZM5.41768 11.812C6.43768 11.812 7.20568 11.536 7.72168 10.984C8.24968 10.42 8.51368 9.592 8.51368 8.5V4.54C8.51368 3.664 8.21968 2.956 7.63168 2.416C7.05568 1.864 6.29368 1.588 5.34568 1.588H1.49368V11.812H5.41768ZM13.1906 2.668C12.9026 2.668 12.6686 2.578 12.4886 2.398C12.3086 2.218 12.2186 1.984 12.2186 1.696C12.2186 1.408 12.3086 1.174 12.4886 0.993999C12.6686 0.813999 12.9026 0.723999 13.1906 0.723999C13.4786 0.723999 13.7126 0.813999 13.8926 0.993999C14.0726 1.174 14.1626 1.408 14.1626 1.696C14.1626 1.984 14.0726 2.218 13.8926 2.398C13.7126 2.578 13.4786 2.668 13.1906 2.668ZM12.5426 4.018H13.8386V13H12.5426V4.018ZM19.4864 13.144C18.6104 13.144 17.9084 12.916 17.3804 12.46C16.8644 12.004 16.6064 11.392 16.6064 10.624V10.048C16.6064 9.292 16.8764 8.686 17.4164 8.23C17.9564 7.774 18.6704 7.546 19.5584 7.546H20.7104C21.1064 7.546 21.5144 7.606 21.9344 7.726C22.3544 7.846 22.7144 8.008 23.0144 8.212V6.718C23.0144 6.214 22.8584 5.806 22.5464 5.494C22.2344 5.17 21.8204 5.008 21.3044 5.008H19.8644C19.3484 5.008 18.9344 5.128 18.6224 5.368C18.3104 5.608 18.1544 5.926 18.1544 6.322H16.8584C16.8584 5.59 17.1344 5.002 17.6864 4.558C18.2384 4.102 18.9644 3.874 19.8644 3.874H21.3044C22.1924 3.874 22.9064 4.138 23.4464 4.666C23.9984 5.182 24.2744 5.866 24.2744 6.718V13H23.0504V11.74C22.7744 12.172 22.4084 12.514 21.9524 12.766C21.5084 13.018 21.0464 13.144 20.5664 13.144H19.4864ZM20.6024 12.01C21.1664 12.01 21.6704 11.836 22.1144 11.488C22.5584 11.14 22.8584 10.678 23.0144 10.102V9.436C22.7744 9.208 22.4384 9.028 22.0064 8.896C21.5864 8.752 21.1544 8.68 20.7104 8.68H19.5584C19.0664 8.68 18.6644 8.806 18.3524 9.058C18.0524 9.31 17.9024 9.64 17.9024 10.048V10.624C17.9024 11.044 18.0464 11.38 18.3344 11.632C18.6224 11.884 19.0064 12.01 19.4864 12.01H20.6024ZM36.7423 3.874C37.5343 3.874 38.1583 4.132 38.6143 4.648C39.0823 5.152 39.3163 5.854 39.3163 6.754V13H38.0203V6.718C38.0203 6.19 37.9003 5.776 37.6603 5.476C37.4203 5.176 37.1023 5.026 36.7063 5.026H35.6803C35.1643 5.026 34.7383 5.2 34.4023 5.548C34.0663 5.896 33.8503 6.388 33.7543 7.024V13H32.4583V6.826C32.4583 6.262 32.3443 5.824 32.1163 5.512C31.9003 5.188 31.6003 5.026 31.2163 5.026H30.1903C29.6983 5.026 29.2663 5.242 28.8943 5.674C28.5223 6.106 28.2883 6.67 28.1923 7.366V13H26.8963V4.018H28.1563V5.314C28.3963 4.858 28.6963 4.504 29.0563 4.252C29.4163 4 29.7943 3.874 30.1903 3.874H31.2523C31.7563 3.874 32.1883 4 32.5483 4.252C32.9203 4.492 33.2023 4.846 33.3943 5.314C33.6703 4.834 34.0003 4.474 34.3843 4.234C34.7683 3.994 35.1883 3.874 35.6443 3.874H36.7423ZM44.9312 13.144C43.9232 13.144 43.1132 12.85 42.5012 12.262C41.8892 11.662 41.5832 10.87 41.5832 9.886V7.312C41.5832 6.28 41.8892 5.452 42.5012 4.828C43.1132 4.192 43.9232 3.874 44.9312 3.874H46.4072C47.3672 3.874 48.1412 4.18 48.7292 4.792C49.3172 5.404 49.6112 6.214 49.6112 7.222V8.806H42.8792V9.886C42.8792 10.51 43.0652 11.02 43.4372 11.416C43.8212 11.8 44.3192 11.992 44.9312 11.992H46.2992C46.8992 11.992 47.3852 11.83 47.7572 11.506C48.1292 11.17 48.3152 10.726 48.3152 10.174H49.5752C49.5752 11.062 49.2752 11.782 48.6752 12.334C48.0752 12.874 47.2832 13.144 46.2992 13.144H44.9312ZM48.3152 7.69V7.222C48.3152 6.562 48.1412 6.034 47.7932 5.638C47.4452 5.23 46.9832 5.026 46.4072 5.026H44.9312C44.3192 5.026 43.8212 5.236 43.4372 5.656C43.0652 6.076 42.8792 6.628 42.8792 7.312V7.69H48.3152ZM55.2974 13C54.3494 13 53.6654 12.796 53.2454 12.388C52.8374 11.98 52.6334 11.308 52.6334 10.372V5.17H51.0494V4.018H52.6334V1.3H53.9294V4.018H56.2694V5.17H53.9294V10.372C53.9294 10.9 54.0314 11.278 54.2354 11.506C54.4514 11.734 54.8054 11.848 55.2974 11.848H56.2694V13H55.2974ZM61.3492 13.144C60.3412 13.144 59.5312 12.85 58.9192 12.262C58.3072 11.662 58.0012 10.87 58.0012 9.886V7.312C58.0012 6.28 58.3072 5.452 58.9192 4.828C59.5312 4.192 60.3412 3.874 61.3492 3.874H62.8252C63.7852 3.874 64.5592 4.18 65.1472 4.792C65.7352 5.404 66.0292 6.214 66.0292 7.222V8.806H59.2972V9.886C59.2972 10.51 59.4832 11.02 59.8552 11.416C60.2392 11.8 60.7372 11.992 61.3492 11.992H62.7172C63.3172 11.992 63.8032 11.83 64.1752 11.506C64.5472 11.17 64.7332 10.726 64.7332 10.174H65.9932C65.9932 11.062 65.6932 11.782 65.0932 12.334C64.4932 12.874 63.7012 13.144 62.7172 13.144H61.3492ZM64.7332 7.69V7.222C64.7332 6.562 64.5592 6.034 64.2112 5.638C63.8632 5.23 63.4012 5.026 62.8252 5.026H61.3492C60.7372 5.026 60.2392 5.236 59.8552 5.656C59.4832 6.076 59.2972 6.628 59.2972 7.312V7.69H64.7332ZM68.2928 4.018H69.5528V5.404C69.7928 4.984 70.1528 4.642 70.6328 4.378C71.1248 4.114 71.6348 3.982 72.1628 3.982H72.9548V5.152H72.1628C71.3948 5.152 70.7708 5.398 70.2908 5.89C69.8228 6.37 69.5888 7.012 69.5888 7.816V13H68.2928V4.018ZM75.3032 6.394C75.0152 6.394 74.7812 6.304 74.6012 6.124C74.4212 5.944 74.3312 5.71 74.3312 5.422C74.3312 5.134 74.4212 4.9 74.6012 4.72C74.7812 4.54 75.0152 4.45 75.3032 4.45C75.5912 4.45 75.8252 4.54 76.0052 4.72C76.1852 4.9 76.2752 5.134 76.2752 5.422C76.2752 5.71 76.1852 5.944 76.0052 6.124C75.8252 6.304 75.5912 6.394 75.3032 6.394ZM75.3032 12.55C75.0152 12.55 74.7812 12.46 74.6012 12.28C74.4212 12.1 74.3312 11.866 74.3312 11.578C74.3312 11.29 74.4212 11.056 74.6012 10.876C74.7812 10.696 75.0152 10.606 75.3032 10.606C75.5912 10.606 75.8252 10.696 76.0052 10.876C76.1852 11.056 76.2752 11.29 76.2752 11.578C76.2752 11.866 76.1852 12.1 76.0052 12.28C75.8252 12.46 75.5912 12.55 75.3032 12.55Z" fill="white"/>
</svg>
