<svg width="78" height="17" viewBox="0 0 78 17" fill="none" xmlns="http://www.w3.org/2000/svg">
<path d="M4.73634 13.144C3.90834 13.144 3.17634 12.958 2.54034 12.586C1.90434 12.214 1.40634 11.686 1.04634 11.002C0.698336 10.318 0.524336 9.526 0.524336 8.626V4.774C0.524336 3.874 0.698336 3.082 1.04634 2.398C1.40634 1.714 1.90434 1.186 2.54034 0.813999C3.17634 0.442 3.91434 0.256 4.75434 0.256H6.66234C7.50234 0.256 8.24034 0.442 8.87634 0.813999C9.51234 1.186 10.0043 1.714 10.3523 2.398C10.7123 3.082 10.8923 3.874 10.8923 4.774V8.626C10.8923 9.526 10.7123 10.318 10.3523 11.002C10.0043 11.674 9.50634 12.202 8.85834 12.586C8.22234 12.958 7.49034 13.144 6.66234 13.144H4.73634ZM6.62634 11.956C7.50234 11.956 8.21034 11.65 8.75034 11.038C9.29034 10.426 9.56034 9.622 9.56034 8.626V4.774C9.56034 3.778 9.29034 2.974 8.75034 2.362C8.21034 1.75 7.50234 1.444 6.62634 1.444H4.79034C3.91434 1.444 3.20634 1.75 2.66634 2.362C2.12634 2.974 1.85634 3.778 1.85634 4.774V8.626C1.85634 9.622 2.12034 10.426 2.64834 11.038C3.18834 11.65 3.89634 11.956 4.77234 11.956H6.62634ZM18.9595 13C18.4555 13 18.0895 12.694 17.8615 12.082L14.7655 4.018H16.1335L18.9055 11.578H18.9235L21.6955 4.018H23.0635L19.5715 13H18.9595ZM29.4981 13.144C28.6221 13.144 27.9201 12.916 27.3921 12.46C26.8761 12.004 26.6181 11.392 26.6181 10.624V10.048C26.6181 9.292 26.8881 8.686 27.4281 8.23C27.9681 7.774 28.6821 7.546 29.5701 7.546H30.7221C31.1181 7.546 31.5261 7.606 31.9461 7.726C32.3661 7.846 32.7261 8.008 33.0261 8.212V6.718C33.0261 6.214 32.8701 5.806 32.5581 5.494C32.2461 5.17 31.8321 5.008 31.3161 5.008H29.8761C29.3601 5.008 28.9461 5.128 28.6341 5.368C28.3221 5.608 28.1661 5.926 28.1661 6.322H26.8701C26.8701 5.59 27.1461 5.002 27.6981 4.558C28.2501 4.102 28.9761 3.874 29.8761 3.874H31.3161C32.2041 3.874 32.9181 4.138 33.4581 4.666C34.0101 5.182 34.2861 5.866 34.2861 6.718V13H33.0621V11.74C32.7861 12.172 32.4201 12.514 31.9641 12.766C31.5201 13.018 31.0581 13.144 30.5781 13.144H29.4981ZM30.6141 12.01C31.1781 12.01 31.6821 11.836 32.1261 11.488C32.5701 11.14 32.8701 10.678 33.0261 10.102V9.436C32.7861 9.208 32.4501 9.028 32.0181 8.896C31.5981 8.752 31.1661 8.68 30.7221 8.68H29.5701C29.0781 8.68 28.6761 8.806 28.3641 9.058C28.0641 9.31 27.9141 9.64 27.9141 10.048V10.624C27.9141 11.044 28.0581 11.38 28.3461 11.632C28.6341 11.884 29.0181 12.01 29.4981 12.01H30.6141ZM41.892 13C41.004 13 40.368 12.814 39.984 12.442C39.6 12.058 39.408 11.428 39.408 10.552V0.399999H40.704V10.552C40.704 11.008 40.794 11.338 40.974 11.542C41.166 11.746 41.472 11.848 41.892 11.848H42.504V13H41.892ZM47.6964 2.668C47.4084 2.668 47.1744 2.578 46.9944 2.398C46.8144 2.218 46.7244 1.984 46.7244 1.696C46.7244 1.408 46.8144 1.174 46.9944 0.993999C47.1744 0.813999 47.4084 0.723999 47.6964 0.723999C47.9844 0.723999 48.2184 0.813999 48.3984 0.993999C48.5784 1.174 48.6684 1.408 48.6684 1.696C48.6684 1.984 48.5784 2.218 48.3984 2.398C48.2184 2.578 47.9844 2.668 47.6964 2.668ZM47.0484 4.018H48.3444V13H47.0484V4.018ZM57.4282 13C56.4802 13 55.7962 12.796 55.3762 12.388C54.9682 11.98 54.7642 11.308 54.7642 10.372V5.17H53.1802V4.018H54.7642V1.3H56.0602V4.018H58.4002V5.17H56.0602V10.372C56.0602 10.9 56.1622 11.278 56.3662 11.506C56.5822 11.734 56.9362 11.848 57.4282 11.848H58.4002V13H57.4282ZM66.0658 16.654C65.2738 16.654 64.6198 16.438 64.1038 16.006C63.5878 15.586 63.2998 15.028 63.2398 14.332H64.5358C64.5838 14.692 64.7458 14.98 65.0218 15.196C65.3098 15.424 65.6578 15.538 66.0658 15.538H67.4698C68.0938 15.538 68.5738 15.328 68.9098 14.908C69.2578 14.5 69.4318 13.924 69.4318 13.18V11.524C69.1438 11.956 68.7778 12.31 68.3338 12.586C67.9018 12.862 67.4698 13 67.0378 13H65.8858C65.0458 13 64.3618 12.718 63.8338 12.154C63.3178 11.59 63.0598 10.852 63.0598 9.94V4.018H64.3558V9.976C64.3558 10.54 64.4938 10.996 64.7698 11.344C65.0578 11.68 65.4298 11.848 65.8858 11.848H67.0018C67.5538 11.848 68.0638 11.626 68.5318 11.182C68.9998 10.738 69.2998 10.18 69.4318 9.508V4.018H70.7278V13.18C70.7278 14.272 70.4398 15.124 69.8638 15.736C69.2878 16.348 68.4898 16.654 67.4698 16.654H66.0658ZM76.5806 6.394C76.2926 6.394 76.0586 6.304 75.8786 6.124C75.6986 5.944 75.6086 5.71 75.6086 5.422C75.6086 5.134 75.6986 4.9 75.8786 4.72C76.0586 4.54 76.2926 4.45 76.5806 4.45C76.8686 4.45 77.1026 4.54 77.2826 4.72C77.4626 4.9 77.5526 5.134 77.5526 5.422C77.5526 5.71 77.4626 5.944 77.2826 6.124C77.1026 6.304 76.8686 6.394 76.5806 6.394ZM76.5806 12.55C76.2926 12.55 76.0586 12.46 75.8786 12.28C75.6986 12.1 75.6086 11.866 75.6086 11.578C75.6086 11.29 75.6986 11.056 75.8786 10.876C76.0586 10.696 76.2926 10.606 76.5806 10.606C76.8686 10.606 77.1026 10.696 77.2826 10.876C77.4626 11.056 77.5526 11.29 77.5526 11.578C77.5526 11.866 77.4626 12.1 77.2826 12.28C77.1026 12.46 76.8686 12.55 76.5806 12.55Z" fill="white"/>
</svg>
