<svg width="52" height="15" viewBox="0 0 52 15" fill="none" xmlns="http://www.w3.org/2000/svg">
<path d="M4.11794 14.5584C3.35794 14.5584 2.67794 14.3784 2.07794 14.0184C1.49127 13.6584 1.03127 13.1584 0.697935 12.5184C0.377935 11.8651 0.217935 11.1118 0.217935 10.2584V4.53844C0.217935 3.6851 0.377935 2.93844 0.697935 2.29844C1.03127 1.6451 1.49127 1.13844 2.07794 0.778436C2.67794 0.418437 3.35794 0.238437 4.11794 0.238437H6.23794C7.01127 0.238437 7.69127 0.418437 8.27794 0.778436C8.8646 1.13844 9.31794 1.6451 9.63794 2.29844C9.95794 2.93844 10.1179 3.6851 10.1179 4.53844V10.2584C10.1179 11.1118 9.95794 11.8651 9.63794 12.5184C9.31794 13.1584 8.8646 13.6584 8.27794 14.0184C7.69127 14.3784 7.01127 14.5584 6.23794 14.5584H4.11794ZM6.19794 13.5584C7.05127 13.5584 7.73127 13.2584 8.23794 12.6584C8.75794 12.0451 9.01794 11.2451 9.01794 10.2584V4.53844C9.01794 3.53844 8.75794 2.73844 8.23794 2.13844C7.73127 1.5251 7.05127 1.21844 6.19794 1.21844H4.15794C3.3046 1.21844 2.61794 1.5251 2.09794 2.13844C1.57794 2.73844 1.31794 3.53844 1.31794 4.53844V10.2584C1.31794 11.2451 1.57794 12.0451 2.09794 12.6584C2.61794 13.2584 3.3046 13.5584 4.15794 13.5584H6.19794ZM16.8914 14.5584C16.1314 14.5584 15.4514 14.3784 14.8514 14.0184C14.2647 13.6584 13.8047 13.1584 13.4714 12.5184C13.1514 11.8651 12.9914 11.1118 12.9914 10.2584V4.53844C12.9914 3.6851 13.1514 2.93844 13.4714 2.29844C13.8047 1.6451 14.2647 1.13844 14.8514 0.778436C15.4514 0.418437 16.1314 0.238437 16.8914 0.238437H19.0114C19.7847 0.238437 20.4647 0.418437 21.0514 0.778436C21.638 1.13844 22.0914 1.6451 22.4114 2.29844C22.7314 2.93844 22.8914 3.6851 22.8914 4.53844V10.2584C22.8914 11.1118 22.7314 11.8651 22.4114 12.5184C22.0914 13.1584 21.638 13.6584 21.0514 14.0184C20.4647 14.3784 19.7847 14.5584 19.0114 14.5584H16.8914ZM18.9714 13.5584C19.8247 13.5584 20.5047 13.2584 21.0114 12.6584C21.5314 12.0451 21.7914 11.2451 21.7914 10.2584V4.53844C21.7914 3.53844 21.5314 2.73844 21.0114 2.13844C20.5047 1.5251 19.8247 1.21844 18.9714 1.21844H16.9314C16.078 1.21844 15.3914 1.5251 14.8714 2.13844C14.3514 2.73844 14.0914 3.53844 14.0914 4.53844V10.2584C14.0914 11.2451 14.3514 12.0451 14.8714 12.6584C15.3914 13.2584 16.078 13.5584 16.9314 13.5584H18.9714ZM25.9375 14.5984C25.6708 14.5984 25.4508 14.5184 25.2775 14.3584C25.1175 14.1851 25.0375 13.9651 25.0375 13.6984C25.0375 13.4318 25.1175 13.2184 25.2775 13.0584C25.4508 12.8851 25.6708 12.7984 25.9375 12.7984C26.2175 12.7984 26.4375 12.8851 26.5975 13.0584C26.7575 13.2184 26.8375 13.4318 26.8375 13.6984C26.8375 13.9651 26.7508 14.1851 26.5775 14.3584C26.4175 14.5184 26.2041 14.5984 25.9375 14.5984ZM32.8875 14.5584C32.1275 14.5584 31.4475 14.3784 30.8475 14.0184C30.2608 13.6584 29.8008 13.1584 29.4675 12.5184C29.1475 11.8651 28.9875 11.1118 28.9875 10.2584V4.53844C28.9875 3.6851 29.1475 2.93844 29.4675 2.29844C29.8008 1.6451 30.2608 1.13844 30.8475 0.778436C31.4475 0.418437 32.1275 0.238437 32.8875 0.238437H35.0075C35.7808 0.238437 36.4608 0.418437 37.0475 0.778436C37.6341 1.13844 38.0875 1.6451 38.4075 2.29844C38.7275 2.93844 38.8875 3.6851 38.8875 4.53844V10.2584C38.8875 11.1118 38.7275 11.8651 38.4075 12.5184C38.0875 13.1584 37.6341 13.6584 37.0475 14.0184C36.4608 14.3784 35.7808 14.5584 35.0075 14.5584H32.8875ZM34.9675 13.5584C35.8208 13.5584 36.5008 13.2584 37.0075 12.6584C37.5275 12.0451 37.7875 11.2451 37.7875 10.2584V4.53844C37.7875 3.53844 37.5275 2.73844 37.0075 2.13844C36.5008 1.5251 35.8208 1.21844 34.9675 1.21844H32.9275C32.0741 1.21844 31.3875 1.5251 30.8675 2.13844C30.3475 2.73844 30.0875 3.53844 30.0875 4.53844V10.2584C30.0875 11.2451 30.3475 12.0451 30.8675 12.6584C31.3875 13.2584 32.0741 13.5584 32.9275 13.5584H34.9675ZM45.6609 14.5584C44.9009 14.5584 44.2209 14.3784 43.6209 14.0184C43.0342 13.6584 42.5742 13.1584 42.2409 12.5184C41.9209 11.8651 41.7609 11.1118 41.7609 10.2584V4.53844C41.7609 3.6851 41.9209 2.93844 42.2409 2.29844C42.5742 1.6451 43.0342 1.13844 43.6209 0.778436C44.2209 0.418437 44.9009 0.238437 45.6609 0.238437H47.7809C48.5542 0.238437 49.2342 0.418437 49.8209 0.778436C50.4076 1.13844 50.8609 1.6451 51.1809 2.29844C51.5009 2.93844 51.6609 3.6851 51.6609 4.53844V10.2584C51.6609 11.1118 51.5009 11.8651 51.1809 12.5184C50.8609 13.1584 50.4076 13.6584 49.8209 14.0184C49.2342 14.3784 48.5542 14.5584 47.7809 14.5584H45.6609ZM47.7409 13.5584C48.5942 13.5584 49.2742 13.2584 49.7809 12.6584C50.3009 12.0451 50.5609 11.2451 50.5609 10.2584V4.53844C50.5609 3.53844 50.3009 2.73844 49.7809 2.13844C49.2742 1.5251 48.5942 1.21844 47.7409 1.21844H45.7009C44.8476 1.21844 44.1609 1.5251 43.6409 2.13844C43.1209 2.73844 42.8609 3.53844 42.8609 4.53844V10.2584C42.8609 11.2451 43.1209 12.0451 43.6409 12.6584C44.1609 13.2584 44.8476 13.5584 45.7009 13.5584H47.7409Z" fill="url(#paint0_linear_617_448)"/>
<defs>
<linearGradient id="paint0_linear_617_448" x1="-10.1242" y1="-0.707389" x2="-5.35405" y2="25.9346" gradientUnits="userSpaceOnUse">
<stop stop-color="#727272"/>
<stop offset="1" stop-color="white"/>
</linearGradient>
</defs>
</svg>
