<svg width="52" height="15" viewBox="0 0 52 15" fill="none" xmlns="http://www.w3.org/2000/svg">
<path d="M4.11794 14.5583C3.35794 14.5583 2.67794 14.3783 2.07794 14.0183C1.49127 13.6583 1.03127 13.1583 0.697935 12.5183C0.377935 11.865 0.217935 11.1116 0.217935 10.2583V4.53831C0.217935 3.68498 0.377935 2.93831 0.697935 2.29832C1.03127 1.64498 1.49127 1.13831 2.07794 0.778314C2.67794 0.418315 3.35794 0.238315 4.11794 0.238315H6.23794C7.01127 0.238315 7.69127 0.418315 8.27794 0.778314C8.8646 1.13831 9.31794 1.64498 9.63794 2.29832C9.95794 2.93831 10.1179 3.68498 10.1179 4.53831V10.2583C10.1179 11.1116 9.95794 11.865 9.63794 12.5183C9.31794 13.1583 8.8646 13.6583 8.27794 14.0183C7.69127 14.3783 7.01127 14.5583 6.23794 14.5583H4.11794ZM6.19794 13.5583C7.05127 13.5583 7.73127 13.2583 8.23794 12.6583C8.75794 12.045 9.01794 11.245 9.01794 10.2583V4.53831C9.01794 3.53831 8.75794 2.73831 8.23794 2.13831C7.73127 1.52498 7.05127 1.21831 6.19794 1.21831H4.15794C3.3046 1.21831 2.61794 1.52498 2.09794 2.13831C1.57794 2.73831 1.31794 3.53831 1.31794 4.53831V10.2583C1.31794 11.245 1.57794 12.045 2.09794 12.6583C2.61794 13.2583 3.3046 13.5583 4.15794 13.5583H6.19794ZM16.8914 14.5583C16.1314 14.5583 15.4514 14.3783 14.8514 14.0183C14.2647 13.6583 13.8047 13.1583 13.4714 12.5183C13.1514 11.865 12.9914 11.1116 12.9914 10.2583V4.53831C12.9914 3.68498 13.1514 2.93831 13.4714 2.29832C13.8047 1.64498 14.2647 1.13831 14.8514 0.778314C15.4514 0.418315 16.1314 0.238315 16.8914 0.238315H19.0114C19.7847 0.238315 20.4647 0.418315 21.0514 0.778314C21.638 1.13831 22.0914 1.64498 22.4114 2.29832C22.7314 2.93831 22.8914 3.68498 22.8914 4.53831V10.2583C22.8914 11.1116 22.7314 11.865 22.4114 12.5183C22.0914 13.1583 21.638 13.6583 21.0514 14.0183C20.4647 14.3783 19.7847 14.5583 19.0114 14.5583H16.8914ZM18.9714 13.5583C19.8247 13.5583 20.5047 13.2583 21.0114 12.6583C21.5314 12.045 21.7914 11.245 21.7914 10.2583V4.53831C21.7914 3.53831 21.5314 2.73831 21.0114 2.13831C20.5047 1.52498 19.8247 1.21831 18.9714 1.21831H16.9314C16.078 1.21831 15.3914 1.52498 14.8714 2.13831C14.3514 2.73831 14.0914 3.53831 14.0914 4.53831V10.2583C14.0914 11.245 14.3514 12.045 14.8714 12.6583C15.3914 13.2583 16.078 13.5583 16.9314 13.5583H18.9714ZM25.9375 14.5983C25.6708 14.5983 25.4508 14.5183 25.2775 14.3583C25.1175 14.185 25.0375 13.965 25.0375 13.6983C25.0375 13.4316 25.1175 13.2183 25.2775 13.0583C25.4508 12.885 25.6708 12.7983 25.9375 12.7983C26.2175 12.7983 26.4375 12.885 26.5975 13.0583C26.7575 13.2183 26.8375 13.4316 26.8375 13.6983C26.8375 13.965 26.7508 14.185 26.5775 14.3583C26.4175 14.5183 26.2041 14.5983 25.9375 14.5983ZM32.8875 14.5583C32.1275 14.5583 31.4475 14.3783 30.8475 14.0183C30.2608 13.6583 29.8008 13.1583 29.4675 12.5183C29.1475 11.865 28.9875 11.1116 28.9875 10.2583V4.53831C28.9875 3.68498 29.1475 2.93831 29.4675 2.29832C29.8008 1.64498 30.2608 1.13831 30.8475 0.778314C31.4475 0.418315 32.1275 0.238315 32.8875 0.238315H35.0075C35.7808 0.238315 36.4608 0.418315 37.0475 0.778314C37.6341 1.13831 38.0875 1.64498 38.4075 2.29832C38.7275 2.93831 38.8875 3.68498 38.8875 4.53831V10.2583C38.8875 11.1116 38.7275 11.865 38.4075 12.5183C38.0875 13.1583 37.6341 13.6583 37.0475 14.0183C36.4608 14.3783 35.7808 14.5583 35.0075 14.5583H32.8875ZM34.9675 13.5583C35.8208 13.5583 36.5008 13.2583 37.0075 12.6583C37.5275 12.045 37.7875 11.245 37.7875 10.2583V4.53831C37.7875 3.53831 37.5275 2.73831 37.0075 2.13831C36.5008 1.52498 35.8208 1.21831 34.9675 1.21831H32.9275C32.0741 1.21831 31.3875 1.52498 30.8675 2.13831C30.3475 2.73831 30.0875 3.53831 30.0875 4.53831V10.2583C30.0875 11.245 30.3475 12.045 30.8675 12.6583C31.3875 13.2583 32.0741 13.5583 32.9275 13.5583H34.9675ZM45.6609 14.5583C44.9009 14.5583 44.2209 14.3783 43.6209 14.0183C43.0342 13.6583 42.5742 13.1583 42.2409 12.5183C41.9209 11.865 41.7609 11.1116 41.7609 10.2583V4.53831C41.7609 3.68498 41.9209 2.93831 42.2409 2.29832C42.5742 1.64498 43.0342 1.13831 43.6209 0.778314C44.2209 0.418315 44.9009 0.238315 45.6609 0.238315H47.7809C48.5542 0.238315 49.2342 0.418315 49.8209 0.778314C50.4076 1.13831 50.8609 1.64498 51.1809 2.29832C51.5009 2.93831 51.6609 3.68498 51.6609 4.53831V10.2583C51.6609 11.1116 51.5009 11.865 51.1809 12.5183C50.8609 13.1583 50.4076 13.6583 49.8209 14.0183C49.2342 14.3783 48.5542 14.5583 47.7809 14.5583H45.6609ZM47.7409 13.5583C48.5942 13.5583 49.2742 13.2583 49.7809 12.6583C50.3009 12.045 50.5609 11.245 50.5609 10.2583V4.53831C50.5609 3.53831 50.3009 2.73831 49.7809 2.13831C49.2742 1.52498 48.5942 1.21831 47.7409 1.21831H45.7009C44.8476 1.21831 44.1609 1.52498 43.6409 2.13831C43.1209 2.73831 42.8609 3.53831 42.8609 4.53831V10.2583C42.8609 11.245 43.1209 12.045 43.6409 12.6583C44.1609 13.2583 44.8476 13.5583 45.7009 13.5583H47.7409Z" fill="url(#paint0_linear_617_315)"/>
<defs>
<linearGradient id="paint0_linear_617_315" x1="-10.1242" y1="-0.707511" x2="-5.35405" y2="25.9345" gradientUnits="userSpaceOnUse">
<stop stop-color="#727272"/>
<stop offset="1" stop-color="white"/>
</linearGradient>
</defs>
</svg>
