<svg width="130" height="130" viewBox="0 0 130 130" fill="none" xmlns="http://www.w3.org/2000/svg">
<path d="M1 65.0228C1 91.6018 3.9022 107.298 13.1314 116.451C17.7347 121.016 23.9919 124.032 32.4771 125.902C40.9732 127.774 51.6407 128.486 65 128.486C78.3593 128.486 89.0268 127.774 97.5229 125.902C106.008 124.032 112.265 121.016 116.869 116.451C126.098 107.298 129 91.6018 129 65.0228C129 38.4438 126.098 22.7474 116.869 13.5945C112.265 9.02918 106.008 6.01393 97.5229 4.14375C89.0268 2.27116 78.3593 1.55997 65 1.55997C51.6407 1.55997 40.9732 2.27116 32.4771 4.14375C23.9919 6.01393 17.7347 9.02918 13.1314 13.5945C3.9022 22.7474 1 38.4438 1 65.0228Z" fill="url(#paint0_linear_721_224)" fill-opacity="0.1" stroke="url(#paint1_linear_721_224)" stroke-width="2" stroke-linecap="round" stroke-linejoin="round"/>
<path d="M39.5 84.5228C39.5 88.3812 39.6343 91.3489 40.1836 93.6477C40.7277 95.9253 41.6704 97.5094 43.2731 98.6432C44.8988 99.7933 47.2574 100.519 50.7161 100.95C54.1689 101.38 58.6575 101.509 64.5 101.509C70.3425 101.509 74.8311 101.38 78.2839 100.95C81.7426 100.519 84.1012 99.7933 85.7269 98.6432C87.3296 97.5094 88.2723 95.9253 88.8164 93.6477C89.3657 91.3489 89.5 88.3812 89.5 84.5228C89.5 80.6645 89.3657 77.6968 88.8164 75.3979C88.2723 73.1204 87.3296 71.5363 85.7269 70.4024C84.1012 69.2524 81.7426 68.5263 78.2839 68.0958C74.8311 67.666 70.3425 67.5371 64.5 67.5371C58.6575 67.5371 54.1689 67.666 50.7161 68.0958C47.2574 68.5263 44.8988 69.2524 43.2731 70.4024C41.6704 71.5363 40.7277 73.1204 40.1836 75.3979C39.6343 77.6968 39.5 80.6645 39.5 84.5228Z" stroke="url(#paint2_linear_721_224)" stroke-linecap="round" stroke-linejoin="round"/>
<path d="M75.125 80.1514H79.375M56 88.8943H73" stroke="url(#paint3_linear_721_224)" stroke-width="2" stroke-linecap="round" stroke-linejoin="round"/>
<path fill-rule="evenodd" clip-rule="evenodd" d="M49.624 82.3371C50.7976 82.3371 51.749 81.3585 51.749 80.1514C51.749 78.9443 50.7976 77.9657 49.624 77.9657C48.4504 77.9657 47.499 78.9443 47.499 80.1514C47.499 81.3585 48.4504 82.3371 49.624 82.3371ZM49.624 91.08C50.7976 91.08 51.749 90.1014 51.749 88.8943C51.749 87.6871 50.7976 86.7086 49.624 86.7086C48.4504 86.7086 47.499 87.6871 47.499 88.8943C47.499 90.1014 48.4504 91.08 49.624 91.08ZM58.124 80.1514C58.124 81.3585 57.1726 82.3371 55.999 82.3371C54.8254 82.3371 53.874 81.3585 53.874 80.1514C53.874 78.9443 54.8254 77.9657 55.999 77.9657C57.1726 77.9657 58.124 78.9443 58.124 80.1514ZM62.374 82.3371C63.5476 82.3371 64.499 81.3585 64.499 80.1514C64.499 78.9443 63.5476 77.9657 62.374 77.9657C61.2004 77.9657 60.249 78.9443 60.249 80.1514C60.249 81.3585 61.2004 82.3371 62.374 82.3371ZM70.874 80.1514C70.874 81.3585 69.9226 82.3371 68.749 82.3371C67.5754 82.3371 66.624 81.3585 66.624 80.1514C66.624 78.9443 67.5754 77.9657 68.749 77.9657C69.9226 77.9657 70.874 78.9443 70.874 80.1514ZM79.3745 91.08C80.5481 91.08 81.4995 90.1014 81.4995 88.8943C81.4995 87.6871 80.5481 86.7086 79.3745 86.7086C78.2009 86.7086 77.2495 87.6871 77.2495 88.8943C77.2495 90.1014 78.2009 91.08 79.3745 91.08Z" fill="url(#paint4_linear_721_224)"/>
<path d="M38.5533 47.5228L34.0413 41.9548L32.5373 43.5548V47.5228H31.6573L31.6573 36.3228H32.5373V42.4188L38.2493 36.3228H39.3693L34.6493 41.3148L39.6573 47.5228H38.5533ZM43.4018 47.6508C42.5591 47.6508 41.8764 47.3948 41.3538 46.8828C40.8418 46.3708 40.5858 45.6935 40.5858 44.8508V42.3708C40.5858 41.4855 40.8418 40.7708 41.3538 40.2268C41.8764 39.6828 42.5591 39.4108 43.4018 39.4108H44.7138C45.5244 39.4108 46.1751 39.6775 46.6658 40.2108C47.1671 40.7335 47.4178 41.4322 47.4178 42.3068V43.6508H41.4498V44.8508C41.4498 45.4588 41.6258 45.9495 41.9778 46.3228C42.3404 46.6962 42.8151 46.8828 43.4018 46.8828H44.6178C45.1938 46.8828 45.6578 46.7175 46.0098 46.3868C46.3724 46.0455 46.5538 45.6028 46.5538 45.0588H47.3858C47.3858 45.8375 47.1298 46.4668 46.6178 46.9468C46.1164 47.4162 45.4498 47.6508 44.6178 47.6508H43.4018ZM46.5698 42.9148V42.3068C46.5698 41.6668 46.3991 41.1548 46.0578 40.7708C45.7164 40.3762 45.2684 40.1788 44.7138 40.1788H43.4018C42.8151 40.1788 42.3404 40.3815 41.9778 40.7868C41.6258 41.1922 41.4498 41.7202 41.4498 42.3708V42.9148H46.5698ZM52.0405 50.7708C51.3898 50.7708 50.8512 50.5948 50.4245 50.2428C49.9978 49.9015 49.7578 49.4482 49.7045 48.8828H50.5525C50.5952 49.2242 50.7498 49.4962 51.0165 49.6988C51.2938 49.9122 51.6352 50.0188 52.0405 50.0188H53.3045C53.8912 50.0188 54.3498 49.8215 54.6805 49.4268C55.0218 49.0322 55.1925 48.4935 55.1925 47.8108V46.0348C54.9045 46.4828 54.5525 46.8455 54.1365 47.1228C53.7312 47.3895 53.3312 47.5228 52.9365 47.5228H51.8965C51.1925 47.5228 50.6218 47.2882 50.1845 46.8188C49.7472 46.3388 49.5285 45.7095 49.5285 44.9308V39.5388H50.3925V44.9468C50.3925 45.4802 50.5312 45.9175 50.8085 46.2588C51.0858 46.5895 51.4485 46.7548 51.8965 46.7548H52.9045C53.3738 46.7548 53.8325 46.5468 54.2805 46.1308C54.7392 45.7042 55.0432 45.1975 55.1925 44.6108V39.5388H56.0405V47.8108C56.0405 48.7282 55.7952 49.4482 55.3045 49.9708C54.8138 50.5042 54.1472 50.7708 53.3045 50.7708H52.0405ZM61.6474 47.6508C61.2634 47.6508 60.8687 47.5282 60.4634 47.2828C60.0687 47.0268 59.7487 46.7068 59.5034 46.3228V47.5228H58.6714V36.3228H59.5354V40.6588C59.77 40.2748 60.0794 39.9708 60.4634 39.7468C60.858 39.5228 61.2794 39.4108 61.7274 39.4108H62.8474C63.6367 39.4108 64.2767 39.6775 64.7674 40.2108C65.258 40.7442 65.5034 41.4482 65.5034 42.3228V44.5628C65.5034 45.4802 65.2474 46.2268 64.7354 46.8028C64.234 47.3682 63.5727 47.6508 62.7514 47.6508H61.6474ZM62.7354 46.8828C63.3007 46.8828 63.7594 46.6695 64.1114 46.2428C64.474 45.8162 64.6554 45.2562 64.6554 44.5628V42.3228C64.6554 41.6828 64.4847 41.1655 64.1434 40.7708C63.8127 40.3762 63.3754 40.1788 62.8314 40.1788H61.7594C61.1514 40.1788 60.6394 40.3922 60.2234 40.8188C59.818 41.2348 59.5887 41.7842 59.5354 42.4668V44.8668C59.6314 45.4108 59.882 45.8855 60.2874 46.2908C60.7034 46.6855 61.1567 46.8828 61.6474 46.8828H62.7354ZM70.34 47.6508C69.4867 47.6508 68.7987 47.3842 68.276 46.8508C67.7533 46.3068 67.492 45.5975 67.492 44.7228V42.3388C67.492 41.4642 67.7533 40.7602 68.276 40.2268C68.8093 39.6828 69.508 39.4108 70.372 39.4108H71.636C72.5 39.4108 73.1933 39.6828 73.716 40.2268C74.2493 40.7602 74.516 41.4642 74.516 42.3388V44.7228C74.516 45.5975 74.2493 46.3068 73.716 46.8508C73.1827 47.3842 72.4787 47.6508 71.604 47.6508H70.34ZM71.604 46.8828C72.2227 46.8828 72.7187 46.6855 73.092 46.2908C73.476 45.8962 73.668 45.3735 73.668 44.7228V42.3388C73.668 41.6882 73.4813 41.1655 73.108 40.7708C72.7347 40.3762 72.244 40.1788 71.636 40.1788H70.372C69.764 40.1788 69.2733 40.3762 68.9 40.7708C68.5373 41.1655 68.356 41.6882 68.356 42.3388V44.7228C68.356 45.3735 68.5373 45.8962 68.9 46.2908C69.2627 46.6855 69.7427 46.8828 70.34 46.8828H71.604ZM79.0196 47.6508C78.273 47.6508 77.6756 47.4588 77.2276 47.0748C76.7796 46.6802 76.5556 46.1575 76.5556 45.5068V44.8988C76.5556 44.2482 76.785 43.7308 77.2436 43.3468C77.7023 42.9628 78.3103 42.7708 79.0676 42.7708H80.1076C80.4703 42.7708 80.8436 42.8295 81.2276 42.9468C81.6223 43.0642 81.9583 43.2242 82.2356 43.4268V41.8748C82.2356 41.3735 82.081 40.9628 81.7716 40.6428C81.4623 40.3228 81.0623 40.1628 80.5716 40.1628H79.3236C78.8223 40.1628 78.417 40.2802 78.1076 40.5148C77.7983 40.7495 77.6436 41.0642 77.6436 41.4588H76.7796C76.7796 40.8402 77.0143 40.3442 77.4836 39.9708C77.953 39.5975 78.5663 39.4108 79.3236 39.4108H80.5716C81.329 39.4108 81.9316 39.6348 82.3796 40.0828C82.8383 40.5308 83.0676 41.1282 83.0676 41.8748V47.5228H82.2516V46.2748C81.9743 46.7015 81.633 47.0375 81.2276 47.2828C80.8223 47.5282 80.4116 47.6508 79.9956 47.6508H79.0196ZM80.0116 46.8828C80.4596 46.8828 80.8863 46.7228 81.2916 46.4028C81.7076 46.0828 82.0223 45.6615 82.2356 45.1388V44.2748C82.001 44.0508 81.6863 43.8695 81.2916 43.7308C80.9076 43.5922 80.513 43.5228 80.1076 43.5228H79.0676C78.5663 43.5228 78.1663 43.6508 77.8676 43.9068C77.569 44.1522 77.4196 44.4828 77.4196 44.8988V45.5068C77.4196 45.9228 77.5636 46.2588 77.8516 46.5148C78.1396 46.7602 78.529 46.8828 79.0196 46.8828H80.0116ZM85.5933 39.5388H86.4253V40.8348C86.6599 40.4295 86.9959 40.1095 87.4333 39.8748C87.8706 39.6295 88.3399 39.5068 88.8413 39.5068H89.4333V40.2748H88.8253C88.1319 40.2748 87.5613 40.4988 87.1133 40.9468C86.6759 41.3948 86.4573 41.9762 86.4573 42.6908V47.5228H85.5933V39.5388ZM93.2418 47.6508C92.4524 47.6508 91.8124 47.3788 91.3218 46.8348C90.8311 46.2802 90.5858 45.5548 90.5858 44.6588V42.5148C90.5858 41.5868 90.8418 40.8402 91.3538 40.2748C91.8764 39.6988 92.5591 39.4108 93.4018 39.4108H94.6178C94.9911 39.4108 95.3538 39.5122 95.7058 39.7148C96.0684 39.9068 96.3564 40.1682 96.5698 40.4988V36.3228H97.4178V47.5228H96.5858V46.1788C96.3191 46.6375 95.9884 47.0002 95.5938 47.2668C95.2098 47.5228 94.8044 47.6508 94.3778 47.6508H93.2418ZM94.3618 46.8828C94.8631 46.8828 95.3271 46.6642 95.7538 46.2268C96.1804 45.7788 96.4524 45.2402 96.5698 44.6108V42.0188C96.4631 41.4748 96.2284 41.0322 95.8658 40.6908C95.5031 40.3495 95.0818 40.1788 94.6018 40.1788H93.4178C92.8204 40.1788 92.3404 40.3922 91.9778 40.8188C91.6258 41.2455 91.4498 41.8108 91.4498 42.5148V44.6588C91.4498 45.3202 91.6151 45.8588 91.9457 46.2748C92.2871 46.6802 92.7244 46.8828 93.2578 46.8828H94.3618Z" fill="#FCB433"/>
<defs>
<linearGradient id="paint0_linear_721_224" x1="65" y1="129.486" x2="65" y2="0.559967" gradientUnits="userSpaceOnUse">
<stop stop-color="#FCB433"/>
<stop offset="1" stop-color="#966B1E"/>
</linearGradient>
<linearGradient id="paint1_linear_721_224" x1="118.696" y1="112.111" x2="7.46146" y2="27.1403" gradientUnits="userSpaceOnUse">
<stop stop-color="#FCB433"/>
<stop offset="1" stop-color="#966B1E"/>
</linearGradient>
<linearGradient id="paint2_linear_721_224" x1="85.5652" y1="97.2956" x2="54.4463" y2="62.9155" gradientUnits="userSpaceOnUse">
<stop stop-color="#FCB433"/>
<stop offset="1" stop-color="#966B1E"/>
</linearGradient>
<linearGradient id="paint3_linear_721_224" x1="77.3424" y1="81.3297" x2="71.1353" y2="93.9019" gradientUnits="userSpaceOnUse">
<stop stop-color="#FCB433"/>
<stop offset="1" stop-color="#966B1E"/>
</linearGradient>
<linearGradient id="paint4_linear_721_224" x1="78.5429" y1="79.7331" x2="69.0594" y2="98.3598" gradientUnits="userSpaceOnUse">
<stop stop-color="#FCB433"/>
<stop offset="1" stop-color="#966B1E"/>
</linearGradient>
</defs>
</svg>
