<svg width="130" height="130" viewBox="0 0 130 130" fill="none" xmlns="http://www.w3.org/2000/svg">
<path d="M1 65.0229C1 91.6019 3.9022 107.298 13.1314 116.451C17.7347 121.017 23.9919 124.032 32.4771 125.902C40.9732 127.775 51.6407 128.486 65 128.486C78.3593 128.486 89.0268 127.775 97.5229 125.902C106.008 124.032 112.265 121.017 116.869 116.451C126.098 107.298 129 91.6019 129 65.0229C129 38.4439 126.098 22.7475 116.869 13.5946C112.265 9.0293 106.008 6.01405 97.5229 4.14387C89.0268 2.27128 78.3593 1.56009 65 1.56009C51.6407 1.56009 40.9732 2.27128 32.4771 4.14387C23.9919 6.01405 17.7347 9.0293 13.1314 13.5946C3.9022 22.7475 1 38.4439 1 65.0229Z" fill="url(#paint0_linear_721_357)" fill-opacity="0.1" stroke="url(#paint1_linear_721_357)" stroke-width="2" stroke-linecap="round" stroke-linejoin="round"/>
<path d="M37.304 57.5601H43.904C44.8773 57.5601 45.6573 57.8334 46.244 58.3801C46.8307 58.9134 47.124 59.6267 47.124 60.5201V62.0801C47.124 62.7867 46.8973 63.4134 46.444 63.9601C45.9907 64.4934 45.384 64.8601 44.624 65.0601V65.0801C45.024 65.2801 45.384 65.6067 45.704 66.0601C46.024 66.5134 46.2707 67.0467 46.444 67.6601L47.564 71.5601H46.444L45.324 67.6601C45.1107 66.9534 44.7707 66.3934 44.304 65.9801C43.8507 65.5667 43.3307 65.3601 42.744 65.3601H38.404V71.5601H37.304V57.5601ZM43.404 64.3801C44.1907 64.3801 44.824 64.1734 45.304 63.7601C45.784 63.3334 46.024 62.7734 46.024 62.0801V60.4801C46.024 59.8934 45.8307 59.4267 45.444 59.0801C45.0573 58.7201 44.5373 58.5401 43.884 58.5401H38.404V64.3801H43.404ZM53.1955 71.7201C52.1422 71.7201 51.2889 71.4001 50.6355 70.7601C49.9955 70.1201 49.6755 69.2734 49.6755 68.2201V65.1201C49.6755 64.0134 49.9955 63.1201 50.6355 62.4401C51.2889 61.7601 52.1422 61.4201 53.1955 61.4201H54.8355C55.8489 61.4201 56.6622 61.7534 57.2755 62.4201C57.9022 63.0734 58.2155 63.9467 58.2155 65.0401V66.7201H50.7555V68.2201C50.7555 68.9801 50.9755 69.5934 51.4155 70.0601C51.8689 70.5267 52.4622 70.7601 53.1955 70.7601H54.7155C55.4355 70.7601 56.0155 70.5534 56.4555 70.1401C56.9089 69.7134 57.1355 69.1601 57.1355 68.4801H58.1755C58.1755 69.4534 57.8555 70.2401 57.2155 70.8401C56.5889 71.4267 55.7555 71.7201 54.7155 71.7201H53.1955ZM57.1555 65.8001V65.0401C57.1555 64.2401 56.9422 63.6001 56.5155 63.1201C56.0889 62.6267 55.5289 62.3801 54.8355 62.3801H53.1955C52.4622 62.3801 51.8689 62.6334 51.4155 63.1401C50.9755 63.6467 50.7555 64.3067 50.7555 65.1201V65.8001H57.1555ZM61.994 59.8801C61.7273 59.8801 61.5073 59.8001 61.334 59.6401C61.174 59.4801 61.094 59.2667 61.094 59.0001C61.094 58.7334 61.174 58.5201 61.334 58.3601C61.5073 58.1867 61.7273 58.1001 61.994 58.1001C62.2607 58.1001 62.474 58.1867 62.634 58.3601C62.794 58.5201 62.874 58.7334 62.874 59.0001C62.874 59.2534 62.794 59.4667 62.634 59.6401C62.474 59.8001 62.2607 59.8801 61.994 59.8801ZM58.814 74.5801H59.354C60.114 74.5801 60.654 74.3867 60.974 74.0001C61.294 73.6267 61.454 72.9734 61.454 72.0401L61.454 61.5801H62.514L62.514 71.9401C62.514 73.2467 62.274 74.1734 61.794 74.7201C61.314 75.2667 60.5007 75.5401 59.354 75.5401H58.814V74.5801ZM69.2698 71.7201C68.2164 71.7201 67.3631 71.4001 66.7098 70.7601C66.0698 70.1201 65.7498 69.2734 65.7498 68.2201V65.1201C65.7498 64.0134 66.0698 63.1201 66.7098 62.4401C67.3631 61.7601 68.2164 61.4201 69.2698 61.4201L70.9098 61.4201C71.9231 61.4201 72.7364 61.7534 73.3498 62.4201C73.9764 63.0734 74.2898 63.9467 74.2898 65.0401V66.7201H66.8298V68.2201C66.8298 68.9801 67.0498 69.5934 67.4898 70.0601C67.9431 70.5267 68.5364 70.7601 69.2698 70.7601H70.7898C71.5098 70.7601 72.0898 70.5534 72.5298 70.1401C72.9831 69.7134 73.2098 69.1601 73.2098 68.4801H74.2498C74.2498 69.4534 73.9298 70.2401 73.2898 70.8401C72.6631 71.4267 71.8298 71.7201 70.7898 71.7201H69.2698ZM73.2298 65.8001V65.0401C73.2298 64.2401 73.0164 63.6001 72.5898 63.1201C72.1631 62.6267 71.6031 62.3801 70.9098 62.3801L69.2698 62.3801C68.5364 62.3801 67.9431 62.6334 67.4898 63.1401C67.0498 63.6467 66.8298 64.3067 66.8298 65.1201V65.8001H73.2298ZM80.1082 71.7201C79.0682 71.7201 78.2282 71.4001 77.5882 70.7601C76.9615 70.1067 76.6482 69.2534 76.6482 68.2001V65.1201C76.6482 64.0134 76.9615 63.1201 77.5882 62.4401C78.2282 61.7601 79.0615 61.4201 80.0882 61.4201H81.7282C82.7015 61.4201 83.4815 61.6867 84.0682 62.2201C84.6682 62.7534 84.9682 63.4534 84.9682 64.3201H83.9282C83.9282 63.7334 83.7215 63.2667 83.3082 62.9201C82.9082 62.5601 82.3815 62.3801 81.7282 62.3801H80.0882C79.3815 62.3801 78.8082 62.6334 78.3682 63.1401C77.9415 63.6334 77.7282 64.2934 77.7282 65.1201V68.2001C77.7282 68.9734 77.9415 69.5934 78.3682 70.0601C78.8082 70.5267 79.3882 70.7601 80.1082 70.7601H81.7482C82.4149 70.7601 82.9549 70.5267 83.3682 70.0601C83.7815 69.5934 83.9882 68.9801 83.9882 68.2201H85.0282C85.0282 69.2734 84.7282 70.1201 84.1282 70.7601C83.5282 71.4001 82.7349 71.7201 81.7482 71.7201H80.1082ZM91.356 71.5601C90.3427 71.5601 89.616 71.3467 89.176 70.9201C88.736 70.4801 88.516 69.7601 88.516 68.7601V62.5401H86.756V61.5801H88.516V58.5601H89.576V61.5801H92.176V62.5401H89.576V68.7601C89.576 69.4134 89.7093 69.8867 89.976 70.1801C90.2427 70.4601 90.6893 70.6001 91.316 70.6001H92.176V71.5601H91.356Z" fill="#FCB433"/>
<defs>
<linearGradient id="paint0_linear_721_357" x1="65" y1="129.486" x2="65" y2="0.560089" gradientUnits="userSpaceOnUse">
<stop stop-color="#FCB433"/>
<stop offset="1" stop-color="#966B1E"/>
</linearGradient>
<linearGradient id="paint1_linear_721_357" x1="118.696" y1="112.111" x2="7.46146" y2="27.1404" gradientUnits="userSpaceOnUse">
<stop stop-color="#FCB433"/>
<stop offset="1" stop-color="#966B1E"/>
</linearGradient>
</defs>
</svg>
