<svg width="103" height="14" viewBox="0 0 103 14" fill="none" xmlns="http://www.w3.org/2000/svg">
<path d="M0.44 0.399999H1.772V6.052H8.72V0.399999H10.052V13H8.72V7.24H1.772V13H0.44V0.399999ZM15.854 13.144C14.846 13.144 14.036 12.85 13.424 12.262C12.812 11.662 12.506 10.87 12.506 9.886V7.312C12.506 6.28 12.812 5.452 13.424 4.828C14.036 4.192 14.846 3.874 15.854 3.874H17.33C18.29 3.874 19.064 4.18 19.652 4.792C20.24 5.404 20.534 6.214 20.534 7.222V8.806H13.802V9.886C13.802 10.51 13.988 11.02 14.36 11.416C14.744 11.8 15.242 11.992 15.854 11.992H17.222C17.822 11.992 18.308 11.83 18.68 11.506C19.052 11.17 19.238 10.726 19.238 10.174H20.498C20.498 11.062 20.198 11.782 19.598 12.334C18.998 12.874 18.206 13.144 17.222 13.144H15.854ZM19.238 7.69V7.222C19.238 6.562 19.064 6.034 18.716 5.638C18.368 5.23 17.906 5.026 17.33 5.026H15.854C15.242 5.026 14.744 5.236 14.36 5.656C13.988 6.076 13.802 6.628 13.802 7.312V7.69H19.238ZM25.3897 13.144C24.5137 13.144 23.8117 12.916 23.2837 12.46C22.7677 12.004 22.5097 11.392 22.5097 10.624V10.048C22.5097 9.292 22.7797 8.686 23.3197 8.23C23.8597 7.774 24.5737 7.546 25.4617 7.546H26.6137C27.0097 7.546 27.4177 7.606 27.8377 7.726C28.2577 7.846 28.6177 8.008 28.9177 8.212V6.718C28.9177 6.214 28.7617 5.806 28.4497 5.494C28.1377 5.17 27.7237 5.008 27.2077 5.008H25.7677C25.2517 5.008 24.8377 5.128 24.5257 5.368C24.2137 5.608 24.0577 5.926 24.0577 6.322H22.7617C22.7617 5.59 23.0377 5.002 23.5897 4.558C24.1417 4.102 24.8677 3.874 25.7677 3.874H27.2077C28.0957 3.874 28.8097 4.138 29.3497 4.666C29.9017 5.182 30.1777 5.866 30.1777 6.718V13H28.9537V11.74C28.6777 12.172 28.3117 12.514 27.8557 12.766C27.4117 13.018 26.9497 13.144 26.4697 13.144H25.3897ZM26.5057 12.01C27.0697 12.01 27.5737 11.836 28.0177 11.488C28.4617 11.14 28.7617 10.678 28.9177 10.102V9.436C28.6777 9.208 28.3417 9.028 27.9097 8.896C27.4897 8.752 27.0577 8.68 26.6137 8.68H25.4617C24.9697 8.68 24.5677 8.806 24.2557 9.058C23.9557 9.31 23.8057 9.64 23.8057 10.048V10.624C23.8057 11.044 23.9497 11.38 24.2377 11.632C24.5257 11.884 24.9097 12.01 25.3897 12.01H26.5057ZM35.5896 13.144C34.9776 13.144 34.4316 13 33.9516 12.712C33.4716 12.424 33.0996 12.022 32.8356 11.506C32.5716 10.99 32.4396 10.39 32.4396 9.706V7.546C32.4396 6.826 32.5776 6.19 32.8536 5.638C33.1296 5.074 33.5196 4.642 34.0236 4.342C34.5276 4.03 35.1036 3.874 35.7516 3.874H37.0836C37.4916 3.874 37.8816 3.97 38.2536 4.162C38.6376 4.354 38.9436 4.618 39.1716 4.954V0.399999H40.4676V13H39.2076V11.668C38.9316 12.112 38.5716 12.472 38.1276 12.748C37.6836 13.012 37.2516 13.144 36.8316 13.144H35.5896ZM36.7956 11.992C37.1796 11.992 37.5516 11.872 37.9116 11.632C38.2716 11.38 38.5656 11.056 38.7936 10.66C39.0216 10.264 39.1476 9.856 39.1716 9.436V7.168C39.0876 6.532 38.8476 6.016 38.4516 5.62C38.0676 5.224 37.5996 5.026 37.0476 5.026H35.7876C35.1756 5.026 34.6776 5.26 34.2936 5.728C33.9216 6.184 33.7356 6.79 33.7356 7.546V9.706C33.7356 10.378 33.9096 10.93 34.2576 11.362C34.6176 11.782 35.0736 11.992 35.6256 11.992H36.7956ZM50.6717 13.144C50.0597 13.144 49.5137 13 49.0337 12.712C48.5537 12.424 48.1817 12.022 47.9177 11.506C47.6537 10.99 47.5217 10.39 47.5217 9.706V7.546C47.5217 6.826 47.6597 6.19 47.9357 5.638C48.2117 5.074 48.6017 4.642 49.1057 4.342C49.6097 4.03 50.1857 3.874 50.8337 3.874H52.1657C52.5737 3.874 52.9637 3.97 53.3357 4.162C53.7197 4.354 54.0257 4.618 54.2537 4.954V0.399999H55.5497V13H54.2897V11.668C54.0137 12.112 53.6537 12.472 53.2097 12.748C52.7657 13.012 52.3337 13.144 51.9137 13.144H50.6717ZM51.8777 11.992C52.2617 11.992 52.6337 11.872 52.9937 11.632C53.3537 11.38 53.6477 11.056 53.8757 10.66C54.1037 10.264 54.2297 9.856 54.2537 9.436V7.168C54.1697 6.532 53.9297 6.016 53.5337 5.62C53.1497 5.224 52.6817 5.026 52.1297 5.026H50.8697C50.2577 5.026 49.7597 5.26 49.3757 5.728C49.0037 6.184 48.8177 6.79 48.8177 7.546V9.706C48.8177 10.378 48.9917 10.93 49.3397 11.362C49.6997 11.782 50.1557 11.992 50.7077 11.992H51.8777ZM61.2759 13.144C60.2679 13.144 59.4579 12.85 58.8459 12.262C58.2339 11.662 57.9279 10.87 57.9279 9.886V7.312C57.9279 6.28 58.2339 5.452 58.8459 4.828C59.4579 4.192 60.2679 3.874 61.2759 3.874H62.7519C63.7119 3.874 64.4859 4.18 65.0739 4.792C65.6619 5.404 65.9559 6.214 65.9559 7.222V8.806H59.2239V9.886C59.2239 10.51 59.4099 11.02 59.7819 11.416C60.1659 11.8 60.6639 11.992 61.2759 11.992H62.6439C63.2439 11.992 63.7299 11.83 64.1019 11.506C64.4739 11.17 64.6599 10.726 64.6599 10.174H65.9199C65.9199 11.062 65.6199 11.782 65.0199 12.334C64.4199 12.874 63.6279 13.144 62.6439 13.144H61.2759ZM64.6599 7.69V7.222C64.6599 6.562 64.4859 6.034 64.1379 5.638C63.7899 5.23 63.3279 5.026 62.7519 5.026H61.2759C60.6639 5.026 60.1659 5.236 59.7819 5.656C59.4099 6.076 59.2239 6.628 59.2239 7.312V7.69H64.6599ZM69.0141 5.17H67.4661V4.018H69.0141V3.316C69.0141 2.332 69.2661 1.588 69.7701 1.084C70.2741 0.579999 71.0121 0.327999 71.9841 0.327999H72.6681V1.444H71.9841C71.4081 1.444 70.9821 1.6 70.7061 1.912C70.4421 2.212 70.3101 2.68 70.3101 3.316V4.018H72.4701V5.17H70.3101V13H69.0141V5.17ZM77.0962 13.144C76.0882 13.144 75.2782 12.85 74.6662 12.262C74.0542 11.662 73.7482 10.87 73.7482 9.886V7.312C73.7482 6.28 74.0542 5.452 74.6662 4.828C75.2782 4.192 76.0882 3.874 77.0962 3.874H78.5722C79.5322 3.874 80.3062 4.18 80.8942 4.792C81.4822 5.404 81.7762 6.214 81.7762 7.222V8.806H75.0442V9.886C75.0442 10.51 75.2302 11.02 75.6022 11.416C75.9862 11.8 76.4842 11.992 77.0962 11.992H78.4642C79.0642 11.992 79.5502 11.83 79.9222 11.506C80.2942 11.17 80.4802 10.726 80.4802 10.174H81.7402C81.7402 11.062 81.4402 11.782 80.8402 12.334C80.2402 12.874 79.4482 13.144 78.4642 13.144H77.0962ZM80.4802 7.69V7.222C80.4802 6.562 80.3062 6.034 79.9582 5.638C79.6102 5.23 79.1482 5.026 78.5722 5.026H77.0962C76.4842 5.026 75.9862 5.236 75.6022 5.656C75.2302 6.076 75.0442 6.628 75.0442 7.312V7.69H80.4802ZM86.9559 13.144C85.9719 13.144 85.1799 12.85 84.5799 12.262C83.9799 11.662 83.6799 10.87 83.6799 9.886V7.312C83.6799 6.28 83.9799 5.452 84.5799 4.828C85.1799 4.192 85.9659 3.874 86.9379 3.874H88.4139C89.3379 3.874 90.0819 4.132 90.6459 4.648C91.2099 5.164 91.4919 5.842 91.4919 6.682H90.2319C90.2319 6.19 90.0639 5.794 89.7279 5.494C89.4039 5.182 88.9659 5.026 88.4139 5.026H86.9379C86.3499 5.026 85.8759 5.236 85.5159 5.656C85.1559 6.076 84.9759 6.628 84.9759 7.312V9.886C84.9759 10.522 85.1559 11.032 85.5159 11.416C85.8879 11.8 86.3679 11.992 86.9559 11.992H88.4319C88.9959 11.992 89.4459 11.794 89.7819 11.398C90.1299 11.002 90.3039 10.474 90.3039 9.814H91.5639C91.5639 10.81 91.2759 11.614 90.6999 12.226C90.1239 12.838 89.3679 13.144 88.4319 13.144H86.9559ZM97.148 13C96.2 13 95.516 12.796 95.096 12.388C94.688 11.98 94.484 11.308 94.484 10.372V5.17H92.9V4.018H94.484V1.3H95.78V4.018H98.12V5.17H95.78V10.372C95.78 10.9 95.882 11.278 96.086 11.506C96.302 11.734 96.656 11.848 97.148 11.848H98.12V13H97.148ZM101.105 6.394C100.817 6.394 100.583 6.304 100.403 6.124C100.223 5.944 100.133 5.71 100.133 5.422C100.133 5.134 100.223 4.9 100.403 4.72C100.583 4.54 100.817 4.45 101.105 4.45C101.393 4.45 101.627 4.54 101.807 4.72C101.987 4.9 102.077 5.134 102.077 5.422C102.077 5.71 101.987 5.944 101.807 6.124C101.627 6.304 101.393 6.394 101.105 6.394ZM101.105 12.55C100.817 12.55 100.583 12.46 100.403 12.28C100.223 12.1 100.133 11.866 100.133 11.578C100.133 11.29 100.223 11.056 100.403 10.876C100.583 10.696 100.817 10.606 101.105 10.606C101.393 10.606 101.627 10.696 101.807 10.876C101.987 11.056 102.077 11.29 102.077 11.578C102.077 11.866 101.987 12.1 101.807 12.28C101.627 12.46 101.393 12.55 101.105 12.55Z" fill="white"/>
</svg>
