<svg width="35" height="15" viewBox="0 0 35 15" fill="none" xmlns="http://www.w3.org/2000/svg">
<path d="M4.55875 14.66C3.66542 14.66 2.87208 14.46 2.17875 14.06C1.49875 13.6467 0.972083 13.0733 0.59875 12.34C0.225417 11.5933 0.03875 10.74 0.03875 9.78L0.03875 5.22C0.03875 4.24667 0.225417 3.39333 0.59875 2.66C0.985417 1.92667 1.51875 1.36 2.19875 0.959999C2.89208 0.546666 3.68542 0.34 4.57875 0.34L6.65875 0.34C7.55208 0.34 8.33875 0.546666 9.01875 0.959999C9.71208 1.36 10.2454 1.92667 10.6188 2.66C10.9921 3.39333 11.1788 4.24667 11.1788 5.22L11.1788 9.78C11.1788 10.74 10.9854 11.5933 10.5988 12.34C10.2254 13.0733 9.69208 13.6467 8.99875 14.06C8.31875 14.46 7.53208 14.66 6.63875 14.66H4.55875ZM6.61875 13.66C7.64542 13.66 8.47875 13.3067 9.11875 12.6C9.75875 11.88 10.0788 10.94 10.0788 9.78L10.0788 5.22C10.0788 4.04667 9.75875 3.10667 9.11875 2.4C8.49208 1.68 7.66542 1.32 6.63875 1.32L4.59875 1.32C3.55875 1.32 2.71875 1.68 2.07875 2.4C1.45208 3.10667 1.13875 4.04667 1.13875 5.22L1.13875 9.78C1.13875 10.94 1.45208 11.88 2.07875 12.6C2.71875 13.3067 3.55208 13.66 4.57875 13.66H6.61875ZM14.2278 0.499999L23.0478 0.499999V1.48L15.3278 1.48V7.02L22.3078 7.02V8L15.3278 8L15.3278 14.5H14.2278L14.2278 0.499999ZM25.6145 0.499999L34.4345 0.499999V1.48L26.7145 1.48V7.02L33.6945 7.02V8L26.7145 8L26.7145 14.5H25.6145L25.6145 0.499999Z" fill="url(#paint0_linear_731_247)"/>
<defs>
<linearGradient id="paint0_linear_731_247" x1="0.31507" y1="1.21233" x2="6.48152" y2="21.2157" gradientUnits="userSpaceOnUse">
<stop stop-color="#727272"/>
<stop offset="1" stop-color="white"/>
</linearGradient>
</defs>
</svg>
