<svg width="25" height="16" viewBox="0 0 25 16" fill="none" xmlns="http://www.w3.org/2000/svg">
<path d="M5.1193 15.16C4.22596 15.16 3.43263 14.96 2.7393 14.56C2.0593 14.1467 1.53263 13.5733 1.1593 12.84C0.785964 12.0933 0.599297 11.24 0.599297 10.28L0.599297 5.72C0.599297 4.74667 0.785964 3.89333 1.1593 3.16C1.54596 2.42667 2.0793 1.86 2.7593 1.46C3.45263 1.04667 4.24596 0.84 5.1393 0.84L7.2193 0.84C8.11263 0.84 8.8993 1.04667 9.5793 1.46C10.2726 1.86 10.806 2.42667 11.1793 3.16C11.5526 3.89333 11.7393 4.74667 11.7393 5.72V10.28C11.7393 11.24 11.546 12.0933 11.1593 12.84C10.786 13.5733 10.2526 14.1467 9.5593 14.56C8.8793 14.96 8.09263 15.16 7.1993 15.16H5.1193ZM7.1793 14.16C8.20596 14.16 9.0393 13.8067 9.6793 13.1C10.3193 12.38 10.6393 11.44 10.6393 10.28L10.6393 5.72C10.6393 4.54667 10.3193 3.60667 9.6793 2.9C9.05263 2.18 8.22596 1.82 7.1993 1.82L5.1593 1.82C4.1193 1.82 3.2793 2.18 2.6393 2.9C2.01263 3.60667 1.6993 4.54667 1.6993 5.72L1.6993 10.28C1.6993 11.44 2.01263 12.38 2.6393 13.1C3.2793 13.8067 4.11263 14.16 5.1393 14.16H7.1793ZM14.7884 0.999999L15.8684 0.999999L23.9484 13.26L23.9484 0.999999L25.0084 0.999999L25.0084 15H23.9484L15.8484 2.78L15.8484 15H14.7884L14.7884 0.999999Z" fill="url(#paint0_linear_731_205)"/>
<defs>
<linearGradient id="paint0_linear_731_205" x1="27.8696" y1="2.75195" x2="18.8386" y2="21.698" gradientUnits="userSpaceOnUse">
<stop stop-color="#FCB433"/>
<stop offset="1" stop-color="#966B1E"/>
</linearGradient>
</defs>
</svg>
