<svg width="72" height="14" viewBox="0 0 72 14" fill="none" xmlns="http://www.w3.org/2000/svg">
<path d="M4.292 13.144C3.464 13.144 2.732 12.958 2.096 12.586C1.46 12.214 0.962 11.686 0.602 11.002C0.254 10.318 0.08 9.526 0.08 8.626V4.774C0.08 3.874 0.254 3.082 0.602 2.398C0.962 1.714 1.46 1.186 2.096 0.813999C2.732 0.442 3.47 0.256 4.31 0.256H6.218C7.058 0.256 7.796 0.442 8.432 0.813999C9.068 1.186 9.56 1.714 9.908 2.398C10.268 3.082 10.448 3.874 10.448 4.774V8.626C10.448 9.526 10.268 10.318 9.908 11.002C9.56 11.674 9.062 12.202 8.414 12.586C7.778 12.958 7.046 13.144 6.218 13.144H4.292ZM6.182 11.956C7.058 11.956 7.766 11.65 8.306 11.038C8.846 10.426 9.116 9.622 9.116 8.626V4.774C9.116 3.778 8.846 2.974 8.306 2.362C7.766 1.75 7.058 1.444 6.182 1.444H4.346C3.47 1.444 2.762 1.75 2.222 2.362C1.682 2.974 1.412 3.778 1.412 4.774V8.626C1.412 9.622 1.676 10.426 2.204 11.038C2.744 11.65 3.452 11.956 4.328 11.956H6.182ZM16.0152 13C15.5112 13 15.1452 12.694 14.9172 12.082L11.8212 4.018H13.1892L15.9612 11.578H15.9792L18.7512 4.018H20.1192L16.6272 13H16.0152ZM24.0538 13.144C23.1778 13.144 22.4758 12.916 21.9478 12.46C21.4318 12.004 21.1738 11.392 21.1738 10.624V10.048C21.1738 9.292 21.4438 8.686 21.9838 8.23C22.5238 7.774 23.2378 7.546 24.1258 7.546H25.2778C25.6738 7.546 26.0818 7.606 26.5018 7.726C26.9218 7.846 27.2818 8.008 27.5818 8.212V6.718C27.5818 6.214 27.4258 5.806 27.1138 5.494C26.8018 5.17 26.3878 5.008 25.8718 5.008H24.4318C23.9158 5.008 23.5018 5.128 23.1898 5.368C22.8778 5.608 22.7218 5.926 22.7218 6.322H21.4258C21.4258 5.59 21.7018 5.002 22.2538 4.558C22.8058 4.102 23.5318 3.874 24.4318 3.874H25.8718C26.7598 3.874 27.4738 4.138 28.0138 4.666C28.5658 5.182 28.8418 5.866 28.8418 6.718V13H27.6178V11.74C27.3418 12.172 26.9758 12.514 26.5198 12.766C26.0758 13.018 25.6138 13.144 25.1338 13.144H24.0538ZM25.1698 12.01C25.7338 12.01 26.2378 11.836 26.6818 11.488C27.1258 11.14 27.4258 10.678 27.5818 10.102V9.436C27.3418 9.208 27.0058 9.028 26.5738 8.896C26.1538 8.752 25.7218 8.68 25.2778 8.68H24.1258C23.6338 8.68 23.2318 8.806 22.9198 9.058C22.6198 9.31 22.4697 9.64 22.4697 10.048V10.624C22.4697 11.044 22.6138 11.38 22.9018 11.632C23.1898 11.884 23.5738 12.01 24.0538 12.01H25.1698ZM33.9477 13C33.0597 13 32.4237 12.814 32.0397 12.442C31.6557 12.058 31.4637 11.428 31.4637 10.552V0.399999H32.7597V10.552C32.7597 11.008 32.8497 11.338 33.0297 11.542C33.2217 11.746 33.5277 11.848 33.9477 11.848H34.5597V13H33.9477ZM41.0279 0.399999H42.3059L46.8059 8.77L51.1799 0.399999H52.4579V13H51.1439V2.884L47.5079 9.796C47.3759 10.036 47.2619 10.204 47.1659 10.3C47.0699 10.384 46.9619 10.426 46.8419 10.426H46.4459L42.3419 2.884V13H41.0279V0.399999ZM56.2365 2.668C55.9485 2.668 55.7145 2.578 55.5345 2.398C55.3545 2.218 55.2645 1.984 55.2645 1.696C55.2645 1.408 55.3545 1.174 55.5345 0.993999C55.7145 0.813999 55.9485 0.723999 56.2365 0.723999C56.5245 0.723999 56.7585 0.813999 56.9385 0.993999C57.1185 1.174 57.2085 1.408 57.2085 1.696C57.2085 1.984 57.1185 2.218 56.9385 2.398C56.7585 2.578 56.5245 2.668 56.2365 2.668ZM55.5885 4.018H56.8845V13H55.5885V4.018ZM59.9403 4.018H61.2003V5.35C61.4763 4.918 61.8363 4.564 62.2803 4.288C62.7243 4.012 63.1683 3.874 63.6123 3.874H64.8363C65.6643 3.874 66.3303 4.156 66.8343 4.72C67.3503 5.284 67.6083 6.022 67.6083 6.934V13H66.3123V6.898C66.3123 6.346 66.1743 5.896 65.8983 5.548C65.6223 5.2 65.2563 5.026 64.8003 5.026H63.6483C63.0843 5.026 62.5683 5.248 62.1003 5.692C61.6443 6.136 61.3563 6.706 61.2363 7.402V13H59.9403V4.018ZM70.853 6.394C70.565 6.394 70.331 6.304 70.151 6.124C69.971 5.944 69.881 5.71 69.881 5.422C69.881 5.134 69.971 4.9 70.151 4.72C70.331 4.54 70.565 4.45 70.853 4.45C71.141 4.45 71.375 4.54 71.555 4.72C71.735 4.9 71.825 5.134 71.825 5.422C71.825 5.71 71.735 5.944 71.555 6.124C71.375 6.304 71.141 6.394 70.853 6.394ZM70.853 12.55C70.565 12.55 70.331 12.46 70.151 12.28C69.971 12.1 69.881 11.866 69.881 11.578C69.881 11.29 69.971 11.056 70.151 10.876C70.331 10.696 70.565 10.606 70.853 10.606C71.141 10.606 71.375 10.696 71.555 10.876C71.735 11.056 71.825 11.29 71.825 11.578C71.825 11.866 71.735 12.1 71.555 12.28C71.375 12.46 71.141 12.55 70.853 12.55Z" fill="white"/>
</svg>
