<svg width="76" height="14" viewBox="0 0 76 14" fill="none" xmlns="http://www.w3.org/2000/svg">
<path d="M4.292 13.144C3.464 13.144 2.732 12.958 2.096 12.586C1.46 12.214 0.962 11.686 0.602 11.002C0.254 10.318 0.08 9.526 0.08 8.626V4.774C0.08 3.874 0.254 3.082 0.602 2.398C0.962 1.714 1.46 1.186 2.096 0.813999C2.732 0.442 3.47 0.256 4.31 0.256H6.218C7.058 0.256 7.796 0.442 8.432 0.813999C9.068 1.186 9.56 1.714 9.908 2.398C10.268 3.082 10.448 3.874 10.448 4.774V8.626C10.448 9.526 10.268 10.318 9.908 11.002C9.56 11.674 9.062 12.202 8.414 12.586C7.778 12.958 7.046 13.144 6.218 13.144H4.292ZM6.182 11.956C7.058 11.956 7.766 11.65 8.306 11.038C8.846 10.426 9.116 9.622 9.116 8.626V4.774C9.116 3.778 8.846 2.974 8.306 2.362C7.766 1.75 7.058 1.444 6.182 1.444H4.346C3.47 1.444 2.762 1.75 2.222 2.362C1.682 2.974 1.412 3.778 1.412 4.774V8.626C1.412 9.622 1.676 10.426 2.204 11.038C2.744 11.65 3.452 11.956 4.328 11.956H6.182ZM16.0152 13C15.5112 13 15.1452 12.694 14.9172 12.082L11.8212 4.018H13.1892L15.9612 11.578H15.9792L18.7512 4.018H20.1192L16.6272 13H16.0152ZM24.0538 13.144C23.1778 13.144 22.4758 12.916 21.9478 12.46C21.4318 12.004 21.1738 11.392 21.1738 10.624V10.048C21.1738 9.292 21.4438 8.686 21.9838 8.23C22.5238 7.774 23.2378 7.546 24.1258 7.546H25.2778C25.6738 7.546 26.0818 7.606 26.5018 7.726C26.9218 7.846 27.2818 8.008 27.5818 8.212V6.718C27.5818 6.214 27.4258 5.806 27.1138 5.494C26.8018 5.17 26.3878 5.008 25.8718 5.008H24.4318C23.9158 5.008 23.5018 5.128 23.1898 5.368C22.8778 5.608 22.7218 5.926 22.7218 6.322H21.4258C21.4258 5.59 21.7018 5.002 22.2538 4.558C22.8058 4.102 23.5318 3.874 24.4318 3.874H25.8718C26.7598 3.874 27.4738 4.138 28.0138 4.666C28.5658 5.182 28.8418 5.866 28.8418 6.718V13H27.6178V11.74C27.3418 12.172 26.9758 12.514 26.5198 12.766C26.0758 13.018 25.6138 13.144 25.1338 13.144H24.0538ZM25.1698 12.01C25.7338 12.01 26.2378 11.836 26.6818 11.488C27.1258 11.14 27.4258 10.678 27.5818 10.102V9.436C27.3418 9.208 27.0058 9.028 26.5738 8.896C26.1538 8.752 25.7218 8.68 25.2778 8.68H24.1258C23.6338 8.68 23.2318 8.806 22.9198 9.058C22.6198 9.31 22.4697 9.64 22.4697 10.048V10.624C22.4697 11.044 22.6138 11.38 22.9018 11.632C23.1898 11.884 23.5738 12.01 24.0538 12.01H25.1698ZM33.9477 13C33.0597 13 32.4237 12.814 32.0397 12.442C31.6557 12.058 31.4637 11.428 31.4637 10.552V0.399999H32.7597V10.552C32.7597 11.008 32.8497 11.338 33.0297 11.542C33.2217 11.746 33.5277 11.848 33.9477 11.848H34.5597V13H33.9477ZM41.0279 0.399999H42.3059L46.8059 8.77L51.1799 0.399999H52.4579V13H51.1439V2.884L47.5079 9.796C47.3759 10.036 47.2619 10.204 47.1659 10.3C47.0699 10.384 46.9619 10.426 46.8419 10.426H46.4459L42.3419 2.884V13H41.0279V0.399999ZM57.8565 13.144C56.9805 13.144 56.2785 12.916 55.7505 12.46C55.2345 12.004 54.9765 11.392 54.9765 10.624V10.048C54.9765 9.292 55.2465 8.686 55.7865 8.23C56.3265 7.774 57.0405 7.546 57.9285 7.546H59.0805C59.4765 7.546 59.8845 7.606 60.3045 7.726C60.7245 7.846 61.0845 8.008 61.3845 8.212V6.718C61.3845 6.214 61.2285 5.806 60.9165 5.494C60.6045 5.17 60.1905 5.008 59.6745 5.008H58.2345C57.7185 5.008 57.3045 5.128 56.9925 5.368C56.6805 5.608 56.5245 5.926 56.5245 6.322H55.2285C55.2285 5.59 55.5045 5.002 56.0565 4.558C56.6085 4.102 57.3345 3.874 58.2345 3.874H59.6745C60.5625 3.874 61.2765 4.138 61.8165 4.666C62.3685 5.182 62.6445 5.866 62.6445 6.718V13H61.4205V11.74C61.1445 12.172 60.7785 12.514 60.3225 12.766C59.8785 13.018 59.4165 13.144 58.9365 13.144H57.8565ZM58.9725 12.01C59.5365 12.01 60.0405 11.836 60.4845 11.488C60.9285 11.14 61.2285 10.678 61.3845 10.102V9.436C61.1445 9.208 60.8085 9.028 60.3765 8.896C59.9565 8.752 59.5245 8.68 59.0805 8.68H57.9285C57.4365 8.68 57.0345 8.806 56.7225 9.058C56.4225 9.31 56.2725 9.64 56.2725 10.048V10.624C56.2725 11.044 56.4165 11.38 56.7045 11.632C56.9925 11.884 57.3765 12.01 57.8565 12.01H58.9725ZM67.5704 8.41L64.3304 4.018H65.8064L68.3084 7.402L70.8104 4.018H72.2864L69.0464 8.41L72.4304 13H70.9544L68.3084 9.418L65.6624 13H64.1864L67.5704 8.41ZM74.7027 6.394C74.4147 6.394 74.1807 6.304 74.0007 6.124C73.8207 5.944 73.7307 5.71 73.7307 5.422C73.7307 5.134 73.8207 4.9 74.0007 4.72C74.1807 4.54 74.4147 4.45 74.7027 4.45C74.9907 4.45 75.2247 4.54 75.4047 4.72C75.5847 4.9 75.6747 5.134 75.6747 5.422C75.6747 5.71 75.5847 5.944 75.4047 6.124C75.2247 6.304 74.9907 6.394 74.7027 6.394ZM74.7027 12.55C74.4147 12.55 74.1807 12.46 74.0007 12.28C73.8207 12.1 73.7307 11.866 73.7307 11.578C73.7307 11.29 73.8207 11.056 74.0007 10.876C74.1807 10.696 74.4147 10.606 74.7027 10.606C74.9907 10.606 75.2247 10.696 75.4047 10.876C75.5847 11.056 75.6747 11.29 75.6747 11.578C75.6747 11.866 75.5847 12.1 75.4047 12.28C75.2247 12.46 74.9907 12.55 74.7027 12.55Z" fill="white"/>
</svg>
