<svg width="92" height="17" viewBox="0 0 92 17" fill="none" xmlns="http://www.w3.org/2000/svg">
<path d="M0.44 0.399999H6.56C7.484 0.399999 8.222 0.663999 8.774 1.192C9.338 1.708 9.62 2.392 9.62 3.244V4.558C9.62 5.194 9.416 5.758 9.008 6.25C8.6 6.73 8.054 7.072 7.37 7.276V7.294C7.73 7.486 8.054 7.792 8.342 8.212C8.642 8.632 8.87 9.106 9.026 9.634L10.016 13H8.648L7.658 9.634C7.49 9.046 7.196 8.572 6.776 8.212C6.368 7.852 5.918 7.672 5.426 7.672H1.772V13H0.44V0.399999ZM6.092 6.484C6.752 6.484 7.28 6.31 7.676 5.962C8.084 5.602 8.288 5.134 8.288 4.558V3.172C8.288 2.692 8.126 2.308 7.802 2.02C7.478 1.732 7.052 1.588 6.524 1.588H1.772V6.484H6.092ZM13.047 2.668C12.759 2.668 12.525 2.578 12.345 2.398C12.165 2.218 12.075 1.984 12.075 1.696C12.075 1.408 12.165 1.174 12.345 0.993999C12.525 0.813999 12.759 0.723999 13.047 0.723999C13.335 0.723999 13.569 0.813999 13.749 0.993999C13.929 1.174 14.019 1.408 14.019 1.696C14.019 1.984 13.929 2.218 13.749 2.398C13.569 2.578 13.335 2.668 13.047 2.668ZM12.399 4.018H13.695V13H12.399V4.018ZM16.7508 4.018H18.0108V5.35C18.2868 4.918 18.6468 4.564 19.0908 4.288C19.5348 4.012 19.9788 3.874 20.4228 3.874H21.6468C22.4748 3.874 23.1408 4.156 23.6448 4.72C24.1608 5.284 24.4188 6.022 24.4188 6.934V13H23.1228V6.898C23.1228 6.346 22.9848 5.896 22.7088 5.548C22.4328 5.2 22.0668 5.026 21.6108 5.026H20.4588C19.8948 5.026 19.3788 5.248 18.9108 5.692C18.4548 6.136 18.1668 6.706 18.0468 7.402V13H16.7508V4.018ZM29.9676 16.654C29.1756 16.654 28.5216 16.438 28.0056 16.006C27.4896 15.586 27.2016 15.028 27.1416 14.332H28.4376C28.4856 14.692 28.6476 14.98 28.9236 15.196C29.2116 15.424 29.5596 15.538 29.9676 15.538H31.4616C32.0856 15.538 32.5656 15.328 32.9016 14.908C33.2496 14.5 33.4236 13.924 33.4236 13.18V11.794C33.1596 12.154 32.8116 12.448 32.3796 12.676C31.9596 12.892 31.5516 13 31.1556 13H29.8416C29.2296 13 28.6836 12.856 28.2036 12.568C27.7236 12.28 27.3516 11.878 27.0876 11.362C26.8236 10.846 26.6916 10.246 26.6916 9.562V7.456C26.6916 6.388 26.9976 5.524 27.6096 4.864C28.2336 4.204 29.0496 3.874 30.0576 3.874H31.3176C31.7016 3.874 32.0976 3.982 32.5056 4.198C32.9136 4.414 33.2316 4.69 33.4596 5.026V4.018H34.7196V13.18C34.7196 14.272 34.4316 15.124 33.8556 15.736C33.2796 16.348 32.4816 16.654 31.4616 16.654H29.9676ZM31.1556 11.848C31.7556 11.848 32.2656 11.614 32.6856 11.146C33.1176 10.666 33.3636 10.06 33.4236 9.328V7.114C33.3756 6.502 33.1476 6.004 32.7396 5.62C32.3436 5.224 31.8696 5.026 31.3176 5.026H30.0936C29.4576 5.026 28.9476 5.248 28.5636 5.692C28.1796 6.136 27.9876 6.724 27.9876 7.456V9.562C27.9876 10.234 28.1616 10.786 28.5096 11.218C28.8696 11.638 29.3256 11.848 29.8776 11.848H31.1556ZM40.2478 13.144C39.6358 13.144 39.0898 13 38.6098 12.712C38.1298 12.424 37.7578 12.022 37.4938 11.506C37.2298 10.99 37.0978 10.39 37.0978 9.706V7.546C37.0978 6.826 37.2358 6.19 37.5118 5.638C37.7878 5.074 38.1778 4.642 38.6818 4.342C39.1858 4.03 39.7618 3.874 40.4098 3.874H41.7418C42.1498 3.874 42.5398 3.97 42.9118 4.162C43.2958 4.354 43.6018 4.618 43.8298 4.954V0.399999H45.1258V13H43.8658V11.668C43.5898 12.112 43.2298 12.472 42.7858 12.748C42.3418 13.012 41.9098 13.144 41.4898 13.144H40.2478ZM41.4538 11.992C41.8378 11.992 42.2098 11.872 42.5698 11.632C42.9298 11.38 43.2238 11.056 43.4518 10.66C43.6798 10.264 43.8058 9.856 43.8298 9.436V7.168C43.7458 6.532 43.5058 6.016 43.1098 5.62C42.7258 5.224 42.2578 5.026 41.7058 5.026H40.4458C39.8338 5.026 39.3358 5.26 38.9518 5.728C38.5798 6.184 38.3938 6.79 38.3938 7.546V9.706C38.3938 10.378 38.5678 10.93 38.9158 11.362C39.2758 11.782 39.7318 11.992 40.2838 11.992H41.4538ZM50.8521 13.144C49.8441 13.144 49.0341 12.85 48.4221 12.262C47.8101 11.662 47.5041 10.87 47.5041 9.886V7.312C47.5041 6.28 47.8101 5.452 48.4221 4.828C49.0341 4.192 49.8441 3.874 50.8521 3.874H52.3281C53.2881 3.874 54.0621 4.18 54.6501 4.792C55.2381 5.404 55.5321 6.214 55.5321 7.222V8.806H48.8001V9.886C48.8001 10.51 48.9861 11.02 49.3581 11.416C49.7421 11.8 50.2401 11.992 50.8521 11.992H52.2201C52.8201 11.992 53.3061 11.83 53.6781 11.506C54.0501 11.17 54.2361 10.726 54.2361 10.174H55.4961C55.4961 11.062 55.1961 11.782 54.5961 12.334C53.9961 12.874 53.2041 13.144 52.2201 13.144H50.8521ZM54.2361 7.69V7.222C54.2361 6.562 54.0621 6.034 53.7141 5.638C53.3661 5.23 52.9041 5.026 52.3281 5.026H50.8521C50.2401 5.026 49.7421 5.236 49.3581 5.656C48.9861 6.076 48.8001 6.628 48.8001 7.312V7.69H54.2361ZM58.5903 5.17H57.0423V4.018H58.5903V3.316C58.5903 2.332 58.8423 1.588 59.3463 1.084C59.8503 0.579999 60.5883 0.327999 61.5603 0.327999H62.2443V1.444H61.5603C60.9843 1.444 60.5583 1.6 60.2823 1.912C60.0183 2.212 59.8863 2.68 59.8863 3.316V4.018H62.0463V5.17H59.8863V13H58.5903V5.17ZM66.6724 13.144C65.6644 13.144 64.8544 12.85 64.2424 12.262C63.6304 11.662 63.3244 10.87 63.3244 9.886V7.312C63.3244 6.28 63.6304 5.452 64.2424 4.828C64.8544 4.192 65.6644 3.874 66.6724 3.874H68.1484C69.1084 3.874 69.8824 4.18 70.4704 4.792C71.0584 5.404 71.3524 6.214 71.3524 7.222V8.806H64.6204V9.886C64.6204 10.51 64.8064 11.02 65.1784 11.416C65.5624 11.8 66.0604 11.992 66.6724 11.992H68.0404C68.6404 11.992 69.1264 11.83 69.4984 11.506C69.8704 11.17 70.0564 10.726 70.0564 10.174H71.3164C71.3164 11.062 71.0164 11.782 70.4164 12.334C69.8164 12.874 69.0244 13.144 68.0404 13.144H66.6724ZM70.0564 7.69V7.222C70.0564 6.562 69.8824 6.034 69.5344 5.638C69.1864 5.23 68.7244 5.026 68.1484 5.026H66.6724C66.0604 5.026 65.5624 5.236 65.1784 5.656C64.8064 6.076 64.6204 6.628 64.6204 7.312V7.69H70.0564ZM76.532 13.144C75.548 13.144 74.756 12.85 74.156 12.262C73.556 11.662 73.256 10.87 73.256 9.886V7.312C73.256 6.28 73.556 5.452 74.156 4.828C74.756 4.192 75.542 3.874 76.514 3.874H77.99C78.914 3.874 79.658 4.132 80.222 4.648C80.786 5.164 81.068 5.842 81.068 6.682H79.808C79.808 6.19 79.64 5.794 79.304 5.494C78.98 5.182 78.542 5.026 77.99 5.026H76.514C75.926 5.026 75.452 5.236 75.092 5.656C74.732 6.076 74.552 6.628 74.552 7.312V9.886C74.552 10.522 74.732 11.032 75.092 11.416C75.464 11.8 75.944 11.992 76.532 11.992H78.008C78.572 11.992 79.022 11.794 79.358 11.398C79.706 11.002 79.88 10.474 79.88 9.814H81.14C81.14 10.81 80.852 11.614 80.276 12.226C79.7 12.838 78.944 13.144 78.008 13.144H76.532ZM86.7241 13C85.7761 13 85.0921 12.796 84.6721 12.388C84.2641 11.98 84.0601 11.308 84.0601 10.372V5.17H82.4761V4.018H84.0601V1.3H85.3561V4.018H87.6961V5.17H85.3561V10.372C85.3561 10.9 85.4581 11.278 85.6621 11.506C85.8781 11.734 86.2321 11.848 86.7241 11.848H87.6961V13H86.7241ZM90.6812 6.394C90.3932 6.394 90.1592 6.304 89.9792 6.124C89.7992 5.944 89.7092 5.71 89.7092 5.422C89.7092 5.134 89.7992 4.9 89.9792 4.72C90.1592 4.54 90.3932 4.45 90.6812 4.45C90.9692 4.45 91.2032 4.54 91.3832 4.72C91.5632 4.9 91.6532 5.134 91.6532 5.422C91.6532 5.71 91.5632 5.944 91.3832 6.124C91.2032 6.304 90.9692 6.394 90.6812 6.394ZM90.6812 12.55C90.3932 12.55 90.1592 12.46 89.9792 12.28C89.7992 12.1 89.7092 11.866 89.7092 11.578C89.7092 11.29 89.7992 11.056 89.9792 10.876C90.1592 10.696 90.3932 10.606 90.6812 10.606C90.9692 10.606 91.2032 10.696 91.3832 10.876C91.5632 11.056 91.6532 11.29 91.6532 11.578C91.6532 11.866 91.5632 12.1 91.3832 12.28C91.2032 12.46 90.9692 12.55 90.6812 12.55Z" fill="white"/>
</svg>
