<svg width="76" height="13" viewBox="0 0 76 13" fill="none" xmlns="http://www.w3.org/2000/svg">
<path opacity="0.45" d="M3.152 2.08L0.576 3.376V2.256L3.312 0.799999H4.336V12H3.152V2.08ZM12.3108 0.447999H13.4628L7.44675 12.4H6.29475L12.3108 0.447999ZM17.1833 2.08L14.6073 3.376V2.256L17.3433 0.799999H18.3673V12H17.1833V2.08ZM20.582 10.944C20.582 10.3573 20.6887 9.85067 20.902 9.424C21.1153 8.98667 21.4567 8.592 21.926 8.24L25.894 5.232C26.4487 4.82667 26.726 4.336 26.726 3.76V3.248C26.726 2.78933 26.5713 2.42133 26.262 2.144C25.9527 1.86667 25.542 1.728 25.03 1.728H23.558C22.9927 1.728 22.5393 1.92533 22.198 2.32C21.8673 2.704 21.702 3.22133 21.702 3.872H20.518C20.518 2.90133 20.79 2.128 21.334 1.552C21.8887 0.965333 22.6193 0.672 23.526 0.672H25.03C25.894 0.672 26.5873 0.906666 27.11 1.376C27.6433 1.84533 27.91 2.46933 27.91 3.248V3.76C27.91 4.656 27.4833 5.41867 26.63 6.048L22.774 8.912C22.39 9.18933 22.1233 9.47733 21.974 9.776C21.8353 10.064 21.766 10.4533 21.766 10.944H28.07V12H20.582V10.944ZM35.2326 0.447999H36.3846L30.3686 12.4H29.2166L35.2326 0.447999ZM37.7851 10.944C37.7851 10.3573 37.8918 9.85067 38.1051 9.424C38.3185 8.98667 38.6598 8.592 39.1291 8.24L43.0971 5.232C43.6518 4.82667 43.9291 4.336 43.9291 3.76V3.248C43.9291 2.78933 43.7745 2.42133 43.4651 2.144C43.1558 1.86667 42.7451 1.728 42.2331 1.728H40.7611C40.1958 1.728 39.7425 1.92533 39.4011 2.32C39.0705 2.704 38.9051 3.22133 38.9051 3.872H37.7211C37.7211 2.90133 37.9931 2.128 38.5371 1.552C39.0918 0.965333 39.8225 0.672 40.7291 0.672H42.2331C43.0971 0.672 43.7905 0.906666 44.3131 1.376C44.8465 1.84533 45.1131 2.46933 45.1131 3.248V3.76C45.1131 4.656 44.6865 5.41867 43.8331 6.048L39.9771 8.912C39.5931 9.18933 39.3265 9.47733 39.1771 9.776C39.0385 10.064 38.9691 10.4533 38.9691 10.944H45.2731V12H37.7851V10.944ZM50.1798 12.128C49.5398 12.128 48.9691 11.9787 48.4678 11.68C47.9771 11.3813 47.5931 10.96 47.3158 10.416C47.0384 9.872 46.8997 9.248 46.8997 8.544V4.256C46.8997 3.552 47.0384 2.928 47.3158 2.384C47.5931 1.84 47.9771 1.41867 48.4678 1.12C48.9691 0.821333 49.5398 0.672 50.1798 0.672H51.8758C52.5158 0.672 53.0811 0.821333 53.5718 1.12C54.0624 1.41867 54.4411 1.84 54.7078 2.384C54.9851 2.928 55.1238 3.552 55.1238 4.256V8.544C55.1238 9.248 54.9851 9.872 54.7078 10.416C54.4411 10.96 54.0624 11.3813 53.5718 11.68C53.0811 11.9787 52.5158 12.128 51.8758 12.128H50.1798ZM51.8438 11.072C52.4731 11.072 52.9798 10.8427 53.3638 10.384C53.7478 9.91467 53.9398 9.30133 53.9398 8.544V4.256C53.9398 3.49867 53.7478 2.89067 53.3638 2.432C52.9798 1.96267 52.4731 1.728 51.8438 1.728H50.2118C49.5824 1.728 49.0704 1.96267 48.6758 2.432C48.2811 2.89067 48.0838 3.49867 48.0838 4.256V8.544C48.0838 9.30133 48.2811 9.91467 48.6758 10.384C49.0704 10.8427 49.5824 11.072 50.2118 11.072H51.8438ZM60.5235 12.128C59.8835 12.128 59.3128 11.9787 58.8115 11.68C58.3208 11.3813 57.9368 10.96 57.6595 10.416C57.3822 9.872 57.2435 9.248 57.2435 8.544V4.256C57.2435 3.552 57.3822 2.928 57.6595 2.384C57.9368 1.84 58.3208 1.41867 58.8115 1.12C59.3128 0.821333 59.8835 0.672 60.5235 0.672H62.2195C62.8595 0.672 63.4248 0.821333 63.9155 1.12C64.4062 1.41867 64.7848 1.84 65.0515 2.384C65.3288 2.928 65.4675 3.552 65.4675 4.256V8.544C65.4675 9.248 65.3288 9.872 65.0515 10.416C64.7848 10.96 64.4062 11.3813 63.9155 11.68C63.4248 11.9787 62.8595 12.128 62.2195 12.128H60.5235ZM62.1875 11.072C62.8168 11.072 63.3235 10.8427 63.7075 10.384C64.0915 9.91467 64.2835 9.30133 64.2835 8.544V4.256C64.2835 3.49867 64.0915 2.89067 63.7075 2.432C63.3235 1.96267 62.8168 1.728 62.1875 1.728H60.5555C59.9262 1.728 59.4142 1.96267 59.0195 2.432C58.6248 2.89067 58.4275 3.49867 58.4275 4.256V8.544C58.4275 9.30133 58.6248 9.91467 59.0195 10.384C59.4142 10.8427 59.9262 11.072 60.5555 11.072H62.1875ZM70.8673 12.128C70.2273 12.128 69.6566 11.9787 69.1553 11.68C68.6646 11.3813 68.2806 10.96 68.0033 10.416C67.7259 9.872 67.5872 9.248 67.5872 8.544V4.256C67.5872 3.552 67.7259 2.928 68.0033 2.384C68.2806 1.84 68.6646 1.41867 69.1553 1.12C69.6566 0.821333 70.2273 0.672 70.8673 0.672H72.5633C73.2033 0.672 73.7686 0.821333 74.2593 1.12C74.7499 1.41867 75.1286 1.84 75.3953 2.384C75.6726 2.928 75.8113 3.552 75.8113 4.256V8.544C75.8113 9.248 75.6726 9.872 75.3953 10.416C75.1286 10.96 74.7499 11.3813 74.2593 11.68C73.7686 11.9787 73.2033 12.128 72.5633 12.128H70.8673ZM72.5313 11.072C73.1606 11.072 73.6673 10.8427 74.0513 10.384C74.4353 9.91467 74.6273 9.30133 74.6273 8.544V4.256C74.6273 3.49867 74.4353 2.89067 74.0513 2.432C73.6673 1.96267 73.1606 1.728 72.5313 1.728H70.8993C70.2699 1.728 69.7579 1.96267 69.3633 2.432C68.9686 2.89067 68.7713 3.49867 68.7713 4.256V8.544C68.7713 9.30133 68.9686 9.91467 69.3633 10.384C69.7579 10.8427 70.2699 11.072 70.8993 11.072H72.5313Z" fill="url(#paint0_linear_634_296)"/>
<defs>
<linearGradient id="paint0_linear_634_296" x1="13.3562" y1="-1.12329" x2="16.6119" y2="25.4368" gradientUnits="userSpaceOnUse">
<stop stop-color="#727272"/>
<stop offset="1" stop-color="white"/>
</linearGradient>
</defs>
</svg>
