<svg width="67" height="13" viewBox="0 0 67 13" fill="none" xmlns="http://www.w3.org/2000/svg">
<path opacity="0.45" d="M3.152 2.08L0.576 3.376V2.256L3.312 0.799999H4.336V12H3.152V2.08ZM12.3108 0.447999H13.4628L7.44675 12.4H6.29475L12.3108 0.447999ZM17.1833 2.08L14.6073 3.376V2.256L17.3433 0.799999H18.3673V12H17.1833V2.08ZM26.342 0.447999H27.494L21.478 12.4H20.326L26.342 0.447999ZM28.8945 10.944C28.8945 10.3573 29.0012 9.85067 29.2145 9.424C29.4278 8.98667 29.7692 8.592 30.2385 8.24L34.2065 5.232C34.7612 4.82667 35.0385 4.336 35.0385 3.76V3.248C35.0385 2.78933 34.8838 2.42133 34.5745 2.144C34.2652 1.86667 33.8545 1.728 33.3425 1.728H31.8705C31.3052 1.728 30.8518 1.92533 30.5105 2.32C30.1798 2.704 30.0145 3.22133 30.0145 3.872H28.8305C28.8305 2.90133 29.1025 2.128 29.6465 1.552C30.2012 0.965333 30.9318 0.672 31.8385 0.672H33.3425C34.2065 0.672 34.8998 0.906666 35.4225 1.376C35.9558 1.84533 36.2225 2.46933 36.2225 3.248V3.76C36.2225 4.656 35.7958 5.41867 34.9425 6.048L31.0865 8.912C30.7025 9.18933 30.4358 9.47733 30.2865 9.776C30.1478 10.064 30.0785 10.4533 30.0785 10.944H36.3825V12H28.8945V10.944ZM41.2891 12.128C40.6491 12.128 40.0785 11.9787 39.5771 11.68C39.0865 11.3813 38.7025 10.96 38.4251 10.416C38.1478 9.872 38.0091 9.248 38.0091 8.544V4.256C38.0091 3.552 38.1478 2.928 38.4251 2.384C38.7025 1.84 39.0865 1.41867 39.5771 1.12C40.0785 0.821333 40.6491 0.672 41.2891 0.672H42.9851C43.6251 0.672 44.1905 0.821333 44.6811 1.12C45.1718 1.41867 45.5505 1.84 45.8171 2.384C46.0945 2.928 46.2331 3.552 46.2331 4.256V8.544C46.2331 9.248 46.0945 9.872 45.8171 10.416C45.5505 10.96 45.1718 11.3813 44.6811 11.68C44.1905 11.9787 43.6251 12.128 42.9851 12.128H41.2891ZM42.9531 11.072C43.5825 11.072 44.0891 10.8427 44.4731 10.384C44.8571 9.91467 45.0491 9.30133 45.0491 8.544V4.256C45.0491 3.49867 44.8571 2.89067 44.4731 2.432C44.0891 1.96267 43.5825 1.728 42.9531 1.728H41.3211C40.6918 1.728 40.1798 1.96267 39.7851 2.432C39.3905 2.89067 39.1931 3.49867 39.1931 4.256V8.544C39.1931 9.30133 39.3905 9.91467 39.7851 10.384C40.1798 10.8427 40.6918 11.072 41.3211 11.072H42.9531ZM51.6329 12.128C50.9929 12.128 50.4222 11.9787 49.9209 11.68C49.4302 11.3813 49.0462 10.96 48.7689 10.416C48.4915 9.872 48.3529 9.248 48.3529 8.544V4.256C48.3529 3.552 48.4915 2.928 48.7689 2.384C49.0462 1.84 49.4302 1.41867 49.9209 1.12C50.4222 0.821333 50.9929 0.672 51.6329 0.672H53.3289C53.9689 0.672 54.5342 0.821333 55.0249 1.12C55.5155 1.41867 55.8942 1.84 56.1609 2.384C56.4382 2.928 56.5769 3.552 56.5769 4.256V8.544C56.5769 9.248 56.4382 9.872 56.1609 10.416C55.8942 10.96 55.5155 11.3813 55.0249 11.68C54.5342 11.9787 53.9689 12.128 53.3289 12.128H51.6329ZM53.2969 11.072C53.9262 11.072 54.4329 10.8427 54.8169 10.384C55.2009 9.91467 55.3929 9.30133 55.3929 8.544V4.256C55.3929 3.49867 55.2009 2.89067 54.8169 2.432C54.4329 1.96267 53.9262 1.728 53.2969 1.728H51.6649C51.0355 1.728 50.5235 1.96267 50.1289 2.432C49.7342 2.89067 49.5369 3.49867 49.5369 4.256V8.544C49.5369 9.30133 49.7342 9.91467 50.1289 10.384C50.5235 10.8427 51.0355 11.072 51.6649 11.072H53.2969ZM61.9766 12.128C61.3366 12.128 60.766 11.9787 60.2646 11.68C59.774 11.3813 59.39 10.96 59.1126 10.416C58.8353 9.872 58.6966 9.248 58.6966 8.544V4.256C58.6966 3.552 58.8353 2.928 59.1126 2.384C59.39 1.84 59.774 1.41867 60.2646 1.12C60.766 0.821333 61.3366 0.672 61.9766 0.672H63.6726C64.3126 0.672 64.878 0.821333 65.3686 1.12C65.8593 1.41867 66.238 1.84 66.5046 2.384C66.782 2.928 66.9206 3.552 66.9206 4.256V8.544C66.9206 9.248 66.782 9.872 66.5046 10.416C66.238 10.96 65.8593 11.3813 65.3686 11.68C64.878 11.9787 64.3126 12.128 63.6726 12.128H61.9766ZM63.6406 11.072C64.27 11.072 64.7766 10.8427 65.1606 10.384C65.5446 9.91467 65.7366 9.30133 65.7366 8.544V4.256C65.7366 3.49867 65.5446 2.89067 65.1606 2.432C64.7766 1.96267 64.27 1.728 63.6406 1.728H62.0086C61.3793 1.728 60.8673 1.96267 60.4726 2.432C60.078 2.89067 59.8806 3.49867 59.8806 4.256V8.544C59.8806 9.30133 60.078 9.91467 60.4726 10.384C60.8673 10.8427 61.3793 11.072 62.0086 11.072H63.6406Z" fill="url(#paint0_linear_634_290)"/>
<defs>
<linearGradient id="paint0_linear_634_290" x1="13.3562" y1="-1.12329" x2="16.6119" y2="25.4368" gradientUnits="userSpaceOnUse">
<stop stop-color="#727272"/>
<stop offset="1" stop-color="white"/>
</linearGradient>
</defs>
</svg>
