<svg width="39" height="13" viewBox="0 0 39 13" fill="none" xmlns="http://www.w3.org/2000/svg">
<path d="M0.28 0.799999H7.64V1.856H1.464V5.952H7.048V7.008H1.464V12H0.28V0.799999ZM8.79413 4.016H9.91413V5.248C10.1275 4.87467 10.4475 4.57067 10.8741 4.336C11.3115 4.10133 11.7648 3.984 12.2341 3.984H12.9381V5.024H12.2341C11.5515 5.024 10.9968 5.24267 10.5701 5.68C10.1541 6.10667 9.94613 6.67733 9.94613 7.392V12H8.79413V4.016ZM16.8876 12.128C15.9916 12.128 15.2716 11.8507 14.7276 11.296C14.1836 10.7413 13.9116 10.0107 13.9116 9.104V6.912C13.9116 6.00533 14.1836 5.27467 14.7276 4.72C15.2823 4.16533 16.013 3.888 16.9196 3.888H18.2316C19.1383 3.888 19.8636 4.16533 20.4076 4.72C20.9623 5.27467 21.2396 6.00533 21.2396 6.912V9.104C21.2396 10.0107 20.9623 10.7413 20.4076 11.296C19.853 11.8507 19.117 12.128 18.1996 12.128H16.8876ZM18.1996 11.104C18.7756 11.104 19.2343 10.9227 19.5756 10.56C19.917 10.1867 20.0876 9.70133 20.0876 9.104V6.912C20.0876 6.31467 19.917 5.83467 19.5756 5.472C19.2343 5.09867 18.7863 4.912 18.2316 4.912H16.9196C16.365 4.912 15.917 5.09867 15.5756 5.472C15.2343 5.83467 15.0636 6.31467 15.0636 6.912V9.104C15.0636 9.712 15.229 10.1973 15.5596 10.56C15.8903 10.9227 16.333 11.104 16.8876 11.104H18.1996ZM32.1086 3.888C32.8126 3.888 33.3673 4.11733 33.7726 4.576C34.1886 5.024 34.3966 5.648 34.3966 6.448V12H33.2446V6.416C33.2446 5.94667 33.138 5.57867 32.9246 5.312C32.7113 5.04533 32.4286 4.912 32.0766 4.912H31.1646C30.706 4.912 30.3273 5.06667 30.0286 5.376C29.73 5.68533 29.538 6.12267 29.4526 6.688V12H28.3006V6.512C28.3006 6.01067 28.1993 5.62133 27.9966 5.344C27.8046 5.056 27.538 4.912 27.1966 4.912H26.2846C25.8473 4.912 25.4633 5.104 25.1326 5.488C24.802 5.872 24.594 6.37333 24.5086 6.992V12H23.3566V4.016H24.4766V5.168C24.69 4.76267 24.9566 4.448 25.2766 4.224C25.5966 4 25.9326 3.888 26.2846 3.888H27.2286C27.6766 3.888 28.0606 4 28.3806 4.224C28.7113 4.43733 28.962 4.752 29.1326 5.168C29.378 4.74133 29.6713 4.42133 30.0126 4.208C30.354 3.99467 30.7273 3.888 31.1326 3.888H32.1086ZM37.2756 6.128C37.0196 6.128 36.8116 6.048 36.6516 5.888C36.4916 5.728 36.4116 5.52 36.4116 5.264C36.4116 5.008 36.4916 4.8 36.6516 4.64C36.8116 4.48 37.0196 4.4 37.2756 4.4C37.5316 4.4 37.7396 4.48 37.8996 4.64C38.0596 4.8 38.1396 5.008 38.1396 5.264C38.1396 5.52 38.0596 5.728 37.8996 5.888C37.7396 6.048 37.5316 6.128 37.2756 6.128ZM37.2756 11.6C37.0196 11.6 36.8116 11.52 36.6516 11.36C36.4916 11.2 36.4116 10.992 36.4116 10.736C36.4116 10.48 36.4916 10.272 36.6516 10.112C36.8116 9.952 37.0196 9.872 37.2756 9.872C37.5316 9.872 37.7396 9.952 37.8996 10.112C38.0596 10.272 38.1396 10.48 38.1396 10.736C38.1396 10.992 38.0596 11.2 37.8996 11.36C37.7396 11.52 37.5316 11.6 37.2756 11.6Z" fill="url(#paint0_linear_634_289)"/>
<defs>
<linearGradient id="paint0_linear_634_289" x1="7.63014" y1="-1.12329" x2="12.5668" y2="24.8993" gradientUnits="userSpaceOnUse">
<stop stop-color="#727272"/>
<stop offset="1" stop-color="white"/>
</linearGradient>
</defs>
</svg>
