<svg width="159" height="77" viewBox="0 0 159 77" fill="none" xmlns="http://www.w3.org/2000/svg">
<path opacity="0.4" d="M62.4855 60.4H63.4755V66.196H70.7475V60.4H71.7375V73H70.7475V67.078H63.4755V73H62.4855V60.4ZM77.5613 73.144C76.6133 73.144 75.8453 72.856 75.2573 72.28C74.6813 71.704 74.3933 70.942 74.3933 69.994V67.204C74.3933 66.208 74.6813 65.404 75.2573 64.792C75.8453 64.18 76.6133 63.874 77.5613 63.874H79.0373C79.9493 63.874 80.6813 64.174 81.2333 64.774C81.7973 65.362 82.0793 66.148 82.0793 67.132V68.644H75.3653V69.994C75.3653 70.678 75.5633 71.23 75.9593 71.65C76.3673 72.07 76.9013 72.28 77.5613 72.28H78.9293C79.5773 72.28 80.0993 72.094 80.4953 71.722C80.9033 71.338 81.1073 70.84 81.1073 70.228H82.0433C82.0433 71.104 81.7553 71.812 81.1793 72.352C80.6153 72.88 79.8653 73.144 78.9293 73.144H77.5613ZM81.1253 67.816V67.132C81.1253 66.412 80.9333 65.836 80.5493 65.404C80.1653 64.96 79.6613 64.738 79.0373 64.738H77.5613C76.9013 64.738 76.3673 64.966 75.9593 65.422C75.5633 65.878 75.3653 66.472 75.3653 67.204V67.816H81.1253ZM86.7399 73C85.9599 73 85.4019 72.82 85.0659 72.46C84.7299 72.1 84.5619 71.5 84.5619 70.66V60.4H85.5339V70.66C85.5339 71.188 85.6239 71.566 85.8039 71.794C85.9959 72.022 86.3079 72.136 86.7399 72.136H87.3159V73H86.7399ZM89.2553 64.018H90.1913V65.422C90.4553 64.954 90.8033 64.582 91.2353 64.306C91.6793 64.018 92.1293 63.874 92.5853 63.874H93.8993C94.8113 63.874 95.5433 64.174 96.0953 64.774C96.6593 65.362 96.9413 66.142 96.9413 67.114V69.562C96.9413 70.642 96.6593 71.512 96.0953 72.172C95.5313 72.82 94.7753 73.144 93.8273 73.144H92.5133C92.0813 73.144 91.6553 73.018 91.2353 72.766C90.8273 72.514 90.4913 72.178 90.2273 71.758V76.582H89.2553V64.018ZM93.8093 72.28C94.4693 72.28 94.9973 72.034 95.3933 71.542C95.7893 71.038 95.9873 70.378 95.9873 69.562V67.114C95.9873 66.406 95.7953 65.836 95.4113 65.404C95.0273 64.96 94.5173 64.738 93.8813 64.738H92.5853C92.0573 64.738 91.5713 64.954 91.1273 65.386C90.6953 65.806 90.3953 66.316 90.2273 66.916V70.012C90.3353 70.612 90.6053 71.14 91.0373 71.596C91.4693 72.052 91.9733 72.28 92.5493 72.28H93.8093Z" fill="white"/>
<g opacity="0.4">
<path d="M57 23C57 27.7123 57.2538 31.4308 57.9064 34.3673C58.5565 37.2925 59.589 39.3802 61.1044 40.8956C62.6198 42.411 64.7075 43.4435 67.6327 44.0936C70.5692 44.7462 74.2877 45 79 45C83.7123 45 87.4308 44.7462 90.3673 44.0936C93.2925 43.4435 95.3802 42.411 96.8956 40.8956C98.411 39.3802 99.4435 37.2925 100.094 34.3673C100.746 31.4308 101 27.7123 101 23C101 18.2877 100.746 14.5692 100.094 11.6327C99.4435 8.70748 98.411 6.61984 96.8956 5.10442C95.3802 3.589 93.2925 2.55653 90.3673 1.90643C87.4308 1.2538 83.7123 1 79 1C74.2877 1 70.5692 1.2538 67.6327 1.90643C64.7075 2.55653 62.6198 3.589 61.1044 5.10442C59.589 6.61984 58.5565 8.70748 57.9064 11.6327C57.2538 14.5692 57 18.2877 57 23Z" stroke="url(#paint0_linear_720_333)" stroke-width="2" stroke-linecap="round" stroke-linejoin="round"/>
<path fill-rule="evenodd" clip-rule="evenodd" d="M80.0001 15.3334C80.0001 14.7811 79.5524 14.3334 79.0001 14.3334C78.4478 14.3334 78.0001 14.7811 78.0001 15.3334V26.8334C78.0001 27.3856 78.4478 27.8334 79.0001 27.8334C79.5524 27.8334 80.0001 27.3856 80.0001 26.8334V15.3334ZM79.0007 30.6667C77.9421 30.6667 77.084 31.5248 77.084 32.5834C77.084 33.6419 77.9421 34.5 79.0007 34.5C80.0592 34.5 80.9173 33.6419 80.9173 32.5834C80.9173 31.5248 80.0592 30.6667 79.0007 30.6667Z" fill="url(#paint1_linear_720_333)"/>
</g>
<defs>
<linearGradient id="paint0_linear_720_333" x1="60.726" y1="43.4795" x2="99.4795" y2="4.56849" gradientUnits="userSpaceOnUse">
<stop stop-color="#727272"/>
<stop offset="1" stop-color="white"/>
</linearGradient>
<linearGradient id="paint1_linear_720_333" x1="77.4778" y1="15.4384" x2="83.7351" y2="16.6326" gradientUnits="userSpaceOnUse">
<stop stop-color="#727272"/>
<stop offset="1" stop-color="white"/>
</linearGradient>
</defs>
</svg>
