<svg width="150" height="44" viewBox="0 0 150 44" fill="none" xmlns="http://www.w3.org/2000/svg">
<rect opacity="0.7" x="149" y="1" width="41.9816" height="148" rx="14" transform="rotate(90 149 1)" fill="url(#paint0_linear_734_342)" fill-opacity="0.15" stroke="url(#paint1_linear_734_342)" stroke-width="2"/>
<path d="M60.0666 28.9427L54.4266 21.9827L52.5466 23.9827V28.9427H51.4466L51.4466 14.9427H52.5466V22.5627L59.6866 14.9427H61.0866L55.1866 21.1827L61.4466 28.9427H60.0666ZM66.1272 29.1027C65.0739 29.1027 64.2205 28.7827 63.5672 28.1427C62.9272 27.5027 62.6072 26.6561 62.6072 25.6027V22.5027C62.6072 21.3961 62.9272 20.5027 63.5672 19.8227C64.2205 19.1427 65.0739 18.8027 66.1272 18.8027H67.7672C68.7805 18.8027 69.5939 19.1361 70.2072 19.8027C70.8339 20.4561 71.1472 21.3294 71.1472 22.4227V24.1027H63.6872V25.6027C63.6872 26.3627 63.9072 26.9761 64.3472 27.4427C64.8005 27.9094 65.3939 28.1427 66.1272 28.1427H67.6472C68.3672 28.1427 68.9472 27.9361 69.3872 27.5227C69.8405 27.0961 70.0672 26.5427 70.0672 25.8627H71.1072C71.1072 26.8361 70.7872 27.6227 70.1472 28.2227C69.5205 28.8094 68.6872 29.1027 67.6472 29.1027H66.1272ZM70.0872 23.1827V22.4227C70.0872 21.6227 69.8739 20.9827 69.4472 20.5027C69.0205 20.0094 68.4605 19.7627 67.7672 19.7627H66.1272C65.3939 19.7627 64.8005 20.0161 64.3472 20.5227C63.9072 21.0294 63.6872 21.6894 63.6872 22.5027V23.1827H70.0872ZM76.9256 33.0027C76.1123 33.0027 75.439 32.7827 74.9056 32.3427C74.3723 31.9161 74.0723 31.3494 74.0056 30.6427H75.0656C75.119 31.0694 75.3123 31.4094 75.6456 31.6627C75.9923 31.9294 76.419 32.0627 76.9256 32.0627H78.5056C79.239 32.0627 79.8123 31.8161 80.2256 31.3227C80.6523 30.8294 80.8656 30.1561 80.8656 29.3027V27.0827C80.5056 27.6427 80.0656 28.0961 79.5456 28.4427C79.039 28.7761 78.539 28.9427 78.0456 28.9427H76.7456C75.8656 28.9427 75.1523 28.6494 74.6056 28.0627C74.059 27.4627 73.7856 26.6761 73.7856 25.7027V18.9627H74.8656V25.7227C74.8656 26.3894 75.039 26.9361 75.3856 27.3627C75.7323 27.7761 76.1856 27.9827 76.7456 27.9827H78.0056C78.5923 27.9827 79.1656 27.7227 79.7256 27.2027C80.299 26.6694 80.679 26.0361 80.8656 25.3027V18.9627H81.9256V29.3027C81.9256 30.4494 81.619 31.3494 81.0056 32.0027C80.3923 32.6694 79.559 33.0027 78.5056 33.0027H76.9256ZM88.9342 29.1027C88.4542 29.1027 87.9609 28.9494 87.4542 28.6427C86.9609 28.3227 86.5609 27.9227 86.2542 27.4427V28.9427H85.2142V14.9427H86.2942V20.3627C86.5876 19.8827 86.9742 19.5027 87.4542 19.2227C87.9476 18.9427 88.4742 18.8027 89.0342 18.8027H90.4342C91.4209 18.8027 92.2209 19.1361 92.8342 19.8027C93.4476 20.4694 93.7542 21.3494 93.7542 22.4427V25.2427C93.7542 26.3894 93.4342 27.3227 92.7942 28.0427C92.1676 28.7494 91.3409 29.1027 90.3142 29.1027H88.9342ZM90.2942 28.1427C91.0009 28.1427 91.5742 27.8761 92.0142 27.3427C92.4676 26.8094 92.6942 26.1094 92.6942 25.2427V22.4427C92.6942 21.6427 92.4809 20.9961 92.0542 20.5027C91.6409 20.0094 91.0942 19.7627 90.4142 19.7627H89.0742C88.3142 19.7627 87.6742 20.0294 87.1542 20.5627C86.6476 21.0827 86.3609 21.7694 86.2942 22.6227V25.6227C86.4142 26.3027 86.7276 26.8961 87.2342 27.4027C87.7542 27.8961 88.3209 28.1427 88.9342 28.1427H90.2942ZM99.8 29.1027C98.7333 29.1027 97.8733 28.7694 97.22 28.1027C96.5667 27.4227 96.24 26.5361 96.24 25.4427V22.4627C96.24 21.3694 96.5667 20.4894 97.22 19.8227C97.8867 19.1427 98.76 18.8027 99.84 18.8027H101.42C102.5 18.8027 103.367 19.1427 104.02 19.8227C104.687 20.4894 105.02 21.3694 105.02 22.4627V25.4427C105.02 26.5361 104.687 27.4227 104.02 28.1027C103.353 28.7694 102.473 29.1027 101.38 29.1027H99.8ZM101.38 28.1427C102.153 28.1427 102.773 27.8961 103.24 27.4027C103.72 26.9094 103.96 26.2561 103.96 25.4427V22.4627C103.96 21.6494 103.727 20.9961 103.26 20.5027C102.793 20.0094 102.18 19.7627 101.42 19.7627H99.84C99.08 19.7627 98.4667 20.0094 98 20.5027C97.5467 20.9961 97.32 21.6494 97.32 22.4627V25.4427C97.32 26.2561 97.5467 26.9094 98 27.4027C98.4533 27.8961 99.0533 28.1427 99.8 28.1427H101.38ZM110.65 29.1027C109.716 29.1027 108.97 28.8627 108.41 28.3827C107.85 27.8894 107.57 27.2361 107.57 26.4227V25.6627C107.57 24.8494 107.856 24.2027 108.43 23.7227C109.003 23.2427 109.763 23.0027 110.71 23.0027H112.01C112.463 23.0027 112.93 23.0761 113.41 23.2227C113.903 23.3694 114.323 23.5694 114.67 23.8227V21.8827C114.67 21.2561 114.476 20.7427 114.09 20.3427C113.703 19.9427 113.203 19.7427 112.59 19.7427H111.03C110.403 19.7427 109.896 19.8894 109.51 20.1827C109.123 20.4761 108.93 20.8694 108.93 21.3627H107.85C107.85 20.5894 108.143 19.9694 108.73 19.5027C109.316 19.0361 110.083 18.8027 111.03 18.8027H112.59C113.536 18.8027 114.29 19.0827 114.85 19.6427C115.423 20.2027 115.71 20.9494 115.71 21.8827V28.9427H114.69V27.3827C114.343 27.9161 113.916 28.3361 113.41 28.6427C112.903 28.9494 112.39 29.1027 111.87 29.1027H110.65ZM111.89 28.1427C112.45 28.1427 112.983 27.9427 113.49 27.5427C114.01 27.1427 114.403 26.6161 114.67 25.9627V24.8827C114.376 24.6027 113.983 24.3761 113.49 24.2027C113.01 24.0294 112.516 23.9427 112.01 23.9427H110.71C110.083 23.9427 109.583 24.1027 109.21 24.4227C108.836 24.7294 108.65 25.1427 108.65 25.6627V26.4227C108.65 26.9427 108.83 27.3627 109.19 27.6827C109.55 27.9894 110.036 28.1427 110.65 28.1427H111.89ZM118.867 18.9627H119.907V20.5827C120.2 20.0761 120.62 19.6761 121.167 19.3827C121.713 19.0761 122.3 18.9227 122.927 18.9227H123.667V19.8827H122.907C122.04 19.8827 121.327 20.1627 120.767 20.7227C120.22 21.2827 119.947 22.0094 119.947 22.9027V28.9427H118.867V18.9627ZM128.427 29.1027C127.441 29.1027 126.641 28.7627 126.027 28.0827C125.414 27.3894 125.107 26.4827 125.107 25.3627V22.6827C125.107 21.5227 125.427 20.5894 126.067 19.8827C126.721 19.1627 127.574 18.8027 128.627 18.8027H130.147C130.614 18.8027 131.067 18.9294 131.507 19.1827C131.961 19.4227 132.321 19.7494 132.587 20.1627V14.9427H133.647V28.9427H132.607V27.2627C132.274 27.8361 131.861 28.2894 131.367 28.6227C130.887 28.9427 130.381 29.1027 129.847 29.1027H128.427ZM129.827 28.1427C130.454 28.1427 131.034 27.8694 131.567 27.3227C132.101 26.7627 132.441 26.0894 132.587 25.3027V22.0627C132.454 21.3827 132.161 20.8294 131.707 20.4027C131.254 19.9761 130.727 19.7627 130.127 19.7627H128.647C127.901 19.7627 127.301 20.0294 126.847 20.5627C126.407 21.0961 126.187 21.8027 126.187 22.6827V25.3627C126.187 26.1894 126.394 26.8627 126.807 27.3827C127.234 27.8894 127.781 28.1427 128.447 28.1427H129.827Z" fill="#FCB433"/>
<path d="M12.5 21.9429C12.5 24.1374 12.577 25.8017 12.8828 27.0814C13.1835 28.3398 13.6964 29.1891 14.5544 29.796C15.4353 30.4192 16.734 30.8264 18.6887 31.0697C20.6377 31.3123 23.1783 31.3857 26.5 31.3857C29.8217 31.3857 32.3623 31.3123 34.3113 31.0697C36.266 30.8264 37.5647 30.4192 38.4456 29.796C39.3036 29.1891 39.8165 28.3398 40.1172 27.0814C40.423 25.8017 40.5 24.1374 40.5 21.9429C40.5 19.7484 40.423 18.0841 40.1172 16.8043C39.8165 15.5459 39.3036 14.6967 38.4456 14.0897C37.5647 13.4666 36.266 13.0593 34.3113 12.8161C32.3623 12.5735 29.8217 12.5 26.5 12.5C23.1783 12.5 20.6377 12.5735 18.6887 12.8161C16.734 13.0593 15.4353 13.4666 14.5544 14.0897C13.6964 14.6967 13.1835 15.5459 12.8828 16.8043C12.577 18.0841 12.5 19.7484 12.5 21.9429Z" stroke="url(#paint2_linear_734_342)" stroke-linecap="round" stroke-linejoin="round"/>
<path d="M32.542 19.4572H34.9587M21.667 24.4286H31.3337" stroke="url(#paint3_linear_734_342)" stroke-width="2" stroke-linecap="round" stroke-linejoin="round"/>
<path fill-rule="evenodd" clip-rule="evenodd" d="M18.0413 20.7C18.7087 20.7 19.2497 20.1436 19.2497 19.4572C19.2497 18.7707 18.7087 18.2143 18.0413 18.2143C17.374 18.2143 16.833 18.7707 16.833 19.4572C16.833 20.1436 17.374 20.7 18.0413 20.7ZM18.0414 25.6714C18.7087 25.6714 19.2497 25.115 19.2497 24.4286C19.2497 23.7422 18.7087 23.1857 18.0414 23.1857C17.3741 23.1857 16.8331 23.7422 16.8331 24.4286C16.8331 25.115 17.3741 25.6714 18.0414 25.6714ZM22.8747 19.4572C22.8747 20.1436 22.3337 20.7 21.6664 20.7C20.9991 20.7 20.4581 20.1436 20.4581 19.4572C20.4581 18.7707 20.9991 18.2143 21.6664 18.2143C22.3337 18.2143 22.8747 18.7707 22.8747 19.4572ZM25.2914 20.7C25.9587 20.7 26.4997 20.1436 26.4997 19.4572C26.4997 18.7707 25.9587 18.2143 25.2914 18.2143C24.6241 18.2143 24.0831 18.7707 24.0831 19.4572C24.0831 20.1436 24.6241 20.7 25.2914 20.7ZM30.1247 19.4572C30.1247 20.1436 29.5837 20.7 28.9164 20.7C28.2491 20.7 27.7081 20.1436 27.7081 19.4572C27.7081 18.7707 28.2491 18.2143 28.9164 18.2143C29.5837 18.2143 30.1247 18.7707 30.1247 19.4572ZM34.9583 25.6714C35.6257 25.6714 36.1667 25.115 36.1667 24.4286C36.1667 23.7422 35.6257 23.1857 34.9583 23.1857C34.291 23.1857 33.75 23.7422 33.75 24.4286C33.75 25.115 34.291 25.6714 34.9583 25.6714Z" fill="url(#paint4_linear_734_342)"/>
<defs>
<linearGradient id="paint0_linear_734_342" x1="190.157" y1="20.2148" x2="133.367" y2="32.8296" gradientUnits="userSpaceOnUse">
<stop stop-color="#FCB433"/>
<stop offset="1" stop-color="#966B1E"/>
</linearGradient>
<linearGradient id="paint1_linear_734_342" x1="190.157" y1="20.2148" x2="133.367" y2="32.8296" gradientUnits="userSpaceOnUse">
<stop stop-color="#FCB433"/>
<stop offset="1" stop-color="#966B1E"/>
</linearGradient>
<linearGradient id="paint2_linear_734_342" x1="38.4783" y1="29.2058" x2="20.7832" y2="9.65636" gradientUnits="userSpaceOnUse">
<stop stop-color="#FCB433"/>
<stop offset="1" stop-color="#966B1E"/>
</linearGradient>
<linearGradient id="paint3_linear_734_342" x1="33.8029" y1="20.1271" x2="30.2733" y2="27.2761" gradientUnits="userSpaceOnUse">
<stop stop-color="#FCB433"/>
<stop offset="1" stop-color="#966B1E"/>
</linearGradient>
<linearGradient id="paint4_linear_734_342" x1="34.4855" y1="19.2193" x2="29.0929" y2="29.811" gradientUnits="userSpaceOnUse">
<stop stop-color="#FCB433"/>
<stop offset="1" stop-color="#966B1E"/>
</linearGradient>
</defs>
</svg>
