<svg width="144" height="228" viewBox="0 0 144 228" fill="none" xmlns="http://www.w3.org/2000/svg">
<rect opacity="0.7" x="143" y="1" width="226" height="142" rx="35" transform="rotate(90 143 1)" fill="url(#paint0_linear_635_360)" fill-opacity="0.15" stroke="url(#paint1_linear_635_360)" stroke-width="2"/>
<path d="M52.6366 120.16C51.8366 120.16 51.13 119.993 50.5166 119.66C49.9033 119.313 49.4233 118.833 49.0766 118.22C48.7433 117.593 48.5766 116.873 48.5766 116.06H50.0166C50.0166 116.887 50.2566 117.56 50.7366 118.08C51.23 118.587 51.8766 118.84 52.6766 118.84H54.8966C55.6833 118.84 56.3166 118.667 56.7966 118.32C57.2766 117.96 57.5166 117.493 57.5166 116.92V115.64C57.5166 115.187 57.3366 114.8 56.9766 114.48C56.63 114.16 56.15 113.953 55.5366 113.86L51.9366 113.26C50.9233 113.087 50.1366 112.727 49.5766 112.18C49.0166 111.633 48.7366 110.947 48.7366 110.12V109.04C48.7366 108.067 49.0966 107.293 49.8166 106.72C50.55 106.133 51.5166 105.84 52.7166 105.84H54.9766C56.11 105.84 57.0233 106.187 57.7166 106.88C58.41 107.56 58.7566 108.46 58.7566 109.58H57.3166C57.3166 108.847 57.1033 108.26 56.6766 107.82C56.25 107.38 55.6833 107.16 54.9766 107.16H52.7166C51.9566 107.16 51.35 107.333 50.8966 107.68C50.4433 108.013 50.2166 108.467 50.2166 109.04V110.12C50.2166 110.587 50.3833 110.98 50.7166 111.3C51.0633 111.62 51.5366 111.833 52.1366 111.94L55.7166 112.56C56.7566 112.747 57.5633 113.107 58.1366 113.64C58.71 114.16 58.9966 114.827 58.9966 115.64V116.92C58.9966 117.893 58.6233 118.68 57.8766 119.28C57.13 119.867 56.15 120.16 54.9366 120.16H52.6366ZM64.3957 120.16C63.4224 120.16 62.6424 119.907 62.0557 119.4C61.4824 118.893 61.1957 118.213 61.1957 117.36V116.72C61.1957 115.88 61.4957 115.207 62.0957 114.7C62.6957 114.193 63.489 113.94 64.4757 113.94H65.7557C66.1957 113.94 66.649 114.007 67.1157 114.14C67.5824 114.273 67.9824 114.453 68.3157 114.68V113.02C68.3157 112.46 68.1424 112.007 67.7957 111.66C67.449 111.3 66.989 111.12 66.4157 111.12H64.8157C64.2424 111.12 63.7824 111.253 63.4357 111.52C63.089 111.787 62.9157 112.14 62.9157 112.58H61.4757C61.4757 111.767 61.7824 111.113 62.3957 110.62C63.009 110.113 63.8157 109.86 64.8157 109.86H66.4157C67.4024 109.86 68.1957 110.153 68.7957 110.74C69.409 111.313 69.7157 112.073 69.7157 113.02V120H68.3557V118.6C68.049 119.08 67.6424 119.46 67.1357 119.74C66.6424 120.02 66.129 120.16 65.5957 120.16H64.3957ZM65.6357 118.9C66.2624 118.9 66.8224 118.707 67.3157 118.32C67.809 117.933 68.1424 117.42 68.3157 116.78V116.04C68.049 115.787 67.6757 115.587 67.1957 115.44C66.729 115.28 66.249 115.2 65.7557 115.2H64.4757C63.929 115.2 63.4824 115.34 63.1357 115.62C62.8024 115.9 62.6357 116.267 62.6357 116.72V117.36C62.6357 117.827 62.7957 118.2 63.1157 118.48C63.4357 118.76 63.8624 118.9 64.3957 118.9H65.6357ZM76.0109 120C75.4509 120 75.0442 119.66 74.7909 118.98L71.3509 110.02H72.8709L75.9509 118.42H75.9709L79.0509 110.02H80.5709L76.6909 120H76.0109ZM85.4998 120.16C84.3798 120.16 83.4798 119.833 82.7998 119.18C82.1198 118.513 81.7798 117.633 81.7798 116.54V113.68C81.7798 112.533 82.1198 111.613 82.7998 110.92C83.4798 110.213 84.3798 109.86 85.4998 109.86H87.1398C88.2064 109.86 89.0664 110.2 89.7198 110.88C90.3731 111.56 90.6998 112.46 90.6998 113.58V115.34H83.2198V116.54C83.2198 117.233 83.4264 117.8 83.8398 118.24C84.2664 118.667 84.8198 118.88 85.4998 118.88H87.0198C87.6864 118.88 88.2264 118.7 88.6398 118.34C89.0531 117.967 89.2598 117.473 89.2598 116.86H90.6598C90.6598 117.847 90.3264 118.647 89.6598 119.26C88.9931 119.86 88.1131 120.16 87.0198 120.16H85.4998ZM89.2598 114.1V113.58C89.2598 112.847 89.0664 112.26 88.6798 111.82C88.2931 111.367 87.7798 111.14 87.1398 111.14H85.4998C84.8198 111.14 84.2664 111.373 83.8398 111.84C83.4264 112.307 83.2198 112.92 83.2198 113.68V114.1H89.2598Z" fill="url(#paint2_linear_635_360)"/>
<defs>
<linearGradient id="paint0_linear_635_360" x1="352.174" y1="19.4062" x2="225.502" y2="171.349" gradientUnits="userSpaceOnUse">
<stop stop-color="#FCB433"/>
<stop offset="1" stop-color="#966B1E"/>
</linearGradient>
<linearGradient id="paint1_linear_635_360" x1="352.174" y1="19.4062" x2="225.502" y2="171.349" gradientUnits="userSpaceOnUse">
<stop stop-color="#FCB433"/>
<stop offset="1" stop-color="#966B1E"/>
</linearGradient>
<linearGradient id="paint2_linear_635_360" x1="110.901" y1="103.255" x2="98.407" y2="142.467" gradientUnits="userSpaceOnUse">
<stop stop-color="#FCB433"/>
<stop offset="1" stop-color="#966B1E"/>
</linearGradient>
</defs>
</svg>
