<svg width="150" height="44" viewBox="0 0 150 44" fill="none" xmlns="http://www.w3.org/2000/svg">
<rect opacity="0.7" x="149" y="1" width="41.9816" height="148" rx="14" transform="rotate(90 149 1)" fill="url(#paint0_linear_734_343)" fill-opacity="0.15" stroke="url(#paint1_linear_734_343)" stroke-width="2"/>
<path d="M45.6928 15L52.2928 15C53.2661 15 54.0461 15.2733 54.6328 15.82C55.2195 16.3533 55.5128 17.0667 55.5128 17.96L55.5128 19.52C55.5128 20.2267 55.2861 20.8533 54.8328 21.4C54.3795 21.9333 53.7728 22.3 53.0128 22.5L53.0128 22.52C53.4128 22.72 53.7728 23.0467 54.0928 23.5C54.4128 23.9533 54.6595 24.4867 54.8328 25.1L55.9528 29L54.8328 29L53.7128 25.1C53.4995 24.3933 53.1595 23.8333 52.6928 23.42C52.2395 23.0067 51.7195 22.8 51.1328 22.8L46.7928 22.8L46.7928 29L45.6928 29L45.6928 15ZM51.7928 21.82C52.5795 21.82 53.2128 21.6133 53.6928 21.2C54.1728 20.7733 54.4128 20.2133 54.4128 19.52L54.4128 17.92C54.4128 17.3333 54.2195 16.8667 53.8328 16.52C53.4461 16.16 52.9261 15.98 52.2728 15.98L46.7928 15.98L46.7928 21.82L51.7928 21.82ZM61.5844 29.16C60.531 29.16 59.6777 28.84 59.0244 28.2C58.3844 27.56 58.0644 26.7133 58.0644 25.66L58.0644 22.56C58.0644 21.4533 58.3844 20.56 59.0244 19.88C59.6777 19.2 60.531 18.86 61.5844 18.86L63.2244 18.86C64.2377 18.86 65.051 19.1933 65.6644 19.86C66.291 20.5133 66.6044 21.3867 66.6044 22.48L66.6044 24.16L59.1444 24.16L59.1444 25.66C59.1444 26.42 59.3644 27.0333 59.8044 27.5C60.2577 27.9667 60.851 28.2 61.5844 28.2L63.1044 28.2C63.8244 28.2 64.4044 27.9933 64.8444 27.58C65.2977 27.1533 65.5244 26.6 65.5244 25.92L66.5644 25.92C66.5644 26.8933 66.2444 27.68 65.6044 28.28C64.9777 28.8667 64.1444 29.16 63.1044 29.16L61.5844 29.16ZM65.5444 23.24L65.5444 22.48C65.5444 21.68 65.331 21.04 64.9044 20.56C64.4777 20.0667 63.9177 19.82 63.2244 19.82L61.5844 19.82C60.851 19.82 60.2577 20.0733 59.8044 20.58C59.3644 21.0867 59.1444 21.7467 59.1444 22.56L59.1444 23.24L65.5444 23.24ZM69.3628 19.02L70.4028 19.02L70.4028 20.58C70.6961 20.06 71.0828 19.6467 71.5628 19.34C72.0561 19.02 72.5561 18.86 73.0628 18.86L74.5228 18.86C75.5361 18.86 76.3495 19.1933 76.9628 19.86C77.5895 20.5133 77.9028 21.38 77.9028 22.46L77.9028 25.18C77.9028 26.38 77.5895 27.3467 76.9628 28.08C76.3361 28.8 75.4961 29.16 74.4428 29.16L72.9828 29.16C72.5028 29.16 72.0295 29.02 71.5628 28.74C71.1095 28.46 70.7361 28.0867 70.4428 27.62L70.4428 32.98L69.3628 32.98L69.3628 19.02ZM74.4228 28.2C75.1561 28.2 75.7428 27.9267 76.1828 27.38C76.6228 26.82 76.8428 26.0867 76.8428 25.18L76.8428 22.46C76.8428 21.6733 76.6295 21.04 76.2028 20.56C75.7761 20.0667 75.2095 19.82 74.5028 19.82L73.0628 19.82C72.4761 19.82 71.9361 20.06 71.4428 20.54C70.9628 21.0067 70.6295 21.5733 70.4428 22.24L70.4428 25.68C70.5628 26.3467 70.8628 26.9333 71.3428 27.44C71.8228 27.9467 72.3828 28.2 73.0228 28.2L74.4228 28.2ZM83.9486 29.16C82.8819 29.16 82.0219 28.8267 81.3686 28.16C80.7152 27.48 80.3886 26.5933 80.3886 25.5L80.3886 22.52C80.3886 21.4267 80.7152 20.5467 81.3686 19.88C82.0352 19.2 82.9086 18.86 83.9886 18.86L85.5686 18.86C86.6486 18.86 87.5152 19.2 88.1686 19.88C88.8352 20.5467 89.1686 21.4267 89.1686 22.52L89.1686 25.5C89.1686 26.5933 88.8352 27.48 88.1686 28.16C87.5019 28.8267 86.6219 29.16 85.5286 29.16L83.9486 29.16ZM85.5286 28.2C86.3019 28.2 86.9219 27.9533 87.3886 27.46C87.8686 26.9667 88.1086 26.3133 88.1086 25.5L88.1086 22.52C88.1086 21.7067 87.8752 21.0533 87.4086 20.56C86.9419 20.0667 86.3286 19.82 85.5686 19.82L83.9886 19.82C83.2286 19.82 82.6152 20.0667 82.1486 20.56C81.6952 21.0533 81.4686 21.7067 81.4686 22.52L81.4686 25.5C81.4686 26.3133 81.6952 26.9667 82.1486 27.46C82.6019 27.9533 83.2019 28.2 83.9486 28.2L85.5286 28.2ZM92.0581 19.02L93.0981 19.02L93.0981 20.64C93.3914 20.1333 93.8114 19.7333 94.3581 19.44C94.9048 19.1333 95.4914 18.98 96.1181 18.98L96.8581 18.98L96.8581 19.94L96.0981 19.94C95.2314 19.94 94.5181 20.22 93.9581 20.78C93.4114 21.34 93.1381 22.0667 93.1381 22.96L93.1381 29L92.0581 29L92.0581 19.02ZM102.811 29C101.798 29 101.071 28.7867 100.631 28.36C100.191 27.92 99.9712 27.2 99.9712 26.2L99.9712 19.98L98.2112 19.98L98.2112 19.02L99.9712 19.02L99.9712 16L101.031 16L101.031 19.02L103.631 19.02L103.631 19.98L101.031 19.98L101.031 26.2C101.031 26.8533 101.165 27.3267 101.431 27.62C101.698 27.9 102.145 28.04 102.771 28.04L103.631 28.04L103.631 29L102.811 29Z" fill="#FCB433"/>
<defs>
<linearGradient id="paint0_linear_734_343" x1="190.157" y1="20.2148" x2="133.367" y2="32.8296" gradientUnits="userSpaceOnUse">
<stop stop-color="#FCB433"/>
<stop offset="1" stop-color="#966B1E"/>
</linearGradient>
<linearGradient id="paint1_linear_734_343" x1="190.157" y1="20.2148" x2="133.367" y2="32.8296" gradientUnits="userSpaceOnUse">
<stop stop-color="#FCB433"/>
<stop offset="1" stop-color="#966B1E"/>
</linearGradient>
</defs>
</svg>
