<svg width="95" height="94" viewBox="0 0 95 94" fill="none" xmlns="http://www.w3.org/2000/svg">
<path d="M93.9908 49.1661C92.3202 47.1193 87.9789 44.3305 77.1875 47M93.999 47.7216C93.9997 47.4823 94 47.2418 94 47C94 27.6116 91.87 16.2814 85.2152 9.69665C81.8988 6.41512 77.3787 4.23426 71.2093 2.87759C65.0291 1.51855 57.2565 1 47.5 1C37.7435 1 29.9709 1.51855 23.7907 2.87759C17.6213 4.23426 13.1012 6.41512 9.78476 9.69665C3.13 16.2814 1 27.6116 1 47C1 58.8377 1.78966 67.7011 3.94842 74.3194C4.06707 74.1751 4.19451 74.0223 4.33055 73.8619C5.31287 72.703 6.74773 71.1386 8.56306 69.5107C12.1779 66.2691 17.3819 62.7033 23.5873 61.68C29.8026 60.655 33.973 62.2103 37.7248 63.6952C37.8249 63.7348 37.9247 63.7743 38.0241 63.8137C41.627 65.2418 44.7841 66.4931 49.285 65.6024C51.53 65.1581 53.3526 64.0472 55.0925 62.5006C56.4883 61.26 57.7846 59.7849 59.2003 58.174C59.5772 57.7451 59.9625 57.3067 60.3604 56.8605C64.1143 52.6508 68.7347 48.0608 76.9474 46.0293C85.0113 44.0345 89.7545 44.979 92.5274 46.6304C93.1075 46.9759 93.5933 47.3479 93.999 47.7216ZM4.78954 76.4743C4.77667 76.4911 4.76415 76.5075 4.75196 76.5235C7.35491 82.9288 11.5472 86.9793 18.1481 89.4783C25.0034 92.0735 34.4714 93 47.5 93C66.4123 93 77.7509 91.0374 84.5062 84.9717C91.2077 78.9542 93.6602 68.6482 93.9662 51.0635C93.9561 51.0356 93.9435 51.0027 93.9282 50.9652C93.8642 50.8083 93.7533 50.5723 93.5743 50.2922C93.2186 49.7353 92.5887 48.9948 91.504 48.3488C89.3445 47.0627 85.1971 46.0488 77.4276 47.9707C69.807 49.8558 65.5211 54.0783 61.8531 58.1916C61.4816 58.6082 61.1138 59.027 60.7475 59.444C59.3209 61.068 57.9185 62.6646 56.4212 63.9955C54.512 65.6924 52.3763 67.0294 49.6733 67.5643C44.5876 68.5707 40.9447 67.1248 37.3777 65.7091C37.248 65.6576 37.1184 65.6061 36.9888 65.5548C33.3187 64.1022 29.5724 62.72 23.9127 63.6533C18.2431 64.5883 13.3809 67.8767 9.8983 70.9997C8.1649 72.5541 6.79323 74.0496 5.8562 75.1551C5.38807 75.7073 5.02949 76.161 4.78954 76.4743Z" stroke="url(#paint0_linear_633_247)" stroke-width="2" stroke-linecap="round" stroke-linejoin="round"/>
<path d="M35.6247 20.5834C27.4224 20.5834 20.7913 27.1598 20.7913 35.25C20.7913 43.3402 27.4225 49.9167 35.6247 49.9167C43.8269 49.9167 50.458 43.3402 50.458 35.25C50.458 27.1598 43.8269 20.5834 35.6247 20.5834Z" stroke="url(#paint1_linear_633_247)" stroke-width="2"/>
<defs>
<linearGradient id="paint0_linear_633_247" x1="86.7391" y1="81.332" x2="5.58948" y2="19.201" gradientUnits="userSpaceOnUse">
<stop stop-color="#FCB433"/>
<stop offset="1" stop-color="#966B1E"/>
</linearGradient>
<linearGradient id="paint1_linear_633_247" x1="47.1904" y1="22.308" x2="26.8152" y2="49.4895" gradientUnits="userSpaceOnUse">
<stop stop-color="#FCB433"/>
<stop offset="1" stop-color="#966B1E"/>
</linearGradient>
</defs>
</svg>
