<svg width="60" height="14" viewBox="0 0 60 14" fill="none" xmlns="http://www.w3.org/2000/svg">
<path opacity="0.4" d="M0.224758 0.399999H1.21476L5.84076 9.04L10.3408 0.399999H11.3128V13H10.3408V2.254L6.32676 9.922C6.24276 10.078 6.16476 10.186 6.09276 10.246C6.03276 10.306 5.96076 10.336 5.87676 10.336H5.57076L1.19676 2.254V13H0.224758V0.399999ZM16.8043 13.144C15.9643 13.144 15.2923 12.928 14.7883 12.496C14.2843 12.052 14.0323 11.464 14.0323 10.732V10.048C14.0323 9.316 14.2903 8.734 14.8063 8.302C15.3223 7.87 16.0063 7.654 16.8583 7.654H18.0283C18.4363 7.654 18.8563 7.72 19.2883 7.852C19.7323 7.984 20.1103 8.164 20.4223 8.392V6.646C20.4223 6.082 20.2483 5.62 19.9003 5.26C19.5523 4.9 19.1023 4.72 18.5503 4.72H17.1463C16.5823 4.72 16.1263 4.852 15.7783 5.116C15.4303 5.38 15.2563 5.734 15.2563 6.178H14.2843C14.2843 5.482 14.5483 4.924 15.0763 4.504C15.6043 4.084 16.2943 3.874 17.1463 3.874H18.5503C19.4023 3.874 20.0803 4.126 20.5843 4.63C21.1003 5.134 21.3583 5.806 21.3583 6.646V13H20.4403V11.596C20.1283 12.076 19.7443 12.454 19.2883 12.73C18.8323 13.006 18.3703 13.144 17.9023 13.144H16.8043ZM17.9203 12.28C18.4243 12.28 18.9043 12.1 19.3603 11.74C19.8283 11.38 20.1823 10.906 20.4223 10.318V9.346C20.1583 9.094 19.8043 8.89 19.3603 8.734C18.9283 8.578 18.4843 8.5 18.0283 8.5H16.8583C16.2943 8.5 15.8443 8.644 15.5083 8.932C15.1723 9.208 15.0043 9.58 15.0043 10.048V10.732C15.0043 11.2 15.1663 11.578 15.4903 11.866C15.8143 12.142 16.2523 12.28 16.8043 12.28H17.9203ZM24.1996 4.018H25.1356V5.548C25.4356 5.032 25.8136 4.624 26.2696 4.324C26.7376 4.024 27.2116 3.874 27.6916 3.874H28.8976C29.6776 3.874 30.3076 4.15 30.7876 4.702C31.2796 5.242 31.5256 5.962 31.5256 6.862V13H30.5716V6.844C30.5716 6.22 30.4156 5.716 30.1036 5.332C29.7916 4.936 29.3836 4.738 28.8796 4.738H27.7096C27.1696 4.738 26.6596 4.96 26.1796 5.404C25.6996 5.848 25.3636 6.424 25.1716 7.132V13H24.1996V4.018ZM35.1874 2.488C34.9474 2.488 34.7494 2.416 34.5934 2.272C34.4494 2.128 34.3774 1.936 34.3774 1.696C34.3774 1.456 34.4494 1.264 34.5934 1.12C34.7494 0.963999 34.9474 0.885999 35.1874 0.885999C35.4274 0.885999 35.6194 0.963999 35.7634 1.12C35.9074 1.264 35.9794 1.456 35.9794 1.696C35.9794 1.924 35.9074 2.116 35.7634 2.272C35.6194 2.416 35.4274 2.488 35.1874 2.488ZM34.7014 4.018H35.6554V13H34.7014V4.018ZM42.3501 13C41.4381 13 40.7841 12.808 40.3881 12.424C39.9921 12.028 39.7941 11.38 39.7941 10.48V4.882H38.2101V4.018H39.7941V1.3H40.7481V4.018H43.0881V4.882H40.7481V10.48C40.7481 11.068 40.8681 11.494 41.1081 11.758C41.3481 12.01 41.7501 12.136 42.3141 12.136H43.0881V13H42.3501ZM48.2429 13.144C47.2829 13.144 46.5089 12.844 45.9209 12.244C45.3329 11.632 45.0389 10.834 45.0389 9.85V7.168C45.0389 6.184 45.3329 5.392 45.9209 4.792C46.5209 4.18 47.3069 3.874 48.2789 3.874H49.7009C50.6729 3.874 51.4529 4.18 52.0409 4.792C52.6409 5.392 52.9409 6.184 52.9409 7.168V9.85C52.9409 10.834 52.6409 11.632 52.0409 12.244C51.4409 12.844 50.6489 13.144 49.6649 13.144H48.2429ZM49.6649 12.28C50.3609 12.28 50.9189 12.058 51.3389 11.614C51.7709 11.17 51.9869 10.582 51.9869 9.85V7.168C51.9869 6.436 51.7769 5.848 51.3569 5.404C50.9369 4.96 50.3849 4.738 49.7009 4.738H48.2789C47.5949 4.738 47.0429 4.96 46.6229 5.404C46.2149 5.848 46.0109 6.436 46.0109 7.168V9.85C46.0109 10.582 46.2149 11.17 46.6229 11.614C47.0309 12.058 47.5709 12.28 48.2429 12.28H49.6649ZM55.5414 4.018H56.4774V5.476C56.7414 5.02 57.1194 4.66 57.6114 4.396C58.1034 4.12 58.6314 3.982 59.1954 3.982H59.8614V4.846H59.1774C58.3974 4.846 57.7554 5.098 57.2514 5.602C56.7594 6.106 56.5134 6.76 56.5134 7.564V13H55.5414V4.018Z" fill="url(#paint0_linear_622_221)"/>
<defs>
<linearGradient id="paint0_linear_622_221" x1="1.29452" y1="-1.12329" x2="7.05505" y2="24.5429" gradientUnits="userSpaceOnUse">
<stop stop-color="#727272"/>
<stop offset="1" stop-color="white"/>
</linearGradient>
</defs>
</svg>
