<svg width="44" height="78" viewBox="0 0 44 78" fill="none" xmlns="http://www.w3.org/2000/svg">
<path d="M0.199998 73.5834L0.199998 65.1594C0.199998 63.8634 0.567998 62.8234 1.304 62.0394C2.024 61.2394 2.976 60.8394 4.16 60.8394L5.888 60.8394C6.72 60.8394 7.456 61.1034 8.096 61.6314C8.736 62.1434 9.2 62.8474 9.488 63.7434L9.512 63.7434C10.072 62.7994 11.096 62.0954 12.584 61.6314L17 60.3114L17 62.6634L12.68 63.9594C11.928 64.1834 11.336 64.5434 10.904 65.0394C10.472 65.5194 10.256 66.0714 10.256 66.6954L10.256 71.3034L17 71.3034L17 73.5834L0.199998 73.5834ZM8.24 65.7834C8.24 64.9834 8.024 64.3434 7.592 63.8634C7.16 63.3674 6.592 63.1194 5.888 63.1194L4.136 63.1194C3.56 63.1194 3.096 63.3114 2.744 63.6954C2.392 64.0794 2.216 64.5834 2.216 65.2074L2.216 71.3034L8.24 71.3034L8.24 65.7834ZM17.192 53.6591C17.192 55.0671 16.792 56.2031 15.992 57.0671C15.176 57.9151 14.112 58.3391 12.8 58.3391L9.488 58.3391C8.08 58.3391 6.952 57.9151 6.104 57.0671C5.256 56.2031 4.832 55.0671 4.832 53.6591L4.832 51.6911C4.832 50.3311 5.248 49.2351 6.08 48.4031C6.912 47.5711 8.016 47.1551 9.392 47.1551L11.648 47.1551L11.648 56.1071L12.8 56.1071C13.536 56.1071 14.128 55.8831 14.576 55.4351C15.024 54.9871 15.248 54.3951 15.248 53.6591L15.248 51.8111C15.248 51.0911 15.064 50.5071 14.696 50.0591C14.312 49.6111 13.808 49.3871 13.184 49.3871L13.184 47.2031C14.384 47.2031 15.352 47.6271 16.088 48.4751C16.824 49.3231 17.192 50.4431 17.192 51.8351L17.192 53.6591ZM9.872 49.3871L9.392 49.3871C8.592 49.3871 7.952 49.6031 7.472 50.0351C6.992 50.4511 6.752 51.0031 6.752 51.6911L6.752 53.6591C6.752 54.3951 7.008 54.9871 7.52 55.4351C8.016 55.8831 8.68 56.1071 9.512 56.1071L9.872 56.1071L9.872 49.3871ZM3.44 42.6539C3.44 43.1179 3.304 43.4939 3.032 43.7819C2.744 44.0699 2.376 44.2139 1.928 44.2139C1.48 44.2139 1.12 44.0699 0.847997 43.7819C0.559997 43.4939 0.415997 43.1179 0.415997 42.6539C0.415997 42.1899 0.559997 41.8219 0.847997 41.5499C1.12 41.2619 1.48 41.1179 1.928 41.1179C2.376 41.1179 2.744 41.2619 3.032 41.5499C3.304 41.8219 3.44 42.1899 3.44 42.6539ZM19.832 46.9499L19.832 45.8939C19.832 45.1419 19.616 44.6059 19.184 44.2859C18.768 43.9499 18.088 43.7819 17.144 43.7819L5.024 43.7819L5.024 41.5499L17.024 41.5499C18.688 41.5499 19.896 41.8939 20.648 42.5819C21.4 43.2539 21.776 44.3579 21.776 45.8939L21.776 46.9499L19.832 46.9499ZM17.192 33.5497C17.192 34.9577 16.792 36.0937 15.992 36.9577C15.176 37.8057 14.112 38.2297 12.8 38.2297L9.488 38.2297C8.08 38.2297 6.952 37.8057 6.104 36.9577C5.256 36.0937 4.832 34.9577 4.832 33.5497L4.832 31.5817C4.832 30.2217 5.248 29.1257 6.08 28.2937C6.912 27.4617 8.016 27.0457 9.392 27.0457L11.648 27.0457L11.648 35.9977L12.8 35.9977C13.536 35.9977 14.128 35.7737 14.576 35.3257C15.024 34.8777 15.248 34.2857 15.248 33.5497L15.248 31.7017C15.248 30.9817 15.064 30.3977 14.696 29.9497C14.312 29.5017 13.808 29.2777 13.184 29.2777L13.184 27.0937C14.384 27.0937 15.352 27.5177 16.088 28.3657C16.824 29.2137 17.192 30.3337 17.192 31.7257L17.192 33.5497ZM9.872 29.2777L9.392 29.2777C8.592 29.2777 7.952 29.4937 7.472 29.9257C6.992 30.3417 6.752 30.8937 6.752 31.5817L6.752 33.5497C6.752 34.2857 7.008 34.8777 7.52 35.3257C8.016 35.7737 8.68 35.9977 9.512 35.9977L9.872 35.9977L9.872 29.2777ZM17.192 20.1686C17.192 21.5446 16.784 22.6566 15.968 23.5046C15.136 24.3526 14.048 24.7766 12.704 24.7766L9.488 24.7766C8.08 24.7766 6.952 24.3606 6.104 23.5286C5.256 22.6806 4.832 21.5686 4.832 20.1926L4.832 18.2486C4.832 16.9366 5.2 15.8806 5.936 15.0806C6.672 14.2806 7.648 13.8806 8.864 13.8806L8.864 16.0886C8.24 16.0886 7.744 16.2886 7.376 16.6886C6.992 17.0726 6.8 17.5926 6.8 18.2486L6.8 20.1686C6.8 20.8726 7.056 21.4486 7.568 21.8966C8.064 22.3286 8.728 22.5446 9.56 22.5446L12.632 22.5446C13.416 22.5446 14.048 22.3206 14.528 21.8726C14.992 21.4246 15.224 20.8486 15.224 20.1446L15.224 18.2246C15.224 17.5526 14.992 17.0166 14.528 16.6166C14.048 16.2006 13.416 15.9926 12.632 15.9926L12.632 13.7846C13.992 13.7846 15.096 14.1926 15.944 15.0086C16.776 15.8246 17.192 16.8966 17.192 18.2246L17.192 20.1686ZM17 6.46362C17 7.77562 16.712 8.72762 16.136 9.31962C15.56 9.89562 14.632 10.1836 13.352 10.1836L6.968 10.1836L6.968 12.2956L5.024 12.2956L5.024 10.1596L1.4 10.1596L1.4 7.95162L5.024 7.95162L5.024 4.83162L6.968 4.83162L6.968 7.95162L13.304 7.95162C13.928 7.95162 14.376 7.83162 14.648 7.59162C14.92 7.33562 15.056 6.92762 15.056 6.36762L15.056 4.83162L17 4.83162L17 6.46362ZM22.2 77.6324L22.2 75.3524L39 75.3524L39 77.6324L22.2 77.6324ZM26.832 58.3437C26.832 57.2397 27.192 56.3597 27.912 55.7037C28.616 55.0477 29.584 54.7197 30.816 54.7197L39 54.7197L39 56.9517L30.792 56.9517C30.184 56.9517 29.704 57.0957 29.352 57.3837C28.984 57.6717 28.8 58.0477 28.8 58.5117L28.8 59.7597C28.8 60.3677 29.016 60.8797 29.448 61.2957C29.864 61.6957 30.44 61.9517 31.176 62.0637L39 62.0637L39 64.3197L30.888 64.3197C30.232 64.3197 29.72 64.4557 29.352 64.7277C28.984 64.9837 28.8 65.3357 28.8 65.7837L28.8 67.0077C28.8 67.6157 29.064 68.1437 29.592 68.5917C30.104 69.0397 30.784 69.3197 31.632 69.4317L39 69.4317L39 71.6637L27.024 71.6637L27.024 69.5277L28.632 69.5277C28.072 69.2077 27.632 68.8157 27.312 68.3517C26.992 67.8717 26.832 67.3837 26.832 66.8877L26.832 65.4957C26.832 64.8557 26.992 64.3037 27.312 63.8397C27.632 63.3597 28.088 62.9837 28.68 62.7117C28.072 62.3597 27.616 61.9277 27.312 61.4157C26.992 60.9037 26.832 60.3517 26.832 59.7597L26.832 58.3437ZM39.192 47.9315C39.192 49.1315 38.888 50.0915 38.28 50.8115C37.656 51.5315 36.832 51.8915 35.808 51.8915L35.016 51.8915C34.008 51.8915 33.2 51.5155 32.592 50.7635C31.968 50.0115 31.656 49.0275 31.656 47.8115L31.656 46.2995C31.656 45.8195 31.728 45.3075 31.872 44.7635C32.016 44.2195 32.216 43.7555 32.472 43.3715L30.72 43.3715C30.128 43.3715 29.656 43.5555 29.304 43.9235C28.936 44.2915 28.752 44.7715 28.752 45.3635L28.752 47.3315C28.752 47.9395 28.896 48.4275 29.184 48.7955C29.472 49.1635 29.848 49.3475 30.312 49.3475L30.312 51.5555C29.272 51.5555 28.432 51.1715 27.792 50.4035C27.152 49.6195 26.832 48.5955 26.832 47.3315L26.832 45.3635C26.832 44.0995 27.192 43.0835 27.912 42.3155C28.616 41.5475 29.552 41.1635 30.72 41.1635L39 41.1635L39 43.2515L37.392 43.2515C37.936 43.6195 38.376 44.0995 38.712 44.6915C39.032 45.2835 39.192 45.8835 39.192 46.4915L39.192 47.9315ZM37.344 46.3715C37.344 45.6675 37.144 45.0435 36.744 44.4995C36.328 43.9555 35.776 43.5795 35.088 43.3715L34.368 43.3715C34.096 43.6755 33.88 44.0915 33.72 44.6195C33.56 45.1475 33.48 45.6915 33.48 46.2515L33.48 47.7875C33.48 48.3475 33.624 48.8035 33.912 49.1555C34.2 49.5075 34.584 49.6835 35.064 49.6835L35.784 49.6835C36.264 49.6835 36.648 49.5155 36.936 49.1795C37.208 48.8275 37.344 48.3635 37.344 47.7875L37.344 46.3715ZM43.872 33.7852C43.872 34.9212 43.56 35.8652 42.936 36.6172C42.312 37.3532 41.496 37.7612 40.488 37.8412L40.488 35.6092C40.92 35.5612 41.272 35.3692 41.544 35.0332C41.816 34.6972 41.952 34.2812 41.952 33.7852L41.952 31.7452C41.952 31.0252 41.696 30.4652 41.184 30.0652C40.688 29.6492 40 29.4412 39.12 29.4412L37.512 29.4412C37.944 29.7932 38.296 30.2332 38.568 30.7612C38.84 31.2892 38.976 31.7932 38.976 32.2732L38.976 34.0012C38.976 34.8652 38.784 35.6332 38.4 36.3052C38.016 36.9772 37.472 37.4972 36.768 37.8652C36.064 38.2332 35.256 38.4172 34.344 38.4172L31.656 38.4172C30.712 38.4172 29.872 38.2252 29.136 37.8412C28.4 37.4412 27.832 36.8892 27.432 36.1852C27.032 35.4812 26.832 34.6732 26.832 33.7612L26.832 32.1772C26.832 31.6652 26.976 31.1372 27.264 30.5932C27.536 30.0492 27.888 29.6252 28.32 29.3212L27.024 29.3212L27.024 27.2092L39.12 27.2092C40.592 27.2092 41.752 27.6172 42.6 28.4332C43.448 29.2332 43.872 30.3372 43.872 31.7452L43.872 33.7852ZM37.032 32.2012C37.032 31.4652 36.736 30.8412 36.144 30.3292C35.552 29.8012 34.792 29.5052 33.864 29.4412L31.344 29.4412C30.592 29.5052 29.984 29.7772 29.52 30.2572C29.04 30.7372 28.8 31.3132 28.8 31.9852L28.8 33.6412C28.8 34.3932 29.072 35.0092 29.616 35.4892C30.144 35.9532 30.848 36.1852 31.728 36.1852L34.272 36.1852C35.088 36.1852 35.752 35.9692 36.264 35.5372C36.776 35.1052 37.032 34.5612 37.032 33.9052L37.032 32.2012ZM39.192 19.6512C39.192 21.0592 38.792 22.1952 37.992 23.0592C37.176 23.9072 36.112 24.3312 34.8 24.3312L31.488 24.3312C30.08 24.3312 28.952 23.9072 28.104 23.0592C27.256 22.1952 26.832 21.0592 26.832 19.6512L26.832 17.6832C26.832 16.3232 27.248 15.2272 28.08 14.3952C28.912 13.5632 30.016 13.1472 31.392 13.1472L33.648 13.1472L33.648 22.0992L34.8 22.0992C35.536 22.0992 36.128 21.8752 36.576 21.4272C37.024 20.9792 37.248 20.3872 37.248 19.6512L37.248 17.8032C37.248 17.0832 37.064 16.4992 36.696 16.0512C36.312 15.6032 35.808 15.3792 35.184 15.3792L35.184 13.1952C36.384 13.1952 37.352 13.6192 38.088 14.4672C38.824 15.3152 39.192 16.4352 39.192 17.8272L39.192 19.6512ZM31.872 15.3792L31.392 15.3792C30.592 15.3792 29.952 15.5952 29.472 16.0272C28.992 16.4432 28.752 16.9952 28.752 17.6832L28.752 19.6512C28.752 20.3872 29.008 20.9792 29.52 21.4272C30.016 21.8752 30.68 22.0992 31.512 22.0992L31.872 22.0992L31.872 15.3792ZM39.192 6.70212C39.192 7.99812 38.84 9.03812 38.136 9.82212C37.416 10.6061 36.472 10.9981 35.304 10.9981L35.304 8.81412C35.896 8.81412 36.376 8.62212 36.744 8.23812C37.112 7.85412 37.296 7.34212 37.296 6.70212L37.296 4.59012C37.296 3.98212 37.184 3.49412 36.96 3.12612C36.72 2.75812 36.408 2.57412 36.024 2.57412L35.328 2.57412C35.072 2.57412 34.848 2.68612 34.656 2.91012C34.448 3.11812 34.312 3.39012 34.248 3.72612L33.528 7.87812C33.368 8.75812 33.04 9.46212 32.544 9.99012C32.032 10.5181 31.44 10.7821 30.768 10.7821L29.976 10.7821C29.032 10.7821 28.272 10.4061 27.696 9.65412C27.12 8.90212 26.832 7.89412 26.832 6.63012L26.832 4.61412C26.832 3.41412 27.16 2.45412 27.816 1.73412C28.472 0.998123 29.344 0.630123 30.432 0.630123L30.432 2.81412C29.92 2.83012 29.512 3.00612 29.208 3.34212C28.888 3.66212 28.728 4.08612 28.728 4.61412L28.728 6.60612C28.728 7.19812 28.848 7.67012 29.088 8.02212C29.328 8.35812 29.648 8.52612 30.048 8.52612L30.648 8.52612C30.904 8.52612 31.128 8.41412 31.32 8.19012C31.512 7.96612 31.648 7.67812 31.728 7.32612L32.472 3.12612C32.616 2.29412 32.936 1.62212 33.432 1.11012C33.928 0.582123 34.504 0.318123 35.16 0.318123L36.096 0.318123C37.024 0.318123 37.776 0.710123 38.352 1.49412C38.912 2.27812 39.192 3.31012 39.192 4.59012L39.192 6.70212Z" fill="url(#paint0_linear_633_275)"/>
<defs>
<linearGradient id="paint0_linear_633_275" x1="91" y1="-6" x2="53.4715" y2="-20.8991" gradientUnits="userSpaceOnUse">
<stop stop-color="#101010" stop-opacity="0.2"/>
<stop offset="1" stop-color="white" stop-opacity="0.7"/>
</linearGradient>
</defs>
</svg>
