<svg width="58" height="17" viewBox="0 0 58 17" fill="none" xmlns="http://www.w3.org/2000/svg">
<path opacity="0.4" d="M4.41855 13.144C3.35055 13.144 2.49855 12.826 1.86255 12.19C1.23855 11.554 0.926547 10.69 0.926547 9.598H1.89855C1.89855 10.414 2.12655 11.062 2.58255 11.542C3.03855 12.01 3.65655 12.244 4.43655 12.244H6.45255C7.20855 12.244 7.81455 12.07 8.27055 11.722C8.73855 11.374 8.97255 10.918 8.97255 10.354V9.13C8.97255 8.674 8.80455 8.284 8.46855 7.96C8.13255 7.636 7.66455 7.426 7.06455 7.33L3.84255 6.79C2.97855 6.646 2.30055 6.334 1.80855 5.854C1.32855 5.374 1.08855 4.774 1.08855 4.054V3.01C1.08855 2.182 1.40055 1.516 2.02455 1.012C2.64855 0.508 3.47055 0.256 4.49055 0.256H6.52455C7.49655 0.256 8.27655 0.55 8.86455 1.138C9.46455 1.726 9.76455 2.5 9.76455 3.46H8.79255C8.79255 2.764 8.58255 2.206 8.16255 1.786C7.75455 1.354 7.20855 1.138 6.52455 1.138H4.49055C3.75855 1.138 3.17055 1.312 2.72655 1.66C2.29455 1.996 2.07855 2.446 2.07855 3.01V4.054C2.07855 4.534 2.24055 4.936 2.56455 5.26C2.88855 5.584 3.34455 5.794 3.93255 5.89L7.13655 6.448C8.02455 6.604 8.71455 6.916 9.20655 7.384C9.71055 7.852 9.96255 8.434 9.96255 9.13V10.354C9.96255 11.194 9.64455 11.872 9.00855 12.388C8.37255 12.892 7.52655 13.144 6.47055 13.144H4.41855ZM15.2567 13.144C14.3087 13.144 13.5407 12.856 12.9527 12.28C12.3767 11.704 12.0887 10.942 12.0887 9.994V7.204C12.0887 6.208 12.3767 5.404 12.9527 4.792C13.5407 4.18 14.3087 3.874 15.2567 3.874H16.7327C17.6447 3.874 18.3767 4.174 18.9287 4.774C19.4927 5.362 19.7747 6.148 19.7747 7.132V8.644H13.0607V9.994C13.0607 10.678 13.2587 11.23 13.6547 11.65C14.0627 12.07 14.5967 12.28 15.2567 12.28H16.6247C17.2727 12.28 17.7947 12.094 18.1907 11.722C18.5987 11.338 18.8027 10.84 18.8027 10.228H19.7387C19.7387 11.104 19.4507 11.812 18.8747 12.352C18.3107 12.88 17.5607 13.144 16.6247 13.144H15.2567ZM18.8207 7.816V7.132C18.8207 6.412 18.6287 5.836 18.2447 5.404C17.8607 4.96 17.3567 4.738 16.7327 4.738H15.2567C14.5967 4.738 14.0627 4.966 13.6547 5.422C13.2587 5.878 13.0607 6.472 13.0607 7.204V7.816H18.8207ZM25.5718 13C24.6598 13 24.0058 12.808 23.6098 12.424C23.2138 12.028 23.0158 11.38 23.0158 10.48V4.882H21.4318V4.018H23.0158V1.3H23.9698V4.018H26.3098V4.882H23.9698V10.48C23.9698 11.068 24.0898 11.494 24.3298 11.758C24.5698 12.01 24.9718 12.136 25.5358 12.136H26.3098V13H25.5718ZM32.3218 13C31.4098 13 30.7558 12.808 30.3598 12.424C29.9638 12.028 29.7658 11.38 29.7658 10.48V4.882H28.1818V4.018H29.7658V1.3H30.7198V4.018H33.0598V4.882H30.7198V10.48C30.7198 11.068 30.8398 11.494 31.0798 11.758C31.3198 12.01 31.7218 12.136 32.2858 12.136H33.0598V13H32.3218ZM36.4618 2.488C36.2218 2.488 36.0238 2.416 35.8678 2.272C35.7238 2.128 35.6518 1.936 35.6518 1.696C35.6518 1.456 35.7238 1.264 35.8678 1.12C36.0238 0.963999 36.2218 0.885999 36.4618 0.885999C36.7018 0.885999 36.8938 0.963999 37.0378 1.12C37.1818 1.264 37.2538 1.456 37.2538 1.696C37.2538 1.924 37.1818 2.116 37.0378 2.272C36.8938 2.416 36.7018 2.488 36.4618 2.488ZM35.9758 4.018H36.9298V13H35.9758V4.018ZM40.2045 4.018H41.1405V5.548C41.4405 5.032 41.8185 4.624 42.2745 4.324C42.7425 4.024 43.2165 3.874 43.6965 3.874H44.9025C45.6825 3.874 46.3125 4.15 46.7925 4.702C47.2845 5.242 47.5305 5.962 47.5305 6.862V13H46.5765V6.844C46.5765 6.22 46.4205 5.716 46.1085 5.332C45.7965 4.936 45.3885 4.738 44.8845 4.738H43.7145C43.1745 4.738 42.6645 4.96 42.1845 5.404C41.7045 5.848 41.3685 6.424 41.1765 7.132V13H40.2045V4.018ZM53.1363 16.654C52.3923 16.654 51.7803 16.456 51.3003 16.06C50.8203 15.676 50.5503 15.166 50.4903 14.53H51.4623C51.5103 14.914 51.6843 15.22 51.9843 15.448C52.2963 15.688 52.6803 15.808 53.1363 15.808H54.6303C55.3023 15.808 55.8243 15.586 56.1963 15.142C56.5683 14.71 56.7543 14.104 56.7543 13.324V11.56C56.4663 11.992 56.1003 12.34 55.6563 12.604C55.2243 12.868 54.7863 13 54.3423 13H53.0103C52.1223 13 51.4023 12.694 50.8503 12.082C50.2983 11.47 50.0223 10.66 50.0223 9.652V7.33C50.0223 6.298 50.3103 5.464 50.8863 4.828C51.4743 4.192 52.2483 3.874 53.2083 3.874H54.5403C54.9723 3.874 55.3923 3.994 55.8003 4.234C56.2203 4.462 56.5443 4.768 56.7723 5.152V4.018H57.7083V13.324C57.7083 14.368 57.4383 15.184 56.8983 15.772C56.3583 16.36 55.6023 16.654 54.6303 16.654H53.1363ZM54.3243 12.136C54.9243 12.136 55.4463 11.902 55.8903 11.434C56.3463 10.954 56.6343 10.396 56.7543 9.76V6.772C56.6463 6.172 56.3823 5.686 55.9623 5.314C55.5543 4.93 55.0803 4.738 54.5403 4.738H53.2263C52.5543 4.738 52.0143 4.978 51.6063 5.458C51.1983 5.938 50.9943 6.562 50.9943 7.33V9.652C50.9943 10.384 51.1803 10.984 51.5522 11.452C51.9363 11.908 52.4283 12.136 53.0283 12.136H54.3243Z" fill="white"/>
</svg>
