<svg width="20" height="13" viewBox="0 0 20 13" fill="none" xmlns="http://www.w3.org/2000/svg">
<path d="M4.032 1.824H0.48V0.799999H8.768V1.824H5.216V12H4.032V1.824ZM11.2626 12.128C10.3666 12.128 9.64663 11.8507 9.10263 11.296C8.55863 10.7413 8.28663 10.0107 8.28663 9.104V6.912C8.28663 6.00533 8.55863 5.27467 9.10263 4.72C9.65729 4.16533 10.388 3.888 11.2946 3.888H12.6066C13.5133 3.888 14.2386 4.16533 14.7826 4.72C15.3373 5.27467 15.6146 6.00533 15.6146 6.912V9.104C15.6146 10.0107 15.3373 10.7413 14.7826 11.296C14.228 11.8507 13.492 12.128 12.5746 12.128H11.2626ZM12.5746 11.104C13.1506 11.104 13.6093 10.9227 13.9506 10.56C14.292 10.1867 14.4626 9.70133 14.4626 9.104V6.912C14.4626 6.31467 14.292 5.83467 13.9506 5.472C13.6093 5.09867 13.1613 4.912 12.6066 4.912H11.2946C10.74 4.912 10.292 5.09867 9.95063 5.472C9.60929 5.83467 9.43863 6.31467 9.43863 6.912V9.104C9.43863 9.712 9.60396 10.1973 9.93463 10.56C10.2653 10.9227 10.708 11.104 11.2626 11.104H12.5746ZM18.2756 6.128C18.0196 6.128 17.8116 6.048 17.6516 5.888C17.4916 5.728 17.4116 5.52 17.4116 5.264C17.4116 5.008 17.4916 4.8 17.6516 4.64C17.8116 4.48 18.0196 4.4 18.2756 4.4C18.5316 4.4 18.7396 4.48 18.8996 4.64C19.0596 4.8 19.1396 5.008 19.1396 5.264C19.1396 5.52 19.0596 5.728 18.8996 5.888C18.7396 6.048 18.5316 6.128 18.2756 6.128ZM18.2756 11.6C18.0196 11.6 17.8116 11.52 17.6516 11.36C17.4916 11.2 17.4116 10.992 17.4116 10.736C17.4116 10.48 17.4916 10.272 17.6516 10.112C17.8116 9.952 18.0196 9.872 18.2756 9.872C18.5316 9.872 18.7396 9.952 18.8996 10.112C19.0596 10.272 19.1396 10.48 19.1396 10.736C19.1396 10.992 19.0596 11.2 18.8996 11.36C18.7396 11.52 18.5316 11.6 18.2756 11.6Z" fill="url(#paint0_linear_634_295)"/>
<defs>
<linearGradient id="paint0_linear_634_295" x1="15.5137" y1="-1.12329" x2="18.3274" y2="25.5389" gradientUnits="userSpaceOnUse">
<stop stop-color="#727272"/>
<stop offset="1" stop-color="white"/>
</linearGradient>
</defs>
</svg>
