<svg width="49" height="48" viewBox="0 0 49 48" fill="none" xmlns="http://www.w3.org/2000/svg">
<path opacity="0.4" fill-rule="evenodd" clip-rule="evenodd" d="M25.3428 40.5686C25.3429 40.5686 25.3429 40.5686 25.343 40.5686C44.533 40.4473 48.686 36.7097 48.686 20.2858C48.686 3.58045 44.3894 0 24.343 0C4.29654 0 0 3.58045 0 20.2858C0 36.7097 4.15293 40.4472 23.3428 40.5686C23.3428 40.5696 23.3428 40.5706 23.3428 40.5716V45.6574H16.2285C15.6762 45.6574 15.2285 46.1051 15.2285 46.6574C15.2285 47.2097 15.6762 47.6574 16.2285 47.6574H24.3428H32.4571C33.0094 47.6574 33.4571 47.2097 33.4571 46.6574C33.4571 46.1051 33.0094 45.6574 32.4571 45.6574H25.3428V40.5716C25.3428 40.5706 25.3428 40.5696 25.3428 40.5686ZM2 20.2858C2 28.6633 3.1339 32.823 5.93444 35.1568C7.36422 36.3483 9.41155 37.2225 12.4465 37.7846C15.4866 38.3476 19.3688 38.5716 24.343 38.5716C29.3172 38.5716 33.1994 38.3476 36.2395 37.7846C39.2744 37.2225 41.3218 36.3483 42.7515 35.1568C45.5521 32.823 46.686 28.6633 46.686 20.2858C46.686 11.9084 45.5521 7.74862 42.7515 5.41484C41.3218 4.22336 39.2744 3.34911 36.2395 2.78703C33.1994 2.224 29.3172 2 24.343 2C19.3688 2 15.4866 2.224 12.4465 2.78703C9.41155 3.34911 7.36422 4.22336 5.93444 5.41484C3.1339 7.74862 2 11.9084 2 20.2858Z" fill="url(#paint0_linear_622_218)"/>
<defs>
<linearGradient id="paint0_linear_622_218" x1="37.0085" y1="65.093" x2="42.1732" y2="29.939" gradientUnits="userSpaceOnUse">
<stop stop-color="#101010" stop-opacity="0.2"/>
<stop offset="1" stop-color="white" stop-opacity="0.7"/>
</linearGradient>
</defs>
</svg>
