<svg width="29" height="29" viewBox="0 0 29 29" fill="none" xmlns="http://www.w3.org/2000/svg">
<g opacity="0.4">
<path d="M1 14.5C1 17.4624 1.16004 19.7746 1.56264 21.5862C1.96272 23.3864 2.58892 24.6303 3.47933 25.5207C4.36973 26.4111 5.61361 27.0373 7.41382 27.4374C9.22538 27.84 11.5376 28 14.5 28C17.4624 28 19.7746 27.84 21.5862 27.4374C23.3864 27.0373 24.6303 26.4111 25.5207 25.5207C26.4111 24.6303 27.0373 23.3864 27.4374 21.5862C27.84 19.7746 28 17.4624 28 14.5C28 11.5376 27.84 9.22538 27.4374 7.41382C27.0373 5.61361 26.4111 4.36973 25.5207 3.47933C24.6303 2.58892 23.3864 1.96272 21.5862 1.56264C19.7746 1.16004 17.4624 1 14.5 1C11.5376 1 9.22538 1.16004 7.41382 1.56264C5.61361 1.96272 4.36973 2.58892 3.47933 3.47933C2.58892 4.36973 1.96272 5.61361 1.56264 7.41382C1.16004 9.22538 1 11.5376 1 14.5Z" stroke="url(#paint0_linear_611_2325)" stroke-width="2" stroke-linecap="round" stroke-linejoin="round"/>
<path fill-rule="evenodd" clip-rule="evenodd" d="M15.5003 9.66667C15.5003 9.11439 15.0526 8.66667 14.5003 8.66667C13.948 8.66667 13.5003 9.11439 13.5003 9.66667V16.9167C13.5003 17.469 13.948 17.9167 14.5003 17.9167C15.0526 17.9167 15.5003 17.469 15.5003 16.9167V9.66667ZM14.5003 19.3333C13.833 19.3333 13.292 19.8743 13.292 20.5417C13.292 21.209 13.833 21.75 14.5003 21.75C15.1677 21.75 15.7087 21.209 15.7087 20.5417C15.7087 19.8743 15.1677 19.3333 14.5003 19.3333Z" fill="url(#paint1_linear_611_2325)"/>
</g>
<defs>
<linearGradient id="paint0_linear_611_2325" x1="2.97945" y1="27.411" x2="27.411" y2="2.88014" gradientUnits="userSpaceOnUse">
<stop stop-color="#727272"/>
<stop offset="1" stop-color="white"/>
</linearGradient>
<linearGradient id="paint1_linear_611_2325" x1="13.5403" y1="9.38357" x2="17.4928" y2="10.1166" gradientUnits="userSpaceOnUse">
<stop stop-color="#727272"/>
<stop offset="1" stop-color="white"/>
</linearGradient>
</defs>
</svg>
