<svg width="112" height="156" viewBox="0 0 112 156" fill="none" xmlns="http://www.w3.org/2000/svg">
<rect opacity="0.7" x="111" y="1" width="154" height="110" rx="37" transform="rotate(90 111 1)" fill="url(#paint0_linear_811_504)" fill-opacity="0.2" stroke="url(#paint1_linear_811_504)" stroke-width="2"/>
<path d="M25.0154 70.4211L32.2354 70.4211C33.3821 70.4211 34.3087 70.7344 35.0154 71.361C35.7221 71.9877 36.0754 72.8144 36.0754 73.8411L36.0754 75.2611C36.0754 75.9544 35.8621 76.5677 35.4354 77.1011C35.0221 77.6211 34.4421 78.0077 33.6954 78.2611L33.6954 78.3011C34.1221 78.5544 34.4621 78.8811 34.7154 79.2811C34.9821 79.6677 35.2087 80.1744 35.3954 80.8011L36.5154 84.4211L34.0954 84.4211L33.0154 80.9611C32.8421 80.3611 32.5754 79.9011 32.2154 79.5811C31.8554 79.2611 31.4354 79.1011 30.9554 79.1011L27.3554 79.1011L27.3554 84.4211L25.0154 84.4211L25.0154 70.4211ZM31.7154 77.0811C32.3287 77.0811 32.8154 76.9144 33.1754 76.5811C33.5487 76.2477 33.7354 75.8144 33.7354 75.2811L33.7354 73.9011C33.7354 73.4744 33.5954 73.1277 33.3154 72.8611C33.0354 72.5944 32.6621 72.4611 32.1954 72.4611L27.3554 72.4611L27.3554 77.0811L31.7154 77.0811ZM42.0143 84.5811C41.201 84.5811 40.481 84.4277 39.8543 84.1211C39.241 83.8144 38.761 83.3811 38.4143 82.8211C38.081 82.2611 37.9143 81.6144 37.9143 80.8811L37.9143 78.2011C37.9143 77.4277 38.081 76.7477 38.4143 76.1611C38.761 75.5611 39.241 75.1011 39.8543 74.7811C40.481 74.4477 41.201 74.2811 42.0143 74.2811L43.6143 74.2811C44.8276 74.2811 45.801 74.6344 46.5343 75.3411C47.2676 76.0477 47.6343 76.9877 47.6343 78.1611L47.6343 80.1611L40.2143 80.1611L40.2143 80.8811C40.2143 81.4144 40.3743 81.8411 40.6943 82.1611C41.0276 82.4811 41.4676 82.6411 42.0143 82.6411L43.5543 82.6411C44.0876 82.6411 44.5143 82.5144 44.8343 82.2611C45.1676 81.9944 45.3343 81.6477 45.3343 81.2211L47.5943 81.2211C47.5943 82.2344 47.221 83.0477 46.4743 83.6611C45.7276 84.2744 44.7476 84.5811 43.5343 84.5811L42.0143 84.5811ZM45.3743 78.4411L45.3743 78.1611C45.3743 77.5744 45.2143 77.1011 44.8943 76.7411C44.5743 76.3811 44.1543 76.2011 43.6343 76.2011L42.0143 76.2011C41.4676 76.2011 41.021 76.3944 40.6743 76.7811C40.341 77.1544 40.1743 77.6477 40.1743 78.2611L40.1743 78.4411L45.3743 78.4411ZM51.401 73.3211C50.9477 73.3211 50.581 73.1877 50.301 72.9211C50.0344 72.6411 49.901 72.2877 49.901 71.8611C49.901 71.4344 50.0344 71.0877 50.301 70.8211C50.581 70.5411 50.9477 70.4011 51.401 70.4011C51.8544 70.4011 52.221 70.5411 52.501 70.8211C52.781 71.0877 52.921 71.4344 52.921 71.8611C52.921 72.2877 52.781 72.6411 52.501 72.9211C52.221 73.1877 51.8544 73.3211 51.401 73.3211ZM47.621 86.4211L48.681 86.4211C49.2277 86.4211 49.6277 86.2544 49.881 85.9211C50.1344 85.6011 50.261 85.0744 50.261 84.3411L50.261 74.4411L52.561 74.4411L52.561 84.2411C52.561 85.6811 52.2477 86.7344 51.621 87.4011C51.0077 88.0677 50.0277 88.4011 48.681 88.4011L47.621 88.4011L47.621 86.4211ZM59.1823 84.5811C58.3689 84.5811 57.6489 84.4277 57.0223 84.1211C56.4089 83.8144 55.9289 83.3811 55.5823 82.8211C55.2489 82.2611 55.0823 81.6144 55.0823 80.8811L55.0823 78.2011C55.0823 77.4277 55.2489 76.7477 55.5823 76.1611C55.9289 75.5611 56.4089 75.1011 57.0223 74.7811C57.6489 74.4477 58.3689 74.2811 59.1823 74.2811L60.7823 74.2811C61.9956 74.2811 62.9689 74.6344 63.7023 75.3411C64.4356 76.0477 64.8023 76.9877 64.8023 78.1611L64.8023 80.1611L57.3823 80.1611L57.3823 80.8811C57.3823 81.4144 57.5423 81.8411 57.8623 82.1611C58.1956 82.4811 58.6356 82.6411 59.1823 82.6411L60.7223 82.6411C61.2556 82.6411 61.6823 82.5144 62.0023 82.2611C62.3356 81.9944 62.5023 81.6477 62.5023 81.2211L64.7623 81.2211C64.7623 82.2344 64.3889 83.0477 63.6423 83.6611C62.8956 84.2744 61.9156 84.5811 60.7023 84.5811L59.1823 84.5811ZM62.5423 78.4411L62.5423 78.1611C62.5423 77.5744 62.3823 77.1011 62.0623 76.7411C61.7423 76.3811 61.3223 76.2011 60.8023 76.2011L59.1823 76.2011C58.6356 76.2011 58.1889 76.3944 57.8423 76.7811C57.5089 77.1544 57.3423 77.6477 57.3423 78.2611L57.3423 78.4411L62.5423 78.4411ZM70.529 84.5811C69.3023 84.5811 68.3157 84.2277 67.569 83.5211C66.8357 82.8144 66.469 81.8811 66.469 80.7211L66.469 78.2011C66.469 77.4277 66.6357 76.7477 66.969 76.1611C67.3023 75.5611 67.7757 75.1011 68.389 74.7811C69.0023 74.4477 69.709 74.2811 70.509 74.2811L72.109 74.2811C73.2557 74.2811 74.1757 74.6144 74.869 75.2811C75.5757 75.9344 75.929 76.8011 75.929 77.8811L73.669 77.8811C73.669 77.4011 73.5223 77.0144 73.229 76.7211C72.949 76.4144 72.5757 76.2611 72.109 76.2611L70.529 76.2611C70.009 76.2611 69.5823 76.4544 69.249 76.8411C68.929 77.2277 68.769 77.7277 68.769 78.3411L68.769 80.5811C68.769 81.1811 68.929 81.6677 69.249 82.0411C69.5823 82.4144 70.0157 82.6011 70.549 82.6011L72.129 82.6011C72.6223 82.6011 73.0157 82.4211 73.309 82.0611C73.6157 81.7011 73.769 81.2344 73.769 80.6611L76.029 80.6611C76.029 81.8344 75.669 82.7811 74.949 83.5011C74.2423 84.2211 73.3023 84.5811 72.129 84.5811L70.529 84.5811ZM82.046 84.4211C80.9127 84.4211 80.086 84.1677 79.566 83.6611C79.046 83.1544 78.786 82.3544 78.786 81.2611L78.786 76.4211L77.026 76.4211L77.026 74.4411L78.846 74.4411L78.846 71.4211L81.086 71.4211L81.086 74.4411L83.686 74.4411L83.686 76.4211L81.086 76.4211L81.086 81.1811C81.086 81.6211 81.1727 81.9411 81.346 82.1411C81.5194 82.3411 81.7927 82.4411 82.166 82.4411L83.686 82.4411L83.686 84.4211L82.046 84.4211Z" fill="#FF453A"/>
<defs>
<linearGradient id="paint0_linear_811_504" x1="128.027" y1="6.13698" x2="217.315" y2="131.007" gradientUnits="userSpaceOnUse">
<stop stop-color="#650404"/>
<stop offset="1" stop-color="#DD0000"/>
</linearGradient>
<linearGradient id="paint1_linear_811_504" x1="128.027" y1="6.13698" x2="217.315" y2="131.007" gradientUnits="userSpaceOnUse">
<stop stop-color="#650404"/>
<stop offset="1" stop-color="#DD0000"/>
</linearGradient>
</defs>
</svg>
