<svg width="440" height="135" viewBox="0 0 440 135" fill="none" xmlns="http://www.w3.org/2000/svg">
<rect width="440" height="135" fill="#1E1E1E"/>
<path d="M-667 -2406C-667 -2407.1 -666.105 -2408 -665 -2408H4920C4921.1 -2408 4922 -2407.1 4922 -2406V4024C4922 4025.1 4921.1 4026 4920 4026H-665C-666.104 4026 -667 4025.1 -667 4024V-2406Z" fill="#444444"/>
<path d="M-665 -2407H4920V-2409H-665V-2407ZM4921 -2406V4024H4923V-2406H4921ZM4920 4025H-665V4027H4920V4025ZM-666 4024V-2406H-668V4024H-666ZM-665 4025C-665.552 4025 -666 4024.55 -666 4024H-668C-668 4025.66 -666.657 4027 -665 4027V4025ZM4921 4024C4921 4024.55 4920.55 4025 4920 4025V4027C4921.66 4027 4923 4025.66 4923 4024H4921ZM4920 -2407C4920.55 -2407 4921 -2406.55 4921 -2406H4923C4923 -2407.66 4921.66 -2409 4920 -2409V-2407ZM-665 -2409C-666.657 -2409 -668 -2407.66 -668 -2406H-666C-666 -2406.55 -665.552 -2407 -665 -2407V-2409Z" fill="white" fill-opacity="0.1"/>
<rect opacity="0.7" x="439" y="1" width="133" height="438" rx="44" transform="rotate(90 439 1)" stroke="url(#paint0_linear_196_32)" stroke-width="2"/>
<defs>
<linearGradient id="paint0_linear_196_32" x1="453.87" y1="24.1096" x2="662.466" y2="88.3707" gradientUnits="userSpaceOnUse">
<stop stop-color="#727272"/>
<stop offset="1" stop-color="white"/>
</linearGradient>
</defs>
</svg>
