<svg width="37" height="16" viewBox="0 0 37 16" fill="none" xmlns="http://www.w3.org/2000/svg">
<path d="M0.888 4.6H5.076C5.74 4.6 6.272 4.788 6.672 5.164C7.08 5.532 7.284 6.024 7.284 6.64V7.84C7.284 8.488 7.068 9.012 6.636 9.412C6.212 9.804 5.648 10 4.944 10H2.028V13H0.888V4.6ZM4.92 8.992C5.288 8.992 5.584 8.884 5.808 8.668C6.032 8.444 6.144 8.152 6.144 7.792V6.652C6.144 6.34 6.044 6.088 5.844 5.896C5.644 5.704 5.38 5.608 5.052 5.608H2.028V8.992H4.92ZM10.4634 13.096C9.75944 13.096 9.19144 12.884 8.75944 12.46C8.33544 12.036 8.12344 11.48 8.12344 10.792V9.232C8.12344 8.536 8.33944 7.976 8.77144 7.552C9.20344 7.128 9.77544 6.916 10.4874 6.916H11.4954C12.2074 6.916 12.7794 7.128 13.2114 7.552C13.6434 7.976 13.8594 8.536 13.8594 9.232V10.792C13.8594 11.48 13.6394 12.036 13.1994 12.46C12.7674 12.884 12.1954 13.096 11.4834 13.096H10.4634ZM11.4714 12.112C11.8554 12.112 12.1634 11.988 12.3954 11.74C12.6274 11.492 12.7434 11.16 12.7434 10.744V9.268C12.7434 8.852 12.6274 8.52 12.3954 8.272C12.1714 8.024 11.8714 7.9 11.4954 7.9H10.4874C10.1114 7.9 9.80744 8.024 9.57544 8.272C9.35144 8.52 9.23944 8.852 9.23944 9.268V10.744C9.23944 11.16 9.35144 11.492 9.57544 11.74C9.79944 11.988 10.0994 12.112 10.4754 12.112H11.4714ZM22.7923 7.012L21.5323 12.22C21.4683 12.492 21.3683 12.692 21.2323 12.82C21.0963 12.94 20.9203 13 20.7043 13H20.1883L18.7363 8.716L17.2483 13H16.7323C16.5163 13 16.3403 12.94 16.2043 12.82C16.0683 12.692 15.9683 12.492 15.9043 12.22L14.6323 7.012H15.8083L16.7923 11.62L18.3163 7.168H18.7363C18.8803 7.168 18.9963 7.204 19.0843 7.276C19.1723 7.34 19.2403 7.444 19.2883 7.588L20.6323 11.632L21.6163 7.012H22.7923ZM25.9088 13.096C25.2048 13.096 24.6368 12.896 24.2048 12.496C23.7808 12.088 23.5688 11.556 23.5688 10.9V9.244C23.5688 8.54 23.7808 7.976 24.2048 7.552C24.6368 7.128 25.2048 6.916 25.9088 6.916H26.8928C27.5728 6.916 28.1208 7.124 28.5368 7.54C28.9528 7.956 29.1608 8.508 29.1608 9.196V10.324H24.6848V10.9C24.6848 11.268 24.7968 11.564 25.0208 11.788C25.2448 12.012 25.5408 12.124 25.9088 12.124H26.8328C27.1928 12.124 27.4848 12.032 27.7088 11.848C27.9328 11.656 28.0448 11.404 28.0448 11.092H29.1367C29.1367 11.692 28.9248 12.176 28.5008 12.544C28.0768 12.912 27.5168 13.096 26.8208 13.096H25.9088ZM28.0448 9.436V9.196C28.0448 8.796 27.9368 8.476 27.7208 8.236C27.5128 7.996 27.2368 7.876 26.8928 7.876H25.9088C25.5408 7.876 25.2448 8.004 25.0208 8.26C24.7968 8.508 24.6848 8.84 24.6848 9.256V9.436H28.0448ZM30.5353 7.012H31.6033V7.888C31.7633 7.624 31.9953 7.408 32.2993 7.24C32.6113 7.072 32.9353 6.988 33.2713 6.988H33.8953V7.984H33.2713C32.7833 7.984 32.3913 8.136 32.0953 8.44C31.7993 8.736 31.6513 9.128 31.6513 9.616V13H30.5353V7.012Z" fill="url(#paint0_linear_811_224)"/>
<defs>
<linearGradient id="paint0_linear_811_224" x1="33.7826" y1="2.15625" x2="21.4623" y2="23.7401" gradientUnits="userSpaceOnUse">
<stop stop-color="#FCB433"/>
<stop offset="1" stop-color="#966B1E"/>
</linearGradient>
</defs>
</svg>
