<svg width="104" height="103" viewBox="0 0 104 103" fill="none" xmlns="http://www.w3.org/2000/svg">
<path d="M1 51.5C1 72.7415 3.32545 85.1973 10.6324 92.4438C14.2746 96.0559 19.2343 98.4516 25.9896 99.9405C32.7557 101.432 41.2609 102 51.9292 102C62.5975 102 71.1026 101.432 77.8688 99.9405C84.6241 98.4516 89.5837 96.0559 93.226 92.4438C100.533 85.1973 102.858 72.7415 102.858 51.5C102.858 30.2585 100.533 17.8027 93.226 10.5562C89.5837 6.94406 84.6241 4.54839 77.8688 3.05949C71.1026 1.56819 62.5975 1 51.9292 1C41.2609 1 32.7557 1.56819 25.9896 3.05949C19.2343 4.54839 14.2746 6.94406 10.6324 10.5562C3.32545 17.8027 1 30.2585 1 51.5Z" fill="url(#paint0_linear_733_255)" fill-opacity="0.1" stroke="url(#paint1_linear_733_255)" stroke-width="2" stroke-linecap="round" stroke-linejoin="round"/>
<path d="M34.2099 59.2183C33.4099 59.2183 32.7032 59.0517 32.0899 58.7183C31.4766 58.3717 30.9966 57.8917 30.6499 57.2783C30.3166 56.6517 30.1499 55.9317 30.1499 55.1183H31.5899C31.5899 55.945 31.8299 56.6183 32.3099 57.1383C32.8032 57.645 33.4499 57.8983 34.2499 57.8983H36.4699C37.2566 57.8983 37.8899 57.725 38.3699 57.3783C38.8499 57.0183 39.0899 56.5517 39.0899 55.9783V54.6983C39.0899 54.245 38.9099 53.8583 38.5499 53.5383C38.2032 53.2183 37.7232 53.0117 37.1099 52.9183L33.5099 52.3183C32.4966 52.145 31.7099 51.785 31.1499 51.2383C30.5899 50.6917 30.3099 50.005 30.3099 49.1783V48.0983C30.3099 47.125 30.6699 46.3517 31.3899 45.7783C32.1232 45.1917 33.0899 44.8983 34.2899 44.8983H36.5499C37.6832 44.8983 38.5966 45.245 39.2899 45.9383C39.9832 46.6183 40.3299 47.5183 40.3299 48.6383H38.8899C38.8899 47.905 38.6766 47.3183 38.2499 46.8783C37.8232 46.4383 37.2566 46.2183 36.5499 46.2183H34.2899C33.5299 46.2183 32.9232 46.3917 32.4699 46.7383C32.0166 47.0717 31.7899 47.525 31.7899 48.0983V49.1783C31.7899 49.645 31.9566 50.0383 32.2899 50.3583C32.6366 50.6783 33.1099 50.8917 33.7099 50.9983L37.2899 51.6183C38.3299 51.805 39.1366 52.165 39.7099 52.6983C40.2832 53.2183 40.5699 53.885 40.5699 54.6983V55.9783C40.5699 56.9517 40.1966 57.7383 39.4499 58.3383C38.7032 58.925 37.7232 59.2183 36.5099 59.2183H34.2099ZM47.0089 59.0583C45.9556 59.0583 45.1956 58.8317 44.7289 58.3783C44.2756 57.925 44.0489 57.1783 44.0489 56.1383V50.3583H42.2889V49.0783H44.0489V46.0583H45.4889V49.0783H48.0889V50.3583H45.4889V56.1383C45.4889 56.725 45.6023 57.145 45.8289 57.3983C46.0689 57.6517 46.4623 57.7783 47.0089 57.7783H48.0889V59.0583H47.0089ZM53.3713 59.2183C52.398 59.2183 51.618 58.965 51.0313 58.4583C50.458 57.9517 50.1713 57.2717 50.1713 56.4183V55.7783C50.1713 54.9383 50.4713 54.265 51.0713 53.7583C51.6713 53.2517 52.4646 52.9983 53.4513 52.9983H54.7313C55.1713 52.9983 55.6246 53.065 56.0913 53.1983C56.558 53.3317 56.958 53.5117 57.2913 53.7383V52.0783C57.2913 51.5183 57.118 51.065 56.7713 50.7183C56.4246 50.3583 55.9646 50.1783 55.3913 50.1783H53.7913C53.218 50.1783 52.758 50.3117 52.4113 50.5783C52.0646 50.845 51.8913 51.1983 51.8913 51.6383H50.4513C50.4513 50.825 50.758 50.1717 51.3713 49.6783C51.9846 49.1717 52.7913 48.9183 53.7913 48.9183H55.3913C56.378 48.9183 57.1713 49.2117 57.7713 49.7983C58.3846 50.3717 58.6913 51.1317 58.6913 52.0783V59.0583H57.3313V57.6583C57.0246 58.1383 56.618 58.5183 56.1113 58.7983C55.618 59.0783 55.1046 59.2183 54.5713 59.2183H53.3713ZM54.6113 57.9583C55.238 57.9583 55.798 57.765 56.2913 57.3783C56.7846 56.9917 57.118 56.4783 57.2913 55.8383V55.0983C57.0246 54.845 56.6513 54.645 56.1713 54.4983C55.7046 54.3383 55.2246 54.2583 54.7313 54.2583H53.4513C52.9046 54.2583 52.458 54.3983 52.1113 54.6783C51.778 54.9583 51.6113 55.325 51.6113 55.7783V56.4183C51.6113 56.885 51.7713 57.2583 52.0913 57.5383C52.4113 57.8183 52.838 57.9583 53.3713 57.9583H54.6113ZM61.6046 49.0783H63.0046V50.6183C63.2712 50.1517 63.6712 49.7717 64.2046 49.4783C64.7512 49.185 65.3179 49.0383 65.9046 49.0383H66.7846V50.3383H65.9046C65.0512 50.3383 64.3579 50.6117 63.8246 51.1583C63.3046 51.6917 63.0446 52.405 63.0446 53.2983V59.0583H61.6046V49.0783ZM72.6339 59.0583C71.5806 59.0583 70.8206 58.8317 70.3539 58.3783C69.9006 57.925 69.6739 57.1783 69.6739 56.1383V50.3583H67.9139V49.0783H69.6739V46.0583H71.1139V49.0783H73.7139V50.3583H71.1139V56.1383C71.1139 56.725 71.2273 57.145 71.4539 57.3983C71.6939 57.6517 72.0873 57.7783 72.6339 57.7783H73.7139V59.0583H72.6339Z" fill="url(#paint2_linear_733_255)"/>
<defs>
<linearGradient id="paint0_linear_733_255" x1="51.9292" y1="103" x2="51.9292" y2="0" gradientUnits="userSpaceOnUse">
<stop stop-color="#FCB433"/>
<stop offset="1" stop-color="#966B1E"/>
</linearGradient>
<linearGradient id="paint1_linear_733_255" x1="94.8272" y1="89.1192" x2="5.96104" y2="21.2353" gradientUnits="userSpaceOnUse">
<stop stop-color="#FCB433"/>
<stop offset="1" stop-color="#966B1E"/>
</linearGradient>
<linearGradient id="paint2_linear_733_255" x1="82.7743" y1="44.4875" x2="73.4493" y2="73.7544" gradientUnits="userSpaceOnUse">
<stop stop-color="#FCB433"/>
<stop offset="1" stop-color="#966B1E"/>
</linearGradient>
</defs>
</svg>
