<svg width="84" height="16" viewBox="0 0 84 16" fill="none" xmlns="http://www.w3.org/2000/svg">
<path d="M10.5308 13.096C9.9868 13.096 9.5068 12.98 9.0908 12.748C8.6828 12.508 8.3668 12.172 8.1428 11.74C7.9188 11.308 7.8068 10.812 7.8068 10.252V4.6H8.9468V10.252C8.9468 10.796 9.0908 11.236 9.3788 11.572C9.6748 11.908 10.0588 12.076 10.5308 12.076H11.8148C12.2868 12.076 12.6668 11.908 12.9548 11.572C13.2508 11.236 13.3988 10.796 13.3988 10.252V4.6H14.5388V10.252C14.5388 10.812 14.4268 11.308 14.2028 11.74C13.9788 12.172 13.6588 12.508 13.2428 12.748C12.8348 12.98 12.3588 13.096 11.8148 13.096H10.5308ZM18.0689 13.096C17.4209 13.096 16.9009 12.92 16.5089 12.568C16.1169 12.208 15.9209 11.736 15.9209 11.152H17.0129C17.0129 11.448 17.1089 11.688 17.3009 11.872C17.4929 12.056 17.7489 12.148 18.0689 12.148H19.1249C19.4289 12.148 19.6729 12.092 19.8569 11.98C20.0409 11.86 20.1329 11.704 20.1329 11.512V11.164C20.1329 11.036 20.0769 10.924 19.9649 10.828C19.8609 10.724 19.7249 10.656 19.5569 10.624L17.4809 10.264C17.0409 10.184 16.6889 10.02 16.4249 9.772C16.1609 9.516 16.0289 9.22 16.0289 8.884V8.488C16.0289 8.016 16.2169 7.636 16.5929 7.348C16.9689 7.06 17.4729 6.916 18.1049 6.916H19.1129C19.7129 6.916 20.1929 7.08 20.5529 7.408C20.9209 7.736 21.1049 8.172 21.1049 8.716H20.0129C20.0049 8.46 19.9169 8.256 19.7489 8.104C19.5889 7.944 19.3769 7.864 19.1129 7.864H18.1169C17.8209 7.864 17.5849 7.924 17.4089 8.044C17.2409 8.164 17.1569 8.324 17.1569 8.524V8.824C17.1569 8.952 17.2129 9.064 17.3249 9.16C17.4369 9.256 17.5809 9.324 17.7569 9.364L19.8569 9.736C20.2729 9.808 20.6089 9.968 20.8649 10.216C21.1289 10.464 21.2609 10.752 21.2609 11.08V11.548C21.2609 12.012 21.0649 12.388 20.6729 12.676C20.2809 12.956 19.7649 13.096 19.1249 13.096H18.0689ZM24.6841 13.096C23.9801 13.096 23.4121 12.896 22.9801 12.496C22.5561 12.088 22.3441 11.556 22.3441 10.9V9.244C22.3441 8.54 22.5561 7.976 22.9801 7.552C23.4121 7.128 23.9801 6.916 24.6841 6.916H25.6681C26.3481 6.916 26.8961 7.124 27.3121 7.54C27.7281 7.956 27.9361 8.508 27.9361 9.196V10.324H23.4601V10.9C23.4601 11.268 23.5721 11.564 23.7961 11.788C24.0201 12.012 24.3161 12.124 24.6841 12.124H25.6081C25.9681 12.124 26.2601 12.032 26.4841 11.848C26.7081 11.656 26.8201 11.404 26.8201 11.092H27.9121C27.9121 11.692 27.7001 12.176 27.2761 12.544C26.8521 12.912 26.2921 13.096 25.5961 13.096H24.6841ZM26.8201 9.436V9.196C26.8201 8.796 26.7121 8.476 26.4961 8.236C26.2881 7.996 26.0121 7.876 25.6681 7.876H24.6841C24.3161 7.876 24.0201 8.004 23.7961 8.26C23.5721 8.508 23.4601 8.84 23.4601 9.256V9.436H26.8201ZM29.3107 7.012H30.3787V7.888C30.5387 7.624 30.7707 7.408 31.0747 7.24C31.3867 7.072 31.7107 6.988 32.0467 6.988H32.6707V7.984H32.0467C31.5587 7.984 31.1667 8.136 30.8707 8.44C30.5747 8.736 30.4267 9.128 30.4267 9.616V13H29.3107V7.012ZM37.4205 8.728C37.1965 8.728 37.0125 8.656 36.8685 8.512C36.7325 8.368 36.6645 8.184 36.6645 7.96C36.6645 7.736 36.7325 7.556 36.8685 7.42C37.0125 7.276 37.1965 7.204 37.4205 7.204C37.6445 7.204 37.8285 7.276 37.9725 7.42C38.1165 7.556 38.1885 7.736 38.1885 7.96C38.1885 8.184 38.1165 8.368 37.9725 8.512C37.8365 8.656 37.6525 8.728 37.4205 8.728ZM37.4205 12.772C37.1965 12.772 37.0125 12.7 36.8685 12.556C36.7325 12.412 36.6645 12.228 36.6645 12.004C36.6645 11.78 36.7325 11.6 36.8685 11.464C37.0125 11.32 37.1965 11.248 37.4205 11.248C37.6445 11.248 37.8285 11.32 37.9725 11.464C38.1165 11.6 38.1885 11.78 38.1885 12.004C38.1885 12.228 38.1165 12.412 37.9725 12.556C37.8365 12.7 37.6525 12.772 37.4205 12.772ZM47.7059 10.792H44.2019L43.3859 13H42.1979L45.4499 4.6H45.9659C46.3099 4.6 46.5539 4.788 46.6979 5.164L49.7099 13H48.5339L47.7059 10.792ZM44.5379 9.832H47.3699L45.9659 6.04H45.9539L44.5379 9.832ZM52.5128 13.096C51.8568 13.096 51.3248 12.884 50.9168 12.46C50.5168 12.036 50.3168 11.476 50.3168 10.78V9.364C50.3168 8.884 50.4128 8.46 50.6048 8.092C50.7968 7.716 51.0648 7.428 51.4088 7.228C51.7608 7.02 52.1648 6.916 52.6208 6.916H53.4368C53.6928 6.916 53.9448 6.976 54.1928 7.096C54.4408 7.216 54.6408 7.376 54.7928 7.576V4.6H55.9208V13H54.8528V12.148C54.6768 12.428 54.4448 12.656 54.1568 12.832C53.8688 13.008 53.5808 13.096 53.2928 13.096H52.5128ZM53.3408 12.112C53.7168 12.112 54.0448 11.96 54.3248 11.656C54.6048 11.344 54.7608 10.976 54.7928 10.552V9.196C54.7368 8.804 54.5888 8.492 54.3488 8.26C54.1168 8.02 53.8368 7.9 53.5088 7.9H52.7048C52.3288 7.9 52.0208 8.04 51.7808 8.32C51.5488 8.592 51.4328 8.956 51.4328 9.412V10.744C51.4328 11.152 51.5408 11.484 51.7568 11.74C51.9808 11.988 52.2608 12.112 52.5968 12.112H53.3408ZM64.2598 6.916C64.8118 6.916 65.2518 7.096 65.5798 7.456C65.9078 7.808 66.0718 8.292 66.0718 8.908V13H64.9558V8.896C64.9558 8.592 64.8838 8.352 64.7398 8.176C64.5958 7.992 64.4078 7.9 64.1758 7.9H63.5518C63.2478 7.9 62.9918 8.008 62.7838 8.224C62.5838 8.432 62.4558 8.72 62.3998 9.088V13H61.2718V8.944C61.2718 8.616 61.2038 8.36 61.0678 8.176C60.9398 7.992 60.7638 7.9 60.5398 7.9H59.9278C59.6238 7.9 59.3598 8.032 59.1358 8.296C58.9118 8.552 58.7718 8.892 58.7158 9.316V13H57.5998V7.012H58.6678V7.816C58.8278 7.536 59.0238 7.316 59.2558 7.156C59.4958 6.996 59.7398 6.916 59.9878 6.916H60.6838C61.0038 6.916 61.2798 6.996 61.5118 7.156C61.7518 7.316 61.9398 7.544 62.0758 7.84C62.2518 7.536 62.4678 7.308 62.7238 7.156C62.9798 6.996 63.2558 6.916 63.5518 6.916H64.2598ZM68.4579 6.22C68.2259 6.22 68.0379 6.152 67.8939 6.016C67.7499 5.872 67.6779 5.688 67.6779 5.464C67.6779 5.24 67.7499 5.06 67.8939 4.924C68.0379 4.78 68.2259 4.708 68.4579 4.708C68.6899 4.708 68.8739 4.78 69.0099 4.924C69.1539 5.06 69.2259 5.24 69.2259 5.464C69.2259 5.688 69.1539 5.872 69.0099 6.016C68.8739 6.152 68.6899 6.22 68.4579 6.22ZM67.8939 7.012H69.0099V13H67.8939V7.012ZM70.9005 7.012H71.9685V7.84C72.1445 7.568 72.3765 7.348 72.6645 7.18C72.9605 7.004 73.2525 6.916 73.5405 6.916H74.3325C74.9085 6.916 75.3725 7.108 75.7245 7.492C76.0845 7.876 76.2645 8.38 76.2645 9.004V13H75.1485V9.004C75.1485 8.676 75.0645 8.412 74.8965 8.212C74.7285 8.004 74.5085 7.9 74.2365 7.9H73.4925C73.1485 7.9 72.8365 8.032 72.5565 8.296C72.2765 8.56 72.0965 8.904 72.0165 9.328V13H70.9005V7.012Z" fill="url(#paint0_linear_701_255)"/>
<defs>
<linearGradient id="paint0_linear_701_255" x1="8.63014" y1="0.876712" x2="13.5668" y2="26.8993" gradientUnits="userSpaceOnUse">
<stop stop-color="#727272"/>
<stop offset="1" stop-color="white"/>
</linearGradient>
</defs>
</svg>
