<svg width="112" height="156" viewBox="0 0 112 156" fill="none" xmlns="http://www.w3.org/2000/svg">
<rect opacity="0.7" x="111" y="1" width="154" height="110" rx="37" transform="rotate(90 111 1)" fill="url(#paint0_linear_811_497)" fill-opacity="0.2" stroke="url(#paint1_linear_811_497)" stroke-width="2"/>
<path d="M30.4206 80.9611L24.8606 80.9611L23.5606 84.4211L21.1406 84.4211L26.5806 70.4211L27.6406 70.4211C28.3606 70.4211 28.8606 70.7744 29.1406 71.4811L34.1406 84.4211L31.7006 84.4211L30.4206 80.9611ZM25.5206 79.0011L29.7606 79.0011L27.6606 73.3211L27.6406 73.3211L25.5206 79.0011ZM38.9665 84.5811C37.7398 84.5811 36.7532 84.2277 36.0065 83.5211C35.2732 82.8144 34.9065 81.8811 34.9065 80.7211L34.9065 78.2011C34.9065 77.4277 35.0732 76.7477 35.4065 76.1611C35.7398 75.5611 36.2132 75.1011 36.8265 74.7811C37.4398 74.4477 38.1465 74.2811 38.9465 74.2811L40.5465 74.2811C41.6932 74.2811 42.6132 74.6144 43.3065 75.2811C44.0132 75.9344 44.3665 76.8011 44.3665 77.8811L42.1065 77.8811C42.1065 77.4011 41.9598 77.0144 41.6665 76.7211C41.3865 76.4144 41.0132 76.2611 40.5465 76.2611L38.9665 76.2611C38.4465 76.2611 38.0198 76.4544 37.6865 76.8411C37.3665 77.2277 37.2065 77.7277 37.2065 78.3411L37.2065 80.5811C37.2065 81.1811 37.3665 81.6677 37.6865 82.0411C38.0198 82.4144 38.4532 82.6011 38.9865 82.6011L40.5665 82.6011C41.0598 82.6011 41.4532 82.4211 41.7465 82.0611C42.0532 81.7011 42.2065 81.2344 42.2065 80.6611L44.4665 80.6611C44.4665 81.8344 44.1065 82.7811 43.3865 83.5011C42.6798 84.2211 41.7398 84.5811 40.5665 84.5811L38.9665 84.5811ZM50.0017 84.5811C48.775 84.5811 47.7883 84.2277 47.0417 83.5211C46.3083 82.8144 45.9417 81.8811 45.9417 80.7211L45.9417 78.2011C45.9417 77.4277 46.1083 76.7477 46.4417 76.1611C46.775 75.5611 47.2483 75.1011 47.8617 74.7811C48.475 74.4477 49.1817 74.2811 49.9817 74.2811L51.5817 74.2811C52.7283 74.2811 53.6483 74.6144 54.3417 75.2811C55.0483 75.9344 55.4017 76.8011 55.4017 77.8811L53.1417 77.8811C53.1417 77.4011 52.995 77.0144 52.7017 76.7211C52.4217 76.4144 52.0483 76.2611 51.5817 76.2611L50.0017 76.2611C49.4817 76.2611 49.055 76.4544 48.7217 76.8411C48.4017 77.2277 48.2417 77.7277 48.2417 78.3411L48.2417 80.5811C48.2417 81.1811 48.4017 81.6677 48.7217 82.0411C49.055 82.4144 49.4883 82.6011 50.0217 82.6011L51.6017 82.6011C52.095 82.6011 52.4883 82.4211 52.7817 82.0611C53.0883 81.7011 53.2417 81.2344 53.2417 80.6611L55.5017 80.6611C55.5017 81.8344 55.1417 82.7811 54.4217 83.5011C53.715 84.2211 52.775 84.5811 51.6017 84.5811L50.0017 84.5811ZM61.0768 84.5811C60.2635 84.5811 59.5435 84.4277 58.9168 84.1211C58.3035 83.8144 57.8235 83.3811 57.4768 82.8211C57.1435 82.2611 56.9768 81.6144 56.9768 80.8811L56.9768 78.2011C56.9768 77.4277 57.1435 76.7477 57.4768 76.1611C57.8235 75.5611 58.3035 75.1011 58.9168 74.7811C59.5435 74.4477 60.2635 74.2811 61.0768 74.2811L62.6768 74.2811C63.8901 74.2811 64.8635 74.6344 65.5968 75.3411C66.3301 76.0477 66.6968 76.9877 66.6968 78.1611L66.6968 80.1611L59.2768 80.1611L59.2768 80.8811C59.2768 81.4144 59.4368 81.8411 59.7568 82.1611C60.0901 82.4811 60.5301 82.6411 61.0768 82.6411L62.6168 82.6411C63.1501 82.6411 63.5768 82.5144 63.8968 82.2611C64.2301 81.9944 64.3968 81.6477 64.3968 81.2211L66.6568 81.2211C66.6568 82.2344 66.2835 83.0477 65.5368 83.6611C64.7901 84.2744 63.8101 84.5811 62.5968 84.5811L61.0768 84.5811ZM64.4368 78.4411L64.4368 78.1611C64.4368 77.5744 64.2768 77.1011 63.9568 76.7411C63.6368 76.3811 63.2168 76.2011 62.6968 76.2011L61.0768 76.2011C60.5301 76.2011 60.0835 76.3944 59.7368 76.7811C59.4035 77.1544 59.2368 77.6477 59.2368 78.2611L59.2368 78.4411L64.4368 78.4411ZM68.7635 74.4411L70.9035 74.4411L70.9035 75.6211C71.1835 75.2211 71.5435 74.9011 71.9835 74.6611C72.4369 74.4077 72.8769 74.2811 73.3035 74.2811L74.6235 74.2811C75.7835 74.2811 76.7169 74.6344 77.4235 75.3411C78.1435 76.0344 78.5035 76.9544 78.5035 78.1011L78.5035 80.4211C78.5035 81.6744 78.1502 82.6811 77.4435 83.4411C76.7369 84.2011 75.7969 84.5811 74.6235 84.5811L73.2835 84.5811C72.8969 84.5811 72.4969 84.4877 72.0835 84.3011C71.6702 84.1011 71.3302 83.8411 71.0635 83.5211L71.0635 88.4211L68.7635 88.4211L68.7635 74.4411ZM74.3835 82.6011C74.9302 82.6011 75.3702 82.3877 75.7035 81.9611C76.0502 81.5344 76.2235 80.9744 76.2235 80.2811L76.2235 78.2411C76.2235 77.6544 76.0569 77.1811 75.7235 76.8211C75.3902 76.4477 74.9502 76.2611 74.4035 76.2611L73.1235 76.2611C72.6702 76.2611 72.2502 76.4411 71.8635 76.8011C71.4902 77.1477 71.2235 77.6011 71.0635 78.1611L71.0635 80.4811C71.1302 81.1077 71.3502 81.6211 71.7235 82.0211C72.1102 82.4077 72.5702 82.6011 73.1035 82.6011L74.3835 82.6011ZM84.7609 84.4211C83.6275 84.4211 82.8009 84.1677 82.2809 83.6611C81.7609 83.1544 81.5009 82.3544 81.5009 81.2611L81.5009 76.4211L79.7409 76.4211L79.7409 74.4411L81.5609 74.4411L81.5609 71.4211L83.8009 71.4211L83.8009 74.4411L86.4009 74.4411L86.4009 76.4211L83.8009 76.4211L83.8009 81.1811C83.8009 81.6211 83.8875 81.9411 84.0609 82.1411C84.2342 82.3411 84.5075 82.4411 84.8809 82.4411L86.4009 82.4411L86.4009 84.4211L84.7609 84.4211Z" fill="#33D94D"/>
<defs>
<linearGradient id="paint0_linear_811_497" x1="190" y1="112" x2="190" y2="0" gradientUnits="userSpaceOnUse">
<stop stop-color="#33D94D"/>
<stop offset="1" stop-color="#156622"/>
</linearGradient>
<linearGradient id="paint1_linear_811_497" x1="190" y1="112" x2="190" y2="0" gradientUnits="userSpaceOnUse">
<stop stop-color="#33D94D"/>
<stop offset="1" stop-color="#156622"/>
</linearGradient>
</defs>
</svg>
