<svg width="87" height="156" viewBox="0 0 87 156" fill="none" xmlns="http://www.w3.org/2000/svg">
<g opacity="0.7">
<mask id="path-1-inside-1_733_251" fill="white">
<path fill-rule="evenodd" clip-rule="evenodd" d="M58.5 -2.49333e-06C71.0507 -1.95841e-06 77.3261 0 82.505 1.24335C87.1438 2.35703 87.348 8.42861 83.8105 11.6294C77.2097 17.6017 72.4003 25.5106 70.2434 34.495C69 39.6739 69 45.9493 69 58.5L69 97.5C69 110.051 69 116.326 70.2433 121.505C72.4003 130.489 77.2097 138.398 83.8105 144.371C87.348 147.571 87.1438 153.643 82.505 154.757C77.3261 156 71.0507 156 58.5 156C45.9493 156 39.6739 156 34.495 154.757C18.0408 150.806 5.19365 137.959 1.24335 121.505C-5.21485e-06 116.326 -4.93353e-06 110.051 -4.37088e-06 97.5L-2.62253e-06 58.5C-2.05989e-06 45.9493 0 39.6739 1.24335 34.495C5.19366 18.0408 18.0408 5.19365 34.495 1.24335C39.6739 -3.29572e-06 45.9493 -3.02826e-06 58.5 -2.49333e-06Z"/>
</mask>
<path fill-rule="evenodd" clip-rule="evenodd" d="M58.5 -2.49333e-06C71.0507 -1.95841e-06 77.3261 0 82.505 1.24335C87.1438 2.35703 87.348 8.42861 83.8105 11.6294C77.2097 17.6017 72.4003 25.5106 70.2434 34.495C69 39.6739 69 45.9493 69 58.5L69 97.5C69 110.051 69 116.326 70.2433 121.505C72.4003 130.489 77.2097 138.398 83.8105 144.371C87.348 147.571 87.1438 153.643 82.505 154.757C77.3261 156 71.0507 156 58.5 156C45.9493 156 39.6739 156 34.495 154.757C18.0408 150.806 5.19365 137.959 1.24335 121.505C-5.21485e-06 116.326 -4.93353e-06 110.051 -4.37088e-06 97.5L-2.62253e-06 58.5C-2.05989e-06 45.9493 0 39.6739 1.24335 34.495C5.19366 18.0408 18.0408 5.19365 34.495 1.24335C39.6739 -3.29572e-06 45.9493 -3.02826e-06 58.5 -2.49333e-06Z" fill="url(#paint0_linear_733_251)" fill-opacity="0.15"/>
<path d="M70.2434 34.495L72.1881 34.9618L70.2434 34.495ZM69 58.5H71H69ZM69 97.5H67H69ZM70.2433 121.505L72.1881 121.038L70.2433 121.505ZM34.495 154.757L34.9618 152.812L34.495 154.757ZM1.24335 121.505L3.18809 121.038L1.24335 121.505ZM-4.37088e-06 97.5H2H-4.37088e-06ZM-2.62253e-06 58.5H-2H-2.62253e-06ZM1.24335 34.495L-0.701388 34.0281L-0.701388 34.0281L1.24335 34.495ZM34.495 1.24335L34.0281 -0.70139V-0.70139L34.495 1.24335ZM83.8105 144.371L82.4686 145.854L83.8105 144.371ZM83.8105 11.6294L82.4686 10.1463L83.8105 11.6294ZM82.9719 -0.701388C77.5048 -2.01393 70.9352 -2 58.5 -2V2C71.1663 2 77.1474 2.01393 82.0382 3.18809L82.9719 -0.701388ZM72.1881 34.9618C74.2492 26.3769 78.8444 18.8198 85.1523 13.1124L82.4686 10.1463C75.575 16.3836 70.5514 24.6444 68.2986 34.0281L72.1881 34.9618ZM71 58.5C71 45.8337 71.0139 39.8526 72.1881 34.9618L68.2986 34.0281C66.9861 39.4952 67 46.0648 67 58.5H71ZM71 97.5L71 58.5H67L67 97.5H71ZM72.1881 121.038C71.0139 116.147 71 110.166 71 97.5H67C67 109.935 66.9861 116.505 68.2986 121.972L72.1881 121.038ZM85.1523 142.888C78.8444 137.18 74.2492 129.623 72.1881 121.038L68.2986 121.972C70.5514 131.356 75.575 139.616 82.4686 145.854L85.1523 142.888ZM58.5 158C70.9352 158 77.5048 158.014 82.9719 156.701L82.0381 152.812C77.1474 153.986 71.1662 154 58.5 154V158ZM34.0281 156.701C39.4952 158.014 46.0648 158 58.5 158V154C45.8337 154 39.8526 153.986 34.9618 152.812L34.0281 156.701ZM-0.701392 121.972C3.42448 139.157 16.8426 152.575 34.0281 156.701L34.9618 152.812C19.2389 149.037 6.96282 136.761 3.18809 121.038L-0.701392 121.972ZM-2 97.5C-2.00001 109.935 -2.01393 116.505 -0.701392 121.972L3.18809 121.038C2.01392 116.147 2 110.166 2 97.5H-2ZM-2 58.5L-2 97.5H2L2 58.5H-2ZM-0.701388 34.0281C-2.01393 39.4952 -2 46.0648 -2 58.5H2C2 45.8337 2.01393 39.8526 3.18809 34.9618L-0.701388 34.0281ZM34.0281 -0.70139C16.8426 3.42448 3.42449 16.8426 -0.701388 34.0281L3.18809 34.9618C6.96283 19.2389 19.2389 6.96282 34.9618 3.18809L34.0281 -0.70139ZM58.5 -2C46.0648 -2 39.4952 -2.01393 34.0281 -0.70139L34.9618 3.18809C39.8526 2.01393 45.8337 2 58.5 2V-2ZM82.4686 145.854C83.7735 147.034 84.3631 148.736 84.2322 150.164C84.1088 151.509 83.3939 152.486 82.0381 152.812L82.9719 156.701C86.2549 155.913 87.9615 153.298 88.2155 150.529C88.462 147.842 87.385 144.908 85.1523 142.888L82.4686 145.854ZM82.0382 3.18809C83.394 3.51359 84.1088 4.49098 84.2322 5.83639C84.3631 7.26349 83.7735 8.96567 82.4686 10.1463L85.1523 13.1124C87.385 11.0923 88.462 8.15831 88.2155 5.47102C87.9615 2.70203 86.2549 0.0867902 82.9719 -0.701388L82.0382 3.18809Z" fill="url(#paint1_linear_733_251)" mask="url(#path-1-inside-1_733_251)"/>
</g>
<path d="M46.144 99.681C46.144 100.749 45.826 101.601 45.19 102.237C44.554 102.861 43.69 103.173 42.598 103.173L42.598 102.201C43.414 102.201 44.062 101.973 44.542 101.517C45.01 101.061 45.244 100.443 45.244 99.663L45.244 97.647C45.244 96.891 45.07 96.285 44.722 95.829C44.374 95.361 43.918 95.127 43.354 95.127L42.13 95.127C41.674 95.127 41.284 95.295 40.96 95.631C40.636 95.967 40.426 96.435 40.33 97.035L39.79 100.257C39.646 101.121 39.334 101.799 38.854 102.291C38.374 102.771 37.774 103.011 37.054 103.011L36.01 103.011C35.182 103.011 34.516 102.699 34.012 102.075C33.508 101.451 33.256 100.629 33.256 99.609L33.256 97.575C33.256 96.603 33.55 95.823 34.138 95.235C34.726 94.635 35.5 94.335 36.46 94.335L36.46 95.307C35.764 95.307 35.206 95.517 34.786 95.937C34.354 96.345 34.138 96.891 34.138 97.575L34.138 99.609C34.138 100.341 34.312 100.929 34.66 101.373C34.996 101.805 35.446 102.021 36.01 102.021L37.054 102.021C37.534 102.021 37.936 101.859 38.26 101.535C38.584 101.211 38.794 100.755 38.89 100.167L39.448 96.963C39.604 96.075 39.916 95.385 40.384 94.893C40.852 94.389 41.434 94.137 42.13 94.137L43.354 94.137C44.194 94.137 44.872 94.455 45.388 95.091C45.892 95.727 46.144 96.573 46.144 97.629L46.144 99.681ZM46 88.2309C46 89.1429 45.808 89.7969 45.424 90.1929C45.028 90.5889 44.38 90.7869 43.48 90.7869L37.882 90.7869L37.882 92.3709L37.018 92.3709L37.018 90.7869L34.3 90.7869L34.3 89.8329L37.018 89.8329L37.018 87.4929L37.882 87.4929L37.882 89.8329L43.48 89.8329C44.068 89.8329 44.494 89.7129 44.758 89.4729C45.01 89.2329 45.136 88.8309 45.136 88.2669L45.136 87.4929L46 87.4929L46 88.2309ZM46.144 82.6459C46.144 83.4859 45.928 84.1579 45.496 84.6619C45.052 85.1659 44.464 85.4179 43.732 85.4179L43.048 85.4179C42.316 85.4179 41.734 85.1599 41.302 84.6439C40.87 84.1279 40.654 83.4439 40.654 82.5919L40.654 81.4219C40.654 81.0139 40.72 80.5939 40.852 80.1619C40.984 79.7179 41.164 79.3399 41.392 79.0279L39.646 79.0279C39.082 79.0279 38.62 79.2019 38.26 79.5499C37.9 79.8979 37.72 80.3479 37.72 80.8999L37.72 82.3039C37.72 82.8679 37.852 83.3239 38.116 83.6719C38.38 84.0199 38.734 84.1939 39.178 84.1939L39.178 85.1659C38.482 85.1659 37.924 84.9019 37.504 84.3739C37.084 83.8459 36.874 83.1559 36.874 82.3039L36.874 80.8999C36.874 80.0479 37.126 79.3699 37.63 78.8659C38.134 78.3499 38.806 78.0919 39.646 78.0919L46 78.0919L46 79.0099L44.596 79.0099C45.076 79.3219 45.454 79.7059 45.73 80.1619C46.006 80.6179 46.144 81.0799 46.144 81.5479L46.144 82.6459ZM45.28 81.5299C45.28 81.0259 45.1 80.5459 44.74 80.0899C44.38 79.6219 43.906 79.2679 43.318 79.0279L42.346 79.0279C42.094 79.2919 41.89 79.6459 41.734 80.0899C41.578 80.5219 41.5 80.9659 41.5 81.4219L41.5 82.5919C41.5 83.1559 41.644 83.6059 41.932 83.9419C42.208 84.2779 42.58 84.4459 43.048 84.4459L43.732 84.4459C44.2 84.4459 44.578 84.2839 44.866 83.9599C45.142 83.6359 45.28 83.1979 45.28 82.6459L45.28 81.5299ZM46 71.8305C46 72.7425 45.808 73.3965 45.424 73.7925C45.028 74.1885 44.38 74.3865 43.48 74.3865L37.882 74.3865L37.882 75.9705L37.018 75.9705L37.018 74.3865L34.3 74.3865L34.3 73.4325L37.018 73.4325L37.018 71.0925L37.882 71.0925L37.882 73.4325L43.48 73.4325C44.068 73.4325 44.494 73.3125 44.758 73.0725C45.01 72.8325 45.136 72.4305 45.136 71.8665L45.136 71.0925L46 71.0925L46 71.8305ZM46.144 66.068C46.144 66.848 45.88 67.484 45.352 67.976C44.812 68.468 44.104 68.714 43.228 68.714L37.018 68.714L37.018 67.742L43.246 67.742C43.846 67.742 44.338 67.592 44.722 67.292C45.094 66.98 45.28 66.572 45.28 66.068L45.28 64.952C45.28 64.604 45.166 64.25 44.938 63.89C44.71 63.53 44.404 63.212 44.02 62.936C43.624 62.66 43.21 62.474 42.778 62.378L37.018 62.378L37.018 61.424L46 61.424L46 62.36L44.38 62.36C44.896 62.66 45.322 63.05 45.658 63.53C45.982 64.01 46.144 64.472 46.144 64.916L46.144 66.068ZM46.144 56.0874C46.144 56.9394 45.898 57.6294 45.406 58.1574C44.902 58.6734 44.242 58.9314 43.426 58.9314L43.426 57.9954C43.978 57.9954 44.428 57.8214 44.776 57.4734C45.124 57.1134 45.298 56.6514 45.298 56.0874L45.298 54.5394C45.298 53.9514 45.178 53.4834 44.938 53.1354C44.698 52.7754 44.386 52.5954 44.002 52.5954L43.3 52.5954C43.036 52.5954 42.802 52.6974 42.598 52.9014C42.394 53.0934 42.262 53.3454 42.202 53.6574L41.662 56.7894C41.566 57.3774 41.344 57.8514 40.996 58.2114C40.636 58.5594 40.216 58.7334 39.736 58.7334L39.124 58.7334C38.452 58.7334 37.912 58.4874 37.504 57.9954C37.084 57.4914 36.874 56.8314 36.874 56.0154L36.874 54.4854C36.874 53.6934 37.102 53.0574 37.558 52.5774C38.014 52.0854 38.614 51.8394 39.358 51.8394L39.358 52.7754C38.866 52.7994 38.47 52.9674 38.17 53.2794C37.87 53.5794 37.72 53.9814 37.72 54.4854L37.72 56.0154C37.72 56.5434 37.852 56.9694 38.116 57.2934C38.368 57.6174 38.704 57.7794 39.124 57.7794L39.7 57.7794C39.976 57.7794 40.222 57.6714 40.438 57.4554C40.642 57.2394 40.768 56.9574 40.816 56.6094L41.356 53.4774C41.452 52.9254 41.674 52.4814 42.022 52.1454C42.37 51.8094 42.784 51.6414 43.264 51.6414L44.02 51.6414C44.656 51.6414 45.172 51.9054 45.568 52.4334C45.952 52.9614 46.144 53.6634 46.144 54.5394L46.144 56.0874Z" fill="white"/>
<defs>
<linearGradient id="paint0_linear_733_251" x1="8.86131" y1="8.54794" x2="120.404" y2="70.4691" gradientUnits="userSpaceOnUse">
<stop stop-color="#727272"/>
<stop offset="1" stop-color="white"/>
</linearGradient>
<linearGradient id="paint1_linear_733_251" x1="8.86131" y1="8.54794" x2="120.404" y2="70.4691" gradientUnits="userSpaceOnUse">
<stop stop-color="#727272"/>
<stop offset="1" stop-color="white"/>
</linearGradient>
</defs>
</svg>
