<svg width="87" height="156" viewBox="0 0 87 156" fill="none" xmlns="http://www.w3.org/2000/svg">
<g opacity="0.7">
<mask id="path-1-inside-1_733_253" fill="white">
<path fill-rule="evenodd" clip-rule="evenodd" d="M58.5 -2.49333e-06C71.0507 -1.95841e-06 77.3261 0 82.505 1.24335C87.1438 2.35703 87.348 8.42861 83.8105 11.6294C77.2097 17.6017 72.4003 25.5106 70.2434 34.495C69 39.6739 69 45.9493 69 58.5L69 97.5C69 110.051 69 116.326 70.2433 121.505C72.4003 130.489 77.2097 138.398 83.8105 144.371C87.348 147.571 87.1438 153.643 82.505 154.757C77.3261 156 71.0507 156 58.5 156C45.9493 156 39.6739 156 34.495 154.757C18.0408 150.806 5.19365 137.959 1.24335 121.505C-5.21485e-06 116.326 -4.93353e-06 110.051 -4.37088e-06 97.5L-2.62253e-06 58.5C-2.05989e-06 45.9493 0 39.6739 1.24335 34.495C5.19366 18.0408 18.0408 5.19365 34.495 1.24335C39.6739 -3.29572e-06 45.9493 -3.02826e-06 58.5 -2.49333e-06Z"/>
</mask>
<path fill-rule="evenodd" clip-rule="evenodd" d="M58.5 -2.49333e-06C71.0507 -1.95841e-06 77.3261 0 82.505 1.24335C87.1438 2.35703 87.348 8.42861 83.8105 11.6294C77.2097 17.6017 72.4003 25.5106 70.2434 34.495C69 39.6739 69 45.9493 69 58.5L69 97.5C69 110.051 69 116.326 70.2433 121.505C72.4003 130.489 77.2097 138.398 83.8105 144.371C87.348 147.571 87.1438 153.643 82.505 154.757C77.3261 156 71.0507 156 58.5 156C45.9493 156 39.6739 156 34.495 154.757C18.0408 150.806 5.19365 137.959 1.24335 121.505C-5.21485e-06 116.326 -4.93353e-06 110.051 -4.37088e-06 97.5L-2.62253e-06 58.5C-2.05989e-06 45.9493 0 39.6739 1.24335 34.495C5.19366 18.0408 18.0408 5.19365 34.495 1.24335C39.6739 -3.29572e-06 45.9493 -3.02826e-06 58.5 -2.49333e-06Z" fill="url(#paint0_linear_733_253)" fill-opacity="0.15"/>
<path d="M70.2434 34.495L72.1881 34.9618L70.2434 34.495ZM69 58.5H71H69ZM69 97.5H67H69ZM70.2433 121.505L72.1881 121.038L70.2433 121.505ZM34.495 154.757L34.9618 152.812L34.495 154.757ZM1.24335 121.505L3.18809 121.038L1.24335 121.505ZM-4.37088e-06 97.5H2H-4.37088e-06ZM-2.62253e-06 58.5H-2H-2.62253e-06ZM1.24335 34.495L-0.701388 34.0281L-0.701388 34.0281L1.24335 34.495ZM34.495 1.24335L34.0281 -0.70139V-0.70139L34.495 1.24335ZM83.8105 144.371L82.4686 145.854L83.8105 144.371ZM83.8105 11.6294L82.4686 10.1463L83.8105 11.6294ZM82.9719 -0.701388C77.5048 -2.01393 70.9352 -2 58.5 -2V2C71.1663 2 77.1474 2.01393 82.0382 3.18809L82.9719 -0.701388ZM72.1881 34.9618C74.2492 26.3769 78.8444 18.8198 85.1523 13.1124L82.4686 10.1463C75.575 16.3836 70.5514 24.6444 68.2986 34.0281L72.1881 34.9618ZM71 58.5C71 45.8337 71.0139 39.8526 72.1881 34.9618L68.2986 34.0281C66.9861 39.4952 67 46.0648 67 58.5H71ZM71 97.5L71 58.5H67L67 97.5H71ZM72.1881 121.038C71.0139 116.147 71 110.166 71 97.5H67C67 109.935 66.9861 116.505 68.2986 121.972L72.1881 121.038ZM85.1523 142.888C78.8444 137.18 74.2492 129.623 72.1881 121.038L68.2986 121.972C70.5514 131.356 75.575 139.616 82.4686 145.854L85.1523 142.888ZM58.5 158C70.9352 158 77.5048 158.014 82.9719 156.701L82.0381 152.812C77.1474 153.986 71.1662 154 58.5 154V158ZM34.0281 156.701C39.4952 158.014 46.0648 158 58.5 158V154C45.8337 154 39.8526 153.986 34.9618 152.812L34.0281 156.701ZM-0.701392 121.972C3.42448 139.157 16.8426 152.575 34.0281 156.701L34.9618 152.812C19.2389 149.037 6.96282 136.761 3.18809 121.038L-0.701392 121.972ZM-2 97.5C-2.00001 109.935 -2.01393 116.505 -0.701392 121.972L3.18809 121.038C2.01392 116.147 2 110.166 2 97.5H-2ZM-2 58.5L-2 97.5H2L2 58.5H-2ZM-0.701388 34.0281C-2.01393 39.4952 -2 46.0648 -2 58.5H2C2 45.8337 2.01393 39.8526 3.18809 34.9618L-0.701388 34.0281ZM34.0281 -0.70139C16.8426 3.42448 3.42449 16.8426 -0.701388 34.0281L3.18809 34.9618C6.96283 19.2389 19.2389 6.96282 34.9618 3.18809L34.0281 -0.70139ZM58.5 -2C46.0648 -2 39.4952 -2.01393 34.0281 -0.70139L34.9618 3.18809C39.8526 2.01393 45.8337 2 58.5 2V-2ZM82.4686 145.854C83.7735 147.034 84.3631 148.736 84.2322 150.164C84.1088 151.509 83.3939 152.486 82.0381 152.812L82.9719 156.701C86.2549 155.913 87.9615 153.298 88.2155 150.529C88.462 147.842 87.385 144.908 85.1523 142.888L82.4686 145.854ZM82.0382 3.18809C83.394 3.51359 84.1088 4.49098 84.2322 5.83639C84.3631 7.26349 83.7735 8.96567 82.4686 10.1463L85.1523 13.1124C87.385 11.0923 88.462 8.15831 88.2155 5.47102C87.9615 2.70203 86.2549 0.0867902 82.9719 -0.701388L82.0382 3.18809Z" fill="url(#paint1_linear_733_253)" mask="url(#path-1-inside-1_733_253)"/>
</g>
<path d="M46.144 111.915C46.144 112.983 45.826 113.835 45.19 114.471C44.554 115.095 43.69 115.407 42.598 115.407L42.598 114.435C43.414 114.435 44.062 114.207 44.542 113.751C45.01 113.295 45.244 112.677 45.244 111.897L45.244 109.881C45.244 109.125 45.07 108.519 44.722 108.063C44.374 107.595 43.918 107.361 43.354 107.361L42.13 107.361C41.674 107.361 41.284 107.529 40.96 107.865C40.636 108.201 40.426 108.669 40.33 109.269L39.79 112.491C39.646 113.355 39.334 114.033 38.854 114.525C38.374 115.005 37.774 115.245 37.054 115.245L36.01 115.245C35.182 115.245 34.516 114.933 34.012 114.309C33.508 113.685 33.256 112.863 33.256 111.843L33.256 109.809C33.256 108.837 33.55 108.057 34.138 107.469C34.726 106.869 35.5 106.569 36.46 106.569L36.46 107.541C35.764 107.541 35.206 107.751 34.786 108.171C34.354 108.579 34.138 109.125 34.138 109.809L34.138 111.843C34.138 112.575 34.312 113.163 34.66 113.607C34.996 114.039 35.446 114.255 36.01 114.255L37.054 114.255C37.534 114.255 37.936 114.093 38.26 113.769C38.584 113.445 38.794 112.989 38.89 112.401L39.448 109.197C39.604 108.309 39.916 107.619 40.384 107.127C40.852 106.623 41.434 106.371 42.13 106.371L43.354 106.371C44.194 106.371 44.872 106.689 45.388 107.325C45.892 107.961 46.144 108.807 46.144 109.863L46.144 111.915ZM46 100.465C46 101.377 45.808 102.031 45.424 102.427C45.028 102.823 44.38 103.021 43.48 103.021L37.882 103.021L37.882 104.605L37.018 104.605L37.018 103.021L34.3 103.021L34.3 102.067L37.018 102.067L37.018 99.7273L37.882 99.7273L37.882 102.067L43.48 102.067C44.068 102.067 44.494 101.947 44.758 101.707C45.01 101.467 45.136 101.065 45.136 100.501L45.136 99.7273L46 99.7273L46 100.465ZM46.144 94.8803C46.144 95.7203 45.928 96.3923 45.496 96.8963C45.052 97.4003 44.464 97.6523 43.732 97.6523L43.048 97.6523C42.316 97.6523 41.734 97.3943 41.302 96.8783C40.87 96.3623 40.654 95.6783 40.654 94.8263L40.654 93.6563C40.654 93.2483 40.72 92.8283 40.852 92.3963C40.984 91.9523 41.164 91.5743 41.392 91.2623L39.646 91.2623C39.082 91.2623 38.62 91.4363 38.26 91.7843C37.9 92.1323 37.72 92.5823 37.72 93.1343L37.72 94.5383C37.72 95.1023 37.852 95.5583 38.116 95.9063C38.38 96.2543 38.734 96.4283 39.178 96.4283L39.178 97.4003C38.482 97.4003 37.924 97.1363 37.504 96.6083C37.084 96.0803 36.874 95.3903 36.874 94.5383L36.874 93.1343C36.874 92.2823 37.126 91.6043 37.63 91.1003C38.134 90.5843 38.806 90.3263 39.646 90.3263L46 90.3263L46 91.2443L44.596 91.2443C45.076 91.5563 45.454 91.9403 45.73 92.3963C46.006 92.8523 46.144 93.3143 46.144 93.7823L46.144 94.8803ZM45.28 93.7643C45.28 93.2603 45.1 92.7803 44.74 92.3243C44.38 91.8563 43.906 91.5023 43.318 91.2623L42.346 91.2623C42.094 91.5263 41.89 91.8803 41.734 92.3243C41.578 92.7563 41.5 93.2003 41.5 93.6563L41.5 94.8263C41.5 95.3903 41.644 95.8403 41.932 96.1763C42.208 96.5123 42.58 96.6803 43.048 96.6803L43.732 96.6803C44.2 96.6803 44.578 96.5183 44.866 96.1943C45.142 95.8703 45.28 95.4323 45.28 94.8803L45.28 93.7643ZM46 84.0649C46 84.9769 45.808 85.6309 45.424 86.0269C45.028 86.4229 44.38 86.6209 43.48 86.6209L37.882 86.6209L37.882 88.2049L37.018 88.2049L37.018 86.6209L34.3 86.6209L34.3 85.6669L37.018 85.6669L37.018 83.3269L37.882 83.3269L37.882 85.6669L43.48 85.6669C44.068 85.6669 44.494 85.5469 44.758 85.3069C45.01 85.0669 45.136 84.6649 45.136 84.1009L45.136 83.3269L46 83.3269L46 84.0649ZM35.488 79.9249C35.488 80.1649 35.416 80.3629 35.272 80.5189C35.128 80.6629 34.936 80.7349 34.696 80.7349C34.456 80.7349 34.264 80.6629 34.12 80.5189C33.964 80.3629 33.886 80.1649 33.886 79.9249C33.886 79.6849 33.964 79.4929 34.12 79.3489C34.264 79.2049 34.456 79.1329 34.696 79.1329C34.924 79.1329 35.116 79.2049 35.272 79.3489C35.416 79.4929 35.488 79.6849 35.488 79.9249ZM37.018 80.4109L37.018 79.4569L46 79.4569L46 80.4109L37.018 80.4109ZM46.144 73.8062C46.144 74.6582 45.898 75.3482 45.406 75.8762C44.902 76.3922 44.242 76.6502 43.426 76.6502L43.426 75.7142C43.978 75.7142 44.428 75.5402 44.776 75.1922C45.124 74.8322 45.298 74.3702 45.298 73.8062L45.298 72.2582C45.298 71.6702 45.178 71.2022 44.938 70.8542C44.698 70.4942 44.386 70.3142 44.002 70.3142L43.3 70.3142C43.036 70.3142 42.802 70.4162 42.598 70.6202C42.394 70.8122 42.262 71.0642 42.202 71.3762L41.662 74.5082C41.566 75.0962 41.344 75.5702 40.996 75.9302C40.636 76.2782 40.216 76.4522 39.736 76.4522L39.124 76.4522C38.452 76.4522 37.912 76.2062 37.504 75.7142C37.084 75.2102 36.874 74.5502 36.874 73.7342L36.874 72.2042C36.874 71.4122 37.102 70.7762 37.558 70.2962C38.014 69.8042 38.614 69.5582 39.358 69.5582L39.358 70.4942C38.866 70.5182 38.47 70.6862 38.17 70.9982C37.87 71.2982 37.72 71.7002 37.72 72.2042L37.72 73.7342C37.72 74.2622 37.852 74.6882 38.116 75.0122C38.368 75.3362 38.704 75.4982 39.124 75.4982L39.7 75.4982C39.976 75.4982 40.222 75.3902 40.438 75.1742C40.642 74.9582 40.768 74.6762 40.816 74.3282L41.356 71.1962C41.452 70.6442 41.674 70.2002 42.022 69.8642C42.37 69.5282 42.784 69.3602 43.264 69.3602L44.02 69.3602C44.656 69.3602 45.172 69.6242 45.568 70.1522C45.952 70.6802 46.144 71.3822 46.144 72.2582L46.144 73.8062ZM46 63.6392C46 64.5512 45.808 65.2052 45.424 65.6012C45.028 65.9972 44.38 66.1952 43.48 66.1952L37.882 66.1952L37.882 67.7792L37.018 67.7792L37.018 66.1952L34.3 66.1952L34.3 65.2412L37.018 65.2412L37.018 62.9012L37.882 62.9012L37.882 65.2412L43.48 65.2412C44.068 65.2412 44.494 65.1212 44.758 64.8812C45.01 64.6412 45.136 64.2392 45.136 63.6752L45.136 62.9012L46 62.9012L46 63.6392ZM35.488 59.4992C35.488 59.7392 35.416 59.9372 35.272 60.0932C35.128 60.2372 34.936 60.3092 34.696 60.3092C34.456 60.3092 34.264 60.2372 34.12 60.0932C33.964 59.9372 33.886 59.7392 33.886 59.4992C33.886 59.2592 33.964 59.0672 34.12 58.9232C34.264 58.7792 34.456 58.7072 34.696 58.7072C34.924 58.7072 35.116 58.7792 35.272 58.9232C35.416 59.0672 35.488 59.2592 35.488 59.4992ZM37.018 59.9852L37.018 59.0312L46 59.0312L46 59.9852L37.018 59.9852ZM46.144 53.0024C46.144 53.9384 45.856 54.6944 45.28 55.2704C44.692 55.8344 43.924 56.1164 42.976 56.1164L40.204 56.1164C39.208 56.1164 38.404 55.8344 37.792 55.2704C37.18 54.6944 36.874 53.9444 36.874 53.0204L36.874 51.5444C36.874 50.6684 37.114 49.9664 37.594 49.4384C38.074 48.8984 38.704 48.6284 39.484 48.6284L39.484 49.5644C38.956 49.5644 38.536 49.7504 38.224 50.1224C37.9 50.4824 37.738 50.9564 37.738 51.5444L37.738 53.0204C37.738 53.6564 37.966 54.1724 38.422 54.5684C38.866 54.9524 39.46 55.1444 40.204 55.1444L42.976 55.1444C43.672 55.1444 44.23 54.9524 44.65 54.5684C45.07 54.1724 45.28 53.6504 45.28 53.0024L45.28 51.5264C45.28 50.9264 45.07 50.4404 44.65 50.0684C44.23 49.6964 43.678 49.5104 42.994 49.5104L42.994 48.5744C43.942 48.5744 44.704 48.8444 45.28 49.3844C45.856 49.9244 46.144 50.6384 46.144 51.5264L46.144 53.0024ZM46.144 43.8531C46.144 44.7051 45.898 45.3951 45.406 45.9231C44.902 46.4391 44.242 46.6971 43.426 46.6971L43.426 45.7611C43.978 45.7611 44.428 45.5871 44.776 45.2391C45.124 44.8791 45.298 44.4171 45.298 43.8531L45.298 42.3051C45.298 41.7171 45.178 41.2491 44.938 40.9011C44.698 40.5411 44.386 40.3611 44.002 40.3611L43.3 40.3611C43.036 40.3611 42.802 40.4631 42.598 40.6671C42.394 40.8591 42.262 41.1111 42.202 41.4231L41.662 44.5551C41.566 45.1431 41.344 45.6171 40.996 45.9771C40.636 46.3251 40.216 46.4991 39.736 46.4991L39.124 46.4991C38.452 46.4991 37.912 46.2531 37.504 45.7611C37.084 45.2571 36.874 44.5971 36.874 43.7811L36.874 42.2511C36.874 41.4591 37.102 40.8231 37.558 40.3431C38.014 39.8511 38.614 39.6051 39.358 39.6051L39.358 40.5411C38.866 40.5651 38.47 40.7331 38.17 41.0451C37.87 41.3451 37.72 41.7471 37.72 42.2511L37.72 43.7811C37.72 44.3091 37.852 44.7351 38.116 45.0591C38.368 45.3831 38.704 45.5451 39.124 45.5451L39.7 45.5451C39.976 45.5451 40.222 45.4371 40.438 45.2211C40.642 45.0051 40.768 44.7231 40.816 44.3751L41.356 41.2431C41.452 40.6911 41.674 40.2471 42.022 39.9111C42.37 39.5751 42.784 39.4071 43.264 39.4071L44.02 39.4071C44.656 39.4071 45.172 39.6711 45.568 40.1991C45.952 40.7271 46.144 41.4291 46.144 42.3051L46.144 43.8531Z" fill="url(#paint2_linear_733_253)"/>
<defs>
<linearGradient id="paint0_linear_733_253" x1="78.7501" y1="21.0234" x2="-20.6714" y2="62.6664" gradientUnits="userSpaceOnUse">
<stop stop-color="#FCB433"/>
<stop offset="1" stop-color="#966B1E"/>
</linearGradient>
<linearGradient id="paint1_linear_733_253" x1="78.7501" y1="21.0234" x2="-20.6714" y2="62.6664" gradientUnits="userSpaceOnUse">
<stop stop-color="#FCB433"/>
<stop offset="1" stop-color="#966B1E"/>
</linearGradient>
<linearGradient id="paint2_linear_733_253" x1="34.0215" y1="41.5652" x2="59.5282" y2="47.3702" gradientUnits="userSpaceOnUse">
<stop stop-color="#FCB433"/>
<stop offset="1" stop-color="#966B1E"/>
</linearGradient>
</defs>
</svg>
