<svg width="74" height="134" viewBox="0 0 74 134" fill="none" xmlns="http://www.w3.org/2000/svg">
<g opacity="0.7">
<mask id="path-1-inside-1_811_488" fill="white">
<path fill-rule="evenodd" clip-rule="evenodd" d="M50.6738 0C55.5492 0 57.9869 0 60.0414 0.188779C61.479 0.320874 62.8967 0.519972 64.2914 0.782938C68.2884 1.53659 70.287 1.91341 71.8157 3.44279C73.1501 4.77766 73.8903 6.60079 73.8643 8.48804C73.8345 10.6503 71.8471 13.4756 67.8722 19.1263C63.4702 25.3843 60.6223 32.8206 59.8815 40.8824C59.6927 42.9369 59.6927 45.3746 59.6927 50.25V83.75C59.6927 88.6254 59.6927 91.0631 59.8815 93.1175C60.6223 101.179 63.4702 108.616 67.8722 114.874C71.8471 120.524 73.8345 123.35 73.8643 125.512C73.8903 127.399 73.1501 129.222 71.8157 130.557C70.287 132.087 68.2884 132.463 64.2913 133.217C62.8967 133.48 61.479 133.679 60.0414 133.811C57.9869 134 55.5492 134 50.6738 134C45.7984 134 43.3607 134 41.3063 133.811C19.7072 131.827 2.59728 114.717 0.612606 93.1175C0.423828 91.0631 0.423828 88.6254 0.423828 83.75L0.42383 50.25C0.42383 45.3746 0.42383 42.9369 0.612608 40.8824C2.59729 19.2833 19.7072 2.17346 41.3063 0.188778C43.3607 0 45.7984 0 50.6738 0Z"/>
</mask>
<path fill-rule="evenodd" clip-rule="evenodd" d="M50.6738 0C55.5492 0 57.9869 0 60.0414 0.188779C61.479 0.320874 62.8967 0.519972 64.2914 0.782938C68.2884 1.53659 70.287 1.91341 71.8157 3.44279C73.1501 4.77766 73.8903 6.60079 73.8643 8.48804C73.8345 10.6503 71.8471 13.4756 67.8722 19.1263C63.4702 25.3843 60.6223 32.8206 59.8815 40.8824C59.6927 42.9369 59.6927 45.3746 59.6927 50.25V83.75C59.6927 88.6254 59.6927 91.0631 59.8815 93.1175C60.6223 101.179 63.4702 108.616 67.8722 114.874C71.8471 120.524 73.8345 123.35 73.8643 125.512C73.8903 127.399 73.1501 129.222 71.8157 130.557C70.287 132.087 68.2884 132.463 64.2913 133.217C62.8967 133.48 61.479 133.679 60.0414 133.811C57.9869 134 55.5492 134 50.6738 134C45.7984 134 43.3607 134 41.3063 133.811C19.7072 131.827 2.59728 114.717 0.612606 93.1175C0.423828 91.0631 0.423828 88.6254 0.423828 83.75L0.42383 50.25C0.42383 45.3746 0.42383 42.9369 0.612608 40.8824C2.59729 19.2833 19.7072 2.17346 41.3063 0.188778C43.3607 0 45.7984 0 50.6738 0Z" fill="url(#paint0_linear_811_488)" fill-opacity="0.15"/>
<path d="M60.0414 0.188779L59.8584 2.18039L59.8584 2.18039L60.0414 0.188779ZM59.8815 40.8824L61.8731 41.0654L61.8731 41.0654L59.8815 40.8824ZM59.8815 93.1175L57.8899 93.3005L57.8899 93.3005L59.8815 93.1175ZM60.0414 133.811L59.8584 131.82L59.8584 131.82L60.0414 133.811ZM41.3063 133.811L41.4893 131.82L41.4893 131.82L41.3063 133.811ZM0.612606 93.1175L2.60422 92.9345L2.60422 92.9345L0.612606 93.1175ZM0.423828 83.75L2.42383 83.75L0.423828 83.75ZM0.42383 50.25L2.42383 50.25L0.42383 50.25ZM0.612608 40.8824L2.60422 41.0654L2.60422 41.0654L0.612608 40.8824ZM41.3063 0.188778L41.1233 -1.80283L41.1233 -1.80283L41.3063 0.188778ZM73.8643 125.512L71.8645 125.539L73.8643 125.512ZM64.2913 133.217L64.6619 135.182L64.2913 133.217ZM71.8157 130.557L70.4012 129.143L71.8157 130.557ZM71.8157 3.44279L70.4012 4.85672L71.8157 3.44279ZM67.8722 19.1263L66.2364 17.9756L67.8722 19.1263ZM73.8643 8.48804L75.8641 8.51561L73.8643 8.48804ZM60.2244 -1.80283C58.0556 -2.00211 55.5048 -2 50.6738 -2V2C55.5936 2 57.9183 2.00211 59.8584 2.18039L60.2244 -1.80283ZM64.6619 -1.18243C63.2053 -1.45707 61.7251 -1.66494 60.2244 -1.80283L59.8584 2.18039C61.2329 2.30669 62.588 2.49701 63.9208 2.74831L64.6619 -1.18243ZM61.8731 41.0654C62.5811 33.3604 65.3021 26.2562 69.508 20.277L66.2364 17.9756C61.6383 24.5123 58.6635 32.2808 57.8899 40.6994L61.8731 41.0654ZM61.6927 50.25C61.6927 45.3302 61.6949 43.0056 61.8731 41.0654L57.8899 40.6994C57.6906 42.8682 57.6927 45.419 57.6927 50.25H61.6927ZM61.6927 83.75V50.25H57.6927V83.75H61.6927ZM61.8731 92.9345C61.6949 90.9944 61.6927 88.6698 61.6927 83.75H57.6927C57.6927 88.581 57.6906 91.1318 57.8899 93.3005L61.8731 92.9345ZM69.508 113.723C65.3021 107.744 62.5811 100.64 61.8731 92.9345L57.8899 93.3005C58.6635 101.719 61.6383 109.488 66.2364 116.024L69.508 113.723ZM60.2244 135.803C61.7251 135.665 63.2053 135.457 64.6619 135.182L63.9208 131.252C62.588 131.503 61.2329 131.693 59.8584 131.82L60.2244 135.803ZM50.6738 136C55.5048 136 58.0556 136.002 60.2244 135.803L59.8584 131.82C57.9183 131.998 55.5936 132 50.6738 132V136ZM41.1232 135.803C43.292 136.002 45.8428 136 50.6738 136V132C45.754 132 43.4294 131.998 41.4893 131.82L41.1232 135.803ZM-1.379 93.3005C0.693882 115.86 18.5642 133.73 41.1232 135.803L41.4893 131.82C20.8501 129.923 4.50069 113.574 2.60422 92.9345L-1.379 93.3005ZM-1.57617 83.75C-1.57617 88.581 -1.57829 91.1318 -1.379 93.3005L2.60422 92.9345C2.42594 90.9944 2.42383 88.6698 2.42383 83.75L-1.57617 83.75ZM-1.57617 50.25L-1.57617 83.75L2.42383 83.75L2.42383 50.25L-1.57617 50.25ZM-1.379 40.6994C-1.57828 42.8682 -1.57617 45.419 -1.57617 50.25L2.42383 50.25C2.42383 45.3302 2.42594 43.0056 2.60422 41.0654L-1.379 40.6994ZM41.1233 -1.80283C18.5642 0.270054 0.693886 18.1404 -1.379 40.6994L2.60422 41.0654C4.50069 20.4263 20.8501 4.07686 41.4893 2.18039L41.1233 -1.80283ZM50.6738 -2C45.8428 -2 43.292 -2.00211 41.1233 -1.80283L41.4893 2.18039C43.4294 2.00211 45.754 2 50.6738 2V-2ZM66.2364 116.024C68.2436 118.878 69.6791 120.921 70.6271 122.521C71.5991 124.161 71.8573 125.019 71.8645 125.539L75.8641 125.484C75.8415 123.843 75.0912 122.207 74.0682 120.481C73.0213 118.715 71.4757 116.52 69.508 113.723L66.2364 116.024ZM64.6619 135.182C68.4317 134.472 71.169 134.033 73.2302 131.971L70.4012 129.143C69.4049 130.14 68.1452 130.455 63.9208 131.252L64.6619 135.182ZM71.8645 125.539C71.8831 126.887 71.3539 128.19 70.4012 129.143L73.2302 131.971C74.9462 130.254 75.8976 127.911 75.8641 125.484L71.8645 125.539ZM63.9208 2.74831C68.1452 3.54482 69.4049 3.85999 70.4012 4.85672L73.2302 2.02886C71.169 -0.0331628 68.4317 -0.471649 64.6619 -1.18243L63.9208 2.74831ZM69.508 20.277C71.4757 17.4797 73.0213 15.2851 74.0682 13.5187C75.0912 11.7927 75.8415 10.1569 75.8641 8.51561L71.8645 8.46047C71.8573 8.98137 71.5991 9.83941 70.6271 11.4793C69.6791 13.0788 68.2436 15.1222 66.2364 17.9756L69.508 20.277ZM70.4012 4.85672C71.3539 5.80978 71.8831 7.11303 71.8645 8.46047L75.8641 8.51561C75.8976 6.08856 74.9462 3.74555 73.2302 2.02886L70.4012 4.85672Z" fill="url(#paint1_linear_811_488)" mask="url(#path-1-inside-1_811_488)"/>
</g>
<path d="M28.3102 83.3126L28.3102 77.3726C28.3102 76.4966 28.5562 75.7946 29.0482 75.2666C29.5282 74.7386 30.1702 74.4746 30.9742 74.4746L32.3782 74.4746C33.0142 74.4746 33.5782 74.6786 34.0702 75.0866C34.5502 75.4946 34.8802 76.0406 35.0602 76.7246L35.0782 76.7246C35.2582 76.3646 35.5522 76.0406 35.9602 75.7526C36.3682 75.4646 36.8482 75.2426 37.4002 75.0866L40.9102 74.0786L40.9102 75.0866L37.4002 76.0946C36.7642 76.2866 36.2602 76.5926 35.8882 77.0126C35.5162 77.4206 35.3302 77.8886 35.3302 78.4166L35.3302 82.3226L40.9102 82.3226L40.9102 83.3126L28.3102 83.3126ZM34.4482 77.8226C34.4482 77.1146 34.2622 76.5446 33.8902 76.1126C33.5062 75.6806 33.0022 75.4646 32.3782 75.4646L30.9382 75.4646C30.4102 75.4646 29.9902 75.6386 29.6782 75.9866C29.3542 76.3346 29.1922 76.8026 29.1922 77.3906L29.1922 82.3226L34.4482 82.3226L34.4482 77.8226ZM30.3982 71.0082C30.3982 71.2482 30.3262 71.4462 30.1822 71.6022C30.0382 71.7462 29.8462 71.8182 29.6062 71.8182C29.3662 71.8182 29.1742 71.7462 29.0302 71.6022C28.8742 71.4462 28.7962 71.2482 28.7962 71.0082C28.7962 70.7682 28.8742 70.5762 29.0302 70.4322C29.1742 70.2882 29.3662 70.2162 29.6062 70.2162C29.8342 70.2162 30.0262 70.2882 30.1822 70.4322C30.3262 70.5762 30.3982 70.7682 30.3982 71.0082ZM31.9282 71.4942L31.9282 70.5402L40.9102 70.5402L40.9102 71.4942L31.9282 71.4942ZM31.9282 67.2654L31.9282 66.3294L33.4582 66.3294C32.9422 66.0294 32.5342 65.6514 32.2342 65.1954C31.9342 64.7274 31.7842 64.2534 31.7842 63.7734L31.7842 62.5674C31.7842 61.7874 32.0602 61.1574 32.6122 60.6774C33.1522 60.1854 33.8722 59.9394 34.7722 59.9394L40.9102 59.9394L40.9102 60.8934L34.7542 60.8934C34.1302 60.8934 33.6262 61.0494 33.2422 61.3614C32.8462 61.6734 32.6482 62.0814 32.6482 62.5854L32.6482 63.7554C32.6482 64.2954 32.8702 64.8054 33.3142 65.2854C33.7582 65.7654 34.3342 66.1014 35.0422 66.2934L40.9102 66.2934L40.9102 67.2654L31.9282 67.2654ZM44.5642 54.3337C44.5642 55.0777 44.3662 55.6897 43.9702 56.1697C43.5862 56.6497 43.0762 56.9197 42.4402 56.9797L42.4402 56.0077C42.8242 55.9597 43.1302 55.7857 43.3582 55.4857C43.5982 55.1737 43.7182 54.7897 43.7182 54.3337L43.7182 52.8397C43.7182 52.1677 43.4962 51.6457 43.0522 51.2737C42.6202 50.9017 42.0142 50.7157 41.2342 50.7157L39.4702 50.7157C39.9022 51.0037 40.2502 51.3697 40.5142 51.8137C40.7782 52.2457 40.9102 52.6837 40.9102 53.1277L40.9102 54.4597C40.9102 55.3477 40.6042 56.0677 39.9922 56.6197C39.3802 57.1717 38.5702 57.4477 37.5622 57.4477L35.2402 57.4477C34.2082 57.4477 33.3742 57.1597 32.7382 56.5837C32.1022 55.9957 31.7842 55.2217 31.7842 54.2617L31.7842 52.9297C31.7842 52.4977 31.9042 52.0777 32.1442 51.6697C32.3722 51.2497 32.6782 50.9257 33.0622 50.6977L31.9282 50.6977L31.9282 49.7617L41.2342 49.7617C42.2782 49.7617 43.0942 50.0317 43.6822 50.5717C44.2702 51.1117 44.5642 51.8677 44.5642 52.8397L44.5642 54.3337ZM40.0462 53.1457C40.0462 52.5457 39.8122 52.0237 39.3442 51.5797C38.8642 51.1237 38.3062 50.8357 37.6702 50.7157L34.6822 50.7157C34.0822 50.8237 33.5962 51.0877 33.2242 51.5077C32.8402 51.9157 32.6482 52.3897 32.6482 52.9297L32.6482 54.2437C32.6482 54.9157 32.8882 55.4557 33.3682 55.8637C33.8482 56.2717 34.4722 56.4757 35.2402 56.4757L37.5622 56.4757C38.2942 56.4757 38.8942 56.2897 39.3622 55.9177C39.8182 55.5337 40.0462 55.0417 40.0462 54.4417L40.0462 53.1457Z" fill="url(#paint2_linear_811_488)"/>
<defs>
<linearGradient id="paint0_linear_811_488" x1="7.96916" y1="7.34246" x2="103.337" y2="59.8229" gradientUnits="userSpaceOnUse">
<stop stop-color="#727272"/>
<stop offset="1" stop-color="white"/>
</linearGradient>
<linearGradient id="paint1_linear_811_488" x1="7.96916" y1="7.34246" x2="103.337" y2="59.8229" gradientUnits="userSpaceOnUse">
<stop stop-color="#727272"/>
<stop offset="1" stop-color="white"/>
</linearGradient>
<linearGradient id="paint2_linear_811_488" x1="28.6162" y1="101.035" x2="49.8612" y2="97.893" gradientUnits="userSpaceOnUse">
<stop stop-color="#727272"/>
<stop offset="1" stop-color="white"/>
</linearGradient>
</defs>
</svg>
