<svg width="74" height="134" viewBox="0 0 74 134" fill="none" xmlns="http://www.w3.org/2000/svg">
<g opacity="0.7">
<mask id="path-1-inside-1_811_443" fill="white">
<path fill-rule="evenodd" clip-rule="evenodd" d="M50.2501 -2.14171e-06C55.1255 -1.93391e-06 57.5632 0 59.6176 0.188777C61.0553 0.320882 62.4732 0.520002 63.8679 0.782999C67.865 1.53667 69.8635 1.91351 71.3923 3.44289C72.7266 4.77776 73.4668 6.60089 73.4408 8.48812C73.411 10.6503 71.4236 13.4757 67.4488 19.1263C63.0468 25.3843 60.1989 32.8206 59.4581 40.8824C59.2693 42.9369 59.2693 45.3746 59.2693 50.25V83.75C59.2693 88.6254 59.2693 91.0631 59.4581 93.1175C60.1988 101.179 63.0468 108.616 67.4487 114.874C71.4236 120.524 73.411 123.35 73.4408 125.512C73.4668 127.399 72.7266 129.222 71.3922 130.557C69.8635 132.086 67.865 132.463 63.8679 133.217C62.4731 133.48 61.0553 133.679 59.6176 133.811C57.5632 134 55.1255 134 50.2501 134C45.3747 134 42.937 134 40.8825 133.811C19.2834 131.827 2.17353 114.717 0.188851 93.1175C7.22116e-05 91.0631 7.23209e-05 88.6254 7.25395e-05 83.75L7.40413e-05 50.25C7.42598e-05 45.3746 7.43691e-05 42.9369 0.188853 40.8824C2.17353 19.2833 19.2834 2.17345 40.8825 0.188776C42.937 -2.4534e-06 45.3747 -2.3495e-06 50.2501 -2.14171e-06Z"/>
</mask>
<path fill-rule="evenodd" clip-rule="evenodd" d="M50.2501 -2.14171e-06C55.1255 -1.93391e-06 57.5632 0 59.6176 0.188777C61.0553 0.320882 62.4732 0.520002 63.8679 0.782999C67.865 1.53667 69.8635 1.91351 71.3923 3.44289C72.7266 4.77776 73.4668 6.60089 73.4408 8.48812C73.411 10.6503 71.4236 13.4757 67.4488 19.1263C63.0468 25.3843 60.1989 32.8206 59.4581 40.8824C59.2693 42.9369 59.2693 45.3746 59.2693 50.25V83.75C59.2693 88.6254 59.2693 91.0631 59.4581 93.1175C60.1988 101.179 63.0468 108.616 67.4487 114.874C71.4236 120.524 73.411 123.35 73.4408 125.512C73.4668 127.399 72.7266 129.222 71.3922 130.557C69.8635 132.086 67.865 132.463 63.8679 133.217C62.4731 133.48 61.0553 133.679 59.6176 133.811C57.5632 134 55.1255 134 50.2501 134C45.3747 134 42.937 134 40.8825 133.811C19.2834 131.827 2.17353 114.717 0.188851 93.1175C7.22116e-05 91.0631 7.23209e-05 88.6254 7.25395e-05 83.75L7.40413e-05 50.25C7.42598e-05 45.3746 7.43691e-05 42.9369 0.188853 40.8824C2.17353 19.2833 19.2834 2.17345 40.8825 0.188776C42.937 -2.4534e-06 45.3747 -2.3495e-06 50.2501 -2.14171e-06Z" fill="url(#paint0_linear_811_443)" fill-opacity="0.15"/>
<path d="M59.6176 0.188777L59.8007 -1.80283L59.8007 -1.80283L59.6176 0.188777ZM59.4581 40.8824L61.4497 41.0654L61.4497 41.0654L59.4581 40.8824ZM59.4581 93.1175L57.4665 93.3005L59.4581 93.1175ZM59.6176 133.811L59.4346 131.82L59.4346 131.82L59.6176 133.811ZM40.8825 133.811L41.0655 131.82L41.0655 131.82L40.8825 133.811ZM0.188851 93.1175L2.18046 92.9345L2.18046 92.9345L0.188851 93.1175ZM7.25395e-05 83.75L2.00007 83.75L7.25395e-05 83.75ZM7.40413e-05 50.25L-1.99993 50.25L7.40413e-05 50.25ZM0.188853 40.8824L2.18046 41.0654L2.18046 41.0654L0.188853 40.8824ZM40.8825 0.188776L41.0655 2.18039L41.0655 2.18039L40.8825 0.188776ZM73.4408 125.512L75.4406 125.484L73.4408 125.512ZM63.8679 133.217L64.2385 135.182L63.8679 133.217ZM71.3922 130.557L69.9777 129.143L71.3922 130.557ZM71.3923 3.44289L72.8068 2.02897L71.3923 3.44289ZM67.4488 19.1263L65.8129 17.9757L67.4488 19.1263ZM59.8007 -1.80283C57.6319 -2.00211 55.0811 -2 50.2501 -2L50.2501 2C55.1699 2 57.4945 2.00211 59.4346 2.18039L59.8007 -1.80283ZM64.2385 -1.18237C62.7818 -1.45704 61.3014 -1.66493 59.8007 -1.80283L59.4346 2.18039C60.8093 2.3067 62.1645 2.49704 63.4973 2.74837L64.2385 -1.18237ZM61.4497 41.0654C62.1577 33.3604 64.8786 26.2562 69.0846 20.277L65.8129 17.9757C61.2149 24.5123 58.24 32.2808 57.4665 40.6994L61.4497 41.0654ZM61.2693 50.25C61.2693 45.3302 61.2714 43.0056 61.4497 41.0654L57.4665 40.6994C57.2672 42.8682 57.2693 45.419 57.2693 50.25H61.2693ZM61.2693 83.75V50.25H57.2693V83.75H61.2693ZM61.4497 92.9345C61.2714 90.9944 61.2693 88.6698 61.2693 83.75H57.2693C57.2693 88.581 57.2672 91.1318 57.4665 93.3005L61.4497 92.9345ZM69.0846 113.723C64.8786 107.744 62.1577 100.64 61.4497 92.9345L57.4665 93.3005C58.24 101.719 61.2149 109.488 65.8129 116.024L69.0846 113.723ZM59.8006 135.803C61.3014 135.665 62.7818 135.457 64.2385 135.182L63.4973 131.252C62.1645 131.503 60.8093 131.693 59.4346 131.82L59.8006 135.803ZM50.2501 136C55.0811 136 57.6319 136.002 59.8007 135.803L59.4346 131.82C57.4945 131.998 55.1699 132 50.2501 132V136ZM40.6995 135.803C42.8683 136.002 45.4191 136 50.2501 136V132C45.3303 132 43.0056 131.998 41.0655 131.82L40.6995 135.803ZM-1.80276 93.3005C0.270126 115.86 18.1404 133.73 40.6995 135.803L41.0655 131.82C20.4264 129.923 4.07693 113.574 2.18046 92.9345L-1.80276 93.3005ZM-1.99993 83.75C-1.99993 88.581 -2.00204 91.1318 -1.80276 93.3005L2.18046 92.9345C2.00219 90.9944 2.00007 88.6698 2.00007 83.75L-1.99993 83.75ZM-1.99993 50.25L-1.99993 83.75L2.00007 83.75L2.00007 50.25L-1.99993 50.25ZM-1.80276 40.6994C-2.00204 42.8682 -1.99993 45.419 -1.99993 50.25L2.00007 50.25C2.00007 45.3302 2.00219 43.0056 2.18046 41.0654L-1.80276 40.6994ZM40.6995 -1.80283C18.1404 0.270052 0.270131 18.1404 -1.80276 40.6994L2.18046 41.0654C4.07693 20.4263 20.4264 4.07686 41.0655 2.18039L40.6995 -1.80283ZM50.2501 -2C45.4191 -2 42.8683 -2.00212 40.6995 -1.80283L41.0655 2.18039C43.0056 2.00211 45.3303 2 50.2501 2L50.2501 -2ZM65.8129 116.024C67.8201 118.878 69.2556 120.921 70.2036 122.521C71.1755 124.16 71.4338 125.019 71.441 125.539L75.4406 125.484C75.418 123.843 74.6676 122.207 73.6447 120.481C72.5978 118.715 71.0522 116.52 69.0846 113.723L65.8129 116.024ZM64.2385 135.182C68.0082 134.472 70.7456 134.033 72.8067 131.971L69.9777 129.143C68.9814 130.14 67.7217 130.455 63.4973 131.252L64.2385 135.182ZM71.441 125.539C71.4596 126.887 70.9304 128.19 69.9777 129.143L72.8067 131.971C74.5227 130.254 75.4741 127.911 75.4406 125.484L71.441 125.539ZM63.4973 2.74837C67.7217 3.54491 68.9814 3.86008 69.9777 4.85681L72.8068 2.02897C70.7456 -0.0330565 68.0082 -0.471561 64.2385 -1.18237L63.4973 2.74837ZM69.0846 20.277C71.0522 17.4798 72.5978 15.2851 73.6447 13.5188C74.6677 11.7927 75.418 10.157 75.4406 8.5157L71.441 8.46055C71.4338 8.98146 71.1756 9.83949 70.2036 11.4794C69.2556 13.0789 67.8201 15.1222 65.8129 17.9757L69.0846 20.277ZM69.9777 4.85681C70.9304 5.80988 71.4596 7.11312 71.441 8.46055L75.4406 8.5157C75.4741 6.08867 74.5227 3.74565 72.8068 2.02897L69.9777 4.85681Z" fill="url(#paint1_linear_811_443)" mask="url(#path-1-inside-1_811_443)"/>
</g>
<path d="M27.8873 81.379L27.8873 80.389L36.5273 75.763L27.8873 71.263L27.8873 70.291L40.4873 70.291L40.4873 71.263L29.7413 71.263L37.4093 75.277C37.5653 75.361 37.6733 75.439 37.7333 75.511C37.7933 75.571 37.8233 75.643 37.8233 75.727L37.8233 76.033L29.7413 80.407L40.4873 80.407L40.4873 81.379L27.8873 81.379ZM40.6313 64.7994C40.6313 65.6394 40.4153 66.3114 39.9833 66.8154C39.5393 67.3194 38.9513 67.5714 38.2193 67.5714L37.5353 67.5714C36.8033 67.5714 36.2213 67.3134 35.7893 66.7974C35.3573 66.2814 35.1413 65.5974 35.1413 64.7454L35.1413 63.5754C35.1413 63.1674 35.2073 62.7474 35.3393 62.3154C35.4713 61.8714 35.6513 61.4934 35.8793 61.1814L34.1333 61.1814C33.5693 61.1814 33.1073 61.3554 32.7473 61.7034C32.3873 62.0514 32.2073 62.5014 32.2073 63.0534L32.2073 64.4574C32.2073 65.0214 32.3393 65.4774 32.6033 65.8254C32.8673 66.1734 33.2213 66.3474 33.6653 66.3474L33.6653 67.3194C32.9693 67.3194 32.4113 67.0554 31.9913 66.5274C31.5713 65.9994 31.3613 65.3094 31.3613 64.4574L31.3613 63.0534C31.3613 62.2014 31.6133 61.5234 32.1173 61.0194C32.6213 60.5034 33.2933 60.2454 34.1333 60.2454L40.4873 60.2454L40.4873 61.1634L39.0833 61.1634C39.5633 61.4754 39.9413 61.8594 40.2173 62.3154C40.4933 62.7714 40.6313 63.2334 40.6313 63.7014L40.6313 64.7994ZM39.7673 63.6834C39.7673 63.1794 39.5873 62.6994 39.2273 62.2434C38.8673 61.7754 38.3933 61.4214 37.8053 61.1814L36.8333 61.1814C36.5813 61.4454 36.3773 61.7994 36.2213 62.2434C36.0653 62.6754 35.9873 63.1194 35.9873 63.5754L35.9873 64.7454C35.9873 65.3094 36.1313 65.7594 36.4193 66.0954C36.6953 66.4314 37.0673 66.5994 37.5353 66.5994L38.2193 66.5994C38.6873 66.5994 39.0653 66.4374 39.3533 66.1134C39.6293 65.7894 39.7673 65.3514 39.7673 64.7994L39.7673 63.6834ZM35.8793 55.1001L31.5053 58.3041L31.5053 57.2061L35.1413 54.5421L31.5053 51.8961L31.5053 50.7981L35.8793 54.0021L40.4873 50.6361L40.4873 51.7341L36.6353 54.5421L40.4873 57.3681L40.4873 58.4661L35.8793 55.1001Z" fill="url(#paint2_linear_811_443)"/>
<defs>
<linearGradient id="paint0_linear_811_443" x1="62.3444" y1="18.0586" x2="-18.1744" y2="49.1417" gradientUnits="userSpaceOnUse">
<stop stop-color="#FCB433"/>
<stop offset="1" stop-color="#966B1E"/>
</linearGradient>
<linearGradient id="paint1_linear_811_443" x1="62.3444" y1="18.0586" x2="-18.1744" y2="49.1417" gradientUnits="userSpaceOnUse">
<stop stop-color="#FCB433"/>
<stop offset="1" stop-color="#966B1E"/>
</linearGradient>
<linearGradient id="paint2_linear_811_443" x1="29.2237" y1="35.7035" x2="51.1333" y2="40.6898" gradientUnits="userSpaceOnUse">
<stop stop-color="#FCB433"/>
<stop offset="1" stop-color="#966B1E"/>
</linearGradient>
</defs>
</svg>
