<svg width="74" height="134" viewBox="0 0 74 134" fill="none" xmlns="http://www.w3.org/2000/svg">
<g opacity="0.7">
<mask id="path-1-inside-1_811_479" fill="white">
<path fill-rule="evenodd" clip-rule="evenodd" d="M50.25 4.35678e-10C55.1254 2.08231e-07 57.5631 2.14214e-06 59.6176 0.188779C61.0553 0.320885 62.4731 0.520004 63.8679 0.783001C67.8649 1.53668 69.8634 1.91351 71.3922 3.44289C72.7265 4.77777 73.4668 6.60089 73.4407 8.48813C73.4109 10.6503 71.4235 13.4757 67.4487 19.1263C63.0467 25.3843 60.1988 32.8206 59.458 40.8824C59.2692 42.9369 59.2692 45.3746 59.2692 50.25V83.75C59.2692 88.6254 59.2692 91.0631 59.458 93.1175C60.1988 101.179 63.0467 108.616 67.4487 114.874C71.4235 120.524 73.4109 123.35 73.4407 125.512C73.4668 127.399 72.7265 129.222 71.3922 130.557C69.8634 132.086 67.8649 132.463 63.8678 133.217C62.4731 133.48 61.0553 133.679 59.6176 133.811C57.5631 134 55.1254 134 50.25 134C45.3746 134 42.9369 134 40.8824 133.811C19.2833 131.827 2.17346 114.717 0.188778 93.1175C-3.27377e-07 91.0631 -2.18093e-07 88.6254 4.69967e-10 83.75L1.50226e-06 50.25C1.72082e-06 45.3746 1.8301e-06 42.9369 0.18878 40.8824C2.17346 19.2833 19.2833 2.17346 40.8824 0.188778C42.9369 -3.11257e-07 45.3746 -2.0736e-07 50.25 4.35678e-10Z"/>
</mask>
<path fill-rule="evenodd" clip-rule="evenodd" d="M50.25 4.35678e-10C55.1254 2.08231e-07 57.5631 2.14214e-06 59.6176 0.188779C61.0553 0.320885 62.4731 0.520004 63.8679 0.783001C67.8649 1.53668 69.8634 1.91351 71.3922 3.44289C72.7265 4.77777 73.4668 6.60089 73.4407 8.48813C73.4109 10.6503 71.4235 13.4757 67.4487 19.1263C63.0467 25.3843 60.1988 32.8206 59.458 40.8824C59.2692 42.9369 59.2692 45.3746 59.2692 50.25V83.75C59.2692 88.6254 59.2692 91.0631 59.458 93.1175C60.1988 101.179 63.0467 108.616 67.4487 114.874C71.4235 120.524 73.4109 123.35 73.4407 125.512C73.4668 127.399 72.7265 129.222 71.3922 130.557C69.8634 132.086 67.8649 132.463 63.8678 133.217C62.4731 133.48 61.0553 133.679 59.6176 133.811C57.5631 134 55.1254 134 50.25 134C45.3746 134 42.9369 134 40.8824 133.811C19.2833 131.827 2.17346 114.717 0.188778 93.1175C-3.27377e-07 91.0631 -2.18093e-07 88.6254 4.69967e-10 83.75L1.50226e-06 50.25C1.72082e-06 45.3746 1.8301e-06 42.9369 0.18878 40.8824C2.17346 19.2833 19.2833 2.17346 40.8824 0.188778C42.9369 -3.11257e-07 45.3746 -2.0736e-07 50.25 4.35678e-10Z" fill="url(#paint0_linear_811_479)" fill-opacity="0.15"/>
<path d="M59.6176 0.188779L59.8006 -1.80283L59.8006 -1.80283L59.6176 0.188779ZM59.458 40.8824L61.4496 41.0654L61.4496 41.0654L59.458 40.8824ZM59.458 93.1175L57.4664 93.3005L59.458 93.1175ZM59.6176 133.811L59.4346 131.82L59.4346 131.82L59.6176 133.811ZM40.8824 133.811L41.0654 131.82L41.0654 131.82L40.8824 133.811ZM0.188778 93.1175L2.18039 92.9345L2.18039 92.9345L0.188778 93.1175ZM4.69967e-10 83.75L2 83.75L4.69967e-10 83.75ZM1.50226e-06 50.25L-2 50.25L1.50226e-06 50.25ZM0.18878 40.8824L2.18039 41.0654L2.18039 41.0654L0.18878 40.8824ZM40.8824 0.188778L41.0654 2.18039L41.0654 2.18039L40.8824 0.188778ZM73.4407 125.512L75.4405 125.484L73.4407 125.512ZM63.8678 133.217L64.2384 135.182L63.8678 133.217ZM71.3922 130.557L69.9777 129.143L71.3922 130.557ZM71.3922 3.44289L72.8067 2.02897L71.3922 3.44289ZM67.4487 19.1263L65.8129 17.9757L67.4487 19.1263ZM59.8006 -1.80283C57.6318 -2.00211 55.081 -2 50.25 -2L50.25 2C55.1698 2 57.4944 2.00212 59.4346 2.18039L59.8006 -1.80283ZM64.2384 -1.18237C62.7818 -1.45704 61.3014 -1.66493 59.8006 -1.80283L59.4346 2.18039C60.8092 2.3067 62.1644 2.49705 63.4973 2.74837L64.2384 -1.18237ZM61.4496 41.0654C62.1576 33.3604 64.8786 26.2562 69.0845 20.277L65.8129 17.9757C61.2148 24.5123 58.24 32.2808 57.4664 40.6994L61.4496 41.0654ZM61.2692 50.25C61.2692 45.3302 61.2713 43.0056 61.4496 41.0654L57.4664 40.6994C57.2671 42.8682 57.2692 45.419 57.2692 50.25H61.2692ZM61.2692 83.75V50.25H57.2692V83.75H61.2692ZM61.4496 92.9345C61.2713 90.9944 61.2692 88.6698 61.2692 83.75H57.2692C57.2692 88.581 57.2671 91.1318 57.4664 93.3005L61.4496 92.9345ZM69.0845 113.723C64.8786 107.744 62.1576 100.64 61.4496 92.9345L57.4664 93.3005C58.24 101.719 61.2148 109.488 65.8128 116.024L69.0845 113.723ZM59.8006 135.803C61.3013 135.665 62.7817 135.457 64.2384 135.182L63.4973 131.252C62.1644 131.503 60.8092 131.693 59.4346 131.82L59.8006 135.803ZM50.25 136C55.081 136 57.6318 136.002 59.8006 135.803L59.4346 131.82C57.4944 131.998 55.1698 132 50.25 132V136ZM40.6994 135.803C42.8682 136.002 45.419 136 50.25 136V132C45.3302 132 43.0056 131.998 41.0654 131.82L40.6994 135.803ZM-1.80283 93.3005C0.270054 115.86 18.1404 133.73 40.6994 135.803L41.0654 131.82C20.4263 129.923 4.07686 113.574 2.18039 92.9345L-1.80283 93.3005ZM-2 83.75C-2 88.581 -2.00212 91.1318 -1.80283 93.3005L2.18039 92.9345C2.00211 90.9944 2 88.6698 2 83.75L-2 83.75ZM-2 50.25L-2 83.75L2 83.75L2 50.25L-2 50.25ZM-1.80283 40.6994C-2.00211 42.8682 -2 45.419 -2 50.25L2 50.25C2 45.3302 2.00212 43.0056 2.18039 41.0654L-1.80283 40.6994ZM40.6994 -1.80283C18.1404 0.270054 0.270058 18.1404 -1.80283 40.6994L2.18039 41.0654C4.07686 20.4263 20.4263 4.07686 41.0654 2.18039L40.6994 -1.80283ZM50.25 -2C45.419 -2 42.8682 -2.00212 40.6994 -1.80283L41.0654 2.18039C43.0056 2.00211 45.3302 2 50.25 2L50.25 -2ZM65.8128 116.024C67.82 118.878 69.2556 120.921 70.2036 122.521C71.1755 124.16 71.4337 125.019 71.4409 125.539L75.4405 125.484C75.4179 123.843 74.6676 122.207 73.6446 120.481C72.5977 118.715 71.0522 116.52 69.0845 113.723L65.8128 116.024ZM64.2384 135.182C68.0081 134.472 70.7455 134.033 72.8067 131.971L69.9777 129.143C68.9813 130.14 67.7217 130.455 63.4973 131.252L64.2384 135.182ZM71.4409 125.539C71.4595 126.887 70.9303 128.19 69.9777 129.143L72.8067 131.971C74.5227 130.254 75.474 127.911 75.4405 125.484L71.4409 125.539ZM63.4973 2.74837C67.7217 3.54491 68.9814 3.86008 69.9777 4.85681L72.8067 2.02897C70.7455 -0.0330543 68.0081 -0.471559 64.2384 -1.18237L63.4973 2.74837ZM69.0845 20.277C71.0522 17.4798 72.5977 15.2851 73.6446 13.5188C74.6676 11.7927 75.4179 10.157 75.4406 8.5157L71.4409 8.46055C71.4338 8.98146 71.1755 9.83949 70.2036 11.4794C69.2556 13.0789 67.82 15.1222 65.8129 17.9757L69.0845 20.277ZM69.9777 4.85681C70.9303 5.80988 71.4595 7.11312 71.4409 8.46055L75.4406 8.5157C75.474 6.08867 74.5227 3.74566 72.8067 2.02897L69.9777 4.85681Z" fill="url(#paint1_linear_811_479)" mask="url(#path-1-inside-1_811_479)"/>
</g>
<path d="M27.8873 79.4805L27.8873 78.4905L36.5273 73.8645L27.8873 69.3645L27.8873 68.3925L40.4873 68.3925L40.4873 69.3645L29.7413 69.3645L37.4093 73.3785C37.5653 73.4625 37.6733 73.5405 37.7333 73.6125C37.7933 73.6725 37.8233 73.7445 37.8233 73.8285L37.8233 74.1345L29.7413 78.5085L40.4873 78.5085L40.4873 79.4805L27.8873 79.4805ZM29.9753 64.557C29.9753 64.797 29.9033 64.995 29.7593 65.151C29.6153 65.295 29.4233 65.367 29.1833 65.367C28.9433 65.367 28.7513 65.295 28.6073 65.151C28.4513 64.995 28.3733 64.797 28.3733 64.557C28.3733 64.317 28.4513 64.125 28.6073 63.981C28.7513 63.837 28.9433 63.765 29.1833 63.765C29.4113 63.765 29.6033 63.837 29.7593 63.981C29.9033 64.125 29.9753 64.317 29.9753 64.557ZM31.5053 65.043L31.5053 64.089L40.4873 64.089L40.4873 65.043L31.5053 65.043ZM31.5053 60.8143L31.5053 59.8783L33.0353 59.8783C32.5193 59.5783 32.1113 59.2003 31.8113 58.7443C31.5113 58.2763 31.3613 57.8023 31.3613 57.3223L31.3613 56.1163C31.3613 55.3363 31.6373 54.7063 32.1893 54.2263C32.7293 53.7343 33.4493 53.4883 34.3493 53.4883L40.4873 53.4883L40.4873 54.4423L34.3313 54.4423C33.7073 54.4423 33.2033 54.5983 32.8193 54.9103C32.4233 55.2223 32.2253 55.6303 32.2253 56.1343L32.2253 57.3043C32.2253 57.8443 32.4473 58.3543 32.8913 58.8343C33.3353 59.3143 33.9113 59.6503 34.6193 59.8423L40.4873 59.8423L40.4873 60.8143L31.5053 60.8143Z" fill="url(#paint2_linear_811_479)"/>
<defs>
<linearGradient id="paint0_linear_811_479" x1="67.0552" y1="18.0586" x2="-17.8213" y2="53.2997" gradientUnits="userSpaceOnUse">
<stop stop-color="#FCB433"/>
<stop offset="1" stop-color="#966B1E"/>
</linearGradient>
<linearGradient id="paint1_linear_811_479" x1="67.0552" y1="18.0586" x2="-17.8213" y2="53.2997" gradientUnits="userSpaceOnUse">
<stop stop-color="#FCB433"/>
<stop offset="1" stop-color="#966B1E"/>
</linearGradient>
<linearGradient id="paint2_linear_811_479" x1="29.2237" y1="35.7035" x2="51.1333" y2="40.6898" gradientUnits="userSpaceOnUse">
<stop stop-color="#FCB433"/>
<stop offset="1" stop-color="#966B1E"/>
</linearGradient>
</defs>
</svg>
