<svg width="74" height="134" viewBox="0 0 74 134" fill="none" xmlns="http://www.w3.org/2000/svg">
<g opacity="0.7">
<mask id="path-1-inside-1_811_452" fill="white">
<path fill-rule="evenodd" clip-rule="evenodd" d="M50.6738 0C55.5492 0 57.9869 0 60.0414 0.188779C61.479 0.320874 62.8967 0.519972 64.2913 0.782938C68.2884 1.53659 70.287 1.91341 71.8157 3.44279C73.1501 4.77766 73.8903 6.60079 73.8643 8.48804C73.8345 10.6503 71.8471 13.4756 67.8722 19.1263C63.4702 25.3843 60.6223 32.8206 59.8815 40.8824C59.6927 42.9369 59.6927 45.3746 59.6927 50.25V83.75C59.6927 88.6254 59.6927 91.0631 59.8815 93.1175C60.6223 101.179 63.4702 108.616 67.8722 114.874C71.8471 120.524 73.8345 123.35 73.8643 125.512C73.8903 127.399 73.1501 129.222 71.8157 130.557C70.287 132.087 68.2884 132.463 64.2913 133.217C62.8967 133.48 61.479 133.679 60.0414 133.811C57.9869 134 55.5492 134 50.6738 134C45.7984 134 43.3607 134 41.3062 133.811C19.7071 131.827 2.59728 114.717 0.612602 93.1175C0.423824 91.0631 0.423824 88.6254 0.423824 83.75L0.423826 50.25C0.423826 45.3746 0.423826 42.9369 0.612605 40.8824C2.59728 19.2833 19.7072 2.17346 41.3063 0.188778C43.3607 0 45.7984 0 50.6738 0Z"/>
</mask>
<path fill-rule="evenodd" clip-rule="evenodd" d="M50.6738 0C55.5492 0 57.9869 0 60.0414 0.188779C61.479 0.320874 62.8967 0.519972 64.2913 0.782938C68.2884 1.53659 70.287 1.91341 71.8157 3.44279C73.1501 4.77766 73.8903 6.60079 73.8643 8.48804C73.8345 10.6503 71.8471 13.4756 67.8722 19.1263C63.4702 25.3843 60.6223 32.8206 59.8815 40.8824C59.6927 42.9369 59.6927 45.3746 59.6927 50.25V83.75C59.6927 88.6254 59.6927 91.0631 59.8815 93.1175C60.6223 101.179 63.4702 108.616 67.8722 114.874C71.8471 120.524 73.8345 123.35 73.8643 125.512C73.8903 127.399 73.1501 129.222 71.8157 130.557C70.287 132.087 68.2884 132.463 64.2913 133.217C62.8967 133.48 61.479 133.679 60.0414 133.811C57.9869 134 55.5492 134 50.6738 134C45.7984 134 43.3607 134 41.3062 133.811C19.7071 131.827 2.59728 114.717 0.612602 93.1175C0.423824 91.0631 0.423824 88.6254 0.423824 83.75L0.423826 50.25C0.423826 45.3746 0.423826 42.9369 0.612605 40.8824C2.59728 19.2833 19.7072 2.17346 41.3063 0.188778C43.3607 0 45.7984 0 50.6738 0Z" fill="url(#paint0_linear_811_452)" fill-opacity="0.15"/>
<path d="M60.0414 0.188779L59.8584 2.18039L59.8584 2.18039L60.0414 0.188779ZM59.8815 40.8824L61.8731 41.0654L61.8731 41.0654L59.8815 40.8824ZM59.8815 93.1175L57.8899 93.3005L57.8899 93.3005L59.8815 93.1175ZM60.0414 133.811L59.8584 131.82L59.8584 131.82L60.0414 133.811ZM41.3062 133.811L41.4893 131.82L41.4893 131.82L41.3062 133.811ZM0.612602 93.1175L2.60421 92.9345L2.60421 92.9345L0.612602 93.1175ZM0.423824 83.75L2.42382 83.75L0.423824 83.75ZM0.423826 50.25L2.42383 50.25L0.423826 50.25ZM0.612605 40.8824L2.60421 41.0654L2.60421 41.0654L0.612605 40.8824ZM41.3063 0.188778L41.1233 -1.80283L41.1233 -1.80283L41.3063 0.188778ZM73.8643 125.512L71.8645 125.539L73.8643 125.512ZM64.2913 133.217L64.6619 135.182L64.2913 133.217ZM71.8157 130.557L70.4012 129.143L71.8157 130.557ZM71.8157 3.44279L70.4012 4.85672L71.8157 3.44279ZM67.8722 19.1263L66.2364 17.9756L67.8722 19.1263ZM73.8643 8.48804L75.8641 8.51561L73.8643 8.48804ZM60.2244 -1.80283C58.0556 -2.00211 55.5048 -2 50.6738 -2V2C55.5936 2 57.9183 2.00211 59.8584 2.18039L60.2244 -1.80283ZM64.6619 -1.18243C63.2053 -1.45707 61.7251 -1.66494 60.2244 -1.80283L59.8584 2.18039C61.2329 2.30669 62.588 2.49701 63.9208 2.74831L64.6619 -1.18243ZM61.8731 41.0654C62.5811 33.3604 65.3021 26.2562 69.508 20.277L66.2364 17.9756C61.6383 24.5123 58.6635 32.2808 57.8899 40.6994L61.8731 41.0654ZM61.6927 50.25C61.6927 45.3302 61.6949 43.0056 61.8731 41.0654L57.8899 40.6994C57.6906 42.8682 57.6927 45.419 57.6927 50.25H61.6927ZM61.6927 83.75V50.25H57.6927V83.75H61.6927ZM61.8731 92.9345C61.6949 90.9944 61.6927 88.6698 61.6927 83.75H57.6927C57.6927 88.581 57.6906 91.1318 57.8899 93.3005L61.8731 92.9345ZM69.508 113.723C65.3021 107.744 62.5811 100.64 61.8731 92.9345L57.8899 93.3005C58.6635 101.719 61.6383 109.488 66.2364 116.024L69.508 113.723ZM60.2244 135.803C61.7251 135.665 63.2053 135.457 64.6619 135.182L63.9208 131.252C62.588 131.503 61.2329 131.693 59.8584 131.82L60.2244 135.803ZM50.6738 136C55.5048 136 58.0556 136.002 60.2244 135.803L59.8584 131.82C57.9183 131.998 55.5936 132 50.6738 132V136ZM41.1232 135.803C43.292 136.002 45.8428 136 50.6738 136V132C45.754 132 43.4294 131.998 41.4893 131.82L41.1232 135.803ZM-1.37901 93.3005C0.693878 115.86 18.5642 133.73 41.1232 135.803L41.4893 131.82C20.8501 129.923 4.50068 113.574 2.60421 92.9345L-1.37901 93.3005ZM-1.57618 83.75C-1.57618 88.581 -1.57829 91.1318 -1.37901 93.3005L2.60421 92.9345C2.42594 90.9944 2.42382 88.6698 2.42382 83.75L-1.57618 83.75ZM-1.57617 50.25L-1.57618 83.75L2.42382 83.75L2.42383 50.25L-1.57617 50.25ZM-1.37901 40.6994C-1.57829 42.8682 -1.57617 45.419 -1.57617 50.25L2.42383 50.25C2.42383 45.3302 2.42594 43.0056 2.60421 41.0654L-1.37901 40.6994ZM41.1233 -1.80283C18.5642 0.270054 0.693883 18.1404 -1.37901 40.6994L2.60421 41.0654C4.50069 20.4263 20.8501 4.07686 41.4893 2.18039L41.1233 -1.80283ZM50.6738 -2C45.8428 -2 43.292 -2.00211 41.1233 -1.80283L41.4893 2.18039C43.4294 2.00211 45.754 2 50.6738 2V-2ZM66.2364 116.024C68.2436 118.878 69.6791 120.921 70.6271 122.521C71.5991 124.161 71.8573 125.019 71.8645 125.539L75.8641 125.484C75.8415 123.843 75.0912 122.207 74.0682 120.481C73.0213 118.715 71.4757 116.52 69.508 113.723L66.2364 116.024ZM64.6619 135.182C68.4317 134.472 71.169 134.033 73.2302 131.971L70.4012 129.143C69.4049 130.14 68.1452 130.455 63.9208 131.252L64.6619 135.182ZM71.8645 125.539C71.8831 126.887 71.3539 128.19 70.4012 129.143L73.2302 131.971C74.9462 130.254 75.8976 127.911 75.8641 125.484L71.8645 125.539ZM63.9208 2.74831C68.1452 3.54482 69.4049 3.85999 70.4012 4.85672L73.2302 2.02886C71.169 -0.0331628 68.4317 -0.471649 64.6619 -1.18243L63.9208 2.74831ZM69.508 20.277C71.4757 17.4797 73.0213 15.2851 74.0682 13.5187C75.0912 11.7927 75.8415 10.1569 75.8641 8.51561L71.8645 8.46047C71.8573 8.98137 71.5991 9.83941 70.6271 11.4793C69.6791 13.0788 68.2436 15.1222 66.2364 17.9756L69.508 20.277ZM70.4012 4.85672C71.3539 5.80978 71.8831 7.11303 71.8645 8.46047L75.8641 8.51561C75.8976 6.08856 74.9462 3.74555 73.2302 2.02886L70.4012 4.85672Z" fill="url(#paint1_linear_811_452)" mask="url(#path-1-inside-1_811_452)"/>
</g>
<path d="M28.3102 86.1602L28.3102 85.1702L34.1062 85.1702L34.1062 77.8982L28.3102 77.8982L28.3102 76.9082L40.9102 76.9082L40.9102 77.8982L34.9882 77.8982L34.9882 85.1702L40.9102 85.1702L40.9102 86.1602L28.3102 86.1602ZM41.0542 71.0844C41.0542 72.0324 40.7662 72.8004 40.1902 73.3884C39.6142 73.9644 38.8522 74.2524 37.9042 74.2524L35.1142 74.2524C34.1182 74.2524 33.3142 73.9644 32.7022 73.3884C32.0902 72.8004 31.7842 72.0324 31.7842 71.0844L31.7842 69.6084C31.7842 68.6964 32.0842 67.9644 32.6842 67.4124C33.2722 66.8484 34.0582 66.5664 35.0422 66.5664L36.5542 66.5664L36.5542 73.2804L37.9042 73.2804C38.5882 73.2804 39.1402 73.0824 39.5602 72.6864C39.9802 72.2784 40.1902 71.7444 40.1902 71.0844L40.1902 69.7164C40.1902 69.0684 40.0042 68.5464 39.6322 68.1504C39.2482 67.7424 38.7502 67.5384 38.1382 67.5384L38.1382 66.6024C39.0142 66.6024 39.7222 66.8904 40.2622 67.4664C40.7902 68.0304 41.0542 68.7804 41.0542 69.7164L41.0542 71.0844ZM35.7262 67.5204L35.0422 67.5204C34.3222 67.5204 33.7462 67.7124 33.3142 68.0964C32.8702 68.4804 32.6482 68.9844 32.6482 69.6084L32.6482 71.0844C32.6482 71.7444 32.8762 72.2784 33.3322 72.6864C33.7882 73.0824 34.3822 73.2804 35.1142 73.2804L35.7262 73.2804L35.7262 67.5204ZM41.0542 61.6178C41.0542 62.4578 40.8382 63.1298 40.4062 63.6338C39.9622 64.1378 39.3742 64.3898 38.6422 64.3898L37.9582 64.3898C37.2262 64.3898 36.6442 64.1318 36.2122 63.6158C35.7802 63.0998 35.5642 62.4158 35.5642 61.5638L35.5642 60.3938C35.5642 59.9858 35.6302 59.5658 35.7622 59.1338C35.8942 58.6898 36.0742 58.3118 36.3022 57.9998L34.5562 57.9998C33.9922 57.9998 33.5302 58.1738 33.1702 58.5218C32.8102 58.8698 32.6302 59.3198 32.6302 59.8718L32.6302 61.2758C32.6302 61.8398 32.7622 62.2958 33.0262 62.6438C33.2902 62.9918 33.6442 63.1658 34.0882 63.1658L34.0882 64.1378C33.3922 64.1378 32.8342 63.8738 32.4142 63.3458C31.9942 62.8178 31.7842 62.1278 31.7842 61.2758L31.7842 59.8718C31.7842 59.0198 32.0362 58.3418 32.5402 57.8378C33.0442 57.3218 33.7162 57.0638 34.5562 57.0638L40.9102 57.0638L40.9102 57.9818L39.5062 57.9818C39.9862 58.2938 40.3642 58.6778 40.6402 59.1338C40.9162 59.5898 41.0542 60.0518 41.0542 60.5198L41.0542 61.6178ZM40.1902 60.5018C40.1902 59.9978 40.0102 59.5178 39.6502 59.0618C39.2902 58.5938 38.8162 58.2398 38.2282 57.9998L37.2562 57.9998C37.0042 58.2638 36.8002 58.6178 36.6442 59.0618C36.4882 59.4938 36.4102 59.9378 36.4102 60.3938L36.4102 61.5638C36.4102 62.1278 36.5542 62.5778 36.8422 62.9138C37.1182 63.2498 37.4902 63.4178 37.9582 63.4178L38.6422 63.4178C39.1102 63.4178 39.4882 63.2558 39.7762 62.9318C40.0522 62.6078 40.1902 62.1698 40.1902 61.6178L40.1902 60.5018ZM41.0542 51.5945C41.0542 52.4825 40.7482 53.2025 40.1362 53.7545C39.5122 54.3065 38.6962 54.5825 37.6882 54.5825L35.2762 54.5825C34.2322 54.5825 33.3922 54.2945 32.7562 53.7185C32.1082 53.1305 31.7842 52.3625 31.7842 51.4145L31.7842 50.0465C31.7842 49.6265 31.8982 49.2185 32.1262 48.8225C32.3422 48.4145 32.6362 48.0905 33.0082 47.8505L28.3102 47.8505L28.3102 46.8965L40.9102 46.8965L40.9102 47.8325L39.3982 47.8325C39.9142 48.1325 40.3222 48.5045 40.6222 48.9485C40.9102 49.3805 41.0542 49.8365 41.0542 50.3165L41.0542 51.5945ZM40.1902 50.3345C40.1902 49.7705 39.9442 49.2485 39.4522 48.7685C38.9482 48.2885 38.3422 47.9825 37.6342 47.8505L34.7182 47.8505C34.1062 47.9705 33.6082 48.2345 33.2242 48.6425C32.8402 49.0505 32.6482 49.5245 32.6482 50.0645L32.6482 51.3965C32.6482 52.0685 32.8882 52.6085 33.3682 53.0165C33.8482 53.4125 34.4842 53.6105 35.2762 53.6105L37.6882 53.6105C38.4322 53.6105 39.0382 53.4245 39.5062 53.0525C39.9622 52.6685 40.1902 52.1765 40.1902 51.5765L40.1902 50.3345Z" fill="url(#paint2_linear_811_452)"/>
<defs>
<linearGradient id="paint0_linear_811_452" x1="7.43909" y1="7.34246" x2="98.9919" y2="54.1844" gradientUnits="userSpaceOnUse">
<stop stop-color="#727272"/>
<stop offset="1" stop-color="white"/>
</linearGradient>
<linearGradient id="paint1_linear_811_452" x1="7.43909" y1="7.34246" x2="98.9919" y2="54.1844" gradientUnits="userSpaceOnUse">
<stop stop-color="#727272"/>
<stop offset="1" stop-color="white"/>
</linearGradient>
<linearGradient id="paint2_linear_811_452" x1="28.6162" y1="101.035" x2="49.8612" y2="97.893" gradientUnits="userSpaceOnUse">
<stop stop-color="#727272"/>
<stop offset="1" stop-color="white"/>
</linearGradient>
</defs>
</svg>
