<svg width="214" height="16" viewBox="0 0 214 16" fill="none" xmlns="http://www.w3.org/2000/svg">
<path d="M6.67219 5.596H4.00819V4.6H10.4762V5.596H7.81219V13H6.67219V5.596ZM12.0668 6.22C11.8348 6.22 11.6468 6.152 11.5028 6.016C11.3588 5.872 11.2868 5.688 11.2868 5.464C11.2868 5.24 11.3588 5.06 11.5028 4.924C11.6468 4.78 11.8348 4.708 12.0668 4.708C12.2988 4.708 12.4828 4.78 12.6188 4.924C12.7628 5.06 12.8348 5.24 12.8348 5.464C12.8348 5.688 12.7628 5.872 12.6188 6.016C12.4828 6.152 12.2988 6.22 12.0668 6.22ZM11.5028 7.012H12.6188V13H11.5028V7.012ZM21.1694 6.916C21.7214 6.916 22.1614 7.096 22.4894 7.456C22.8174 7.808 22.9814 8.292 22.9814 8.908V13H21.8654V8.896C21.8654 8.592 21.7934 8.352 21.6494 8.176C21.5054 7.992 21.3174 7.9 21.0854 7.9H20.4614C20.1574 7.9 19.9014 8.008 19.6934 8.224C19.4934 8.432 19.3654 8.72 19.3094 9.088V13H18.1814V8.944C18.1814 8.616 18.1134 8.36 17.9774 8.176C17.8494 7.992 17.6734 7.9 17.4494 7.9H16.8374C16.5334 7.9 16.2694 8.032 16.0454 8.296C15.8214 8.552 15.6814 8.892 15.6254 9.316V13H14.5094V7.012H15.5774V7.816C15.7374 7.536 15.9334 7.316 16.1654 7.156C16.4054 6.996 16.6494 6.916 16.8974 6.916H17.5934C17.9134 6.916 18.1894 6.996 18.4214 7.156C18.6614 7.316 18.8494 7.544 18.9854 7.84C19.1614 7.536 19.3774 7.308 19.6334 7.156C19.8894 6.996 20.1654 6.916 20.4614 6.916H21.1694ZM26.6875 13.096C25.9835 13.096 25.4155 12.896 24.9835 12.496C24.5595 12.088 24.3475 11.556 24.3475 10.9V9.244C24.3475 8.54 24.5595 7.976 24.9835 7.552C25.4155 7.128 25.9835 6.916 26.6875 6.916H27.6715C28.3515 6.916 28.8995 7.124 29.3155 7.54C29.7315 7.956 29.9395 8.508 29.9395 9.196V10.324H25.4635V10.9C25.4635 11.268 25.5755 11.564 25.7995 11.788C26.0235 12.012 26.3195 12.124 26.6875 12.124H27.6115C27.9715 12.124 28.2635 12.032 28.4875 11.848C28.7115 11.656 28.8235 11.404 28.8235 11.092H29.9155C29.9155 11.692 29.7035 12.176 29.2795 12.544C28.8555 12.912 28.2955 13.096 27.5995 13.096H26.6875ZM28.8235 9.436V9.196C28.8235 8.796 28.7155 8.476 28.4995 8.236C28.2915 7.996 28.0155 7.876 27.6715 7.876H26.6875C26.3195 7.876 26.0235 8.004 25.7995 8.26C25.5755 8.508 25.4635 8.84 25.4635 9.256V9.436H28.8235ZM40.1888 13L39.4928 12.184C39.1968 12.48 38.8568 12.708 38.4728 12.868C38.0968 13.02 37.6968 13.096 37.2728 13.096H36.6968C35.9608 13.096 35.3768 12.916 34.9448 12.556C34.5128 12.188 34.2968 11.696 34.2968 11.08V10.612C34.2968 10.228 34.3768 9.904 34.5368 9.64C34.6968 9.368 34.9008 9.136 35.1488 8.944C35.4048 8.752 35.7528 8.532 36.1928 8.284L35.9528 7.972C35.5528 7.46 35.3528 6.984 35.3528 6.544V6.292C35.3528 5.74 35.5368 5.304 35.9048 4.984C36.2728 4.664 36.7608 4.504 37.3688 4.504H37.8488C38.4008 4.504 38.8488 4.664 39.1928 4.984C39.5368 5.304 39.7088 5.724 39.7088 6.244V6.484C39.7088 6.756 39.6528 6.992 39.5408 7.192C39.4368 7.392 39.2608 7.588 39.0128 7.78C38.7648 7.972 38.4048 8.2 37.9328 8.464L37.7048 8.596L39.3848 10.564C39.5688 10.148 39.6848 9.68 39.7328 9.16H40.7288C40.6808 10.008 40.4688 10.752 40.0928 11.392L41.4608 13H40.1888ZM36.3968 6.532C36.3968 6.804 36.5288 7.12 36.7928 7.48L37.1408 7.924L37.3688 7.78C37.7288 7.564 37.9968 7.392 38.1728 7.264C38.3488 7.128 38.4728 7.004 38.5448 6.892C38.6168 6.772 38.6528 6.636 38.6528 6.484V6.244C38.6528 5.996 38.5768 5.8 38.4248 5.656C38.2728 5.504 38.0728 5.428 37.8248 5.428H37.3688C37.0728 5.428 36.8368 5.508 36.6608 5.668C36.4848 5.82 36.3968 6.032 36.3968 6.304V6.532ZM37.2848 12.124C37.8768 12.124 38.3968 11.888 38.8448 11.416L36.8168 9.028C36.3128 9.3 35.9528 9.544 35.7368 9.76C35.5208 9.976 35.4128 10.256 35.4128 10.6V11.068C35.4128 11.388 35.5288 11.644 35.7608 11.836C36.0008 12.028 36.3128 12.124 36.6968 12.124H37.2848ZM46.6764 13C46.3964 13 46.1724 12.92 46.0044 12.76C45.8444 12.6 45.7644 12.38 45.7644 12.1V4.6H49.4244C50.0324 4.6 50.5644 4.716 51.0204 4.948C51.4844 5.18 51.8404 5.512 52.0884 5.944C52.3444 6.368 52.4724 6.856 52.4724 7.408V9.952C52.4724 10.952 52.2164 11.712 51.7044 12.232C51.2004 12.744 50.4564 13 49.4724 13H46.6764ZM49.4364 11.98C50.0604 11.98 50.5324 11.808 50.8524 11.464C51.1724 11.12 51.3324 10.608 51.3324 9.928V7.432C51.3324 6.888 51.1524 6.452 50.7924 6.124C50.4404 5.788 49.9724 5.62 49.3884 5.62H46.9044V11.98H49.4364ZM55.6958 13.096C55.0958 13.096 54.6158 12.944 54.2558 12.64C53.8958 12.328 53.7158 11.916 53.7158 11.404V11.008C53.7158 10.504 53.9038 10.1 54.2798 9.796C54.6558 9.484 55.1478 9.328 55.7558 9.328H56.5118C56.7518 9.328 57.0078 9.364 57.2798 9.436C57.5518 9.508 57.7838 9.608 57.9758 9.736V8.86C57.9758 8.564 57.8838 8.328 57.6998 8.152C57.5158 7.968 57.2758 7.876 56.9798 7.876H55.9958C55.6918 7.876 55.4478 7.948 55.2638 8.092C55.0798 8.236 54.9878 8.424 54.9878 8.656H53.8838C53.8838 8.136 54.0758 7.716 54.4598 7.396C54.8518 7.076 55.3638 6.916 55.9958 6.916H56.9798C57.6118 6.916 58.1198 7.096 58.5038 7.456C58.8878 7.808 59.0798 8.276 59.0798 8.86V13H58.0358V12.196C57.8518 12.468 57.6118 12.688 57.3158 12.856C57.0198 13.016 56.7198 13.096 56.4158 13.096H55.6958ZM56.4758 12.172C56.8278 12.172 57.1398 12.072 57.4118 11.872C57.6838 11.664 57.8718 11.388 57.9758 11.044V10.684C57.8238 10.548 57.6158 10.44 57.3518 10.36C57.0878 10.28 56.8158 10.24 56.5358 10.24H55.7678C55.4878 10.24 55.2598 10.312 55.0838 10.456C54.9078 10.6 54.8198 10.792 54.8198 11.032V11.392C54.8198 11.632 54.9038 11.824 55.0718 11.968C55.2478 12.104 55.4798 12.172 55.7678 12.172H56.4758ZM63.129 13C62.473 13 61.997 12.856 61.701 12.568C61.413 12.28 61.269 11.816 61.269 11.176V7.984H60.213V7.012H61.281V5.2H62.385V7.012H63.945V7.984H62.385V11.152C62.385 11.464 62.445 11.688 62.565 11.824C62.693 11.96 62.897 12.028 63.177 12.028H63.945V13H63.129ZM67.293 13.096C66.589 13.096 66.021 12.896 65.589 12.496C65.165 12.088 64.953 11.556 64.953 10.9V9.244C64.953 8.54 65.165 7.976 65.589 7.552C66.021 7.128 66.589 6.916 67.293 6.916H68.277C68.957 6.916 69.505 7.124 69.921 7.54C70.337 7.956 70.545 8.508 70.545 9.196V10.324H66.069V10.9C66.069 11.268 66.181 11.564 66.405 11.788C66.629 12.012 66.925 12.124 67.293 12.124H68.217C68.577 12.124 68.869 12.032 69.093 11.848C69.317 11.656 69.429 11.404 69.429 11.092H70.521C70.521 11.692 70.309 12.176 69.885 12.544C69.461 12.912 68.901 13.096 68.205 13.096H67.293ZM69.429 9.436V9.196C69.429 8.796 69.321 8.476 69.105 8.236C68.897 7.996 68.621 7.876 68.277 7.876H67.293C66.925 7.876 66.629 8.004 66.405 8.26C66.181 8.508 66.069 8.84 66.069 9.256V9.436H69.429ZM75.6582 8.728C75.4342 8.728 75.2502 8.656 75.1062 8.512C74.9702 8.368 74.9022 8.184 74.9022 7.96C74.9022 7.736 74.9702 7.556 75.1062 7.42C75.2502 7.276 75.4342 7.204 75.6582 7.204C75.8822 7.204 76.0662 7.276 76.2102 7.42C76.3542 7.556 76.4262 7.736 76.4262 7.96C76.4262 8.184 76.3542 8.368 76.2102 8.512C76.0742 8.656 75.8902 8.728 75.6582 8.728ZM75.6582 12.772C75.4342 12.772 75.2502 12.7 75.1062 12.556C74.9702 12.412 74.9022 12.228 74.9022 12.004C74.9022 11.78 74.9702 11.6 75.1062 11.464C75.2502 11.32 75.4342 11.248 75.6582 11.248C75.8822 11.248 76.0662 11.32 76.2102 11.464C76.3542 11.6 76.4262 11.78 76.4262 12.004C76.4262 12.228 76.3542 12.412 76.2102 12.556C76.0742 12.7 75.8902 12.772 75.6582 12.772ZM82.5356 5.836L80.6036 6.808V5.74L82.7516 4.6H83.6756V13H82.5356V5.836ZM89.2702 11.308H85.6822C85.1462 11.308 84.8782 11.104 84.8782 10.696V10.42L89.3062 4.6H90.4222V10.3H91.4782V11.308H90.4222V13H89.2702V11.308ZM89.3062 10.324V6.172H89.2942L86.1622 10.324H89.3062ZM93.1426 8.728C92.9186 8.728 92.7346 8.656 92.5906 8.512C92.4546 8.368 92.3866 8.184 92.3866 7.96C92.3866 7.736 92.4546 7.556 92.5906 7.42C92.7346 7.276 92.9186 7.204 93.1426 7.204C93.3666 7.204 93.5506 7.276 93.6946 7.42C93.8386 7.556 93.9106 7.736 93.9106 7.96C93.9106 8.184 93.8386 8.368 93.6946 8.512C93.5586 8.656 93.3746 8.728 93.1426 8.728ZM93.1426 12.772C92.9186 12.772 92.7346 12.7 92.5906 12.556C92.4546 12.412 92.3866 12.228 92.3866 12.004C92.3866 11.78 92.4546 11.6 92.5906 11.464C92.7346 11.32 92.9186 11.248 93.1426 11.248C93.3666 11.248 93.5506 11.32 93.6946 11.464C93.8386 11.6 93.9106 11.78 93.9106 12.004C93.9106 12.228 93.8386 12.412 93.6946 12.556C93.5586 12.7 93.3746 12.772 93.1426 12.772ZM97.8173 13.096C97.3053 13.096 96.8533 12.98 96.4613 12.748C96.0693 12.516 95.7653 12.192 95.5493 11.776C95.3333 11.352 95.2253 10.868 95.2253 10.324V7.276C95.2253 6.732 95.3333 6.252 95.5493 5.836C95.7653 5.412 96.0693 5.084 96.4613 4.852C96.8533 4.62 97.3053 4.504 97.8173 4.504H99.0893C99.5933 4.504 100.037 4.62 100.421 4.852C100.813 5.084 101.113 5.412 101.321 5.836C101.537 6.252 101.645 6.732 101.645 7.276V10.324C101.645 10.868 101.537 11.352 101.321 11.776C101.113 12.192 100.817 12.516 100.433 12.748C100.049 12.98 99.6013 13.096 99.0893 13.096H97.8173ZM99.0653 12.076C99.4973 12.076 99.8453 11.916 100.109 11.596C100.373 11.276 100.505 10.852 100.505 10.324V7.276C100.505 6.748 100.373 6.324 100.109 6.004C99.8453 5.684 99.4973 5.524 99.0653 5.524H97.8413C97.4013 5.524 97.0453 5.684 96.7733 6.004C96.5013 6.324 96.3653 6.748 96.3653 7.276V10.324C96.3653 10.852 96.5013 11.276 96.7733 11.596C97.0453 11.916 97.4013 12.076 97.8413 12.076H99.0653ZM105.681 13.096C105.169 13.096 104.717 12.98 104.325 12.748C103.933 12.516 103.629 12.192 103.413 11.776C103.197 11.352 103.089 10.868 103.089 10.324V7.276C103.089 6.732 103.197 6.252 103.413 5.836C103.629 5.412 103.933 5.084 104.325 4.852C104.717 4.62 105.169 4.504 105.681 4.504H106.953C107.457 4.504 107.901 4.62 108.285 4.852C108.677 5.084 108.977 5.412 109.185 5.836C109.401 6.252 109.509 6.732 109.509 7.276V10.324C109.509 10.868 109.401 11.352 109.185 11.776C108.977 12.192 108.681 12.516 108.297 12.748C107.913 12.98 107.465 13.096 106.953 13.096H105.681ZM106.929 12.076C107.361 12.076 107.709 11.916 107.973 11.596C108.237 11.276 108.369 10.852 108.369 10.324V7.276C108.369 6.748 108.237 6.324 107.973 6.004C107.709 5.684 107.361 5.524 106.929 5.524H105.705C105.265 5.524 104.909 5.684 104.637 6.004C104.365 6.324 104.229 6.748 104.229 7.276V10.324C104.229 10.852 104.365 11.276 104.637 11.596C104.909 11.916 105.265 12.076 105.705 12.076H106.929ZM111.588 8.728C111.364 8.728 111.18 8.656 111.036 8.512C110.9 8.368 110.832 8.184 110.832 7.96C110.832 7.736 110.9 7.556 111.036 7.42C111.18 7.276 111.364 7.204 111.588 7.204C111.812 7.204 111.996 7.276 112.14 7.42C112.284 7.556 112.356 7.736 112.356 7.96C112.356 8.184 112.284 8.368 112.14 8.512C112.004 8.656 111.82 8.728 111.588 8.728ZM111.588 12.772C111.364 12.772 111.18 12.7 111.036 12.556C110.9 12.412 110.832 12.228 110.832 12.004C110.832 11.78 110.9 11.6 111.036 11.464C111.18 11.32 111.364 11.248 111.588 11.248C111.812 11.248 111.996 11.32 112.14 11.464C112.284 11.6 112.356 11.78 112.356 12.004C112.356 12.228 112.284 12.412 112.14 12.556C112.004 12.7 111.82 12.772 111.588 12.772ZM116.263 13.096C115.751 13.096 115.299 12.98 114.907 12.748C114.515 12.516 114.211 12.192 113.995 11.776C113.779 11.352 113.671 10.868 113.671 10.324V7.276C113.671 6.732 113.779 6.252 113.995 5.836C114.211 5.412 114.515 5.084 114.907 4.852C115.299 4.62 115.751 4.504 116.263 4.504H117.535C118.039 4.504 118.483 4.62 118.867 4.852C119.259 5.084 119.559 5.412 119.767 5.836C119.983 6.252 120.091 6.732 120.091 7.276V10.324C120.091 10.868 119.983 11.352 119.767 11.776C119.559 12.192 119.263 12.516 118.879 12.748C118.495 12.98 118.047 13.096 117.535 13.096H116.263ZM117.511 12.076C117.943 12.076 118.291 11.916 118.555 11.596C118.819 11.276 118.951 10.852 118.951 10.324V7.276C118.951 6.748 118.819 6.324 118.555 6.004C118.291 5.684 117.943 5.524 117.511 5.524H116.287C115.847 5.524 115.491 5.684 115.219 6.004C114.947 6.324 114.811 6.748 114.811 7.276V10.324C114.811 10.852 114.947 11.276 115.219 11.596C115.491 11.916 115.847 12.076 116.287 12.076H117.511ZM124.126 13.096C123.614 13.096 123.162 12.98 122.77 12.748C122.378 12.516 122.074 12.192 121.858 11.776C121.642 11.352 121.534 10.868 121.534 10.324V7.276C121.534 6.732 121.642 6.252 121.858 5.836C122.074 5.412 122.378 5.084 122.77 4.852C123.162 4.62 123.614 4.504 124.126 4.504H125.398C125.902 4.504 126.346 4.62 126.73 4.852C127.122 5.084 127.422 5.412 127.63 5.836C127.846 6.252 127.954 6.732 127.954 7.276V10.324C127.954 10.868 127.846 11.352 127.63 11.776C127.422 12.192 127.126 12.516 126.742 12.748C126.358 12.98 125.91 13.096 125.398 13.096H124.126ZM125.374 12.076C125.806 12.076 126.154 11.916 126.418 11.596C126.682 11.276 126.814 10.852 126.814 10.324V7.276C126.814 6.748 126.682 6.324 126.418 6.004C126.154 5.684 125.806 5.524 125.374 5.524H124.15C123.71 5.524 123.354 5.684 123.082 6.004C122.81 6.324 122.674 6.748 122.674 7.276V10.324C122.674 10.852 122.81 11.276 123.082 11.596C123.354 11.916 123.71 12.076 124.15 12.076H125.374ZM132.5 9.436H135.932V10.42H132.5V9.436ZM145.266 5.836L143.334 6.808V5.74L145.482 4.6H146.406V13H145.266V5.836ZM147.921 12.076C147.921 11.62 148.001 11.224 148.161 10.888C148.329 10.552 148.601 10.256 148.977 10L151.953 7.9C152.137 7.772 152.277 7.624 152.373 7.456C152.477 7.28 152.529 7.1 152.529 6.916V6.532C152.529 6.228 152.425 5.984 152.217 5.8C152.009 5.616 151.729 5.524 151.377 5.524H150.273C149.889 5.524 149.581 5.66 149.349 5.932C149.125 6.196 149.013 6.56 149.013 7.024H147.873C147.873 6.248 148.085 5.636 148.509 5.188C148.941 4.732 149.521 4.504 150.249 4.504H151.377C152.065 4.504 152.617 4.692 153.033 5.068C153.457 5.436 153.669 5.924 153.669 6.532V6.916C153.669 7.644 153.333 8.236 152.661 8.692L149.769 10.684C149.513 10.86 149.329 11.044 149.217 11.236C149.113 11.428 149.061 11.68 149.061 11.992H153.765V13H147.921V12.076ZM159.176 13C158.896 13 158.672 12.92 158.504 12.76C158.344 12.6 158.264 12.38 158.264 12.1V4.6H161.924C162.532 4.6 163.064 4.716 163.52 4.948C163.984 5.18 164.34 5.512 164.588 5.944C164.844 6.368 164.972 6.856 164.972 7.408V9.952C164.972 10.952 164.716 11.712 164.204 12.232C163.7 12.744 162.956 13 161.972 13H159.176ZM161.936 11.98C162.56 11.98 163.032 11.808 163.352 11.464C163.672 11.12 163.832 10.608 163.832 9.928V7.432C163.832 6.888 163.652 6.452 163.292 6.124C162.94 5.788 162.472 5.62 161.888 5.62H159.404V11.98H161.936ZM168.508 13.096C167.804 13.096 167.236 12.896 166.804 12.496C166.38 12.088 166.168 11.556 166.168 10.9V9.244C166.168 8.54 166.38 7.976 166.804 7.552C167.236 7.128 167.804 6.916 168.508 6.916H169.492C170.172 6.916 170.72 7.124 171.136 7.54C171.552 7.956 171.76 8.508 171.76 9.196V10.324H167.284V10.9C167.284 11.268 167.396 11.564 167.62 11.788C167.844 12.012 168.14 12.124 168.508 12.124H169.432C169.792 12.124 170.084 12.032 170.308 11.848C170.532 11.656 170.644 11.404 170.644 11.092H171.736C171.736 11.692 171.524 12.176 171.1 12.544C170.676 12.912 170.116 13.096 169.42 13.096H168.508ZM170.644 9.436V9.196C170.644 8.796 170.536 8.476 170.32 8.236C170.112 7.996 169.836 7.876 169.492 7.876H168.508C168.14 7.876 167.844 8.004 167.62 8.26C167.396 8.508 167.284 8.84 167.284 9.256V9.436H170.644ZM175.198 13.096C174.51 13.096 173.954 12.892 173.53 12.484C173.106 12.068 172.894 11.524 172.894 10.852V9.244C172.894 8.54 173.102 7.976 173.518 7.552C173.942 7.128 174.498 6.916 175.186 6.916H176.158C176.814 6.916 177.342 7.1 177.742 7.468C178.142 7.836 178.342 8.324 178.342 8.932H177.238C177.238 8.62 177.138 8.372 176.938 8.188C176.746 7.996 176.486 7.9 176.158 7.9H175.198C174.846 7.9 174.558 8.028 174.334 8.284C174.118 8.532 174.01 8.864 174.01 9.28V10.816C174.01 11.208 174.122 11.524 174.346 11.764C174.57 11.996 174.858 12.112 175.21 12.112H176.17C176.506 12.112 176.774 11.996 176.974 11.764C177.182 11.524 177.286 11.208 177.286 10.816H178.39C178.39 11.496 178.186 12.048 177.778 12.472C177.37 12.888 176.834 13.096 176.17 13.096H175.198ZM182.596 12.076C182.596 11.62 182.676 11.224 182.836 10.888C183.004 10.552 183.276 10.256 183.652 10L186.628 7.9C186.812 7.772 186.952 7.624 187.048 7.456C187.152 7.28 187.204 7.1 187.204 6.916V6.532C187.204 6.228 187.1 5.984 186.892 5.8C186.684 5.616 186.404 5.524 186.052 5.524H184.948C184.564 5.524 184.256 5.66 184.024 5.932C183.8 6.196 183.688 6.56 183.688 7.024H182.548C182.548 6.248 182.76 5.636 183.184 5.188C183.616 4.732 184.196 4.504 184.924 4.504H186.052C186.74 4.504 187.292 4.692 187.708 5.068C188.132 5.436 188.344 5.924 188.344 6.532V6.916C188.344 7.644 188.008 8.236 187.336 8.692L184.444 10.684C184.188 10.86 184.004 11.044 183.892 11.236C183.788 11.428 183.736 11.68 183.736 11.992H188.44V13H182.596V12.076ZM192.142 13.096C191.63 13.096 191.178 12.98 190.786 12.748C190.394 12.516 190.09 12.192 189.874 11.776C189.658 11.352 189.55 10.868 189.55 10.324V7.276C189.55 6.732 189.658 6.252 189.874 5.836C190.09 5.412 190.394 5.084 190.786 4.852C191.178 4.62 191.63 4.504 192.142 4.504H193.414C193.918 4.504 194.362 4.62 194.746 4.852C195.138 5.084 195.438 5.412 195.646 5.836C195.862 6.252 195.97 6.732 195.97 7.276V10.324C195.97 10.868 195.862 11.352 195.646 11.776C195.438 12.192 195.142 12.516 194.758 12.748C194.374 12.98 193.926 13.096 193.414 13.096H192.142ZM193.39 12.076C193.822 12.076 194.17 11.916 194.434 11.596C194.698 11.276 194.83 10.852 194.83 10.324V7.276C194.83 6.748 194.698 6.324 194.434 6.004C194.17 5.684 193.822 5.524 193.39 5.524H192.166C191.726 5.524 191.37 5.684 191.098 6.004C190.826 6.324 190.69 6.748 190.69 7.276V10.324C190.69 10.852 190.826 11.276 191.098 11.596C191.37 11.916 191.726 12.076 192.166 12.076H193.39ZM197.245 12.076C197.245 11.62 197.325 11.224 197.485 10.888C197.653 10.552 197.925 10.256 198.301 10L201.277 7.9C201.461 7.772 201.601 7.624 201.697 7.456C201.801 7.28 201.853 7.1 201.853 6.916V6.532C201.853 6.228 201.749 5.984 201.541 5.8C201.333 5.616 201.053 5.524 200.701 5.524H199.597C199.213 5.524 198.905 5.66 198.673 5.932C198.449 6.196 198.337 6.56 198.337 7.024H197.197C197.197 6.248 197.409 5.636 197.833 5.188C198.265 4.732 198.845 4.504 199.573 4.504H200.701C201.389 4.504 201.941 4.692 202.357 5.068C202.781 5.436 202.993 5.924 202.993 6.532V6.916C202.993 7.644 202.657 8.236 201.985 8.692L199.093 10.684C198.837 10.86 198.653 11.044 198.541 11.236C198.437 11.428 198.385 11.68 198.385 11.992H203.089V13H197.245V12.076ZM207.676 11.308H204.088C203.552 11.308 203.284 11.104 203.284 10.696V10.42L207.712 4.6H208.828V10.3H209.884V11.308H208.828V13H207.676V11.308ZM207.712 10.324V6.172H207.7L204.568 10.324H207.712Z" fill="url(#paint0_linear_701_253)"/>
<defs>
<linearGradient id="paint0_linear_701_253" x1="21.9774" y1="0.876712" x2="23.9746" y2="27.6871" gradientUnits="userSpaceOnUse">
<stop stop-color="#727272"/>
<stop offset="1" stop-color="white"/>
</linearGradient>
</defs>
</svg>
