<svg width="122" height="55" viewBox="0 0 122 55" fill="none" xmlns="http://www.w3.org/2000/svg">
<rect opacity="0.7" x="120.123" y="1.82104" width="52.1605" height="119.123" rx="14" transform="rotate(90 120.123 1.82104)" fill="url(#paint0_linear_733_250)" fill-opacity="0.15" stroke="url(#paint1_linear_733_250)" stroke-width="2"/>
<path d="M36.2162 21.7223H42.8162C43.7895 21.7223 44.5695 21.9957 45.1562 22.5423C45.7429 23.0757 46.0362 23.789 46.0362 24.6823V26.2423C46.0362 26.949 45.8095 27.5757 45.3562 28.1223C44.9029 28.6557 44.2962 29.0223 43.5362 29.2223V29.2423C43.9362 29.4423 44.2962 29.769 44.6162 30.2223C44.9362 30.6757 45.1829 31.209 45.3562 31.8223L46.4762 35.7223H45.3562L44.2362 31.8223C44.0229 31.1157 43.6829 30.5557 43.2162 30.1423C42.7629 29.729 42.2429 29.5223 41.6562 29.5223H37.3162V35.7223H36.2162V21.7223ZM42.3162 28.5423C43.1029 28.5423 43.7362 28.3357 44.2162 27.9223C44.6962 27.4957 44.9362 26.9357 44.9362 26.2423V24.6423C44.9362 24.0557 44.7429 23.589 44.3562 23.2423C43.9695 22.8823 43.4495 22.7023 42.7962 22.7023H37.3162V28.5423H42.3162ZM52.1078 35.8823C51.0544 35.8823 50.2011 35.5623 49.5478 34.9223C48.9078 34.2823 48.5878 33.4357 48.5878 32.3823V29.2823C48.5878 28.1757 48.9078 27.2823 49.5478 26.6023C50.2011 25.9223 51.0544 25.5823 52.1078 25.5823H53.7478C54.7611 25.5823 55.5744 25.9157 56.1878 26.5823C56.8144 27.2357 57.1278 28.109 57.1278 29.2023V30.8823H49.6678V32.3823C49.6678 33.1423 49.8878 33.7557 50.3278 34.2223C50.7811 34.689 51.3744 34.9223 52.1078 34.9223H53.6278C54.3478 34.9223 54.9278 34.7157 55.3678 34.3023C55.8211 33.8757 56.0478 33.3223 56.0478 32.6423H57.0878C57.0878 33.6157 56.7678 34.4023 56.1278 35.0023C55.5011 35.589 54.6678 35.8823 53.6278 35.8823H52.1078ZM56.0678 29.9623V29.2023C56.0678 28.4023 55.8544 27.7623 55.4278 27.2823C55.0011 26.789 54.4411 26.5423 53.7478 26.5423H52.1078C51.3744 26.5423 50.7811 26.7957 50.3278 27.3023C49.8878 27.809 49.6678 28.469 49.6678 29.2823V29.9623H56.0678ZM62.5262 35.8823C61.5795 35.8823 60.8129 35.609 60.2262 35.0623C59.6529 34.5023 59.3662 33.769 59.3662 32.8623H60.4062C60.4062 33.4757 60.5995 33.9757 60.9862 34.3623C61.3862 34.749 61.8995 34.9423 62.5262 34.9423H64.2462C64.8995 34.9423 65.4195 34.809 65.8062 34.5423C66.2062 34.2757 66.4062 33.929 66.4062 33.5023V32.7223C66.4062 32.429 66.2929 32.169 66.0662 31.9423C65.8529 31.7157 65.5729 31.569 65.2262 31.5023L61.7462 30.9023C61.0929 30.7957 60.5662 30.549 60.1662 30.1623C59.7795 29.7623 59.5862 29.2957 59.5862 28.7623V28.0823C59.5862 27.3357 59.8595 26.7357 60.4062 26.2823C60.9662 25.8157 61.6995 25.5823 62.6062 25.5823H64.3062C65.1862 25.5823 65.8929 25.8357 66.4262 26.3423C66.9729 26.849 67.2462 27.5157 67.2462 28.3423H66.2062C66.1795 27.7957 65.9929 27.3557 65.6462 27.0223C65.3129 26.689 64.8662 26.5223 64.3062 26.5223H62.6062C62.0195 26.5223 61.5462 26.669 61.1862 26.9623C60.8262 27.2423 60.6462 27.6157 60.6462 28.0823V28.7223C60.6462 29.029 60.7662 29.3023 61.0062 29.5423C61.2462 29.769 61.5595 29.909 61.9462 29.9623L65.4262 30.5623C66.0395 30.669 66.5329 30.9157 66.9062 31.3023C67.2795 31.689 67.4662 32.149 67.4662 32.6823V33.5223C67.4662 34.229 67.1729 34.8023 66.5862 35.2423C65.9995 35.669 65.2195 35.8823 64.2462 35.8823H62.5262ZM73.2601 35.8823C72.2068 35.8823 71.3534 35.5623 70.7001 34.9223C70.0601 34.2823 69.7401 33.4357 69.7401 32.3823V29.2823C69.7401 28.1757 70.0601 27.2823 70.7001 26.6023C71.3534 25.9223 72.2068 25.5823 73.2601 25.5823H74.9001C75.9134 25.5823 76.7268 25.9157 77.3401 26.5823C77.9668 27.2357 78.2801 28.109 78.2801 29.2023V30.8823H70.8201V32.3823C70.8201 33.1423 71.0401 33.7557 71.4801 34.2223C71.9334 34.689 72.5268 34.9223 73.2601 34.9223H74.7801C75.5001 34.9223 76.0801 34.7157 76.5201 34.3023C76.9734 33.8757 77.2001 33.3223 77.2001 32.6423H78.2401C78.2401 33.6157 77.9201 34.4023 77.2801 35.0023C76.6534 35.589 75.8201 35.8823 74.7801 35.8823H73.2601ZM77.2201 29.9623V29.2023C77.2201 28.4023 77.0068 27.7623 76.5801 27.2823C76.1534 26.789 75.5934 26.5423 74.9001 26.5423H73.2601C72.5268 26.5423 71.9334 26.7957 71.4801 27.3023C71.0401 27.809 70.8201 28.469 70.8201 29.2823V29.9623H77.2201ZM84.7214 35.7223C83.708 35.7223 82.9814 35.509 82.5414 35.0823C82.1014 34.6423 81.8814 33.9223 81.8814 32.9223V26.7023H80.1214V25.7423H81.8814V22.7223H82.9414V25.7423H85.5414V26.7023H82.9414V32.9223C82.9414 33.5757 83.0747 34.049 83.3414 34.3423C83.608 34.6223 84.0547 34.7623 84.6814 34.7623H85.5414V35.7223H84.7214Z" fill="#FCB433"/>
<defs>
<linearGradient id="paint0_linear_733_250" x1="170.574" y1="17.1442" x2="104.744" y2="39.4444" gradientUnits="userSpaceOnUse">
<stop stop-color="#FCB433"/>
<stop offset="1" stop-color="#966B1E"/>
</linearGradient>
<linearGradient id="paint1_linear_733_250" x1="170.574" y1="17.1442" x2="104.744" y2="39.4444" gradientUnits="userSpaceOnUse">
<stop stop-color="#FCB433"/>
<stop offset="1" stop-color="#966B1E"/>
</linearGradient>
</defs>
</svg>
