<svg width="438" height="135" viewBox="0 0 438 135" fill="none" xmlns="http://www.w3.org/2000/svg">
<rect width="438" height="135" fill="#1E1E1E"/>
<path d="M-1790 -1831C-1790 -1832.1 -1789.1 -1833 -1788 -1833H3797C3798.1 -1833 3799 -1832.1 3799 -1831V4599C3799 4600.1 3798.1 4601 3797 4601H-1788C-1789.1 4601 -1790 4600.1 -1790 4599V-1831Z" fill="#444444"/>
<path d="M-1788 -1832H3797V-1834H-1788V-1832ZM3798 -1831V4599H3800V-1831H3798ZM3797 4600H-1788V4602H3797V4600ZM-1789 4599V-1831H-1791V4599H-1789ZM-1788 4600C-1788.55 4600 -1789 4599.55 -1789 4599H-1791C-1791 4600.66 -1789.66 4602 -1788 4602V4600ZM3798 4599C3798 4599.55 3797.55 4600 3797 4600V4602C3798.66 4602 3800 4600.66 3800 4599H3798ZM3797 -1832C3797.55 -1832 3798 -1831.55 3798 -1831H3800C3800 -1832.66 3798.66 -1834 3797 -1834V-1832ZM-1788 -1834C-1789.66 -1834 -1791 -1832.66 -1791 -1831H-1789C-1789 -1831.55 -1788.55 -1832 -1788 -1832V-1834Z" fill="white" fill-opacity="0.1"/>
<rect x="-161" y="-181" width="1024" height="600" fill="url(#paint0_linear_196_32)"/>
<rect opacity="0.7" x="437" y="1" width="133" height="436" rx="44" transform="rotate(90 437 1)" stroke="url(#paint1_linear_196_32)" stroke-width="2"/>
<g opacity="0.7">
<mask id="path-5-inside-1_196_32" fill="white">
<path fill-rule="evenodd" clip-rule="evenodd" d="M-19 1C-14.3568 1 -12.0352 1 -10.078 1.17124C-8.4874 1.3104 -6.92091 1.53158 -5.38274 1.83056C-1.40862 2.60302 0.578445 2.98925 2.09647 4.51946C3.42153 5.85515 4.15469 7.67423 4.12617 9.55546C4.09351 11.7107 2.11812 14.5216 -1.83267 20.1435C-6.26368 26.4487 -9.11754 33.9487 -9.82876 42.078C-10 44.0353 -10 46.3568 -10 51V85C-10 89.6431 -10 91.9647 -9.82876 93.922C-9.11754 102.051 -6.26368 109.551 -1.83266 115.856C2.11812 121.478 4.09351 124.289 4.12618 126.445C4.15469 128.326 3.42153 130.145 2.09647 131.481C0.578445 133.011 -1.40861 133.397 -5.38272 134.169C-6.9209 134.468 -8.4874 134.69 -10.078 134.829C-12.0352 135 -14.3568 135 -19 135C-23.6432 135 -25.9647 135 -27.922 134.829C-49.6771 132.925 -66.9254 115.677 -68.8288 93.922C-69 91.9647 -69 89.6431 -69 85V51C-69 46.3568 -69 44.0353 -68.8288 42.078C-66.9254 20.3229 -49.6771 3.07457 -27.922 1.17124C-25.9647 1 -23.6432 1 -19 1Z"/>
</mask>
<path fill-rule="evenodd" clip-rule="evenodd" d="M-19 1C-14.3568 1 -12.0352 1 -10.078 1.17124C-8.4874 1.3104 -6.92091 1.53158 -5.38274 1.83056C-1.40862 2.60302 0.578445 2.98925 2.09647 4.51946C3.42153 5.85515 4.15469 7.67423 4.12617 9.55546C4.09351 11.7107 2.11812 14.5216 -1.83267 20.1435C-6.26368 26.4487 -9.11754 33.9487 -9.82876 42.078C-10 44.0353 -10 46.3568 -10 51V85C-10 89.6431 -10 91.9647 -9.82876 93.922C-9.11754 102.051 -6.26368 109.551 -1.83266 115.856C2.11812 121.478 4.09351 124.289 4.12618 126.445C4.15469 128.326 3.42153 130.145 2.09647 131.481C0.578445 133.011 -1.40861 133.397 -5.38272 134.169C-6.9209 134.468 -8.4874 134.69 -10.078 134.829C-12.0352 135 -14.3568 135 -19 135C-23.6432 135 -25.9647 135 -27.922 134.829C-49.6771 132.925 -66.9254 115.677 -68.8288 93.922C-69 91.9647 -69 89.6431 -69 85V51C-69 46.3568 -69 44.0353 -68.8288 42.078C-66.9254 20.3229 -49.6771 3.07457 -27.922 1.17124C-25.9647 1 -23.6432 1 -19 1Z" fill="url(#paint2_linear_196_32)" fill-opacity="0.15"/>
<path d="M-10.078 1.17124L-10.2523 3.16363L-10.078 1.17124ZM-9.82876 42.078L-11.8212 41.9037L-9.82876 42.078ZM-9.82876 93.922L-11.8212 94.0963L-9.82876 93.922ZM-10.078 134.829L-9.90368 136.821H-9.90367L-10.078 134.829ZM-27.922 134.829L-28.0963 136.821H-28.0963L-27.922 134.829ZM-68.8288 93.922L-70.8212 94.0963L-68.8288 93.922ZM-68.8288 42.078L-66.8364 42.2523L-68.8288 42.078ZM-27.922 1.17124L-27.7477 3.16363V3.16363L-27.922 1.17124ZM4.12618 126.445L6.12595 126.414L4.12618 126.445ZM-5.38272 134.169L-5.76433 132.206L-5.38272 134.169ZM2.09647 131.481L0.67662 130.072L2.09647 131.481ZM4.12617 9.55546L2.1264 9.52515L4.12617 9.55546ZM-9.90367 -0.821151C-11.9699 -1.00192 -14.3991 -1 -19 -1V3C-14.3145 3 -12.1006 3.00192 -10.2523 3.16363L-9.90367 -0.821151ZM-5.00114 -0.132699C-6.60764 -0.444958 -8.24332 -0.675889 -9.90367 -0.821151L-10.2523 3.16363C-8.73148 3.29668 -7.23417 3.50812 -5.76434 3.79382L-5.00114 -0.132699ZM-7.83637 42.2523C-7.15662 34.4828 -4.42999 27.3178 -0.196327 21.2934L-3.46902 18.9935C-8.09737 25.5796 -11.0785 33.4146 -11.8212 41.9037L-7.83637 42.2523ZM-8 51C-8 46.3146 -7.99808 44.1007 -7.83637 42.2523L-11.8212 41.9037C-12.0019 43.9699 -12 46.3991 -12 51H-8ZM-8 85V51H-12V85H-8ZM-7.83637 93.7477C-7.99808 91.8993 -8 89.6854 -8 85H-12C-12 89.6009 -12.0019 92.0301 -11.8212 94.0963L-7.83637 93.7477ZM-0.19632 114.707C-4.42999 108.682 -7.15662 101.517 -7.83637 93.7477L-11.8212 94.0963C-11.0785 102.585 -8.09737 110.42 -3.46901 117.006L-0.19632 114.707ZM-9.90367 136.821C-8.24332 136.676 -6.60763 136.445 -5.00112 136.133L-5.76433 132.206C-7.23417 132.492 -8.73147 132.703 -10.2523 132.836L-9.90367 136.821ZM-19 137C-14.3991 137 -11.9699 137.002 -9.90368 136.821L-10.2523 132.836C-12.1006 132.998 -14.3145 133 -19 133V137ZM-28.0963 136.821C-26.0301 137.002 -23.6009 137 -19 137V133C-23.6854 133 -25.8994 132.998 -27.7477 132.836L-28.0963 136.821ZM-70.8212 94.0963C-68.8332 116.818 -50.8183 134.833 -28.0963 136.821L-27.7477 132.836C-48.5359 131.018 -65.0176 114.536 -66.8364 93.7477L-70.8212 94.0963ZM-71 85C-71 89.6009 -71.0019 92.0301 -70.8212 94.0963L-66.8364 93.7477C-66.9981 91.8993 -67 89.6854 -67 85H-71ZM-71 51V85H-67V51H-71ZM-70.8212 41.9037C-71.0019 43.9699 -71 46.3991 -71 51H-67C-67 46.3146 -66.9981 44.1007 -66.8364 42.2523L-70.8212 41.9037ZM-28.0963 -0.821151C-50.8183 1.16677 -68.8332 19.1817 -70.8212 41.9037L-66.8364 42.2523C-65.0176 21.4641 -48.5359 4.98236 -27.7477 3.16363L-28.0963 -0.821151ZM-19 -1C-23.6009 -1 -26.0301 -1.00192 -28.0963 -0.821151L-27.7477 3.16363C-25.8993 3.00192 -23.6854 3 -19 3V-1ZM-3.46901 117.006C-1.4739 119.845 -0.0472794 121.878 0.895142 123.47C1.86105 125.101 2.11853 125.955 2.12641 126.475L6.12595 126.414C6.10117 124.779 5.35462 123.15 4.33697 121.431C3.29582 119.673 1.75935 117.489 -0.19632 114.707L-3.46901 117.006ZM-5.00112 136.133C-1.25261 135.404 1.46973 134.952 3.51633 132.889L0.67662 130.072C-0.312843 131.069 -1.56461 131.39 -5.76433 132.206L-5.00112 136.133ZM2.12641 126.475C2.14677 127.818 1.62266 129.118 0.67662 130.072L3.51633 132.889C5.22041 131.171 6.16261 128.834 6.12595 126.414L2.12641 126.475ZM-5.76434 3.79382C-1.56462 4.61012 -0.312843 4.93061 0.67662 5.92801L3.51633 3.11091C1.46973 1.04788 -1.25262 0.595909 -5.00114 -0.132699L-5.76434 3.79382ZM-0.196327 21.2934C1.75935 18.5105 3.29582 16.3267 4.33697 14.5685C5.35461 12.85 6.10117 11.2212 6.12595 9.58577L2.1264 9.52515C2.11853 10.0449 1.86105 10.8992 0.895134 12.5304C-0.0472794 14.1219 -1.47391 16.1545 -3.46902 18.9935L-0.196327 21.2934ZM0.67662 5.92801C1.62266 6.88164 2.14677 8.18203 2.1264 9.52515L6.12595 9.58577C6.16261 7.16643 5.22041 4.82866 3.51633 3.11091L0.67662 5.92801Z" fill="url(#paint3_linear_196_32)" mask="url(#path-5-inside-1_196_32)"/>
</g>
<defs>
<linearGradient id="paint0_linear_196_32" x1="351" y1="-181" x2="351" y2="419" gradientUnits="userSpaceOnUse">
<stop stop-color="#131313"/>
<stop offset="1" stop-color="#111111"/>
</linearGradient>
<linearGradient id="paint1_linear_196_32" x1="451.87" y1="24" x2="660.3" y2="88.5034" gradientUnits="userSpaceOnUse">
<stop stop-color="#727272"/>
<stop offset="1" stop-color="white"/>
</linearGradient>
<linearGradient id="paint2_linear_196_32" x1="-61.3364" y1="8.34246" x2="33.7903" y2="60.4442" gradientUnits="userSpaceOnUse">
<stop stop-color="#727272"/>
<stop offset="1" stop-color="white"/>
</linearGradient>
<linearGradient id="paint3_linear_196_32" x1="-61.487" y1="8.34246" x2="33.6615" y2="60.4783" gradientUnits="userSpaceOnUse">
<stop stop-color="#727272"/>
<stop offset="1" stop-color="white"/>
</linearGradient>
</defs>
</svg>
