<svg width="82" height="16" viewBox="0 0 82 16" fill="none" xmlns="http://www.w3.org/2000/svg">
<path d="M10.7693 13.096C9.99328 13.096 9.37328 12.864 8.90928 12.4C8.44528 11.936 8.21328 11.312 8.21328 10.528H9.32928C9.32928 11 9.46128 11.376 9.72528 11.656C9.99728 11.936 10.3533 12.076 10.7933 12.076H12.1253C12.5653 12.076 12.9173 11.984 13.1813 11.8C13.4453 11.608 13.5773 11.356 13.5773 11.044V10.396C13.5773 10.148 13.4813 9.94 13.2893 9.772C13.1053 9.604 12.8413 9.492 12.4973 9.436L10.3133 9.076C9.67328 8.972 9.17728 8.752 8.82528 8.416C8.48128 8.08 8.30928 7.66 8.30928 7.156V6.496C8.30928 5.896 8.53728 5.416 8.99328 5.056C9.45728 4.688 10.0653 4.504 10.8173 4.504H12.1733C12.6453 4.504 13.0613 4.604 13.4213 4.804C13.7893 4.996 14.0733 5.272 14.2733 5.632C14.4733 5.984 14.5733 6.392 14.5733 6.856H13.4453C13.4453 6.456 13.3293 6.136 13.0973 5.896C12.8653 5.648 12.5573 5.524 12.1733 5.524H10.8173C10.4093 5.524 10.0773 5.616 9.82128 5.8C9.57328 5.976 9.44928 6.22 9.44928 6.532V7.072C9.44928 7.328 9.53728 7.54 9.71328 7.708C9.89728 7.876 10.1573 7.992 10.4933 8.056L12.6533 8.428C13.3173 8.54 13.8253 8.76 14.1773 9.088C14.5373 9.408 14.7173 9.812 14.7173 10.3V11.08C14.7173 11.688 14.4813 12.176 14.0093 12.544C13.5453 12.912 12.9253 13.096 12.1493 13.096H10.7693ZM23.7259 7.012L22.4659 12.22C22.4019 12.492 22.3019 12.692 22.1659 12.82C22.0299 12.94 21.8539 13 21.6379 13H21.1219L19.6699 8.716L18.1819 13H17.6659C17.4499 13 17.2739 12.94 17.1379 12.82C17.0019 12.692 16.9019 12.492 16.8379 12.22L15.5659 7.012H16.7419L17.7259 11.62L19.2499 7.168H19.6699C19.8139 7.168 19.9299 7.204 20.0179 7.276C20.1059 7.34 20.1739 7.444 20.2219 7.588L21.5659 11.632L22.5499 7.012H23.7259ZM25.663 6.22C25.431 6.22 25.243 6.152 25.099 6.016C24.955 5.872 24.883 5.688 24.883 5.464C24.883 5.24 24.955 5.06 25.099 4.924C25.243 4.78 25.431 4.708 25.663 4.708C25.895 4.708 26.079 4.78 26.215 4.924C26.359 5.06 26.431 5.24 26.431 5.464C26.431 5.688 26.359 5.872 26.215 6.016C26.079 6.152 25.895 6.22 25.663 6.22ZM25.099 7.012H26.215V13H25.099V7.012ZM30.5416 13C29.8856 13 29.4096 12.856 29.1136 12.568C28.8256 12.28 28.6816 11.816 28.6816 11.176V7.984H27.6256V7.012H28.6936V5.2H29.7976V7.012H31.3576V7.984H29.7976V11.152C29.7976 11.464 29.8576 11.688 29.9776 11.824C30.1056 11.96 30.3096 12.028 30.5896 12.028H31.3576V13H30.5416ZM34.6696 13.096C33.9816 13.096 33.4256 12.892 33.0016 12.484C32.5776 12.068 32.3656 11.524 32.3656 10.852V9.244C32.3656 8.54 32.5736 7.976 32.9896 7.552C33.4136 7.128 33.9696 6.916 34.6576 6.916H35.6296C36.2856 6.916 36.8136 7.1 37.2136 7.468C37.6136 7.836 37.8136 8.324 37.8136 8.932H36.7096C36.7096 8.62 36.6096 8.372 36.4096 8.188C36.2176 7.996 35.9576 7.9 35.6296 7.9H34.6696C34.3176 7.9 34.0296 8.028 33.8056 8.284C33.5896 8.532 33.4816 8.864 33.4816 9.28V10.816C33.4816 11.208 33.5936 11.524 33.8176 11.764C34.0416 11.996 34.3296 12.112 34.6816 12.112H35.6416C35.9776 12.112 36.2456 11.996 36.4456 11.764C36.6536 11.524 36.7576 11.208 36.7576 10.816H37.8616C37.8616 11.496 37.6576 12.048 37.2496 12.472C36.8416 12.888 36.3056 13.096 35.6416 13.096H34.6696ZM39.133 4.6H40.249V7.768C40.433 7.512 40.665 7.308 40.945 7.156C41.225 6.996 41.501 6.916 41.773 6.916H42.589C43.165 6.916 43.629 7.108 43.981 7.492C44.341 7.876 44.521 8.38 44.521 9.004V13H43.405V9.004C43.405 8.676 43.321 8.412 43.153 8.212C42.985 8.004 42.765 7.9 42.493 7.9H41.725C41.381 7.9 41.069 8.032 40.789 8.296C40.509 8.552 40.329 8.888 40.249 9.304V13H39.133V4.6ZM52.0757 13.096C51.5317 13.096 51.0517 12.98 50.6357 12.748C50.2277 12.508 49.9117 12.172 49.6877 11.74C49.4637 11.308 49.3517 10.812 49.3517 10.252V4.6H50.4917V10.252C50.4917 10.796 50.6357 11.236 50.9237 11.572C51.2197 11.908 51.6037 12.076 52.0757 12.076H53.3597C53.8317 12.076 54.2117 11.908 54.4997 11.572C54.7957 11.236 54.9437 10.796 54.9437 10.252V4.6H56.0837V10.252C56.0837 10.812 55.9717 11.308 55.7477 11.74C55.5237 12.172 55.2037 12.508 54.7877 12.748C54.3797 12.98 53.9037 13.096 53.3597 13.096H52.0757ZM59.6138 13.096C58.9658 13.096 58.4458 12.92 58.0538 12.568C57.6618 12.208 57.4658 11.736 57.4658 11.152H58.5578C58.5578 11.448 58.6538 11.688 58.8458 11.872C59.0378 12.056 59.2938 12.148 59.6138 12.148H60.6698C60.9738 12.148 61.2178 12.092 61.4018 11.98C61.5858 11.86 61.6778 11.704 61.6778 11.512V11.164C61.6778 11.036 61.6218 10.924 61.5098 10.828C61.4058 10.724 61.2698 10.656 61.1018 10.624L59.0258 10.264C58.5858 10.184 58.2338 10.02 57.9698 9.772C57.7058 9.516 57.5738 9.22 57.5738 8.884V8.488C57.5738 8.016 57.7618 7.636 58.1378 7.348C58.5138 7.06 59.0178 6.916 59.6498 6.916H60.6578C61.2578 6.916 61.7378 7.08 62.0978 7.408C62.4658 7.736 62.6498 8.172 62.6498 8.716H61.5578C61.5498 8.46 61.4618 8.256 61.2938 8.104C61.1338 7.944 60.9218 7.864 60.6578 7.864H59.6618C59.3658 7.864 59.1298 7.924 58.9538 8.044C58.7858 8.164 58.7018 8.324 58.7018 8.524V8.824C58.7018 8.952 58.7578 9.064 58.8698 9.16C58.9818 9.256 59.1258 9.324 59.3018 9.364L61.4018 9.736C61.8178 9.808 62.1538 9.968 62.4098 10.216C62.6738 10.464 62.8058 10.752 62.8058 11.08V11.548C62.8058 12.012 62.6098 12.388 62.2178 12.676C61.8258 12.956 61.3098 13.096 60.6698 13.096H59.6138ZM66.2291 13.096C65.5251 13.096 64.9571 12.896 64.5251 12.496C64.1011 12.088 63.8891 11.556 63.8891 10.9V9.244C63.8891 8.54 64.1011 7.976 64.5251 7.552C64.9571 7.128 65.5251 6.916 66.2291 6.916H67.2131C67.8931 6.916 68.4411 7.124 68.8571 7.54C69.2731 7.956 69.4811 8.508 69.4811 9.196V10.324H65.0051V10.9C65.0051 11.268 65.1171 11.564 65.3411 11.788C65.5651 12.012 65.8611 12.124 66.2291 12.124H67.1531C67.5131 12.124 67.8051 12.032 68.0291 11.848C68.2531 11.656 68.3651 11.404 68.3651 11.092H69.4571C69.4571 11.692 69.2451 12.176 68.8211 12.544C68.3971 12.912 67.8371 13.096 67.1411 13.096H66.2291ZM68.3651 9.436V9.196C68.3651 8.796 68.2571 8.476 68.0411 8.236C67.8331 7.996 67.5571 7.876 67.2131 7.876H66.2291C65.8611 7.876 65.5651 8.004 65.3411 8.26C65.1171 8.508 65.0051 8.84 65.0051 9.256V9.436H68.3651ZM70.8556 7.012H71.9236V7.888C72.0836 7.624 72.3156 7.408 72.6196 7.24C72.9316 7.072 73.2556 6.988 73.5916 6.988H74.2156V7.984H73.5916C73.1036 7.984 72.7116 8.136 72.4156 8.44C72.1196 8.736 71.9716 9.128 71.9716 9.616V13H70.8556V7.012Z" fill="url(#paint0_linear_701_225)"/>
<defs>
<linearGradient id="paint0_linear_701_225" x1="74.8696" y1="2.15625" x2="67.9576" y2="28.9923" gradientUnits="userSpaceOnUse">
<stop stop-color="#FCB433"/>
<stop offset="1" stop-color="#966B1E"/>
</linearGradient>
</defs>
</svg>
