<svg width="69" height="57" viewBox="0 0 69 57" fill="none" xmlns="http://www.w3.org/2000/svg">
<path fill-rule="evenodd" clip-rule="evenodd" d="M69.0005 56.7997C52.2719 56.3598 41.58 54.9538 32.761 50.4603C21.4713 44.7079 12.2925 35.5291 6.54007 24.2394C3.22599 17.7351 1.59139 10.2121 0.785156 0H69.0005V56.7997Z" fill="url(#paint0_linear_733_266)" fill-opacity="0.3"/>
<path fill-rule="evenodd" clip-rule="evenodd" d="M52.9771 24.4583C52.9923 24.1496 53 23.8303 53 23.5C53 19.975 52.1201 17.6985 50.7108 16.2892C49.3015 14.8799 47.025 14 43.5 14C39.975 14 37.6985 14.8799 36.2892 16.2892C35.4763 17.1021 34.8395 18.2035 34.4462 19.6667H32.3872C33.5359 14.5556 37.2402 12 43.5 12C51.1667 12 55 15.8333 55 23.5C55 23.8264 54.9931 24.1458 54.9792 24.4583H52.9771ZM52.5538 27.3333H54.6128C53.4641 32.4444 49.7598 35 43.5 35C35.8333 35 32 31.1667 32 23.5C32 23.1736 32.0069 22.8542 32.0208 22.5417H34.0229C34.0077 22.8504 34 23.1697 34 23.5C34 27.025 34.8799 29.3015 36.2892 30.7108C37.6985 32.1201 39.975 33 43.5 33C47.025 33 49.3015 32.1201 50.7108 30.7108C51.5237 29.8979 52.1605 28.7965 52.5538 27.3333Z" fill="url(#paint1_linear_733_266)"/>
<path d="M32.1787 13.7798V19.5298H38.1787" stroke="url(#paint2_linear_733_266)" stroke-width="2" stroke-linecap="round" stroke-linejoin="round"/>
<path d="M54 33.2202L54 27.4702L48 27.4702" stroke="url(#paint3_linear_733_266)" stroke-width="2" stroke-linecap="round" stroke-linejoin="round"/>
<defs>
<linearGradient id="paint0_linear_733_266" x1="63.0687" y1="7.65464" x2="12.501" y2="53.663" gradientUnits="userSpaceOnUse">
<stop stop-color="#FCB433"/>
<stop offset="1" stop-color="#966B1E"/>
</linearGradient>
<linearGradient id="paint1_linear_733_266" x1="34" y1="15.0996" x2="53.8" y2="30.0996" gradientUnits="userSpaceOnUse">
<stop stop-color="#FCB433"/>
<stop offset="1" stop-color="#966B1E"/>
</linearGradient>
<linearGradient id="paint2_linear_733_266" x1="32.7005" y1="14.5547" x2="37.7036" y2="18.5097" gradientUnits="userSpaceOnUse">
<stop stop-color="#FCB433"/>
<stop offset="1" stop-color="#966B1E"/>
</linearGradient>
<linearGradient id="paint3_linear_733_266" x1="53.4783" y1="32.4453" x2="48.4751" y2="28.4903" gradientUnits="userSpaceOnUse">
<stop stop-color="#FCB433"/>
<stop offset="1" stop-color="#966B1E"/>
</linearGradient>
</defs>
</svg>
