<svg width="31" height="16" viewBox="0 0 31 16" fill="none" xmlns="http://www.w3.org/2000/svg">
<path opacity="0.4" d="M0.376 0.799999H1.256V5.952H7.72V0.799999H8.6V12H7.72V6.736H1.256V12H0.376V0.799999ZM13.7768 12.128C12.9341 12.128 12.2514 11.872 11.7288 11.36C11.2168 10.848 10.9608 10.1707 10.9608 9.328V6.848C10.9608 5.96267 11.2168 5.248 11.7288 4.704C12.2514 4.16 12.9341 3.888 13.7768 3.888H15.0888C15.8994 3.888 16.5501 4.15467 17.0408 4.688C17.5421 5.21067 17.7928 5.90933 17.7928 6.784V8.128H11.8248V9.328C11.8248 9.936 12.0008 10.4267 12.3528 10.8C12.7154 11.1733 13.1901 11.36 13.7768 11.36H14.9928C15.5688 11.36 16.0328 11.1947 16.3848 10.864C16.7474 10.5227 16.9288 10.08 16.9288 9.536H17.7608C17.7608 10.3147 17.5048 10.944 16.9928 11.424C16.4914 11.8933 15.8248 12.128 14.9928 12.128H13.7768ZM16.9448 7.392V6.784C16.9448 6.144 16.7741 5.632 16.4328 5.248C16.0914 4.85333 15.6434 4.656 15.0888 4.656H13.7768C13.1901 4.656 12.7154 4.85867 12.3528 5.264C12.0008 5.66933 11.8248 6.19733 11.8248 6.848V7.392H16.9448ZM21.9355 12C21.2422 12 20.7462 11.84 20.4475 11.52C20.1488 11.2 19.9995 10.6667 19.9995 9.92V0.799999H20.8635V9.92C20.8635 10.3893 20.9435 10.7253 21.1035 10.928C21.2742 11.1307 21.5515 11.232 21.9355 11.232H22.4475V12H21.9355ZM24.1714 4.016H25.0034V5.264C25.238 4.848 25.5474 4.51733 25.9314 4.272C26.326 4.016 26.726 3.888 27.1314 3.888H28.2994C29.11 3.888 29.7607 4.15467 30.2514 4.688C30.7527 5.21067 31.0034 5.904 31.0034 6.768V8.944C31.0034 9.904 30.7527 10.6773 30.2514 11.264C29.75 11.84 29.078 12.128 28.2354 12.128H27.0674C26.6834 12.128 26.3047 12.016 25.9314 11.792C25.5687 11.568 25.27 11.2693 25.0354 10.896V15.184H24.1714V4.016ZM28.2194 11.36C28.806 11.36 29.2754 11.1413 29.6274 10.704C29.9794 10.256 30.1554 9.66933 30.1554 8.944V6.768C30.1554 6.13867 29.9847 5.632 29.6434 5.248C29.302 4.85333 28.8487 4.656 28.2834 4.656H27.1314C26.662 4.656 26.23 4.848 25.8354 5.232C25.4514 5.60533 25.1847 6.05867 25.0354 6.592V9.344C25.1314 9.87733 25.3714 10.3467 25.7554 10.752C26.1394 11.1573 26.5874 11.36 27.0994 11.36H28.2194Z" fill="white"/>
</svg>
