<svg width="54" height="13" viewBox="0 0 54 13" fill="none" xmlns="http://www.w3.org/2000/svg">
<path d="M0.477563 0.799999H1.35756L5.46956 8.48L9.46956 0.799999H10.3336V12H9.46956V2.448L5.90156 9.264C5.8269 9.40267 5.75756 9.49867 5.69356 9.552C5.64023 9.60533 5.57623 9.632 5.50156 9.632H5.22956L1.34156 2.448V12H0.477563V0.799999ZM15.2149 12.128C14.4683 12.128 13.8709 11.936 13.4229 11.552C12.9749 11.1573 12.7509 10.6347 12.7509 9.984V9.376C12.7509 8.72533 12.9803 8.208 13.4389 7.824C13.8976 7.44 14.5056 7.248 15.2629 7.248H16.3029C16.6656 7.248 17.0389 7.30667 17.4229 7.424C17.8176 7.54133 18.1536 7.70133 18.4309 7.904V6.352C18.4309 5.85067 18.2763 5.44 17.9669 5.12C17.6576 4.8 17.2576 4.64 16.7669 4.64H15.5189C15.0176 4.64 14.6123 4.75733 14.3029 4.992C13.9936 5.22667 13.8389 5.54133 13.8389 5.936H12.9749C12.9749 5.31733 13.2096 4.82133 13.6789 4.448C14.1483 4.07467 14.7616 3.888 15.5189 3.888H16.7669C17.5243 3.888 18.1269 4.112 18.5749 4.56C19.0336 5.008 19.2629 5.60533 19.2629 6.352V12H18.4469V10.752C18.1696 11.1787 17.8283 11.5147 17.4229 11.76C17.0176 12.0053 16.6069 12.128 16.1909 12.128H15.2149ZM16.2069 11.36C16.6549 11.36 17.0816 11.2 17.4869 10.88C17.9029 10.56 18.2176 10.1387 18.4309 9.616V8.752C18.1963 8.528 17.8816 8.34667 17.4869 8.208C17.1029 8.06933 16.7083 8 16.3029 8H15.2629C14.7616 8 14.3616 8.128 14.0629 8.384C13.7643 8.62933 13.6149 8.96 13.6149 9.376V9.984C13.6149 10.4 13.7589 10.736 14.0469 10.992C14.3349 11.2373 14.7243 11.36 15.2149 11.36H16.2069ZM21.7886 4.016H22.6206V5.376C22.8872 4.91733 23.2232 4.55467 23.6286 4.288C24.0446 4.02133 24.4659 3.888 24.8926 3.888H25.9646C26.6579 3.888 27.2179 4.13333 27.6446 4.624C28.0819 5.104 28.3006 5.744 28.3006 6.544V12H27.4526V6.528C27.4526 5.97333 27.3139 5.52533 27.0366 5.184C26.7592 4.832 26.3966 4.656 25.9486 4.656H24.9086C24.4286 4.656 23.9752 4.85333 23.5486 5.248C23.1219 5.64267 22.8232 6.15467 22.6526 6.784V12H21.7886V4.016ZM31.5554 2.656C31.3421 2.656 31.1661 2.592 31.0274 2.464C30.8994 2.336 30.8354 2.16533 30.8354 1.952C30.8354 1.73867 30.8994 1.568 31.0274 1.44C31.1661 1.30133 31.3421 1.232 31.5554 1.232C31.7688 1.232 31.9394 1.30133 32.0674 1.44C32.1954 1.568 32.2594 1.73867 32.2594 1.952C32.2594 2.15467 32.1954 2.32533 32.0674 2.464C31.9394 2.592 31.7688 2.656 31.5554 2.656ZM31.1234 4.016H31.9714V12H31.1234V4.016ZM37.9223 12C37.1116 12 36.5303 11.8293 36.1783 11.488C35.8263 11.136 35.6503 10.56 35.6503 9.76V4.784H34.2423V4.016H35.6503V1.6H36.4983V4.016H38.5783V4.784H36.4983V9.76C36.4983 10.2827 36.605 10.6613 36.8183 10.896C37.0316 11.12 37.389 11.232 37.8903 11.232H38.5783V12H37.9223ZM43.1603 12.128C42.307 12.128 41.619 11.8613 41.0963 11.328C40.5736 10.784 40.3123 10.0747 40.3123 9.2V6.816C40.3123 5.94133 40.5736 5.23733 41.0963 4.704C41.6296 4.16 42.3283 3.888 43.1923 3.888H44.4563C45.3203 3.888 46.0136 4.16 46.5363 4.704C47.0696 5.23733 47.3363 5.94133 47.3363 6.816V9.2C47.3363 10.0747 47.0696 10.784 46.5363 11.328C46.003 11.8613 45.299 12.128 44.4243 12.128H43.1603ZM44.4243 11.36C45.043 11.36 45.539 11.1627 45.9123 10.768C46.2963 10.3733 46.4883 9.85067 46.4883 9.2V6.816C46.4883 6.16533 46.3016 5.64267 45.9283 5.248C45.555 4.85333 45.0643 4.656 44.4563 4.656H43.1923C42.5843 4.656 42.0936 4.85333 41.7203 5.248C41.3576 5.64267 41.1763 6.16533 41.1763 6.816V9.2C41.1763 9.85067 41.3576 10.3733 41.7203 10.768C42.083 11.1627 42.563 11.36 43.1603 11.36H44.4243ZM49.6479 4.016H50.4799V5.312C50.7146 4.90667 51.0506 4.58667 51.4879 4.352C51.9253 4.10667 52.3946 3.984 52.8959 3.984H53.4879V4.752H52.8799C52.1866 4.752 51.6159 4.976 51.1679 5.424C50.7306 5.872 50.5119 6.45333 50.5119 7.168V12H49.6479V4.016Z" fill="url(#paint0_linear_611_2303)"/>
<defs>
<linearGradient id="paint0_linear_611_2303" x1="-1.70548" y1="-1.12329" x2="4.05505" y2="24.5429" gradientUnits="userSpaceOnUse">
<stop stop-color="#727272"/>
<stop offset="1" stop-color="white"/>
</linearGradient>
</defs>
</svg>
