<svg width="440" height="135" viewBox="0 0 440 135" fill="none" xmlns="http://www.w3.org/2000/svg">
<path opacity="0.7" d="M372.5 134L67.5 134C57.0026 134 49.1797 133.999 42.9461 133.574C36.7214 133.149 32.1546 132.305 28.1619 130.651C17.3807 126.185 8.81503 117.619 4.3493 106.838C2.69547 102.845 1.85056 98.2786 1.42584 92.0539C1.00055 85.8203 1 77.9974 1 67.5C1 57.0026 1.00055 49.1797 1.42584 42.9461C1.85056 36.7214 2.69547 32.1546 4.3493 28.1619C8.81503 17.3807 17.3807 8.81504 28.1619 4.3493C32.1546 2.69547 36.7214 1.85056 42.9461 1.42586C49.1797 1.00054 57.0026 1 67.5 1L372.5 1C382.997 1 390.82 1.00054 397.054 1.42586C403.279 1.85056 407.845 2.69547 411.838 4.3493C422.619 8.81503 431.185 17.3807 435.651 28.1619C437.305 32.1546 438.149 36.7214 438.574 42.9461C438.999 49.1797 439 57.0026 439 67.5C439 77.9974 438.999 85.8203 438.574 92.0539C438.149 98.2786 437.305 102.845 435.651 106.838C431.185 117.619 422.619 126.185 411.838 130.651C407.845 132.305 403.279 133.149 397.054 133.574C390.82 133.999 382.997 134 372.5 134Z" stroke="url(#paint0_linear_1253_596)" stroke-width="2"/>
<defs>
<linearGradient id="paint0_linear_1253_596" x1="415.89" y1="13.8699" x2="351.629" y2="222.466" gradientUnits="userSpaceOnUse">
<stop stop-color="#727272"/>
<stop offset="1" stop-color="white"/>
</linearGradient>
</defs>
</svg>
