<svg width="51" height="16" viewBox="0 0 51 16" fill="none" xmlns="http://www.w3.org/2000/svg">
<path opacity="0.4" d="M3.20538 12.128C2.25604 12.128 1.49871 11.8453 0.933375 11.28C0.378708 10.7147 0.101375 9.94667 0.101375 8.976H0.965375C0.965375 9.70133 1.16804 10.2773 1.57338 10.704C1.97871 11.12 2.52804 11.328 3.22137 11.328H5.01338C5.68538 11.328 6.22404 11.1733 6.62938 10.864C7.04538 10.5547 7.25338 10.1493 7.25338 9.648V8.56C7.25338 8.15467 7.10404 7.808 6.80538 7.52C6.50671 7.232 6.09071 7.04533 5.55738 6.96L2.69338 6.48C1.92538 6.352 1.32271 6.07467 0.885375 5.648C0.458708 5.22133 0.245375 4.688 0.245375 4.048V3.12C0.245375 2.384 0.522708 1.792 1.07738 1.344C1.63204 0.896 2.36271 0.672 3.26938 0.672H5.07738C5.94138 0.672 6.63471 0.933333 7.15738 1.456C7.69071 1.97867 7.95738 2.66667 7.95738 3.52H7.09338C7.09338 2.90133 6.90671 2.40533 6.53338 2.032C6.17071 1.648 5.68538 1.456 5.07738 1.456H3.26938C2.61871 1.456 2.09604 1.61067 1.70138 1.92C1.31738 2.21867 1.12538 2.61867 1.12538 3.12V4.048C1.12538 4.47467 1.26938 4.832 1.55738 5.12C1.84538 5.408 2.25071 5.59467 2.77338 5.68L5.62138 6.176C6.41071 6.31467 7.02404 6.592 7.46138 7.008C7.90938 7.424 8.13338 7.94133 8.13338 8.56V9.648C8.13338 10.3947 7.85071 10.9973 7.28538 11.456C6.72004 11.904 5.96804 12.128 5.02938 12.128H3.20538ZM12.8393 12.128C11.9966 12.128 11.3139 11.872 10.7913 11.36C10.2793 10.848 10.0233 10.1707 10.0233 9.328V6.848C10.0233 5.96267 10.2793 5.248 10.7913 4.704C11.3139 4.16 11.9966 3.888 12.8393 3.888H14.1513C14.9619 3.888 15.6126 4.15467 16.1033 4.688C16.6046 5.21067 16.8553 5.90933 16.8553 6.784V8.128H10.8873V9.328C10.8873 9.936 11.0633 10.4267 11.4153 10.8C11.7779 11.1733 12.2526 11.36 12.8393 11.36H14.0553C14.6313 11.36 15.0953 11.1947 15.4473 10.864C15.8099 10.5227 15.9913 10.08 15.9913 9.536H16.8233C16.8233 10.3147 16.5673 10.944 16.0553 11.424C15.5539 11.8933 14.8873 12.128 14.0553 12.128H12.8393ZM16.0073 7.392V6.784C16.0073 6.144 15.8366 5.632 15.4953 5.248C15.1539 4.85333 14.7059 4.656 14.1513 4.656H12.8393C12.2526 4.656 11.7779 4.85867 11.4153 5.264C11.0633 5.66933 10.8873 6.19733 10.8873 6.848V7.392H16.0073ZM22.0083 12C21.1976 12 20.6163 11.8293 20.2643 11.488C19.9123 11.136 19.7363 10.56 19.7363 9.76V4.784H18.3283V4.016H19.7363V1.6H20.5843V4.016H22.6643V4.784H20.5843V9.76C20.5843 10.2827 20.6909 10.6613 20.9043 10.896C21.1176 11.12 21.4749 11.232 21.9763 11.232H22.6643V12H22.0083ZM28.0083 12C27.1976 12 26.6163 11.8293 26.2643 11.488C25.9123 11.136 25.7363 10.56 25.7363 9.76V4.784H24.3283V4.016H25.7363V1.6H26.5843V4.016H28.6643V4.784H26.5843V9.76C26.5843 10.2827 26.6909 10.6613 26.9043 10.896C27.1176 11.12 27.4749 11.232 27.9763 11.232H28.6643V12H28.0083ZM31.6883 2.656C31.4749 2.656 31.2989 2.592 31.1603 2.464C31.0323 2.336 30.9683 2.16533 30.9683 1.952C30.9683 1.73867 31.0323 1.568 31.1603 1.44C31.2989 1.30133 31.4749 1.232 31.6883 1.232C31.9016 1.232 32.0723 1.30133 32.2003 1.44C32.3283 1.568 32.3923 1.73867 32.3923 1.952C32.3923 2.15467 32.3283 2.32533 32.2003 2.464C32.0723 2.592 31.9016 2.656 31.6883 2.656ZM31.2563 4.016H32.1043V12H31.2563V4.016ZM35.0151 4.016H35.8471V5.376C36.1138 4.91733 36.4498 4.55467 36.8551 4.288C37.2711 4.02133 37.6925 3.888 38.1191 3.888H39.1911C39.8845 3.888 40.4445 4.13333 40.8711 4.624C41.3085 5.104 41.5271 5.744 41.5271 6.544V12H40.6791V6.528C40.6791 5.97333 40.5405 5.52533 40.2631 5.184C39.9858 4.832 39.6231 4.656 39.1751 4.656H38.1351C37.6551 4.656 37.2018 4.85333 36.7751 5.248C36.3485 5.64267 36.0498 6.15467 35.8791 6.784V12H35.0151V4.016ZM46.51 15.248C45.8487 15.248 45.3047 15.072 44.878 14.72C44.4513 14.3787 44.2113 13.9253 44.158 13.36H45.022C45.0647 13.7013 45.2193 13.9733 45.486 14.176C45.7633 14.3893 46.1047 14.496 46.51 14.496H47.838C48.4353 14.496 48.8993 14.2987 49.23 13.904C49.5607 13.52 49.726 12.9813 49.726 12.288V10.72C49.47 11.104 49.1447 11.4133 48.75 11.648C48.366 11.8827 47.9767 12 47.582 12H46.398C45.6087 12 44.9687 11.728 44.478 11.184C43.9873 10.64 43.742 9.92 43.742 9.024V6.96C43.742 6.04267 43.998 5.30133 44.51 4.736C45.0327 4.17067 45.7207 3.888 46.574 3.888H47.758C48.142 3.888 48.5153 3.99467 48.878 4.208C49.2513 4.41067 49.5393 4.68267 49.742 5.024V4.016H50.574V12.288C50.574 13.216 50.334 13.9413 49.854 14.464C49.374 14.9867 48.702 15.248 47.838 15.248H46.51ZM47.566 11.232C48.0993 11.232 48.5633 11.024 48.958 10.608C49.3633 10.1813 49.6193 9.68533 49.726 9.12V6.464C49.63 5.93067 49.3953 5.49867 49.022 5.168C48.6593 4.82667 48.238 4.656 47.758 4.656H46.59C45.9927 4.656 45.5127 4.86933 45.15 5.296C44.7873 5.72267 44.606 6.27733 44.606 6.96V9.024C44.606 9.67467 44.7713 10.208 45.102 10.624C45.4433 11.0293 45.8807 11.232 46.414 11.232H47.566Z" fill="white"/>
</svg>
