<svg width="41" height="34" viewBox="0 0 41 34" fill="none" xmlns="http://www.w3.org/2000/svg">
<path d="M1.625 16.6934C1.625 23.5794 2.53881 27.2969 5.0951 29.4271C6.388 30.5046 8.19197 31.2548 10.7498 31.7285C13.3103 32.2027 16.5518 32.387 20.6573 32.387C24.7627 32.387 28.0043 32.2027 30.5647 31.7285C33.1225 31.2548 34.9265 30.5046 36.2194 29.4271C38.7757 27.2969 39.6895 23.5794 39.6895 16.6934C39.6895 9.80745 38.7757 6.08993 36.2194 3.95968C34.9265 2.88226 33.1225 2.13204 30.5647 1.65832C28.0043 1.18412 24.7627 0.999863 20.6573 0.999863C16.5518 0.999863 13.3103 1.18412 10.7498 1.65832C8.19197 2.13204 6.388 2.88226 5.0951 3.95968C2.53881 6.08993 1.625 9.80745 1.625 16.6934Z" stroke="url(#paint0_linear_611_2289)" stroke-width="2" stroke-linecap="round" stroke-linejoin="round"/>
<defs>
<linearGradient id="paint0_linear_611_2289" x1="31.0799" y1="-14.0471" x2="35.1572" y2="14.2995" gradientUnits="userSpaceOnUse">
<stop stop-color="#101010" stop-opacity="0.2"/>
<stop offset="1" stop-color="white" stop-opacity="0.7"/>
</linearGradient>
</defs>
</svg>
