<svg width="61" height="13" viewBox="0 0 61 13" fill="none" xmlns="http://www.w3.org/2000/svg">
<path opacity="0.4" d="M4.01006 12.128C3.06073 12.128 2.3034 11.8453 1.73806 11.28C1.1834 10.7147 0.906063 9.94667 0.906063 8.976H1.77006C1.77006 9.70133 1.97273 10.2773 2.37806 10.704C2.7834 11.12 3.33273 11.328 4.02606 11.328H5.81806C6.49006 11.328 7.02873 11.1733 7.43406 10.864C7.85006 10.5547 8.05806 10.1493 8.05806 9.648V8.56C8.05806 8.15467 7.90873 7.808 7.61006 7.52C7.3114 7.232 6.8954 7.04533 6.36206 6.96L3.49806 6.48C2.73006 6.352 2.1274 6.07467 1.69006 5.648C1.2634 5.22133 1.05006 4.688 1.05006 4.048V3.12C1.05006 2.384 1.3274 1.792 1.88206 1.344C2.43673 0.896 3.1674 0.672 4.07406 0.672H5.88206C6.74606 0.672 7.4394 0.933333 7.96206 1.456C8.4954 1.97867 8.76206 2.66667 8.76206 3.52H7.89806C7.89806 2.90133 7.7114 2.40533 7.33806 2.032C6.9754 1.648 6.49006 1.456 5.88206 1.456H4.07406C3.4234 1.456 2.90073 1.61067 2.50606 1.92C2.12206 2.21867 1.93006 2.61867 1.93006 3.12V4.048C1.93006 4.47467 2.07406 4.832 2.36206 5.12C2.65006 5.408 3.0554 5.59467 3.57806 5.68L6.42606 6.176C7.2154 6.31467 7.82873 6.592 8.26606 7.008C8.71406 7.424 8.93806 7.94133 8.93806 8.56V9.648C8.93806 10.3947 8.6554 10.9973 8.09006 11.456C7.52473 11.904 6.77273 12.128 5.83406 12.128H4.01006ZM14.1879 12C13.3773 12 12.7959 11.8293 12.4439 11.488C12.0919 11.136 11.9159 10.56 11.9159 9.76V4.784H10.5079V4.016H11.9159V1.6H12.7639V4.016H14.8439V4.784H12.7639V9.76C12.7639 10.2827 12.8706 10.6613 13.0839 10.896C13.2973 11.12 13.6546 11.232 14.1559 11.232H14.8439V12H14.1879ZM19.1524 12.128C18.4058 12.128 17.8084 11.936 17.3604 11.552C16.9124 11.1573 16.6884 10.6347 16.6884 9.984V9.376C16.6884 8.72533 16.9178 8.208 17.3764 7.824C17.8351 7.44 18.4431 7.248 19.2004 7.248H20.2404C20.6031 7.248 20.9764 7.30667 21.3604 7.424C21.7551 7.54133 22.0911 7.70133 22.3684 7.904V6.352C22.3684 5.85067 22.2138 5.44 21.9044 5.12C21.5951 4.8 21.1951 4.64 20.7044 4.64H19.4564C18.9551 4.64 18.5498 4.75733 18.2404 4.992C17.9311 5.22667 17.7764 5.54133 17.7764 5.936H16.9124C16.9124 5.31733 17.1471 4.82133 17.6164 4.448C18.0858 4.07467 18.6991 3.888 19.4564 3.888H20.7044C21.4618 3.888 22.0644 4.112 22.5124 4.56C22.9711 5.008 23.2004 5.60533 23.2004 6.352V12H22.3844V10.752C22.1071 11.1787 21.7658 11.5147 21.3604 11.76C20.9551 12.0053 20.5444 12.128 20.1284 12.128H19.1524ZM20.1444 11.36C20.5924 11.36 21.0191 11.2 21.4244 10.88C21.8404 10.56 22.1551 10.1387 22.3684 9.616V8.752C22.1338 8.528 21.8191 8.34667 21.4244 8.208C21.0404 8.06933 20.6458 8 20.2404 8H19.2004C18.6991 8 18.2991 8.128 18.0004 8.384C17.7018 8.62933 17.5524 8.96 17.5524 9.376V9.984C17.5524 10.4 17.6964 10.736 17.9844 10.992C18.2724 11.2373 18.6618 11.36 19.1524 11.36H20.1444ZM28.7661 12C27.9554 12 27.3741 11.8293 27.0221 11.488C26.6701 11.136 26.4941 10.56 26.4941 9.76V4.784H25.0861V4.016H26.4941V1.6H27.3421V4.016H29.4221V4.784H27.3421V9.76C27.3421 10.2827 27.4487 10.6613 27.6621 10.896C27.8754 11.12 28.2327 11.232 28.7341 11.232H29.4221V12H28.7661ZM32.4461 2.656C32.2327 2.656 32.0567 2.592 31.9181 2.464C31.7901 2.336 31.7261 2.16533 31.7261 1.952C31.7261 1.73867 31.7901 1.568 31.9181 1.44C32.0567 1.30133 32.2327 1.232 32.4461 1.232C32.6594 1.232 32.8301 1.30133 32.9581 1.44C33.0861 1.568 33.1501 1.73867 33.1501 1.952C33.1501 2.15467 33.0861 2.32533 32.9581 2.464C32.8301 2.592 32.6594 2.656 32.4461 2.656ZM32.0141 4.016H32.8621V12H32.0141V4.016ZM37.8849 12.128C37.1276 12.128 36.5143 11.9093 36.0449 11.472C35.5863 11.024 35.3569 10.4373 35.3569 9.712H36.1889C36.1889 10.2027 36.3436 10.6027 36.6529 10.912C36.9729 11.2213 37.3836 11.376 37.8849 11.376H39.2609C39.7836 11.376 40.1996 11.2693 40.5089 11.056C40.8289 10.8427 40.9889 10.5653 40.9889 10.224V9.6C40.9889 9.36533 40.8983 9.15733 40.7169 8.976C40.5463 8.79467 40.3223 8.67733 40.0449 8.624L37.2609 8.144C36.7383 8.05867 36.3169 7.86133 35.9969 7.552C35.6876 7.232 35.5329 6.85867 35.5329 6.432V5.888C35.5329 5.29067 35.7516 4.81067 36.1889 4.448C36.6369 4.07467 37.2236 3.888 37.9489 3.888H39.3089C40.0129 3.888 40.5783 4.09067 41.0049 4.496C41.4423 4.90133 41.6609 5.43467 41.6609 6.096H40.8289C40.8076 5.65867 40.6583 5.30667 40.3809 5.04C40.1143 4.77333 39.7569 4.64 39.3089 4.64H37.9489C37.4796 4.64 37.1009 4.75733 36.8129 4.992C36.5249 5.216 36.3809 5.51467 36.3809 5.888V6.4C36.3809 6.64533 36.4769 6.864 36.6689 7.056C36.8609 7.23733 37.1116 7.34933 37.4209 7.392L40.2049 7.872C40.6956 7.95733 41.0903 8.15467 41.3889 8.464C41.6876 8.77333 41.8369 9.14133 41.8369 9.568V10.24C41.8369 10.8053 41.6023 11.264 41.1329 11.616C40.6636 11.9573 40.0396 12.128 39.2609 12.128H37.8849ZM46.9223 12C46.1116 12 45.5303 11.8293 45.1783 11.488C44.8263 11.136 44.6503 10.56 44.6503 9.76V4.784H43.2423V4.016H44.6503V1.6H45.4983V4.016H47.5783V4.784H45.4983V9.76C45.4983 10.2827 45.605 10.6613 45.8183 10.896C46.0316 11.12 46.389 11.232 46.8903 11.232H47.5783V12H46.9223ZM50.6023 2.656C50.389 2.656 50.213 2.592 50.0743 2.464C49.9463 2.336 49.8823 2.16533 49.8823 1.952C49.8823 1.73867 49.9463 1.568 50.0743 1.44C50.213 1.30133 50.389 1.232 50.6023 1.232C50.8156 1.232 50.9863 1.30133 51.1143 1.44C51.2423 1.568 51.3063 1.73867 51.3063 1.952C51.3063 2.15467 51.2423 2.32533 51.1143 2.464C50.9863 2.592 50.8156 2.656 50.6023 2.656ZM50.1703 4.016H51.0183V12H50.1703V4.016ZM56.3772 12.128C55.5452 12.128 54.8732 11.872 54.3612 11.36C53.8599 10.8373 53.6092 10.1547 53.6092 9.312V6.848C53.6092 5.96267 53.8599 5.248 54.3612 4.704C54.8732 4.16 55.5399 3.888 56.3612 3.888H57.6732C58.4519 3.888 59.0759 4.10133 59.5452 4.528C60.0252 4.95467 60.2652 5.51467 60.2652 6.208H59.4332C59.4332 5.73867 59.2679 5.36533 58.9372 5.088C58.6172 4.8 58.1959 4.656 57.6732 4.656H56.3612C55.7959 4.656 55.3372 4.85867 54.9852 5.264C54.6439 5.65867 54.4732 6.18667 54.4732 6.848V9.312C54.4732 9.93067 54.6439 10.4267 54.9852 10.8C55.3372 11.1733 55.8012 11.36 56.3772 11.36H57.6892C58.2225 11.36 58.6545 11.1733 58.9852 10.8C59.3159 10.4267 59.4812 9.936 59.4812 9.328H60.3132C60.3132 10.1707 60.0732 10.848 59.5932 11.36C59.1132 11.872 58.4785 12.128 57.6892 12.128H56.3772Z" fill="white"/>
</svg>
