<svg width="208" height="45" viewBox="0 0 208 45" fill="none" xmlns="http://www.w3.org/2000/svg">
<path d="M40.7081 5.81819L6 5.81819C3.23858 5.81819 0.999998 8.05677 0.999999 10.8182L1 39C1 41.7614 3.23858 44 6 44L45.9329 44" stroke="url(#paint0_linear_1226_362)"/>
<path d="M167.292 5.81819L202 5.81819C204.761 5.81819 207 8.05677 207 10.8182L207 39C207 41.7614 204.761 44 202 44L162.067 44" stroke="url(#paint1_linear_1226_362)"/>
<path d="M47.2658 9.08802C46.7965 9.08802 46.3785 8.97435 46.0118 8.74702C45.6525 8.51968 45.3738 8.20068 45.1758 7.79002C44.9778 7.37202 44.8788 6.89168 44.8788 6.34902L44.8788 3.94002C44.8788 3.39735 44.9778 2.92068 45.1758 2.51001C45.3811 2.09935 45.6671 1.78035 46.0338 1.55301C46.4078 1.32568 46.8331 1.21202 47.3098 1.21202L48.4758 1.21202C48.9305 1.21202 49.3338 1.31102 49.6858 1.50901C50.0378 1.70701 50.3091 1.98568 50.4998 2.34502C50.6905 2.69701 50.7858 3.10401 50.7858 3.56602L50.2028 3.56602C50.2028 3.02335 50.0451 2.58702 49.7298 2.25701C49.4145 1.91968 48.9965 1.75101 48.4758 1.75101L47.3098 1.75101C46.7671 1.75101 46.3271 1.95268 45.9898 2.35601C45.6525 2.75935 45.4838 3.28735 45.4838 3.94002L45.4838 6.34902C45.4838 7.00902 45.6451 7.54068 45.9678 7.94402C46.2978 8.34002 46.7305 8.53802 47.2658 8.53802L48.4538 8.53802C48.9891 8.53802 49.4181 8.35835 49.7408 7.99902C50.0635 7.63235 50.2248 7.14835 50.2248 6.54702L50.8078 6.54702C50.8078 7.05302 50.7088 7.50035 50.5108 7.88902C50.3201 8.27035 50.0451 8.56735 49.6858 8.78002C49.3338 8.98535 48.9231 9.08802 48.4538 9.08802L47.2658 9.08802ZM56.3715 6.75602L52.9065 6.75602L52.0595 9.00002L51.4325 9.00002L54.3695 1.30001L54.6555 1.30001C54.8315 1.30001 54.9635 1.41368 55.0515 1.64102L57.8345 9.00002L57.2075 9.00002L56.3715 6.75602ZM53.0935 6.23902L56.1845 6.23902L54.6445 2.11401L54.6335 2.11401L53.0935 6.23902ZM59.0851 1.30001L59.6901 1.30001L62.5171 6.58002L65.2671 1.30001L65.8611 1.30001L65.8611 9.00002L65.2671 9.00002L65.2671 2.43302L62.8141 7.11902C62.7628 7.21435 62.7151 7.28035 62.6711 7.31702C62.6344 7.35368 62.5904 7.37202 62.5391 7.37202L62.3521 7.37202L59.6791 2.43302L59.6791 9.00002L59.0851 9.00002L59.0851 1.30001ZM68.3151 9.00002C68.1391 9.00002 67.9997 8.94868 67.8971 8.84602C67.8017 8.74335 67.7541 8.60035 67.7541 8.41702L67.7541 1.30001L72.7151 1.30001L72.7151 1.82802L68.3591 1.82802L68.3591 4.79802L72.3851 4.79802L72.3851 5.32602L68.3591 5.32602L68.3591 8.46102L72.7151 8.46102L72.7151 9.00002L68.3151 9.00002ZM74.2746 1.30001L77.9046 1.30001C78.4399 1.30001 78.8689 1.45035 79.1916 1.75102C79.5142 2.04435 79.6756 2.43668 79.6756 2.92801L79.6756 3.78602C79.6756 4.17468 79.5509 4.51935 79.3016 4.82002C79.0522 5.11335 78.7186 5.31502 78.3006 5.42502L78.3006 5.43602C78.5206 5.54602 78.7186 5.72568 78.8946 5.97502C79.0706 6.22435 79.2062 6.51768 79.3016 6.85502L79.9176 9.00002L79.3016 9.00002L78.6856 6.85502C78.5682 6.46635 78.3812 6.15835 78.1246 5.93102C77.8752 5.70368 77.5892 5.59002 77.2666 5.59002L74.8796 5.59002L74.8796 9.00002L74.2746 9.00002L74.2746 1.30001ZM77.6296 5.05102C78.0622 5.05102 78.4106 4.93735 78.6746 4.71002C78.9386 4.47535 79.0706 4.16735 79.0706 3.78602L79.0706 2.90602C79.0706 2.58335 78.9642 2.32668 78.7516 2.13602C78.5389 1.93802 78.2529 1.83902 77.8936 1.83902L74.8796 1.83902L74.8796 5.05102L77.6296 5.05102ZM85.6439 6.75602L82.1789 6.75602L81.3319 9.00002L80.7049 9.00002L83.6419 1.30001L83.9279 1.30001C84.1039 1.30001 84.2359 1.41368 84.3239 1.64102L87.1069 9.00002L86.4799 9.00002L85.6439 6.75602ZM82.3659 6.23902L85.4569 6.23902L83.9169 2.11401L83.9059 2.11401L82.3659 6.23902ZM98.8713 9.08802C98.4019 9.08802 97.9839 8.97435 97.6173 8.74702C97.2579 8.51968 96.9793 8.20068 96.7813 7.79002C96.5833 7.37202 96.4843 6.89168 96.4843 6.34902L96.4843 3.94002C96.4843 3.39735 96.5833 2.92068 96.7813 2.51002C96.9866 2.09935 97.2726 1.78035 97.6393 1.55302C98.0133 1.32568 98.4386 1.21202 98.9153 1.21202L100.081 1.21202C100.536 1.21202 100.939 1.31102 101.291 1.50901C101.643 1.70702 101.915 1.98568 102.105 2.34502C102.296 2.69702 102.391 3.10402 102.391 3.56602L101.808 3.56602C101.808 3.02335 101.651 2.58702 101.335 2.25702C101.02 1.91968 100.602 1.75102 100.081 1.75102L98.9153 1.75102C98.3726 1.75102 97.9326 1.95268 97.5953 2.35602C97.2579 2.75935 97.0893 3.28735 97.0893 3.94002L97.0893 6.34902C97.0893 7.00902 97.2506 7.54068 97.5733 7.94402C97.9033 8.34002 98.3359 8.53802 98.8713 8.53802L100.059 8.53802C100.595 8.53802 101.024 8.35835 101.346 7.99902C101.669 7.63235 101.83 7.14835 101.83 6.54702L102.413 6.54702C102.413 7.05302 102.314 7.50035 102.116 7.88902C101.926 8.27035 101.651 8.56735 101.291 8.78002C100.939 8.98535 100.529 9.08802 100.059 9.08802L98.8713 9.08802ZM106.157 9.08802C105.665 9.08802 105.229 8.97802 104.848 8.75802C104.474 8.53068 104.184 8.21535 103.979 7.81202C103.773 7.40135 103.671 6.93202 103.671 6.40402L103.671 3.89602C103.671 3.36068 103.773 2.89135 103.979 2.48802C104.191 2.08468 104.485 1.77302 104.859 1.55302C105.24 1.32568 105.676 1.21202 106.168 1.21202L107.312 1.21202C107.803 1.21202 108.236 1.32568 108.61 1.55302C108.991 1.77302 109.284 2.08468 109.49 2.48802C109.695 2.89135 109.798 3.36068 109.798 3.89602L109.798 6.40402C109.798 6.93202 109.691 7.40135 109.479 7.81202C109.273 8.21535 108.98 8.53068 108.599 8.75802C108.225 8.97802 107.792 9.08802 107.301 9.08802L106.157 9.08802ZM107.29 8.53802C107.854 8.53802 108.313 8.34368 108.665 7.95502C109.017 7.55902 109.193 7.04202 109.193 6.40402L109.193 3.89602C109.193 3.25068 109.017 2.73368 108.665 2.34502C108.32 1.94902 107.865 1.75102 107.301 1.75102L106.179 1.75102C105.607 1.75102 105.145 1.94902 104.793 2.34502C104.448 2.73368 104.276 3.25068 104.276 3.89602L104.276 6.40402C104.276 7.04202 104.448 7.55902 104.793 7.95502C105.145 8.34368 105.603 8.53802 106.168 8.53802L107.29 8.53802ZM111.475 1.30002L112.069 1.30002L116.513 8.04302L116.513 1.30002L117.096 1.30002L117.096 9.00002L116.513 9.00002L112.058 2.27902L112.058 9.00002L111.475 9.00002L111.475 1.30002ZM118.984 1.30002L119.578 1.30002L124.022 8.04302L124.022 1.30002L124.605 1.30002L124.605 9.00002L124.022 9.00002L119.567 2.27902L119.567 9.00002L118.984 9.00002L118.984 1.30002ZM127.053 9.00002C126.877 9.00002 126.738 8.94868 126.635 8.84602C126.54 8.74335 126.492 8.60035 126.492 8.41702L126.492 1.30002L131.453 1.30002L131.453 1.82802L127.097 1.82802L127.097 4.79802L131.123 4.79802L131.123 5.32602L127.097 5.32602L127.097 8.46102L131.453 8.46102L131.453 9.00002L127.053 9.00002ZM135.115 9.08802C134.646 9.08802 134.228 8.97435 133.861 8.74702C133.502 8.51968 133.223 8.20068 133.025 7.79002C132.827 7.37202 132.728 6.89168 132.728 6.34902L132.728 3.94002C132.728 3.39735 132.827 2.92068 133.025 2.51002C133.231 2.09935 133.517 1.78035 133.883 1.55302C134.257 1.32568 134.683 1.21202 135.159 1.21202L136.325 1.21202C136.78 1.21202 137.183 1.31102 137.535 1.50902C137.887 1.70702 138.159 1.98568 138.349 2.34502C138.54 2.69702 138.635 3.10402 138.635 3.56602L138.052 3.56602C138.052 3.02335 137.895 2.58702 137.579 2.25702C137.264 1.91968 136.846 1.75102 136.325 1.75102L135.159 1.75102C134.617 1.75102 134.177 1.95268 133.839 2.35602C133.502 2.75935 133.333 3.28735 133.333 3.94002L133.333 6.34902C133.333 7.00902 133.495 7.54068 133.817 7.94402C134.147 8.34002 134.58 8.53802 135.115 8.53802L136.303 8.53802C136.839 8.53802 137.268 8.35835 137.59 7.99902C137.913 7.63235 138.074 7.14835 138.074 6.54702L138.657 6.54702C138.657 7.05302 138.558 7.50035 138.36 7.88902C138.17 8.27035 137.895 8.56735 137.535 8.78002C137.183 8.98535 136.773 9.08802 136.303 9.08802L135.115 9.08802ZM141.898 1.82802L139.456 1.82802L139.456 1.30002L144.945 1.30002L144.945 1.82802L142.503 1.82802L142.503 9.00002L141.898 9.00002L141.898 1.82802ZM146.4 1.30002L147.005 1.30002L147.005 9.00002L146.4 9.00002L146.4 1.30002ZM151.274 9.08802C150.783 9.08802 150.346 8.97802 149.965 8.75802C149.591 8.53068 149.301 8.21535 149.096 7.81202C148.891 7.40135 148.788 6.93202 148.788 6.40402L148.788 3.89602C148.788 3.36068 148.891 2.89135 149.096 2.48802C149.309 2.08468 149.602 1.77302 149.976 1.55302C150.357 1.32568 150.794 1.21202 151.285 1.21202L152.429 1.21202C152.92 1.21202 153.353 1.32568 153.727 1.55302C154.108 1.77302 154.402 2.08468 154.607 2.48802C154.812 2.89135 154.915 3.36068 154.915 3.89602L154.915 6.40402C154.915 6.93202 154.809 7.40135 154.596 7.81202C154.391 8.21535 154.097 8.53068 153.716 8.75802C153.342 8.97802 152.909 9.08802 152.418 9.08802L151.274 9.08802ZM152.407 8.53802C152.972 8.53802 153.43 8.34368 153.782 7.95502C154.134 7.55902 154.31 7.04202 154.31 6.40402L154.31 3.89602C154.31 3.25068 154.134 2.73368 153.782 2.34502C153.437 1.94902 152.983 1.75102 152.418 1.75102L151.296 1.75102C150.724 1.75102 150.262 1.94902 149.91 2.34502C149.565 2.73368 149.393 3.25068 149.393 3.89602L149.393 6.40402C149.393 7.04202 149.565 7.55902 149.91 7.95502C150.262 8.34368 150.72 8.53802 151.285 8.53802L152.407 8.53802ZM156.592 1.30002L157.186 1.30002L161.63 8.04302L161.63 1.30002L162.213 1.30002L162.213 9.00002L161.63 9.00002L157.175 2.27902L157.175 9.00002L156.592 9.00002L156.592 1.30002Z" fill="url(#paint2_linear_1226_362)"/>
<defs>
<linearGradient id="paint0_linear_1226_362" x1="3.46207" y1="40.0772" x2="35.3572" y2="2.69455" gradientUnits="userSpaceOnUse">
<stop stop-color="#727272"/>
<stop offset="1" stop-color="white"/>
</linearGradient>
<linearGradient id="paint1_linear_1226_362" x1="204.538" y1="40.0772" x2="172.643" y2="2.69455" gradientUnits="userSpaceOnUse">
<stop stop-color="#727272"/>
<stop offset="1" stop-color="white"/>
</linearGradient>
<linearGradient id="paint2_linear_1226_362" x1="52.3005" y1="0.543975" x2="53.5725" y2="17.1736" gradientUnits="userSpaceOnUse">
<stop stop-color="#727272"/>
<stop offset="1" stop-color="white"/>
</linearGradient>
</defs>
</svg>
