<svg width="108" height="24" viewBox="0 0 108 24" fill="none" xmlns="http://www.w3.org/2000/svg">
<path d="M4.48351 18.112C3.85817 18.112 3.30284 17.972 2.81751 17.692C2.34151 17.4027 1.97284 17.0013 1.71151 16.488C1.45017 15.9653 1.31951 15.368 1.31951 14.696L1.31951 11.504C1.31951 10.8227 1.45017 10.2253 1.71151 9.712C1.98217 9.19867 2.35551 8.802 2.83151 8.522C3.31684 8.23267 3.87217 8.088 4.49751 8.088H5.95351C6.57884 8.088 7.12951 8.23267 7.60551 8.522C8.09084 8.802 8.46417 9.19867 8.72551 9.712C8.98684 10.2253 9.11751 10.8227 9.11751 11.504L9.11751 14.696C9.11751 15.368 8.98217 15.9653 8.71151 16.488C8.45018 17.0013 8.07684 17.4027 7.59151 17.692C7.11551 17.972 6.56484 18.112 5.93951 18.112H4.48351ZM5.92551 17.412C6.64417 17.412 7.22751 17.1647 7.67551 16.67C8.12351 16.166 8.34751 15.508 8.34751 14.696L8.34751 11.504C8.34751 10.6827 8.12351 10.0247 7.67551 9.53C7.23684 9.026 6.65817 8.774 5.93951 8.774H4.51151C3.78351 8.774 3.19551 9.026 2.74751 9.53C2.30884 10.0247 2.08951 10.6827 2.08951 11.504L2.08951 14.696C2.08951 15.508 2.30884 16.166 2.74751 16.67C3.19551 17.1647 3.77884 17.412 4.49751 17.412H5.92551ZM11.2519 8.2H12.0079L17.6639 16.782V8.2H18.4059L18.4059 18H17.6639L11.9939 9.446L11.9939 18H11.2519L11.2519 8.2Z" fill="url(#paint0_linear_1226_390)"/>
<path d="M84.2911 18.112C83.6658 18.112 83.1105 17.972 82.6251 17.692C82.1491 17.4027 81.7805 17.0013 81.5191 16.488C81.2578 15.9653 81.1271 15.368 81.1271 14.696V11.504C81.1271 10.8227 81.2578 10.2253 81.5191 9.712C81.7898 9.19867 82.1631 8.802 82.6391 8.522C83.1245 8.23267 83.6798 8.088 84.3051 8.088L85.7611 8.088C86.3865 8.088 86.9371 8.23267 87.4131 8.522C87.8985 8.802 88.2718 9.19867 88.5331 9.712C88.7945 10.2253 88.9251 10.8227 88.9251 11.504V14.696C88.9251 15.368 88.7898 15.9653 88.5191 16.488C88.2578 17.0013 87.8845 17.4027 87.3991 17.692C86.9231 17.972 86.3725 18.112 85.7471 18.112H84.2911ZM85.7331 17.412C86.4518 17.412 87.0351 17.1647 87.4831 16.67C87.9311 16.166 88.1551 15.508 88.1551 14.696V11.504C88.1551 10.6827 87.9311 10.0247 87.4831 9.53C87.0445 9.026 86.4658 8.774 85.7471 8.774L84.3191 8.774C83.5911 8.774 83.0031 9.026 82.5551 9.53C82.1165 10.0247 81.8971 10.6827 81.8971 11.504V14.696C81.8971 15.508 82.1165 16.166 82.5551 16.67C83.0031 17.1647 83.5865 17.412 84.3051 17.412H85.7331ZM91.0595 8.2L97.2335 8.2V8.886L91.8295 8.886V12.764H96.7155V13.45H91.8295V18H91.0595V8.2ZM99.0302 8.2H105.204V8.886H99.8002V12.764H104.686V13.45H99.8002V18H99.0302V8.2Z" fill="url(#paint1_linear_1226_390)"/>
<rect x="72" y="23" width="45" height="22" rx="11" transform="rotate(180 72 23)" fill="url(#paint2_linear_1226_390)" fill-opacity="0.15" stroke="url(#paint3_linear_1226_390)" stroke-width="2"/>
<ellipse cx="59.9902" cy="11.7895" rx="8.8125" ry="8.8421" transform="rotate(180 59.9902 11.7895)" fill="url(#paint4_linear_1226_390)"/>
<defs>
<linearGradient id="paint0_linear_1226_390" x1="18.2609" y1="7.75195" x2="6.7705" y2="21.144" gradientUnits="userSpaceOnUse">
<stop stop-color="#FCB433"/>
<stop offset="1" stop-color="#966B1E"/>
</linearGradient>
<linearGradient id="paint1_linear_1226_390" x1="81.0822" y1="6.71233" x2="89.0513" y2="25.1773" gradientUnits="userSpaceOnUse">
<stop stop-color="#727272"/>
<stop offset="1" stop-color="white"/>
</linearGradient>
<linearGradient id="paint2_linear_1226_390" x1="77.8288" y1="25.3151" x2="94.1685" y2="57.4438" gradientUnits="userSpaceOnUse">
<stop stop-color="#727272"/>
<stop offset="1" stop-color="white"/>
</linearGradient>
<linearGradient id="paint3_linear_1226_390" x1="73" y1="36.2105" x2="103.791" y2="58.5509" gradientUnits="userSpaceOnUse">
<stop offset="0.325495" stop-color="#727272"/>
<stop offset="1" stop-color="#FCB433"/>
</linearGradient>
<linearGradient id="paint4_linear_1226_390" x1="52.9885" y1="3.91637" x2="67.887" y2="18.8253" gradientUnits="userSpaceOnUse">
<stop stop-color="#727272"/>
<stop offset="1" stop-color="white"/>
</linearGradient>
</defs>
</svg>
