<?xml version="1.0" encoding="utf-8"?>
<!-- Generator: Adobe Illustrator 28.4.1, SVG Export Plug-In . SVG Version: 6.00 Build 0)  -->
<svg version="1.1" id="Layer_1" xmlns="http://www.w3.org/2000/svg" xmlns:xlink="http://www.w3.org/1999/xlink" x="0px" y="0px"
	 viewBox="0 0 130 130" style="enable-background:new 0 0 130 130;" xml:space="preserve">
<style type="text/css">
	
		.st0{fill:url(#SVGID_1_);fill-opacity:0.1;stroke:url(#SVGID_00000127043690868638403890000003415221035740624291_);stroke-width:2;stroke-linecap:round;stroke-linejoin:round;}
	.st1{fill:#FCB433;}
</style>
<linearGradient id="SVGID_1_" gradientUnits="userSpaceOnUse" x1="64.9" y1="841.486" x2="64.9" y2="712.5601" gradientTransform="matrix(1 0 0 1 0 -712)">
	<stop  offset="0" style="stop-color:#FCB433"/>
	<stop  offset="1" style="stop-color:#966B1E"/>
</linearGradient>
<linearGradient id="SVGID_00000034055344502338640430000008270063244641959344_" gradientUnits="userSpaceOnUse" x1="121.6162" y1="820.2882" x2="10.3816" y2="735.3176" gradientTransform="matrix(1 0 0 1 0 -712)">
	<stop  offset="0" style="stop-color:#FCB433"/>
	<stop  offset="1" style="stop-color:#966B1E"/>
</linearGradient>
<path style="fill:url(#SVGID_1_);fill-opacity:0.1;stroke:url(#SVGID_00000034055344502338640430000008270063244641959344_);stroke-width:2;stroke-linecap:round;stroke-linejoin:round;" d="
	M1,65c0,26.6,2.9,42.3,12.1,51.4c4.6,4.6,10.9,7.6,19.3,9.5c8.5,1.9,19.2,2.6,32.5,2.6s24-0.7,32.5-2.6s14.7-4.9,19.3-9.5
	c9.2-9.2,12.1-24.8,12.1-51.4s-2.9-42.3-12.1-51.4C112.3,9,106,6,97.5,4.1C89,2.3,78.4,1.6,65,1.6S41,2.3,32.5,4.1
	C24,6,17.7,9,13.1,13.6C3.9,22.7,1,38.4,1,65z"/>
<path class="st1" d="M54.8,72.1c-1.1,0-2.1-0.4-2.9-1c-0.7-0.7-1-1.6-1-2.9h1.1c0,0.9,0.2,1.6,0.7,2.1c0.5,0.5,1.2,0.7,2,0.7h2.2
	c0.9,0,1.5-0.2,2-0.6c0.5-0.4,0.7-0.9,0.7-1.5v-1.4c0-0.5-0.1-1-0.5-1.2c-0.4-0.4-0.9-0.6-1.5-0.7L54.2,65c-1-0.1-1.7-0.5-2.2-1
	c-0.5-0.5-0.7-1.2-0.7-2v-1.1c0-0.9,0.4-1.6,1-2.2c0.7-0.5,1.6-0.9,2.7-0.9h2.2c1.1,0,2,0.4,2.6,1c0.6,0.6,1,1.5,1,2.6h-1.1
	c0-0.7-0.2-1.4-0.7-1.9c-0.5-0.5-1-0.7-1.9-0.7h-2.2c-0.9,0-1.5,0.2-2,0.6c-0.5,0.4-0.7,0.9-0.7,1.5V62c0,0.5,0.1,1,0.5,1.4
	c0.4,0.4,0.9,0.6,1.5,0.7l3.5,0.6c1,0.1,1.7,0.5,2.2,1c0.5,0.5,0.9,1.1,0.9,2v1.4c0,0.9-0.4,1.6-1,2.2c-0.7,0.5-1.6,0.9-2.9,0.9h-2
	V72.1z M66.9,72.1c-1,0-1.9-0.4-2.5-1c-0.6-0.6-1-1.5-1-2.5v-3.1c0-1.1,0.4-2,1-2.6s1.5-1,2.5-1h1.6c1,0,1.9,0.4,2.5,1s1,1.5,1,2.6
	v1.6h-7.4v1.5c0,0.7,0.2,1.4,0.6,1.9c0.5,0.5,1,0.7,1.7,0.7h1.5c0.7,0,1.2-0.2,1.7-0.6c0.5-0.4,0.6-1,0.6-1.6h1c0,1-0.4,1.7-1,2.4
	c-0.6,0.6-1.5,0.9-2.5,0.9h-1.4V72.1z M70.7,66.2v-0.7c0-0.7-0.2-1.5-0.6-1.9c-0.4-0.5-1-0.7-1.6-0.7h-1.6c-0.7,0-1.4,0.2-1.7,0.7
	c-0.5,0.5-0.6,1.1-0.6,2v0.6H70.7z M78.1,71.9c-1,0-1.7-0.2-2.1-0.6c-0.5-0.5-0.6-1.1-0.6-2.1V63h-1.7v-1h1.7v-3h1v3H79v1h-2.6v6.2
	c0,0.6,0.1,1.1,0.4,1.4c0.2,0.2,0.7,0.4,1.4,0.4H79v1C79,71.9,78.1,71.9,78.1,71.9z"/>
</svg>
