<svg width="52" height="15" viewBox="0 0 52 15" fill="none" xmlns="http://www.w3.org/2000/svg">
<path d="M4.46175 14.5723C3.70175 14.5723 3.02175 14.3923 2.42175 14.0323C1.83509 13.6723 1.37509 13.1723 1.04175 12.5323C0.721754 11.8789 0.561754 11.1256 0.561754 10.2723V4.55226C0.561754 3.69893 0.721754 2.95226 1.04175 2.31226C1.37509 1.65893 1.83509 1.15226 2.42175 0.792261C3.02175 0.432262 3.70175 0.252262 4.46175 0.252262H6.58175C7.35509 0.252262 8.03509 0.432262 8.62175 0.792261C9.20842 1.15226 9.66175 1.65893 9.98175 2.31226C10.3018 2.95226 10.4618 3.69893 10.4618 4.55226V10.2723C10.4618 11.1256 10.3018 11.8789 9.98175 12.5323C9.66175 13.1723 9.20842 13.6723 8.62175 14.0323C8.03509 14.3923 7.35509 14.5723 6.58175 14.5723H4.46175ZM6.54175 13.5723C7.39509 13.5723 8.07509 13.2723 8.58175 12.6723C9.10175 12.0589 9.36175 11.2589 9.36175 10.2723V4.55226C9.36175 3.55226 9.10175 2.75226 8.58175 2.15226C8.07509 1.53893 7.39509 1.23226 6.54175 1.23226H4.50175C3.64842 1.23226 2.96175 1.53893 2.44175 2.15226C1.92175 2.75226 1.66175 3.55226 1.66175 4.55226V10.2723C1.66175 11.2589 1.92175 12.0589 2.44175 12.6723C2.96175 13.2723 3.64842 13.5723 4.50175 13.5723H6.54175ZM17.2352 14.5723C16.4752 14.5723 15.7952 14.3923 15.1952 14.0323C14.6085 13.6723 14.1485 13.1723 13.8152 12.5323C13.4952 11.8789 13.3352 11.1256 13.3352 10.2723V4.55226C13.3352 3.69893 13.4952 2.95226 13.8152 2.31226C14.1485 1.65893 14.6085 1.15226 15.1952 0.792261C15.7952 0.432262 16.4752 0.252262 17.2352 0.252262H19.3552C20.1285 0.252262 20.8085 0.432262 21.3952 0.792261C21.9819 1.15226 22.4352 1.65893 22.7552 2.31226C23.0752 2.95226 23.2352 3.69893 23.2352 4.55226V10.2723C23.2352 11.1256 23.0752 11.8789 22.7552 12.5323C22.4352 13.1723 21.9819 13.6723 21.3952 14.0323C20.8085 14.3923 20.1285 14.5723 19.3552 14.5723H17.2352ZM19.3152 13.5723C20.1685 13.5723 20.8485 13.2723 21.3552 12.6723C21.8752 12.0589 22.1352 11.2589 22.1352 10.2723V4.55226C22.1352 3.55226 21.8752 2.75226 21.3552 2.15226C20.8485 1.53893 20.1685 1.23226 19.3152 1.23226H17.2752C16.4219 1.23226 15.7352 1.53893 15.2152 2.15226C14.6952 2.75226 14.4352 3.55226 14.4352 4.55226V10.2723C14.4352 11.2589 14.6952 12.0589 15.2152 12.6723C15.7352 13.2723 16.4219 13.5723 17.2752 13.5723H19.3152ZM26.2813 14.6123C26.0146 14.6123 25.7946 14.5323 25.6213 14.3723C25.4613 14.1989 25.3813 13.9789 25.3813 13.7123C25.3813 13.4456 25.4613 13.2323 25.6213 13.0723C25.7946 12.8989 26.0146 12.8123 26.2813 12.8123C26.5613 12.8123 26.7813 12.8989 26.9413 13.0723C27.1013 13.2323 27.1813 13.4456 27.1813 13.7123C27.1813 13.9789 27.0946 14.1989 26.9213 14.3723C26.7613 14.5323 26.548 14.6123 26.2813 14.6123ZM33.2313 14.5723C32.4713 14.5723 31.7913 14.3923 31.1913 14.0323C30.6046 13.6723 30.1446 13.1723 29.8113 12.5323C29.4913 11.8789 29.3313 11.1256 29.3313 10.2723V4.55226C29.3313 3.69893 29.4913 2.95226 29.8113 2.31226C30.1446 1.65893 30.6046 1.15226 31.1913 0.792261C31.7913 0.432262 32.4713 0.252262 33.2313 0.252262H35.3513C36.1246 0.252262 36.8046 0.432262 37.3913 0.792261C37.978 1.15226 38.4313 1.65893 38.7513 2.31226C39.0713 2.95226 39.2313 3.69893 39.2313 4.55226V10.2723C39.2313 11.1256 39.0713 11.8789 38.7513 12.5323C38.4313 13.1723 37.978 13.6723 37.3913 14.0323C36.8046 14.3923 36.1246 14.5723 35.3513 14.5723H33.2313ZM35.3113 13.5723C36.1646 13.5723 36.8446 13.2723 37.3513 12.6723C37.8713 12.0589 38.1313 11.2589 38.1313 10.2723V4.55226C38.1313 3.55226 37.8713 2.75226 37.3513 2.15226C36.8446 1.53893 36.1646 1.23226 35.3113 1.23226H33.2713C32.418 1.23226 31.7313 1.53893 31.2113 2.15226C30.6913 2.75226 30.4313 3.55226 30.4313 4.55226V10.2723C30.4313 11.2589 30.6913 12.0589 31.2113 12.6723C31.7313 13.2723 32.418 13.5723 33.2713 13.5723H35.3113ZM46.0047 14.5723C45.2447 14.5723 44.5647 14.3923 43.9647 14.0323C43.3781 13.6723 42.9181 13.1723 42.5847 12.5323C42.2647 11.8789 42.1047 11.1256 42.1047 10.2723V4.55226C42.1047 3.69893 42.2647 2.95226 42.5847 2.31226C42.9181 1.65893 43.3781 1.15226 43.9647 0.792261C44.5647 0.432262 45.2447 0.252262 46.0047 0.252262H48.1247C48.8981 0.252262 49.5781 0.432262 50.1647 0.792261C50.7514 1.15226 51.2047 1.65893 51.5247 2.31226C51.8447 2.95226 52.0047 3.69893 52.0047 4.55226V10.2723C52.0047 11.1256 51.8447 11.8789 51.5247 12.5323C51.2047 13.1723 50.7514 13.6723 50.1647 14.0323C49.5781 14.3923 48.8981 14.5723 48.1247 14.5723H46.0047ZM48.0847 13.5723C48.9381 13.5723 49.6181 13.2723 50.1247 12.6723C50.6447 12.0589 50.9047 11.2589 50.9047 10.2723V4.55226C50.9047 3.55226 50.6447 2.75226 50.1247 2.15226C49.6181 1.53893 48.9381 1.23226 48.0847 1.23226H46.0447C45.1914 1.23226 44.5047 1.53893 43.9847 2.15226C43.4647 2.75226 43.2047 3.55226 43.2047 4.55226V10.2723C43.2047 11.2589 43.4647 12.0589 43.9847 12.6723C44.5047 13.2723 45.1914 13.5723 46.0447 13.5723H48.0847Z" fill="url(#paint0_linear_616_424)"/>
<defs>
<linearGradient id="paint0_linear_616_424" x1="-1.35033" y1="1.0974" x2="2.30469" y2="21.5111" gradientUnits="userSpaceOnUse">
<stop stop-color="#727272"/>
<stop offset="1" stop-color="white"/>
</linearGradient>
</defs>
</svg>
