<svg width="52" height="16" viewBox="0 0 52 16" fill="none" xmlns="http://www.w3.org/2000/svg">
<path d="M4.46175 15.1372C3.70175 15.1372 3.02175 14.9572 2.42175 14.5972C1.83509 14.2372 1.37509 13.7372 1.04175 13.0972C0.721754 12.4439 0.561754 11.6905 0.561754 10.8372V5.1172C0.561754 4.26387 0.721754 3.5172 1.04175 2.8772C1.37509 2.22387 1.83509 1.7172 2.42175 1.3572C3.02175 0.997203 3.70175 0.817203 4.46175 0.817203H6.58175C7.35509 0.817203 8.03509 0.997203 8.62175 1.3572C9.20842 1.7172 9.66175 2.22387 9.98175 2.8772C10.3018 3.5172 10.4618 4.26387 10.4618 5.1172V10.8372C10.4618 11.6905 10.3018 12.4439 9.98175 13.0972C9.66175 13.7372 9.20842 14.2372 8.62175 14.5972C8.03509 14.9572 7.35509 15.1372 6.58175 15.1372H4.46175ZM6.54175 14.1372C7.39509 14.1372 8.07509 13.8372 8.58175 13.2372C9.10175 12.6239 9.36175 11.8239 9.36175 10.8372V5.1172C9.36175 4.1172 9.10175 3.3172 8.58175 2.7172C8.07509 2.10387 7.39509 1.7972 6.54175 1.7972H4.50175C3.64842 1.7972 2.96175 2.10387 2.44175 2.7172C1.92175 3.3172 1.66175 4.1172 1.66175 5.1172V10.8372C1.66175 11.8239 1.92175 12.6239 2.44175 13.2372C2.96175 13.8372 3.64842 14.1372 4.50175 14.1372H6.54175ZM17.2352 15.1372C16.4752 15.1372 15.7952 14.9572 15.1952 14.5972C14.6085 14.2372 14.1485 13.7372 13.8152 13.0972C13.4952 12.4439 13.3352 11.6905 13.3352 10.8372V5.1172C13.3352 4.26387 13.4952 3.5172 13.8152 2.8772C14.1485 2.22387 14.6085 1.7172 15.1952 1.3572C15.7952 0.997203 16.4752 0.817203 17.2352 0.817203H19.3552C20.1285 0.817203 20.8085 0.997203 21.3952 1.3572C21.9819 1.7172 22.4352 2.22387 22.7552 2.8772C23.0752 3.5172 23.2352 4.26387 23.2352 5.1172V10.8372C23.2352 11.6905 23.0752 12.4439 22.7552 13.0972C22.4352 13.7372 21.9819 14.2372 21.3952 14.5972C20.8085 14.9572 20.1285 15.1372 19.3552 15.1372H17.2352ZM19.3152 14.1372C20.1685 14.1372 20.8485 13.8372 21.3552 13.2372C21.8752 12.6239 22.1352 11.8239 22.1352 10.8372V5.1172C22.1352 4.1172 21.8752 3.3172 21.3552 2.7172C20.8485 2.10387 20.1685 1.7972 19.3152 1.7972H17.2752C16.4219 1.7972 15.7352 2.10387 15.2152 2.7172C14.6952 3.3172 14.4352 4.1172 14.4352 5.1172V10.8372C14.4352 11.8239 14.6952 12.6239 15.2152 13.2372C15.7352 13.8372 16.4219 14.1372 17.2752 14.1372H19.3152ZM26.2813 15.1772C26.0146 15.1772 25.7946 15.0972 25.6213 14.9372C25.4613 14.7639 25.3813 14.5439 25.3813 14.2772C25.3813 14.0105 25.4613 13.7972 25.6213 13.6372C25.7946 13.4639 26.0146 13.3772 26.2813 13.3772C26.5613 13.3772 26.7813 13.4639 26.9413 13.6372C27.1013 13.7972 27.1813 14.0105 27.1813 14.2772C27.1813 14.5439 27.0946 14.7639 26.9213 14.9372C26.7613 15.0972 26.548 15.1772 26.2813 15.1772ZM33.2313 15.1372C32.4713 15.1372 31.7913 14.9572 31.1913 14.5972C30.6046 14.2372 30.1446 13.7372 29.8113 13.0972C29.4913 12.4439 29.3313 11.6905 29.3313 10.8372V5.1172C29.3313 4.26387 29.4913 3.5172 29.8113 2.8772C30.1446 2.22387 30.6046 1.7172 31.1913 1.3572C31.7913 0.997203 32.4713 0.817203 33.2313 0.817203H35.3513C36.1246 0.817203 36.8046 0.997203 37.3913 1.3572C37.978 1.7172 38.4313 2.22387 38.7513 2.8772C39.0713 3.5172 39.2313 4.26387 39.2313 5.1172V10.8372C39.2313 11.6905 39.0713 12.4439 38.7513 13.0972C38.4313 13.7372 37.978 14.2372 37.3913 14.5972C36.8046 14.9572 36.1246 15.1372 35.3513 15.1372H33.2313ZM35.3113 14.1372C36.1646 14.1372 36.8446 13.8372 37.3513 13.2372C37.8713 12.6239 38.1313 11.8239 38.1313 10.8372V5.1172C38.1313 4.1172 37.8713 3.3172 37.3513 2.7172C36.8446 2.10387 36.1646 1.7972 35.3113 1.7972H33.2713C32.418 1.7972 31.7313 2.10387 31.2113 2.7172C30.6913 3.3172 30.4313 4.1172 30.4313 5.1172V10.8372C30.4313 11.8239 30.6913 12.6239 31.2113 13.2372C31.7313 13.8372 32.418 14.1372 33.2713 14.1372H35.3113ZM46.0047 15.1372C45.2447 15.1372 44.5647 14.9572 43.9647 14.5972C43.3781 14.2372 42.9181 13.7372 42.5847 13.0972C42.2647 12.4439 42.1047 11.6905 42.1047 10.8372V5.1172C42.1047 4.26387 42.2647 3.5172 42.5847 2.8772C42.9181 2.22387 43.3781 1.7172 43.9647 1.3572C44.5647 0.997203 45.2447 0.817203 46.0047 0.817203H48.1247C48.8981 0.817203 49.5781 0.997203 50.1647 1.3572C50.7514 1.7172 51.2047 2.22387 51.5247 2.8772C51.8447 3.5172 52.0047 4.26387 52.0047 5.1172V10.8372C52.0047 11.6905 51.8447 12.4439 51.5247 13.0972C51.2047 13.7372 50.7514 14.2372 50.1647 14.5972C49.5781 14.9572 48.8981 15.1372 48.1247 15.1372H46.0047ZM48.0847 14.1372C48.9381 14.1372 49.6181 13.8372 50.1247 13.2372C50.6447 12.6239 50.9047 11.8239 50.9047 10.8372V5.1172C50.9047 4.1172 50.6447 3.3172 50.1247 2.7172C49.6181 2.10387 48.9381 1.7972 48.0847 1.7972H46.0447C45.1914 1.7972 44.5047 2.10387 43.9847 2.7172C43.4647 3.3172 43.2047 4.1172 43.2047 5.1172V10.8372C43.2047 11.8239 43.4647 12.6239 43.9847 13.2372C44.5047 13.8372 45.1914 14.1372 46.0447 14.1372H48.0847Z" fill="url(#paint0_linear_616_457)"/>
<defs>
<linearGradient id="paint0_linear_616_457" x1="-1.35033" y1="1.66234" x2="2.30469" y2="22.0761" gradientUnits="userSpaceOnUse">
<stop stop-color="#727272"/>
<stop offset="1" stop-color="white"/>
</linearGradient>
</defs>
</svg>
