<svg width="52" height="15" viewBox="0 0 52 15" fill="none" xmlns="http://www.w3.org/2000/svg">
<path d="M4.46175 14.9112C3.70175 14.9112 3.02175 14.7312 2.42175 14.3712C1.83509 14.0112 1.37509 13.5112 1.04175 12.8712C0.721754 12.2178 0.561754 11.4645 0.561754 10.6112V4.89116C0.561754 4.03783 0.721754 3.29116 1.04175 2.65116C1.37509 1.99783 1.83509 1.49116 2.42175 1.13116C3.02175 0.771159 3.70175 0.59116 4.46175 0.59116H6.58175C7.35509 0.59116 8.03509 0.771159 8.62175 1.13116C9.20842 1.49116 9.66175 1.99783 9.98175 2.65116C10.3018 3.29116 10.4618 4.03783 10.4618 4.89116V10.6112C10.4618 11.4645 10.3018 12.2178 9.98175 12.8712C9.66175 13.5112 9.20842 14.0112 8.62175 14.3712C8.03509 14.7312 7.35509 14.9112 6.58175 14.9112H4.46175ZM6.54175 13.9112C7.39509 13.9112 8.07509 13.6112 8.58175 13.0112C9.10175 12.3978 9.36175 11.5978 9.36175 10.6112V4.89116C9.36175 3.89116 9.10175 3.09116 8.58175 2.49116C8.07509 1.87783 7.39509 1.57116 6.54175 1.57116H4.50175C3.64842 1.57116 2.96175 1.87783 2.44175 2.49116C1.92175 3.09116 1.66175 3.89116 1.66175 4.89116V10.6112C1.66175 11.5978 1.92175 12.3978 2.44175 13.0112C2.96175 13.6112 3.64842 13.9112 4.50175 13.9112H6.54175ZM17.2352 14.9112C16.4752 14.9112 15.7952 14.7312 15.1952 14.3712C14.6085 14.0112 14.1485 13.5112 13.8152 12.8712C13.4952 12.2178 13.3352 11.4645 13.3352 10.6112V4.89116C13.3352 4.03783 13.4952 3.29116 13.8152 2.65116C14.1485 1.99783 14.6085 1.49116 15.1952 1.13116C15.7952 0.771159 16.4752 0.59116 17.2352 0.59116H19.3552C20.1285 0.59116 20.8085 0.771159 21.3952 1.13116C21.9819 1.49116 22.4352 1.99783 22.7552 2.65116C23.0752 3.29116 23.2352 4.03783 23.2352 4.89116V10.6112C23.2352 11.4645 23.0752 12.2178 22.7552 12.8712C22.4352 13.5112 21.9819 14.0112 21.3952 14.3712C20.8085 14.7312 20.1285 14.9112 19.3552 14.9112H17.2352ZM19.3152 13.9112C20.1685 13.9112 20.8485 13.6112 21.3552 13.0112C21.8752 12.3978 22.1352 11.5978 22.1352 10.6112V4.89116C22.1352 3.89116 21.8752 3.09116 21.3552 2.49116C20.8485 1.87783 20.1685 1.57116 19.3152 1.57116H17.2752C16.4219 1.57116 15.7352 1.87783 15.2152 2.49116C14.6952 3.09116 14.4352 3.89116 14.4352 4.89116V10.6112C14.4352 11.5978 14.6952 12.3978 15.2152 13.0112C15.7352 13.6112 16.4219 13.9112 17.2752 13.9112H19.3152ZM26.2813 14.9512C26.0146 14.9512 25.7946 14.8712 25.6213 14.7112C25.4613 14.5378 25.3813 14.3178 25.3813 14.0512C25.3813 13.7845 25.4613 13.5712 25.6213 13.4112C25.7946 13.2378 26.0146 13.1512 26.2813 13.1512C26.5613 13.1512 26.7813 13.2378 26.9413 13.4112C27.1013 13.5712 27.1813 13.7845 27.1813 14.0512C27.1813 14.3178 27.0946 14.5378 26.9213 14.7112C26.7613 14.8712 26.548 14.9512 26.2813 14.9512ZM33.2313 14.9112C32.4713 14.9112 31.7913 14.7312 31.1913 14.3712C30.6046 14.0112 30.1446 13.5112 29.8113 12.8712C29.4913 12.2178 29.3313 11.4645 29.3313 10.6112V4.89116C29.3313 4.03783 29.4913 3.29116 29.8113 2.65116C30.1446 1.99783 30.6046 1.49116 31.1913 1.13116C31.7913 0.771159 32.4713 0.59116 33.2313 0.59116H35.3513C36.1246 0.59116 36.8046 0.771159 37.3913 1.13116C37.978 1.49116 38.4313 1.99783 38.7513 2.65116C39.0713 3.29116 39.2313 4.03783 39.2313 4.89116V10.6112C39.2313 11.4645 39.0713 12.2178 38.7513 12.8712C38.4313 13.5112 37.978 14.0112 37.3913 14.3712C36.8046 14.7312 36.1246 14.9112 35.3513 14.9112H33.2313ZM35.3113 13.9112C36.1646 13.9112 36.8446 13.6112 37.3513 13.0112C37.8713 12.3978 38.1313 11.5978 38.1313 10.6112V4.89116C38.1313 3.89116 37.8713 3.09116 37.3513 2.49116C36.8446 1.87783 36.1646 1.57116 35.3113 1.57116H33.2713C32.418 1.57116 31.7313 1.87783 31.2113 2.49116C30.6913 3.09116 30.4313 3.89116 30.4313 4.89116V10.6112C30.4313 11.5978 30.6913 12.3978 31.2113 13.0112C31.7313 13.6112 32.418 13.9112 33.2713 13.9112H35.3113ZM46.0047 14.9112C45.2447 14.9112 44.5647 14.7312 43.9647 14.3712C43.3781 14.0112 42.9181 13.5112 42.5847 12.8712C42.2647 12.2178 42.1047 11.4645 42.1047 10.6112V4.89116C42.1047 4.03783 42.2647 3.29116 42.5847 2.65116C42.9181 1.99783 43.3781 1.49116 43.9647 1.13116C44.5647 0.771159 45.2447 0.59116 46.0047 0.59116H48.1247C48.8981 0.59116 49.5781 0.771159 50.1647 1.13116C50.7514 1.49116 51.2047 1.99783 51.5247 2.65116C51.8447 3.29116 52.0047 4.03783 52.0047 4.89116V10.6112C52.0047 11.4645 51.8447 12.2178 51.5247 12.8712C51.2047 13.5112 50.7514 14.0112 50.1647 14.3712C49.5781 14.7312 48.8981 14.9112 48.1247 14.9112H46.0047ZM48.0847 13.9112C48.9381 13.9112 49.6181 13.6112 50.1247 13.0112C50.6447 12.3978 50.9047 11.5978 50.9047 10.6112V4.89116C50.9047 3.89116 50.6447 3.09116 50.1247 2.49116C49.6181 1.87783 48.9381 1.57116 48.0847 1.57116H46.0447C45.1914 1.57116 44.5047 1.87783 43.9847 2.49116C43.4647 3.09116 43.2047 3.89116 43.2047 4.89116V10.6112C43.2047 11.5978 43.4647 12.3978 43.9847 13.0112C44.5047 13.6112 45.1914 13.9112 46.0447 13.9112H48.0847Z" fill="url(#paint0_linear_616_444)"/>
<defs>
<linearGradient id="paint0_linear_616_444" x1="-1.35033" y1="1.4363" x2="2.30469" y2="21.85" gradientUnits="userSpaceOnUse">
<stop stop-color="#727272"/>
<stop offset="1" stop-color="white"/>
</linearGradient>
</defs>
</svg>
