<svg width="51" height="19" viewBox="0 0 51 19" fill="none" xmlns="http://www.w3.org/2000/svg">
<path d="M1.6105 14.2598C1.14384 14.2598 0.770504 14.1265 0.490504 13.8598C0.223838 13.5932 0.0905042 13.2265 0.0905042 12.7598V0.259826L6.1905 0.259826C7.20384 0.259826 8.0905 0.453159 8.8505 0.839827C9.62384 1.22649 10.2172 1.77983 10.6305 2.49983C11.0572 3.20649 11.2705 4.01983 11.2705 4.93983V9.17983C11.2705 10.8465 10.8438 12.1132 9.9905 12.9798C9.1505 13.8332 7.9105 14.2598 6.2705 14.2598L1.6105 14.2598ZM6.2105 12.5598C7.2505 12.5598 8.03717 12.2732 8.5705 11.6998C9.10384 11.1265 9.37051 10.2732 9.37051 9.13983V4.97983C9.37051 4.07316 9.0705 3.34649 8.4705 2.79983C7.88384 2.23983 7.10384 1.95983 6.1305 1.95983H1.9905V12.5598L6.2105 12.5598ZM17.1628 14.4198C15.9895 14.4198 15.0428 14.0865 14.3228 13.4198C13.6162 12.7398 13.2628 11.8532 13.2628 10.7598V7.99983C13.2628 6.82649 13.6162 5.88649 14.3228 5.17983C15.0428 4.47316 15.9895 4.11983 17.1628 4.11983H18.8028C19.9362 4.11983 20.8495 4.46649 21.5428 5.15983C22.2362 5.85316 22.5828 6.77316 22.5828 7.91983V9.79983H15.1228V10.7598C15.1228 11.3732 15.3095 11.8665 15.6828 12.2398C16.0562 12.6132 16.5495 12.7998 17.1628 12.7998H18.7028C19.3028 12.7998 19.7895 12.6465 20.1628 12.3398C20.5362 12.0198 20.7228 11.5998 20.7228 11.0798H22.5428C22.5428 12.0798 22.1895 12.8865 21.4828 13.4998C20.7762 14.1132 19.8428 14.4198 18.6828 14.4198H17.1628ZM20.7228 8.31983V7.91983C20.7228 7.25316 20.5428 6.71983 20.1828 6.31983C19.8362 5.91983 19.3762 5.71983 18.8028 5.71983H17.1628C16.5495 5.71983 16.0562 5.93316 15.6828 6.35983C15.3095 6.77316 15.1228 7.32649 15.1228 8.01983V8.31983H20.7228ZM27.8538 14.2598C26.8005 14.2598 26.0405 14.0398 25.5738 13.5998C25.1071 13.1465 24.8738 12.4198 24.8738 11.4198V0.259826H26.7338V11.3598C26.7338 11.8132 26.8271 12.1398 27.0138 12.3398C27.2005 12.5398 27.5071 12.6398 27.9338 12.6398H28.7338V14.2598H27.8538ZM33.4007 14.4198C32.4007 14.4198 31.6007 14.1665 31.0007 13.6598C30.4007 13.1398 30.1007 12.4532 30.1007 11.5998V10.9398C30.1007 10.0998 30.414 9.42649 31.0407 8.91983C31.6673 8.39983 32.4873 8.13983 33.5007 8.13983H34.7607C35.1607 8.13983 35.5873 8.19983 36.0407 8.31983C36.494 8.43983 36.8807 8.60649 37.2007 8.81983V7.35983C37.2007 6.86649 37.0473 6.47316 36.7407 6.17983C36.434 5.87316 36.034 5.71983 35.5407 5.71983H33.9007C33.394 5.71983 32.9873 5.83983 32.6807 6.07983C32.374 6.31983 32.2207 6.63316 32.2207 7.01983H30.3807C30.3807 6.15316 30.7007 5.45316 31.3407 4.91983C31.994 4.38649 32.8473 4.11983 33.9007 4.11983H35.5407C36.594 4.11983 37.4407 4.41983 38.0807 5.01983C38.7207 5.60649 39.0407 6.38649 39.0407 7.35983V14.2598H37.3007V12.9198C36.994 13.3732 36.594 13.7398 36.1007 14.0198C35.6073 14.2865 35.1073 14.4198 34.6007 14.4198H33.4007ZM34.7007 12.8798C35.2873 12.8798 35.8073 12.7132 36.2607 12.3798C36.714 12.0332 37.0273 11.5732 37.2007 10.9998V10.3998C36.9473 10.1732 36.6007 9.99316 36.1607 9.85983C35.7207 9.72649 35.2673 9.65983 34.8007 9.65983H33.5207C33.054 9.65983 32.674 9.77983 32.3807 10.0198C32.0873 10.2598 31.9407 10.5798 31.9407 10.9798V11.5798C31.9407 11.9798 32.0807 12.2998 32.3607 12.5398C32.654 12.7665 33.0407 12.8798 33.5207 12.8798H34.7007ZM45.1693 18.3198C44.2226 18.3198 43.4359 18.0598 42.8093 17.5398C42.1959 17.0198 41.8559 16.3398 41.7893 15.4998H43.6493C43.6893 15.8598 43.8493 16.1532 44.1293 16.3798C44.4093 16.6065 44.7559 16.7198 45.1693 16.7198H46.7493C47.3493 16.7198 47.8159 16.5065 48.1493 16.0798C48.4959 15.6665 48.6693 15.0932 48.6693 14.3598V12.6998C48.3626 13.1665 47.9826 13.5398 47.5293 13.8198C47.0759 14.0998 46.6226 14.2398 46.1693 14.2398H44.8693C43.8959 14.2398 43.1093 13.9132 42.5093 13.2598C41.9093 12.6065 41.6093 11.7465 41.6093 10.6798V4.27983H43.4693V10.7198C43.4693 11.2798 43.6093 11.7332 43.8893 12.0798C44.1826 12.4265 44.5559 12.5998 45.0093 12.5998H46.2293C46.7893 12.5998 47.2959 12.3732 47.7493 11.9198C48.2159 11.4665 48.5226 10.8932 48.6693 10.1998V4.27983H50.5493V14.3598C50.5493 15.5865 50.2093 16.5532 49.5293 17.2598C48.8493 17.9665 47.9226 18.3198 46.7493 18.3198H45.1693Z" fill="url(#paint0_linear_616_442)"/>
<defs>
<linearGradient id="paint0_linear_616_442" x1="76.9975" y1="18.2966" x2="75.2336" y2="1.19414" gradientUnits="userSpaceOnUse">
<stop stop-color="#101010" stop-opacity="0.2"/>
<stop offset="1" stop-color="white" stop-opacity="0.7"/>
</linearGradient>
</defs>
</svg>
