<svg width="85" height="14" viewBox="0 0 85 14" fill="none" xmlns="http://www.w3.org/2000/svg">
<path d="M0.332 0.399999H8.99V1.912H2.042V6.106H8.324V7.618H2.042V13H0.332V0.399999ZM13.2186 13.144C12.1626 13.144 11.3106 12.844 10.6626 12.244C10.0266 11.632 9.70859 10.834 9.70859 9.85V7.366C9.70859 6.31 10.0266 5.464 10.6626 4.828C11.3106 4.192 12.1626 3.874 13.2186 3.874H14.6946C15.7146 3.874 16.5366 4.186 17.1606 4.81C17.7846 5.434 18.0966 6.262 18.0966 7.294V8.986H11.3826V9.85C11.3826 10.402 11.5506 10.846 11.8866 11.182C12.2226 11.518 12.6666 11.686 13.2186 11.686H14.6046C15.1446 11.686 15.5826 11.548 15.9186 11.272C16.2546 10.984 16.4226 10.606 16.4226 10.138H18.0606C18.0606 11.038 17.7426 11.764 17.1066 12.316C16.4706 12.868 15.6306 13.144 14.5866 13.144H13.2186ZM16.4226 7.654V7.294C16.4226 6.694 16.2606 6.214 15.9366 5.854C15.6246 5.494 15.2106 5.314 14.6946 5.314H13.2186C12.6666 5.314 12.2226 5.506 11.8866 5.89C11.5506 6.262 11.3826 6.76 11.3826 7.384V7.654H16.4226ZM23.3084 13.144C22.2524 13.144 21.4004 12.844 20.7524 12.244C20.1164 11.632 19.7984 10.834 19.7984 9.85V7.366C19.7984 6.31 20.1164 5.464 20.7524 4.828C21.4004 4.192 22.2524 3.874 23.3084 3.874H24.7844C25.8044 3.874 26.6264 4.186 27.2504 4.81C27.8744 5.434 28.1864 6.262 28.1864 7.294V8.986H21.4724V9.85C21.4724 10.402 21.6404 10.846 21.9764 11.182C22.3124 11.518 22.7564 11.686 23.3084 11.686H24.6944C25.2344 11.686 25.6724 11.548 26.0084 11.272C26.3444 10.984 26.5124 10.606 26.5124 10.138H28.1504C28.1504 11.038 27.8324 11.764 27.1964 12.316C26.5604 12.868 25.7204 13.144 24.6764 13.144H23.3084ZM26.5124 7.654V7.294C26.5124 6.694 26.3504 6.214 26.0264 5.854C25.7144 5.494 25.3004 5.314 24.7844 5.314H23.3084C22.7564 5.314 22.3124 5.506 21.9764 5.89C21.6404 6.262 21.4724 6.76 21.4724 7.384V7.654H26.5124ZM33.1823 13.144C32.1983 13.144 31.4003 12.826 30.7883 12.19C30.1883 11.554 29.8883 10.714 29.8883 9.67V7.546C29.8883 6.826 30.0323 6.19 30.3203 5.638C30.6083 5.074 31.0103 4.642 31.5263 4.342C32.0543 4.03 32.6603 3.874 33.3443 3.874H34.5683C34.9523 3.874 35.3303 3.964 35.7023 4.144C36.0743 4.324 36.3743 4.564 36.6023 4.864V0.399999H38.2943V13H36.6923V11.722C36.4283 12.142 36.0803 12.484 35.6483 12.748C35.2163 13.012 34.7843 13.144 34.3523 13.144H33.1823ZM34.4243 11.668C34.9883 11.668 35.4803 11.44 35.9003 10.984C36.3203 10.516 36.5543 9.964 36.6023 9.328V7.294C36.5183 6.706 36.2963 6.238 35.9363 5.89C35.5883 5.53 35.1683 5.35 34.6763 5.35H33.4703C32.9063 5.35 32.4443 5.56 32.0843 5.98C31.7363 6.388 31.5623 6.934 31.5623 7.618V9.616C31.5623 10.228 31.7243 10.726 32.0483 11.11C32.3843 11.482 32.8043 11.668 33.3083 11.668H34.4243ZM48.5447 13.144C47.8247 13.144 47.1887 12.97 46.6367 12.622C46.0847 12.262 45.6527 11.764 45.3407 11.128C45.0407 10.48 44.8907 9.736 44.8907 8.896H46.6007C46.6007 9.712 46.7747 10.372 47.1227 10.876C47.4827 11.368 47.9567 11.614 48.5447 11.614H50.0567C50.6687 11.614 51.1547 11.356 51.5147 10.84C51.8747 10.324 52.0547 9.616 52.0547 8.716V0.399999H53.7647V8.752C53.7647 10.108 53.4347 11.182 52.7747 11.974C52.1267 12.754 51.2327 13.144 50.0927 13.144H48.5447ZM58.8932 13.144C57.9932 13.144 57.2732 12.916 56.7332 12.46C56.1932 11.992 55.9232 11.374 55.9232 10.606V10.012C55.9232 9.256 56.2052 8.65 56.7692 8.194C57.3332 7.726 58.0712 7.492 58.9832 7.492H60.1172C60.4772 7.492 60.8612 7.546 61.2692 7.654C61.6772 7.762 62.0252 7.912 62.3132 8.104V6.79C62.3132 6.346 62.1752 5.992 61.8992 5.728C61.6232 5.452 61.2632 5.314 60.8192 5.314H59.3432C58.8872 5.314 58.5212 5.422 58.2452 5.638C57.9692 5.854 57.8312 6.136 57.8312 6.484H56.1752C56.1752 5.704 56.4632 5.074 57.0392 4.594C57.6272 4.114 58.3952 3.874 59.3432 3.874H60.8192C61.7672 3.874 62.5292 4.144 63.1052 4.684C63.6812 5.212 63.9692 5.914 63.9692 6.79V13H62.4032V11.794C62.1272 12.202 61.7672 12.532 61.3232 12.784C60.8792 13.024 60.4292 13.144 59.9732 13.144H58.8932ZM60.0632 11.758C60.5912 11.758 61.0592 11.608 61.4672 11.308C61.8752 10.996 62.1572 10.582 62.3132 10.066V9.526C62.0852 9.322 61.7732 9.16 61.3772 9.04C60.9812 8.92 60.5732 8.86 60.1532 8.86H59.0012C58.5812 8.86 58.2392 8.968 57.9752 9.184C57.7112 9.4 57.5792 9.688 57.5792 10.048V10.588C57.5792 10.948 57.7052 11.236 57.9572 11.452C58.2212 11.656 58.5692 11.758 59.0012 11.758H60.0632ZM69.4849 13.144C68.4529 13.144 67.6189 12.838 66.9829 12.226C66.3469 11.602 66.0289 10.786 66.0289 9.778V7.366C66.0289 6.31 66.3409 5.464 66.9649 4.828C67.6009 4.192 68.4349 3.874 69.4669 3.874H70.9249C71.9089 3.874 72.7009 4.15 73.3009 4.702C73.9009 5.254 74.2009 5.986 74.2009 6.898H72.5449C72.5449 6.43 72.3949 6.058 72.0949 5.782C71.8069 5.494 71.4169 5.35 70.9249 5.35H69.4849C68.9569 5.35 68.5249 5.542 68.1889 5.926C67.8649 6.298 67.7029 6.796 67.7029 7.42V9.724C67.7029 10.312 67.8709 10.786 68.2069 11.146C68.5429 11.494 68.9749 11.668 69.5029 11.668H70.9429C71.4469 11.668 71.8489 11.494 72.1489 11.146C72.4609 10.786 72.6169 10.312 72.6169 9.724H74.2729C74.2729 10.744 73.9669 11.572 73.3549 12.208C72.7429 12.832 71.9389 13.144 70.9429 13.144H69.4849ZM82.2999 13L79.0239 8.968L77.8539 10.12V13H76.1799V0.399999H77.8539V8.14L82.0119 4.018H84.0099L80.1219 7.87L84.2439 13H82.2999Z" fill="white"/>
</svg>
