<svg width="76" height="75" viewBox="0 0 76 75" fill="none" xmlns="http://www.w3.org/2000/svg">
<path d="M1.57617 37.0709C1.57617 52.3713 3.25964 61.2198 8.42691 66.3444C10.9993 68.8955 14.5148 70.6015 19.3444 71.666C24.185 72.7329 30.2831 73.1419 37.9561 73.1419C45.6291 73.1419 51.7272 72.7329 56.5678 71.666C61.3974 70.6015 64.9129 68.8955 67.4853 66.3444C72.6525 61.2198 74.336 52.3713 74.336 37.0709C74.336 21.7705 72.6525 12.922 67.4853 7.79748C64.9129 5.24633 61.3974 3.54032 56.5678 2.47584C51.7272 1.40896 45.6291 0.999931 37.9561 0.999931C30.2831 0.999931 24.185 1.40896 19.3444 2.47584C14.5148 3.54032 10.9993 5.24633 8.42691 7.79748C3.25964 12.922 1.57617 21.7705 1.57617 37.0709Z" fill="url(#paint0_linear_614_385)" fill-opacity="0.1" stroke="url(#paint1_linear_614_385)" stroke-width="2" stroke-linecap="round" stroke-linejoin="round"/>
<path d="M21.7205 44.4347C20.9205 44.4347 20.2139 44.268 19.6005 43.9347C18.9872 43.588 18.5072 43.108 18.1605 42.4947C17.8272 41.868 17.6605 41.148 17.6605 40.3347H19.1005C19.1005 41.1613 19.3405 41.8347 19.8205 42.3547C20.3139 42.8613 20.9605 43.1147 21.7605 43.1147H23.9805C24.7672 43.1147 25.4005 42.9413 25.8805 42.5947C26.3605 42.2347 26.6005 41.768 26.6005 41.1947V39.9147C26.6005 39.4613 26.4205 39.0747 26.0605 38.7547C25.7139 38.4347 25.2339 38.228 24.6205 38.1347L21.0205 37.5347C20.0072 37.3613 19.2205 37.0013 18.6605 36.4547C18.1005 35.908 17.8205 35.2213 17.8205 34.3947V33.3147C17.8205 32.3413 18.1805 31.568 18.9005 30.9947C19.6339 30.408 20.6005 30.1147 21.8005 30.1147H24.0605C25.1939 30.1147 26.1072 30.4613 26.8005 31.1547C27.4939 31.8347 27.8405 32.7347 27.8405 33.8547H26.4005C26.4005 33.1213 26.1872 32.5347 25.7605 32.0947C25.3339 31.6547 24.7672 31.4347 24.0605 31.4347H21.8005C21.0405 31.4347 20.4339 31.608 19.9805 31.9547C19.5272 32.288 19.3005 32.7413 19.3005 33.3147V34.3947C19.3005 34.8613 19.4672 35.2547 19.8005 35.5747C20.1472 35.8947 20.6205 36.108 21.2205 36.2147L24.8005 36.8347C25.8405 37.0213 26.6472 37.3813 27.2205 37.9147C27.7939 38.4347 28.0805 39.1013 28.0805 39.9147V41.1947C28.0805 42.168 27.7072 42.9547 26.9605 43.5547C26.2139 44.1413 25.2339 44.4347 24.0205 44.4347H21.7205ZM34.5196 44.2747C33.4663 44.2747 32.7063 44.048 32.2396 43.5947C31.7863 43.1413 31.5596 42.3947 31.5596 41.3547V35.5747H29.7996V34.2947H31.5596V31.2747H32.9996V34.2947H35.5996V35.5747H32.9996V41.3547C32.9996 41.9413 33.1129 42.3613 33.3396 42.6147C33.5796 42.868 33.9729 42.9947 34.5196 42.9947H35.5996V44.2747H34.5196ZM41.2438 44.4347C40.1238 44.4347 39.2238 44.088 38.5438 43.3947C37.8638 42.7013 37.5238 41.788 37.5238 40.6547V37.9147C37.5238 36.7813 37.8638 35.868 38.5438 35.1747C39.2371 34.4813 40.1505 34.1347 41.2838 34.1347H42.9238C44.0571 34.1347 44.9638 34.4813 45.6438 35.1747C46.3371 35.868 46.6838 36.7813 46.6838 37.9147V40.6547C46.6838 41.788 46.3371 42.7013 45.6438 43.3947C44.9505 44.088 44.0305 44.4347 42.8838 44.4347H41.2438ZM42.8838 43.1547C43.6038 43.1547 44.1771 42.928 44.6038 42.4747C45.0305 42.008 45.2438 41.4013 45.2438 40.6547V37.9147C45.2438 37.168 45.0305 36.568 44.6038 36.1147C44.1771 35.648 43.6171 35.4147 42.9238 35.4147H41.2838C40.5905 35.4147 40.0305 35.648 39.6038 36.1147C39.1771 36.568 38.9638 37.168 38.9638 37.9147V40.6547C38.9638 41.4147 39.1705 42.0213 39.5838 42.4747C39.9971 42.928 40.5505 43.1547 41.2438 43.1547H42.8838ZM49.3301 34.2947H50.7301V35.6547C51.0101 35.2013 51.3767 34.8347 51.8301 34.5547C52.2967 34.2747 52.7634 34.1347 53.2301 34.1347H54.6701C55.7367 34.1347 56.5967 34.4747 57.2501 35.1547C57.9167 35.8347 58.2501 36.7347 58.2501 37.8547V40.3147C58.2501 41.5547 57.9101 42.5547 57.2301 43.3147C56.5634 44.0613 55.6767 44.4347 54.5701 44.4347H53.1301C52.7167 44.4347 52.2834 44.3213 51.8301 44.0947C51.3767 43.8547 51.0234 43.548 50.7701 43.1747V48.2547H49.3301V34.2947ZM54.5301 43.1547C55.2234 43.1547 55.7767 42.8947 56.1901 42.3747C56.6034 41.8547 56.8101 41.168 56.8101 40.3147V37.8547C56.8101 37.1213 56.6101 36.5347 56.2101 36.0947C55.8101 35.6413 55.2834 35.4147 54.6301 35.4147H53.2301C52.6701 35.4147 52.1634 35.6347 51.7101 36.0747C51.2567 36.5013 50.9434 37.0547 50.7701 37.7347V40.7347C50.8634 41.4413 51.1367 42.0213 51.5901 42.4747C52.0434 42.928 52.5834 43.1547 53.2101 43.1547H54.5301Z" fill="url(#paint2_linear_614_385)"/>
<defs>
<linearGradient id="paint0_linear_614_385" x1="37.9561" y1="74.1419" x2="37.9561" y2="-6.86646e-05" gradientUnits="userSpaceOnUse">
<stop stop-color="#FCB433"/>
<stop offset="1" stop-color="#966B1E"/>
</linearGradient>
<linearGradient id="paint1_linear_614_385" x1="68.8352" y1="64.1501" x2="4.86708" y2="15.2856" gradientUnits="userSpaceOnUse">
<stop stop-color="#FCB433"/>
<stop offset="1" stop-color="#966B1E"/>
</linearGradient>
<linearGradient id="paint2_linear_614_385" x1="60.1588" y1="32.0232" x2="53.4464" y2="53.0903" gradientUnits="userSpaceOnUse">
<stop stop-color="#FCB433"/>
<stop offset="1" stop-color="#966B1E"/>
</linearGradient>
</defs>
</svg>
