<svg width="76" height="75" viewBox="0 0 76 75" fill="none" xmlns="http://www.w3.org/2000/svg">
<path d="M1.57617 37.5586C1.57617 52.8589 3.25964 61.7074 8.42691 66.832C10.9993 69.3832 14.5148 71.0892 19.3444 72.1536C24.185 73.2205 30.2831 73.6295 37.9561 73.6295C45.6291 73.6295 51.7272 73.2205 56.5678 72.1536C61.3974 71.0892 64.9129 69.3832 67.4853 66.832C72.6525 61.7074 74.336 52.8589 74.336 37.5586C74.336 22.2582 72.6525 13.4097 67.4853 8.28512C64.9129 5.73397 61.3974 4.02796 56.5678 2.96348C51.7272 1.8966 45.6291 1.48757 37.9561 1.48757C30.2831 1.48757 24.185 1.8966 19.3444 2.96348C14.5148 4.02796 10.9993 5.73397 8.42691 8.28512C3.25964 13.4097 1.57617 22.2582 1.57617 37.5586Z" fill="url(#paint0_linear_734_279)" fill-opacity="0.1" stroke="url(#paint1_linear_734_279)" stroke-width="2" stroke-linecap="round" stroke-linejoin="round"/>
<path d="M25.2523 30.8559C24.4923 30.8559 23.8256 30.6692 23.2523 30.2959C22.6789 29.9092 22.2323 29.3759 21.9123 28.6959C21.5923 28.0025 21.4323 27.2092 21.4323 26.3159H22.9123C22.9123 27.2892 23.1256 28.0692 23.5523 28.6559C23.9789 29.2425 24.5456 29.5359 25.2523 29.5359H26.9923C27.7389 29.5359 28.3256 29.2292 28.7523 28.6159C29.1789 28.0025 29.3923 27.1492 29.3923 26.0559V16.6959H30.8723V26.0559C30.8723 27.5625 30.5323 28.7425 29.8523 29.5959C29.1723 30.4359 28.2189 30.8559 26.9923 30.8559H25.2523ZM37.1548 30.8559C36.0348 30.8559 35.1348 30.5092 34.4548 29.8159C33.7748 29.1225 33.4348 28.2092 33.4348 27.0759V24.3359C33.4348 23.2025 33.7748 22.2892 34.4548 21.5959C35.1481 20.9025 36.0614 20.5559 37.1948 20.5559H38.8348C39.9681 20.5559 40.8748 20.9025 41.5548 21.5959C42.2481 22.2892 42.5948 23.2025 42.5948 24.3359V27.0759C42.5948 28.2092 42.2481 29.1225 41.5548 29.8159C40.8614 30.5092 39.9414 30.8559 38.7948 30.8559H37.1548ZM38.7948 29.5759C39.5148 29.5759 40.0881 29.3492 40.5148 28.8959C40.9414 28.4292 41.1548 27.8225 41.1548 27.0759V24.3359C41.1548 23.5892 40.9414 22.9892 40.5148 22.5359C40.0881 22.0692 39.5281 21.8359 38.8348 21.8359H37.1948C36.5014 21.8359 35.9414 22.0692 35.5148 22.5359C35.0881 22.9892 34.8748 23.5892 34.8748 24.3359V27.0759C34.8748 27.8359 35.0814 28.4425 35.4948 28.8959C35.9081 29.3492 36.4614 29.5759 37.1548 29.5759H38.7948ZM48.481 34.7559C47.601 34.7559 46.8743 34.5159 46.301 34.0359C45.7277 33.5692 45.4077 32.9492 45.341 32.1759H46.781C46.8343 32.5759 47.0143 32.8959 47.321 33.1359C47.641 33.3892 48.0277 33.5159 48.481 33.5159H50.141C50.8343 33.5159 51.3677 33.2825 51.741 32.8159C52.1277 32.3625 52.321 31.7225 52.321 30.8959V29.3559C52.0277 29.7559 51.641 30.0825 51.161 30.3359C50.6943 30.5759 50.241 30.6959 49.801 30.6959H48.341C47.661 30.6959 47.0543 30.5359 46.521 30.2159C45.9877 29.8959 45.5743 29.4492 45.281 28.8759C44.9877 28.3025 44.841 27.6359 44.841 26.8759V24.5359C44.841 23.3492 45.181 22.3892 45.861 21.6559C46.5543 20.9225 47.461 20.5559 48.581 20.5559H49.981C50.4077 20.5559 50.8477 20.6759 51.301 20.9159C51.7543 21.1559 52.1077 21.4625 52.361 21.8359V20.7159H53.761V30.8959C53.761 32.1092 53.441 33.0559 52.801 33.7359C52.161 34.4159 51.2743 34.7559 50.141 34.7559H48.481ZM49.801 29.4159C50.4677 29.4159 51.0343 29.1559 51.501 28.6359C51.981 28.1025 52.2543 27.4292 52.321 26.6159V24.1559C52.2677 23.4759 52.0143 22.9225 51.561 22.4959C51.121 22.0559 50.5943 21.8359 49.981 21.8359H48.621C47.9143 21.8359 47.3477 22.0825 46.921 22.5759C46.4943 23.0692 46.281 23.7225 46.281 24.5359V26.8759C46.281 27.6225 46.4743 28.2359 46.861 28.7159C47.261 29.1825 47.7677 29.4159 48.381 29.4159H49.801ZM25.4115 58.8559C24.4915 58.8559 23.6782 58.6492 22.9715 58.2359C22.2649 57.8225 21.7115 57.2359 21.3115 56.4759C20.9249 55.7159 20.7315 54.8359 20.7315 53.8359V49.5559C20.7315 48.5559 20.9249 47.6759 21.3115 46.9159C21.7115 46.1559 22.2649 45.5692 22.9715 45.1559C23.6782 44.7425 24.4982 44.5359 25.4315 44.5359H27.5515C28.4849 44.5359 29.3049 44.7425 30.0116 45.1559C30.7182 45.5692 31.2649 46.1559 31.6515 46.9159C32.0515 47.6759 32.2516 48.5559 32.2516 49.5559V53.8359C32.2516 54.8359 32.0515 55.7159 31.6515 56.4759C31.2649 57.2225 30.7115 57.8092 29.9915 58.2359C29.2849 58.6492 28.4715 58.8559 27.5515 58.8559H25.4115ZM27.5115 57.5359C28.4849 57.5359 29.2716 57.1959 29.8715 56.5159C30.4716 55.8359 30.7716 54.9425 30.7716 53.8359V49.5559C30.7716 48.4492 30.4716 47.5559 29.8715 46.8759C29.2716 46.1959 28.4849 45.8559 27.5115 45.8559H25.4715C24.4982 45.8559 23.7115 46.1959 23.1115 46.8759C22.5115 47.5559 22.2115 48.4492 22.2115 49.5559V53.8359C22.2115 54.9425 22.5049 55.8359 23.0915 56.5159C23.6915 57.1959 24.4782 57.5359 25.4515 57.5359H27.5115ZM35.0573 44.6959H44.2573V46.0159H36.5373V51.1359H43.5173V52.4559H36.5373V58.6959H35.0573V44.6959ZM46.5808 44.6959H55.7808V46.0159H48.0608V51.1359H55.0408V52.4559H48.0608V58.6959H46.5808V44.6959Z" fill="url(#paint2_linear_734_279)"/>
<defs>
<linearGradient id="paint0_linear_734_279" x1="37.9561" y1="74.6295" x2="37.9561" y2="0.487572" gradientUnits="userSpaceOnUse">
<stop stop-color="#FCB433"/>
<stop offset="1" stop-color="#966B1E"/>
</linearGradient>
<linearGradient id="paint1_linear_734_279" x1="68.8352" y1="64.6378" x2="4.86708" y2="15.7732" gradientUnits="userSpaceOnUse">
<stop stop-color="#FCB433"/>
<stop offset="1" stop-color="#966B1E"/>
</linearGradient>
<linearGradient id="paint2_linear_734_279" x1="60.3733" y1="28.7933" x2="42.8399" y2="60.0724" gradientUnits="userSpaceOnUse">
<stop stop-color="#FCB433"/>
<stop offset="1" stop-color="#966B1E"/>
</linearGradient>
</defs>
</svg>
