<svg width="258" height="49" viewBox="0 0 258 49" fill="none" xmlns="http://www.w3.org/2000/svg">
<path opacity="0.4" d="M123.454 31.144C122.686 31.144 122.002 30.958 121.402 30.586C120.814 30.214 120.358 29.692 120.034 29.02C119.71 28.336 119.548 27.55 119.548 26.662V22.72C119.548 21.832 119.71 21.052 120.034 20.38C120.37 19.708 120.838 19.186 121.438 18.814C122.05 18.442 122.746 18.256 123.526 18.256H125.434C126.178 18.256 126.838 18.418 127.414 18.742C127.99 19.066 128.434 19.522 128.746 20.11C129.058 20.686 129.214 21.352 129.214 22.108H128.26C128.26 21.22 128.002 20.506 127.486 19.966C126.97 19.414 126.286 19.138 125.434 19.138H123.526C122.638 19.138 121.918 19.468 121.366 20.128C120.814 20.788 120.538 21.652 120.538 22.72V26.662C120.538 27.742 120.802 28.612 121.33 29.272C121.87 29.92 122.578 30.244 123.454 30.244H125.398C126.274 30.244 126.976 29.95 127.504 29.362C128.032 28.762 128.296 27.97 128.296 26.986H129.25C129.25 27.814 129.088 28.546 128.764 29.182C128.452 29.806 128.002 30.292 127.414 30.64C126.838 30.976 126.166 31.144 125.398 31.144H123.454ZM134.062 31.144C133.222 31.144 132.55 30.928 132.046 30.496C131.542 30.052 131.29 29.464 131.29 28.732V28.048C131.29 27.316 131.548 26.734 132.064 26.302C132.58 25.87 133.264 25.654 134.116 25.654H135.286C135.694 25.654 136.114 25.72 136.546 25.852C136.99 25.984 137.368 26.164 137.68 26.392V24.646C137.68 24.082 137.506 23.62 137.158 23.26C136.81 22.9 136.36 22.72 135.808 22.72H134.404C133.84 22.72 133.384 22.852 133.036 23.116C132.688 23.38 132.514 23.734 132.514 24.178H131.542C131.542 23.482 131.806 22.924 132.334 22.504C132.862 22.084 133.552 21.874 134.404 21.874H135.808C136.66 21.874 137.338 22.126 137.842 22.63C138.358 23.134 138.616 23.806 138.616 24.646V31H137.698V29.596C137.386 30.076 137.002 30.454 136.546 30.73C136.09 31.006 135.628 31.144 135.16 31.144H134.062ZM135.178 30.28C135.682 30.28 136.162 30.1 136.618 29.74C137.086 29.38 137.44 28.906 137.68 28.318V27.346C137.416 27.094 137.062 26.89 136.618 26.734C136.186 26.578 135.742 26.5 135.286 26.5H134.116C133.552 26.5 133.102 26.644 132.766 26.932C132.43 27.208 132.262 27.58 132.262 28.048V28.732C132.262 29.2 132.424 29.578 132.748 29.866C133.072 30.142 133.51 30.28 134.062 30.28H135.178ZM151.177 21.874C151.921 21.874 152.515 22.12 152.959 22.612C153.403 23.104 153.625 23.77 153.625 24.61V31H152.653V24.592C152.653 24.028 152.515 23.578 152.239 23.242C151.975 22.906 151.615 22.738 151.159 22.738H150.097C149.569 22.738 149.119 22.93 148.747 23.314C148.387 23.698 148.147 24.22 148.027 24.88V31H147.055V24.736C147.055 24.124 146.923 23.638 146.659 23.278C146.407 22.918 146.065 22.738 145.633 22.738H144.589C144.085 22.738 143.635 22.96 143.239 23.404C142.843 23.848 142.573 24.424 142.429 25.132V31H141.457V22.018H142.393V23.476C142.657 22.972 142.981 22.582 143.365 22.306C143.749 22.018 144.157 21.874 144.589 21.874H145.651C146.143 21.874 146.575 22.012 146.947 22.288C147.319 22.564 147.589 22.948 147.757 23.44C148.021 22.936 148.351 22.552 148.747 22.288C149.155 22.012 149.599 21.874 150.079 21.874H151.177ZM159.277 31.144C158.329 31.144 157.561 30.856 156.973 30.28C156.397 29.704 156.109 28.942 156.109 27.994V25.204C156.109 24.208 156.397 23.404 156.973 22.792C157.561 22.18 158.329 21.874 159.277 21.874H160.753C161.665 21.874 162.397 22.174 162.949 22.774C163.513 23.362 163.795 24.148 163.795 25.132V26.644H157.081V27.994C157.081 28.678 157.279 29.23 157.675 29.65C158.083 30.07 158.617 30.28 159.277 30.28H160.645C161.293 30.28 161.815 30.094 162.211 29.722C162.619 29.338 162.823 28.84 162.823 28.228H163.759C163.759 29.104 163.471 29.812 162.895 30.352C162.331 30.88 161.581 31.144 160.645 31.144H159.277ZM162.841 25.816V25.132C162.841 24.412 162.649 23.836 162.265 23.404C161.881 22.96 161.377 22.738 160.753 22.738H159.277C158.617 22.738 158.083 22.966 157.675 23.422C157.279 23.878 157.081 24.472 157.081 25.204V25.816H162.841ZM166.278 22.018H167.214V23.476C167.478 23.02 167.856 22.66 168.348 22.396C168.84 22.12 169.368 21.982 169.932 21.982H170.598V22.846H169.914C169.134 22.846 168.492 23.098 167.988 23.602C167.496 24.106 167.25 24.76 167.25 25.564V31H166.278V22.018ZM174.72 31.144C173.88 31.144 173.208 30.928 172.704 30.496C172.2 30.052 171.948 29.464 171.948 28.732V28.048C171.948 27.316 172.206 26.734 172.722 26.302C173.238 25.87 173.922 25.654 174.774 25.654H175.944C176.352 25.654 176.772 25.72 177.204 25.852C177.648 25.984 178.026 26.164 178.338 26.392V24.646C178.338 24.082 178.164 23.62 177.816 23.26C177.468 22.9 177.018 22.72 176.466 22.72H175.062C174.498 22.72 174.042 22.852 173.694 23.116C173.346 23.38 173.172 23.734 173.172 24.178H172.2C172.2 23.482 172.464 22.924 172.992 22.504C173.52 22.084 174.21 21.874 175.062 21.874H176.466C177.318 21.874 177.996 22.126 178.5 22.63C179.016 23.134 179.274 23.806 179.274 24.646V31H178.356V29.596C178.044 30.076 177.66 30.454 177.204 30.73C176.748 31.006 176.286 31.144 175.818 31.144H174.72ZM175.836 30.28C176.34 30.28 176.82 30.1 177.276 29.74C177.744 29.38 178.098 28.906 178.338 28.318V27.346C178.074 27.094 177.72 26.89 177.276 26.734C176.844 26.578 176.4 26.5 175.944 26.5H174.774C174.21 26.5 173.76 26.644 173.424 26.932C173.088 27.208 172.92 27.58 172.92 28.048V28.732C172.92 29.2 173.082 29.578 173.406 29.866C173.73 30.142 174.168 30.28 174.72 30.28H175.836Z" fill="url(#paint0_linear_734_275)"/>
<path d="M0 48.0001L218.5 48C237.053 48 249.636 29.1259 242.5 12L237.5 4.02722e-05" stroke="url(#paint1_linear_734_275)"/>
<defs>
<linearGradient id="paint0_linear_734_275" x1="86.3356" y1="6.24657" x2="102.98" y2="71.0549" gradientUnits="userSpaceOnUse">
<stop stop-color="#727272"/>
<stop offset="1" stop-color="white"/>
</linearGradient>
<linearGradient id="paint1_linear_734_275" x1="-10" y1="48" x2="8.8186" y2="-43.2226" gradientUnits="userSpaceOnUse">
<stop stop-color="#727272" stop-opacity="0"/>
<stop offset="1" stop-color="white"/>
</linearGradient>
</defs>
</svg>
