<svg width="232" height="49" viewBox="0 0 232 49" fill="none" xmlns="http://www.w3.org/2000/svg">
<path opacity="0.4" d="M84.0082 31.144C83.2762 31.144 82.6282 30.982 82.0642 30.658C81.5002 30.322 81.0622 29.854 80.7502 29.254C80.4502 28.642 80.3002 27.946 80.3002 27.166V18.4H81.2902V27.184C81.2902 28.096 81.5362 28.834 82.0282 29.398C82.5322 29.962 83.1922 30.244 84.0082 30.244H85.9702C86.7862 30.244 87.4402 29.968 87.9322 29.416C88.4362 28.852 88.6882 28.108 88.6882 27.184V18.4H89.6782V27.166C89.6782 27.946 89.5222 28.642 89.2102 29.254C88.9102 29.854 88.4782 30.322 87.9142 30.658C87.3502 30.982 86.7022 31.144 85.9702 31.144H84.0082ZM94.9985 31.144C94.1465 31.144 93.4565 30.898 92.9285 30.406C92.4125 29.902 92.1545 29.242 92.1545 28.426H93.0905C93.0905 28.978 93.2645 29.428 93.6125 29.776C93.9725 30.124 94.4345 30.298 94.9985 30.298H96.5465C97.1345 30.298 97.6025 30.178 97.9505 29.938C98.3105 29.698 98.4905 29.386 98.4905 29.002V28.3C98.4905 28.036 98.3885 27.802 98.1845 27.598C97.9925 27.394 97.7405 27.262 97.4285 27.202L94.2965 26.662C93.7085 26.566 93.2345 26.344 92.8745 25.996C92.5265 25.636 92.3525 25.216 92.3525 24.736V24.124C92.3525 23.452 92.5985 22.912 93.0905 22.504C93.5945 22.084 94.2545 21.874 95.0705 21.874H96.6005C97.3925 21.874 98.0285 22.102 98.5085 22.558C99.0005 23.014 99.2465 23.614 99.2465 24.358H98.3105C98.2865 23.866 98.1185 23.47 97.8065 23.17C97.5065 22.87 97.1045 22.72 96.6005 22.72H95.0705C94.5425 22.72 94.1165 22.852 93.7925 23.116C93.4685 23.368 93.3065 23.704 93.3065 24.124V24.7C93.3065 24.976 93.4145 25.222 93.6305 25.438C93.8465 25.642 94.1285 25.768 94.4765 25.816L97.6085 26.356C98.1605 26.452 98.6045 26.674 98.9405 27.022C99.2765 27.37 99.4445 27.784 99.4445 28.264V29.02C99.4445 29.656 99.1805 30.172 98.6525 30.568C98.1245 30.952 97.4225 31.144 96.5465 31.144H94.9985ZM104.659 31.144C103.711 31.144 102.943 30.856 102.355 30.28C101.779 29.704 101.491 28.942 101.491 27.994V25.204C101.491 24.208 101.779 23.404 102.355 22.792C102.943 22.18 103.711 21.874 104.659 21.874H106.135C107.047 21.874 107.779 22.174 108.331 22.774C108.895 23.362 109.177 24.148 109.177 25.132V26.644H102.463V27.994C102.463 28.678 102.661 29.23 103.057 29.65C103.465 30.07 103.999 30.28 104.659 30.28H106.027C106.675 30.28 107.197 30.094 107.593 29.722C108.001 29.338 108.205 28.84 108.205 28.228H109.141C109.141 29.104 108.853 29.812 108.277 30.352C107.713 30.88 106.963 31.144 106.027 31.144H104.659ZM108.223 25.816V25.132C108.223 24.412 108.031 23.836 107.647 23.404C107.263 22.96 106.759 22.738 106.135 22.738H104.659C103.999 22.738 103.465 22.966 103.057 23.422C102.661 23.878 102.463 24.472 102.463 25.204V25.816H108.223ZM111.66 22.018H112.596V23.476C112.86 23.02 113.238 22.66 113.73 22.396C114.222 22.12 114.75 21.982 115.314 21.982H115.98V22.846H115.296C114.516 22.846 113.874 23.098 113.37 23.602C112.878 24.106 112.632 24.76 112.632 25.564V31H111.66V22.018ZM124.936 31.144C124.096 31.144 123.424 30.928 122.92 30.496C122.416 30.052 122.164 29.464 122.164 28.732V28.048C122.164 27.316 122.422 26.734 122.938 26.302C123.454 25.87 124.138 25.654 124.99 25.654H126.16C126.568 25.654 126.988 25.72 127.42 25.852C127.864 25.984 128.242 26.164 128.554 26.392V24.646C128.554 24.082 128.38 23.62 128.032 23.26C127.684 22.9 127.234 22.72 126.682 22.72H125.278C124.714 22.72 124.258 22.852 123.91 23.116C123.562 23.38 123.388 23.734 123.388 24.178H122.416C122.416 23.482 122.68 22.924 123.208 22.504C123.736 22.084 124.426 21.874 125.278 21.874H126.682C127.534 21.874 128.212 22.126 128.716 22.63C129.232 23.134 129.49 23.806 129.49 24.646V31H128.572V29.596C128.26 30.076 127.876 30.454 127.42 30.73C126.964 31.006 126.502 31.144 126.034 31.144H124.936ZM126.052 30.28C126.556 30.28 127.036 30.1 127.492 29.74C127.96 29.38 128.314 28.906 128.554 28.318V27.346C128.29 27.094 127.936 26.89 127.492 26.734C127.06 26.578 126.616 26.5 126.16 26.5H124.99C124.426 26.5 123.976 26.644 123.64 26.932C123.304 27.208 123.136 27.58 123.136 28.048V28.732C123.136 29.2 123.298 29.578 123.622 29.866C123.946 30.142 124.384 30.28 124.936 30.28H126.052ZM135.085 31.144C134.149 31.144 133.393 30.856 132.817 30.28C132.253 29.692 131.971 28.924 131.971 27.976V25.204C131.971 24.208 132.253 23.404 132.817 22.792C133.393 22.18 134.143 21.874 135.067 21.874H136.543C137.419 21.874 138.121 22.114 138.649 22.594C139.189 23.074 139.459 23.704 139.459 24.484H138.523C138.523 23.956 138.337 23.536 137.965 23.224C137.605 22.9 137.131 22.738 136.543 22.738H135.067C134.431 22.738 133.915 22.966 133.519 23.422C133.135 23.866 132.943 24.46 132.943 25.204V27.976C132.943 28.672 133.135 29.23 133.519 29.65C133.915 30.07 134.437 30.28 135.085 30.28H136.561C137.161 30.28 137.647 30.07 138.019 29.65C138.391 29.23 138.577 28.678 138.577 27.994H139.513C139.513 28.942 139.243 29.704 138.703 30.28C138.163 30.856 137.449 31.144 136.561 31.144H135.085ZM144.613 31.144C143.677 31.144 142.921 30.856 142.345 30.28C141.781 29.692 141.499 28.924 141.499 27.976V25.204C141.499 24.208 141.781 23.404 142.345 22.792C142.921 22.18 143.671 21.874 144.595 21.874H146.071C146.947 21.874 147.649 22.114 148.177 22.594C148.717 23.074 148.987 23.704 148.987 24.484H148.051C148.051 23.956 147.865 23.536 147.493 23.224C147.133 22.9 146.659 22.738 146.071 22.738H144.595C143.959 22.738 143.443 22.966 143.047 23.422C142.663 23.866 142.471 24.46 142.471 25.204V27.976C142.471 28.672 142.663 29.23 143.047 29.65C143.443 30.07 143.965 30.28 144.613 30.28H146.089C146.689 30.28 147.175 30.07 147.547 29.65C147.919 29.23 148.105 28.678 148.105 27.994H149.041C149.041 28.942 148.771 29.704 148.231 30.28C147.691 30.856 146.977 31.144 146.089 31.144H144.613ZM154.194 31.144C153.246 31.144 152.478 30.856 151.89 30.28C151.314 29.704 151.026 28.942 151.026 27.994V25.204C151.026 24.208 151.314 23.404 151.89 22.792C152.478 22.18 153.246 21.874 154.194 21.874H155.67C156.582 21.874 157.314 22.174 157.866 22.774C158.43 23.362 158.712 24.148 158.712 25.132V26.644H151.998V27.994C151.998 28.678 152.196 29.23 152.592 29.65C153 30.07 153.534 30.28 154.194 30.28H155.562C156.21 30.28 156.732 30.094 157.128 29.722C157.536 29.338 157.74 28.84 157.74 28.228H158.676C158.676 29.104 158.388 29.812 157.812 30.352C157.248 30.88 156.498 31.144 155.562 31.144H154.194ZM157.758 25.816V25.132C157.758 24.412 157.566 23.836 157.182 23.404C156.798 22.96 156.294 22.738 155.67 22.738H154.194C153.534 22.738 153 22.966 152.592 23.422C152.196 23.878 151.998 24.472 151.998 25.204V25.816H157.758ZM163.571 31.144C162.719 31.144 162.029 30.898 161.501 30.406C160.985 29.902 160.727 29.242 160.727 28.426H161.663C161.663 28.978 161.837 29.428 162.185 29.776C162.545 30.124 163.007 30.298 163.571 30.298H165.119C165.707 30.298 166.175 30.178 166.523 29.938C166.883 29.698 167.063 29.386 167.063 29.002V28.3C167.063 28.036 166.961 27.802 166.757 27.598C166.565 27.394 166.313 27.262 166.001 27.202L162.869 26.662C162.281 26.566 161.807 26.344 161.447 25.996C161.099 25.636 160.925 25.216 160.925 24.736V24.124C160.925 23.452 161.171 22.912 161.663 22.504C162.167 22.084 162.827 21.874 163.643 21.874H165.173C165.965 21.874 166.601 22.102 167.081 22.558C167.573 23.014 167.819 23.614 167.819 24.358H166.883C166.859 23.866 166.691 23.47 166.379 23.17C166.079 22.87 165.677 22.72 165.173 22.72H163.643C163.115 22.72 162.689 22.852 162.365 23.116C162.041 23.368 161.879 23.704 161.879 24.124V24.7C161.879 24.976 161.987 25.222 162.203 25.438C162.419 25.642 162.701 25.768 163.049 25.816L166.181 26.356C166.733 26.452 167.177 26.674 167.513 27.022C167.849 27.37 168.017 27.784 168.017 28.264V29.02C168.017 29.656 167.753 30.172 167.225 30.568C166.697 30.952 165.995 31.144 165.119 31.144H163.571ZM172.799 31.144C171.947 31.144 171.257 30.898 170.729 30.406C170.213 29.902 169.955 29.242 169.955 28.426H170.891C170.891 28.978 171.065 29.428 171.413 29.776C171.773 30.124 172.235 30.298 172.799 30.298H174.347C174.935 30.298 175.403 30.178 175.751 29.938C176.111 29.698 176.291 29.386 176.291 29.002V28.3C176.291 28.036 176.189 27.802 175.985 27.598C175.793 27.394 175.541 27.262 175.229 27.202L172.097 26.662C171.509 26.566 171.035 26.344 170.675 25.996C170.327 25.636 170.153 25.216 170.153 24.736V24.124C170.153 23.452 170.399 22.912 170.891 22.504C171.395 22.084 172.055 21.874 172.871 21.874H174.401C175.193 21.874 175.829 22.102 176.309 22.558C176.801 23.014 177.047 23.614 177.047 24.358H176.111C176.087 23.866 175.919 23.47 175.607 23.17C175.307 22.87 174.905 22.72 174.401 22.72H172.871C172.343 22.72 171.917 22.852 171.593 23.116C171.269 23.368 171.107 23.704 171.107 24.124V24.7C171.107 24.976 171.215 25.222 171.431 25.438C171.647 25.642 171.929 25.768 172.277 25.816L175.409 26.356C175.961 26.452 176.405 26.674 176.741 27.022C177.077 27.37 177.245 27.784 177.245 28.264V29.02C177.245 29.656 176.981 30.172 176.453 30.568C175.925 30.952 175.223 31.144 174.347 31.144H172.799Z" fill="url(#paint0_linear_734_277)"/>
<path d="M257.5 48.0001L39 48C20.4469 48 7.86421 29.1259 15 12L20 4.02722e-05" stroke="url(#paint1_linear_734_277)"/>
<defs>
<linearGradient id="paint0_linear_734_277" x1="65.3356" y1="6.24657" x2="81.9795" y2="71.0549" gradientUnits="userSpaceOnUse">
<stop stop-color="#727272"/>
<stop offset="1" stop-color="white"/>
</linearGradient>
<linearGradient id="paint1_linear_734_277" x1="267.5" y1="48" x2="248.681" y2="-43.2226" gradientUnits="userSpaceOnUse">
<stop stop-color="#727272" stop-opacity="0"/>
<stop offset="1" stop-color="white"/>
</linearGradient>
</defs>
</svg>
