<svg width="130" height="129" viewBox="0 0 130 129" fill="none" xmlns="http://www.w3.org/2000/svg">
<path d="M1 64.4628C1 91.0418 3.9022 106.738 13.1314 115.891C17.7347 120.456 23.9919 123.472 32.4771 125.342C40.9732 127.214 51.6407 127.926 65 127.926C78.3593 127.926 89.0268 127.214 97.5229 125.342C106.008 123.472 112.265 120.456 116.869 115.891C126.098 106.738 129 91.0418 129 64.4628C129 37.8838 126.098 22.1874 116.869 13.0345C112.265 8.46922 106.008 5.45396 97.5229 3.58378C89.0268 1.71119 78.3593 1 65 1C51.6407 1 40.9732 1.71119 32.4771 3.58378C23.9919 5.45396 17.7347 8.46922 13.1314 13.0345C3.9022 22.1874 1 37.8838 1 64.4628Z" fill="url(#paint0_linear_734_281)" fill-opacity="0.1" stroke="url(#paint1_linear_734_281)" stroke-width="2" stroke-linecap="round" stroke-linejoin="round"/>
<path d="M39.5 83.9628C39.5 87.8212 39.6343 90.7889 40.1836 93.0877C40.7277 95.3653 41.6704 96.9494 43.2731 98.0832C44.8988 99.2333 47.2574 99.9594 50.7161 100.39C54.1689 100.82 58.6575 100.949 64.5 100.949C70.3425 100.949 74.8311 100.82 78.2839 100.39C81.7426 99.9594 84.1012 99.2333 85.7269 98.0832C87.3296 96.9494 88.2723 95.3653 88.8164 93.0877C89.3657 90.7889 89.5 87.8212 89.5 83.9628C89.5 80.1045 89.3657 77.1368 88.8164 74.838C88.2723 72.5604 87.3296 70.9763 85.7269 69.8424C84.1012 68.6924 81.7426 67.9663 78.2839 67.5358C74.8311 67.106 70.3425 66.9771 64.5 66.9771C58.6575 66.9771 54.1689 67.106 50.7161 67.5358C47.2574 67.9663 44.8988 68.6924 43.2731 69.8424C41.6704 70.9763 40.7277 72.5604 40.1836 74.838C39.6343 77.1368 39.5 80.1045 39.5 83.9628Z" stroke="url(#paint2_linear_734_281)" stroke-linecap="round" stroke-linejoin="round"/>
<path d="M75.125 79.5914H79.375M56 88.3343H73" stroke="url(#paint3_linear_734_281)" stroke-width="2" stroke-linecap="round" stroke-linejoin="round"/>
<path fill-rule="evenodd" clip-rule="evenodd" d="M49.624 81.7771C50.7976 81.7771 51.749 80.7985 51.749 79.5914C51.749 78.3842 50.7976 77.4057 49.624 77.4057C48.4504 77.4057 47.499 78.3842 47.499 79.5914C47.499 80.7985 48.4504 81.7771 49.624 81.7771ZM49.624 90.52C50.7976 90.52 51.749 89.5414 51.749 88.3342C51.749 87.1271 50.7976 86.1485 49.624 86.1485C48.4504 86.1485 47.499 87.1271 47.499 88.3342C47.499 89.5414 48.4504 90.52 49.624 90.52ZM58.124 79.5914C58.124 80.7985 57.1726 81.7771 55.999 81.7771C54.8254 81.7771 53.874 80.7985 53.874 79.5914C53.874 78.3842 54.8254 77.4057 55.999 77.4057C57.1726 77.4057 58.124 78.3842 58.124 79.5914ZM62.374 81.7771C63.5476 81.7771 64.499 80.7985 64.499 79.5914C64.499 78.3842 63.5476 77.4057 62.374 77.4057C61.2004 77.4057 60.249 78.3842 60.249 79.5914C60.249 80.7985 61.2004 81.7771 62.374 81.7771ZM70.874 79.5914C70.874 80.7985 69.9226 81.7771 68.749 81.7771C67.5754 81.7771 66.624 80.7985 66.624 79.5914C66.624 78.3842 67.5754 77.4057 68.749 77.4057C69.9226 77.4057 70.874 78.3842 70.874 79.5914ZM79.3745 90.52C80.5481 90.52 81.4995 89.5414 81.4995 88.3342C81.4995 87.1271 80.5481 86.1485 79.3745 86.1485C78.2009 86.1485 77.2495 87.1271 77.2495 88.3342C77.2495 89.5414 78.2009 90.52 79.3745 90.52Z" fill="url(#paint4_linear_734_281)"/>
<path d="M38.5533 46.9628L34.0413 41.3948L32.5373 42.9948V46.9628H31.6573L31.6573 35.7628H32.5373V41.8588L38.2493 35.7628H39.3693L34.6493 40.7548L39.6573 46.9628H38.5533ZM43.4018 47.0908C42.5591 47.0908 41.8764 46.8348 41.3538 46.3228C40.8418 45.8108 40.5858 45.1335 40.5858 44.2908V41.8108C40.5858 40.9255 40.8418 40.2108 41.3538 39.6668C41.8764 39.1228 42.5591 38.8508 43.4018 38.8508H44.7138C45.5244 38.8508 46.1751 39.1175 46.6658 39.6508C47.1671 40.1735 47.4178 40.8722 47.4178 41.7468V43.0908H41.4498V44.2908C41.4498 44.8988 41.6258 45.3895 41.9778 45.7628C42.3404 46.1362 42.8151 46.3228 43.4018 46.3228H44.6178C45.1938 46.3228 45.6578 46.1575 46.0098 45.8268C46.3724 45.4855 46.5538 45.0428 46.5538 44.4988H47.3858C47.3858 45.2775 47.1298 45.9068 46.6178 46.3868C46.1164 46.8562 45.4498 47.0908 44.6178 47.0908H43.4018ZM46.5698 42.3548V41.7468C46.5698 41.1068 46.3991 40.5948 46.0578 40.2108C45.7164 39.8162 45.2684 39.6188 44.7138 39.6188H43.4018C42.8151 39.6188 42.3404 39.8215 41.9778 40.2268C41.6258 40.6322 41.4498 41.1602 41.4498 41.8108V42.3548H46.5698ZM52.0405 50.2108C51.3898 50.2108 50.8512 50.0348 50.4245 49.6828C49.9978 49.3415 49.7578 48.8882 49.7045 48.3228H50.5525C50.5952 48.6642 50.7498 48.9362 51.0165 49.1388C51.2938 49.3522 51.6352 49.4588 52.0405 49.4588H53.3045C53.8912 49.4588 54.3498 49.2615 54.6805 48.8668C55.0218 48.4722 55.1925 47.9335 55.1925 47.2508V45.4748C54.9045 45.9228 54.5525 46.2855 54.1365 46.5628C53.7312 46.8295 53.3312 46.9628 52.9365 46.9628H51.8965C51.1925 46.9628 50.6218 46.7282 50.1845 46.2588C49.7472 45.7788 49.5285 45.1495 49.5285 44.3708V38.9788H50.3925V44.3868C50.3925 44.9202 50.5312 45.3575 50.8085 45.6988C51.0858 46.0295 51.4485 46.1948 51.8965 46.1948H52.9045C53.3738 46.1948 53.8325 45.9868 54.2805 45.5708C54.7392 45.1442 55.0432 44.6375 55.1925 44.0508V38.9788H56.0405V47.2508C56.0405 48.1682 55.7952 48.8882 55.3045 49.4108C54.8138 49.9442 54.1472 50.2108 53.3045 50.2108H52.0405ZM61.6474 47.0908C61.2634 47.0908 60.8687 46.9682 60.4634 46.7228C60.0687 46.4668 59.7487 46.1468 59.5034 45.7628V46.9628H58.6714V35.7628H59.5354V40.0988C59.77 39.7148 60.0794 39.4108 60.4634 39.1868C60.858 38.9628 61.2794 38.8508 61.7274 38.8508H62.8474C63.6367 38.8508 64.2767 39.1175 64.7674 39.6508C65.258 40.1842 65.5034 40.8882 65.5034 41.7628V44.0028C65.5034 44.9202 65.2474 45.6668 64.7354 46.2428C64.234 46.8082 63.5727 47.0908 62.7514 47.0908H61.6474ZM62.7354 46.3228C63.3007 46.3228 63.7594 46.1095 64.1114 45.6828C64.474 45.2562 64.6554 44.6962 64.6554 44.0028V41.7628C64.6554 41.1228 64.4847 40.6055 64.1434 40.2108C63.8127 39.8162 63.3754 39.6188 62.8314 39.6188H61.7594C61.1514 39.6188 60.6394 39.8322 60.2234 40.2588C59.818 40.6748 59.5887 41.2242 59.5354 41.9068V44.3068C59.6314 44.8508 59.882 45.3255 60.2874 45.7308C60.7034 46.1255 61.1567 46.3228 61.6474 46.3228H62.7354ZM70.34 47.0908C69.4867 47.0908 68.7987 46.8242 68.276 46.2908C67.7533 45.7468 67.492 45.0375 67.492 44.1628V41.7788C67.492 40.9042 67.7533 40.2002 68.276 39.6668C68.8093 39.1228 69.508 38.8508 70.372 38.8508H71.636C72.5 38.8508 73.1933 39.1228 73.716 39.6668C74.2493 40.2002 74.516 40.9042 74.516 41.7788V44.1628C74.516 45.0375 74.2493 45.7468 73.716 46.2908C73.1827 46.8242 72.4787 47.0908 71.604 47.0908H70.34ZM71.604 46.3228C72.2227 46.3228 72.7187 46.1255 73.092 45.7308C73.476 45.3362 73.668 44.8135 73.668 44.1628V41.7788C73.668 41.1282 73.4813 40.6055 73.108 40.2108C72.7347 39.8162 72.244 39.6188 71.636 39.6188H70.372C69.764 39.6188 69.2733 39.8162 68.9 40.2108C68.5373 40.6055 68.356 41.1282 68.356 41.7788V44.1628C68.356 44.8135 68.5373 45.3362 68.9 45.7308C69.2627 46.1255 69.7427 46.3228 70.34 46.3228H71.604ZM79.0196 47.0908C78.273 47.0908 77.6756 46.8988 77.2276 46.5148C76.7796 46.1202 76.5556 45.5975 76.5556 44.9468V44.3388C76.5556 43.6882 76.785 43.1708 77.2436 42.7868C77.7023 42.4028 78.3103 42.2108 79.0676 42.2108H80.1076C80.4703 42.2108 80.8436 42.2695 81.2276 42.3868C81.6223 42.5042 81.9583 42.6642 82.2356 42.8668V41.3148C82.2356 40.8135 82.081 40.4028 81.7716 40.0828C81.4623 39.7628 81.0623 39.6028 80.5716 39.6028H79.3236C78.8223 39.6028 78.417 39.7202 78.1076 39.9548C77.7983 40.1895 77.6436 40.5042 77.6436 40.8988H76.7796C76.7796 40.2802 77.0143 39.7842 77.4836 39.4108C77.953 39.0375 78.5663 38.8508 79.3236 38.8508H80.5716C81.329 38.8508 81.9316 39.0748 82.3796 39.5228C82.8383 39.9708 83.0676 40.5682 83.0676 41.3148V46.9628H82.2516V45.7148C81.9743 46.1415 81.633 46.4775 81.2276 46.7228C80.8223 46.9682 80.4116 47.0908 79.9956 47.0908H79.0196ZM80.0116 46.3228C80.4596 46.3228 80.8863 46.1628 81.2916 45.8428C81.7076 45.5228 82.0223 45.1015 82.2356 44.5788V43.7148C82.001 43.4908 81.6863 43.3095 81.2916 43.1708C80.9076 43.0322 80.513 42.9628 80.1076 42.9628H79.0676C78.5663 42.9628 78.1663 43.0908 77.8676 43.3468C77.569 43.5922 77.4196 43.9228 77.4196 44.3388V44.9468C77.4196 45.3628 77.5636 45.6988 77.8516 45.9548C78.1396 46.2002 78.529 46.3228 79.0196 46.3228H80.0116ZM85.5933 38.9788H86.4253V40.2748C86.6599 39.8695 86.9959 39.5495 87.4333 39.3148C87.8706 39.0695 88.3399 38.9468 88.8413 38.9468H89.4333V39.7148H88.8253C88.1319 39.7148 87.5613 39.9388 87.1133 40.3868C86.6759 40.8348 86.4573 41.4162 86.4573 42.1308V46.9628H85.5933V38.9788ZM93.2418 47.0908C92.4524 47.0908 91.8124 46.8188 91.3218 46.2748C90.8311 45.7202 90.5858 44.9948 90.5858 44.0988V41.9548C90.5858 41.0268 90.8418 40.2802 91.3538 39.7148C91.8764 39.1388 92.5591 38.8508 93.4018 38.8508H94.6178C94.9911 38.8508 95.3538 38.9522 95.7058 39.1548C96.0684 39.3468 96.3564 39.6082 96.5698 39.9388V35.7628H97.4178V46.9628H96.5858V45.6188C96.3191 46.0775 95.9884 46.4402 95.5938 46.7068C95.2098 46.9628 94.8044 47.0908 94.3778 47.0908H93.2418ZM94.3618 46.3228C94.8631 46.3228 95.3271 46.1042 95.7538 45.6668C96.1804 45.2188 96.4524 44.6802 96.5698 44.0508V41.4588C96.4631 40.9148 96.2284 40.4722 95.8658 40.1308C95.5031 39.7895 95.0818 39.6188 94.6018 39.6188H93.4178C92.8204 39.6188 92.3404 39.8322 91.9778 40.2588C91.6258 40.6855 91.4498 41.2508 91.4498 41.9548V44.0988C91.4498 44.7602 91.6151 45.2988 91.9457 45.7148C92.2871 46.1202 92.7244 46.3228 93.2578 46.3228H94.3618Z" fill="#FCB433"/>
<defs>
<linearGradient id="paint0_linear_734_281" x1="65" y1="128.926" x2="65" y2="0" gradientUnits="userSpaceOnUse">
<stop stop-color="#FCB433"/>
<stop offset="1" stop-color="#966B1E"/>
</linearGradient>
<linearGradient id="paint1_linear_734_281" x1="118.696" y1="111.551" x2="7.46146" y2="26.5803" gradientUnits="userSpaceOnUse">
<stop stop-color="#FCB433"/>
<stop offset="1" stop-color="#966B1E"/>
</linearGradient>
<linearGradient id="paint2_linear_734_281" x1="85.5652" y1="96.7356" x2="54.4463" y2="62.3555" gradientUnits="userSpaceOnUse">
<stop stop-color="#FCB433"/>
<stop offset="1" stop-color="#966B1E"/>
</linearGradient>
<linearGradient id="paint3_linear_734_281" x1="77.3424" y1="80.7696" x2="71.1353" y2="93.3419" gradientUnits="userSpaceOnUse">
<stop stop-color="#FCB433"/>
<stop offset="1" stop-color="#966B1E"/>
</linearGradient>
<linearGradient id="paint4_linear_734_281" x1="78.5429" y1="79.173" x2="69.0594" y2="97.7998" gradientUnits="userSpaceOnUse">
<stop stop-color="#FCB433"/>
<stop offset="1" stop-color="#966B1E"/>
</linearGradient>
</defs>
</svg>
