<svg width="76" height="75" viewBox="0 0 76 75" fill="none" xmlns="http://www.w3.org/2000/svg">
<path d="M1.67969 37.5585C1.67969 52.8589 3.36315 61.7074 8.53043 66.8319C11.1028 69.3831 14.6183 71.0891 19.4479 72.1536C24.2885 73.2205 30.3866 73.6295 38.0596 73.6295C45.7326 73.6295 51.8307 73.2205 56.6713 72.1536C61.5009 71.0891 65.0164 69.3831 67.5888 66.8319C72.7561 61.7074 74.4395 52.8589 74.4395 37.5585C74.4395 22.2581 72.7561 13.4096 67.5888 8.28505C65.0164 5.7339 61.5009 4.02789 56.6713 2.96341C51.8307 1.89653 45.7326 1.4875 38.0596 1.4875C30.3866 1.4875 24.2885 1.89653 19.4479 2.96341C14.6183 4.02789 11.1028 5.7339 8.53043 8.28505C3.36315 13.4096 1.67969 22.2581 1.67969 37.5585Z" fill="url(#paint0_linear_734_280)" fill-opacity="0.1" stroke="url(#paint1_linear_734_280)" stroke-width="2" stroke-linecap="round" stroke-linejoin="round"/>
<path d="M24.7706 30.4499C24.0106 30.4499 23.344 30.2633 22.7706 29.8899C22.1973 29.5033 21.7506 28.9699 21.4306 28.2899C21.1106 27.5966 20.9506 26.8033 20.9506 25.9099H22.4306C22.4306 26.8833 22.644 27.6633 23.0706 28.2499C23.4973 28.8366 24.064 29.1299 24.7706 29.1299H26.5106C27.2573 29.1299 27.844 28.8233 28.2706 28.2099C28.6973 27.5966 28.9106 26.7433 28.9106 25.6499V16.2899H30.3906V25.6499C30.3906 27.1566 30.0506 28.3366 29.3706 29.1899C28.6906 30.0299 27.7373 30.4499 26.5106 30.4499H24.7706ZM36.6731 30.4499C35.5531 30.4499 34.6531 30.1033 33.9731 29.4099C33.2931 28.7166 32.9531 27.8033 32.9531 26.6699V23.9299C32.9531 22.7966 33.2931 21.8833 33.9731 21.1899C34.6665 20.4966 35.5798 20.1499 36.7131 20.1499H38.3531C39.4865 20.1499 40.3931 20.4966 41.0731 21.1899C41.7665 21.8833 42.1131 22.7966 42.1131 23.9299V26.6699C42.1131 27.8033 41.7665 28.7166 41.0731 29.4099C40.3798 30.1033 39.4598 30.4499 38.3131 30.4499H36.6731ZM38.3131 29.1699C39.0331 29.1699 39.6065 28.9433 40.0331 28.4899C40.4598 28.0233 40.6731 27.4166 40.6731 26.6699V23.9299C40.6731 23.1833 40.4598 22.5833 40.0331 22.1299C39.6065 21.6633 39.0465 21.4299 38.3531 21.4299H36.7131C36.0198 21.4299 35.4598 21.6633 35.0331 22.1299C34.6065 22.5833 34.3931 23.1833 34.3931 23.9299V26.6699C34.3931 27.4299 34.5998 28.0366 35.0131 28.4899C35.4265 28.9433 35.9798 29.1699 36.6731 29.1699H38.3131ZM47.9994 34.3499C47.1194 34.3499 46.3927 34.1099 45.8194 33.6299C45.2461 33.1633 44.9261 32.5433 44.8594 31.7699H46.2994C46.3527 32.1699 46.5327 32.4899 46.8394 32.7299C47.1594 32.9833 47.5461 33.1099 47.9994 33.1099H49.6594C50.3527 33.1099 50.8861 32.8766 51.2594 32.4099C51.6461 31.9566 51.8394 31.3166 51.8394 30.4899V28.9499C51.5461 29.3499 51.1594 29.6766 50.6794 29.9299C50.2127 30.1699 49.7594 30.2899 49.3194 30.2899H47.8594C47.1794 30.2899 46.5727 30.1299 46.0394 29.8099C45.5061 29.4899 45.0927 29.0433 44.7994 28.4699C44.5061 27.8966 44.3594 27.2299 44.3594 26.4699V24.1299C44.3594 22.9433 44.6994 21.9833 45.3794 21.2499C46.0727 20.5166 46.9794 20.1499 48.0994 20.1499H49.4994C49.9261 20.1499 50.3661 20.2699 50.8194 20.5099C51.2727 20.7499 51.6261 21.0566 51.8794 21.4299V20.3099H53.2794V30.4899C53.2794 31.7033 52.9594 32.6499 52.3194 33.3299C51.6794 34.0099 50.7927 34.3499 49.6594 34.3499H47.9994ZM49.3194 29.0099C49.9861 29.0099 50.5527 28.7499 51.0194 28.2299C51.4994 27.6966 51.7727 27.0233 51.8394 26.2099V23.7499C51.7861 23.0699 51.5327 22.5166 51.0794 22.0899C50.6394 21.6499 50.1127 21.4299 49.4994 21.4299H48.1394C47.4327 21.4299 46.8661 21.6766 46.4394 22.1699C46.0127 22.6633 45.7994 23.3166 45.7994 24.1299V26.4699C45.7994 27.2166 45.9927 27.8299 46.3794 28.3099C46.7794 28.7766 47.2861 29.0099 47.8994 29.0099H49.3194ZM32.1467 58.4499C31.2267 58.4499 30.4134 58.2433 29.7067 57.8299C29.0001 57.4166 28.4467 56.8299 28.0467 56.0699C27.6601 55.3099 27.4667 54.4299 27.4667 53.4299V49.1499C27.4667 48.1499 27.6601 47.2699 28.0467 46.5099C28.4467 45.7499 29.0001 45.1633 29.7067 44.7499C30.4134 44.3366 31.2334 44.1299 32.1667 44.1299H34.2867C35.2201 44.1299 36.0401 44.3366 36.7467 44.7499C37.4534 45.1633 38.0001 45.7499 38.3867 46.5099C38.7867 47.2699 38.9867 48.1499 38.9867 49.1499V53.4299C38.9867 54.4299 38.7867 55.3099 38.3867 56.0699C38.0001 56.8166 37.4467 57.4033 36.7267 57.8299C36.0201 58.2433 35.2067 58.4499 34.2867 58.4499H32.1467ZM34.2467 57.1299C35.2201 57.1299 36.0067 56.7899 36.6067 56.1099C37.2067 55.4299 37.5067 54.5366 37.5067 53.4299V49.1499C37.5067 48.0433 37.2067 47.1499 36.6067 46.4699C36.0067 45.7899 35.2201 45.4499 34.2467 45.4499H32.2067C31.2334 45.4499 30.4467 45.7899 29.8467 46.4699C29.2467 47.1499 28.9467 48.0433 28.9467 49.1499V53.4299C28.9467 54.5366 29.2401 55.4299 29.8267 56.1099C30.4267 56.7899 31.2134 57.1299 32.1867 57.1299H34.2467ZM41.7925 44.2899H43.1925L50.9525 55.9499V44.2899H52.3925V58.2899H50.9925L43.2325 46.7099V58.2899H41.7925V44.2899Z" fill="url(#paint2_linear_734_280)"/>
<defs>
<linearGradient id="paint0_linear_734_280" x1="38.0596" y1="74.6295" x2="38.0596" y2="0.487503" gradientUnits="userSpaceOnUse">
<stop stop-color="#FCB433"/>
<stop offset="1" stop-color="#966B1E"/>
</linearGradient>
<linearGradient id="paint1_linear_734_280" x1="68.9387" y1="64.6377" x2="4.9706" y2="15.7732" gradientUnits="userSpaceOnUse">
<stop stop-color="#FCB433"/>
<stop offset="1" stop-color="#966B1E"/>
</linearGradient>
<linearGradient id="paint2_linear_734_280" x1="60.0239" y1="28.3853" x2="42.5626" y2="59.7411" gradientUnits="userSpaceOnUse">
<stop stop-color="#FCB433"/>
<stop offset="1" stop-color="#966B1E"/>
</linearGradient>
</defs>
</svg>
