<svg width="76" height="75" viewBox="0 0 76 75" fill="none" xmlns="http://www.w3.org/2000/svg">
<path d="M1.68066 37.5585C1.68066 52.8589 3.36413 61.7074 8.5314 66.832C11.1038 69.3831 14.6192 71.0891 19.4489 72.1536C24.2895 73.2205 30.3876 73.6295 38.0606 73.6295C45.7336 73.6295 51.8317 73.2205 56.6723 72.1536C61.5019 71.0891 65.0174 69.3831 67.5898 66.832C72.757 61.7074 74.4405 52.8589 74.4405 37.5585C74.4405 22.2581 72.757 13.4096 67.5898 8.28508C65.0174 5.73393 61.5019 4.02792 56.6723 2.96344C51.8317 1.89656 45.7336 1.48753 38.0606 1.48753C30.3876 1.48753 24.2895 1.89656 19.4489 2.96344C14.6192 4.02792 11.1038 5.73393 8.5314 8.28508C3.36413 13.4096 1.68066 22.2581 1.68066 37.5585Z" fill="url(#paint0_linear_734_278)" fill-opacity="0.1" stroke="url(#paint1_linear_734_278)" stroke-width="2" stroke-linecap="round" stroke-linejoin="round"/>
<path d="M24.7706 30.45C24.0106 30.45 23.344 30.2633 22.7706 29.89C22.1973 29.5033 21.7506 28.97 21.4306 28.29C21.1106 27.5966 20.9506 26.8033 20.9506 25.91H22.4306C22.4306 26.8833 22.644 27.6633 23.0706 28.25C23.4973 28.8366 24.064 29.13 24.7706 29.13H26.5106C27.2573 29.13 27.844 28.8233 28.2706 28.21C28.6973 27.5966 28.9106 26.7433 28.9106 25.65V16.29H30.3906V25.65C30.3906 27.1566 30.0506 28.3366 29.3706 29.19C28.6906 30.03 27.7373 30.45 26.5106 30.45H24.7706ZM36.6731 30.45C35.5531 30.45 34.6531 30.1033 33.9731 29.41C33.2931 28.7166 32.9531 27.8033 32.9531 26.67V23.93C32.9531 22.7966 33.2931 21.8833 33.9731 21.19C34.6665 20.4966 35.5798 20.15 36.7131 20.15H38.3531C39.4865 20.15 40.3931 20.4966 41.0731 21.19C41.7665 21.8833 42.1131 22.7966 42.1131 23.93V26.67C42.1131 27.8033 41.7665 28.7166 41.0731 29.41C40.3798 30.1033 39.4598 30.45 38.3131 30.45H36.6731ZM38.3131 29.17C39.0331 29.17 39.6065 28.9433 40.0331 28.49C40.4598 28.0233 40.6731 27.4166 40.6731 26.67V23.93C40.6731 23.1833 40.4598 22.5833 40.0331 22.13C39.6065 21.6633 39.0465 21.43 38.3531 21.43H36.7131C36.0198 21.43 35.4598 21.6633 35.0331 22.13C34.6065 22.5833 34.3931 23.1833 34.3931 23.93V26.67C34.3931 27.43 34.5998 28.0366 35.0131 28.49C35.4265 28.9433 35.9798 29.17 36.6731 29.17H38.3131ZM47.9994 34.35C47.1194 34.35 46.3927 34.11 45.8194 33.63C45.2461 33.1633 44.9261 32.5433 44.8594 31.77H46.2994C46.3527 32.17 46.5327 32.49 46.8394 32.73C47.1594 32.9833 47.5461 33.11 47.9994 33.11H49.6594C50.3527 33.11 50.8861 32.8766 51.2594 32.41C51.6461 31.9566 51.8394 31.3166 51.8394 30.49V28.95C51.5461 29.35 51.1594 29.6766 50.6794 29.93C50.2127 30.17 49.7594 30.29 49.3194 30.29H47.8594C47.1794 30.29 46.5727 30.13 46.0394 29.81C45.5061 29.49 45.0927 29.0433 44.7994 28.47C44.5061 27.8966 44.3594 27.23 44.3594 26.47V24.13C44.3594 22.9433 44.6994 21.9833 45.3794 21.25C46.0727 20.5166 46.9794 20.15 48.0994 20.15H49.4994C49.9261 20.15 50.3661 20.27 50.8194 20.51C51.2727 20.75 51.6261 21.0566 51.8794 21.43V20.31H53.2794V30.49C53.2794 31.7033 52.9594 32.65 52.3194 33.33C51.6794 34.01 50.7927 34.35 49.6594 34.35H47.9994ZM49.3194 29.01C49.9861 29.01 50.5527 28.75 51.0194 28.23C51.4994 27.6966 51.7727 27.0233 51.8394 26.21V23.75C51.7861 23.07 51.5327 22.5166 51.0794 22.09C50.6394 21.65 50.1127 21.43 49.4994 21.43H48.1394C47.4327 21.43 46.8661 21.6766 46.4394 22.17C46.0127 22.6633 45.7994 23.3166 45.7994 24.13V26.47C45.7994 27.2166 45.9927 27.83 46.3794 28.31C46.7794 28.7766 47.2861 29.01 47.8994 29.01H49.3194ZM32.1467 58.45C31.2267 58.45 30.4134 58.2433 29.7067 57.83C29.0001 57.4166 28.4467 56.83 28.0467 56.07C27.6601 55.31 27.4667 54.43 27.4667 53.43V49.15C27.4667 48.15 27.6601 47.27 28.0467 46.51C28.4467 45.75 29.0001 45.1633 29.7067 44.75C30.4134 44.3366 31.2334 44.13 32.1667 44.13H34.2867C35.2201 44.13 36.0401 44.3366 36.7467 44.75C37.4534 45.1633 38.0001 45.75 38.3867 46.51C38.7867 47.27 38.9867 48.15 38.9867 49.15V53.43C38.9867 54.43 38.7867 55.31 38.3867 56.07C38.0001 56.8166 37.4467 57.4033 36.7267 57.83C36.0201 58.2433 35.2067 58.45 34.2867 58.45H32.1467ZM34.2467 57.13C35.2201 57.13 36.0067 56.79 36.6067 56.11C37.2067 55.43 37.5067 54.5366 37.5067 53.43V49.15C37.5067 48.0433 37.2067 47.15 36.6067 46.47C36.0067 45.79 35.2201 45.45 34.2467 45.45H32.2067C31.2334 45.45 30.4467 45.79 29.8467 46.47C29.2467 47.15 28.9467 48.0433 28.9467 49.15V53.43C28.9467 54.5366 29.2401 55.43 29.8267 56.11C30.4267 56.79 31.2134 57.13 32.1867 57.13H34.2467ZM41.7925 44.29H43.1925L50.9525 55.95V44.29H52.3925V58.29H50.9925L43.2325 46.71V58.29H41.7925V44.29Z" fill="url(#paint2_linear_734_278)"/>
<defs>
<linearGradient id="paint0_linear_734_278" x1="38.0606" y1="74.6295" x2="38.0606" y2="0.487534" gradientUnits="userSpaceOnUse">
<stop stop-color="#FCB433"/>
<stop offset="1" stop-color="#966B1E"/>
</linearGradient>
<linearGradient id="paint1_linear_734_278" x1="68.9397" y1="64.6377" x2="4.97158" y2="15.7732" gradientUnits="userSpaceOnUse">
<stop stop-color="#FCB433"/>
<stop offset="1" stop-color="#966B1E"/>
</linearGradient>
<linearGradient id="paint2_linear_734_278" x1="60.0239" y1="28.3853" x2="42.5626" y2="59.7411" gradientUnits="userSpaceOnUse">
<stop stop-color="#FCB433"/>
<stop offset="1" stop-color="#966B1E"/>
</linearGradient>
</defs>
</svg>
