<svg width="76" height="75" viewBox="0 0 76 75" fill="none" xmlns="http://www.w3.org/2000/svg">
<path d="M1.68066 37.071C1.68066 52.3714 3.36413 61.2199 8.5314 66.3444C11.1038 68.8956 14.6192 70.6016 19.4489 71.6661C24.2895 72.7329 30.3876 73.142 38.0606 73.142C45.7336 73.142 51.8317 72.7329 56.6723 71.6661C61.5019 70.6016 65.0174 68.8956 67.5898 66.3444C72.757 61.2199 74.4405 52.3714 74.4405 37.071C74.4405 21.7706 72.757 12.9221 67.5898 7.79753C65.0174 5.24638 61.5019 3.54037 56.6723 2.47589C51.8317 1.40901 45.7336 0.999985 38.0606 0.999985C30.3876 0.999985 24.2895 1.40901 19.4489 2.47589C14.6192 3.54037 11.1038 5.24638 8.5314 7.79753C3.36413 12.9221 1.68066 21.7706 1.68066 37.071Z" fill="url(#paint0_linear_616_412)" fill-opacity="0.1" stroke="url(#paint1_linear_616_412)" stroke-width="2" stroke-linecap="round" stroke-linejoin="round"/>
<path d="M20.3407 44.4347C19.5407 44.4347 18.834 44.268 18.2207 43.9347C17.6073 43.588 17.1273 43.108 16.7807 42.4947C16.4473 41.868 16.2807 41.148 16.2807 40.3347H17.7207C17.7207 41.1613 17.9607 41.8347 18.4407 42.3547C18.934 42.8613 19.5807 43.1147 20.3807 43.1147H22.6007C23.3873 43.1147 24.0207 42.9413 24.5007 42.5947C24.9807 42.2347 25.2207 41.768 25.2207 41.1947V39.9147C25.2207 39.4613 25.0407 39.0747 24.6807 38.7547C24.334 38.4347 23.854 38.228 23.2407 38.1347L19.6407 37.5347C18.6273 37.3613 17.8407 37.0013 17.2807 36.4547C16.7207 35.908 16.4407 35.2213 16.4407 34.3947V33.3147C16.4407 32.3413 16.8007 31.568 17.5207 30.9947C18.254 30.408 19.2207 30.1147 20.4207 30.1147H22.6807C23.814 30.1147 24.7273 30.4613 25.4207 31.1547C26.114 31.8347 26.4607 32.7347 26.4607 33.8547H25.0207C25.0207 33.1213 24.8073 32.5347 24.3807 32.0947C23.954 31.6547 23.3873 31.4347 22.6807 31.4347H20.4207C19.6607 31.4347 19.054 31.608 18.6007 31.9547C18.1473 32.288 17.9207 32.7413 17.9207 33.3147V34.3947C17.9207 34.8613 18.0873 35.2547 18.4207 35.5747C18.7673 35.8947 19.2407 36.108 19.8407 36.2147L23.4207 36.8347C24.4607 37.0213 25.2673 37.3813 25.8407 37.9147C26.414 38.4347 26.7007 39.1013 26.7007 39.9147V41.1947C26.7007 42.168 26.3273 42.9547 25.5807 43.5547C24.834 44.1413 23.854 44.4347 22.6407 44.4347H20.3407ZM33.1397 44.2747C32.0864 44.2747 31.3264 44.048 30.8597 43.5947C30.4064 43.1413 30.1797 42.3947 30.1797 41.3547V35.5747H28.4197V34.2947H30.1797V31.2747H31.6197V34.2947H34.2197V35.5747H31.6197V41.3547C31.6197 41.9413 31.733 42.3613 31.9597 42.6147C32.1997 42.868 32.593 42.9947 33.1397 42.9947H34.2197V44.2747H33.1397ZM39.5021 44.4347C38.5287 44.4347 37.7487 44.1813 37.1621 43.6747C36.5887 43.168 36.3021 42.488 36.3021 41.6347V40.9947C36.3021 40.1547 36.6021 39.4813 37.2021 38.9747C37.8021 38.468 38.5954 38.2147 39.5821 38.2147H40.8621C41.3021 38.2147 41.7554 38.2813 42.2221 38.4147C42.6887 38.548 43.0887 38.728 43.4221 38.9547V37.2947C43.4221 36.7347 43.2487 36.2813 42.9021 35.9347C42.5554 35.5747 42.0954 35.3947 41.5221 35.3947H39.9221C39.3487 35.3947 38.8887 35.528 38.5421 35.7947C38.1954 36.0613 38.0221 36.4147 38.0221 36.8547H36.5821C36.5821 36.0413 36.8887 35.388 37.5021 34.8947C38.1154 34.388 38.9221 34.1347 39.9221 34.1347H41.5221C42.5087 34.1347 43.3021 34.428 43.9021 35.0147C44.5154 35.588 44.8221 36.348 44.8221 37.2947V44.2747H43.4621V42.8747C43.1554 43.3547 42.7487 43.7347 42.2421 44.0147C41.7487 44.2947 41.2354 44.4347 40.7021 44.4347H39.5021ZM40.7421 43.1747C41.3687 43.1747 41.9287 42.9813 42.4221 42.5947C42.9154 42.208 43.2487 41.6947 43.4221 41.0547V40.3147C43.1554 40.0613 42.7821 39.8613 42.3021 39.7147C41.8354 39.5547 41.3554 39.4747 40.8621 39.4747H39.5821C39.0354 39.4747 38.5887 39.6147 38.2421 39.8947C37.9087 40.1747 37.7421 40.5413 37.7421 40.9947V41.6347C37.7421 42.1013 37.9021 42.4747 38.2221 42.7547C38.5421 43.0347 38.9687 43.1747 39.5021 43.1747H40.7421ZM47.7353 34.2947H49.1353V35.8347C49.402 35.368 49.802 34.988 50.3353 34.6947C50.882 34.4013 51.4487 34.2547 52.0353 34.2547H52.9153V35.5547H52.0353C51.182 35.5547 50.4887 35.828 49.9553 36.3747C49.4353 36.908 49.1753 37.6213 49.1753 38.5147V44.2747H47.7353V34.2947ZM58.7647 44.2747C57.7114 44.2747 56.9514 44.048 56.4847 43.5947C56.0314 43.1413 55.8047 42.3947 55.8047 41.3547V35.5747H54.0447V34.2947H55.8047V31.2747H57.2447V34.2947H59.8447V35.5747H57.2447V41.3547C57.2447 41.9413 57.358 42.3613 57.5847 42.6147C57.8247 42.868 58.218 42.9947 58.7647 42.9947H59.8447V44.2747H58.7647Z" fill="url(#paint2_linear_616_412)"/>
<defs>
<linearGradient id="paint0_linear_616_412" x1="38.0606" y1="74.142" x2="38.0606" y2="-1.52588e-05" gradientUnits="userSpaceOnUse">
<stop stop-color="#FCB433"/>
<stop offset="1" stop-color="#966B1E"/>
</linearGradient>
<linearGradient id="paint1_linear_616_412" x1="68.9397" y1="64.1502" x2="4.97158" y2="15.2856" gradientUnits="userSpaceOnUse">
<stop stop-color="#FCB433"/>
<stop offset="1" stop-color="#966B1E"/>
</linearGradient>
<linearGradient id="paint2_linear_616_412" x1="60.2633" y1="32.0232" x2="53.5509" y2="53.0903" gradientUnits="userSpaceOnUse">
<stop stop-color="#FCB433"/>
<stop offset="1" stop-color="#966B1E"/>
</linearGradient>
</defs>
</svg>
