<svg width="76" height="75" viewBox="0 0 76 75" fill="none" xmlns="http://www.w3.org/2000/svg">
<path d="M1.67969 37.071C1.67969 52.3714 3.36315 61.2199 8.53043 66.3444C11.1028 68.8956 14.6183 70.6016 19.4479 71.6661C24.2885 72.7329 30.3866 73.142 38.0596 73.142C45.7326 73.142 51.8307 72.7329 56.6713 71.6661C61.5009 70.6016 65.0164 68.8956 67.5888 66.3444C72.7561 61.2199 74.4395 52.3714 74.4395 37.071C74.4395 21.7706 72.7561 12.9221 67.5888 7.79753C65.0164 5.24638 61.5009 3.54037 56.6713 2.47589C51.8307 1.40901 45.7326 0.999985 38.0596 0.999985C30.3866 0.999985 24.2885 1.40901 19.4479 2.47589C14.6183 3.54037 11.1028 5.24638 8.53043 7.79753C3.36315 12.9221 1.67969 21.7706 1.67969 37.071Z" fill="url(#paint0_linear_614_382)" fill-opacity="0.1" stroke="url(#paint1_linear_614_382)" stroke-width="2" stroke-linecap="round" stroke-linejoin="round"/>
<path d="M20.3397 44.4347C19.5397 44.4347 18.833 44.268 18.2197 43.9347C17.6063 43.588 17.1263 43.108 16.7797 42.4947C16.4463 41.868 16.2797 41.148 16.2797 40.3347H17.7197C17.7197 41.1613 17.9597 41.8347 18.4397 42.3547C18.933 42.8613 19.5797 43.1147 20.3797 43.1147H22.5997C23.3863 43.1147 24.0197 42.9413 24.4997 42.5947C24.9797 42.2347 25.2197 41.768 25.2197 41.1947V39.9147C25.2197 39.4613 25.0397 39.0747 24.6797 38.7547C24.333 38.4347 23.853 38.228 23.2397 38.1347L19.6397 37.5347C18.6263 37.3613 17.8397 37.0013 17.2797 36.4547C16.7197 35.908 16.4397 35.2213 16.4397 34.3947V33.3147C16.4397 32.3413 16.7997 31.568 17.5197 30.9947C18.253 30.408 19.2197 30.1147 20.4197 30.1147H22.6797C23.813 30.1147 24.7263 30.4613 25.4197 31.1547C26.113 31.8347 26.4597 32.7347 26.4597 33.8547H25.0197C25.0197 33.1213 24.8063 32.5347 24.3797 32.0947C23.953 31.6547 23.3863 31.4347 22.6797 31.4347H20.4197C19.6597 31.4347 19.053 31.608 18.5997 31.9547C18.1463 32.288 17.9197 32.7413 17.9197 33.3147V34.3947C17.9197 34.8613 18.0863 35.2547 18.4197 35.5747C18.7663 35.8947 19.2397 36.108 19.8397 36.2147L23.4197 36.8347C24.4597 37.0213 25.2663 37.3813 25.8397 37.9147C26.413 38.4347 26.6997 39.1013 26.6997 39.9147V41.1947C26.6997 42.168 26.3263 42.9547 25.5797 43.5547C24.833 44.1413 23.853 44.4347 22.6397 44.4347H20.3397ZM33.1387 44.2747C32.0854 44.2747 31.3254 44.048 30.8587 43.5947C30.4054 43.1413 30.1787 42.3947 30.1787 41.3547V35.5747H28.4187V34.2947H30.1787V31.2747H31.6187V34.2947H34.2187V35.5747H31.6187V41.3547C31.6187 41.9413 31.7321 42.3613 31.9587 42.6147C32.1987 42.868 32.5921 42.9947 33.1387 42.9947H34.2187V44.2747H33.1387ZM39.5011 44.4347C38.5277 44.4347 37.7477 44.1813 37.1611 43.6747C36.5877 43.168 36.3011 42.488 36.3011 41.6347V40.9947C36.3011 40.1547 36.6011 39.4813 37.2011 38.9747C37.8011 38.468 38.5944 38.2147 39.5811 38.2147H40.8611C41.3011 38.2147 41.7544 38.2813 42.2211 38.4147C42.6877 38.548 43.0877 38.728 43.4211 38.9547V37.2947C43.4211 36.7347 43.2477 36.2813 42.9011 35.9347C42.5544 35.5747 42.0944 35.3947 41.5211 35.3947H39.9211C39.3477 35.3947 38.8877 35.528 38.5411 35.7947C38.1944 36.0613 38.0211 36.4147 38.0211 36.8547H36.5811C36.5811 36.0413 36.8877 35.388 37.5011 34.8947C38.1144 34.388 38.9211 34.1347 39.9211 34.1347H41.5211C42.5077 34.1347 43.3011 34.428 43.9011 35.0147C44.5144 35.588 44.8211 36.348 44.8211 37.2947V44.2747H43.4611V42.8747C43.1544 43.3547 42.7477 43.7347 42.2411 44.0147C41.7477 44.2947 41.2344 44.4347 40.7011 44.4347H39.5011ZM40.7411 43.1747C41.3677 43.1747 41.9277 42.9813 42.4211 42.5947C42.9144 42.208 43.2477 41.6947 43.4211 41.0547V40.3147C43.1544 40.0613 42.7811 39.8613 42.3011 39.7147C41.8344 39.5547 41.3544 39.4747 40.8611 39.4747H39.5811C39.0344 39.4747 38.5877 39.6147 38.2411 39.8947C37.9077 40.1747 37.7411 40.5413 37.7411 40.9947V41.6347C37.7411 42.1013 37.9011 42.4747 38.2211 42.7547C38.5411 43.0347 38.9677 43.1747 39.5011 43.1747H40.7411ZM47.7344 34.2947H49.1344V35.8347C49.401 35.368 49.801 34.988 50.3344 34.6947C50.881 34.4013 51.4477 34.2547 52.0344 34.2547H52.9144V35.5547H52.0344C51.181 35.5547 50.4877 35.828 49.9544 36.3747C49.4344 36.908 49.1744 37.6213 49.1744 38.5147V44.2747H47.7344V34.2947ZM58.7637 44.2747C57.7104 44.2747 56.9504 44.048 56.4837 43.5947C56.0304 43.1413 55.8037 42.3947 55.8037 41.3547V35.5747H54.0437V34.2947H55.8037V31.2747H57.2437V34.2947H59.8437V35.5747H57.2437V41.3547C57.2437 41.9413 57.3571 42.3613 57.5837 42.6147C57.8237 42.868 58.2171 42.9947 58.7637 42.9947H59.8437V44.2747H58.7637Z" fill="url(#paint2_linear_614_382)"/>
<defs>
<linearGradient id="paint0_linear_614_382" x1="38.0596" y1="74.142" x2="38.0596" y2="-1.52588e-05" gradientUnits="userSpaceOnUse">
<stop stop-color="#FCB433"/>
<stop offset="1" stop-color="#966B1E"/>
</linearGradient>
<linearGradient id="paint1_linear_614_382" x1="68.9387" y1="64.1502" x2="4.9706" y2="15.2856" gradientUnits="userSpaceOnUse">
<stop stop-color="#FCB433"/>
<stop offset="1" stop-color="#966B1E"/>
</linearGradient>
<linearGradient id="paint2_linear_614_382" x1="60.2624" y1="32.0232" x2="53.55" y2="53.0903" gradientUnits="userSpaceOnUse">
<stop stop-color="#FCB433"/>
<stop offset="1" stop-color="#966B1E"/>
</linearGradient>
</defs>
</svg>
