<svg width="76" height="75" viewBox="0 0 76 75" fill="none" xmlns="http://www.w3.org/2000/svg">
<path d="M1.57617 37.5585C1.57617 52.8589 3.25964 61.7074 8.42691 66.832C10.9993 69.3831 14.5148 71.0891 19.3444 72.1536C24.185 73.2205 30.2831 73.6295 37.9561 73.6295C45.6291 73.6295 51.7272 73.2205 56.5678 72.1536C61.3974 71.0891 64.9129 69.3831 67.4853 66.832C72.6525 61.7074 74.336 52.8589 74.336 37.5585C74.336 22.2581 72.6525 13.4097 67.4853 8.28509C64.9129 5.73394 61.3974 4.02793 56.5678 2.96345C51.7272 1.89657 45.6291 1.48754 37.9561 1.48754C30.2831 1.48754 24.185 1.89657 19.3444 2.96345C14.5148 4.02793 10.9993 5.73394 8.42691 8.28509C3.25964 13.4097 1.57617 22.2581 1.57617 37.5585Z" fill="url(#paint0_linear_615_392)" fill-opacity="0.1" stroke="url(#paint1_linear_615_392)" stroke-width="2" stroke-linecap="round" stroke-linejoin="round"/>
<path d="M25.2523 30.8558C24.4923 30.8558 23.8256 30.6692 23.2523 30.2958C22.6789 29.9092 22.2323 29.3758 21.9123 28.6958C21.5923 28.0025 21.4323 27.2092 21.4323 26.3158H22.9123C22.9123 27.2892 23.1256 28.0692 23.5523 28.6558C23.9789 29.2425 24.5456 29.5358 25.2523 29.5358H26.9923C27.7389 29.5358 28.3256 29.2292 28.7523 28.6158C29.1789 28.0025 29.3923 27.1492 29.3923 26.0558V16.6958H30.8723V26.0558C30.8723 27.5625 30.5323 28.7425 29.8523 29.5958C29.1723 30.4358 28.2189 30.8558 26.9923 30.8558H25.2523ZM37.1548 30.8558C36.0348 30.8558 35.1348 30.5092 34.4548 29.8158C33.7748 29.1225 33.4348 28.2092 33.4348 27.0758V24.3358C33.4348 23.2025 33.7748 22.2892 34.4548 21.5958C35.1481 20.9025 36.0614 20.5558 37.1948 20.5558H38.8348C39.9681 20.5558 40.8748 20.9025 41.5548 21.5958C42.2481 22.2892 42.5948 23.2025 42.5948 24.3358V27.0758C42.5948 28.2092 42.2481 29.1225 41.5548 29.8158C40.8614 30.5092 39.9414 30.8558 38.7948 30.8558H37.1548ZM38.7948 29.5758C39.5148 29.5758 40.0881 29.3492 40.5148 28.8958C40.9414 28.4292 41.1548 27.8225 41.1548 27.0758V24.3358C41.1548 23.5892 40.9414 22.9892 40.5148 22.5358C40.0881 22.0692 39.5281 21.8358 38.8348 21.8358H37.1948C36.5014 21.8358 35.9414 22.0692 35.5148 22.5358C35.0881 22.9892 34.8748 23.5892 34.8748 24.3358V27.0758C34.8748 27.8358 35.0814 28.4425 35.4948 28.8958C35.9081 29.3492 36.4614 29.5758 37.1548 29.5758H38.7948ZM48.481 34.7558C47.601 34.7558 46.8743 34.5158 46.301 34.0358C45.7277 33.5692 45.4077 32.9492 45.341 32.1758H46.781C46.8343 32.5758 47.0143 32.8958 47.321 33.1358C47.641 33.3892 48.0277 33.5158 48.481 33.5158H50.141C50.8343 33.5158 51.3677 33.2825 51.741 32.8158C52.1277 32.3625 52.321 31.7225 52.321 30.8958V29.3558C52.0277 29.7558 51.641 30.0825 51.161 30.3358C50.6943 30.5758 50.241 30.6958 49.801 30.6958H48.341C47.661 30.6958 47.0543 30.5358 46.521 30.2158C45.9877 29.8958 45.5743 29.4492 45.281 28.8758C44.9877 28.3025 44.841 27.6358 44.841 26.8758V24.5358C44.841 23.3492 45.181 22.3892 45.861 21.6558C46.5543 20.9225 47.461 20.5558 48.581 20.5558H49.981C50.4077 20.5558 50.8477 20.6758 51.301 20.9158C51.7543 21.1558 52.1077 21.4625 52.361 21.8358V20.7158H53.761V30.8958C53.761 32.1092 53.441 33.0558 52.801 33.7358C52.161 34.4158 51.2743 34.7558 50.141 34.7558H48.481ZM49.801 29.4158C50.4677 29.4158 51.0343 29.1558 51.501 28.6358C51.981 28.1025 52.2543 27.4292 52.321 26.6158V24.1558C52.2677 23.4758 52.0143 22.9225 51.561 22.4958C51.121 22.0558 50.5943 21.8358 49.981 21.8358H48.621C47.9143 21.8358 47.3477 22.0825 46.921 22.5758C46.4943 23.0692 46.281 23.7225 46.281 24.5358V26.8758C46.281 27.6225 46.4743 28.2358 46.861 28.7158C47.261 29.1825 47.7677 29.4158 48.381 29.4158H49.801ZM25.4115 58.8558C24.4915 58.8558 23.6782 58.6492 22.9715 58.2358C22.2649 57.8225 21.7115 57.2358 21.3115 56.4758C20.9249 55.7158 20.7315 54.8358 20.7315 53.8358V49.5558C20.7315 48.5558 20.9249 47.6758 21.3115 46.9158C21.7115 46.1558 22.2649 45.5692 22.9715 45.1558C23.6782 44.7425 24.4982 44.5358 25.4315 44.5358H27.5515C28.4849 44.5358 29.3049 44.7425 30.0116 45.1558C30.7182 45.5692 31.2649 46.1558 31.6515 46.9158C32.0515 47.6758 32.2516 48.5558 32.2516 49.5558V53.8358C32.2516 54.8358 32.0515 55.7158 31.6515 56.4758C31.2649 57.2225 30.7115 57.8092 29.9915 58.2358C29.2849 58.6492 28.4715 58.8558 27.5515 58.8558H25.4115ZM27.5115 57.5358C28.4849 57.5358 29.2716 57.1958 29.8715 56.5158C30.4716 55.8358 30.7716 54.9425 30.7716 53.8358V49.5558C30.7716 48.4492 30.4716 47.5558 29.8715 46.8758C29.2716 46.1958 28.4849 45.8558 27.5115 45.8558H25.4715C24.4982 45.8558 23.7115 46.1958 23.1115 46.8758C22.5115 47.5558 22.2115 48.4492 22.2115 49.5558V53.8358C22.2115 54.9425 22.5049 55.8358 23.0915 56.5158C23.6915 57.1958 24.4782 57.5358 25.4515 57.5358H27.5115ZM35.0573 44.6958H44.2573V46.0158H36.5373V51.1358H43.5173V52.4558H36.5373V58.6958H35.0573V44.6958ZM46.5808 44.6958H55.7808V46.0158H48.0608V51.1358H55.0408V52.4558H48.0608V58.6958H46.5808V44.6958Z" fill="url(#paint2_linear_615_392)"/>
<defs>
<linearGradient id="paint0_linear_615_392" x1="37.9561" y1="74.6295" x2="37.9561" y2="0.487541" gradientUnits="userSpaceOnUse">
<stop stop-color="#FCB433"/>
<stop offset="1" stop-color="#966B1E"/>
</linearGradient>
<linearGradient id="paint1_linear_615_392" x1="68.8352" y1="64.6377" x2="4.86708" y2="15.7732" gradientUnits="userSpaceOnUse">
<stop stop-color="#FCB433"/>
<stop offset="1" stop-color="#966B1E"/>
</linearGradient>
<linearGradient id="paint2_linear_615_392" x1="60.3733" y1="28.7933" x2="42.8399" y2="60.0724" gradientUnits="userSpaceOnUse">
<stop stop-color="#FCB433"/>
<stop offset="1" stop-color="#966B1E"/>
</linearGradient>
</defs>
</svg>
