<svg width="258" height="49" viewBox="0 0 258 49" fill="none" xmlns="http://www.w3.org/2000/svg">
<path opacity="0.4" d="M67.1261 18.4H73.0481C73.9361 18.4 74.6501 18.646 75.1901 19.138C75.7301 19.618 76.0001 20.26 76.0001 21.064V23.062C76.0001 23.938 75.7121 24.646 75.1361 25.186C74.5601 25.714 73.7981 25.978 72.8501 25.978H68.1161V31H67.1261V18.4ZM72.8321 25.078C73.4921 25.078 74.0201 24.892 74.4161 24.52C74.8121 24.148 75.0101 23.656 75.0101 23.044V21.046C75.0101 20.518 74.8241 20.092 74.4521 19.768C74.0921 19.444 73.6181 19.282 73.0301 19.282H68.1161V25.078H72.8321ZM78.1635 22.018H79.0995V23.476C79.3635 23.02 79.7415 22.66 80.2335 22.396C80.7255 22.12 81.2535 21.982 81.8175 21.982H82.4835V22.846H81.7995C81.0195 22.846 80.3775 23.098 79.8735 23.602C79.3815 24.106 79.1355 24.76 79.1355 25.564V31H78.1635V22.018ZM86.9841 31.144C86.0241 31.144 85.2501 30.844 84.6621 30.244C84.0741 29.632 83.7801 28.834 83.7801 27.85V25.168C83.7801 24.184 84.0741 23.392 84.6621 22.792C85.2621 22.18 86.0481 21.874 87.0201 21.874H88.4421C89.4141 21.874 90.1941 22.18 90.7821 22.792C91.3821 23.392 91.6821 24.184 91.6821 25.168V27.85C91.6821 28.834 91.3821 29.632 90.7821 30.244C90.1821 30.844 89.3901 31.144 88.4061 31.144H86.9841ZM88.4061 30.28C89.1021 30.28 89.6601 30.058 90.0801 29.614C90.5121 29.17 90.7281 28.582 90.7281 27.85V25.168C90.7281 24.436 90.5181 23.848 90.0981 23.404C89.6781 22.96 89.1261 22.738 88.4421 22.738H87.0201C86.3361 22.738 85.7841 22.96 85.3641 23.404C84.9561 23.848 84.7521 24.436 84.7521 25.168V27.85C84.7521 28.582 84.9561 29.17 85.3641 29.614C85.7721 30.058 86.3121 30.28 86.9841 30.28H88.4061ZM96.9106 31.144C96.0226 31.144 95.3026 30.838 94.7506 30.226C94.1986 29.602 93.9226 28.786 93.9226 27.778V25.366C93.9226 24.322 94.2106 23.482 94.7866 22.846C95.3746 22.198 96.1426 21.874 97.0906 21.874H98.4586C98.8786 21.874 99.2866 21.988 99.6826 22.216C100.091 22.432 100.415 22.726 100.655 23.098V18.4H101.609V31H100.673V29.488C100.373 30.004 100.001 30.412 99.5566 30.712C99.1246 31 98.6686 31.144 98.1886 31.144H96.9106ZM98.1706 30.28C98.7346 30.28 99.2566 30.034 99.7366 29.542C100.217 29.038 100.523 28.432 100.655 27.724V24.808C100.535 24.196 100.271 23.698 99.8626 23.314C99.4546 22.93 98.9806 22.738 98.4406 22.738H97.1086C96.4366 22.738 95.8966 22.978 95.4886 23.458C95.0926 23.938 94.8946 24.574 94.8946 25.366V27.778C94.8946 28.522 95.0806 29.128 95.4526 29.596C95.8366 30.052 96.3286 30.28 96.9286 30.28H98.1706ZM107.086 31.144C106.306 31.144 105.67 30.88 105.178 30.352C104.686 29.812 104.44 29.104 104.44 28.228V22.018H105.412V28.246C105.412 28.846 105.562 29.338 105.862 29.722C106.174 30.094 106.582 30.28 107.086 30.28H108.202C108.55 30.28 108.904 30.166 109.264 29.938C109.624 29.71 109.942 29.404 110.218 29.02C110.494 28.624 110.68 28.21 110.776 27.778V22.018H111.73V31H110.794V29.38C110.494 29.896 110.104 30.322 109.624 30.658C109.144 30.982 108.682 31.144 108.238 31.144H107.086ZM117.445 31.144C116.509 31.144 115.753 30.856 115.177 30.28C114.613 29.692 114.331 28.924 114.331 27.976V25.204C114.331 24.208 114.613 23.404 115.177 22.792C115.753 22.18 116.503 21.874 117.427 21.874H118.903C119.779 21.874 120.481 22.114 121.009 22.594C121.549 23.074 121.819 23.704 121.819 24.484H120.883C120.883 23.956 120.697 23.536 120.325 23.224C119.965 22.9 119.491 22.738 118.903 22.738H117.427C116.791 22.738 116.275 22.966 115.879 23.422C115.495 23.866 115.303 24.46 115.303 25.204V27.976C115.303 28.672 115.495 29.23 115.879 29.65C116.275 30.07 116.797 30.28 117.445 30.28H118.921C119.521 30.28 120.007 30.07 120.379 29.65C120.751 29.23 120.937 28.678 120.937 27.994H121.873C121.873 28.942 121.603 29.704 121.063 30.28C120.523 30.856 119.809 31.144 118.921 31.144H117.445ZM127.568 31C126.656 31 126.002 30.808 125.606 30.424C125.21 30.028 125.012 29.38 125.012 28.48V22.882H123.428V22.018H125.012V19.3H125.966V22.018H128.306V22.882H125.966V28.48C125.966 29.068 126.086 29.494 126.326 29.758C126.566 30.01 126.968 30.136 127.532 30.136H128.306V31H127.568Z" fill="url(#paint0_linear_734_276)"/>
<path d="M257.5 48.0001L39 48C20.4469 48 7.86421 29.1259 15 12L20 4.02722e-05" stroke="url(#paint1_linear_734_276)"/>
<defs>
<linearGradient id="paint0_linear_734_276" x1="34.3356" y1="6.24657" x2="50.9795" y2="71.0549" gradientUnits="userSpaceOnUse">
<stop stop-color="#727272"/>
<stop offset="1" stop-color="white"/>
</linearGradient>
<linearGradient id="paint1_linear_734_276" x1="267.5" y1="48" x2="248.681" y2="-43.2226" gradientUnits="userSpaceOnUse">
<stop stop-color="#727272" stop-opacity="0"/>
<stop offset="1" stop-color="white"/>
</linearGradient>
</defs>
</svg>
