<svg width="98" height="17" viewBox="0 0 98 17" fill="none" xmlns="http://www.w3.org/2000/svg">
<path d="M0.51657 0.399999H6.83457C7.80657 0.399999 8.58657 0.675999 9.17457 1.228C9.77457 1.768 10.0746 2.482 10.0746 3.37V4.666C10.0746 5.29 9.87657 5.842 9.48057 6.322C9.09657 6.802 8.56857 7.15 7.89657 7.366V7.384C8.60457 7.804 9.13257 8.572 9.48057 9.688L10.4706 13H8.70657L7.73457 9.76C7.56657 9.196 7.29657 8.752 6.92457 8.428C6.56457 8.104 6.15057 7.942 5.68257 7.942H2.22657V13H0.51657V0.399999ZM6.36657 6.43C6.96657 6.43 7.44657 6.268 7.80657 5.944C8.17857 5.62 8.36457 5.194 8.36457 4.666V3.352C8.36457 2.92 8.22057 2.572 7.93257 2.308C7.64457 2.044 7.26657 1.912 6.79857 1.912H2.22657V6.43H6.36657ZM15.4598 13.144C14.4038 13.144 13.5518 12.844 12.9038 12.244C12.2678 11.632 11.9498 10.834 11.9498 9.85V7.366C11.9498 6.31 12.2678 5.464 12.9038 4.828C13.5518 4.192 14.4038 3.874 15.4598 3.874H16.9358C17.9558 3.874 18.7778 4.186 19.4018 4.81C20.0258 5.434 20.3378 6.262 20.3378 7.294V8.986H13.6238V9.85C13.6238 10.402 13.7918 10.846 14.1278 11.182C14.4638 11.518 14.9078 11.686 15.4598 11.686H16.8458C17.3858 11.686 17.8238 11.548 18.1598 11.272C18.4958 10.984 18.6638 10.606 18.6638 10.138H20.3018C20.3018 11.038 19.9838 11.764 19.3478 12.316C18.7118 12.868 17.8718 13.144 16.8278 13.144H15.4598ZM18.6638 7.654V7.294C18.6638 6.694 18.5018 6.214 18.1778 5.854C17.8658 5.494 17.4518 5.314 16.9358 5.314H15.4598C14.9078 5.314 14.4638 5.506 14.1278 5.89C13.7918 6.262 13.6238 6.76 13.6238 7.384V7.654H18.6638ZM23.7136 2.83C23.3656 2.83 23.0836 2.728 22.8676 2.524C22.6516 2.308 22.5436 2.032 22.5436 1.696C22.5436 1.36 22.6516 1.09 22.8676 0.885999C23.0836 0.669999 23.3656 0.561999 23.7136 0.561999C24.0616 0.561999 24.3376 0.669999 24.5416 0.885999C24.7576 1.09 24.8656 1.36 24.8656 1.696C24.8656 2.032 24.7576 2.308 24.5416 2.524C24.3376 2.728 24.0616 2.83 23.7136 2.83ZM20.4916 15.124H21.2836C21.8476 15.124 22.2496 14.962 22.4896 14.638C22.7416 14.326 22.8676 13.816 22.8676 13.108V4.018H24.5416V13.018C24.5416 14.266 24.2836 15.172 23.7676 15.736C23.2636 16.3 22.4356 16.582 21.2836 16.582H20.4916V15.124ZM30.5418 13.144C29.4858 13.144 28.6338 12.844 27.9858 12.244C27.3498 11.632 27.0318 10.834 27.0318 9.85V7.366C27.0318 6.31 27.3498 5.464 27.9858 4.828C28.6338 4.192 29.4858 3.874 30.5418 3.874H32.0178C33.0378 3.874 33.8598 4.186 34.4838 4.81C35.1078 5.434 35.4198 6.262 35.4198 7.294V8.986H28.7058V9.85C28.7058 10.402 28.8738 10.846 29.2098 11.182C29.5458 11.518 29.9898 11.686 30.5418 11.686H31.9278C32.4678 11.686 32.9058 11.548 33.2418 11.272C33.5778 10.984 33.7458 10.606 33.7458 10.138H35.3838C35.3838 11.038 35.0658 11.764 34.4298 12.316C33.7938 12.868 32.9538 13.144 31.9098 13.144H30.5418ZM33.7458 7.654V7.294C33.7458 6.694 33.5838 6.214 33.2598 5.854C32.9478 5.494 32.5338 5.314 32.0178 5.314H30.5418C29.9898 5.314 29.5458 5.506 29.2098 5.89C28.8738 6.262 28.7058 6.76 28.7058 7.384V7.654H33.7458ZM40.5777 13.144C39.5457 13.144 38.7117 12.838 38.0757 12.226C37.4397 11.602 37.1217 10.786 37.1217 9.778V7.366C37.1217 6.31 37.4337 5.464 38.0577 4.828C38.6937 4.192 39.5277 3.874 40.5597 3.874H42.0177C43.0017 3.874 43.7937 4.15 44.3937 4.702C44.9937 5.254 45.2937 5.986 45.2937 6.898H43.6377C43.6377 6.43 43.4877 6.058 43.1877 5.782C42.8997 5.494 42.5097 5.35 42.0177 5.35H40.5777C40.0497 5.35 39.6177 5.542 39.2817 5.926C38.9577 6.298 38.7957 6.796 38.7957 7.42V9.724C38.7957 10.312 38.9637 10.786 39.2997 11.146C39.6357 11.494 40.0677 11.668 40.5957 11.668H42.0357C42.5397 11.668 42.9417 11.494 43.2417 11.146C43.5537 10.786 43.7097 10.312 43.7097 9.724H45.3657C45.3657 10.744 45.0597 11.572 44.4477 12.208C43.8357 12.832 43.0317 13.144 42.0357 13.144H40.5777ZM50.8564 13C49.8724 13 49.1584 12.784 48.7144 12.352C48.2824 11.92 48.0664 11.224 48.0664 10.264V5.476H46.4824V4.018H48.0844V1.3H49.7404V4.018H52.0804V5.476H49.7404V10.228C49.7404 10.696 49.8304 11.032 50.0104 11.236C50.2024 11.44 50.5084 11.542 50.9284 11.542H52.0804V13H50.8564ZM61.9656 13.144C61.2456 13.144 60.6096 12.97 60.0576 12.622C59.5056 12.262 59.0736 11.764 58.7616 11.128C58.4616 10.48 58.3116 9.736 58.3116 8.896H60.0216C60.0216 9.712 60.1956 10.372 60.5436 10.876C60.9036 11.368 61.3776 11.614 61.9656 11.614H63.4776C64.0896 11.614 64.5756 11.356 64.9356 10.84C65.2956 10.324 65.4756 9.616 65.4756 8.716V0.399999H67.1856V8.752C67.1856 10.108 66.8556 11.182 66.1956 11.974C65.5476 12.754 64.6536 13.144 63.5136 13.144H61.9656ZM72.3141 13.144C71.4141 13.144 70.6941 12.916 70.1541 12.46C69.6141 11.992 69.3441 11.374 69.3441 10.606V10.012C69.3441 9.256 69.6261 8.65 70.1901 8.194C70.7541 7.726 71.4921 7.492 72.4041 7.492H73.5381C73.8981 7.492 74.2821 7.546 74.6901 7.654C75.0981 7.762 75.4461 7.912 75.7341 8.104V6.79C75.7341 6.346 75.5961 5.992 75.3201 5.728C75.0441 5.452 74.6841 5.314 74.2401 5.314H72.7641C72.3081 5.314 71.9421 5.422 71.6661 5.638C71.3901 5.854 71.2521 6.136 71.2521 6.484H69.5961C69.5961 5.704 69.8841 5.074 70.4601 4.594C71.0481 4.114 71.8161 3.874 72.7641 3.874H74.2401C75.1881 3.874 75.9501 4.144 76.5261 4.684C77.1021 5.212 77.3901 5.914 77.3901 6.79V13H75.8241V11.794C75.5481 12.202 75.1881 12.532 74.7441 12.784C74.3001 13.024 73.8501 13.144 73.3941 13.144H72.3141ZM73.4841 11.758C74.0121 11.758 74.4801 11.608 74.8881 11.308C75.2961 10.996 75.5781 10.582 75.7341 10.066V9.526C75.5061 9.322 75.1941 9.16 74.7981 9.04C74.4021 8.92 73.9941 8.86 73.5741 8.86H72.4221C72.0021 8.86 71.6601 8.968 71.3961 9.184C71.1321 9.4 71.0001 9.688 71.0001 10.048V10.588C71.0001 10.948 71.1261 11.236 71.3781 11.452C71.6421 11.656 71.9901 11.758 72.4221 11.758H73.4841ZM82.9058 13.144C81.8738 13.144 81.0398 12.838 80.4038 12.226C79.7678 11.602 79.4498 10.786 79.4498 9.778V7.366C79.4498 6.31 79.7618 5.464 80.3858 4.828C81.0218 4.192 81.8558 3.874 82.8878 3.874H84.3458C85.3298 3.874 86.1218 4.15 86.7218 4.702C87.3218 5.254 87.6218 5.986 87.6218 6.898H85.9658C85.9658 6.43 85.8158 6.058 85.5158 5.782C85.2278 5.494 84.8378 5.35 84.3458 5.35H82.9058C82.3778 5.35 81.9458 5.542 81.6098 5.926C81.2858 6.298 81.1238 6.796 81.1238 7.42V9.724C81.1238 10.312 81.2918 10.786 81.6278 11.146C81.9638 11.494 82.3958 11.668 82.9238 11.668H84.3638C84.8678 11.668 85.2698 11.494 85.5698 11.146C85.8818 10.786 86.0378 10.312 86.0378 9.724H87.6938C87.6938 10.744 87.3878 11.572 86.7758 12.208C86.1638 12.832 85.3598 13.144 84.3638 13.144H82.9058ZM95.7208 13L92.4448 8.968L91.2748 10.12V13H89.6008V0.399999H91.2748V8.14L95.4328 4.018H97.4308L93.5428 7.87L97.6648 13H95.7208Z" fill="white"/>
</svg>
