<svg width="71" height="15" viewBox="0 0 71 15" fill="none" xmlns="http://www.w3.org/2000/svg">
<path d="M0.731982 0.666076H7.33198C8.30532 0.666076 9.08532 0.939409 9.67198 1.48608C10.2586 2.01941 10.552 2.73274 10.552 3.62608V5.18608C10.552 5.89274 10.3253 6.51941 9.87198 7.06608C9.41865 7.59941 8.81198 7.96608 8.05198 8.16608V8.18608C8.45198 8.38608 8.81198 8.71274 9.13198 9.16608C9.45198 9.61941 9.69865 10.1527 9.87198 10.7661L10.992 14.6661H9.87198L8.75198 10.7661C8.53865 10.0594 8.19865 9.49941 7.73198 9.08608C7.27865 8.67274 6.75865 8.46608 6.17198 8.46608H1.83198V14.6661H0.731982V0.666076ZM6.83198 7.48608C7.61865 7.48608 8.25198 7.27941 8.73198 6.86608C9.21198 6.43941 9.45198 5.87941 9.45198 5.18608V3.58608C9.45198 2.99941 9.25865 2.53274 8.87198 2.18608C8.48532 1.82608 7.96532 1.64608 7.31198 1.64608H1.83198V7.48608H6.83198ZM16.6235 14.8261C15.5702 14.8261 14.7169 14.5061 14.0635 13.8661C13.4235 13.2261 13.1035 12.3794 13.1035 11.3261V8.22608C13.1035 7.11941 13.4235 6.22608 14.0635 5.54608C14.7169 4.86608 15.5702 4.52608 16.6235 4.52608H18.2635C19.2769 4.52608 20.0902 4.85941 20.7035 5.52608C21.3302 6.17941 21.6435 7.05274 21.6435 8.14608V9.82608H14.1835V11.3261C14.1835 12.0861 14.4035 12.6994 14.8435 13.1661C15.2969 13.6327 15.8902 13.8661 16.6235 13.8661H18.1435C18.8635 13.8661 19.4435 13.6594 19.8835 13.2461C20.3369 12.8194 20.5635 12.2661 20.5635 11.5861H21.6035C21.6035 12.5594 21.2835 13.3461 20.6435 13.9461C20.0169 14.5327 19.1835 14.8261 18.1435 14.8261H16.6235ZM20.5835 8.90608V8.14608C20.5835 7.34608 20.3702 6.70608 19.9435 6.22608C19.5169 5.73274 18.9569 5.48608 18.2635 5.48608H16.6235C15.8902 5.48608 15.2969 5.73941 14.8435 6.24608C14.4035 6.75274 14.1835 7.41274 14.1835 8.22608V8.90608H20.5835ZM27.682 14.6661C27.442 14.6661 27.242 14.6061 27.082 14.4861C26.9353 14.3527 26.8086 14.1461 26.702 13.8661L23.202 4.68608H24.342L27.622 13.5261H27.642L30.922 4.68608H32.042L28.202 14.6661H27.682ZM37.0142 14.8261C35.9608 14.8261 35.1075 14.5061 34.4542 13.8661C33.8142 13.2261 33.4942 12.3794 33.4942 11.3261V8.22608C33.4942 7.11941 33.8142 6.22608 34.4542 5.54608C35.1075 4.86608 35.9608 4.52608 37.0142 4.52608H38.6542C39.6675 4.52608 40.4808 4.85941 41.0942 5.52608C41.7208 6.17941 42.0342 7.05274 42.0342 8.14608V9.82608H34.5742V11.3261C34.5742 12.0861 34.7942 12.6994 35.2342 13.1661C35.6875 13.6327 36.2808 13.8661 37.0142 13.8661H38.5342C39.2542 13.8661 39.8342 13.6594 40.2742 13.2461C40.7275 12.8194 40.9542 12.2661 40.9542 11.5861H41.9942C41.9942 12.5594 41.6742 13.3461 41.0342 13.9461C40.4075 14.5327 39.5742 14.8261 38.5342 14.8261H37.0142ZM40.9742 8.90608V8.14608C40.9742 7.34608 40.7608 6.70608 40.3342 6.22608C39.9075 5.73274 39.3475 5.48608 38.6542 5.48608H37.0142C36.2808 5.48608 35.6875 5.73941 35.2342 6.24608C34.7942 6.75274 34.5742 7.41274 34.5742 8.22608V8.90608H40.9742ZM44.7926 4.68608H45.8326V6.30608C46.1259 5.79941 46.5459 5.39941 47.0926 5.10608C47.6393 4.79941 48.2259 4.64608 48.8526 4.64608H49.5926V5.60608H48.8326C47.9659 5.60608 47.2526 5.88608 46.6926 6.44608C46.1459 7.00608 45.8726 7.73274 45.8726 8.62608V14.6661H44.7926V4.68608ZM54.3857 14.8261C53.4391 14.8261 52.6724 14.5527 52.0857 14.0061C51.5124 13.4461 51.2257 12.7127 51.2257 11.8061H52.2657C52.2657 12.4194 52.4591 12.9194 52.8457 13.3061C53.2457 13.6927 53.7591 13.8861 54.3857 13.8861H56.1057C56.7591 13.8861 57.2791 13.7527 57.6657 13.4861C58.0657 13.2194 58.2657 12.8727 58.2657 12.4461V11.6661C58.2657 11.3727 58.1524 11.1127 57.9257 10.8861C57.7124 10.6594 57.4324 10.5127 57.0857 10.4461L53.6057 9.84608C52.9524 9.73941 52.4257 9.49274 52.0257 9.10608C51.6391 8.70608 51.4457 8.23941 51.4457 7.70608V7.02608C51.4457 6.27941 51.7191 5.67941 52.2657 5.22608C52.8257 4.75941 53.5591 4.52608 54.4657 4.52608H56.1657C57.0457 4.52608 57.7524 4.77941 58.2857 5.28608C58.8324 5.79274 59.1057 6.45941 59.1057 7.28608H58.0657C58.0391 6.73941 57.8524 6.29941 57.5057 5.96608C57.1724 5.63274 56.7257 5.46608 56.1657 5.46608H54.4657C53.8791 5.46608 53.4057 5.61274 53.0457 5.90608C52.6857 6.18608 52.5057 6.55941 52.5057 7.02608V7.66608C52.5057 7.97274 52.6257 8.24608 52.8657 8.48608C53.1057 8.71274 53.4191 8.85274 53.8057 8.90608L57.2857 9.50608C57.8991 9.61274 58.3924 9.85941 58.7657 10.2461C59.1391 10.6327 59.3257 11.0927 59.3257 11.6261V12.4661C59.3257 13.1727 59.0324 13.7461 58.4457 14.1861C57.8591 14.6127 57.0791 14.8261 56.1057 14.8261H54.3857ZM65.1196 14.8261C64.0663 14.8261 63.213 14.5061 62.5596 13.8661C61.9196 13.2261 61.5996 12.3794 61.5996 11.3261V8.22608C61.5996 7.11941 61.9196 6.22608 62.5596 5.54608C63.213 4.86608 64.0663 4.52608 65.1196 4.52608H66.7596C67.773 4.52608 68.5863 4.85941 69.1996 5.52608C69.8263 6.17941 70.1396 7.05274 70.1396 8.14608V9.82608H62.6796V11.3261C62.6796 12.0861 62.8996 12.6994 63.3396 13.1661C63.793 13.6327 64.3863 13.8661 65.1196 13.8661H66.6396C67.3596 13.8661 67.9396 13.6594 68.3796 13.2461C68.833 12.8194 69.0596 12.2661 69.0596 11.5861H70.0996C70.0996 12.5594 69.7796 13.3461 69.1396 13.9461C68.513 14.5327 67.6796 14.8261 66.6396 14.8261H65.1196ZM69.0796 8.90608V8.14608C69.0796 7.34608 68.8663 6.70608 68.4396 6.22608C68.013 5.73274 67.453 5.48608 66.7596 5.48608H65.1196C64.3863 5.48608 63.793 5.73941 63.3396 6.24608C62.8996 6.75274 62.6796 7.41274 62.6796 8.22608V8.90608H69.0796Z" fill="#FCB433"/>
</svg>
