<svg width="58" height="19" viewBox="0 0 58 19" fill="none" xmlns="http://www.w3.org/2000/svg">
<path d="M5.22304 15.16C3.92971 15.16 2.89638 14.7733 2.12304 14C1.34971 13.2267 0.963043 12.1867 0.963043 10.88H2.82304C2.82304 11.6667 3.04304 12.2933 3.48304 12.76C3.93638 13.2267 4.52971 13.46 5.26304 13.46H7.48304C8.21638 13.46 8.80304 13.3067 9.24304 13C9.68304 12.68 9.90304 12.26 9.90304 11.74V10.66C9.90304 10.2467 9.74304 9.9 9.42304 9.62C9.11638 9.34 8.67638 9.15333 8.10304 9.06L4.46304 8.46C3.39638 8.28667 2.56971 7.92 1.98304 7.36C1.40971 6.8 1.12304 6.1 1.12304 5.26V4.16C1.12304 3.16 1.50304 2.36 2.26304 1.76C3.03638 1.14667 4.04971 0.84 5.30304 0.84L7.56304 0.84C8.34971 0.84 9.04304 1.00667 9.64304 1.34C10.2564 1.66 10.7297 2.12 11.063 2.72C11.3964 3.30667 11.563 3.98667 11.563 4.76H9.68304C9.68304 4.09333 9.48971 3.56 9.10304 3.16C8.71638 2.74667 8.20304 2.54 7.56304 2.54H5.30304C4.62304 2.54 4.06971 2.69333 3.64304 3C3.22971 3.29333 3.02304 3.7 3.02304 4.22V5.12C3.02304 5.54667 3.16971 5.9 3.46304 6.18C3.76971 6.46 4.20304 6.65333 4.76304 6.76L8.36304 7.38C9.46971 7.56667 10.3164 7.93333 10.903 8.48C11.503 9.01333 11.803 9.68667 11.803 10.5V11.8C11.803 12.8133 11.4097 13.6267 10.623 14.24C9.84971 14.8533 8.81638 15.16 7.52304 15.16H5.22304ZM14.0974 5.02H15.8774V6.28C16.1574 5.85333 16.5174 5.51333 16.9574 5.26C17.4108 4.99333 17.8641 4.86 18.3174 4.86H19.6974C20.8174 4.86 21.7174 5.20667 22.3974 5.9C23.0908 6.59333 23.4374 7.50667 23.4374 8.64V11.02C23.4374 11.8333 23.2774 12.5533 22.9574 13.18C22.6508 13.8067 22.2108 14.2933 21.6374 14.64C21.0641 14.9867 20.4041 15.16 19.6574 15.16H18.2574C17.8574 15.16 17.4374 15.0533 16.9974 14.84C16.5708 14.6267 16.2241 14.3467 15.9574 14V18.98H14.0974V5.02ZM19.4974 13.52C20.1241 13.52 20.6241 13.2867 20.9974 12.82C21.3708 12.3533 21.5574 11.7333 21.5574 10.96V8.7C21.5574 8.04667 21.3708 7.52 20.9974 7.12C20.6374 6.70667 20.1574 6.5 19.5574 6.5H18.2174C17.7241 6.5 17.2641 6.69333 16.8374 7.08C16.4241 7.46667 16.1308 7.97333 15.9574 8.6V11.26C16.0374 11.9267 16.2841 12.4733 16.6974 12.9C17.1241 13.3133 17.6308 13.52 18.2174 13.52H19.4974ZM29.3357 15.16C28.1624 15.16 27.2157 14.8267 26.4957 14.16C25.789 13.48 25.4357 12.5933 25.4357 11.5V8.74C25.4357 7.56667 25.789 6.62667 26.4957 5.92C27.2157 5.21333 28.1624 4.86 29.3357 4.86H30.9757C32.109 4.86 33.0224 5.20667 33.7157 5.9C34.409 6.59333 34.7557 7.51333 34.7557 8.66V10.54H27.2957V11.5C27.2957 12.1133 27.4824 12.6067 27.8557 12.98C28.229 13.3533 28.7224 13.54 29.3357 13.54H30.8757C31.4757 13.54 31.9624 13.3867 32.3357 13.08C32.709 12.76 32.8957 12.34 32.8957 11.82H34.7157C34.7157 12.82 34.3624 13.6267 33.6557 14.24C32.949 14.8533 32.0157 15.16 30.8557 15.16H29.3357ZM32.8957 9.06V8.66C32.8957 7.99333 32.7157 7.46 32.3557 7.06C32.009 6.66 31.549 6.46 30.9757 6.46H29.3357C28.7224 6.46 28.229 6.67333 27.8557 7.1C27.4824 7.51333 27.2957 8.06667 27.2957 8.76V9.06H32.8957ZM40.5466 15.16C39.3733 15.16 38.4266 14.8267 37.7066 14.16C37 13.48 36.6466 12.5933 36.6466 11.5V8.74C36.6466 7.56667 37 6.62667 37.7066 5.92C38.4266 5.21333 39.3733 4.86 40.5466 4.86H42.1866C43.32 4.86 44.2333 5.20667 44.9266 5.9C45.62 6.59333 45.9666 7.51333 45.9666 8.66V10.54L38.5066 10.54V11.5C38.5066 12.1133 38.6933 12.6067 39.0666 12.98C39.44 13.3533 39.9333 13.54 40.5466 13.54L42.0866 13.54C42.6866 13.54 43.1733 13.3867 43.5466 13.08C43.92 12.76 44.1066 12.34 44.1066 11.82H45.9266C45.9266 12.82 45.5733 13.6267 44.8666 14.24C44.16 14.8533 43.2266 15.16 42.0666 15.16L40.5466 15.16ZM44.1066 9.06V8.66C44.1066 7.99333 43.9266 7.46 43.5666 7.06C43.22 6.66 42.76 6.46 42.1866 6.46H40.5466C39.9333 6.46 39.44 6.67333 39.0666 7.1C38.6933 7.51333 38.5066 8.06667 38.5066 8.76V9.06H44.1066ZM51.5176 15.16C50.4242 15.16 49.5376 14.8067 48.8576 14.1C48.1909 13.3933 47.8576 12.46 47.8576 11.3V8.94C47.8576 8.14 48.0176 7.43333 48.3376 6.82C48.6576 6.19333 49.1042 5.71333 49.6776 5.38C50.2642 5.03333 50.9376 4.86 51.6976 4.86H53.0576C53.4842 4.86 53.9042 4.96 54.3176 5.16C54.7309 5.36 55.0642 5.62667 55.3176 5.96V0.999999H57.1976V15H55.4176V13.58C55.1242 14.0467 54.7376 14.4267 54.2576 14.72C53.7776 15.0133 53.2976 15.16 52.8176 15.16H51.5176ZM52.8976 13.52C53.5242 13.52 54.0709 13.2667 54.5376 12.76C55.0042 12.24 55.2642 11.6267 55.3176 10.92V8.66C55.2242 8.00667 54.9776 7.48667 54.5776 7.1C54.1909 6.7 53.7242 6.5 53.1776 6.5H51.8376C51.2109 6.5 50.6976 6.73333 50.2976 7.2C49.9109 7.65333 49.7176 8.26 49.7176 9.02V11.24C49.7176 11.92 49.8976 12.4733 50.2576 12.9C50.6309 13.3133 51.0976 13.52 51.6576 13.52H52.8976Z" fill="url(#paint0_linear_616_438)"/>
<defs>
<linearGradient id="paint0_linear_616_438" x1="67.6443" y1="26.8644" x2="69.2134" y2="12.8276" gradientUnits="userSpaceOnUse">
<stop stop-color="#101010" stop-opacity="0.2"/>
<stop offset="1" stop-color="white" stop-opacity="0.7"/>
</linearGradient>
</defs>
</svg>
