<svg width="152" height="17" viewBox="0 0 152 17" fill="none" xmlns="http://www.w3.org/2000/svg">
<path d="M4.74279 13.144C3.57879 13.144 2.64879 12.796 1.95279 12.1C1.25679 11.404 0.908789 10.468 0.908789 9.292H2.58279C2.58279 10 2.78079 10.564 3.17679 10.984C3.58479 11.404 4.11879 11.614 4.77879 11.614H6.77679C7.43679 11.614 7.96479 11.476 8.36079 11.2C8.75679 10.912 8.95479 10.534 8.95479 10.066V9.094C8.95479 8.722 8.81079 8.41 8.52279 8.158C8.24679 7.906 7.85079 7.738 7.33479 7.654L4.05879 7.114C3.09879 6.958 2.35479 6.628 1.82679 6.124C1.31079 5.62 1.05279 4.99 1.05279 4.234V3.244C1.05279 2.344 1.39479 1.624 2.07879 1.084C2.77479 0.532 3.68679 0.256 4.81479 0.256H6.84879C7.55679 0.256 8.18079 0.406 8.72079 0.705999C9.27279 0.993999 9.69879 1.408 9.99879 1.948C10.2988 2.476 10.4488 3.088 10.4488 3.784H8.75679C8.75679 3.184 8.58279 2.704 8.23479 2.344C7.88679 1.972 7.42479 1.786 6.84879 1.786H4.81479C4.20279 1.786 3.70479 1.924 3.32079 2.2C2.94879 2.464 2.76279 2.83 2.76279 3.298V4.108C2.76279 4.492 2.89479 4.81 3.15879 5.062C3.43479 5.314 3.82479 5.488 4.32879 5.584L7.56879 6.142C8.56479 6.31 9.32679 6.64 9.85479 7.132C10.3948 7.612 10.6648 8.218 10.6648 8.95V10.12C10.6648 11.032 10.3108 11.764 9.60279 12.316C8.90679 12.868 7.97679 13.144 6.81279 13.144H4.74279ZM16.3837 13C15.3997 13 14.6857 12.784 14.2417 12.352C13.8097 11.92 13.5937 11.224 13.5937 10.264V5.476H12.0097V4.018H13.6117V1.3H15.2677V4.018H17.6077V5.476H15.2677V10.228C15.2677 10.696 15.3577 11.032 15.5377 11.236C15.7297 11.44 16.0357 11.542 16.4557 11.542H17.6077V13H16.3837ZM22.232 13.144C21.332 13.144 20.612 12.916 20.072 12.46C19.532 11.992 19.262 11.374 19.262 10.606V10.012C19.262 9.256 19.544 8.65 20.108 8.194C20.672 7.726 21.41 7.492 22.322 7.492H23.456C23.816 7.492 24.2 7.546 24.608 7.654C25.016 7.762 25.364 7.912 25.652 8.104V6.79C25.652 6.346 25.514 5.992 25.238 5.728C24.962 5.452 24.602 5.314 24.158 5.314H22.682C22.226 5.314 21.86 5.422 21.584 5.638C21.308 5.854 21.17 6.136 21.17 6.484H19.514C19.514 5.704 19.802 5.074 20.378 4.594C20.966 4.114 21.734 3.874 22.682 3.874H24.158C25.106 3.874 25.868 4.144 26.444 4.684C27.02 5.212 27.308 5.914 27.308 6.79V13H25.742V11.794C25.466 12.202 25.106 12.532 24.662 12.784C24.218 13.024 23.768 13.144 23.312 13.144H22.232ZM23.402 11.758C23.93 11.758 24.398 11.608 24.806 11.308C25.214 10.996 25.496 10.582 25.652 10.066V9.526C25.424 9.322 25.112 9.16 24.716 9.04C24.32 8.92 23.912 8.86 23.492 8.86H22.34C21.92 8.86 21.578 8.968 21.314 9.184C21.05 9.4 20.918 9.688 20.918 10.048V10.588C20.918 10.948 21.044 11.236 21.296 11.452C21.56 11.656 21.908 11.758 22.34 11.758H23.402ZM29.7278 4.018H31.3298V5.332C31.5698 4.936 31.9178 4.612 32.3738 4.36C32.8418 4.108 33.3278 3.982 33.8318 3.982H34.7678V5.476H33.8318C33.0998 5.476 32.5118 5.704 32.0678 6.16C31.6238 6.604 31.4018 7.192 31.4018 7.924V13H29.7278V4.018ZM52.5664 4.018L50.6764 11.83C50.5804 12.238 50.4304 12.538 50.2264 12.73C50.0224 12.91 49.7584 13 49.4344 13H48.6604L46.4824 6.574L44.2504 13H43.4764C43.1524 13 42.8884 12.91 42.6844 12.73C42.4804 12.538 42.3304 12.238 42.2344 11.83L40.3264 4.018H42.0904L43.5664 10.93L45.8524 4.252H46.4824C46.6984 4.252 46.8724 4.306 47.0044 4.414C47.1364 4.51 47.2384 4.666 47.3104 4.882L49.3264 10.948L50.8024 4.018H52.5664ZM54.302 0.399999H55.976V5.152C56.252 4.768 56.6 4.462 57.02 4.234C57.44 3.994 57.854 3.874 58.262 3.874H59.486C60.35 3.874 61.046 4.162 61.574 4.738C62.114 5.314 62.384 6.07 62.384 7.006V13H60.71V7.006C60.71 6.514 60.584 6.118 60.332 5.818C60.08 5.506 59.75 5.35 59.342 5.35H58.19C57.674 5.35 57.206 5.548 56.786 5.944C56.366 6.328 56.096 6.832 55.976 7.456V13H54.302V0.399999ZM67.9461 13.144C66.8901 13.144 66.0381 12.844 65.3901 12.244C64.7541 11.632 64.4361 10.834 64.4361 9.85V7.366C64.4361 6.31 64.7541 5.464 65.3901 4.828C66.0381 4.192 66.8901 3.874 67.9461 3.874H69.4221C70.4421 3.874 71.2641 4.186 71.8881 4.81C72.5121 5.434 72.8241 6.262 72.8241 7.294V8.986H66.1101V9.85C66.1101 10.402 66.2781 10.846 66.6141 11.182C66.9501 11.518 67.3941 11.686 67.9461 11.686H69.3321C69.8721 11.686 70.3101 11.548 70.6461 11.272C70.9821 10.984 71.1501 10.606 71.1501 10.138H72.7881C72.7881 11.038 72.4701 11.764 71.8341 12.316C71.1981 12.868 70.3581 13.144 69.3141 13.144H67.9461ZM71.1501 7.654V7.294C71.1501 6.694 70.9881 6.214 70.6641 5.854C70.3521 5.494 69.9381 5.314 69.4221 5.314H67.9461C67.3941 5.314 66.9501 5.506 66.6141 5.89C66.2781 6.262 66.1101 6.76 66.1101 7.384V7.654H71.1501ZM78.036 13.144C76.98 13.144 76.128 12.844 75.48 12.244C74.844 11.632 74.526 10.834 74.526 9.85V7.366C74.526 6.31 74.844 5.464 75.48 4.828C76.128 4.192 76.98 3.874 78.036 3.874H79.512C80.532 3.874 81.354 4.186 81.978 4.81C82.602 5.434 82.914 6.262 82.914 7.294V8.986H76.2V9.85C76.2 10.402 76.368 10.846 76.704 11.182C77.04 11.518 77.484 11.686 78.036 11.686H79.422C79.962 11.686 80.4 11.548 80.736 11.272C81.072 10.984 81.24 10.606 81.24 10.138H82.878C82.878 11.038 82.56 11.764 81.924 12.316C81.288 12.868 80.448 13.144 79.404 13.144H78.036ZM81.24 7.654V7.294C81.24 6.694 81.078 6.214 80.754 5.854C80.442 5.494 80.028 5.314 79.512 5.314H78.036C77.484 5.314 77.04 5.506 76.704 5.89C76.368 6.262 76.2 6.76 76.2 7.384V7.654H81.24ZM87.6578 13C86.7098 13 86.0258 12.802 85.6058 12.406C85.1858 11.998 84.9758 11.344 84.9758 10.444V0.399999H86.6498V10.39C86.6498 10.798 86.7338 11.092 86.9018 11.272C87.0698 11.452 87.3458 11.542 87.7298 11.542H88.4498V13H87.6578ZM97.574 13.144C96.602 13.144 95.822 12.88 95.234 12.352C94.646 11.812 94.352 11.104 94.352 10.228H95.99C95.99 10.672 96.134 11.032 96.422 11.308C96.71 11.584 97.094 11.722 97.574 11.722H99.158C99.614 11.722 99.98 11.638 100.256 11.47C100.532 11.29 100.67 11.056 100.67 10.768V10.246C100.67 10.054 100.586 9.886 100.418 9.742C100.262 9.586 100.058 9.484 99.806 9.436L96.692 8.896C96.032 8.776 95.504 8.53 95.108 8.158C94.712 7.774 94.514 7.33 94.514 6.826V6.232C94.514 5.524 94.796 4.954 95.36 4.522C95.924 4.09 96.68 3.874 97.628 3.874H99.14C100.04 3.874 100.76 4.12 101.3 4.612C101.852 5.104 102.128 5.758 102.128 6.574H100.49C100.478 6.19 100.346 5.884 100.094 5.656C99.854 5.416 99.536 5.296 99.14 5.296H97.646C97.202 5.296 96.848 5.386 96.584 5.566C96.332 5.746 96.206 5.986 96.206 6.286V6.736C96.206 6.928 96.29 7.096 96.458 7.24C96.626 7.384 96.842 7.486 97.106 7.546L100.256 8.104C100.88 8.212 101.384 8.452 101.768 8.824C102.164 9.196 102.362 9.628 102.362 10.12V10.822C102.362 11.518 102.068 12.082 101.48 12.514C100.892 12.934 100.118 13.144 99.158 13.144H97.574ZM107.497 13.144C106.441 13.144 105.589 12.844 104.941 12.244C104.305 11.632 103.987 10.834 103.987 9.85V7.366C103.987 6.31 104.305 5.464 104.941 4.828C105.589 4.192 106.441 3.874 107.497 3.874H108.973C109.993 3.874 110.815 4.186 111.439 4.81C112.063 5.434 112.375 6.262 112.375 7.294V8.986H105.661V9.85C105.661 10.402 105.829 10.846 106.165 11.182C106.501 11.518 106.945 11.686 107.497 11.686H108.883C109.423 11.686 109.861 11.548 110.197 11.272C110.533 10.984 110.701 10.606 110.701 10.138H112.339C112.339 11.038 112.021 11.764 111.385 12.316C110.749 12.868 109.909 13.144 108.865 13.144H107.497ZM110.701 7.654V7.294C110.701 6.694 110.539 6.214 110.215 5.854C109.903 5.494 109.489 5.314 108.973 5.314H107.497C106.945 5.314 106.501 5.506 106.165 5.89C105.829 6.262 105.661 6.76 105.661 7.384V7.654H110.701ZM117.985 13C117.001 13 116.287 12.784 115.843 12.352C115.411 11.92 115.195 11.224 115.195 10.264V5.476H113.611V4.018H115.213V1.3H116.869V4.018H119.209V5.476H116.869V10.228C116.869 10.696 116.959 11.032 117.139 11.236C117.331 11.44 117.637 11.542 118.057 11.542H119.209V13H117.985ZM125.017 13C124.033 13 123.319 12.784 122.875 12.352C122.443 11.92 122.227 11.224 122.227 10.264V5.476H120.643V4.018H122.245V1.3H123.901V4.018H126.241V5.476H123.901V10.228C123.901 10.696 123.991 11.032 124.171 11.236C124.363 11.44 124.669 11.542 125.089 11.542H126.241V13H125.017ZM129.564 2.83C129.216 2.83 128.934 2.728 128.718 2.524C128.502 2.308 128.394 2.032 128.394 1.696C128.394 1.36 128.502 1.09 128.718 0.885999C128.934 0.669999 129.216 0.561999 129.564 0.561999C129.912 0.561999 130.188 0.669999 130.392 0.885999C130.608 1.09 130.716 1.36 130.716 1.696C130.716 2.032 130.608 2.308 130.392 2.524C130.188 2.728 129.912 2.83 129.564 2.83ZM128.718 4.018H130.392V13H128.718V4.018ZM133.228 4.018H134.83V5.26C135.094 4.852 135.442 4.522 135.874 4.27C136.318 4.006 136.756 3.874 137.188 3.874H138.376C139.24 3.874 139.936 4.162 140.464 4.738C141.004 5.314 141.274 6.07 141.274 7.006V13H139.6V7.006C139.6 6.514 139.474 6.118 139.222 5.818C138.97 5.506 138.64 5.35 138.232 5.35H137.116C136.6 5.35 136.132 5.548 135.712 5.944C135.292 6.34 135.022 6.856 134.902 7.492V13H133.228V4.018ZM146.801 16.654C145.949 16.654 145.241 16.42 144.677 15.952C144.125 15.484 143.819 14.872 143.759 14.116H145.433C145.469 14.44 145.613 14.704 145.865 14.908C146.117 15.112 146.429 15.214 146.801 15.214H148.331C148.871 15.214 149.291 15.022 149.591 14.638C149.903 14.266 150.059 13.75 150.059 13.09V11.884C149.795 12.208 149.465 12.472 149.069 12.676C148.673 12.88 148.295 12.982 147.935 12.982H146.639C145.991 12.982 145.415 12.838 144.911 12.55C144.407 12.262 144.017 11.854 143.741 11.326C143.465 10.798 143.327 10.192 143.327 9.508V7.492C143.327 6.784 143.471 6.154 143.759 5.602C144.059 5.05 144.473 4.624 145.001 4.324C145.529 4.024 146.135 3.874 146.819 3.874H148.007C148.391 3.874 148.787 3.982 149.195 4.198C149.603 4.402 149.921 4.666 150.149 4.99V4.018H151.733V13.09C151.733 14.194 151.427 15.064 150.815 15.7C150.215 16.336 149.387 16.654 148.331 16.654H146.801ZM147.989 11.524C148.541 11.524 149.009 11.302 149.393 10.858C149.789 10.414 150.011 9.844 150.059 9.148V7.258C150.011 6.694 149.807 6.238 149.447 5.89C149.087 5.53 148.655 5.35 148.151 5.35H146.909C146.345 5.35 145.883 5.554 145.523 5.962C145.175 6.358 145.001 6.886 145.001 7.546V9.454C145.001 10.066 145.163 10.564 145.487 10.948C145.811 11.332 146.219 11.524 146.711 11.524H147.989Z" fill="white"/>
</svg>
