<svg width="68" height="14" viewBox="0 0 68 14" fill="none" xmlns="http://www.w3.org/2000/svg">
<path opacity="0.4" d="M3.69882 13.144C2.63082 13.144 1.77882 12.826 1.14282 12.19C0.51882 11.554 0.20682 10.69 0.20682 9.598H1.17882C1.17882 10.414 1.40682 11.062 1.86282 11.542C2.31882 12.01 2.93682 12.244 3.71682 12.244H5.73282C6.48882 12.244 7.09482 12.07 7.55082 11.722C8.01882 11.374 8.25282 10.918 8.25282 10.354V9.13C8.25282 8.674 8.08482 8.284 7.74882 7.96C7.41282 7.636 6.94482 7.426 6.34482 7.33L3.12282 6.79C2.25882 6.646 1.58082 6.334 1.08882 5.854C0.60882 5.374 0.36882 4.774 0.36882 4.054V3.01C0.36882 2.182 0.68082 1.516 1.30482 1.012C1.92882 0.508 2.75082 0.256 3.77082 0.256H5.80482C6.77682 0.256 7.55682 0.55 8.14482 1.138C8.74482 1.726 9.04482 2.5 9.04482 3.46H8.07282C8.07282 2.764 7.86282 2.206 7.44282 1.786C7.03482 1.354 6.48882 1.138 5.80482 1.138H3.77082C3.03882 1.138 2.45082 1.312 2.00682 1.66C1.57482 1.996 1.35882 2.446 1.35882 3.01V4.054C1.35882 4.534 1.52082 4.936 1.84482 5.26C2.16882 5.584 2.62482 5.794 3.21282 5.89L6.41682 6.448C7.30482 6.604 7.99482 6.916 8.48682 7.384C8.99082 7.852 9.24282 8.434 9.24282 9.13V10.354C9.24282 11.194 8.92482 11.872 8.28882 12.388C7.65282 12.892 6.80682 13.144 5.75082 13.144H3.69882ZM15.1489 13C14.2369 13 13.5829 12.808 13.1869 12.424C12.7909 12.028 12.5929 11.38 12.5929 10.48V4.882H11.0089V4.018H12.5929V1.3H13.5469V4.018H15.8869V4.882H13.5469V10.48C13.5469 11.068 13.6669 11.494 13.9069 11.758C14.1469 12.01 14.5489 12.136 15.1129 12.136H15.8869V13H15.1489ZM20.734 13.144C19.894 13.144 19.222 12.928 18.718 12.496C18.214 12.052 17.962 11.464 17.962 10.732V10.048C17.962 9.316 18.22 8.734 18.736 8.302C19.252 7.87 19.936 7.654 20.788 7.654H21.958C22.366 7.654 22.786 7.72 23.218 7.852C23.662 7.984 24.04 8.164 24.352 8.392V6.646C24.352 6.082 24.178 5.62 23.83 5.26C23.482 4.9 23.032 4.72 22.48 4.72H21.076C20.512 4.72 20.056 4.852 19.708 5.116C19.36 5.38 19.186 5.734 19.186 6.178H18.214C18.214 5.482 18.478 4.924 19.006 4.504C19.534 4.084 20.224 3.874 21.076 3.874H22.48C23.332 3.874 24.01 4.126 24.514 4.63C25.03 5.134 25.288 5.806 25.288 6.646V13H24.37V11.596C24.058 12.076 23.674 12.454 23.218 12.73C22.762 13.006 22.3 13.144 21.832 13.144H20.734ZM21.85 12.28C22.354 12.28 22.834 12.1 23.29 11.74C23.758 11.38 24.112 10.906 24.352 10.318V9.346C24.088 9.094 23.734 8.89 23.29 8.734C22.858 8.578 22.414 8.5 21.958 8.5H20.788C20.224 8.5 19.774 8.644 19.438 8.932C19.102 9.208 18.934 9.58 18.934 10.048V10.732C18.934 11.2 19.096 11.578 19.42 11.866C19.744 12.142 20.182 12.28 20.734 12.28H21.85ZM31.5493 13C30.6373 13 29.9833 12.808 29.5873 12.424C29.1913 12.028 28.9933 11.38 28.9933 10.48V4.882H27.4093V4.018H28.9933V1.3H29.9473V4.018H32.2873V4.882H29.9473V10.48C29.9473 11.068 30.0673 11.494 30.3073 11.758C30.5473 12.01 30.9493 12.136 31.5133 12.136H32.2873V13H31.5493ZM35.6893 2.488C35.4493 2.488 35.2513 2.416 35.0953 2.272C34.9513 2.128 34.8793 1.936 34.8793 1.696C34.8793 1.456 34.9513 1.264 35.0953 1.12C35.2513 0.963999 35.4493 0.885999 35.6893 0.885999C35.9293 0.885999 36.1213 0.963999 36.2653 1.12C36.4093 1.264 36.4813 1.456 36.4813 1.696C36.4813 1.924 36.4093 2.116 36.2653 2.272C36.1213 2.416 35.9293 2.488 35.6893 2.488ZM35.2033 4.018H36.1573V13H35.2033V4.018ZM41.8081 13.144C40.9561 13.144 40.2661 12.898 39.7381 12.406C39.2221 11.902 38.9641 11.242 38.9641 10.426H39.9001C39.9001 10.978 40.0741 11.428 40.4221 11.776C40.7821 12.124 41.2441 12.298 41.8081 12.298H43.3561C43.9441 12.298 44.4121 12.178 44.7601 11.938C45.1201 11.698 45.3001 11.386 45.3001 11.002V10.3C45.3001 10.036 45.1981 9.802 44.9941 9.598C44.8021 9.394 44.5501 9.262 44.2381 9.202L41.1061 8.662C40.5181 8.566 40.0441 8.344 39.6841 7.996C39.3361 7.636 39.1621 7.216 39.1621 6.736V6.124C39.1621 5.452 39.4081 4.912 39.9001 4.504C40.4041 4.084 41.0641 3.874 41.8801 3.874H43.4101C44.2021 3.874 44.8381 4.102 45.3181 4.558C45.8101 5.014 46.0561 5.614 46.0561 6.358H45.1201C45.0961 5.866 44.9281 5.47 44.6161 5.17C44.3161 4.87 43.9141 4.72 43.4101 4.72H41.8801C41.3521 4.72 40.9261 4.852 40.6021 5.116C40.2781 5.368 40.1161 5.704 40.1161 6.124V6.7C40.1161 6.976 40.2241 7.222 40.4401 7.438C40.6561 7.642 40.9381 7.768 41.2861 7.816L44.4181 8.356C44.9701 8.452 45.4141 8.674 45.7501 9.022C46.0861 9.37 46.2541 9.784 46.2541 10.264V11.02C46.2541 11.656 45.9901 12.172 45.4621 12.568C44.9341 12.952 44.2321 13.144 43.3561 13.144H41.8081ZM51.9751 13C51.0631 13 50.4091 12.808 50.0131 12.424C49.6171 12.028 49.4191 11.38 49.4191 10.48V4.882H47.8351V4.018H49.4191V1.3H50.3731V4.018H52.7131V4.882H50.3731V10.48C50.3731 11.068 50.4931 11.494 50.7331 11.758C50.9731 12.01 51.3751 12.136 51.9391 12.136H52.7131V13H51.9751ZM56.1151 2.488C55.8751 2.488 55.6771 2.416 55.5211 2.272C55.3771 2.128 55.3051 1.936 55.3051 1.696C55.3051 1.456 55.3771 1.264 55.5211 1.12C55.6771 0.963999 55.8751 0.885999 56.1151 0.885999C56.3551 0.885999 56.5471 0.963999 56.6911 1.12C56.8351 1.264 56.9071 1.456 56.9071 1.696C56.9071 1.924 56.8351 2.116 56.6911 2.272C56.5471 2.416 56.3551 2.488 56.1151 2.488ZM55.6291 4.018H56.5831V13H55.6291V4.018ZM62.6118 13.144C61.6758 13.144 60.9198 12.856 60.3438 12.28C59.7798 11.692 59.4978 10.924 59.4978 9.976V7.204C59.4978 6.208 59.7798 5.404 60.3438 4.792C60.9198 4.18 61.6698 3.874 62.5938 3.874H64.0698C64.9458 3.874 65.6478 4.114 66.1758 4.594C66.7158 5.074 66.9858 5.704 66.9858 6.484H66.0498C66.0498 5.956 65.8638 5.536 65.4918 5.224C65.1318 4.9 64.6578 4.738 64.0698 4.738H62.5938C61.9578 4.738 61.4418 4.966 61.0458 5.422C60.6618 5.866 60.4698 6.46 60.4698 7.204V9.976C60.4698 10.672 60.6618 11.23 61.0458 11.65C61.4418 12.07 61.9638 12.28 62.6118 12.28H64.0878C64.6878 12.28 65.1738 12.07 65.5458 11.65C65.9178 11.23 66.1038 10.678 66.1038 9.994H67.0398C67.0398 10.942 66.7698 11.704 66.2298 12.28C65.6898 12.856 64.9758 13.144 64.0878 13.144H62.6118Z" fill="white"/>
</svg>
