<svg width="44" height="15" viewBox="0 0 44 15" fill="none" xmlns="http://www.w3.org/2000/svg">
<path d="M4.9055 2.06677H0.465504V0.406768L11.2455 0.406768V2.06677L6.8055 2.06677V14.4068H4.9055V2.06677ZM13.8964 3.10677C13.5098 3.10677 13.1964 2.99344 12.9564 2.76677C12.7164 2.52677 12.5964 2.2201 12.5964 1.84677C12.5964 1.47344 12.7164 1.17343 12.9564 0.946768C13.1964 0.706768 13.5098 0.586768 13.8964 0.586768C14.2831 0.586768 14.5898 0.706768 14.8164 0.946768C15.0564 1.17343 15.1764 1.47344 15.1764 1.84677C15.1764 2.2201 15.0564 2.52677 14.8164 2.76677C14.5898 2.99344 14.2831 3.10677 13.8964 3.10677ZM12.9564 4.42677H14.8164V14.4068H12.9564V4.42677ZM29.0675 4.26677C29.9875 4.26677 30.7209 4.56677 31.2675 5.16677C31.8142 5.75344 32.0875 6.5601 32.0875 7.58677V14.4068H30.2275V7.56677C30.2275 7.0601 30.1075 6.6601 29.8675 6.36677C29.6275 6.0601 29.3142 5.90677 28.9275 5.90677H27.8875C27.3809 5.90677 26.9542 6.08677 26.6075 6.44677C26.2742 6.79344 26.0609 7.27344 25.9675 7.88677V14.4068H24.0875V7.64677C24.0875 7.1001 23.9742 6.67344 23.7475 6.36677C23.5342 6.0601 23.2409 5.90677 22.8675 5.90677H21.8475C21.3409 5.90677 20.9009 6.12677 20.5275 6.56677C20.1542 6.99344 19.9209 7.5601 19.8275 8.26677V14.4068H17.9675V4.42677H19.7475V5.76677C20.0142 5.3001 20.3409 4.93344 20.7275 4.66677C21.1275 4.4001 21.5342 4.26677 21.9475 4.26677H23.1075C23.6409 4.26677 24.1009 4.4001 24.4875 4.66677C24.8875 4.93344 25.2009 5.31344 25.4275 5.80677C25.7209 5.3001 26.0809 4.9201 26.5075 4.66677C26.9342 4.4001 27.3942 4.26677 27.8875 4.26677H29.0675ZM38.2644 14.5668C37.0911 14.5668 36.1444 14.2334 35.4244 13.5668C34.7177 12.8868 34.3644 12.0001 34.3644 10.9068V8.14677C34.3644 6.97344 34.7177 6.03343 35.4244 5.32677C36.1444 4.6201 37.0911 4.26677 38.2644 4.26677H39.9044C41.0377 4.26677 41.9511 4.61343 42.6444 5.30677C43.3377 6.0001 43.6844 6.9201 43.6844 8.06677V9.94677H36.2244V10.9068C36.2244 11.5201 36.4111 12.0134 36.7844 12.3868C37.1577 12.7601 37.6511 12.9468 38.2644 12.9468H39.8044C40.4044 12.9468 40.8911 12.7934 41.2644 12.4868C41.6377 12.1668 41.8244 11.7468 41.8244 11.2268H43.6444C43.6444 12.2268 43.2911 13.0334 42.5844 13.6468C41.8777 14.2601 40.9444 14.5668 39.7844 14.5668H38.2644ZM41.8244 8.46677V8.06677C41.8244 7.4001 41.6444 6.86677 41.2844 6.46677C40.9377 6.06677 40.4777 5.86677 39.9044 5.86677H38.2644C37.6511 5.86677 37.1577 6.0801 36.7844 6.50677C36.4111 6.9201 36.2244 7.47344 36.2244 8.16677V8.46677H41.8244Z" fill="url(#paint0_linear_616_455)"/>
<defs>
<linearGradient id="paint0_linear_616_455" x1="58.8025" y1="23.9689" x2="59.8853" y2="10.6447" gradientUnits="userSpaceOnUse">
<stop stop-color="#101010" stop-opacity="0.2"/>
<stop offset="1" stop-color="white" stop-opacity="0.7"/>
</linearGradient>
</defs>
</svg>
