<svg width="133" height="14" viewBox="0 0 133 14" fill="none" xmlns="http://www.w3.org/2000/svg">
<path d="M4.93234 13.144C4.09234 13.144 3.34834 12.952 2.70034 12.568C2.05234 12.184 1.54834 11.644 1.18834 10.948C0.840336 10.24 0.666336 9.424 0.666336 8.5V4.9C0.666336 3.976 0.846336 3.166 1.20634 2.47C1.56634 1.762 2.07034 1.216 2.71834 0.831999C3.37834 0.448 4.14034 0.256 5.00434 0.256H6.91234C7.72834 0.256 8.44834 0.436 9.07234 0.795999C9.70834 1.144 10.1943 1.636 10.5303 2.272C10.8783 2.908 11.0523 3.64 11.0523 4.468H9.37834C9.37834 3.664 9.15034 3.016 8.69434 2.524C8.25034 2.032 7.65634 1.786 6.91234 1.786H5.00434C4.22434 1.786 3.58834 2.074 3.09634 2.65C2.61634 3.226 2.37634 3.988 2.37634 4.936V8.464C2.37634 9.412 2.61034 10.174 3.07834 10.75C3.54634 11.326 4.16434 11.614 4.93234 11.614H6.87634C7.64434 11.614 8.25634 11.344 8.71234 10.804C9.18034 10.252 9.41434 9.532 9.41434 8.644H11.0883C11.0883 9.532 10.9143 10.318 10.5663 11.002C10.2183 11.686 9.72634 12.214 9.09034 12.586C8.45434 12.958 7.71634 13.144 6.87634 13.144H4.93234ZM15.6774 13.144C14.7774 13.144 14.0574 12.916 13.5174 12.46C12.9774 11.992 12.7074 11.374 12.7074 10.606V10.012C12.7074 9.256 12.9894 8.65 13.5534 8.194C14.1174 7.726 14.8554 7.492 15.7674 7.492H16.9014C17.2614 7.492 17.6454 7.546 18.0534 7.654C18.4614 7.762 18.8094 7.912 19.0974 8.104V6.79C19.0974 6.346 18.9594 5.992 18.6834 5.728C18.4074 5.452 18.0474 5.314 17.6034 5.314H16.1274C15.6714 5.314 15.3054 5.422 15.0294 5.638C14.7534 5.854 14.6154 6.136 14.6154 6.484H12.9594C12.9594 5.704 13.2474 5.074 13.8234 4.594C14.4114 4.114 15.1794 3.874 16.1274 3.874H17.6034C18.5514 3.874 19.3134 4.144 19.8894 4.684C20.4654 5.212 20.7534 5.914 20.7534 6.79V13H19.1874V11.794C18.9114 12.202 18.5514 12.532 18.1074 12.784C17.6634 13.024 17.2134 13.144 16.7574 13.144H15.6774ZM16.8474 11.758C17.3754 11.758 17.8434 11.608 18.2514 11.308C18.6594 10.996 18.9414 10.582 19.0974 10.066V9.526C18.8694 9.322 18.5574 9.16 18.1614 9.04C17.7654 8.92 17.3574 8.86 16.9374 8.86H15.7854C15.3654 8.86 15.0234 8.968 14.7594 9.184C14.4954 9.4 14.3634 9.688 14.3634 10.048V10.588C14.3634 10.948 14.4894 11.236 14.7414 11.452C15.0054 11.656 15.3534 11.758 15.7854 11.758H16.8474ZM33.1631 3.874C33.9911 3.874 34.6511 4.144 35.1431 4.684C35.6351 5.212 35.8811 5.938 35.8811 6.862V13H34.2071V6.844C34.2071 6.388 34.0991 6.028 33.8831 5.764C33.6671 5.488 33.3851 5.35 33.0371 5.35H32.1011C31.6451 5.35 31.2611 5.512 30.9491 5.836C30.6491 6.148 30.4571 6.58 30.3731 7.132V13H28.6811V6.916C28.6811 6.424 28.5791 6.04 28.3751 5.764C28.1831 5.488 27.9191 5.35 27.5831 5.35H26.6651C26.2091 5.35 25.8131 5.548 25.4771 5.944C25.1411 6.328 24.9311 6.838 24.8471 7.474V13H23.1731V4.018H24.7751V5.224C25.0151 4.804 25.3091 4.474 25.6571 4.234C26.0171 3.994 26.3831 3.874 26.7551 3.874H27.7991C28.2791 3.874 28.6931 3.994 29.0411 4.234C29.4011 4.474 29.6831 4.816 29.8871 5.26C30.1511 4.804 30.4751 4.462 30.8591 4.234C31.2431 3.994 31.6571 3.874 32.1011 3.874H33.1631ZM41.4403 13.144C40.3843 13.144 39.5323 12.844 38.8843 12.244C38.2483 11.632 37.9303 10.834 37.9303 9.85V7.366C37.9303 6.31 38.2483 5.464 38.8843 4.828C39.5323 4.192 40.3843 3.874 41.4403 3.874H42.9163C43.9363 3.874 44.7583 4.186 45.3823 4.81C46.0063 5.434 46.3183 6.262 46.3183 7.294V8.986H39.6043V9.85C39.6043 10.402 39.7723 10.846 40.1083 11.182C40.4443 11.518 40.8883 11.686 41.4403 11.686H42.8263C43.3663 11.686 43.8043 11.548 44.1403 11.272C44.4763 10.984 44.6443 10.606 44.6443 10.138H46.2823C46.2823 11.038 45.9643 11.764 45.3283 12.316C44.6923 12.868 43.8523 13.144 42.8083 13.144H41.4403ZM44.6443 7.654V7.294C44.6443 6.694 44.4823 6.214 44.1583 5.854C43.8463 5.494 43.4323 5.314 42.9163 5.314H41.4403C40.8883 5.314 40.4443 5.506 40.1083 5.89C39.7723 6.262 39.6043 6.76 39.6043 7.384V7.654H44.6443ZM48.3801 4.018H49.9821V5.332C50.2221 4.936 50.5701 4.612 51.0261 4.36C51.4941 4.108 51.9801 3.982 52.4841 3.982H53.4201V5.476H52.4841C51.7521 5.476 51.1641 5.704 50.7201 6.16C50.2761 6.604 50.0541 7.192 50.0541 7.924V13H48.3801V4.018ZM57.3375 13.144C56.4375 13.144 55.7175 12.916 55.1775 12.46C54.6375 11.992 54.3675 11.374 54.3675 10.606V10.012C54.3675 9.256 54.6495 8.65 55.2135 8.194C55.7775 7.726 56.5155 7.492 57.4275 7.492H58.5615C58.9215 7.492 59.3055 7.546 59.7135 7.654C60.1215 7.762 60.4695 7.912 60.7575 8.104V6.79C60.7575 6.346 60.6195 5.992 60.3435 5.728C60.0675 5.452 59.7075 5.314 59.2635 5.314H57.7875C57.3315 5.314 56.9655 5.422 56.6895 5.638C56.4135 5.854 56.2755 6.136 56.2755 6.484H54.6195C54.6195 5.704 54.9075 5.074 55.4835 4.594C56.0715 4.114 56.8395 3.874 57.7875 3.874H59.2635C60.2115 3.874 60.9735 4.144 61.5495 4.684C62.1255 5.212 62.4135 5.914 62.4135 6.79V13H60.8475V11.794C60.5715 12.202 60.2115 12.532 59.7675 12.784C59.3235 13.024 58.8735 13.144 58.4175 13.144H57.3375ZM58.5075 11.758C59.0355 11.758 59.5035 11.608 59.9115 11.308C60.3195 10.996 60.6015 10.582 60.7575 10.066V9.526C60.5295 9.322 60.2175 9.16 59.8215 9.04C59.4255 8.92 59.0175 8.86 58.5975 8.86H57.4455C57.0255 8.86 56.6835 8.968 56.4195 9.184C56.1555 9.4 56.0235 9.688 56.0235 10.048V10.588C56.0235 10.948 56.1495 11.236 56.4015 11.452C56.6655 11.656 57.0135 11.758 57.4455 11.758H58.5075ZM69.7392 0.399999H76.0212C77.0172 0.399999 77.8152 0.681999 78.4152 1.246C79.0272 1.798 79.3332 2.536 79.3332 3.46V5.26C79.3332 6.232 79.0092 7.018 78.3612 7.618C77.7252 8.206 76.8792 8.5 75.8232 8.5H71.4492V13H69.7392V0.399999ZM75.7872 6.988C76.3392 6.988 76.7832 6.826 77.1192 6.502C77.4552 6.166 77.6232 5.728 77.6232 5.188V3.478C77.6232 3.01 77.4732 2.632 77.1732 2.344C76.8732 2.056 76.4772 1.912 75.9852 1.912H71.4492V6.988H75.7872ZM81.0579 4.018H82.6599V5.332C82.8999 4.936 83.2479 4.612 83.7039 4.36C84.1719 4.108 84.6579 3.982 85.1619 3.982H86.0979V5.476H85.1619C84.4299 5.476 83.8419 5.704 83.3979 6.16C82.9539 6.604 82.7319 7.192 82.7319 7.924V13H81.0579V4.018ZM90.4832 13.144C89.4272 13.144 88.5752 12.844 87.9272 12.244C87.2912 11.632 86.9732 10.834 86.9732 9.85V7.366C86.9732 6.31 87.2912 5.464 87.9272 4.828C88.5752 4.192 89.4272 3.874 90.4832 3.874H91.9592C92.9792 3.874 93.8012 4.186 94.4252 4.81C95.0492 5.434 95.3612 6.262 95.3612 7.294V8.986H88.6472V9.85C88.6472 10.402 88.8152 10.846 89.1512 11.182C89.4872 11.518 89.9312 11.686 90.4832 11.686H91.8692C92.4092 11.686 92.8472 11.548 93.1832 11.272C93.5192 10.984 93.6872 10.606 93.6872 10.138H95.3252C95.3252 11.038 95.0072 11.764 94.3712 12.316C93.7352 12.868 92.8952 13.144 91.8512 13.144H90.4832ZM93.6872 7.654V7.294C93.6872 6.694 93.5252 6.214 93.2012 5.854C92.8892 5.494 92.4752 5.314 91.9592 5.314H90.4832C89.9312 5.314 89.4872 5.506 89.1512 5.89C88.8152 6.262 88.6472 6.76 88.6472 7.384V7.654H93.6872ZM100.663 13C100.375 13 100.129 12.922 99.9251 12.766C99.7331 12.598 99.5711 12.34 99.4391 11.992L96.3431 4.018H98.1071L100.663 11.11H100.699L103.255 4.018H105.019L101.491 13H100.663ZM107.628 2.83C107.28 2.83 106.998 2.728 106.782 2.524C106.566 2.308 106.458 2.032 106.458 1.696C106.458 1.36 106.566 1.09 106.782 0.885999C106.998 0.669999 107.28 0.561999 107.628 0.561999C107.976 0.561999 108.252 0.669999 108.456 0.885999C108.672 1.09 108.78 1.36 108.78 1.696C108.78 2.032 108.672 2.308 108.456 2.524C108.252 2.728 107.976 2.83 107.628 2.83ZM106.782 4.018H108.456V13H106.782V4.018ZM114.442 13.144C113.386 13.144 112.534 12.844 111.886 12.244C111.25 11.632 110.932 10.834 110.932 9.85V7.366C110.932 6.31 111.25 5.464 111.886 4.828C112.534 4.192 113.386 3.874 114.442 3.874H115.918C116.938 3.874 117.76 4.186 118.384 4.81C119.008 5.434 119.32 6.262 119.32 7.294V8.986H112.606V9.85C112.606 10.402 112.774 10.846 113.11 11.182C113.446 11.518 113.89 11.686 114.442 11.686H115.828C116.368 11.686 116.806 11.548 117.142 11.272C117.478 10.984 117.646 10.606 117.646 10.138H119.284C119.284 11.038 118.966 11.764 118.33 12.316C117.694 12.868 116.854 13.144 115.81 13.144H114.442ZM117.646 7.654V7.294C117.646 6.694 117.484 6.214 117.16 5.854C116.848 5.494 116.434 5.314 115.918 5.314H114.442C113.89 5.314 113.446 5.506 113.11 5.89C112.774 6.262 112.606 6.76 112.606 7.384V7.654H117.646ZM132.83 4.018L130.94 11.83C130.844 12.238 130.694 12.538 130.49 12.73C130.286 12.91 130.022 13 129.698 13H128.924L126.746 6.574L124.514 13H123.74C123.416 13 123.152 12.91 122.948 12.73C122.744 12.538 122.594 12.238 122.498 11.83L120.59 4.018H122.354L123.83 10.93L126.116 4.252H126.746C126.962 4.252 127.136 4.306 127.268 4.414C127.4 4.51 127.502 4.666 127.574 4.882L129.59 10.948L131.066 4.018H132.83Z" fill="white"/>
</svg>
