<svg width="17" height="58" viewBox="0 0 17 58" fill="none" xmlns="http://www.w3.org/2000/svg">
<path d="M13.144 53.5473C13.144 54.3993 12.952 55.1553 12.568 55.8153C12.184 56.4633 11.644 56.9673 10.948 57.3273C10.24 57.6753 9.424 57.8493 8.5 57.8493L4.9 57.8493C3.976 57.8493 3.166 57.6693 2.47 57.3093C1.762 56.9373 1.216 56.4213 0.831999 55.7613C0.447999 55.1013 0.256 54.3393 0.256 53.4753L0.256 51.5313C0.256 50.7033 0.429999 49.9713 0.777999 49.3353C1.114 48.6993 1.6 48.2073 2.236 47.8593C2.86 47.5113 3.58 47.3373 4.396 47.3373L4.396 49.0113C3.616 49.0113 2.986 49.2453 2.506 49.7133C2.026 50.1693 1.786 50.7753 1.786 51.5313L1.786 53.4753C1.786 54.2673 2.074 54.9093 2.65 55.4013C3.226 55.8933 3.988 56.1393 4.936 56.1393L8.464 56.1393C9.412 56.1393 10.174 55.9053 10.75 55.4373C11.326 54.9573 11.614 54.3273 11.614 53.5473L11.614 51.5313C11.614 50.7633 11.344 50.1393 10.804 49.6593C10.264 49.1673 9.568 48.9213 8.716 48.9213L7.852 48.9213L7.852 52.4133L6.358 52.4133L6.358 47.2473L8.716 47.2473C9.58 47.2473 10.348 47.4273 11.02 47.7873C11.692 48.1473 12.214 48.6513 12.586 49.2993C12.958 49.9473 13.144 50.6913 13.144 51.5313L13.144 53.5473ZM13.144 42.3988C13.144 43.2988 12.916 44.0188 12.46 44.5588C11.992 45.0988 11.374 45.3688 10.606 45.3688L10.012 45.3688C9.256 45.3688 8.65 45.0868 8.194 44.5228C7.726 43.9588 7.492 43.2208 7.492 42.3088L7.492 41.1748C7.492 40.8148 7.546 40.4308 7.654 40.0228C7.762 39.6148 7.912 39.2668 8.104 38.9788L6.79 38.9788C6.346 38.9788 5.992 39.1168 5.728 39.3928C5.452 39.6688 5.314 40.0288 5.314 40.4728L5.314 41.9488C5.314 42.4048 5.422 42.7708 5.638 43.0468C5.854 43.3228 6.136 43.4608 6.484 43.4608L6.484 45.1168C5.704 45.1168 5.074 44.8288 4.594 44.2528C4.114 43.6648 3.874 42.8968 3.874 41.9488L3.874 40.4728C3.874 39.5248 4.144 38.7628 4.684 38.1868C5.212 37.6108 5.914 37.3228 6.79 37.3228L13 37.3228L13 38.8888L11.794 38.8888C12.202 39.1648 12.532 39.5248 12.784 39.9688C13.024 40.4128 13.144 40.8628 13.144 41.3188L13.144 42.3988ZM11.758 41.2288C11.758 40.7008 11.608 40.2328 11.308 39.8248C10.996 39.4168 10.582 39.1348 10.066 38.9788L9.526 38.9788C9.322 39.2068 9.16 39.5188 9.04 39.9148C8.92 40.3108 8.86 40.7188 8.86 41.1388L8.86 42.2908C8.86 42.7108 8.968 43.0528 9.184 43.3168C9.4 43.5808 9.688 43.7128 10.048 43.7128L10.588 43.7128C10.948 43.7128 11.236 43.5868 11.452 43.3348C11.656 43.0708 11.758 42.7228 11.758 42.2908L11.758 41.2288ZM13 32.2211C13 33.1691 12.802 33.8531 12.406 34.2731C11.998 34.6931 11.344 34.9031 10.444 34.9031L0.399998 34.9031L0.399998 33.2291L10.39 33.2291C10.798 33.2291 11.092 33.1451 11.272 32.9771C11.452 32.8091 11.542 32.5331 11.542 32.1491L11.542 31.4291L13 31.4291L13 32.2211ZM13 27.3344C13 28.2824 12.802 28.9664 12.406 29.3864C11.998 29.8064 11.344 30.0164 10.444 30.0164L0.399998 30.0164L0.399998 28.3424L10.39 28.3424C10.798 28.3424 11.092 28.2584 11.272 28.0904C11.452 27.9224 11.542 27.6464 11.542 27.2624L11.542 26.5424L13 26.5424L13 27.3344ZM13.144 21.8742C13.144 22.9302 12.844 23.7822 12.244 24.4302C11.632 25.0662 10.834 25.3842 9.85 25.3842L7.366 25.3842C6.31 25.3842 5.464 25.0662 4.828 24.4302C4.192 23.7822 3.874 22.9302 3.874 21.8742L3.874 20.3982C3.874 19.3782 4.186 18.5562 4.81 17.9322C5.434 17.3082 6.262 16.9962 7.294 16.9962L8.986 16.9962L8.986 23.7102L9.85 23.7102C10.402 23.7102 10.846 23.5422 11.182 23.2062C11.518 22.8702 11.686 22.4262 11.686 21.8742L11.686 20.4882C11.686 19.9482 11.548 19.5102 11.272 19.1742C10.984 18.8382 10.606 18.6702 10.138 18.6702L10.138 17.0322C11.038 17.0322 11.764 17.3502 12.316 17.9862C12.868 18.6222 13.144 19.4622 13.144 20.5062L13.144 21.8742ZM7.654 18.6702L7.294 18.6702C6.694 18.6702 6.214 18.8322 5.854 19.1562C5.494 19.4682 5.314 19.8822 5.314 20.3982L5.314 21.8742C5.314 22.4262 5.506 22.8702 5.89 23.2062C6.262 23.5422 6.76 23.7102 7.384 23.7102L7.654 23.7102L7.654 18.6702ZM4.018 14.9343L4.018 13.3323L5.332 13.3323C4.936 13.0923 4.612 12.7443 4.36 12.2883C4.108 11.8203 3.982 11.3343 3.982 10.8303L3.982 9.89434L5.476 9.89434L5.476 10.8303C5.476 11.5623 5.704 12.1503 6.16 12.5943C6.604 13.0383 7.192 13.2603 7.924 13.2603L13 13.2603L13 14.9343L4.018 14.9343ZM16.654 5.28169C16.654 6.13369 16.42 6.84169 15.952 7.40569C15.484 7.95769 14.872 8.26369 14.116 8.32369L14.116 6.64969C14.44 6.61369 14.704 6.46969 14.908 6.21769C15.112 5.96569 15.214 5.65369 15.214 5.28169L15.214 3.85969C15.214 3.31969 15.022 2.89969 14.638 2.59969C14.266 2.28769 13.75 2.13169 13.09 2.13169L11.596 2.13169C12.016 2.40769 12.352 2.74969 12.604 3.15769C12.856 3.56569 12.982 3.97369 12.982 4.38169L12.982 5.55169C12.982 6.42769 12.688 7.13569 12.1 7.67569C11.512 8.21569 10.738 8.48569 9.778 8.48569L4.018 8.48569L4.018 6.81169L9.814 6.81169C10.318 6.81169 10.726 6.68569 11.038 6.43369C11.35 6.16969 11.506 5.83369 11.506 5.42569L11.506 4.32769C11.506 3.82369 11.302 3.36769 10.894 2.95969C10.486 2.53969 9.97 2.26369 9.346 2.13169L4.018 2.13169L4.018 0.439694L13.09 0.439694C14.194 0.439694 15.064 0.745694 15.7 1.35769C16.336 1.96969 16.654 2.80369 16.654 3.85969L16.654 5.28169Z" fill="white"/>
</svg>
