<svg width="233" height="49" viewBox="0 0 233 49" fill="none" xmlns="http://www.w3.org/2000/svg">
<path opacity="0.4" d="M70.8849 18.4H71.8749L76.5009 27.04L81.0009 18.4H81.9729V31H81.0009V20.254L76.9869 27.922C76.9029 28.078 76.8249 28.186 76.7529 28.246C76.6929 28.306 76.6209 28.336 76.5369 28.336H76.2309L71.8569 20.254V31H70.8849V18.4ZM87.4645 31.144C86.6245 31.144 85.9525 30.928 85.4485 30.496C84.9445 30.052 84.6925 29.464 84.6925 28.732V28.048C84.6925 27.316 84.9505 26.734 85.4665 26.302C85.9825 25.87 86.6665 25.654 87.5185 25.654H88.6885C89.0965 25.654 89.5165 25.72 89.9485 25.852C90.3925 25.984 90.7705 26.164 91.0825 26.392V24.646C91.0825 24.082 90.9085 23.62 90.5605 23.26C90.2125 22.9 89.7625 22.72 89.2105 22.72H87.8065C87.2425 22.72 86.7865 22.852 86.4385 23.116C86.0905 23.38 85.9165 23.734 85.9165 24.178H84.9445C84.9445 23.482 85.2085 22.924 85.7365 22.504C86.2645 22.084 86.9545 21.874 87.8065 21.874H89.2105C90.0625 21.874 90.7405 22.126 91.2445 22.63C91.7605 23.134 92.0185 23.806 92.0185 24.646V31H91.1005V29.596C90.7885 30.076 90.4045 30.454 89.9485 30.73C89.4925 31.006 89.0305 31.144 88.5625 31.144H87.4645ZM88.5805 30.28C89.0845 30.28 89.5645 30.1 90.0205 29.74C90.4885 29.38 90.8425 28.906 91.0825 28.318V27.346C90.8185 27.094 90.4645 26.89 90.0205 26.734C89.5885 26.578 89.1445 26.5 88.6885 26.5H87.5185C86.9545 26.5 86.5045 26.644 86.1685 26.932C85.8325 27.208 85.6645 27.58 85.6645 28.048V28.732C85.6645 29.2 85.8265 29.578 86.1505 29.866C86.4745 30.142 86.9125 30.28 87.4645 30.28H88.5805ZM97.6138 31.144C96.6778 31.144 95.9218 30.856 95.3458 30.28C94.7818 29.692 94.4998 28.924 94.4998 27.976V25.204C94.4998 24.208 94.7818 23.404 95.3458 22.792C95.9218 22.18 96.6718 21.874 97.5958 21.874H99.0718C99.9478 21.874 100.65 22.114 101.178 22.594C101.718 23.074 101.988 23.704 101.988 24.484H101.052C101.052 23.956 100.866 23.536 100.494 23.224C100.134 22.9 99.6598 22.738 99.0718 22.738H97.5958C96.9598 22.738 96.4438 22.966 96.0478 23.422C95.6638 23.866 95.4718 24.46 95.4718 25.204V27.976C95.4718 28.672 95.6638 29.23 96.0478 29.65C96.4438 30.07 96.9658 30.28 97.6138 30.28H99.0898C99.6898 30.28 100.176 30.07 100.548 29.65C100.92 29.23 101.106 28.678 101.106 27.994H102.042C102.042 28.942 101.772 29.704 101.232 30.28C100.692 30.856 99.9778 31.144 99.0898 31.144H97.6138ZM104.387 18.4H105.359V23.494C105.659 22.99 106.031 22.594 106.475 22.306C106.931 22.018 107.399 21.874 107.879 21.874H109.121C109.901 21.874 110.531 22.15 111.011 22.702C111.503 23.242 111.749 23.962 111.749 24.862V31H110.795V24.844C110.795 24.22 110.639 23.716 110.327 23.332C110.015 22.936 109.607 22.738 109.103 22.738H107.897C107.357 22.738 106.847 22.96 106.367 23.404C105.887 23.836 105.551 24.406 105.359 25.114V31H104.387V18.4ZM115.41 20.488C115.17 20.488 114.972 20.416 114.816 20.272C114.672 20.128 114.6 19.936 114.6 19.696C114.6 19.456 114.672 19.264 114.816 19.12C114.972 18.964 115.17 18.886 115.41 18.886C115.65 18.886 115.842 18.964 115.986 19.12C116.13 19.264 116.202 19.456 116.202 19.696C116.202 19.924 116.13 20.116 115.986 20.272C115.842 20.416 115.65 20.488 115.41 20.488ZM114.924 22.018H115.878V31H114.924V22.018ZM119.153 22.018H120.089V23.548C120.389 23.032 120.767 22.624 121.223 22.324C121.691 22.024 122.165 21.874 122.645 21.874H123.851C124.631 21.874 125.261 22.15 125.741 22.702C126.233 23.242 126.479 23.962 126.479 24.862V31H125.525V24.844C125.525 24.22 125.369 23.716 125.057 23.332C124.745 22.936 124.337 22.738 123.833 22.738H122.663C122.123 22.738 121.613 22.96 121.133 23.404C120.653 23.848 120.317 24.424 120.125 25.132V31H119.153V22.018ZM132.138 31.144C131.19 31.144 130.422 30.856 129.834 30.28C129.258 29.704 128.97 28.942 128.97 27.994V25.204C128.97 24.208 129.258 23.404 129.834 22.792C130.422 22.18 131.19 21.874 132.138 21.874H133.614C134.526 21.874 135.258 22.174 135.81 22.774C136.374 23.362 136.656 24.148 136.656 25.132V26.644H129.942V27.994C129.942 28.678 130.14 29.23 130.536 29.65C130.944 30.07 131.478 30.28 132.138 30.28H133.506C134.154 30.28 134.676 30.094 135.072 29.722C135.48 29.338 135.684 28.84 135.684 28.228H136.62C136.62 29.104 136.332 29.812 135.756 30.352C135.192 30.88 134.442 31.144 133.506 31.144H132.138ZM135.702 25.816V25.132C135.702 24.412 135.51 23.836 135.126 23.404C134.742 22.96 134.238 22.738 133.614 22.738H132.138C131.478 22.738 130.944 22.966 130.536 23.422C130.14 23.878 129.942 24.472 129.942 25.204V25.816H135.702Z" fill="url(#paint0_linear_734_290)"/>
<path d="M-25 48.0001L193.5 48C212.053 48 224.636 29.1259 217.5 12L212.5 4.02722e-05" stroke="url(#paint1_linear_734_290)"/>
<defs>
<linearGradient id="paint0_linear_734_290" x1="40.3356" y1="6.24657" x2="56.9795" y2="71.0549" gradientUnits="userSpaceOnUse">
<stop stop-color="#727272"/>
<stop offset="1" stop-color="white"/>
</linearGradient>
<linearGradient id="paint1_linear_734_290" x1="-35" y1="48" x2="-16.1814" y2="-43.2226" gradientUnits="userSpaceOnUse">
<stop stop-color="#727272" stop-opacity="0"/>
<stop offset="1" stop-color="white"/>
</linearGradient>
</defs>
</svg>
