<svg width="33" height="107" viewBox="0 0 33 107" fill="none" xmlns="http://www.w3.org/2000/svg">
<path opacity="0.15" d="M0 1H8C21.2548 1 32 11.7452 32 25V82C32 95.2548 21.2548 106 8 106H0V1Z" fill="url(#paint0_linear_734_286)"/>
<path d="M21.2 12.5088L21.2 17.7728C21.2 18.5621 20.9813 19.1968 20.544 19.6768C20.1173 20.1568 19.5467 20.3968 18.832 20.3968L17.056 20.3968C16.2773 20.3968 15.648 20.1408 15.168 19.6288C14.6987 19.1168 14.464 18.4395 14.464 17.5968L14.464 13.3888L10 13.3888L10 12.5088L21.2 12.5088ZM15.264 17.5808C15.264 18.1675 15.4293 18.6368 15.76 18.9888C16.0907 19.3408 16.528 19.5168 17.072 19.5168L18.848 19.5168C19.3173 19.5168 19.696 19.3515 19.984 19.0208C20.272 18.7008 20.416 18.2795 20.416 17.7568L20.416 13.3888L15.264 13.3888L15.264 17.5808ZM9.872 24.3243C9.872 23.5776 10.064 22.9803 10.448 22.5323C10.8427 22.0843 11.3653 21.8603 12.016 21.8603L12.624 21.8603C13.2747 21.8603 13.792 22.0896 14.176 22.5483C14.56 23.007 14.752 23.615 14.752 24.3723L14.752 25.4123C14.752 25.775 14.6933 26.1483 14.576 26.5323C14.4587 26.927 14.2987 27.263 14.096 27.5403L15.648 27.5403C16.1493 27.5403 16.56 27.3856 16.88 27.0763C17.2 26.767 17.36 26.367 17.36 25.8763L17.36 24.6283C17.36 24.127 17.2427 23.7216 17.008 23.4123C16.7733 23.103 16.4587 22.9483 16.064 22.9483L16.064 22.0843C16.6827 22.0843 17.1787 22.319 17.552 22.7883C17.9253 23.2576 18.112 23.871 18.112 24.6283L18.112 25.8763C18.112 26.6336 17.888 27.2363 17.44 27.6843C16.992 28.143 16.3947 28.3723 15.648 28.3723L10 28.3723L10 27.5563L11.248 27.5563C10.8213 27.279 10.4853 26.9376 10.24 26.5323C9.99467 26.127 9.872 25.7163 9.872 25.3003L9.872 24.3243ZM10.64 25.3163C10.64 25.7643 10.8 26.191 11.12 26.5963C11.44 27.0123 11.8613 27.327 12.384 27.5403L13.248 27.5403C13.472 27.3056 13.6533 26.991 13.792 26.5963C13.9307 26.2123 14 25.8176 14 25.4123L14 24.3723C14 23.871 13.872 23.471 13.616 23.1723C13.3707 22.8736 13.04 22.7243 12.624 22.7243L12.016 22.7243C11.6 22.7243 11.264 22.8683 11.008 23.1563C10.7627 23.4443 10.64 23.8336 10.64 24.3243L10.64 25.3163ZM17.984 30.8979L17.984 31.7299L16.688 31.7299C17.0933 31.9646 17.4133 32.3006 17.648 32.7379C17.8933 33.1753 18.016 33.6446 18.016 34.1459L18.016 34.7379L17.248 34.7379L17.248 34.1299C17.248 33.4366 17.024 32.8659 16.576 32.4179C16.128 31.9806 15.5467 31.7619 14.832 31.7619L10 31.7619L10 30.8979L17.984 30.8979ZM9.872 38.4024C9.872 37.6558 10.064 37.0584 10.448 36.6104C10.8427 36.1624 11.3653 35.9384 12.016 35.9384L12.624 35.9384C13.2747 35.9384 13.792 36.1678 14.176 36.6264C14.56 37.0851 14.752 37.6931 14.752 38.4504L14.752 39.4904C14.752 39.8531 14.6933 40.2264 14.576 40.6104C14.4587 41.0051 14.2987 41.3411 14.096 41.6184L15.648 41.6184C16.1493 41.6184 16.56 41.4638 16.88 41.1544C17.2 40.8451 17.36 40.4451 17.36 39.9544L17.36 38.7064C17.36 38.2051 17.2427 37.7998 17.008 37.4904C16.7733 37.1811 16.4587 37.0264 16.064 37.0264L16.064 36.1624C16.6827 36.1624 17.1787 36.3971 17.552 36.8664C17.9253 37.3358 18.112 37.9491 18.112 38.7064L18.112 39.9544C18.112 40.7118 17.888 41.3144 17.44 41.7624C16.992 42.2211 16.3947 42.4504 15.648 42.4504L10 42.4504L10 41.6344L11.248 41.6344C10.8213 41.3571 10.4853 41.0158 10.24 40.6104C9.99466 40.2051 9.872 39.7944 9.872 39.3784L9.872 38.4024ZM10.64 39.3944C10.64 39.8424 10.8 40.2691 11.12 40.6744C11.44 41.0904 11.8613 41.4051 12.384 41.6184L13.248 41.6184C13.472 41.3838 13.6533 41.0691 13.792 40.6744C13.9307 40.2904 14 39.8958 14 39.4904L14 38.4504C14 37.9491 13.872 37.5491 13.616 37.2504C13.3707 36.9518 13.04 36.8024 12.624 36.8024L12.016 36.8024C11.6 36.8024 11.264 36.9464 11.008 37.2344C10.7627 37.5224 10.64 37.9118 10.64 38.4024L10.64 39.3944ZM18.112 53.6161C18.112 54.2774 17.8933 54.8054 17.456 55.2001C17.0187 55.5947 16.4267 55.7921 15.68 55.7921L10 55.7921L10 54.9281L15.696 54.9281C16.1973 54.9281 16.5973 54.8054 16.896 54.5601C17.1947 54.3254 17.344 54.0054 17.344 53.6001L17.344 52.6561C17.344 52.1867 17.1733 51.7867 16.832 51.4561C16.4907 51.1361 16.0267 50.9227 15.44 50.8161L10 50.8161L10 49.9521L15.568 49.9521C16.112 49.9521 16.544 49.8347 16.864 49.6001C17.184 49.3761 17.344 49.0721 17.344 48.6881L17.344 47.7601C17.344 47.3121 17.1467 46.9121 16.752 46.5601C16.3573 46.2081 15.8453 45.9681 15.216 45.8401L10 45.8401L10 44.9761L17.984 44.9761L17.984 45.8081L16.688 45.8081C17.136 46.0427 17.4827 46.3307 17.728 46.6721C17.984 47.0134 18.112 47.3761 18.112 47.7601L18.112 48.7041C18.112 49.1414 17.9893 49.5254 17.744 49.8561C17.4987 50.1867 17.1573 50.4267 16.72 50.5761C17.168 50.8107 17.5093 51.1041 17.744 51.4561C17.9893 51.8187 18.112 52.2134 18.112 52.6401L18.112 53.6161ZM9.872 60.8158C9.872 59.9731 10.128 59.2905 10.64 58.7678C11.152 58.2558 11.8293 57.9998 12.672 57.9998L15.152 57.9998C16.0373 57.9998 16.752 58.2558 17.296 58.7678C17.84 59.2905 18.112 59.9731 18.112 60.8158L18.112 62.1278C18.112 62.9385 17.8453 63.5891 17.312 64.0798C16.7893 64.5811 16.0907 64.8318 15.216 64.8318L13.872 64.8318L13.872 58.8638L12.672 58.8638C12.064 58.8638 11.5733 59.0398 11.2 59.3918C10.8267 59.7545 10.64 60.2291 10.64 60.8158L10.64 62.0318C10.64 62.6078 10.8053 63.0718 11.136 63.4238C11.4773 63.7865 11.92 63.9678 12.464 63.9678L12.464 64.7998C11.6853 64.7998 11.056 64.5438 10.576 64.0318C10.1067 63.5305 9.872 62.8638 9.872 62.0318L9.872 60.8158ZM14.608 63.9838L15.216 63.9838C15.856 63.9838 16.368 63.8131 16.752 63.4718C17.1467 63.1305 17.344 62.6825 17.344 62.1278L17.344 60.8158C17.344 60.2291 17.1413 59.7545 16.736 59.3918C16.3307 59.0398 15.8027 58.8638 15.152 58.8638L14.608 58.8638L14.608 63.9838ZM10 69.9848C10 69.1741 10.1707 68.5928 10.512 68.2408C10.864 67.8888 11.44 67.7128 12.24 67.7128L17.216 67.7128L17.216 66.3048L17.984 66.3048L17.984 67.7128L20.4 67.7128L20.4 68.5608L17.984 68.5608L17.984 70.6408L17.216 70.6408L17.216 68.5608L12.24 68.5608C11.7173 68.5608 11.3387 68.6675 11.104 68.8808C10.88 69.0941 10.768 69.4515 10.768 69.9528L10.768 70.6408L10 70.6408L10 69.9848ZM9.872 75.1908C9.872 74.3481 10.128 73.6655 10.64 73.1428C11.152 72.6308 11.8293 72.3748 12.672 72.3748L15.152 72.3748C16.0373 72.3748 16.752 72.6308 17.296 73.1428C17.84 73.6655 18.112 74.3481 18.112 75.1908L18.112 76.5028C18.112 77.3135 17.8453 77.9641 17.312 78.4548C16.7893 78.9561 16.0907 79.2068 15.216 79.2068L13.872 79.2068L13.872 73.2388L12.672 73.2388C12.064 73.2388 11.5733 73.4148 11.2 73.7668C10.8267 74.1295 10.64 74.6041 10.64 75.1908L10.64 76.4068C10.64 76.9828 10.8053 77.4468 11.136 77.7988C11.4773 78.1615 11.92 78.3428 12.464 78.3428L12.464 79.1748C11.6853 79.1748 11.056 78.9188 10.576 78.4068C10.1067 77.9055 9.872 77.2388 9.872 76.4068L9.872 75.1908ZM14.608 78.3588L15.216 78.3588C15.856 78.3588 16.368 78.1881 16.752 77.8468C17.1467 77.5055 17.344 77.0575 17.344 76.5028L17.344 75.1908C17.344 74.6041 17.1413 74.1295 16.736 73.7668C16.3307 73.4148 15.8027 73.2388 15.152 73.2388L14.608 73.2388L14.608 78.3588ZM17.984 81.4136L17.984 82.2456L16.688 82.2456C17.0933 82.4802 17.4133 82.8162 17.648 83.2536C17.8933 83.6909 18.016 84.1602 18.016 84.6616L18.016 85.2536L17.248 85.2536L17.248 84.6456C17.248 83.9522 17.024 83.3816 16.576 82.9336C16.128 82.4962 15.5467 82.2776 14.832 82.2776L10 82.2776L10 81.4136L17.984 81.4136ZM9.872 89.0881C9.872 88.3307 10.0907 87.7174 10.528 87.2481C10.976 86.7894 11.5627 86.5601 12.288 86.5601L12.288 87.3921C11.7973 87.3921 11.3973 87.5467 11.088 87.8561C10.7787 88.1761 10.624 88.5867 10.624 89.0881L10.624 90.4641C10.624 90.9867 10.7307 91.4027 10.944 91.7121C11.1573 92.0321 11.4347 92.1921 11.776 92.1921L12.4 92.1921C12.6347 92.1921 12.8427 92.1014 13.024 91.9201C13.2053 91.7494 13.3227 91.5254 13.376 91.2481L13.856 88.4641C13.9413 87.9414 14.1387 87.5201 14.448 87.2001C14.768 86.8907 15.1413 86.7361 15.568 86.7361L16.112 86.7361C16.7093 86.7361 17.1893 86.9547 17.552 87.3921C17.9253 87.8401 18.112 88.4267 18.112 89.1521L18.112 90.5121C18.112 91.2161 17.9093 91.7814 17.504 92.2081C17.0987 92.6454 16.5653 92.8641 15.904 92.8641L15.904 92.0321C16.3413 92.0107 16.6933 91.8614 16.96 91.5841C17.2267 91.3174 17.36 90.9601 17.36 90.5121L17.36 89.1521C17.36 88.6827 17.2427 88.3041 17.008 88.0161C16.784 87.7281 16.4853 87.5841 16.112 87.5841L15.6 87.5841C15.3547 87.5841 15.136 87.6801 14.944 87.8721C14.7627 88.0641 14.6507 88.3147 14.608 88.6241L14.128 91.4081C14.0427 91.8987 13.8453 92.2934 13.536 92.5921C13.2267 92.8907 12.8587 93.0401 12.432 93.0401L11.76 93.0401C11.1947 93.0401 10.736 92.8054 10.384 92.3361C10.0427 91.8667 9.872 91.2427 9.872 90.4641L9.872 89.0881Z" fill="white"/>
<path d="M1 106H8C21.2548 106 32 95.2548 32 82V25C32 11.7452 21.2548 1 8 1H1" stroke="url(#paint1_linear_734_286)" stroke-linecap="round"/>
<defs>
<linearGradient id="paint0_linear_734_286" x1="29.2174" y1="15.1504" x2="-11.9465" y2="24.6543" gradientUnits="userSpaceOnUse">
<stop stop-color="#FCB433"/>
<stop offset="1" stop-color="#966B1E"/>
</linearGradient>
<linearGradient id="paint1_linear_734_286" x1="3.69565" y1="15.1504" x2="43.6977" y2="24.0974" gradientUnits="userSpaceOnUse">
<stop stop-color="#FCB433"/>
<stop offset="1" stop-color="#966B1E"/>
</linearGradient>
</defs>
</svg>
