<svg width="127" height="18" viewBox="0 0 127 18" fill="none" xmlns="http://www.w3.org/2000/svg">
<path d="M1.28 2.8H2.464V7.824H8.64V2.8H9.824V14H8.64V8.88H2.464V14H1.28V2.8ZM14.9814 14.128C14.0854 14.128 13.3654 13.8667 12.8214 13.344C12.2774 12.8107 12.0054 12.1067 12.0054 11.232V8.944C12.0054 8.02667 12.2774 7.29067 12.8214 6.736C13.3654 6.17067 14.0854 5.888 14.9814 5.888H16.2934C17.1467 5.888 17.8347 6.16 18.3574 6.704C18.88 7.248 19.1414 7.968 19.1414 8.864V10.272H13.1574V11.232C13.1574 11.7867 13.3227 12.24 13.6534 12.592C13.9947 12.9333 14.4374 13.104 14.9814 13.104H16.1974C16.7307 13.104 17.1627 12.96 17.4934 12.672C17.824 12.3733 17.9894 11.9787 17.9894 11.488H19.1094C19.1094 12.2773 18.8427 12.9173 18.3094 13.408C17.776 13.888 17.072 14.128 16.1974 14.128H14.9814ZM17.9894 9.28V8.864C17.9894 8.27733 17.8347 7.808 17.5254 7.456C17.216 7.09333 16.8054 6.912 16.2934 6.912H14.9814C14.4374 6.912 13.9947 7.09867 13.6534 7.472C13.3227 7.84533 13.1574 8.336 13.1574 8.944V9.28H17.9894ZM22.0175 4.816C21.7615 4.816 21.5535 4.736 21.3935 4.576C21.2335 4.416 21.1535 4.208 21.1535 3.952C21.1535 3.696 21.2335 3.488 21.3935 3.328C21.5535 3.168 21.7615 3.088 22.0175 3.088C22.2735 3.088 22.4815 3.168 22.6415 3.328C22.8015 3.488 22.8815 3.696 22.8815 3.952C22.8815 4.208 22.8015 4.416 22.6415 4.576C22.4815 4.736 22.2735 4.816 22.0175 4.816ZM21.4415 6.016H22.5935V14H21.4415V6.016ZM27.9018 17.248C27.1978 17.248 26.6164 17.056 26.1578 16.672C25.6991 16.2987 25.4431 15.8027 25.3898 15.184H26.5418C26.5844 15.504 26.7284 15.76 26.9738 15.952C27.2298 16.1547 27.5391 16.256 27.9018 16.256H29.2298C29.7844 16.256 30.2111 16.0693 30.5098 15.696C30.8191 15.3333 30.9738 14.8213 30.9738 14.16V12.928C30.7391 13.248 30.4298 13.5093 30.0458 13.712C29.6724 13.904 29.3098 14 28.9578 14H27.7898C27.2458 14 26.7604 13.872 26.3338 13.616C25.9071 13.36 25.5764 13.0027 25.3418 12.544C25.1071 12.0853 24.9898 11.552 24.9898 10.944V9.072C24.9898 8.12267 25.2618 7.35467 25.8058 6.768C26.3604 6.18133 27.0858 5.888 27.9818 5.888H29.1018C29.4431 5.888 29.7951 5.984 30.1578 6.176C30.5204 6.368 30.8031 6.61333 31.0058 6.912V6.016H32.1258V14.16C32.1258 15.1307 31.8698 15.888 31.3578 16.432C30.8458 16.976 30.1364 17.248 29.2298 17.248H27.9018ZM28.9578 12.976C29.4911 12.976 29.9444 12.768 30.3178 12.352C30.7018 11.9253 30.9204 11.3867 30.9738 10.736V8.768C30.9311 8.224 30.7284 7.78133 30.3658 7.44C30.0138 7.088 29.5924 6.912 29.1018 6.912H28.0138C27.4484 6.912 26.9951 7.10933 26.6538 7.504C26.3124 7.89867 26.1418 8.42133 26.1418 9.072V10.944C26.1418 11.5413 26.2964 12.032 26.6058 12.416C26.9258 12.7893 27.3311 12.976 27.8218 12.976H28.9578ZM34.5598 2.8H35.7118V7.12C35.9571 6.74667 36.2718 6.448 36.6558 6.224C37.0398 6 37.4291 5.888 37.8238 5.888H38.9438C39.6798 5.888 40.2718 6.13867 40.7198 6.64C41.1784 7.14133 41.4078 7.79733 41.4078 8.608V14H40.2558V8.576C40.2558 8.08533 40.1331 7.68533 39.8878 7.376C39.6424 7.06667 39.3171 6.912 38.9118 6.912H37.8558C37.3544 6.912 36.8958 7.10933 36.4798 7.504C36.0744 7.888 35.8184 8.384 35.7118 8.992V14H34.5598V2.8ZM46.8833 14C46.0406 14 45.4326 13.8187 45.0593 13.456C44.6966 13.0933 44.5153 12.496 44.5153 11.664V7.04H43.1073V6.016H44.5153V3.6H45.6673V6.016H47.7473V7.04H45.6673V11.664C45.6673 12.1333 45.7579 12.4693 45.9393 12.672C46.1313 12.8747 46.4459 12.976 46.8833 12.976H47.7473V14H46.8833ZM50.4006 8.128C50.1446 8.128 49.9366 8.048 49.7766 7.888C49.6166 7.728 49.5366 7.52 49.5366 7.264C49.5366 7.008 49.6166 6.8 49.7766 6.64C49.9366 6.48 50.1446 6.4 50.4006 6.4C50.6566 6.4 50.8646 6.48 51.0246 6.64C51.1846 6.8 51.2646 7.008 51.2646 7.264C51.2646 7.52 51.1846 7.728 51.0246 7.888C50.8646 8.048 50.6566 8.128 50.4006 8.128ZM50.4006 13.6C50.1446 13.6 49.9366 13.52 49.7766 13.36C49.6166 13.2 49.5366 12.992 49.5366 12.736C49.5366 12.48 49.6166 12.272 49.7766 12.112C49.9366 11.952 50.1446 11.872 50.4006 11.872C50.6566 11.872 50.8646 11.952 51.0246 12.112C51.1846 12.272 51.2646 12.48 51.2646 12.736C51.2646 12.992 51.1846 13.2 51.0246 13.36C50.8646 13.52 50.6566 13.6 50.4006 13.6Z" fill="url(#paint0_linear_720_254)"/>
<path d="M108.992 14.128C108.352 14.128 107.782 13.9787 107.28 13.68C106.79 13.3813 106.406 12.96 106.128 12.416C105.851 11.872 105.712 11.248 105.712 10.544V6.256C105.712 5.552 105.851 4.928 106.128 4.384C106.406 3.84 106.79 3.41867 107.28 3.12C107.782 2.82133 108.352 2.672 108.992 2.672H110.688C111.328 2.672 111.894 2.82133 112.384 3.12C112.875 3.41867 113.254 3.84 113.52 4.384C113.798 4.928 113.936 5.552 113.936 6.256V10.544C113.936 11.248 113.798 11.872 113.52 12.416C113.254 12.96 112.875 13.3813 112.384 13.68C111.894 13.9787 111.328 14.128 110.688 14.128H108.992ZM110.656 13.072C111.286 13.072 111.792 12.8427 112.176 12.384C112.56 11.9147 112.752 11.3013 112.752 10.544V6.256C112.752 5.49867 112.56 4.89067 112.176 4.432C111.792 3.96267 111.286 3.728 110.656 3.728H109.024C108.395 3.728 107.883 3.96267 107.488 4.432C107.094 4.89067 106.896 5.49867 106.896 6.256V10.544C106.896 11.3013 107.094 11.9147 107.488 12.384C107.883 12.8427 108.395 13.072 109.024 13.072H110.656ZM119.336 14.128C118.696 14.128 118.125 13.9787 117.624 13.68C117.133 13.3813 116.749 12.96 116.472 12.416C116.195 11.872 116.056 11.248 116.056 10.544V6.256C116.056 5.552 116.195 4.928 116.472 4.384C116.749 3.84 117.133 3.41867 117.624 3.12C118.125 2.82133 118.696 2.672 119.336 2.672H121.032C121.672 2.672 122.237 2.82133 122.728 3.12C123.219 3.41867 123.597 3.84 123.864 4.384C124.141 4.928 124.28 5.552 124.28 6.256V10.544C124.28 11.248 124.141 11.872 123.864 12.416C123.597 12.96 123.219 13.3813 122.728 13.68C122.237 13.9787 121.672 14.128 121.032 14.128H119.336ZM121 13.072C121.629 13.072 122.136 12.8427 122.52 12.384C122.904 11.9147 123.096 11.3013 123.096 10.544V6.256C123.096 5.49867 122.904 4.89067 122.52 4.432C122.136 3.96267 121.629 3.728 121 3.728H119.368C118.739 3.728 118.227 3.96267 117.832 4.432C117.437 4.89067 117.24 5.49867 117.24 6.256V10.544C117.24 11.3013 117.437 11.9147 117.832 12.384C118.227 12.8427 118.739 13.072 119.368 13.072H121Z" fill="url(#paint1_linear_720_254)"/>
<defs>
<linearGradient id="paint0_linear_720_254" x1="7.39726" y1="0.876712" x2="13.0853" y2="26.5769" gradientUnits="userSpaceOnUse">
<stop stop-color="#727272"/>
<stop offset="1" stop-color="white"/>
</linearGradient>
<linearGradient id="paint1_linear_720_254" x1="105.466" y1="0.876712" x2="117.889" y2="19.5872" gradientUnits="userSpaceOnUse">
<stop stop-color="#727272"/>
<stop offset="1" stop-color="white"/>
</linearGradient>
</defs>
</svg>
