<svg width="127" height="18" viewBox="0 0 127 18" fill="none" xmlns="http://www.w3.org/2000/svg">
<path d="M2.32 14C1.98933 14 1.73333 13.9093 1.552 13.728C1.37067 13.5467 1.28 13.2907 1.28 12.96V2.8H5.92C6.70933 2.8 7.40267 2.95467 8 3.264C8.59733 3.56267 9.06133 3.99467 9.392 4.56C9.72267 5.11467 9.888 5.75467 9.888 6.48V10C9.888 11.312 9.55733 12.3093 8.896 12.992C8.23467 13.664 7.264 14 5.984 14H2.32ZM5.952 12.944C6.85867 12.944 7.54133 12.6987 8 12.208C8.46933 11.7067 8.704 10.9707 8.704 10V6.48C8.704 5.70133 8.44267 5.072 7.92 4.592C7.408 4.10133 6.73067 3.856 5.888 3.856H2.464V12.944H5.952ZM14.6533 14.128C13.7573 14.128 13.0373 13.8667 12.4933 13.344C11.9493 12.8107 11.6773 12.1067 11.6773 11.232V8.944C11.6773 8.02667 11.9493 7.29067 12.4933 6.736C13.0373 6.17067 13.7573 5.888 14.6533 5.888H15.9653C16.8186 5.888 17.5066 6.16 18.0293 6.704C18.5519 7.248 18.8133 7.968 18.8133 8.864V10.272H12.8293V11.232C12.8293 11.7867 12.9946 12.24 13.3253 12.592C13.6666 12.9333 14.1093 13.104 14.6533 13.104H15.8693C16.4026 13.104 16.8346 12.96 17.1653 12.672C17.4959 12.3733 17.6613 11.9787 17.6613 11.488H18.7812C18.7812 12.2773 18.5146 12.9173 17.9813 13.408C17.4479 13.888 16.7439 14.128 15.8693 14.128H14.6533ZM17.6613 9.28V8.864C17.6613 8.27733 17.5066 7.808 17.1973 7.456C16.8879 7.09333 16.4773 6.912 15.9653 6.912H14.6533C14.1093 6.912 13.6666 7.09867 13.3253 7.472C12.9946 7.84533 12.8293 8.336 12.8293 8.944V9.28H17.6613ZM23.0334 14C22.244 14 21.6787 13.8347 21.3374 13.504C20.996 13.1627 20.8254 12.6027 20.8254 11.824V2.8H21.9774V11.824C21.9774 12.2293 22.0574 12.5227 22.2174 12.704C22.388 12.8853 22.66 12.976 23.0334 12.976H23.5774V14H23.0334ZM27.4106 14.128C26.632 14.128 26.008 13.9253 25.5386 13.52C25.08 13.1147 24.8506 12.5707 24.8506 11.888V11.376C24.8506 10.704 25.0906 10.1653 25.5706 9.76C26.0506 9.35467 26.6853 9.152 27.4746 9.152H28.4986C28.8506 9.152 29.2133 9.20533 29.5866 9.312C29.96 9.41867 30.28 9.56267 30.5466 9.744V8.416C30.5466 7.968 30.408 7.60533 30.1306 7.328C29.8533 7.04 29.4853 6.896 29.0266 6.896H27.7466C27.288 6.896 26.92 7.00267 26.6426 7.216C26.3653 7.42933 26.2266 7.712 26.2266 8.064H25.0746C25.0746 7.41333 25.32 6.89067 25.8106 6.496C26.3013 6.09067 26.9466 5.888 27.7466 5.888H29.0266C29.816 5.888 30.4506 6.12267 30.9306 6.592C31.4213 7.05067 31.6666 7.65867 31.6666 8.416V14H30.5786V12.88C30.3333 13.264 30.008 13.568 29.6026 13.792C29.208 14.016 28.7973 14.128 28.3706 14.128H27.4106ZM28.4026 13.12C28.904 13.12 29.352 12.9653 29.7466 12.656C30.1413 12.3467 30.408 11.936 30.5466 11.424V10.832C30.3333 10.6293 30.0346 10.4693 29.6506 10.352C29.2773 10.224 28.8933 10.16 28.4986 10.16H27.4746C27.0373 10.16 26.68 10.272 26.4026 10.496C26.136 10.72 26.0026 11.0133 26.0026 11.376V11.888C26.0026 12.2613 26.1306 12.56 26.3866 12.784C26.6426 13.008 26.984 13.12 27.4106 13.12H28.4026ZM36.5733 17.248C35.8693 17.248 35.2879 17.056 34.8293 16.672C34.3706 16.2987 34.1146 15.8027 34.0613 15.184H35.2133C35.2559 15.504 35.3999 15.76 35.6453 15.952C35.9013 16.1547 36.2106 16.256 36.5733 16.256H37.8213C38.3759 16.256 38.8026 16.0693 39.1013 15.696C39.4106 15.3333 39.5653 14.8213 39.5653 14.16V12.688C39.3093 13.072 38.9839 13.3867 38.5893 13.632C38.2053 13.8773 37.8213 14 37.4373 14H36.4133C35.6666 14 35.0586 13.7493 34.5893 13.248C34.1306 12.7467 33.9013 12.0907 33.9013 11.28V6.016H35.0533V11.312C35.0533 11.8133 35.1759 12.2187 35.4213 12.528C35.6773 12.8267 36.0079 12.976 36.4133 12.976H37.4053C37.8959 12.976 38.3493 12.7787 38.7653 12.384C39.1813 11.9893 39.4479 11.4933 39.5653 10.896V6.016H40.7173V14.16C40.7173 15.1307 40.4613 15.888 39.9493 16.432C39.4373 16.976 38.7279 17.248 37.8213 17.248H36.5733ZM43.6975 8.128C43.4415 8.128 43.2335 8.048 43.0735 7.888C42.9135 7.728 42.8335 7.52 42.8335 7.264C42.8335 7.008 42.9135 6.8 43.0735 6.64C43.2335 6.48 43.4415 6.4 43.6975 6.4C43.9535 6.4 44.1615 6.48 44.3215 6.64C44.4815 6.8 44.5615 7.008 44.5615 7.264C44.5615 7.52 44.4815 7.728 44.3215 7.888C44.1615 8.048 43.9535 8.128 43.6975 8.128ZM43.6975 13.6C43.4415 13.6 43.2335 13.52 43.0735 13.36C42.9135 13.2 42.8335 12.992 42.8335 12.736C42.8335 12.48 42.9135 12.272 43.0735 12.112C43.2335 11.952 43.4415 11.872 43.6975 11.872C43.9535 11.872 44.1615 11.952 44.3215 12.112C44.4815 12.272 44.5615 12.48 44.5615 12.736C44.5615 12.992 44.4815 13.2 44.3215 13.36C44.1615 13.52 43.9535 13.6 43.6975 13.6Z" fill="url(#paint0_linear_720_258)"/>
<path d="M108.992 14.128C108.352 14.128 107.782 13.9787 107.28 13.68C106.79 13.3813 106.406 12.96 106.128 12.416C105.851 11.872 105.712 11.248 105.712 10.544V6.256C105.712 5.552 105.851 4.928 106.128 4.384C106.406 3.84 106.79 3.41867 107.28 3.12C107.782 2.82133 108.352 2.672 108.992 2.672H110.688C111.328 2.672 111.894 2.82133 112.384 3.12C112.875 3.41867 113.254 3.84 113.52 4.384C113.798 4.928 113.936 5.552 113.936 6.256V10.544C113.936 11.248 113.798 11.872 113.52 12.416C113.254 12.96 112.875 13.3813 112.384 13.68C111.894 13.9787 111.328 14.128 110.688 14.128H108.992ZM110.656 13.072C111.286 13.072 111.792 12.8427 112.176 12.384C112.56 11.9147 112.752 11.3013 112.752 10.544V6.256C112.752 5.49867 112.56 4.89067 112.176 4.432C111.792 3.96267 111.286 3.728 110.656 3.728H109.024C108.395 3.728 107.883 3.96267 107.488 4.432C107.094 4.89067 106.896 5.49867 106.896 6.256V10.544C106.896 11.3013 107.094 11.9147 107.488 12.384C107.883 12.8427 108.395 13.072 109.024 13.072H110.656ZM119.336 14.128C118.696 14.128 118.125 13.9787 117.624 13.68C117.133 13.3813 116.749 12.96 116.472 12.416C116.195 11.872 116.056 11.248 116.056 10.544V6.256C116.056 5.552 116.195 4.928 116.472 4.384C116.749 3.84 117.133 3.41867 117.624 3.12C118.125 2.82133 118.696 2.672 119.336 2.672H121.032C121.672 2.672 122.237 2.82133 122.728 3.12C123.219 3.41867 123.597 3.84 123.864 4.384C124.141 4.928 124.28 5.552 124.28 6.256V10.544C124.28 11.248 124.141 11.872 123.864 12.416C123.597 12.96 123.219 13.3813 122.728 13.68C122.237 13.9787 121.672 14.128 121.032 14.128H119.336ZM121 13.072C121.629 13.072 122.136 12.8427 122.52 12.384C122.904 11.9147 123.096 11.3013 123.096 10.544V6.256C123.096 5.49867 122.904 4.89067 122.52 4.432C122.136 3.96267 121.629 3.728 121 3.728H119.368C118.739 3.728 118.227 3.96267 117.832 4.432C117.437 4.89067 117.24 5.49867 117.24 6.256V10.544C117.24 11.3013 117.437 11.9147 117.832 12.384C118.227 12.8427 118.739 13.072 119.368 13.072H121Z" fill="url(#paint1_linear_720_258)"/>
<defs>
<linearGradient id="paint0_linear_720_258" x1="7.39726" y1="0.876712" x2="13.0853" y2="26.5769" gradientUnits="userSpaceOnUse">
<stop stop-color="#727272"/>
<stop offset="1" stop-color="white"/>
</linearGradient>
<linearGradient id="paint1_linear_720_258" x1="105.466" y1="0.876712" x2="117.889" y2="19.5872" gradientUnits="userSpaceOnUse">
<stop stop-color="#727272"/>
<stop offset="1" stop-color="white"/>
</linearGradient>
</defs>
</svg>
