<svg width="213" height="43" viewBox="0 0 213 43" fill="none" xmlns="http://www.w3.org/2000/svg">
<rect opacity="0.7" x="212" y="1" width="40.9816" height="211" rx="14" transform="rotate(90 212 1)" fill="url(#paint0_linear_734_284)" fill-opacity="0.15" stroke="url(#paint1_linear_734_284)" stroke-width="2"/>
<path d="M48.5 21C48.5 23.6483 48.5927 25.668 48.9648 27.2257C49.3319 28.7621 49.962 29.8117 51.0231 30.5624C52.1071 31.3293 53.6949 31.8235 56.0598 32.1178C58.4189 32.4114 61.4908 32.5 65.5 32.5C69.5092 32.5 72.5811 32.4114 74.9402 32.1178C77.3051 31.8235 78.8929 31.3293 79.9769 30.5624C81.038 29.8117 81.6681 28.7621 82.0352 27.2257C82.4073 25.668 82.5 23.6483 82.5 21C82.5 18.3517 82.4073 16.332 82.0352 14.7743C81.6681 13.2379 81.038 12.1883 79.9769 11.4376C78.8929 10.6707 77.3051 10.1765 74.9402 9.8822C72.5811 9.58857 69.5092 9.5 65.5 9.5C61.4908 9.5 58.4189 9.58857 56.0598 9.8822C53.6949 10.1765 52.1071 10.6707 51.0231 11.4376C49.962 12.1883 49.3319 13.2379 48.9648 14.7743C48.5927 16.332 48.5 18.3517 48.5 21Z" stroke="url(#paint2_linear_734_284)" stroke-linecap="round" stroke-linejoin="round"/>
<path d="M72.792 18H75.7087M59.667 24H71.3337" stroke="url(#paint3_linear_734_284)" stroke-width="2" stroke-linecap="round" stroke-linejoin="round"/>
<path fill-rule="evenodd" clip-rule="evenodd" d="M55.2913 19.5C56.0968 19.5 56.7497 18.8284 56.7497 18C56.7497 17.1716 56.0968 16.5 55.2913 16.5C54.4859 16.5 53.833 17.1716 53.833 18C53.833 18.8284 54.4859 19.5 55.2913 19.5ZM55.2913 25.5C56.0968 25.5 56.7497 24.8284 56.7497 24C56.7497 23.1716 56.0968 22.5 55.2913 22.5C54.4859 22.5 53.833 23.1716 53.833 24C53.833 24.8284 54.4859 25.5 55.2913 25.5ZM61.1247 18C61.1247 18.8284 60.4718 19.5 59.6663 19.5C58.8609 19.5 58.208 18.8284 58.208 18C58.208 17.1716 58.8609 16.5 59.6663 16.5C60.4718 16.5 61.1247 17.1716 61.1247 18ZM64.0413 19.5C64.8468 19.5 65.4997 18.8284 65.4997 18C65.4997 17.1716 64.8468 16.5 64.0413 16.5C63.2359 16.5 62.583 17.1716 62.583 18C62.583 18.8284 63.2359 19.5 64.0413 19.5ZM69.8747 18C69.8747 18.8284 69.2218 19.5 68.4163 19.5C67.6109 19.5 66.958 18.8284 66.958 18C66.958 17.1716 67.6109 16.5 68.4163 16.5C69.2218 16.5 69.8747 17.1716 69.8747 18ZM75.708 25.5C76.5134 25.5 77.1663 24.8284 77.1663 24C77.1663 23.1716 76.5134 22.5 75.708 22.5C74.9026 22.5 74.2497 23.1716 74.2497 24C74.2497 24.8284 74.9026 25.5 75.708 25.5Z" fill="url(#paint4_linear_734_284)"/>
<path d="M103.553 27L99.0413 21.432L97.5373 23.032V27H96.6573V15.8H97.5373V21.896L103.249 15.8H104.369L99.6493 20.792L104.657 27H103.553ZM108.402 27.128C107.559 27.128 106.876 26.872 106.354 26.36C105.842 25.848 105.586 25.1707 105.586 24.328V21.848C105.586 20.9627 105.842 20.248 106.354 19.704C106.876 19.16 107.559 18.888 108.402 18.888H109.714C110.524 18.888 111.175 19.1547 111.666 19.688C112.167 20.2107 112.418 20.9093 112.418 21.784V23.128H106.45V24.328C106.45 24.936 106.626 25.4267 106.978 25.8C107.34 26.1733 107.815 26.36 108.402 26.36H109.618C110.194 26.36 110.658 26.1947 111.01 25.864C111.372 25.5227 111.554 25.08 111.554 24.536H112.386C112.386 25.3147 112.13 25.944 111.618 26.424C111.116 26.8933 110.45 27.128 109.618 27.128H108.402ZM111.57 22.392V21.784C111.57 21.144 111.399 20.632 111.058 20.248C110.716 19.8533 110.268 19.656 109.714 19.656H108.402C107.815 19.656 107.34 19.8587 106.978 20.264C106.626 20.6693 106.45 21.1973 106.45 21.848V22.392H111.57ZM117.041 30.248C116.39 30.248 115.851 30.072 115.424 29.72C114.998 29.3787 114.758 28.9253 114.705 28.36H115.553C115.595 28.7013 115.75 28.9733 116.017 29.176C116.294 29.3893 116.635 29.496 117.041 29.496H118.305C118.891 29.496 119.35 29.2987 119.681 28.904C120.022 28.5093 120.193 27.9707 120.193 27.288V25.512C119.905 25.96 119.553 26.3227 119.137 26.6C118.731 26.8667 118.331 27 117.937 27H116.897C116.193 27 115.622 26.7653 115.185 26.296C114.747 25.816 114.529 25.1867 114.529 24.408V19.016H115.393V24.424C115.393 24.9573 115.531 25.3947 115.809 25.736C116.086 26.0667 116.449 26.232 116.897 26.232H117.905C118.374 26.232 118.833 26.024 119.281 25.608C119.739 25.1813 120.043 24.6747 120.193 24.088V19.016H121.041V27.288C121.041 28.2053 120.795 28.9253 120.305 29.448C119.814 29.9813 119.147 30.248 118.305 30.248H117.041ZM126.647 27.128C126.263 27.128 125.869 27.0053 125.463 26.76C125.069 26.504 124.749 26.184 124.503 25.8V27H123.671V15.8H124.535V20.136C124.77 19.752 125.079 19.448 125.463 19.224C125.858 19 126.279 18.888 126.727 18.888H127.847C128.637 18.888 129.277 19.1547 129.767 19.688C130.258 20.2213 130.503 20.9253 130.503 21.8V24.04C130.503 24.9573 130.247 25.704 129.735 26.28C129.234 26.8453 128.573 27.128 127.751 27.128H126.647ZM127.735 26.36C128.301 26.36 128.759 26.1467 129.111 25.72C129.474 25.2933 129.655 24.7333 129.655 24.04V21.8C129.655 21.16 129.485 20.6427 129.143 20.248C128.813 19.8533 128.375 19.656 127.831 19.656H126.759C126.151 19.656 125.639 19.8693 125.223 20.296C124.818 20.712 124.589 21.2613 124.535 21.944V24.344C124.631 24.888 124.882 25.3627 125.287 25.768C125.703 26.1627 126.157 26.36 126.647 26.36H127.735ZM135.34 27.128C134.487 27.128 133.799 26.8613 133.276 26.328C132.753 25.784 132.492 25.0747 132.492 24.2V21.816C132.492 20.9413 132.753 20.2373 133.276 19.704C133.809 19.16 134.508 18.888 135.372 18.888H136.636C137.5 18.888 138.193 19.16 138.716 19.704C139.249 20.2373 139.516 20.9413 139.516 21.816V24.2C139.516 25.0747 139.249 25.784 138.716 26.328C138.183 26.8613 137.479 27.128 136.604 27.128H135.34ZM136.604 26.36C137.223 26.36 137.719 26.1627 138.092 25.768C138.476 25.3733 138.668 24.8507 138.668 24.2V21.816C138.668 21.1653 138.481 20.6427 138.108 20.248C137.735 19.8533 137.244 19.656 136.636 19.656H135.372C134.764 19.656 134.273 19.8533 133.9 20.248C133.537 20.6427 133.356 21.1653 133.356 21.816V24.2C133.356 24.8507 133.537 25.3733 133.9 25.768C134.263 26.1627 134.743 26.36 135.34 26.36H136.604ZM144.02 27.128C143.273 27.128 142.676 26.936 142.228 26.552C141.78 26.1573 141.556 25.6347 141.556 24.984V24.376C141.556 23.7253 141.785 23.208 142.244 22.824C142.702 22.44 143.31 22.248 144.068 22.248H145.108C145.47 22.248 145.844 22.3067 146.228 22.424C146.622 22.5413 146.958 22.7013 147.236 22.904V21.352C147.236 20.8507 147.081 20.44 146.772 20.12C146.462 19.8 146.062 19.64 145.572 19.64H144.324C143.822 19.64 143.417 19.7573 143.108 19.992C142.798 20.2267 142.644 20.5413 142.644 20.936H141.78C141.78 20.3173 142.014 19.8213 142.484 19.448C142.953 19.0747 143.566 18.888 144.324 18.888H145.572C146.329 18.888 146.932 19.112 147.38 19.56C147.838 20.008 148.068 20.6053 148.068 21.352V27H147.252V25.752C146.974 26.1787 146.633 26.5147 146.228 26.76C145.822 27.0053 145.412 27.128 144.996 27.128H144.02ZM145.012 26.36C145.46 26.36 145.886 26.2 146.292 25.88C146.708 25.56 147.022 25.1387 147.236 24.616V23.752C147.001 23.528 146.686 23.3467 146.292 23.208C145.908 23.0693 145.513 23 145.108 23H144.068C143.566 23 143.166 23.128 142.868 23.384C142.569 23.6293 142.42 23.96 142.42 24.376V24.984C142.42 25.4 142.564 25.736 142.852 25.992C143.14 26.2373 143.529 26.36 144.02 26.36H145.012ZM150.593 19.016H151.425V20.312C151.66 19.9067 151.996 19.5867 152.433 19.352C152.871 19.1067 153.34 18.984 153.841 18.984H154.433V19.752H153.825C153.132 19.752 152.561 19.976 152.113 20.424C151.676 20.872 151.457 21.4533 151.457 22.168V27H150.593V19.016ZM158.242 27.128C157.452 27.128 156.812 26.856 156.322 26.312C155.831 25.7573 155.586 25.032 155.586 24.136V21.992C155.586 21.064 155.842 20.3173 156.354 19.752C156.876 19.176 157.559 18.888 158.402 18.888H159.618C159.991 18.888 160.354 18.9893 160.706 19.192C161.068 19.384 161.356 19.6453 161.57 19.976V15.8H162.418V27H161.586V25.656C161.319 26.1147 160.988 26.4773 160.594 26.744C160.21 27 159.804 27.128 159.378 27.128H158.242ZM159.362 26.36C159.863 26.36 160.327 26.1413 160.754 25.704C161.18 25.256 161.452 24.7173 161.57 24.088V21.496C161.463 20.952 161.228 20.5093 160.866 20.168C160.503 19.8267 160.082 19.656 159.602 19.656H158.418C157.82 19.656 157.34 19.8693 156.978 20.296C156.626 20.7227 156.45 21.288 156.45 21.992V24.136C156.45 24.7973 156.615 25.336 156.946 25.752C157.287 26.1573 157.724 26.36 158.258 26.36H159.362Z" fill="#FCB433"/>
<defs>
<linearGradient id="paint0_linear_734_284" x1="252.244" y1="28.7051" x2="195.336" y2="37.4047" gradientUnits="userSpaceOnUse">
<stop stop-color="#FCB433"/>
<stop offset="1" stop-color="#966B1E"/>
</linearGradient>
<linearGradient id="paint1_linear_734_284" x1="252.244" y1="28.7051" x2="195.336" y2="37.4047" gradientUnits="userSpaceOnUse">
<stop stop-color="#FCB433"/>
<stop offset="1" stop-color="#966B1E"/>
</linearGradient>
<linearGradient id="paint2_linear_734_284" x1="79.9565" y1="29.7656" x2="58.6004" y2="6.17143" gradientUnits="userSpaceOnUse">
<stop stop-color="#FCB433"/>
<stop offset="1" stop-color="#966B1E"/>
</linearGradient>
<linearGradient id="paint3_linear_734_284" x1="74.3137" y1="18.8086" x2="70.054" y2="27.4366" gradientUnits="userSpaceOnUse">
<stop stop-color="#FCB433"/>
<stop offset="1" stop-color="#966B1E"/>
</linearGradient>
<linearGradient id="paint4_linear_734_284" x1="75.1374" y1="17.7129" x2="68.629" y2="30.4959" gradientUnits="userSpaceOnUse">
<stop stop-color="#FCB433"/>
<stop offset="1" stop-color="#966B1E"/>
</linearGradient>
</defs>
</svg>
