<svg width="100" height="43" viewBox="0 0 100 43" fill="none" xmlns="http://www.w3.org/2000/svg">
<rect opacity="0.7" x="98.5" y="1" width="40.9816" height="97.5" rx="14" transform="rotate(90 98.5 1)" fill="url(#paint0_linear_720_264)" fill-opacity="0.15" stroke="url(#paint1_linear_720_264)" stroke-width="2"/>
<path d="M39.5733 17.568H36.0213V16.8H44.0053V17.568H40.4533V28H39.5733V17.568ZM46.5346 28.128C45.6919 28.128 45.0092 27.872 44.4866 27.36C43.9746 26.848 43.7186 26.1707 43.7186 25.328V22.848C43.7186 21.9627 43.9746 21.248 44.4866 20.704C45.0092 20.16 45.6919 19.888 46.5346 19.888H47.8466C48.6572 19.888 49.3079 20.1547 49.7986 20.688C50.2999 21.2107 50.5506 21.9093 50.5506 22.784V24.128L44.5826 24.128V25.328C44.5826 25.936 44.7586 26.4267 45.1106 26.8C45.4732 27.1733 45.9479 27.36 46.5346 27.36H47.7506C48.3266 27.36 48.7906 27.1947 49.1426 26.864C49.5052 26.5227 49.6866 26.08 49.6866 25.536H50.5186C50.5186 26.3147 50.2626 26.944 49.7506 27.424C49.2492 27.8933 48.5826 28.128 47.7506 28.128H46.5346ZM49.7026 23.392V22.784C49.7026 22.144 49.5319 21.632 49.1906 21.248C48.8492 20.8533 48.4012 20.656 47.8466 20.656H46.5346C45.9479 20.656 45.4732 20.8587 45.1106 21.264C44.7586 21.6693 44.5826 22.1973 44.5826 22.848V23.392L49.7026 23.392ZM54.8693 28.128C54.112 28.128 53.4986 27.9093 53.0293 27.472C52.5706 27.024 52.3413 26.4373 52.3413 25.712H53.1733C53.1733 26.2027 53.328 26.6027 53.6373 26.912C53.9573 27.2213 54.368 27.376 54.8693 27.376H56.2453C56.768 27.376 57.184 27.2693 57.4933 27.056C57.8133 26.8427 57.9733 26.5653 57.9733 26.224V25.6C57.9733 25.3653 57.8826 25.1573 57.7013 24.976C57.5306 24.7947 57.3066 24.6773 57.0293 24.624L54.2453 24.144C53.7226 24.0587 53.3013 23.8613 52.9813 23.552C52.672 23.232 52.5173 22.8587 52.5173 22.432V21.888C52.5173 21.2907 52.736 20.8107 53.1733 20.448C53.6213 20.0747 54.208 19.888 54.9333 19.888H56.2933C56.9973 19.888 57.5626 20.0907 57.9893 20.496C58.4266 20.9013 58.6453 21.4347 58.6453 22.096H57.8133C57.792 21.6587 57.6426 21.3067 57.3653 21.04C57.0986 20.7733 56.7413 20.64 56.2933 20.64H54.9333C54.464 20.64 54.0853 20.7573 53.7973 20.992C53.5093 21.216 53.3653 21.5147 53.3653 21.888V22.4C53.3653 22.6453 53.4613 22.864 53.6533 23.056C53.8453 23.2373 54.096 23.3493 54.4053 23.392L57.1893 23.872C57.68 23.9573 58.0746 24.1547 58.3733 24.464C58.672 24.7733 58.8213 25.1413 58.8213 25.568V26.24C58.8213 26.8053 58.5866 27.264 58.1173 27.616C57.648 27.9573 57.024 28.128 56.2453 28.128H54.8693ZM63.9067 28C63.096 28 62.5147 27.8293 62.1627 27.488C61.8107 27.136 61.6347 26.56 61.6347 25.76V20.784H60.2267V20.016H61.6347V17.6H62.4827V20.016H64.5627V20.784H62.4827V25.76C62.4827 26.2827 62.5894 26.6613 62.8027 26.896C63.016 27.12 63.3734 27.232 63.8747 27.232H64.5627V28H63.9067Z" fill="#FCB433"/>
<defs>
<linearGradient id="paint0_linear_720_264" x1="138.744" y1="13.4092" x2="86.1402" y2="30.6241" gradientUnits="userSpaceOnUse">
<stop stop-color="#FCB433"/>
<stop offset="1" stop-color="#966B1E"/>
</linearGradient>
<linearGradient id="paint1_linear_720_264" x1="138.744" y1="13.4092" x2="86.1402" y2="30.6241" gradientUnits="userSpaceOnUse">
<stop stop-color="#FCB433"/>
<stop offset="1" stop-color="#966B1E"/>
</linearGradient>
</defs>
</svg>
