<svg width="127" height="16" viewBox="0 0 127 16" fill="none" xmlns="http://www.w3.org/2000/svg">
<path d="M3.504 14C3.20533 14 2.97067 13.92 2.8 13.76C2.62933 13.5893 2.512 13.3227 2.448 12.96L0.544 2.8H1.712L3.456 12.464H3.472L6.288 3.392H6.784C6.976 3.392 7.13067 3.45067 7.248 3.568C7.36533 3.67467 7.46133 3.84533 7.536 4.08L10.032 12.464H10.048L11.792 2.8H12.96L11.056 12.96C10.992 13.3227 10.8747 13.5893 10.704 13.76C10.5333 13.92 10.2987 14 10 14H9.52L6.8 4.976H6.784L3.984 14H3.504ZM15.58 4.816C15.324 4.816 15.116 4.736 14.956 4.576C14.796 4.416 14.716 4.208 14.716 3.952C14.716 3.696 14.796 3.488 14.956 3.328C15.116 3.168 15.324 3.088 15.58 3.088C15.836 3.088 16.044 3.168 16.204 3.328C16.364 3.488 16.444 3.696 16.444 3.952C16.444 4.208 16.364 4.416 16.204 4.576C16.044 4.736 15.836 4.816 15.58 4.816ZM15.004 6.016H16.156V14H15.004V6.016ZM21.3523 14.128C20.8083 14.128 20.3229 14 19.8963 13.744C19.4696 13.488 19.1389 13.1307 18.9043 12.672C18.6696 12.2133 18.5523 11.68 18.5523 11.072V9.152C18.5523 8.512 18.6749 7.94667 18.9203 7.456C19.1656 6.95467 19.5123 6.57067 19.9603 6.304C20.4083 6.02667 20.9203 5.888 21.4963 5.888H22.6803C23.0429 5.888 23.3896 5.97333 23.7203 6.144C24.0616 6.31467 24.3336 6.54933 24.5363 6.848V2.8H25.6883V14H24.5683V12.816C24.3229 13.2107 24.0029 13.5307 23.6083 13.776C23.2136 14.0107 22.8296 14.128 22.4563 14.128H21.3523ZM22.4243 13.104C22.7656 13.104 23.0963 12.9973 23.4163 12.784C23.7363 12.56 23.9976 12.272 24.2003 11.92C24.4029 11.568 24.5149 11.2053 24.5363 10.832V8.816C24.4616 8.25067 24.2483 7.792 23.8963 7.44C23.5549 7.088 23.1389 6.912 22.6483 6.912H21.5283C20.9843 6.912 20.5416 7.12 20.2003 7.536C19.8696 7.94133 19.7043 8.48 19.7043 9.152V11.072C19.7043 11.6693 19.8589 12.16 20.1683 12.544C20.4883 12.9173 20.8936 13.104 21.3843 13.104H22.4243ZM31.2583 14C30.4156 14 29.8076 13.8187 29.4343 13.456C29.0716 13.0933 28.8903 12.496 28.8903 11.664V7.04H27.4823V6.016H28.8903V3.6H30.0423V6.016H32.1223V7.04H30.0423V11.664C30.0423 12.1333 30.1329 12.4693 30.3143 12.672C30.5063 12.8747 30.8209 12.976 31.2583 12.976H32.1223V14H31.2583ZM34.2316 2.8H35.3836V7.12C35.629 6.74667 35.9436 6.448 36.3276 6.224C36.7116 6 37.101 5.888 37.4956 5.888H38.6156C39.3516 5.888 39.9436 6.13867 40.3916 6.64C40.8503 7.14133 41.0796 7.79733 41.0796 8.608V14H39.9276V8.576C39.9276 8.08533 39.805 7.68533 39.5596 7.376C39.3143 7.06667 38.989 6.912 38.5836 6.912H37.5276C37.0263 6.912 36.5676 7.10933 36.1516 7.504C35.7463 7.888 35.4903 8.384 35.3836 8.992V14H34.2316V2.8ZM43.9631 8.128C43.7071 8.128 43.4991 8.048 43.3391 7.888C43.1791 7.728 43.0991 7.52 43.0991 7.264C43.0991 7.008 43.1791 6.8 43.3391 6.64C43.4991 6.48 43.7071 6.4 43.9631 6.4C44.2191 6.4 44.4271 6.48 44.5871 6.64C44.7471 6.8 44.8271 7.008 44.8271 7.264C44.8271 7.52 44.7471 7.728 44.5871 7.888C44.4271 8.048 44.2191 8.128 43.9631 8.128ZM43.9631 13.6C43.7071 13.6 43.4991 13.52 43.3391 13.36C43.1791 13.2 43.0991 12.992 43.0991 12.736C43.0991 12.48 43.1791 12.272 43.3391 12.112C43.4991 11.952 43.7071 11.872 43.9631 11.872C44.2191 11.872 44.4271 11.952 44.5871 12.112C44.7471 12.272 44.8271 12.48 44.8271 12.736C44.8271 12.992 44.7471 13.2 44.5871 13.36C44.4271 13.52 44.2191 13.6 43.9631 13.6Z" fill="url(#paint0_linear_720_255)"/>
<path d="M108.992 14.128C108.352 14.128 107.782 13.9787 107.28 13.68C106.79 13.3813 106.406 12.96 106.128 12.416C105.851 11.872 105.712 11.248 105.712 10.544V6.256C105.712 5.552 105.851 4.928 106.128 4.384C106.406 3.84 106.79 3.41867 107.28 3.12C107.782 2.82133 108.352 2.672 108.992 2.672H110.688C111.328 2.672 111.894 2.82133 112.384 3.12C112.875 3.41867 113.254 3.84 113.52 4.384C113.798 4.928 113.936 5.552 113.936 6.256V10.544C113.936 11.248 113.798 11.872 113.52 12.416C113.254 12.96 112.875 13.3813 112.384 13.68C111.894 13.9787 111.328 14.128 110.688 14.128H108.992ZM110.656 13.072C111.286 13.072 111.792 12.8427 112.176 12.384C112.56 11.9147 112.752 11.3013 112.752 10.544V6.256C112.752 5.49867 112.56 4.89067 112.176 4.432C111.792 3.96267 111.286 3.728 110.656 3.728H109.024C108.395 3.728 107.883 3.96267 107.488 4.432C107.094 4.89067 106.896 5.49867 106.896 6.256V10.544C106.896 11.3013 107.094 11.9147 107.488 12.384C107.883 12.8427 108.395 13.072 109.024 13.072H110.656ZM119.336 14.128C118.696 14.128 118.125 13.9787 117.624 13.68C117.133 13.3813 116.749 12.96 116.472 12.416C116.195 11.872 116.056 11.248 116.056 10.544V6.256C116.056 5.552 116.195 4.928 116.472 4.384C116.749 3.84 117.133 3.41867 117.624 3.12C118.125 2.82133 118.696 2.672 119.336 2.672H121.032C121.672 2.672 122.237 2.82133 122.728 3.12C123.219 3.41867 123.597 3.84 123.864 4.384C124.141 4.928 124.28 5.552 124.28 6.256V10.544C124.28 11.248 124.141 11.872 123.864 12.416C123.597 12.96 123.219 13.3813 122.728 13.68C122.237 13.9787 121.672 14.128 121.032 14.128H119.336ZM121 13.072C121.629 13.072 122.136 12.8427 122.52 12.384C122.904 11.9147 123.096 11.3013 123.096 10.544V6.256C123.096 5.49867 122.904 4.89067 122.52 4.432C122.136 3.96267 121.629 3.728 121 3.728H119.368C118.739 3.728 118.227 3.96267 117.832 4.432C117.437 4.89067 117.24 5.49867 117.24 6.256V10.544C117.24 11.3013 117.437 11.9147 117.832 12.384C118.227 12.8427 118.739 13.072 119.368 13.072H121Z" fill="url(#paint1_linear_720_255)"/>
<defs>
<linearGradient id="paint0_linear_720_255" x1="7.39726" y1="0.876712" x2="13.0853" y2="26.5769" gradientUnits="userSpaceOnUse">
<stop stop-color="#727272"/>
<stop offset="1" stop-color="white"/>
</linearGradient>
<linearGradient id="paint1_linear_720_255" x1="105.466" y1="0.876712" x2="117.889" y2="19.5872" gradientUnits="userSpaceOnUse">
<stop stop-color="#727272"/>
<stop offset="1" stop-color="white"/>
</linearGradient>
</defs>
</svg>
