<svg width="127" height="16" viewBox="0 0 127 16" fill="none" xmlns="http://www.w3.org/2000/svg">
<path d="M4.384 9.696L0.256 2.8H1.536L4.976 8.624L8.416 2.8H9.696L5.568 9.696V14H4.384V9.696ZM18.8134 14.128C18.0774 14.128 17.4267 13.9627 16.8614 13.632C16.296 13.3013 15.8534 12.832 15.5334 12.224C15.224 11.616 15.0694 10.912 15.0694 10.112V6.688C15.0694 5.888 15.224 5.184 15.5334 4.576C15.8534 3.968 16.296 3.49867 16.8614 3.168C17.4267 2.83733 18.0827 2.672 18.8294 2.672H20.5254C21.272 2.672 21.928 2.83733 22.4934 3.168C23.0587 3.49867 23.496 3.968 23.8054 4.576C24.1254 5.184 24.2854 5.888 24.2854 6.688V10.112C24.2854 10.912 24.1254 11.616 23.8054 12.224C23.496 12.8213 23.0534 13.2907 22.4774 13.632C21.912 13.9627 21.2614 14.128 20.5254 14.128H18.8134ZM20.4934 13.072C21.272 13.072 21.9014 12.8 22.3814 12.256C22.8614 11.712 23.1014 10.9973 23.1014 10.112V6.688C23.1014 5.80267 22.8614 5.088 22.3814 4.544C21.9014 4 21.272 3.728 20.4934 3.728H18.8614C18.0827 3.728 17.4534 4 16.9734 4.544C16.4934 5.088 16.2534 5.80267 16.2534 6.688V10.112C16.2534 10.9973 16.488 11.712 16.9574 12.256C17.4374 12.8 18.0667 13.072 18.8454 13.072H20.4934ZM27.266 7.04H25.89V6.016H27.266V5.392C27.266 4.51733 27.49 3.856 27.938 3.408C28.386 2.96 29.042 2.736 29.906 2.736H30.514V3.728H29.906C29.394 3.728 29.0153 3.86667 28.77 4.144C28.5353 4.41067 28.418 4.82667 28.418 5.392V6.016H30.338V7.04H28.418V14H27.266V7.04ZM33.016 7.04H31.64V6.016H33.016V5.392C33.016 4.51733 33.24 3.856 33.688 3.408C34.136 2.96 34.792 2.736 35.656 2.736H36.264V3.728H35.656C35.144 3.728 34.7653 3.86667 34.52 4.144C34.2853 4.41067 34.168 4.82667 34.168 5.392V6.016H36.088V7.04H34.168V14H33.016V7.04ZM40.0505 14.128C39.2398 14.128 38.5892 13.8987 38.0985 13.44C37.6078 12.9813 37.3625 12.3787 37.3625 11.632H38.4825C38.4825 12.08 38.6265 12.4427 38.9145 12.72C39.2025 12.9973 39.5812 13.136 40.0505 13.136H41.4425C41.9012 13.136 42.2745 13.0453 42.5625 12.864C42.8505 12.672 42.9945 12.4267 42.9945 12.128V11.584C42.9945 11.3813 42.9145 11.2053 42.7545 11.056C42.5945 10.896 42.3865 10.7893 42.1305 10.736L39.3625 10.256C38.8078 10.16 38.3598 9.952 38.0185 9.632C37.6878 9.30133 37.5225 8.91733 37.5225 8.48V7.952C37.5225 7.33333 37.7572 6.83733 38.2265 6.464C38.6958 6.08 39.3145 5.888 40.0825 5.888H41.4585C42.2052 5.888 42.8078 6.10133 43.2665 6.528C43.7252 6.944 43.9545 7.49867 43.9545 8.192H42.8345C42.8238 7.79733 42.6905 7.48267 42.4345 7.248C42.1892 7.00267 41.8638 6.88 41.4585 6.88H40.0825C39.6558 6.88 39.3145 6.98133 39.0585 7.184C38.8025 7.376 38.6745 7.632 38.6745 7.952V8.416C38.6745 8.61867 38.7598 8.8 38.9305 8.96C39.1118 9.12 39.3412 9.22133 39.6185 9.264L42.3705 9.744C42.9038 9.84 43.3305 10.048 43.6505 10.368C43.9812 10.688 44.1465 11.072 44.1465 11.52V12.16C44.1465 12.7467 43.8958 13.2213 43.3945 13.584C42.9038 13.9467 42.2532 14.128 41.4425 14.128H40.0505ZM48.747 14.128C47.851 14.128 47.131 13.8667 46.587 13.344C46.043 12.8107 45.771 12.1067 45.771 11.232V8.944C45.771 8.02667 46.043 7.29067 46.587 6.736C47.131 6.17067 47.851 5.888 48.747 5.888H50.059C50.9123 5.888 51.6003 6.16 52.123 6.704C52.6457 7.248 52.907 7.968 52.907 8.864V10.272H46.923V11.232C46.923 11.7867 47.0883 12.24 47.419 12.592C47.7603 12.9333 48.203 13.104 48.747 13.104H49.963C50.4963 13.104 50.9283 12.96 51.259 12.672C51.5897 12.3733 51.755 11.9787 51.755 11.488H52.875C52.875 12.2773 52.6083 12.9173 52.075 13.408C51.5417 13.888 50.8377 14.128 49.963 14.128H48.747ZM51.755 9.28V8.864C51.755 8.27733 51.6003 7.808 51.291 7.456C50.9817 7.09333 50.571 6.912 50.059 6.912H48.747C48.203 6.912 47.7603 7.09867 47.419 7.472C47.0883 7.84533 46.923 8.336 46.923 8.944V9.28H51.755ZM57.9614 14C57.1187 14 56.5107 13.8187 56.1374 13.456C55.7747 13.0933 55.5934 12.496 55.5934 11.664V7.04H54.1854V6.016H55.5934V3.6H56.7454V6.016H58.8254V7.04H56.7454V11.664C56.7454 12.1333 56.836 12.4693 57.0174 12.672C57.2094 12.8747 57.524 12.976 57.9614 12.976H58.8254V14H57.9614ZM61.4788 8.128C61.2228 8.128 61.0148 8.048 60.8548 7.888C60.6948 7.728 60.6148 7.52 60.6148 7.264C60.6148 7.008 60.6948 6.8 60.8548 6.64C61.0148 6.48 61.2228 6.4 61.4788 6.4C61.7348 6.4 61.9428 6.48 62.1028 6.64C62.2628 6.8 62.3428 7.008 62.3428 7.264C62.3428 7.52 62.2628 7.728 62.1028 7.888C61.9428 8.048 61.7348 8.128 61.4788 8.128ZM61.4788 13.6C61.2228 13.6 61.0148 13.52 60.8548 13.36C60.6948 13.2 60.6148 12.992 60.6148 12.736C60.6148 12.48 60.6948 12.272 60.8548 12.112C61.0148 11.952 61.2228 11.872 61.4788 11.872C61.7348 11.872 61.9428 11.952 62.1028 12.112C62.2628 12.272 62.3428 12.48 62.3428 12.736C62.3428 12.992 62.2628 13.2 62.1028 13.36C61.9428 13.52 61.7348 13.6 61.4788 13.6Z" fill="url(#paint0_linear_720_256)"/>
<path d="M108.992 14.128C108.352 14.128 107.782 13.9787 107.28 13.68C106.79 13.3813 106.406 12.96 106.128 12.416C105.851 11.872 105.712 11.248 105.712 10.544V6.256C105.712 5.552 105.851 4.928 106.128 4.384C106.406 3.84 106.79 3.41867 107.28 3.12C107.782 2.82133 108.352 2.672 108.992 2.672H110.688C111.328 2.672 111.894 2.82133 112.384 3.12C112.875 3.41867 113.254 3.84 113.52 4.384C113.798 4.928 113.936 5.552 113.936 6.256V10.544C113.936 11.248 113.798 11.872 113.52 12.416C113.254 12.96 112.875 13.3813 112.384 13.68C111.894 13.9787 111.328 14.128 110.688 14.128H108.992ZM110.656 13.072C111.286 13.072 111.792 12.8427 112.176 12.384C112.56 11.9147 112.752 11.3013 112.752 10.544V6.256C112.752 5.49867 112.56 4.89067 112.176 4.432C111.792 3.96267 111.286 3.728 110.656 3.728H109.024C108.395 3.728 107.883 3.96267 107.488 4.432C107.094 4.89067 106.896 5.49867 106.896 6.256V10.544C106.896 11.3013 107.094 11.9147 107.488 12.384C107.883 12.8427 108.395 13.072 109.024 13.072H110.656ZM119.336 14.128C118.696 14.128 118.125 13.9787 117.624 13.68C117.133 13.3813 116.749 12.96 116.472 12.416C116.195 11.872 116.056 11.248 116.056 10.544V6.256C116.056 5.552 116.195 4.928 116.472 4.384C116.749 3.84 117.133 3.41867 117.624 3.12C118.125 2.82133 118.696 2.672 119.336 2.672H121.032C121.672 2.672 122.237 2.82133 122.728 3.12C123.219 3.41867 123.597 3.84 123.864 4.384C124.141 4.928 124.28 5.552 124.28 6.256V10.544C124.28 11.248 124.141 11.872 123.864 12.416C123.597 12.96 123.219 13.3813 122.728 13.68C122.237 13.9787 121.672 14.128 121.032 14.128H119.336ZM121 13.072C121.629 13.072 122.136 12.8427 122.52 12.384C122.904 11.9147 123.096 11.3013 123.096 10.544V6.256C123.096 5.49867 122.904 4.89067 122.52 4.432C122.136 3.96267 121.629 3.728 121 3.728H119.368C118.739 3.728 118.227 3.96267 117.832 4.432C117.437 4.89067 117.24 5.49867 117.24 6.256V10.544C117.24 11.3013 117.437 11.9147 117.832 12.384C118.227 12.8427 118.739 13.072 119.368 13.072H121Z" fill="url(#paint1_linear_720_256)"/>
<defs>
<linearGradient id="paint0_linear_720_256" x1="7.39726" y1="0.876712" x2="13.0853" y2="26.5769" gradientUnits="userSpaceOnUse">
<stop stop-color="#727272"/>
<stop offset="1" stop-color="white"/>
</linearGradient>
<linearGradient id="paint1_linear_720_256" x1="105.466" y1="0.876712" x2="117.889" y2="19.5872" gradientUnits="userSpaceOnUse">
<stop stop-color="#727272"/>
<stop offset="1" stop-color="white"/>
</linearGradient>
</defs>
</svg>
