<svg width="127" height="18" viewBox="0 0 127 18" fill="none" xmlns="http://www.w3.org/2000/svg">
<path d="M2.32 14C1.98933 14 1.73333 13.9093 1.552 13.728C1.37067 13.536 1.28 13.2747 1.28 12.944V2.8H8.8V3.824H2.464V7.76H8.32V8.784H2.464V12.976H8.8V14H2.32ZM12.8578 9.92L9.97775 6.016H11.2898L13.5138 9.024L15.7378 6.016H17.0498L14.1698 9.92L17.1778 14H15.8658L13.5138 10.816L11.1618 14H9.84975L12.8578 9.92ZM18.6535 6.016H19.7735V7.104C19.9975 6.74133 20.2908 6.448 20.6535 6.224C21.0268 6 21.4002 5.888 21.7735 5.888H22.9255C23.7788 5.888 24.4668 6.16 24.9895 6.704C25.5228 7.248 25.7895 7.968 25.7895 8.864V10.832C25.7895 11.824 25.5175 12.624 24.9735 13.232C24.4402 13.8293 23.7308 14.128 22.8455 14.128H21.6935C21.3628 14.128 21.0162 14.0373 20.6535 13.856C20.2908 13.664 20.0082 13.4187 19.8055 13.12V17.184H18.6535V6.016ZM22.8135 13.104C23.3682 13.104 23.8108 12.896 24.1415 12.48C24.4722 12.064 24.6375 11.5147 24.6375 10.832V8.864C24.6375 8.27733 24.4775 7.808 24.1575 7.456C23.8375 7.09333 23.4162 6.912 22.8935 6.912H21.7735C21.3255 6.912 20.9202 7.088 20.5575 7.44C20.1948 7.78133 19.9442 8.224 19.8055 8.768V11.168C19.8802 11.7333 20.0988 12.1973 20.4615 12.56C20.8242 12.9227 21.2562 13.104 21.7575 13.104H22.8135ZM30.5595 14.128C29.6635 14.128 28.9435 13.8507 28.3995 13.296C27.8555 12.7413 27.5835 12.0107 27.5835 11.104V8.912C27.5835 8.00533 27.8555 7.27467 28.3995 6.72C28.9542 6.16533 29.6848 5.888 30.5915 5.888H31.9035C32.8102 5.888 33.5355 6.16533 34.0795 6.72C34.6342 7.27467 34.9115 8.00533 34.9115 8.912V11.104C34.9115 12.0107 34.6342 12.7413 34.0795 13.296C33.5248 13.8507 32.7888 14.128 31.8715 14.128H30.5595ZM31.8715 13.104C32.4475 13.104 32.9062 12.9227 33.2475 12.56C33.5888 12.1867 33.7595 11.7013 33.7595 11.104V8.912C33.7595 8.31467 33.5888 7.83467 33.2475 7.472C32.9062 7.09867 32.4582 6.912 31.9035 6.912H30.5915C30.0368 6.912 29.5888 7.09867 29.2475 7.472C28.9062 7.83467 28.7355 8.31467 28.7355 8.912V11.104C28.7355 11.712 28.9008 12.1973 29.2315 12.56C29.5622 12.9227 30.0048 13.104 30.5595 13.104H31.8715ZM39.3005 14.128C38.4898 14.128 37.8392 13.8987 37.3485 13.44C36.8578 12.9813 36.6125 12.3787 36.6125 11.632H37.7325C37.7325 12.08 37.8765 12.4427 38.1645 12.72C38.4525 12.9973 38.8312 13.136 39.3005 13.136H40.6925C41.1512 13.136 41.5245 13.0453 41.8125 12.864C42.1005 12.672 42.2445 12.4267 42.2445 12.128V11.584C42.2445 11.3813 42.1645 11.2053 42.0045 11.056C41.8445 10.896 41.6365 10.7893 41.3805 10.736L38.6125 10.256C38.0578 10.16 37.6098 9.952 37.2685 9.632C36.9378 9.30133 36.7725 8.91733 36.7725 8.48V7.952C36.7725 7.33333 37.0072 6.83733 37.4765 6.464C37.9458 6.08 38.5645 5.888 39.3325 5.888H40.7085C41.4552 5.888 42.0578 6.10133 42.5165 6.528C42.9752 6.944 43.2045 7.49867 43.2045 8.192H42.0845C42.0738 7.79733 41.9405 7.48267 41.6845 7.248C41.4392 7.00267 41.1138 6.88 40.7085 6.88H39.3325C38.9058 6.88 38.5645 6.98133 38.3085 7.184C38.0525 7.376 37.9245 7.632 37.9245 7.952V8.416C37.9245 8.61867 38.0098 8.8 38.1805 8.96C38.3618 9.12 38.5912 9.22133 38.8685 9.264L41.6205 9.744C42.1538 9.84 42.5805 10.048 42.9005 10.368C43.2312 10.688 43.3965 11.072 43.3965 11.52V12.16C43.3965 12.7467 43.1458 13.2213 42.6445 13.584C42.1538 13.9467 41.5032 14.128 40.6925 14.128H39.3005ZM47.725 14.128C46.989 14.128 46.3917 13.8773 45.933 13.376C45.4743 12.8747 45.245 12.2187 45.245 11.408V6.016H46.397V11.44C46.397 11.9413 46.5197 12.3467 46.765 12.656C47.0103 12.9547 47.3303 13.104 47.725 13.104H48.717C49.2077 13.104 49.661 12.9067 50.077 12.512C50.493 12.1173 50.7597 11.6213 50.877 11.024V6.016H52.029V14H50.909V12.784C50.6637 13.168 50.3383 13.488 49.933 13.744C49.5277 14 49.133 14.128 48.749 14.128H47.725ZM54.466 6.016H55.586V7.248C55.7993 6.87467 56.1193 6.57067 56.546 6.336C56.9833 6.10133 57.4367 5.984 57.906 5.984H58.61V7.024H57.906C57.2233 7.024 56.6687 7.24267 56.242 7.68C55.826 8.10667 55.618 8.67733 55.618 9.392V14H54.466V6.016ZM62.5595 14.128C61.6635 14.128 60.9435 13.8667 60.3995 13.344C59.8555 12.8107 59.5835 12.1067 59.5835 11.232V8.944C59.5835 8.02667 59.8555 7.29067 60.3995 6.736C60.9435 6.17067 61.6635 5.888 62.5595 5.888H63.8715C64.7248 5.888 65.4128 6.16 65.9355 6.704C66.4582 7.248 66.7195 7.968 66.7195 8.864V10.272H60.7355V11.232C60.7355 11.7867 60.9008 12.24 61.2315 12.592C61.5728 12.9333 62.0155 13.104 62.5595 13.104H63.7755C64.3088 13.104 64.7408 12.96 65.0715 12.672C65.4022 12.3733 65.5675 11.9787 65.5675 11.488H66.6875C66.6875 12.2773 66.4208 12.9173 65.8875 13.408C65.3542 13.888 64.6502 14.128 63.7755 14.128H62.5595ZM65.5675 9.28V8.864C65.5675 8.27733 65.4128 7.808 65.1035 7.456C64.7942 7.09333 64.3835 6.912 63.8715 6.912H62.5595C62.0155 6.912 61.5728 7.09867 61.2315 7.472C60.9008 7.84533 60.7355 8.336 60.7355 8.944V9.28H65.5675ZM69.2756 8.128C69.0196 8.128 68.8116 8.048 68.6516 7.888C68.4916 7.728 68.4116 7.52 68.4116 7.264C68.4116 7.008 68.4916 6.8 68.6516 6.64C68.8116 6.48 69.0196 6.4 69.2756 6.4C69.5316 6.4 69.7396 6.48 69.8996 6.64C70.0596 6.8 70.1396 7.008 70.1396 7.264C70.1396 7.52 70.0596 7.728 69.8996 7.888C69.7396 8.048 69.5316 8.128 69.2756 8.128ZM69.2756 13.6C69.0196 13.6 68.8116 13.52 68.6516 13.36C68.4916 13.2 68.4116 12.992 68.4116 12.736C68.4116 12.48 68.4916 12.272 68.6516 12.112C68.8116 11.952 69.0196 11.872 69.2756 11.872C69.5316 11.872 69.7396 11.952 69.8996 12.112C70.0596 12.272 70.1396 12.48 70.1396 12.736C70.1396 12.992 70.0596 13.2 69.8996 13.36C69.7396 13.52 69.5316 13.6 69.2756 13.6Z" fill="url(#paint0_linear_720_259)"/>
<path d="M108.992 14.128C108.352 14.128 107.782 13.9787 107.28 13.68C106.79 13.3813 106.406 12.96 106.128 12.416C105.851 11.872 105.712 11.248 105.712 10.544V6.256C105.712 5.552 105.851 4.928 106.128 4.384C106.406 3.84 106.79 3.41867 107.28 3.12C107.782 2.82133 108.352 2.672 108.992 2.672H110.688C111.328 2.672 111.894 2.82133 112.384 3.12C112.875 3.41867 113.254 3.84 113.52 4.384C113.798 4.928 113.936 5.552 113.936 6.256V10.544C113.936 11.248 113.798 11.872 113.52 12.416C113.254 12.96 112.875 13.3813 112.384 13.68C111.894 13.9787 111.328 14.128 110.688 14.128H108.992ZM110.656 13.072C111.286 13.072 111.792 12.8427 112.176 12.384C112.56 11.9147 112.752 11.3013 112.752 10.544V6.256C112.752 5.49867 112.56 4.89067 112.176 4.432C111.792 3.96267 111.286 3.728 110.656 3.728H109.024C108.395 3.728 107.883 3.96267 107.488 4.432C107.094 4.89067 106.896 5.49867 106.896 6.256V10.544C106.896 11.3013 107.094 11.9147 107.488 12.384C107.883 12.8427 108.395 13.072 109.024 13.072H110.656ZM119.336 14.128C118.696 14.128 118.125 13.9787 117.624 13.68C117.133 13.3813 116.749 12.96 116.472 12.416C116.195 11.872 116.056 11.248 116.056 10.544V6.256C116.056 5.552 116.195 4.928 116.472 4.384C116.749 3.84 117.133 3.41867 117.624 3.12C118.125 2.82133 118.696 2.672 119.336 2.672H121.032C121.672 2.672 122.237 2.82133 122.728 3.12C123.219 3.41867 123.597 3.84 123.864 4.384C124.141 4.928 124.28 5.552 124.28 6.256V10.544C124.28 11.248 124.141 11.872 123.864 12.416C123.597 12.96 123.219 13.3813 122.728 13.68C122.237 13.9787 121.672 14.128 121.032 14.128H119.336ZM121 13.072C121.629 13.072 122.136 12.8427 122.52 12.384C122.904 11.9147 123.096 11.3013 123.096 10.544V6.256C123.096 5.49867 122.904 4.89067 122.52 4.432C122.136 3.96267 121.629 3.728 121 3.728H119.368C118.739 3.728 118.227 3.96267 117.832 4.432C117.437 4.89067 117.24 5.49867 117.24 6.256V10.544C117.24 11.3013 117.437 11.9147 117.832 12.384C118.227 12.8427 118.739 13.072 119.368 13.072H121Z" fill="url(#paint1_linear_720_259)"/>
<defs>
<linearGradient id="paint0_linear_720_259" x1="7.39726" y1="0.876712" x2="13.0853" y2="26.5769" gradientUnits="userSpaceOnUse">
<stop stop-color="#727272"/>
<stop offset="1" stop-color="white"/>
</linearGradient>
<linearGradient id="paint1_linear_720_259" x1="105.466" y1="0.876712" x2="117.889" y2="19.5872" gradientUnits="userSpaceOnUse">
<stop stop-color="#727272"/>
<stop offset="1" stop-color="white"/>
</linearGradient>
</defs>
</svg>
