<svg width="33" height="109" viewBox="0 0 33 109" fill="none" xmlns="http://www.w3.org/2000/svg">
<path d="M10.872 25.3651C10.872 24.6611 11.0373 24.0424 11.368 23.5091C11.6987 22.9864 12.1627 22.5757 12.76 22.2771C13.368 21.9891 14.0667 21.8451 14.856 21.8451L18.36 21.8451C19.1493 21.8451 19.8427 21.9944 20.44 22.2931C21.0373 22.5917 21.5013 23.0131 21.832 23.5571C22.1627 24.1011 22.328 24.7251 22.328 25.4291L22.328 27.1251C22.328 27.8077 22.184 28.4051 21.896 28.9171C21.608 29.4397 21.2027 29.8397 20.68 30.1171C20.168 30.4051 19.576 30.5491 18.904 30.5491L18.904 29.7011C19.6933 29.7011 20.328 29.4664 20.808 28.9971C21.2987 28.5277 21.544 27.9037 21.544 27.1251L21.544 25.4291C21.544 24.6184 21.2507 23.9624 20.664 23.4611C20.0773 22.9704 19.3093 22.7251 18.36 22.7251L14.856 22.7251C13.896 22.7251 13.1227 22.9651 12.536 23.4451C11.96 23.9357 11.672 24.5757 11.672 25.3651L11.672 27.0931C11.672 27.8931 11.9387 28.5384 12.472 29.0291C13.016 29.5304 13.7253 29.7811 14.6 29.7811L15.88 29.7811L15.88 26.5971L16.664 26.5971L16.664 30.6291L14.6 30.6291C13.864 30.6291 13.2133 30.4797 12.648 30.1811C12.0827 29.8931 11.6453 29.4824 11.336 28.9491C11.0267 28.4157 10.872 27.7971 10.872 27.0931L10.872 25.3651ZM18.984 32.9292L18.984 33.7612L17.688 33.7612C18.0933 33.9959 18.4133 34.3319 18.648 34.7692C18.8933 35.2065 19.016 35.6759 19.016 36.1772L19.016 36.7692L18.248 36.7692L18.248 36.1612C18.248 35.4679 18.024 34.8972 17.576 34.4492C17.128 34.0119 16.5467 33.7932 15.832 33.7932L11 33.7932L11 32.9292L18.984 32.9292ZM10.872 40.4337C10.872 39.687 11.064 39.0897 11.448 38.6417C11.8427 38.1937 12.3653 37.9697 13.016 37.9697L13.624 37.9697C14.2747 37.9697 14.792 38.199 15.176 38.6577C15.56 39.1164 15.752 39.7244 15.752 40.4817L15.752 41.5217C15.752 41.8844 15.6933 42.2577 15.576 42.6417C15.4587 43.0364 15.2987 43.3724 15.096 43.6497L16.648 43.6497C17.1493 43.6497 17.56 43.495 17.88 43.1857C18.2 42.8764 18.36 42.4764 18.36 41.9857L18.36 40.7377C18.36 40.2364 18.2427 39.831 18.008 39.5217C17.7733 39.2124 17.4587 39.0577 17.064 39.0577L17.064 38.1937C17.6827 38.1937 18.1787 38.4284 18.552 38.8977C18.9253 39.367 19.112 39.9804 19.112 40.7377L19.112 41.9857C19.112 42.743 18.888 43.3457 18.44 43.7937C17.992 44.2524 17.3947 44.4817 16.648 44.4817L11 44.4817L11 43.6657L12.248 43.6657C11.8213 43.3884 11.4853 43.047 11.24 42.6417C10.9947 42.2364 10.872 41.8257 10.872 41.4097L10.872 40.4337ZM11.64 41.4257C11.64 41.8737 11.8 42.3004 12.12 42.7057C12.44 43.1217 12.8613 43.4364 13.384 43.6497L14.248 43.6497C14.472 43.415 14.6533 43.1004 14.792 42.7057C14.9307 42.3217 15 41.927 15 41.5217L15 40.4817C15 39.9804 14.872 39.5804 14.616 39.2817C14.3707 38.983 14.04 38.8337 13.624 38.8337L13.016 38.8337C12.6 38.8337 12.264 38.9777 12.008 39.2657C11.7627 39.5537 11.64 39.943 11.64 40.4337L11.64 41.4257ZM10.872 49.9833C10.872 49.5993 10.9947 49.2046 11.24 48.7993C11.496 48.4046 11.816 48.0846 12.2 47.8393L11 47.8393L11 47.0073L22.2 47.0073L22.2 47.8713L17.864 47.8713C18.248 48.106 18.552 48.4153 18.776 48.7993C19 49.194 19.112 49.6153 19.112 50.0633L19.112 51.1833C19.112 51.9726 18.8453 52.6126 18.312 53.1033C17.7787 53.594 17.0747 53.8393 16.2 53.8393L13.96 53.8393C13.0427 53.8393 12.296 53.5833 11.72 53.0713C11.1547 52.57 10.872 51.9086 10.872 51.0873L10.872 49.9833ZM11.64 51.0713C11.64 51.6366 11.8533 52.0953 12.28 52.4473C12.7067 52.81 13.2667 52.9913 13.96 52.9913L16.2 52.9913C16.84 52.9913 17.3573 52.8206 17.752 52.4793C18.1467 52.1486 18.344 51.7113 18.344 51.1673L18.344 50.0953C18.344 49.4873 18.1307 48.9753 17.704 48.5593C17.288 48.154 16.7387 47.9246 16.056 47.8713L13.656 47.8713C13.112 47.9673 12.6373 48.218 12.232 48.6233C11.8373 49.0393 11.64 49.4926 11.64 49.9833L11.64 51.0713ZM10.872 59.1239C10.872 58.7399 10.9947 58.3453 11.24 57.9399C11.496 57.5453 11.816 57.2253 12.2 56.9799L11 56.9799L11 56.1479L22.2 56.1479L22.2 57.0119L17.864 57.0119C18.248 57.2466 18.552 57.5559 18.776 57.9399C19 58.3346 19.112 58.7559 19.112 59.2039L19.112 60.3239C19.112 61.1133 18.8453 61.7533 18.312 62.2439C17.7787 62.7346 17.0747 62.9799 16.2 62.9799L13.96 62.9799C13.0427 62.9799 12.296 62.7239 11.72 62.2119C11.1547 61.7106 10.872 61.0493 10.872 60.2279L10.872 59.1239ZM11.64 60.2119C11.64 60.7773 11.8533 61.2359 12.28 61.5879C12.7067 61.9506 13.2667 62.1319 13.96 62.1319L16.2 62.1319C16.84 62.1319 17.3573 61.9613 17.752 61.6199C18.1467 61.2893 18.344 60.8519 18.344 60.3079L18.344 59.2359C18.344 58.6279 18.1307 58.1159 17.704 57.6999C17.288 57.2946 16.7387 57.0653 16.056 57.0119L13.656 57.0119C13.112 57.1079 12.6373 57.3586 12.232 57.7639C11.8373 58.1799 11.64 58.6333 11.64 59.1239L11.64 60.2119ZM20.344 66.0086C20.344 65.7952 20.408 65.6192 20.536 65.4806C20.664 65.3526 20.8347 65.2886 21.048 65.2886C21.2613 65.2886 21.432 65.3526 21.56 65.4806C21.6987 65.6192 21.768 65.7952 21.768 66.0086C21.768 66.2219 21.6987 66.3926 21.56 66.5206C21.432 66.6486 21.2613 66.7126 21.048 66.7126C20.8453 66.7126 20.6747 66.6486 20.536 66.5206C20.408 66.3926 20.344 66.2219 20.344 66.0086ZM18.984 65.5766L18.984 66.4246L11 66.4246L11 65.5766L18.984 65.5766ZM18.984 69.3354L18.984 70.1674L17.624 70.1674C18.0827 70.4341 18.4453 70.7701 18.712 71.1754C18.9787 71.5914 19.112 72.0128 19.112 72.4394L19.112 73.5114C19.112 74.2048 18.8667 74.7648 18.376 75.1914C17.896 75.6288 17.256 75.8474 16.456 75.8474L11 75.8474L11 74.9994L16.472 74.9994C17.0267 74.9994 17.4747 74.8608 17.816 74.5834C18.168 74.3061 18.344 73.9434 18.344 73.4954L18.344 72.4554C18.344 71.9754 18.1467 71.5221 17.752 71.0954C17.3573 70.6688 16.8453 70.3701 16.216 70.1994L11 70.1994L11 69.3354L18.984 69.3354ZM7.752 80.8303C7.752 80.169 7.928 79.625 8.28 79.1983C8.62133 78.7716 9.07466 78.5316 9.64 78.4783L9.64 79.3423C9.29866 79.385 9.02666 79.5396 8.824 79.8063C8.61066 80.0836 8.504 80.425 8.504 80.8303L8.504 82.1583C8.504 82.7556 8.70133 83.2196 9.096 83.5503C9.48 83.881 10.0187 84.0463 10.712 84.0463L12.28 84.0463C11.896 83.7903 11.5867 83.465 11.352 83.0703C11.1173 82.6863 11 82.297 11 81.9023L11 80.7183C11 79.929 11.272 79.289 11.816 78.7983C12.36 78.3076 13.08 78.0623 13.976 78.0623L16.04 78.0623C16.9573 78.0623 17.6987 78.3183 18.264 78.8303C18.8293 79.353 19.112 80.041 19.112 80.8943L19.112 82.0783C19.112 82.4623 19.0053 82.8356 18.792 83.1983C18.5893 83.5716 18.3173 83.8596 17.976 84.0623L18.984 84.0623L18.984 84.8943L10.712 84.8943C9.784 84.8943 9.05866 84.6543 8.536 84.1743C8.01333 83.6943 7.752 83.0223 7.752 82.1583L7.752 80.8303ZM11.768 81.8863C11.768 82.4196 11.976 82.8836 12.392 83.2783C12.8187 83.6836 13.3147 83.9396 13.88 84.0463L16.536 84.0463C17.0693 83.9503 17.5013 83.7156 17.832 83.3423C18.1733 82.9796 18.344 82.5583 18.344 82.0783L18.344 80.9103C18.344 80.313 18.1307 79.833 17.704 79.4703C17.2773 79.1076 16.7227 78.9263 16.04 78.9263L13.976 78.9263C13.3253 78.9263 12.792 79.0916 12.376 79.4223C11.9707 79.7636 11.768 80.201 11.768 80.7343L11.768 81.8863Z" fill="white"/>
<path d="M1 108H8C21.2548 108 32 97.2548 32 84V25C32 11.7452 21.2548 1 8 1H1" stroke="url(#paint0_linear_734_285)" stroke-linecap="round"/>
<defs>
<linearGradient id="paint0_linear_734_285" x1="21.5" y1="6.35" x2="-27.0315" y2="37.2072" gradientUnits="userSpaceOnUse">
<stop stop-color="#727272"/>
<stop offset="1" stop-color="white"/>
</linearGradient>
</defs>
</svg>
