<svg width="127" height="16" viewBox="0 0 127 16" fill="none" xmlns="http://www.w3.org/2000/svg">
<path d="M4.224 8.288L0.416 2.8H1.744L4.896 7.312L8.048 2.8H9.36L5.552 8.288L9.52 14H8.192L4.896 9.248L1.584 14H0.256L4.224 8.288ZM18.6415 14.128C17.9055 14.128 17.2548 13.9627 16.6895 13.632C16.1242 13.3013 15.6815 12.832 15.3615 12.224C15.0522 11.616 14.8975 10.912 14.8975 10.112V6.688C14.8975 5.888 15.0522 5.184 15.3615 4.576C15.6815 3.968 16.1242 3.49867 16.6895 3.168C17.2548 2.83733 17.9108 2.672 18.6575 2.672H20.3535C21.1002 2.672 21.7562 2.83733 22.3215 3.168C22.8868 3.49867 23.3242 3.968 23.6335 4.576C23.9535 5.184 24.1135 5.888 24.1135 6.688V10.112C24.1135 10.912 23.9535 11.616 23.6335 12.224C23.3242 12.8213 22.8815 13.2907 22.3055 13.632C21.7402 13.9627 21.0895 14.128 20.3535 14.128H18.6415ZM20.3215 13.072C21.1002 13.072 21.7295 12.8 22.2095 12.256C22.6895 11.712 22.9295 10.9973 22.9295 10.112V6.688C22.9295 5.80267 22.6895 5.088 22.2095 4.544C21.7295 4 21.1002 3.728 20.3215 3.728H18.6895C17.9108 3.728 17.2815 4 16.8015 4.544C16.3215 5.088 16.0815 5.80267 16.0815 6.688V10.112C16.0815 10.9973 16.3162 11.712 16.7855 12.256C17.2655 12.8 17.8948 13.072 18.6735 13.072H20.3215ZM27.0941 7.04H25.7181V6.016H27.0941V5.392C27.0941 4.51733 27.3181 3.856 27.7661 3.408C28.2141 2.96 28.8701 2.736 29.7341 2.736H30.3421V3.728H29.7341C29.2221 3.728 28.8435 3.86667 28.5981 4.144C28.3635 4.41067 28.2461 4.82667 28.2461 5.392V6.016H30.1661V7.04H28.2461V14H27.0941V7.04ZM32.8441 7.04H31.4681V6.016H32.8441V5.392C32.8441 4.51733 33.0681 3.856 33.5161 3.408C33.9641 2.96 34.6201 2.736 35.4841 2.736H36.0921V3.728H35.4841C34.9721 3.728 34.5935 3.86667 34.3481 4.144C34.1135 4.41067 33.9961 4.82667 33.9961 5.392V6.016H35.9161V7.04H33.9961V14H32.8441V7.04ZM39.8786 14.128C39.068 14.128 38.4173 13.8987 37.9266 13.44C37.436 12.9813 37.1906 12.3787 37.1906 11.632H38.3106C38.3106 12.08 38.4546 12.4427 38.7426 12.72C39.0306 12.9973 39.4093 13.136 39.8786 13.136H41.2706C41.7293 13.136 42.1026 13.0453 42.3906 12.864C42.6786 12.672 42.8226 12.4267 42.8226 12.128V11.584C42.8226 11.3813 42.7426 11.2053 42.5826 11.056C42.4226 10.896 42.2146 10.7893 41.9586 10.736L39.1906 10.256C38.636 10.16 38.188 9.952 37.8466 9.632C37.516 9.30133 37.3506 8.91733 37.3506 8.48V7.952C37.3506 7.33333 37.5853 6.83733 38.0546 6.464C38.524 6.08 39.1426 5.888 39.9106 5.888H41.2866C42.0333 5.888 42.636 6.10133 43.0946 6.528C43.5533 6.944 43.7826 7.49867 43.7826 8.192H42.6626C42.652 7.79733 42.5186 7.48267 42.2626 7.248C42.0173 7.00267 41.692 6.88 41.2866 6.88H39.9106C39.484 6.88 39.1426 6.98133 38.8866 7.184C38.6306 7.376 38.5026 7.632 38.5026 7.952V8.416C38.5026 8.61867 38.588 8.8 38.7586 8.96C38.94 9.12 39.1693 9.22133 39.4466 9.264L42.1986 9.744C42.732 9.84 43.1586 10.048 43.4786 10.368C43.8093 10.688 43.9746 11.072 43.9746 11.52V12.16C43.9746 12.7467 43.724 13.2213 43.2226 13.584C42.732 13.9467 42.0813 14.128 41.2706 14.128H39.8786ZM48.5751 14.128C47.6791 14.128 46.9591 13.8667 46.4151 13.344C45.8711 12.8107 45.5991 12.1067 45.5991 11.232V8.944C45.5991 8.02667 45.8711 7.29067 46.4151 6.736C46.9591 6.17067 47.6791 5.888 48.5751 5.888H49.8871C50.7405 5.888 51.4285 6.16 51.9511 6.704C52.4738 7.248 52.7351 7.968 52.7351 8.864V10.272H46.7511V11.232C46.7511 11.7867 46.9165 12.24 47.2471 12.592C47.5885 12.9333 48.0311 13.104 48.5751 13.104H49.7911C50.3245 13.104 50.7565 12.96 51.0871 12.672C51.4178 12.3733 51.5831 11.9787 51.5831 11.488H52.7031C52.7031 12.2773 52.4365 12.9173 51.9031 13.408C51.3698 13.888 50.6658 14.128 49.7911 14.128H48.5751ZM51.5831 9.28V8.864C51.5831 8.27733 51.4285 7.808 51.1191 7.456C50.8098 7.09333 50.3991 6.912 49.8871 6.912H48.5751C48.0311 6.912 47.5885 7.09867 47.2471 7.472C46.9165 7.84533 46.7511 8.336 46.7511 8.944V9.28H51.5831ZM57.7895 14C56.9468 14 56.3388 13.8187 55.9655 13.456C55.6028 13.0933 55.4215 12.496 55.4215 11.664V7.04H54.0135V6.016H55.4215V3.6H56.5735V6.016H58.6535V7.04H56.5735V11.664C56.5735 12.1333 56.6642 12.4693 56.8455 12.672C57.0375 12.8747 57.3522 12.976 57.7895 12.976H58.6535V14H57.7895ZM61.3069 8.128C61.0509 8.128 60.8429 8.048 60.6829 7.888C60.5229 7.728 60.4429 7.52 60.4429 7.264C60.4429 7.008 60.5229 6.8 60.6829 6.64C60.8429 6.48 61.0509 6.4 61.3069 6.4C61.5629 6.4 61.7709 6.48 61.9309 6.64C62.0909 6.8 62.1709 7.008 62.1709 7.264C62.1709 7.52 62.0909 7.728 61.9309 7.888C61.7709 8.048 61.5629 8.128 61.3069 8.128ZM61.3069 13.6C61.0509 13.6 60.8429 13.52 60.6829 13.36C60.5229 13.2 60.4429 12.992 60.4429 12.736C60.4429 12.48 60.5229 12.272 60.6829 12.112C60.8429 11.952 61.0509 11.872 61.3069 11.872C61.5629 11.872 61.7709 11.952 61.9309 12.112C62.0909 12.272 62.1709 12.48 62.1709 12.736C62.1709 12.992 62.0909 13.2 61.9309 13.36C61.7709 13.52 61.5629 13.6 61.3069 13.6Z" fill="url(#paint0_linear_720_257)"/>
<path d="M108.992 14.128C108.352 14.128 107.782 13.9787 107.28 13.68C106.79 13.3813 106.406 12.96 106.128 12.416C105.851 11.872 105.712 11.248 105.712 10.544V6.256C105.712 5.552 105.851 4.928 106.128 4.384C106.406 3.84 106.79 3.41867 107.28 3.12C107.782 2.82133 108.352 2.672 108.992 2.672H110.688C111.328 2.672 111.894 2.82133 112.384 3.12C112.875 3.41867 113.254 3.84 113.52 4.384C113.798 4.928 113.936 5.552 113.936 6.256V10.544C113.936 11.248 113.798 11.872 113.52 12.416C113.254 12.96 112.875 13.3813 112.384 13.68C111.894 13.9787 111.328 14.128 110.688 14.128H108.992ZM110.656 13.072C111.286 13.072 111.792 12.8427 112.176 12.384C112.56 11.9147 112.752 11.3013 112.752 10.544V6.256C112.752 5.49867 112.56 4.89067 112.176 4.432C111.792 3.96267 111.286 3.728 110.656 3.728H109.024C108.395 3.728 107.883 3.96267 107.488 4.432C107.094 4.89067 106.896 5.49867 106.896 6.256V10.544C106.896 11.3013 107.094 11.9147 107.488 12.384C107.883 12.8427 108.395 13.072 109.024 13.072H110.656ZM119.336 14.128C118.696 14.128 118.125 13.9787 117.624 13.68C117.133 13.3813 116.749 12.96 116.472 12.416C116.195 11.872 116.056 11.248 116.056 10.544V6.256C116.056 5.552 116.195 4.928 116.472 4.384C116.749 3.84 117.133 3.41867 117.624 3.12C118.125 2.82133 118.696 2.672 119.336 2.672H121.032C121.672 2.672 122.237 2.82133 122.728 3.12C123.219 3.41867 123.597 3.84 123.864 4.384C124.141 4.928 124.28 5.552 124.28 6.256V10.544C124.28 11.248 124.141 11.872 123.864 12.416C123.597 12.96 123.219 13.3813 122.728 13.68C122.237 13.9787 121.672 14.128 121.032 14.128H119.336ZM121 13.072C121.629 13.072 122.136 12.8427 122.52 12.384C122.904 11.9147 123.096 11.3013 123.096 10.544V6.256C123.096 5.49867 122.904 4.89067 122.52 4.432C122.136 3.96267 121.629 3.728 121 3.728H119.368C118.739 3.728 118.227 3.96267 117.832 4.432C117.437 4.89067 117.24 5.49867 117.24 6.256V10.544C117.24 11.3013 117.437 11.9147 117.832 12.384C118.227 12.8427 118.739 13.072 119.368 13.072H121Z" fill="url(#paint1_linear_720_257)"/>
<defs>
<linearGradient id="paint0_linear_720_257" x1="7.39726" y1="0.876712" x2="13.0853" y2="26.5769" gradientUnits="userSpaceOnUse">
<stop stop-color="#727272"/>
<stop offset="1" stop-color="white"/>
</linearGradient>
<linearGradient id="paint1_linear_720_257" x1="105.466" y1="0.876712" x2="117.889" y2="19.5872" gradientUnits="userSpaceOnUse">
<stop stop-color="#727272"/>
<stop offset="1" stop-color="white"/>
</linearGradient>
</defs>
</svg>
