<svg width="100" height="43" viewBox="0 0 100 43" fill="none" xmlns="http://www.w3.org/2000/svg">
<rect opacity="0.7" x="99" y="1" width="40.9816" height="97.5" rx="14" transform="rotate(90 99 1)" fill="url(#paint0_linear_720_263)" fill-opacity="0.15" stroke="url(#paint1_linear_720_263)" stroke-width="2"/>
<path d="M41.3226 28.128C40.3732 28.128 39.6159 27.8453 39.0506 27.28C38.4959 26.7147 38.2186 25.9467 38.2186 24.976H39.0826C39.0826 25.7013 39.2852 26.2773 39.6906 26.704C40.0959 27.12 40.6452 27.328 41.3386 27.328L43.1306 27.328C43.8026 27.328 44.3412 27.1733 44.7466 26.864C45.1626 26.5547 45.3706 26.1493 45.3706 25.648V24.56C45.3706 24.1547 45.2212 23.808 44.9226 23.52C44.6239 23.232 44.2079 23.0453 43.6746 22.96L40.8106 22.48C40.0426 22.352 39.4399 22.0747 39.0026 21.648C38.5759 21.2213 38.3626 20.688 38.3626 20.048V19.12C38.3626 18.384 38.6399 17.792 39.1946 17.344C39.7492 16.896 40.4799 16.672 41.3866 16.672H43.1946C44.0586 16.672 44.7519 16.9333 45.2746 17.456C45.8079 17.9787 46.0746 18.6667 46.0746 19.52H45.2106C45.2106 18.9013 45.0239 18.4053 44.6506 18.032C44.2879 17.648 43.8026 17.456 43.1946 17.456H41.3866C40.7359 17.456 40.2132 17.6107 39.8186 17.92C39.4346 18.2187 39.2426 18.6187 39.2426 19.12V20.048C39.2426 20.4747 39.3866 20.832 39.6746 21.12C39.9626 21.408 40.3679 21.5947 40.8906 21.68L43.7386 22.176C44.5279 22.3147 45.1412 22.592 45.5786 23.008C46.0266 23.424 46.2506 23.9413 46.2506 24.56V25.648C46.2506 26.3947 45.9679 26.9973 45.4026 27.456C44.8372 27.904 44.0852 28.128 43.1466 28.128L41.3226 28.128ZM50.9564 28.128C50.1138 28.128 49.4311 27.872 48.9084 27.36C48.3964 26.848 48.1404 26.1707 48.1404 25.328V22.848C48.1404 21.9627 48.3964 21.248 48.9084 20.704C49.4311 20.16 50.1138 19.888 50.9564 19.888H52.2684C53.0791 19.888 53.7298 20.1547 54.2204 20.688C54.7218 21.2107 54.9724 21.9093 54.9724 22.784V24.128L49.0044 24.128V25.328C49.0044 25.936 49.1804 26.4267 49.5324 26.8C49.8951 27.1733 50.3698 27.36 50.9564 27.36H52.1724C52.7484 27.36 53.2124 27.1947 53.5644 26.864C53.9271 26.5227 54.1084 26.08 54.1084 25.536H54.9404C54.9404 26.3147 54.6844 26.944 54.1724 27.424C53.6711 27.8933 53.0044 28.128 52.1724 28.128H50.9564ZM54.1244 23.392V22.784C54.1244 22.144 53.9538 21.632 53.6124 21.248C53.2711 20.8533 52.8231 20.656 52.2684 20.656H50.9564C50.3698 20.656 49.8951 20.8587 49.5324 21.264C49.1804 21.6693 49.0044 22.1973 49.0044 22.848V23.392L54.1244 23.392ZM60.1254 28C59.3148 28 58.7334 27.8293 58.3814 27.488C58.0294 27.136 57.8534 26.56 57.8534 25.76V20.784H56.4454V20.016H57.8534V17.6H58.7014V20.016H60.7814V20.784H58.7014V25.76C58.7014 26.2827 58.8081 26.6613 59.0214 26.896C59.2348 27.12 59.5921 27.232 60.0934 27.232H60.7814V28H60.1254Z" fill="#FCB433"/>
<defs>
<linearGradient id="paint0_linear_720_263" x1="139.244" y1="13.4092" x2="86.6402" y2="30.6241" gradientUnits="userSpaceOnUse">
<stop stop-color="#FCB433"/>
<stop offset="1" stop-color="#966B1E"/>
</linearGradient>
<linearGradient id="paint1_linear_720_263" x1="139.244" y1="13.4092" x2="86.6402" y2="30.6241" gradientUnits="userSpaceOnUse">
<stop stop-color="#FCB433"/>
<stop offset="1" stop-color="#966B1E"/>
</linearGradient>
</defs>
</svg>
