<svg width="117" height="17" viewBox="0 0 117 17" fill="none" xmlns="http://www.w3.org/2000/svg">
<path d="M4.27697 13.144C3.11297 13.144 2.18297 12.796 1.48697 12.1C0.790969 11.404 0.442969 10.468 0.442969 9.292H2.11697C2.11697 10 2.31497 10.564 2.71097 10.984C3.11897 11.404 3.65297 11.614 4.31297 11.614H6.31097C6.97097 11.614 7.49897 11.476 7.89497 11.2C8.29097 10.912 8.48897 10.534 8.48897 10.066V9.094C8.48897 8.722 8.34497 8.41 8.05697 8.158C7.78097 7.906 7.38497 7.738 6.86897 7.654L3.59297 7.114C2.63297 6.958 1.88897 6.628 1.36097 6.124C0.844969 5.62 0.586969 4.99 0.586969 4.234V3.244C0.586969 2.344 0.928969 1.624 1.61297 1.084C2.30897 0.532 3.22097 0.256 4.34897 0.256H6.38297C7.09097 0.256 7.71497 0.406 8.25497 0.705999C8.80697 0.993999 9.23297 1.408 9.53297 1.948C9.83297 2.476 9.98297 3.088 9.98297 3.784H8.29097C8.29097 3.184 8.11697 2.704 7.76897 2.344C7.42097 1.972 6.95897 1.786 6.38297 1.786H4.34897C3.73697 1.786 3.23897 1.924 2.85497 2.2C2.48297 2.464 2.29697 2.83 2.29697 3.298V4.108C2.29697 4.492 2.42897 4.81 2.69297 5.062C2.96897 5.314 3.35897 5.488 3.86297 5.584L7.10297 6.142C8.09897 6.31 8.86097 6.64 9.38897 7.132C9.92897 7.612 10.199 8.218 10.199 8.95V10.12C10.199 11.032 9.84497 11.764 9.13697 12.316C8.44097 12.868 7.51097 13.144 6.34697 13.144H4.27697ZM14.9459 13.144C14.0459 13.144 13.3259 12.916 12.7859 12.46C12.2459 11.992 11.9759 11.374 11.9759 10.606V10.012C11.9759 9.256 12.2579 8.65 12.8219 8.194C13.3859 7.726 14.1239 7.492 15.0359 7.492H16.1699C16.5299 7.492 16.9139 7.546 17.3219 7.654C17.7299 7.762 18.0779 7.912 18.3659 8.104V6.79C18.3659 6.346 18.2279 5.992 17.9519 5.728C17.6759 5.452 17.3159 5.314 16.8719 5.314H15.3959C14.9399 5.314 14.5739 5.422 14.2979 5.638C14.0219 5.854 13.8839 6.136 13.8839 6.484H12.2279C12.2279 5.704 12.5159 5.074 13.0919 4.594C13.6799 4.114 14.4479 3.874 15.3959 3.874H16.8719C17.8199 3.874 18.5819 4.144 19.1579 4.684C19.7339 5.212 20.0219 5.914 20.0219 6.79V13H18.4559V11.794C18.1799 12.202 17.8199 12.532 17.3759 12.784C16.9319 13.024 16.4819 13.144 16.0259 13.144H14.9459ZM16.1159 11.758C16.6439 11.758 17.1119 11.608 17.5199 11.308C17.9279 10.996 18.2099 10.582 18.3659 10.066V9.526C18.1379 9.322 17.8259 9.16 17.4299 9.04C17.0339 8.92 16.6259 8.86 16.2059 8.86H15.0539C14.6339 8.86 14.2919 8.968 14.0279 9.184C13.7639 9.4 13.6319 9.688 13.6319 10.048V10.588C13.6319 10.948 13.7579 11.236 14.0099 11.452C14.2739 11.656 14.6219 11.758 15.0539 11.758H16.1159ZM32.4316 3.874C33.2596 3.874 33.9196 4.144 34.4116 4.684C34.9036 5.212 35.1496 5.938 35.1496 6.862V13H33.4756V6.844C33.4756 6.388 33.3676 6.028 33.1516 5.764C32.9356 5.488 32.6536 5.35 32.3056 5.35H31.3696C30.9136 5.35 30.5296 5.512 30.2176 5.836C29.9176 6.148 29.7256 6.58 29.6416 7.132V13H27.9496V6.916C27.9496 6.424 27.8476 6.04 27.6436 5.764C27.4516 5.488 27.1876 5.35 26.8516 5.35H25.9336C25.4776 5.35 25.0816 5.548 24.7456 5.944C24.4096 6.328 24.1996 6.838 24.1156 7.474V13H22.4416V4.018H24.0436V5.224C24.2836 4.804 24.5776 4.474 24.9256 4.234C25.2856 3.994 25.6516 3.874 26.0236 3.874H27.0676C27.5476 3.874 27.9616 3.994 28.3096 4.234C28.6696 4.474 28.9516 4.816 29.1556 5.26C29.4196 4.804 29.7436 4.462 30.1276 4.234C30.5116 3.994 30.9256 3.874 31.3696 3.874H32.4316ZM37.5588 4.018H39.1608V5.152C39.4128 4.768 39.7368 4.462 40.1328 4.234C40.5408 3.994 40.9488 3.874 41.3568 3.874H42.5988C43.6068 3.874 44.4168 4.186 45.0288 4.81C45.6528 5.434 45.9648 6.256 45.9648 7.276V9.418C45.9648 10.15 45.8208 10.798 45.5328 11.362C45.2568 11.926 44.8608 12.364 44.3448 12.676C43.8288 12.988 43.2348 13.144 42.5628 13.144H41.3028C40.9428 13.144 40.5648 13.048 40.1688 12.856C39.7848 12.664 39.4728 12.412 39.2328 12.1V16.582H37.5588V4.018ZM42.4188 11.668C42.9828 11.668 43.4328 11.458 43.7688 11.038C44.1048 10.618 44.2728 10.06 44.2728 9.364V7.33C44.2728 6.742 44.1048 6.268 43.7688 5.908C43.4448 5.536 43.0128 5.35 42.4728 5.35H41.2668C40.8228 5.35 40.4088 5.524 40.0248 5.872C39.6528 6.22 39.3888 6.676 39.2328 7.24V9.634C39.3048 10.234 39.5268 10.726 39.8988 11.11C40.2828 11.482 40.7388 11.668 41.2668 11.668H42.4188ZM50.8053 13C49.8573 13 49.1733 12.802 48.7533 12.406C48.3333 11.998 48.1233 11.344 48.1233 10.444V0.399999H49.7973V10.39C49.7973 10.798 49.8813 11.092 50.0493 11.272C50.2173 11.452 50.4933 11.542 50.8773 11.542H51.5973V13H50.8053ZM56.2655 13.144C55.2095 13.144 54.3575 12.844 53.7095 12.244C53.0735 11.632 52.7555 10.834 52.7555 9.85V7.366C52.7555 6.31 53.0735 5.464 53.7095 4.828C54.3575 4.192 55.2095 3.874 56.2655 3.874H57.7415C58.7615 3.874 59.5835 4.186 60.2075 4.81C60.8315 5.434 61.1435 6.262 61.1435 7.294V8.986H54.4295V9.85C54.4295 10.402 54.5975 10.846 54.9335 11.182C55.2695 11.518 55.7135 11.686 56.2655 11.686H57.6515C58.1915 11.686 58.6295 11.548 58.9655 11.272C59.3015 10.984 59.4695 10.606 59.4695 10.138H61.1075C61.1075 11.038 60.7895 11.764 60.1535 12.316C59.5175 12.868 58.6775 13.144 57.6335 13.144H56.2655ZM59.4695 7.654V7.294C59.4695 6.694 59.3075 6.214 58.9835 5.854C58.6715 5.494 58.2575 5.314 57.7415 5.314H56.2655C55.7135 5.314 55.2695 5.506 54.9335 5.89C54.5975 6.262 54.4295 6.76 54.4295 7.384V7.654H59.4695ZM68.2913 0.399999H70.0013V13H68.2913V0.399999ZM82.7578 3.874C83.5858 3.874 84.2458 4.144 84.7378 4.684C85.2298 5.212 85.4758 5.938 85.4758 6.862V13H83.8018V6.844C83.8018 6.388 83.6938 6.028 83.4778 5.764C83.2618 5.488 82.9798 5.35 82.6318 5.35H81.6958C81.2398 5.35 80.8558 5.512 80.5438 5.836C80.2438 6.148 80.0518 6.58 79.9678 7.132V13H78.2758V6.916C78.2758 6.424 78.1738 6.04 77.9698 5.764C77.7778 5.488 77.5138 5.35 77.1778 5.35H76.2598C75.8038 5.35 75.4078 5.548 75.0718 5.944C74.7358 6.328 74.5258 6.838 74.4418 7.474V13H72.7678V4.018H74.3698V5.224C74.6098 4.804 74.9038 4.474 75.2518 4.234C75.6118 3.994 75.9778 3.874 76.3498 3.874H77.3938C77.8738 3.874 78.2878 3.994 78.6358 4.234C78.9958 4.474 79.2778 4.816 79.4818 5.26C79.7458 4.804 80.0698 4.462 80.4538 4.234C80.8378 3.994 81.2518 3.874 81.6958 3.874H82.7578ZM90.567 13.144C89.667 13.144 88.947 12.916 88.407 12.46C87.867 11.992 87.597 11.374 87.597 10.606V10.012C87.597 9.256 87.879 8.65 88.443 8.194C89.007 7.726 89.745 7.492 90.657 7.492H91.791C92.151 7.492 92.535 7.546 92.943 7.654C93.351 7.762 93.699 7.912 93.987 8.104V6.79C93.987 6.346 93.849 5.992 93.573 5.728C93.297 5.452 92.937 5.314 92.493 5.314H91.017C90.561 5.314 90.195 5.422 89.919 5.638C89.643 5.854 89.505 6.136 89.505 6.484H87.849C87.849 5.704 88.137 5.074 88.713 4.594C89.301 4.114 90.069 3.874 91.017 3.874H92.493C93.441 3.874 94.203 4.144 94.779 4.684C95.355 5.212 95.643 5.914 95.643 6.79V13H94.077V11.794C93.801 12.202 93.441 12.532 92.997 12.784C92.553 13.024 92.103 13.144 91.647 13.144H90.567ZM91.737 11.758C92.265 11.758 92.733 11.608 93.141 11.308C93.549 10.996 93.831 10.582 93.987 10.066V9.526C93.759 9.322 93.447 9.16 93.051 9.04C92.655 8.92 92.247 8.86 91.827 8.86H90.675C90.255 8.86 89.913 8.968 89.649 9.184C89.385 9.4 89.253 9.688 89.253 10.048V10.588C89.253 10.948 89.379 11.236 89.631 11.452C89.895 11.656 90.243 11.758 90.675 11.758H91.737ZM101.177 16.654C100.325 16.654 99.6167 16.42 99.0527 15.952C98.5007 15.484 98.1947 14.872 98.1347 14.116H99.8087C99.8447 14.44 99.9887 14.704 100.241 14.908C100.493 15.112 100.805 15.214 101.177 15.214H102.707C103.247 15.214 103.667 15.022 103.967 14.638C104.279 14.266 104.435 13.75 104.435 13.09V11.884C104.171 12.208 103.841 12.472 103.445 12.676C103.049 12.88 102.671 12.982 102.311 12.982H101.015C100.367 12.982 99.7907 12.838 99.2867 12.55C98.7827 12.262 98.3927 11.854 98.1167 11.326C97.8407 10.798 97.7027 10.192 97.7027 9.508V7.492C97.7027 6.784 97.8467 6.154 98.1347 5.602C98.4347 5.05 98.8487 4.624 99.3767 4.324C99.9047 4.024 100.511 3.874 101.195 3.874H102.383C102.767 3.874 103.163 3.982 103.571 4.198C103.979 4.402 104.297 4.666 104.525 4.99V4.018H106.109V13.09C106.109 14.194 105.803 15.064 105.191 15.7C104.591 16.336 103.763 16.654 102.707 16.654H101.177ZM102.365 11.524C102.917 11.524 103.385 11.302 103.769 10.858C104.165 10.414 104.387 9.844 104.435 9.148V7.258C104.387 6.694 104.183 6.238 103.823 5.89C103.463 5.53 103.031 5.35 102.527 5.35H101.285C100.721 5.35 100.259 5.554 99.8987 5.962C99.5507 6.358 99.3767 6.886 99.3767 7.546V9.454C99.3767 10.066 99.5387 10.564 99.8627 10.948C100.187 11.332 100.595 11.524 101.087 11.524H102.365ZM111.777 13.144C110.721 13.144 109.869 12.844 109.221 12.244C108.585 11.632 108.267 10.834 108.267 9.85V7.366C108.267 6.31 108.585 5.464 109.221 4.828C109.869 4.192 110.721 3.874 111.777 3.874H113.253C114.273 3.874 115.095 4.186 115.719 4.81C116.343 5.434 116.655 6.262 116.655 7.294V8.986H109.941V9.85C109.941 10.402 110.109 10.846 110.445 11.182C110.781 11.518 111.225 11.686 111.777 11.686H113.163C113.703 11.686 114.141 11.548 114.477 11.272C114.813 10.984 114.981 10.606 114.981 10.138H116.619C116.619 11.038 116.301 11.764 115.665 12.316C115.029 12.868 114.189 13.144 113.145 13.144H111.777ZM114.981 7.654V7.294C114.981 6.694 114.819 6.214 114.495 5.854C114.183 5.494 113.769 5.314 113.253 5.314H111.777C111.225 5.314 110.781 5.506 110.445 5.89C110.109 6.262 109.941 6.76 109.941 7.384V7.654H114.981Z" fill="white"/>
</svg>
