<svg width="234" height="232" viewBox="0 0 234 232" fill="none" xmlns="http://www.w3.org/2000/svg">
<path d="M1 116C1 163.799 6.1967 192.38 23.073 209.112C31.5 217.467 42.9189 222.946 58.2865 226.332C73.6649 229.72 92.9352 231 117 231C141.065 231 160.335 229.72 175.714 226.332C191.081 222.946 202.5 217.467 210.927 209.112C227.803 192.38 233 163.799 233 116C233 68.2006 227.803 39.6199 210.927 22.8879C202.5 14.5329 191.081 9.05435 175.714 5.66823C160.335 2.27971 141.065 1 117 1C92.9352 1 73.6649 2.27971 58.2865 5.66823C42.9189 9.05435 31.5 14.5329 23.073 22.8879C6.1967 39.6199 1 68.2006 1 116Z" fill="url(#paint0_linear_1150_412)" fill-opacity="0.25" stroke="url(#paint1_linear_1150_412)" stroke-width="2" stroke-linecap="round" stroke-linejoin="round"/>
<path fill-rule="evenodd" clip-rule="evenodd" d="M81 87C81 99.5376 84.1324 108.39 89.8713 114.129C95.6103 119.868 104.462 123 117 123C129.538 123 138.39 119.868 144.129 114.129C149.636 108.622 152.743 100.248 152.985 88.5021C153.002 87.6738 153.672 87 154.5 87C155.328 87 156.002 87.6805 155.985 88.5087C155.487 113.503 142.492 126 117 126C91 126 78 113 78 87C78 61 91 48 117 48C137.465 48 149.876 56.0545 154.233 72.1634C154.486 73.0986 153.766 74 152.797 74C152.099 74 151.494 73.5208 151.31 72.8473C149.831 67.4368 147.404 63.147 144.129 59.8713C138.39 54.1324 129.538 51 117 51C104.462 51 95.6103 54.1324 89.8713 59.8713C84.1324 65.6103 81 74.4624 81 87Z" fill="white"/>
<path d="M155 54V74H135" stroke="white" stroke-width="3" stroke-linecap="round" stroke-linejoin="round"/>
<path d="M146.469 184C145.239 184 144.346 183.705 143.791 183.114C143.251 182.523 142.981 181.571 142.981 180.258V173.711H141V171.717H143.003V168H145.074V171.717H148V173.711H145.074V180.209C145.074 180.849 145.186 181.309 145.412 181.588C145.652 181.867 146.034 182.006 146.559 182.006H148V184H146.469Z" fill="white"/>
<path d="M132.603 184C131.218 184 130.101 183.612 129.251 182.835C128.417 182.043 128 181.01 128 179.736V176.52C128 175.153 128.417 174.058 129.251 173.235C130.101 172.412 131.218 172 132.603 172H134.539C135.876 172 136.954 172.404 137.773 173.212C138.591 174.019 139 175.091 139 176.427V178.617H130.195V179.736C130.195 180.45 130.416 181.025 130.856 181.46C131.297 181.895 131.879 182.113 132.603 182.113H134.421C135.129 182.113 135.703 181.934 136.144 181.577C136.584 181.204 136.805 180.715 136.805 180.109H138.953C138.953 181.274 138.536 182.214 137.702 182.928C136.868 183.643 135.766 184 134.397 184H132.603ZM136.805 176.893V176.427C136.805 175.65 136.592 175.029 136.167 174.563C135.758 174.097 135.215 173.864 134.539 173.864H132.603C131.879 173.864 131.297 174.113 130.856 174.61C130.416 175.091 130.195 175.736 130.195 176.544V176.893H136.805Z" fill="white"/>
<path d="M119.425 184C118.09 184 117.019 183.658 116.211 182.975C115.404 182.276 115 181.359 115 180.225H117.249C117.249 180.8 117.447 181.266 117.843 181.623C118.238 181.981 118.766 182.159 119.425 182.159H121.6C122.226 182.159 122.729 182.05 123.108 181.833C123.487 181.6 123.676 181.297 123.676 180.924V180.249C123.676 180 123.561 179.783 123.33 179.596C123.116 179.394 122.836 179.262 122.49 179.2L118.213 178.501C117.307 178.346 116.582 178.027 116.038 177.546C115.494 177.049 115.222 176.474 115.222 175.821V175.052C115.222 174.136 115.61 173.398 116.384 172.839C117.159 172.28 118.197 172 119.499 172H121.575C122.811 172 123.8 172.318 124.542 172.955C125.3 173.592 125.679 174.439 125.679 175.495H123.429C123.413 174.998 123.231 174.602 122.885 174.307C122.556 173.996 122.119 173.841 121.575 173.841H119.524C118.914 173.841 118.428 173.957 118.065 174.19C117.719 174.423 117.546 174.734 117.546 175.122V175.705C117.546 175.953 117.661 176.171 117.892 176.357C118.123 176.544 118.419 176.676 118.782 176.753L123.108 177.476C123.965 177.616 124.657 177.926 125.184 178.408C125.728 178.889 126 179.449 126 180.085V180.994C126 181.895 125.596 182.625 124.789 183.184C123.981 183.728 122.918 184 121.6 184H119.425Z" fill="white"/>
<path d="M106.603 184C105.218 184 104.101 183.612 103.251 182.835C102.417 182.043 102 181.01 102 179.736V176.52C102 175.153 102.417 174.058 103.251 173.235C104.101 172.412 105.218 172 106.603 172H108.539C109.876 172 110.954 172.404 111.773 173.212C112.591 174.019 113 175.091 113 176.427V178.617H104.195V179.736C104.195 180.45 104.416 181.025 104.856 181.46C105.297 181.895 105.879 182.113 106.603 182.113H108.421C109.129 182.113 109.703 181.934 110.144 181.577C110.584 181.204 110.805 180.715 110.805 180.109H112.953C112.953 181.274 112.536 182.214 111.702 182.928C110.868 183.643 109.766 184 108.397 184H106.603ZM110.805 176.893V176.427C110.805 175.65 110.592 175.029 110.167 174.563C109.758 174.097 109.215 173.864 108.539 173.864H106.603C105.879 173.864 105.297 174.113 104.856 174.61C104.416 175.091 104.195 175.736 104.195 176.544V176.893H110.805Z" fill="white"/>
<path d="M86 167H94.2514C95.5208 167 96.5395 167.372 97.3074 168.117C98.091 168.846 98.4828 169.809 98.4828 171.007V172.756C98.4828 173.598 98.2242 174.342 97.7071 174.99C97.2055 175.638 96.516 176.107 95.6383 176.399V176.423C96.563 176.99 97.2526 178.026 97.7071 179.531L99 184H96.6962L95.4268 179.629C95.2074 178.868 94.8547 178.269 94.3689 177.831C93.8987 177.394 93.358 177.176 92.7468 177.176H88.2333V184H86V167ZM93.6401 175.136C94.4237 175.136 95.0506 174.917 95.5208 174.48C96.0066 174.043 96.2495 173.468 96.2495 172.756V170.983C96.2495 170.4 96.0615 169.93 95.6854 169.574C95.3092 169.218 94.8156 169.04 94.2043 169.04H88.2333V175.136H93.6401Z" fill="white"/>
<defs>
<linearGradient id="paint0_linear_1150_412" x1="117" y1="232" x2="117" y2="0" gradientUnits="userSpaceOnUse">
<stop stop-color="#FCB433"/>
<stop offset="1" stop-color="#966B1E"/>
</linearGradient>
<linearGradient id="paint1_linear_1150_412" x1="213.652" y1="200.734" x2="13.4727" y2="47.7758" gradientUnits="userSpaceOnUse">
<stop stop-color="#FCB433"/>
<stop offset="1" stop-color="#966B1E"/>
</linearGradient>
</defs>
</svg>
