<svg width="234" height="232" viewBox="0 0 234 232" fill="none" xmlns="http://www.w3.org/2000/svg">
<path d="M1 116C1 163.799 6.1967 192.38 23.073 209.112C31.5 217.467 42.9189 222.946 58.2865 226.332C73.6649 229.72 92.9352 231 117 231C141.065 231 160.335 229.72 175.714 226.332C191.081 222.946 202.5 217.467 210.927 209.112C227.803 192.38 233 163.799 233 116C233 68.2006 227.803 39.6199 210.927 22.8879C202.5 14.5329 191.081 9.05435 175.714 5.66823C160.335 2.27971 141.065 1 117 1C92.9352 1 73.6649 2.27971 58.2865 5.66823C42.9189 9.05435 31.5 14.5329 23.073 22.8879C6.1967 39.6199 1 68.2006 1 116Z" fill="url(#paint0_linear_1150_411)" fill-opacity="0.55" stroke="url(#paint1_linear_1150_411)" stroke-width="2" stroke-linecap="round" stroke-linejoin="round"/>
<path fill-rule="evenodd" clip-rule="evenodd" d="M80 87C80 98.7865 83.5281 107.981 89.7736 114.226C96.0191 120.472 105.214 124 117 124C128.786 124 137.981 120.472 144.226 114.226C150.472 107.981 154 98.7865 154 87C154 75.2135 150.472 66.0191 144.226 59.7736C142.28 57.8268 140.046 56.1441 137.537 54.75C137.208 54.5672 137 54.2227 137 53.8464C137 53.0928 137.791 52.6039 138.45 52.9687C149.69 59.1843 156 70.9887 156 87C156 111.375 141.375 126 117 126C92.625 126 78 111.375 78 87C78 70.5064 84.6963 58.477 96.5786 52.4223C97.2365 52.087 98 52.5761 98 53.3144C98 53.7026 97.7781 54.0555 97.4326 54.2324C94.5259 55.7206 91.9678 57.5794 89.7736 59.7736C83.5281 66.0191 80 75.2135 80 87ZM116.98 48H117.02C117.013 48 117.007 48 117 48C116.993 48 116.987 48 116.98 48Z" fill="white"/>
<rect x="118" y="48" width="32" height="2" rx="0.999999" transform="rotate(90 118 48)" fill="white"/>
<path d="M165 172.189H167.19V173.822C167.551 173.286 168.027 172.852 168.617 172.521C169.224 172.174 169.823 172 170.414 172H172.038C173.219 172 174.171 172.379 174.893 173.136C175.631 173.893 176 174.888 176 176.118V184H173.711V176.118C173.711 175.471 173.539 174.951 173.195 174.556C172.85 174.146 172.399 173.941 171.841 173.941H170.315C169.61 173.941 168.97 174.201 168.396 174.722C167.822 175.243 167.453 175.921 167.289 176.757V184H165V172.189Z" fill="white"/>
<path d="M99 183.811L96.8098 183.811L96.8098 182.178C96.4489 182.714 95.9732 183.148 95.3825 183.479C94.7755 183.826 94.1767 184 93.5861 184L91.962 184C90.7808 184 89.8292 183.621 89.1074 182.864C88.3691 182.107 88 181.112 88 179.882L88 172L90.2886 172L90.2886 179.882C90.2886 180.529 90.4609 181.049 90.8054 181.444C91.1499 181.854 91.601 182.059 92.1588 182.059L93.6846 182.059C94.39 182.059 95.0298 181.799 95.604 181.278C96.1782 180.757 96.5473 180.079 96.7114 179.243L96.7114 172L99 172L99 183.811Z" fill="white"/>
<path d="M162 172L159.529 182.437C159.404 182.982 159.208 183.383 158.941 183.639C158.675 183.88 158.329 184 157.906 184H156.894L154.047 175.415L151.129 184H150.118C149.694 184 149.349 183.88 149.082 183.639C148.816 183.383 148.62 182.982 148.494 182.437L146 172H148.306L150.235 181.234L153.224 172.313H154.047C154.329 172.313 154.557 172.385 154.729 172.529C154.902 172.657 155.035 172.866 155.129 173.154L157.765 181.259L159.694 172H162Z" fill="white"/>
<path d="M137.487 184C136.137 184 135.048 183.588 134.22 182.765C133.407 181.942 133 180.862 133 179.526V176.497C133 175.146 133.414 174.058 134.243 173.235C135.071 172.412 136.168 172 137.533 172H139.467C140.832 172 141.929 172.412 142.757 173.235C143.586 174.058 144 175.146 144 176.497V179.526C144 180.862 143.578 181.942 142.734 182.765C141.906 183.588 140.809 184 139.444 184H137.487ZM139.421 182.089C140.157 182.089 140.748 181.849 141.192 181.367C141.637 180.885 141.86 180.241 141.86 179.433V176.567C141.86 175.759 141.637 175.115 141.192 174.633C140.763 174.151 140.188 173.911 139.467 173.911H137.533C136.812 173.911 136.229 174.151 135.785 174.633C135.355 175.115 135.14 175.759 135.14 176.567V179.433C135.14 180.241 135.355 180.885 135.785 181.367C136.214 181.849 136.789 182.089 137.51 182.089H139.421Z" fill="white"/>
<path d="M118.767 184C118.225 184 117.791 183.838 117.465 183.514C117.155 183.19 117 182.745 117 182.179V167H124.093C125.271 167 126.302 167.235 127.186 167.704C128.085 168.174 128.775 168.846 129.256 169.72C129.752 170.578 130 171.566 130 172.683V177.831C130 179.855 129.504 181.393 128.512 182.446C127.535 183.482 126.093 184 124.186 184H118.767ZM124.116 181.936C125.326 181.936 126.24 181.588 126.86 180.891C127.481 180.195 127.791 179.159 127.791 177.783V172.731C127.791 171.63 127.442 170.748 126.744 170.084C126.062 169.404 125.155 169.064 124.023 169.064H119.209V181.936H124.116Z" fill="white"/>
<path d="M106.469 184C105.239 184 104.346 183.705 103.791 183.114C103.251 182.523 102.981 181.571 102.981 180.258V173.711H101V171.717H103.003V168H105.074V171.717H108V173.711H105.074V180.209C105.074 180.849 105.186 181.309 105.412 181.588C105.652 181.867 106.034 182.006 106.559 182.006H108V184H106.469Z" fill="white"/>
<path d="M74 167H76.2784V173.411C76.654 172.893 77.1277 172.48 77.6993 172.173C78.271 171.849 78.8344 171.687 79.3898 171.687H81.0557C82.2316 171.687 83.1789 172.076 83.8976 172.853C84.6325 173.63 85 174.65 85 175.913V184H82.7216V175.913C82.7216 175.249 82.5501 174.715 82.2071 174.31C81.8641 173.889 81.415 173.679 80.8597 173.679H79.2918C78.5895 173.679 77.9525 173.946 77.3808 174.48C76.8092 174.998 76.4417 175.678 76.2784 176.52V184H74V167Z" fill="white"/>
<path d="M63.1089 184C61.5578 184 60.3186 183.541 59.3911 182.623C58.4637 181.705 58 180.47 58 178.919H60.2306C60.2306 179.853 60.4945 180.597 61.0221 181.151C61.5658 181.705 62.2774 181.982 63.1568 181.982H65.8192C66.6986 181.982 67.4022 181.8 67.9299 181.436C68.4576 181.056 68.7214 180.557 68.7214 179.94V178.658C68.7214 178.167 68.5295 177.756 68.1458 177.423C67.778 177.091 67.2503 176.869 66.5627 176.758L62.1974 176.046C60.9182 175.84 59.9268 175.405 59.2232 174.74C58.5357 174.075 58.1919 173.244 58.1919 172.247V170.941C58.1919 169.754 58.6476 168.804 59.559 168.092C60.4865 167.364 61.7017 167 63.2048 167H65.9151C66.8585 167 67.69 167.198 68.4096 167.594C69.1451 167.973 69.7128 168.52 70.1125 169.232C70.5123 169.928 70.7122 170.736 70.7122 171.654H68.4576C68.4576 170.862 68.2257 170.229 67.762 169.754C67.2983 169.264 66.6827 169.018 65.9151 169.018H63.2048C62.3893 169.018 61.7257 169.2 61.214 169.564C60.7183 169.912 60.4705 170.395 60.4705 171.013V172.081C60.4705 172.588 60.6464 173.007 60.9982 173.339C61.3659 173.672 61.8856 173.901 62.5572 174.028L66.8745 174.764C68.2017 174.986 69.2171 175.421 69.9207 176.07C70.6402 176.703 71 177.502 71 178.468V180.011C71 181.214 70.5283 182.18 69.5849 182.908C68.6574 183.636 67.4182 184 65.8672 184H63.1089Z" fill="white"/>
<defs>
<linearGradient id="paint0_linear_1150_411" x1="24.0411" y1="219.288" x2="219.479" y2="21.3635" gradientUnits="userSpaceOnUse">
<stop stop-color="#650404"/>
<stop offset="1" stop-color="#DD0000"/>
</linearGradient>
<linearGradient id="paint1_linear_1150_411" x1="24.0411" y1="219.288" x2="219.479" y2="21.3635" gradientUnits="userSpaceOnUse">
<stop stop-color="#727272"/>
<stop offset="1" stop-color="white"/>
</linearGradient>
</defs>
</svg>
