<svg width="122" height="137" viewBox="0 0 122 137" fill="none" xmlns="http://www.w3.org/2000/svg">
<path fill-rule="evenodd" clip-rule="evenodd" d="M25 39C25 51.5369 28.1348 60.3887 33.8789 66.1278C39.6234 71.8673 48.4844 75 61.034 75C73.5835 75 82.4445 71.8673 88.1891 66.1278C93.701 60.6207 96.8103 52.2473 97.0526 40.5021C97.0697 39.6738 97.7395 39 98.568 39V39C99.3964 39 100.07 39.6805 100.053 40.5087C99.5547 65.5029 86.5483 78 61.034 78C35.0113 78 22 65 22 39C22 13 35.0113 0 61.034 0C81.5171 0 93.9388 8.05437 98.2991 24.1631C98.5523 25.0984 97.8325 26 96.8635 26V26C96.1654 26 95.5611 25.521 95.3768 24.8477C93.896 19.4375 91.4675 15.1479 88.1891 11.8722C82.4445 6.13271 73.5835 3 61.034 3C48.4844 3 39.6234 6.13271 33.8789 11.8722C28.1348 17.6113 25 26.4631 25 39Z" fill="white"/>
<path d="M98.517 6V25.5H79" stroke="white" stroke-width="3" stroke-linecap="round" stroke-linejoin="round"/>
<path d="M30.4323 119.2H38.8563C40.1523 119.2 41.1923 119.568 41.9763 120.304C42.7763 121.024 43.1763 121.976 43.1763 123.16V124.888C43.1763 125.72 42.9123 126.456 42.3843 127.096C41.8723 127.736 41.1683 128.2 40.2723 128.488V128.512C41.2163 129.072 41.9203 130.096 42.3843 131.584L43.7043 136H41.3523L40.0563 131.68C39.8323 130.928 39.4723 130.336 38.9763 129.904C38.4963 129.472 37.9443 129.256 37.3203 129.256H32.7123V136H30.4323V119.2ZM38.2323 127.24C39.0323 127.24 39.6723 127.024 40.1523 126.592C40.6483 126.16 40.8963 125.592 40.8963 124.888V123.136C40.8963 122.56 40.7043 122.096 40.3203 121.744C39.9363 121.392 39.4323 121.216 38.8083 121.216H32.7123V127.24H38.2323ZM50.3566 136.192C48.9486 136.192 47.8126 135.792 46.9486 134.992C46.1006 134.176 45.6766 133.112 45.6766 131.8V128.488C45.6766 127.08 46.1006 125.952 46.9486 125.104C47.8126 124.256 48.9486 123.832 50.3566 123.832H52.3246C53.6846 123.832 54.7806 124.248 55.6126 125.08C56.4446 125.912 56.8606 127.016 56.8606 128.392V130.648H47.9086V131.8C47.9086 132.536 48.1326 133.128 48.5806 133.576C49.0286 134.024 49.6206 134.248 50.3566 134.248H52.2046C52.9246 134.248 53.5086 134.064 53.9566 133.696C54.4046 133.312 54.6286 132.808 54.6286 132.184H56.8126C56.8126 133.384 56.3886 134.352 55.5406 135.088C54.6926 135.824 53.5726 136.192 52.1806 136.192H50.3566ZM54.6286 128.872V128.392C54.6286 127.592 54.4126 126.952 53.9806 126.472C53.5646 125.992 53.0126 125.752 52.3246 125.752H50.3566C49.6206 125.752 49.0286 126.008 48.5806 126.52C48.1326 127.016 47.9086 127.68 47.9086 128.512V128.872H54.6286ZM63.3057 136.192C62.0097 136.192 60.9697 135.84 60.1857 135.136C59.4017 134.416 59.0097 133.472 59.0097 132.304H61.1937C61.1937 132.896 61.3857 133.376 61.7697 133.744C62.1537 134.112 62.6657 134.296 63.3057 134.296H65.4177C66.0257 134.296 66.5137 134.184 66.8817 133.96C67.2497 133.72 67.4337 133.408 67.4337 133.024V132.328C67.4337 132.072 67.3217 131.848 67.0977 131.656C66.8897 131.448 66.6177 131.312 66.2817 131.248L62.1297 130.528C61.2497 130.368 60.5457 130.04 60.0177 129.544C59.4897 129.032 59.2257 128.44 59.2257 127.768V126.976C59.2257 126.032 59.6017 125.272 60.3537 124.696C61.1057 124.12 62.1137 123.832 63.3777 123.832H65.3937C66.5937 123.832 67.5537 124.16 68.2737 124.816C69.0097 125.472 69.3777 126.344 69.3777 127.432H67.1937C67.1777 126.92 67.0017 126.512 66.6657 126.208C66.3457 125.888 65.9217 125.728 65.3937 125.728H63.4017C62.8097 125.728 62.3377 125.848 61.9857 126.088C61.6497 126.328 61.4817 126.648 61.4817 127.048V127.648C61.4817 127.904 61.5937 128.128 61.8177 128.32C62.0417 128.512 62.3297 128.648 62.6817 128.728L66.8817 129.472C67.7137 129.616 68.3857 129.936 68.8977 130.432C69.4257 130.928 69.6897 131.504 69.6897 132.16V133.096C69.6897 134.024 69.2977 134.776 68.5137 135.352C67.7297 135.912 66.6977 136.192 65.4177 136.192H63.3057ZM76.5363 136.192C75.1283 136.192 73.9923 135.792 73.1283 134.992C72.2803 134.176 71.8563 133.112 71.8563 131.8V128.488C71.8563 127.08 72.2803 125.952 73.1283 125.104C73.9923 124.256 75.1283 123.832 76.5363 123.832H78.5043C79.8643 123.832 80.9603 124.248 81.7923 125.08C82.6243 125.912 83.0403 127.016 83.0403 128.392V130.648H74.0883V131.8C74.0883 132.536 74.3123 133.128 74.7603 133.576C75.2083 134.024 75.8003 134.248 76.5363 134.248H78.3843C79.1043 134.248 79.6883 134.064 80.1363 133.696C80.5843 133.312 80.8083 132.808 80.8083 132.184H82.9922C82.9922 133.384 82.5683 134.352 81.7203 135.088C80.8723 135.824 79.7523 136.192 78.3603 136.192H76.5363ZM80.8083 128.872V128.392C80.8083 127.592 80.5923 126.952 80.1603 126.472C79.7443 125.992 79.1923 125.752 78.5043 125.752H76.5363C75.8003 125.752 75.2083 126.008 74.7603 126.52C74.3123 127.016 74.0883 127.68 74.0883 128.512V128.872H80.8083ZM90.5208 136C89.2088 136 88.2568 135.712 87.6648 135.136C87.0888 134.56 86.8008 133.632 86.8008 132.352V125.968H84.6888V124.024H86.8248V120.4H89.0328V124.024H92.1528V125.968H89.0328V132.304C89.0328 132.928 89.1528 133.376 89.3928 133.648C89.6488 133.92 90.0568 134.056 90.6168 134.056H92.1528V136H90.5208Z" fill="white"/>
</svg>
