<svg width="122" height="137" viewBox="0 0 122 137" fill="none" xmlns="http://www.w3.org/2000/svg">
<path fill-rule="evenodd" clip-rule="evenodd" d="M41.5 5.57512C41.5 4.82921 40.723 4.34023 40.0642 4.68999C28.5033 10.8275 22 22.7461 22 39.0001C22 63.3751 36.625 78 61 78C85.375 78 100 63.3751 100 39.0001C100 22.7461 93.4967 10.8275 81.9358 4.68999C81.277 4.34023 80.5 4.82921 80.5 5.57512V5.57512C80.5 5.9574 80.7152 6.30615 81.0525 6.48607C83.7595 7.93002 86.1551 9.70243 88.2264 11.7737C94.4719 18.0192 98 27.2136 98 39.0001C98 50.7866 94.4719 59.981 88.2264 66.2265C81.9809 72.472 72.7865 76 61 76C49.2135 76 40.0191 72.472 33.7736 66.2265C27.5281 59.981 24 50.7866 24 39.0001C24 27.2136 27.5281 18.0192 33.7736 11.7737C35.8449 9.70243 38.2405 7.93002 40.9475 6.48607C41.2848 6.30615 41.5 5.9574 41.5 5.57512V5.57512Z" fill="white"/>
<rect x="62" width="32" height="2" rx="0.999999" transform="rotate(90 62 0)" fill="white"/>
<path d="M7.14794 136.192C5.59594 136.192 4.35594 135.728 3.42794 134.8C2.49994 133.872 2.03594 132.624 2.03594 131.056H4.26794C4.26794 132 4.53194 132.752 5.05994 133.312C5.60394 133.872 6.31594 134.152 7.19594 134.152H9.85994C10.7399 134.152 11.4439 133.968 11.9719 133.6C12.4999 133.216 12.7639 132.712 12.7639 132.088V130.792C12.7639 130.296 12.5719 129.88 12.1879 129.544C11.8199 129.208 11.2919 128.984 10.6039 128.872L6.23594 128.152C4.95594 127.944 3.96394 127.504 3.25994 126.832C2.57194 126.16 2.22794 125.32 2.22794 124.312V122.992C2.22794 121.792 2.68394 120.832 3.59594 120.112C4.52394 119.376 5.73994 119.008 7.24394 119.008H9.95594C10.8999 119.008 11.7319 119.208 12.4519 119.608C13.1879 119.992 13.7559 120.544 14.1559 121.264C14.5559 121.968 14.7559 122.784 14.7559 123.712H12.4999C12.4999 122.912 12.2679 122.272 11.8039 121.792C11.3399 121.296 10.7239 121.048 9.95594 121.048H7.24394C6.42794 121.048 5.76394 121.232 5.25194 121.6C4.75594 121.952 4.50794 122.44 4.50794 123.064V124.144C4.50794 124.656 4.68394 125.08 5.03594 125.416C5.40394 125.752 5.92394 125.984 6.59594 126.112L10.9159 126.856C12.2439 127.08 13.2599 127.52 13.9639 128.176C14.6839 128.816 15.0439 129.624 15.0439 130.6V132.16C15.0439 133.376 14.5719 134.352 13.6279 135.088C12.6999 135.824 11.4599 136.192 9.90794 136.192H7.14794ZM17.7972 119.2H20.0292V125.536C20.3972 125.024 20.8612 124.616 21.4212 124.312C21.9812 123.992 22.5332 123.832 23.0772 123.832H24.7092C25.8612 123.832 26.7892 124.216 27.4932 124.984C28.2132 125.752 28.5732 126.76 28.5732 128.008V136H26.3412V128.008C26.3412 127.352 26.1732 126.824 25.8372 126.424C25.5012 126.008 25.0612 125.8 24.5172 125.8H22.9812C22.2932 125.8 21.6692 126.064 21.1092 126.592C20.5492 127.104 20.1892 127.776 20.0292 128.608V136H17.7972V119.2ZM35.9894 136.192C34.5814 136.192 33.4454 135.768 32.5814 134.92C31.7334 134.072 31.3094 132.96 31.3094 131.584V128.464C31.3094 127.072 31.7414 125.952 32.6054 125.104C33.4694 124.256 34.6134 123.832 36.0374 123.832H38.0534C39.4774 123.832 40.6214 124.256 41.4854 125.104C42.3494 125.952 42.7814 127.072 42.7814 128.464V131.584C42.7814 132.96 42.3414 134.072 41.4614 134.92C40.5974 135.768 39.4534 136.192 38.0294 136.192H35.9894ZM38.0054 134.224C38.7734 134.224 39.3894 133.976 39.8534 133.48C40.3174 132.984 40.5494 132.32 40.5494 131.488V128.536C40.5494 127.704 40.3174 127.04 39.8534 126.544C39.4054 126.048 38.8054 125.8 38.0534 125.8H36.0374C35.2854 125.8 34.6774 126.048 34.2134 126.544C33.7654 127.04 33.5414 127.704 33.5414 128.536V131.488C33.5414 132.32 33.7654 132.984 34.2134 133.48C34.6614 133.976 35.2614 134.224 36.0134 134.224H38.0054ZM50.3958 136C49.0838 136 48.1318 135.712 47.5398 135.136C46.9638 134.56 46.6758 133.632 46.6758 132.352V125.968H44.5638V124.024H46.6998V120.4H48.9078V124.024H52.0278V125.968H48.9078V132.304C48.9078 132.928 49.0278 133.376 49.2678 133.648C49.5238 133.92 49.9318 134.056 50.4918 134.056H52.0278V136H50.3958ZM63.2641 136C62.7041 136 62.2561 135.84 61.9201 135.52C61.6001 135.2 61.4401 134.76 61.4401 134.2V119.2H68.7601C69.9761 119.2 71.0401 119.432 71.9521 119.896C72.8801 120.36 73.5921 121.024 74.0881 121.888C74.6001 122.736 74.8561 123.712 74.8561 124.816V129.904C74.8561 131.904 74.3441 133.424 73.3201 134.464C72.3121 135.488 70.8241 136 68.8561 136H63.2641ZM68.7841 133.96C70.0321 133.96 70.9761 133.616 71.6161 132.928C72.2561 132.24 72.5761 131.216 72.5761 129.856V124.864C72.5761 123.776 72.2161 122.904 71.4961 122.248C70.7921 121.576 69.8561 121.24 68.6881 121.24H63.7201V133.96H68.7841ZM81.9269 136.192C80.5189 136.192 79.3829 135.768 78.5189 134.92C77.6709 134.072 77.2469 132.96 77.2469 131.584V128.464C77.2469 127.072 77.6789 125.952 78.5429 125.104C79.4069 124.256 80.5509 123.832 81.9749 123.832H83.9909C85.4149 123.832 86.5589 124.256 87.4229 125.104C88.2869 125.952 88.7189 127.072 88.7189 128.464V131.584C88.7189 132.96 88.2789 134.072 87.3989 134.92C86.5349 135.768 85.3909 136.192 83.9669 136.192H81.9269ZM83.9429 134.224C84.7109 134.224 85.3269 133.976 85.7909 133.48C86.2549 132.984 86.4869 132.32 86.4869 131.488V128.536C86.4869 127.704 86.2549 127.04 85.7909 126.544C85.3429 126.048 84.7429 125.8 83.9909 125.8H81.9749C81.2229 125.8 80.6149 126.048 80.1509 126.544C79.7029 127.04 79.4789 127.704 79.4789 128.536V131.488C79.4789 132.32 79.7029 132.984 80.1509 133.48C80.5989 133.976 81.1989 134.224 81.9509 134.224H83.9429ZM106.585 124.024L104.065 134.44C103.937 134.984 103.737 135.384 103.465 135.64C103.193 135.88 102.841 136 102.409 136H101.377L98.4726 127.432L95.4966 136H94.4646C94.0326 136 93.6806 135.88 93.4086 135.64C93.1366 135.384 92.9366 134.984 92.8086 134.44L90.2646 124.024H92.6166L94.5846 133.24L97.6326 124.336H98.4726C98.7606 124.336 98.9926 124.408 99.1686 124.552C99.3446 124.68 99.4806 124.888 99.5766 125.176L102.265 133.264L104.233 124.024H106.585ZM108.899 124.024H111.035V125.68C111.387 125.136 111.851 124.696 112.427 124.36C113.019 124.008 113.603 123.832 114.179 123.832H115.763C116.915 123.832 117.843 124.216 118.547 124.984C119.267 125.752 119.627 126.76 119.627 128.008V136H117.395V128.008C117.395 127.352 117.227 126.824 116.891 126.424C116.555 126.008 116.115 125.8 115.571 125.8H114.083C113.395 125.8 112.771 126.064 112.211 126.592C111.651 127.12 111.291 127.808 111.131 128.656V136H108.899V124.024Z" fill="white"/>
</svg>
