<svg width="44" height="149" viewBox="0 0 44 149" fill="none" xmlns="http://www.w3.org/2000/svg">
<path d="M14.1193 15.16C13.226 15.16 12.4326 14.96 11.7393 14.56C11.0593 14.1467 10.5326 13.5733 10.1593 12.84C9.78596 12.0933 9.5993 11.24 9.5993 10.28V5.72C9.5993 4.74667 9.78596 3.89333 10.1593 3.16C10.546 2.42667 11.0793 1.86 11.7593 1.46C12.4526 1.04667 13.246 0.84 14.1393 0.84H16.2193C17.1126 0.84 17.8993 1.04667 18.5793 1.46C19.2726 1.86 19.806 2.42667 20.1793 3.16C20.5526 3.89333 20.7393 4.74667 20.7393 5.72V10.28C20.7393 11.24 20.546 12.0933 20.1593 12.84C19.786 13.5733 19.2526 14.1467 18.5593 14.56C17.8793 14.96 17.0926 15.16 16.1993 15.16H14.1193ZM16.1793 14.16C17.206 14.16 18.0393 13.8067 18.6793 13.1C19.3193 12.38 19.6393 11.44 19.6393 10.28V5.72C19.6393 4.54667 19.3193 3.60667 18.6793 2.9C18.0526 2.18 17.226 1.82 16.1993 1.82H14.1593C13.1193 1.82 12.2793 2.18 11.6393 2.9C11.0126 3.60667 10.6993 4.54667 10.6993 5.72V10.28C10.6993 11.44 11.0126 12.38 11.6393 13.1C12.2793 13.8067 13.1126 14.16 14.1393 14.16H16.1793ZM23.7884 0.999999H24.8684L32.9484 13.26V0.999999H34.0084V15H32.9484L24.8484 2.78V15H23.7884V0.999999Z" fill="url(#paint0_linear_1150_400)"/>
<path d="M9.55875 148.16C8.66542 148.16 7.87208 147.96 7.17875 147.56C6.49875 147.147 5.97208 146.573 5.59875 145.84C5.22542 145.093 5.03875 144.24 5.03875 143.28V138.72C5.03875 137.747 5.22542 136.893 5.59875 136.16C5.98542 135.427 6.51875 134.86 7.19875 134.46C7.89208 134.047 8.68542 133.84 9.57875 133.84H11.6588C12.5521 133.84 13.3388 134.047 14.0188 134.46C14.7121 134.86 15.2454 135.427 15.6188 136.16C15.9921 136.893 16.1788 137.747 16.1788 138.72V143.28C16.1788 144.24 15.9854 145.093 15.5988 145.84C15.2254 146.573 14.6921 147.147 13.9987 147.56C13.3188 147.96 12.5321 148.16 11.6388 148.16H9.55875ZM11.6188 147.16C12.6454 147.16 13.4788 146.807 14.1188 146.1C14.7588 145.38 15.0788 144.44 15.0788 143.28V138.72C15.0788 137.547 14.7588 136.607 14.1188 135.9C13.4921 135.18 12.6654 134.82 11.6388 134.82H9.59875C8.55875 134.82 7.71875 135.18 7.07875 135.9C6.45208 136.607 6.13875 137.547 6.13875 138.72V143.28C6.13875 144.44 6.45208 145.38 7.07875 146.1C7.71875 146.807 8.55208 147.16 9.57875 147.16H11.6188ZM19.2278 134H28.0478V134.98H20.3278V140.52H27.3078V141.5H20.3278V148H19.2278V134ZM30.6145 134H39.4345V134.98H31.7145V140.52H38.6945V141.5H31.7145V148H30.6145V134Z" fill="url(#paint1_linear_1150_400)"/>
<rect x="1" y="116" width="83" height="42" rx="21" transform="rotate(-90 1 116)" fill="url(#paint2_linear_1150_400)" fill-opacity="0.15" stroke="url(#paint3_linear_1150_400)" stroke-width="2"/>
<ellipse cx="22.3863" cy="93.4732" rx="15.9375" ry="16.2105" transform="rotate(-90 22.3863 93.4732)" fill="url(#paint4_linear_1150_400)"/>
<defs>
<linearGradient id="paint0_linear_1150_400" x1="36.8696" y1="2.75195" x2="27.8386" y2="21.698" gradientUnits="userSpaceOnUse">
<stop stop-color="#FCB433"/>
<stop offset="1" stop-color="#966B1E"/>
</linearGradient>
<linearGradient id="paint1_linear_1150_400" x1="5.31507" y1="134.712" x2="11.4815" y2="154.716" gradientUnits="userSpaceOnUse">
<stop stop-color="#727272"/>
<stop offset="1" stop-color="white"/>
</linearGradient>
<linearGradient id="paint2_linear_1150_400" x1="8.73288" y1="119.411" x2="38.9288" y2="177.981" gradientUnits="userSpaceOnUse">
<stop stop-color="#727272"/>
<stop offset="1" stop-color="white"/>
</linearGradient>
<linearGradient id="paint3_linear_1150_400" x1="-1.39274e-07" y1="139.386" x2="56.2072" y2="179.615" gradientUnits="userSpaceOnUse">
<stop offset="0.325495" stop-color="#727272"/>
<stop offset="1" stop-color="#FCB433"/>
</linearGradient>
<linearGradient id="paint4_linear_1150_400" x1="9.72364" y1="79.0392" x2="37.0352" y2="106" gradientUnits="userSpaceOnUse">
<stop stop-color="#727272"/>
<stop offset="1" stop-color="white"/>
</linearGradient>
</defs>
</svg>
