<svg width="57" height="300" viewBox="0 0 57 300" fill="none" xmlns="http://www.w3.org/2000/svg">
<path d="M51 58.4419V6C51 3.23858 48.7614 1 46 1H6C3.23858 1 1 3.23858 1 6V66" stroke="url(#paint0_linear_1150_390)"/>
<path d="M51 241.558V294C51 296.761 48.7614 299 46 299H6C3.23858 299 1 296.761 1 294V234" stroke="url(#paint1_linear_1150_390)"/>
<path d="M56 64.3938L56 70.9738C56 71.9605 55.7267 72.7538 55.18 73.3538C54.6467 73.9538 53.9333 74.2538 53.04 74.2538L50.82 74.2538C49.8467 74.2538 49.06 73.9338 48.46 73.2938C47.8733 72.6538 47.58 71.8072 47.58 70.7538L47.58 65.4938L42 65.4938L42 64.3938L56 64.3938ZM48.58 70.7338C48.58 71.4672 48.7867 72.0538 49.2 72.4938C49.6133 72.9338 50.16 73.1538 50.84 73.1538L53.06 73.1538C53.6467 73.1538 54.12 72.9472 54.48 72.5338C54.84 72.1338 55.02 71.6072 55.02 70.9538L55.02 65.4938L48.58 65.4938L48.58 70.7338ZM42 77.7576C42 77.4376 42.0867 77.1842 42.26 76.9976C42.4467 76.8242 42.7067 76.7376 43.04 76.7376L56 76.7376L56 77.8376L43 77.8376L43 85.4376L42 85.4376L42 77.7576ZM41.84 91.2049C41.84 90.3516 42.0467 89.5916 42.46 88.9249C42.8733 88.2716 43.4533 87.7649 44.2 87.4049C44.96 87.0449 45.8333 86.8649 46.82 86.8649L51.2 86.8649C52.1867 86.8649 53.0533 87.0449 53.8 87.4049C54.5467 87.7783 55.1267 88.2983 55.54 88.9649C55.9533 89.6449 56.16 90.4183 56.16 91.2849L56.16 93.4049C56.16 94.2316 55.98 94.9649 55.62 95.6049C55.26 96.2449 54.7533 96.7383 54.1 97.0849C53.46 97.4316 52.72 97.6049 51.88 97.6049L51.88 96.5449C52.8667 96.5449 53.66 96.2583 54.26 95.6849C54.8733 95.1116 55.18 94.3516 55.18 93.4049L55.18 91.2849C55.18 90.2983 54.8133 89.4983 54.08 88.8849C53.3467 88.2716 52.3867 87.9649 51.2 87.9649L46.82 87.9649C45.62 87.9649 44.6533 88.2583 43.92 88.8449C43.2 89.4449 42.84 90.2316 42.84 91.2049L42.84 93.3649C42.84 94.3383 43.1667 95.1183 43.82 95.7049C44.4867 96.2916 45.3667 96.5849 46.46 96.5849L46.46 97.6449C45.54 97.6449 44.7267 97.4649 44.02 97.1049C43.3267 96.7583 42.7867 96.2583 42.4 95.6049C42.0267 94.9649 41.84 94.2183 41.84 93.3649L41.84 91.2049ZM41.84 119.447C41.84 118.594 42.0467 117.834 42.46 117.167C42.8733 116.514 43.4533 116.007 44.2 115.647C44.96 115.287 45.8333 115.107 46.82 115.107L51.2 115.107C52.1867 115.107 53.0533 115.287 53.8 115.647C54.5467 116.02 55.1267 116.54 55.54 117.207C55.9533 117.887 56.16 118.66 56.16 119.527L56.16 121.647C56.16 122.474 55.98 123.207 55.62 123.847C55.26 124.487 54.7533 124.98 54.1 125.327C53.46 125.674 52.72 125.847 51.88 125.847L51.88 124.787C52.8667 124.787 53.66 124.5 54.26 123.927C54.8733 123.354 55.18 122.594 55.18 121.647L55.18 119.527C55.18 118.54 54.8133 117.74 54.08 117.127C53.3467 116.514 52.3867 116.207 51.2 116.207L46.82 116.207C45.62 116.207 44.6533 116.5 43.92 117.087C43.2 117.687 42.84 118.474 42.84 119.447L42.84 121.607C42.84 122.58 43.1667 123.36 43.82 123.947C44.4867 124.534 45.3667 124.827 46.46 124.827L46.46 125.887C45.54 125.887 44.7267 125.707 44.02 125.347C43.3267 125 42.7867 124.5 42.4 123.847C42.0267 123.207 41.84 122.46 41.84 121.607L41.84 119.447ZM41.84 132.694C41.84 131.8 42.04 131.007 42.44 130.314C42.8533 129.634 43.4267 129.107 44.16 128.734C44.9067 128.36 45.76 128.174 46.72 128.174L51.28 128.174C52.2533 128.174 53.1067 128.36 53.84 128.734C54.5733 129.12 55.14 129.654 55.54 130.334C55.9533 131.027 56.16 131.82 56.16 132.714L56.16 134.794C56.16 135.687 55.9533 136.474 55.54 137.154C55.14 137.847 54.5733 138.38 53.84 138.754C53.1067 139.127 52.2533 139.314 51.28 139.314L46.72 139.314C45.76 139.314 44.9067 139.12 44.16 138.734C43.4267 138.36 42.8533 137.827 42.44 137.134C42.04 136.454 41.84 135.667 41.84 134.774L41.84 132.694ZM42.84 134.754C42.84 135.78 43.1933 136.614 43.9 137.254C44.62 137.894 45.56 138.214 46.72 138.214L51.28 138.214C52.4533 138.214 53.3933 137.894 54.1 137.254C54.82 136.627 55.18 135.8 55.18 134.774L55.18 132.734C55.18 131.694 54.82 130.854 54.1 130.214C53.3933 129.587 52.4533 129.274 51.28 129.274L46.72 129.274C45.56 129.274 44.62 129.587 43.9 130.214C43.1933 130.854 42.84 131.687 42.84 132.714L42.84 134.754ZM56 142.363L56 143.443L43.74 151.523L56 151.523L56 152.583L42 152.583L42 151.523L54.22 143.423L42 143.423L42 142.363L56 142.363ZM56 156.015L56 157.095L43.74 165.175L56 165.175L56 166.235L42 166.235L42 165.175L54.22 157.075L42 157.075L42 156.015L56 156.015ZM42 170.687C42 170.367 42.0933 170.114 42.28 169.927C42.4667 169.754 42.7267 169.667 43.06 169.667L56 169.667L56 178.687L55.04 178.687L55.04 170.767L49.64 170.767L49.64 178.087L48.68 178.087L48.68 170.767L42.98 170.767L42.98 178.687L42 178.687L42 170.687ZM41.84 185.346C41.84 184.492 42.0467 183.732 42.46 183.066C42.8733 182.412 43.4533 181.906 44.2 181.546C44.96 181.186 45.8333 181.006 46.82 181.006L51.2 181.006C52.1867 181.006 53.0533 181.186 53.8 181.546C54.5467 181.919 55.1267 182.439 55.54 183.106C55.9533 183.786 56.16 184.559 56.16 185.426L56.16 187.546C56.16 188.372 55.98 189.106 55.62 189.746C55.26 190.386 54.7533 190.879 54.1 191.226C53.46 191.572 52.72 191.746 51.88 191.746L51.88 190.686C52.8667 190.686 53.66 190.399 54.26 189.826C54.8733 189.252 55.18 188.492 55.18 187.546L55.18 185.426C55.18 184.439 54.8133 183.639 54.08 183.026C53.3467 182.412 52.3867 182.106 51.2 182.106L46.82 182.106C45.62 182.106 44.6533 182.399 43.92 182.986C43.2 183.586 42.84 184.372 42.84 185.346L42.84 187.506C42.84 188.479 43.1667 189.259 43.82 189.846C44.4867 190.432 45.3667 190.726 46.46 190.726L46.46 191.786C45.54 191.786 44.7267 191.606 44.02 191.246C43.3267 190.899 42.7867 190.399 42.4 189.746C42.0267 189.106 41.84 188.359 41.84 187.506L41.84 185.346ZM55.04 197.678L55.04 193.238L56 193.238L56 203.218L55.04 203.218L55.04 198.778L42 198.778L42 197.678L55.04 197.678ZM56 205.863L56 206.963L42 206.963L42 205.863L56 205.863ZM41.84 214.725C41.84 213.831 42.04 213.038 42.44 212.345C42.8533 211.665 43.4267 211.138 44.16 210.765C44.9067 210.391 45.76 210.205 46.72 210.205L51.28 210.205C52.2533 210.205 53.1067 210.391 53.84 210.765C54.5733 211.151 55.14 211.685 55.54 212.365C55.9533 213.058 56.16 213.851 56.16 214.745L56.16 216.825C56.16 217.718 55.9533 218.505 55.54 219.185C55.14 219.878 54.5733 220.411 53.84 220.785C53.1067 221.158 52.2533 221.345 51.28 221.345L46.72 221.345C45.76 221.345 44.9067 221.151 44.16 220.765C43.4267 220.391 42.8533 219.858 42.44 219.165C42.04 218.485 41.84 217.698 41.84 216.805L41.84 214.725ZM42.84 216.785C42.84 217.811 43.1933 218.645 43.9 219.285C44.62 219.925 45.56 220.245 46.72 220.245L51.28 220.245C52.4533 220.245 53.3933 219.925 54.1 219.285C54.82 218.658 55.18 217.831 55.18 216.805L55.18 214.765C55.18 213.725 54.82 212.885 54.1 212.245C53.3933 211.618 52.4533 211.305 51.28 211.305L46.72 211.305C45.56 211.305 44.62 211.618 43.9 212.245C43.1933 212.885 42.84 213.718 42.84 214.745L42.84 216.785ZM56 224.394L56 225.474L43.74 233.554L56 233.554L56 234.614L42 234.614L42 233.554L54.22 225.454L42 225.454L42 224.394L56 224.394Z" fill="url(#paint2_linear_1150_390)"/>
<defs>
<linearGradient id="paint0_linear_1150_390" x1="6.13699" y1="4.56164" x2="59.1203" y2="45.4837" gradientUnits="userSpaceOnUse">
<stop stop-color="#727272"/>
<stop offset="1" stop-color="white"/>
</linearGradient>
<linearGradient id="paint1_linear_1150_390" x1="6.13699" y1="295.438" x2="59.1203" y2="254.516" gradientUnits="userSpaceOnUse">
<stop stop-color="#727272"/>
<stop offset="1" stop-color="white"/>
</linearGradient>
<linearGradient id="paint2_linear_1150_390" x1="55.2877" y1="75.2123" x2="33.4879" y2="76.7217" gradientUnits="userSpaceOnUse">
<stop stop-color="#727272"/>
<stop offset="1" stop-color="white"/>
</linearGradient>
</defs>
</svg>
