<svg width="45" height="13" viewBox="0 0 45 13" fill="none" xmlns="http://www.w3.org/2000/svg">
<path opacity="0.45" d="M7.632 9.06263H2.72L1.568 12.1666H0.352L4.656 0.966625H5.2C5.552 0.966625 5.808 1.17996 5.968 1.60663L8.432 8.07063H8.448V8.10263L10 12.1666H8.784L7.632 9.06263ZM3.088 8.07063H7.264L5.184 2.50263H5.168L3.088 8.07063ZM13.8054 12.2946C13.2614 12.2946 12.776 12.1666 12.3494 11.9106C11.9227 11.6546 11.592 11.2973 11.3574 10.8386C11.1227 10.38 11.0054 9.84663 11.0054 9.23863V7.31863C11.0054 6.67863 11.128 6.11329 11.3734 5.62263C11.6187 5.12129 11.9654 4.73729 12.4134 4.47063C12.8614 4.19329 13.3734 4.05463 13.9494 4.05463H15.1334C15.496 4.05463 15.8427 4.13996 16.1734 4.31063C16.5147 4.48129 16.7867 4.71596 16.9894 5.01463V0.966625H18.1414V12.1666H17.0214V10.9826C16.776 11.3773 16.456 11.6973 16.0614 11.9426C15.6667 12.1773 15.2827 12.2946 14.9094 12.2946H13.8054ZM14.8774 11.2706C15.2187 11.2706 15.5494 11.164 15.8694 10.9506C16.1894 10.7266 16.4507 10.4386 16.6534 10.0866C16.856 9.73463 16.968 9.37196 16.9894 8.99863V6.98263C16.9147 6.41729 16.7014 5.95863 16.3494 5.60663C16.008 5.25463 15.592 5.07863 15.1014 5.07863H13.9814C13.4374 5.07863 12.9947 5.28663 12.6534 5.70263C12.3227 6.10796 12.1574 6.64663 12.1574 7.31863V9.23863C12.1574 9.83596 12.312 10.3266 12.6214 10.7106C12.9414 11.084 13.3467 11.2706 13.8374 11.2706H14.8774ZM29.3274 4.05463C30.0314 4.05463 30.586 4.28396 30.9914 4.74263C31.4074 5.19063 31.6154 5.81463 31.6154 6.61463V12.1666H30.4634V6.58263C30.4634 6.11329 30.3567 5.74529 30.1434 5.47863C29.93 5.21196 29.6474 5.07863 29.2954 5.07863H28.3834C27.9247 5.07863 27.546 5.23329 27.2474 5.54263C26.9487 5.85196 26.7567 6.28929 26.6714 6.85463V12.1666H25.5194V6.67863C25.5194 6.17729 25.418 5.78796 25.2154 5.51063C25.0234 5.22263 24.7567 5.07863 24.4154 5.07863H23.5034C23.066 5.07863 22.682 5.27063 22.3514 5.65463C22.0207 6.03863 21.8127 6.53996 21.7274 7.15863V12.1666H20.5754V4.18263H21.6954V5.33463C21.9087 4.92929 22.1754 4.61463 22.4954 4.39063C22.8154 4.16663 23.1514 4.05463 23.5034 4.05463H24.4474C24.8954 4.05463 25.2794 4.16663 25.5994 4.39063C25.93 4.60396 26.1807 4.91863 26.3514 5.33463C26.5967 4.90796 26.89 4.58796 27.2314 4.37463C27.5727 4.16129 27.946 4.05463 28.3514 4.05463H29.3274ZM34.8144 2.98263C34.5584 2.98263 34.3504 2.90263 34.1904 2.74263C34.0304 2.58263 33.9504 2.37463 33.9504 2.11863C33.9504 1.86263 34.0304 1.65463 34.1904 1.49463C34.3504 1.33463 34.5584 1.25463 34.8144 1.25463C35.0704 1.25463 35.2784 1.33463 35.4384 1.49463C35.5984 1.65463 35.6784 1.86263 35.6784 2.11863C35.6784 2.37463 35.5984 2.58263 35.4384 2.74263C35.2784 2.90263 35.0704 2.98263 34.8144 2.98263ZM34.2384 4.18263H35.3904V12.1666H34.2384V4.18263ZM38.1066 4.18263H39.2266V5.36663C39.472 4.98263 39.792 4.66796 40.1866 4.42263C40.5813 4.17729 40.976 4.05463 41.3706 4.05463H42.4586C43.1946 4.05463 43.7866 4.30529 44.2346 4.80663C44.6933 5.30796 44.9226 5.96396 44.9226 6.77463V12.1666H43.7706V6.74263C43.7706 6.25196 43.648 5.85196 43.4026 5.54263C43.1573 5.23329 42.832 5.07863 42.4266 5.07863H41.4026C40.9013 5.07863 40.4426 5.27596 40.0266 5.67063C39.6213 6.06529 39.3653 6.57196 39.2586 7.19063V12.1666H38.1066V4.18263Z" fill="url(#paint0_linear_811_910)"/>
<defs>
<linearGradient id="paint0_linear_811_910" x1="17.8082" y1="-3.66442" x2="22.1491" y2="31.749" gradientUnits="userSpaceOnUse">
<stop stop-color="#727272"/>
<stop offset="1" stop-color="white"/>
</linearGradient>
</defs>
</svg>
