<svg width="131" height="52" viewBox="0 0 131 52" fill="none" xmlns="http://www.w3.org/2000/svg">
<rect opacity="0.7" x="130" y="1" width="50" height="129" rx="14" transform="rotate(90 130 1)" fill="url(#paint0_linear_1237_391)" fill-opacity="0.15" stroke="url(#paint1_linear_1237_391)" stroke-width="2"/>
<path d="M23.9197 34C23.5997 34 23.3464 33.9133 23.1597 33.74C22.9864 33.5533 22.8997 33.3 22.8997 32.98V20H28.4397C29.3997 20 30.2464 20.1867 30.9797 20.56C31.713 20.9333 32.2797 21.46 32.6797 22.14C33.0797 22.82 33.2797 23.6 33.2797 24.48V29.1C33.2797 30.7133 32.873 31.9333 32.0597 32.76C31.2597 33.5867 30.0797 34 28.5197 34H23.9197ZM28.4997 33C29.713 33 30.6264 32.6733 31.2397 32.02C31.8664 31.3533 32.1797 30.38 32.1797 29.1V24.48C32.1797 23.4267 31.833 22.58 31.1397 21.94C30.4597 21.3 29.553 20.98 28.4197 20.98H23.9997V33H28.4997ZM37.2595 34C36.9395 34 36.6862 33.9067 36.4995 33.72C36.3262 33.5333 36.2395 33.2733 36.2395 32.94V20H45.2595V20.96H37.3395V26.36H44.6595V27.32H37.3395V33.02H45.2595V34H37.2595ZM51.495 34.16C50.3083 34.16 49.3617 33.8067 48.655 33.1C47.9617 32.3933 47.615 31.4333 47.615 30.22H48.695C48.695 31.1267 48.9483 31.8467 49.455 32.38C49.9617 32.9 50.6483 33.16 51.515 33.16H53.755C54.595 33.16 55.2683 32.9667 55.775 32.58C56.295 32.1933 56.555 31.6867 56.555 31.06V29.7C56.555 29.1933 56.3683 28.76 55.995 28.4C55.6217 28.04 55.1017 27.8067 54.435 27.7L50.855 27.1C49.895 26.94 49.1417 26.5933 48.595 26.06C48.0617 25.5267 47.795 24.86 47.795 24.06V22.9C47.795 21.98 48.1417 21.24 48.835 20.68C49.5283 20.12 50.4417 19.84 51.575 19.84H53.835C54.915 19.84 55.7817 20.1667 56.435 20.82C57.1017 21.4733 57.435 22.3333 57.435 23.4H56.355C56.355 22.6267 56.1217 22.0067 55.655 21.54C55.2017 21.06 54.595 20.82 53.835 20.82H51.575C50.7617 20.82 50.1083 21.0133 49.615 21.4C49.135 21.7733 48.895 22.2733 48.895 22.9V24.06C48.895 24.5933 49.075 25.04 49.435 25.4C49.795 25.76 50.3017 25.9933 50.955 26.1L54.515 26.72C55.5017 26.8933 56.2683 27.24 56.815 27.76C57.375 28.28 57.655 28.9267 57.655 29.7V31.06C57.655 31.9933 57.3017 32.7467 56.595 33.32C55.8883 33.88 54.9483 34.16 53.775 34.16H51.495ZM69.1173 34L63.4773 27.04L61.5973 29.04V34H60.4973V20H61.5973V27.62L68.7373 20H70.1373L64.2373 26.24L70.4973 34H69.1173ZM76.0663 20.96H71.6263V20H81.6063V20.96H77.1663V34H76.0663V20.96ZM87.5275 34.16C86.6342 34.16 85.8408 33.96 85.1475 33.56C84.4675 33.1467 83.9408 32.5733 83.5675 31.84C83.1942 31.0933 83.0075 30.24 83.0075 29.28V24.72C83.0075 23.7467 83.1942 22.8933 83.5675 22.16C83.9542 21.4267 84.4875 20.86 85.1675 20.46C85.8608 20.0467 86.6542 19.84 87.5475 19.84H89.6275C90.5208 19.84 91.3075 20.0467 91.9875 20.46C92.6808 20.86 93.2142 21.4267 93.5875 22.16C93.9608 22.8933 94.1475 23.7467 94.1475 24.72V29.28C94.1475 30.24 93.9542 31.0933 93.5675 31.84C93.1942 32.5733 92.6608 33.1467 91.9675 33.56C91.2875 33.96 90.5008 34.16 89.6075 34.16H87.5275ZM89.5875 33.16C90.6142 33.16 91.4475 32.8067 92.0875 32.1C92.7275 31.38 93.0475 30.44 93.0475 29.28V24.72C93.0475 23.5467 92.7275 22.6067 92.0875 21.9C91.4608 21.18 90.6342 20.82 89.6075 20.82H87.5675C86.5275 20.82 85.6875 21.18 85.0475 21.9C84.4208 22.6067 84.1075 23.5467 84.1075 24.72V29.28C84.1075 30.44 84.4208 31.38 85.0475 32.1C85.6875 32.8067 86.5208 33.16 87.5475 33.16H89.5875ZM97.1966 20H103.777C104.763 20 105.557 20.2733 106.157 20.82C106.757 21.3533 107.057 22.0667 107.057 22.96V25.18C107.057 26.1533 106.737 26.94 106.097 27.54C105.457 28.1267 104.61 28.42 103.557 28.42H98.2966V34H97.1966V20ZM103.537 27.42C104.27 27.42 104.857 27.2133 105.297 26.8C105.737 26.3867 105.957 25.84 105.957 25.16V22.94C105.957 22.3533 105.75 21.88 105.337 21.52C104.937 21.16 104.41 20.98 103.757 20.98H98.2966V27.42H103.537Z" fill="#FCB433"/>
<defs>
<linearGradient id="paint0_linear_1237_391" x1="178.478" y1="17.6543" x2="113.864" y2="37.0848" gradientUnits="userSpaceOnUse">
<stop stop-color="#FCB433"/>
<stop offset="1" stop-color="#966B1E"/>
</linearGradient>
<linearGradient id="paint1_linear_1237_391" x1="178.478" y1="17.6543" x2="113.864" y2="37.0848" gradientUnits="userSpaceOnUse">
<stop stop-color="#FCB433"/>
<stop offset="1" stop-color="#966B1E"/>
</linearGradient>
</defs>
</svg>
