<svg width="277" height="59" viewBox="0 0 277 59" fill="none" xmlns="http://www.w3.org/2000/svg">
<rect opacity="0.7" x="276" y="1" width="57" height="275" rx="14" transform="rotate(90 276 1)" fill="url(#paint0_linear_1146_2876)" fill-opacity="0.25" stroke="url(#paint1_linear_1146_2876)" stroke-width="2"/>
<path d="M154 24.1578H155.479V25.6174C155.803 25.144 156.225 24.7561 156.746 24.4536C157.268 24.1512 157.789 24 158.31 24H159.746C160.718 24 161.5 24.309 162.092 24.927C162.697 25.545 163 26.3537 163 27.3531V34H161.479V27.3136C161.479 26.7087 161.317 26.2156 160.993 25.8343C160.669 25.453 160.239 25.2623 159.704 25.2623H158.352C157.69 25.2623 157.085 25.5056 156.535 25.9921C156 26.4786 155.662 27.1032 155.521 27.8659V34H154V24.1578Z" fill="url(#paint2_linear_1146_2876)"/>
<path d="M150 23.217C149.704 23.217 149.463 23.1144 149.278 22.9091C149.093 22.7038 149 22.437 149 22.1085C149 21.7801 149.093 21.5132 149.278 21.3079C149.463 21.1026 149.704 21 150 21C150.296 21 150.537 21.1026 150.722 21.3079C150.907 21.5132 151 21.7801 151 22.1085C151 22.437 150.907 22.7038 150.722 22.9091C150.537 23.1144 150.296 23.217 150 23.217ZM149.333 24.7566H150.667V35H149.333V24.7566Z" fill="url(#paint3_linear_1146_2876)"/>
<path d="M140.673 38C139.785 38 139.052 37.7634 138.473 37.2901C137.895 36.83 137.572 36.2188 137.504 35.4563H138.957C139.011 35.8507 139.193 36.1662 139.502 36.4028C139.825 36.6526 140.215 36.7775 140.673 36.7775H142.348C143.047 36.7775 143.585 36.5474 143.962 36.0873C144.352 35.6404 144.547 35.0094 144.547 34.1944V32.6761C144.251 33.0704 143.861 33.3925 143.377 33.6423C142.906 33.8789 142.448 33.9972 142.004 33.9972H140.531C139.845 33.9972 139.233 33.8394 138.695 33.5239C138.157 33.2085 137.74 32.7681 137.444 32.2028C137.148 31.6376 137 30.9803 137 30.231V27.9239C137 26.754 137.343 25.8075 138.029 25.0845C138.729 24.3615 139.643 24 140.774 24H142.186C142.617 24 143.061 24.1183 143.518 24.3549C143.975 24.5915 144.332 24.8939 144.587 25.262V24.1577H146V34.1944C146 35.3906 145.677 36.3239 145.031 36.9944C144.386 37.6648 143.491 38 142.348 38H140.673ZM142.004 32.7352C142.677 32.7352 143.249 32.4789 143.72 31.9662C144.204 31.4404 144.48 30.7765 144.547 29.9746V27.5493C144.493 26.8789 144.238 26.3333 143.78 25.9127C143.336 25.4789 142.805 25.262 142.186 25.262H140.814C140.101 25.262 139.529 25.5052 139.099 25.9915C138.668 26.4779 138.453 27.1221 138.453 27.9239V30.231C138.453 30.9671 138.648 31.5718 139.038 32.0451C139.442 32.5052 139.953 32.7352 140.572 32.7352H142.004Z" fill="url(#paint4_linear_1146_2876)"/>
<path d="M129.655 34C128.555 34 127.67 33.6634 127.002 32.9903C126.334 32.3172 126 31.4304 126 30.3301V27.6699C126 26.5696 126.334 25.6828 127.002 25.0097C127.683 24.3366 128.581 24 129.694 24H131.306C132.419 24 133.31 24.3366 133.978 25.0097C134.659 25.6828 135 26.5696 135 27.6699V30.3301C135 31.4304 134.659 32.3172 133.978 32.9903C133.297 33.6634 132.393 34 131.266 34H129.655ZM131.266 32.7573C131.974 32.7573 132.537 32.5372 132.956 32.0971C133.376 31.644 133.585 31.055 133.585 30.3301V27.6699C133.585 26.945 133.376 26.3625 132.956 25.9223C132.537 25.4693 131.987 25.2427 131.306 25.2427H129.694C129.013 25.2427 128.463 25.4693 128.044 25.9223C127.624 26.3625 127.415 26.945 127.415 27.6699V30.3301C127.415 31.068 127.618 31.657 128.024 32.0971C128.43 32.5372 128.974 32.7573 129.655 32.7573H131.266Z" fill="url(#paint5_linear_1146_2876)"/>
<path d="M116.289 35C115.879 35 115.562 34.8867 115.337 34.66C115.112 34.4333 115 34.1133 115 33.7V21H116.467V33.68H124V35H116.289Z" fill="url(#paint6_linear_1146_2876)"/>
<defs>
<linearGradient id="paint0_linear_1146_2876" x1="330.87" y1="37.3301" x2="252.957" y2="49.9022" gradientUnits="userSpaceOnUse">
<stop stop-color="#FCB433"/>
<stop offset="1" stop-color="#966B1E"/>
</linearGradient>
<linearGradient id="paint1_linear_1146_2876" x1="330.87" y1="37.3301" x2="252.957" y2="49.9022" gradientUnits="userSpaceOnUse">
<stop stop-color="#FCB433"/>
<stop offset="1" stop-color="#966B1E"/>
</linearGradient>
<linearGradient id="paint2_linear_1146_2876" x1="162.217" y1="25.3477" x2="153.893" y2="31.0235" gradientUnits="userSpaceOnUse">
<stop stop-color="#FCB433"/>
<stop offset="1" stop-color="#966B1E"/>
</linearGradient>
<linearGradient id="paint3_linear_1146_2876" x1="150.826" y1="22.8867" x2="148.148" y2="23.1766" gradientUnits="userSpaceOnUse">
<stop stop-color="#FCB433"/>
<stop offset="1" stop-color="#966B1E"/>
</linearGradient>
<linearGradient id="paint4_linear_1146_2876" x1="145.217" y1="25.8867" x2="135.361" y2="30.687" gradientUnits="userSpaceOnUse">
<stop stop-color="#FCB433"/>
<stop offset="1" stop-color="#966B1E"/>
</linearGradient>
<linearGradient id="paint5_linear_1146_2876" x1="134.217" y1="25.3477" x2="125.893" y2="31.0235" gradientUnits="userSpaceOnUse">
<stop stop-color="#FCB433"/>
<stop offset="1" stop-color="#966B1E"/>
</linearGradient>
<linearGradient id="paint6_linear_1146_2876" x1="123.217" y1="22.8867" x2="113.361" y2="27.687" gradientUnits="userSpaceOnUse">
<stop stop-color="#FCB433"/>
<stop offset="1" stop-color="#966B1E"/>
</linearGradient>
</defs>
</svg>
