<svg width="130" height="129" viewBox="0 0 130 129" fill="none" xmlns="http://www.w3.org/2000/svg">
<path d="M1 64.4628C1 91.0418 3.9022 106.738 13.1314 115.891C17.7347 120.456 23.9919 123.472 32.4771 125.342C40.9732 127.214 51.6407 127.926 65 127.926C78.3593 127.926 89.0268 127.214 97.5229 125.342C106.008 123.472 112.265 120.456 116.869 115.891C126.098 106.738 129 91.0418 129 64.4628C129 37.8839 126.098 22.1874 116.869 13.0346C112.265 8.46925 106.008 5.45399 97.5229 3.58381C89.0268 1.71122 78.3593 1.00003 65 1.00003C51.6407 1.00003 40.9732 1.71122 32.4771 3.58381C23.9919 5.45399 17.7347 8.46925 13.1314 13.0346C3.9022 22.1874 1 37.8839 1 64.4628Z" fill="url(#paint0_linear_811_993)" fill-opacity="0.1" stroke="url(#paint1_linear_811_993)" stroke-width="2" stroke-linecap="round" stroke-linejoin="round"/>
<path d="M39.5 83.9628C39.5 87.8211 39.6343 90.7888 40.1836 93.0877C40.7277 95.3652 41.6704 96.9493 43.2731 98.0832C44.8988 99.2332 47.2574 99.9593 50.7161 100.39C54.1689 100.82 58.6575 100.948 64.5 100.948C70.3425 100.948 74.8311 100.82 78.2839 100.39C81.7426 99.9593 84.1012 99.2332 85.7269 98.0832C87.3296 96.9493 88.2723 95.3652 88.8164 93.0877C89.3657 90.7888 89.5 87.8211 89.5 83.9628C89.5 80.1044 89.3657 77.1367 88.8164 74.8379C88.2723 72.5603 87.3296 70.9762 85.7269 69.8424C84.1012 68.6923 81.7426 67.9662 78.2839 67.5357C74.8311 67.106 70.3425 66.9771 64.5 66.9771C58.6575 66.9771 54.1689 67.106 50.7161 67.5357C47.2574 67.9662 44.8988 68.6923 43.2731 69.8424C41.6704 70.9762 40.7277 72.5603 40.1836 74.8379C39.6343 77.1367 39.5 80.1044 39.5 83.9628Z" stroke="url(#paint2_linear_811_993)" stroke-linecap="round" stroke-linejoin="round"/>
<path d="M75.125 79.5913H79.375M56 88.3342H73" stroke="url(#paint3_linear_811_993)" stroke-width="2" stroke-linecap="round" stroke-linejoin="round"/>
<path fill-rule="evenodd" clip-rule="evenodd" d="M49.624 81.7771C50.7976 81.7771 51.749 80.7985 51.749 79.5914C51.749 78.3842 50.7976 77.4056 49.624 77.4056C48.4504 77.4056 47.499 78.3842 47.499 79.5914C47.499 80.7985 48.4504 81.7771 49.624 81.7771ZM49.624 90.5199C50.7976 90.5199 51.749 89.5413 51.749 88.3342C51.749 87.1271 50.7976 86.1485 49.624 86.1485C48.4504 86.1485 47.499 87.1271 47.499 88.3342C47.499 89.5413 48.4504 90.5199 49.624 90.5199ZM58.124 79.5914C58.124 80.7985 57.1726 81.7771 55.999 81.7771C54.8254 81.7771 53.874 80.7985 53.874 79.5914C53.874 78.3842 54.8254 77.4056 55.999 77.4056C57.1726 77.4056 58.124 78.3842 58.124 79.5914ZM62.374 81.7771C63.5476 81.7771 64.499 80.7985 64.499 79.5914C64.499 78.3842 63.5476 77.4056 62.374 77.4056C61.2004 77.4056 60.249 78.3842 60.249 79.5914C60.249 80.7985 61.2004 81.7771 62.374 81.7771ZM70.874 79.5914C70.874 80.7985 69.9226 81.7771 68.749 81.7771C67.5754 81.7771 66.624 80.7985 66.624 79.5914C66.624 78.3842 67.5754 77.4056 68.749 77.4056C69.9226 77.4056 70.874 78.3842 70.874 79.5914ZM79.3745 90.5199C80.5481 90.5199 81.4995 89.5413 81.4995 88.3342C81.4995 87.1271 80.5481 86.1485 79.3745 86.1485C78.2009 86.1485 77.2495 87.1271 77.2495 88.3342C77.2495 89.5413 78.2009 90.5199 79.3745 90.5199Z" fill="url(#paint4_linear_811_993)"/>
<path d="M38.5533 46.9629L34.0413 41.3949L32.5373 42.9949V46.9629H31.6573L31.6573 35.7629H32.5373V41.8589L38.2493 35.7629H39.3693L34.6493 40.7549L39.6573 46.9629H38.5533ZM43.4018 47.0909C42.5591 47.0909 41.8764 46.8349 41.3538 46.3229C40.8418 45.8109 40.5858 45.1336 40.5858 44.2909V41.8109C40.5858 40.9256 40.8418 40.2109 41.3538 39.6669C41.8764 39.1229 42.5591 38.8509 43.4018 38.8509H44.7138C45.5244 38.8509 46.1751 39.1176 46.6658 39.6509C47.1671 40.1736 47.4178 40.8722 47.4178 41.7469V43.0909H41.4498V44.2909C41.4498 44.8989 41.6258 45.3896 41.9778 45.7629C42.3404 46.1362 42.8151 46.3229 43.4018 46.3229H44.6178C45.1938 46.3229 45.6578 46.1576 46.0098 45.8269C46.3724 45.4856 46.5538 45.0429 46.5538 44.4989H47.3858C47.3858 45.2776 47.1298 45.9069 46.6178 46.3869C46.1164 46.8562 45.4498 47.0909 44.6178 47.0909H43.4018ZM46.5698 42.3549V41.7469C46.5698 41.1069 46.3991 40.5949 46.0578 40.2109C45.7164 39.8162 45.2684 39.6189 44.7138 39.6189H43.4018C42.8151 39.6189 42.3404 39.8216 41.9778 40.2269C41.6258 40.6322 41.4498 41.1602 41.4498 41.8109V42.3549H46.5698ZM52.0405 50.2109C51.3898 50.2109 50.8512 50.0349 50.4245 49.6829C49.9978 49.3416 49.7578 48.8882 49.7045 48.3229H50.5525C50.5952 48.6642 50.7498 48.9362 51.0165 49.1389C51.2938 49.3522 51.6352 49.4589 52.0405 49.4589H53.3045C53.8912 49.4589 54.3498 49.2616 54.6805 48.8669C55.0218 48.4722 55.1925 47.9336 55.1925 47.2509V45.4749C54.9045 45.9229 54.5525 46.2856 54.1365 46.5629C53.7312 46.8296 53.3312 46.9629 52.9365 46.9629H51.8965C51.1925 46.9629 50.6218 46.7282 50.1845 46.2589C49.7472 45.7789 49.5285 45.1496 49.5285 44.3709V38.9789H50.3925V44.3869C50.3925 44.9202 50.5312 45.3576 50.8085 45.6989C51.0858 46.0296 51.4485 46.1949 51.8965 46.1949H52.9045C53.3738 46.1949 53.8325 45.9869 54.2805 45.5709C54.7392 45.1442 55.0432 44.6376 55.1925 44.0509V38.9789H56.0405V47.2509C56.0405 48.1682 55.7952 48.8882 55.3045 49.4109C54.8138 49.9442 54.1472 50.2109 53.3045 50.2109H52.0405ZM61.6474 47.0909C61.2634 47.0909 60.8687 46.9682 60.4634 46.7229C60.0687 46.4669 59.7487 46.1469 59.5034 45.7629V46.9629H58.6714V35.7629H59.5354V40.0989C59.77 39.7149 60.0794 39.4109 60.4634 39.1869C60.858 38.9629 61.2794 38.8509 61.7274 38.8509H62.8474C63.6367 38.8509 64.2767 39.1176 64.7674 39.6509C65.258 40.1842 65.5034 40.8882 65.5034 41.7629V44.0029C65.5034 44.9202 65.2474 45.6669 64.7354 46.2429C64.234 46.8082 63.5727 47.0909 62.7514 47.0909H61.6474ZM62.7354 46.3229C63.3007 46.3229 63.7594 46.1096 64.1114 45.6829C64.474 45.2562 64.6554 44.6962 64.6554 44.0029V41.7629C64.6554 41.1229 64.4847 40.6056 64.1434 40.2109C63.8127 39.8162 63.3754 39.6189 62.8314 39.6189H61.7594C61.1514 39.6189 60.6394 39.8322 60.2234 40.2589C59.818 40.6749 59.5887 41.2242 59.5354 41.9069V44.3069C59.6314 44.8509 59.882 45.3256 60.2874 45.7309C60.7034 46.1256 61.1567 46.3229 61.6474 46.3229H62.7354ZM70.34 47.0909C69.4867 47.0909 68.7987 46.8242 68.276 46.2909C67.7533 45.7469 67.492 45.0376 67.492 44.1629V41.7789C67.492 40.9042 67.7533 40.2002 68.276 39.6669C68.8093 39.1229 69.508 38.8509 70.372 38.8509H71.636C72.5 38.8509 73.1933 39.1229 73.716 39.6669C74.2493 40.2002 74.516 40.9042 74.516 41.7789V44.1629C74.516 45.0376 74.2493 45.7469 73.716 46.2909C73.1827 46.8242 72.4787 47.0909 71.604 47.0909H70.34ZM71.604 46.3229C72.2227 46.3229 72.7187 46.1256 73.092 45.7309C73.476 45.3362 73.668 44.8136 73.668 44.1629V41.7789C73.668 41.1282 73.4813 40.6056 73.108 40.2109C72.7347 39.8162 72.244 39.6189 71.636 39.6189H70.372C69.764 39.6189 69.2733 39.8162 68.9 40.2109C68.5373 40.6056 68.356 41.1282 68.356 41.7789V44.1629C68.356 44.8136 68.5373 45.3362 68.9 45.7309C69.2627 46.1256 69.7427 46.3229 70.34 46.3229H71.604ZM79.0196 47.0909C78.273 47.0909 77.6756 46.8989 77.2276 46.5149C76.7796 46.1202 76.5556 45.5976 76.5556 44.9469V44.3389C76.5556 43.6882 76.785 43.1709 77.2436 42.7869C77.7023 42.4029 78.3103 42.2109 79.0676 42.2109H80.1076C80.4703 42.2109 80.8436 42.2696 81.2276 42.3869C81.6223 42.5042 81.9583 42.6642 82.2356 42.8669V41.3149C82.2356 40.8136 82.081 40.4029 81.7716 40.0829C81.4623 39.7629 81.0623 39.6029 80.5716 39.6029H79.3236C78.8223 39.6029 78.417 39.7202 78.1076 39.9549C77.7983 40.1896 77.6436 40.5042 77.6436 40.8989H76.7796C76.7796 40.2802 77.0143 39.7842 77.4836 39.4109C77.953 39.0376 78.5663 38.8509 79.3236 38.8509H80.5716C81.329 38.8509 81.9316 39.0749 82.3796 39.5229C82.8383 39.9709 83.0676 40.5682 83.0676 41.3149V46.9629H82.2516V45.7149C81.9743 46.1416 81.633 46.4776 81.2276 46.7229C80.8223 46.9682 80.4116 47.0909 79.9956 47.0909H79.0196ZM80.0116 46.3229C80.4596 46.3229 80.8863 46.1629 81.2916 45.8429C81.7076 45.5229 82.0223 45.1016 82.2356 44.5789V43.7149C82.001 43.4909 81.6863 43.3096 81.2916 43.1709C80.9076 43.0322 80.513 42.9629 80.1076 42.9629H79.0676C78.5663 42.9629 78.1663 43.0909 77.8676 43.3469C77.569 43.5922 77.4196 43.9229 77.4196 44.3389V44.9469C77.4196 45.3629 77.5636 45.6989 77.8516 45.9549C78.1396 46.2002 78.529 46.3229 79.0196 46.3229H80.0116ZM85.5933 38.9789H86.4253V40.2749C86.6599 39.8696 86.9959 39.5496 87.4333 39.3149C87.8706 39.0696 88.3399 38.9469 88.8413 38.9469H89.4333V39.7149H88.8253C88.1319 39.7149 87.5613 39.9389 87.1133 40.3869C86.6759 40.8349 86.4573 41.4162 86.4573 42.1309V46.9629H85.5933V38.9789ZM93.2418 47.0909C92.4524 47.0909 91.8124 46.8189 91.3218 46.2749C90.8311 45.7202 90.5858 44.9949 90.5858 44.0989V41.9549C90.5858 41.0269 90.8418 40.2802 91.3538 39.7149C91.8764 39.1389 92.5591 38.8509 93.4018 38.8509H94.6178C94.9911 38.8509 95.3538 38.9522 95.7058 39.1549C96.0684 39.3469 96.3564 39.6082 96.5698 39.9389V35.7629H97.4178V46.9629H96.5858V45.6189C96.3191 46.0776 95.9884 46.4402 95.5938 46.7069C95.2098 46.9629 94.8044 47.0909 94.3778 47.0909H93.2418ZM94.3618 46.3229C94.8631 46.3229 95.3271 46.1042 95.7538 45.6669C96.1804 45.2189 96.4524 44.6802 96.5698 44.0509V41.4589C96.4631 40.9149 96.2284 40.4722 95.8658 40.1309C95.5031 39.7896 95.0818 39.6189 94.6018 39.6189H93.4178C92.8204 39.6189 92.3404 39.8322 91.9778 40.2589C91.6258 40.6856 91.4498 41.2509 91.4498 41.9549V44.0989C91.4498 44.7602 91.6151 45.2989 91.9457 45.7149C92.2871 46.1202 92.7244 46.3229 93.2578 46.3229H94.3618Z" fill="#FCB433"/>
<defs>
<linearGradient id="paint0_linear_811_993" x1="65" y1="128.926" x2="65" y2="3.05176e-05" gradientUnits="userSpaceOnUse">
<stop stop-color="#FCB433"/>
<stop offset="1" stop-color="#966B1E"/>
</linearGradient>
<linearGradient id="paint1_linear_811_993" x1="118.696" y1="111.551" x2="7.46146" y2="26.5803" gradientUnits="userSpaceOnUse">
<stop stop-color="#FCB433"/>
<stop offset="1" stop-color="#966B1E"/>
</linearGradient>
<linearGradient id="paint2_linear_811_993" x1="85.5652" y1="96.7355" x2="54.4463" y2="62.3554" gradientUnits="userSpaceOnUse">
<stop stop-color="#FCB433"/>
<stop offset="1" stop-color="#966B1E"/>
</linearGradient>
<linearGradient id="paint3_linear_811_993" x1="77.3424" y1="80.7695" x2="71.1353" y2="93.3418" gradientUnits="userSpaceOnUse">
<stop stop-color="#FCB433"/>
<stop offset="1" stop-color="#966B1E"/>
</linearGradient>
<linearGradient id="paint4_linear_811_993" x1="78.5429" y1="79.173" x2="69.0594" y2="97.7998" gradientUnits="userSpaceOnUse">
<stop stop-color="#FCB433"/>
<stop offset="1" stop-color="#966B1E"/>
</linearGradient>
</defs>
</svg>
