<svg width="131" height="52" viewBox="0 0 131 52" fill="none" xmlns="http://www.w3.org/2000/svg">
<rect opacity="0.7" x="130" y="1" width="50" height="129" rx="14" transform="rotate(90 130 1)" fill="url(#paint0_linear_1237_384)" fill-opacity="0.15" stroke="url(#paint1_linear_1237_384)" stroke-width="2"/>
<path d="M41.9373 34C41.6306 34 41.3839 33.9067 41.1973 33.72C41.0106 33.5333 40.9173 33.2867 40.9173 32.98V20H46.7373C47.8439 20 48.7306 20.2733 49.3973 20.82C50.0773 21.3667 50.4173 22.0867 50.4173 22.98V24.12C50.4173 24.6667 50.2973 25.1733 50.0573 25.64C49.8173 26.0933 49.4973 26.4467 49.0973 26.7V26.72C49.7639 26.88 50.2973 27.2133 50.6973 27.72C51.0973 28.2133 51.2973 28.7933 51.2973 29.46V30.54C51.2973 31.58 50.9573 32.42 50.2773 33.06C49.5973 33.6867 48.6906 34 47.5573 34H41.9373ZM47.1373 26.46C47.7906 26.46 48.3173 26.2467 48.7173 25.82C49.1173 25.3933 49.3173 24.8267 49.3173 24.12V22.98C49.3173 22.3933 49.0773 21.9133 48.5973 21.54C48.1306 21.1667 47.5106 20.98 46.7373 20.98H42.0173V26.46H47.1373ZM47.4573 33C48.2839 33 48.9439 32.78 49.4373 32.34C49.9439 31.8867 50.1973 31.2867 50.1973 30.54V29.46C50.1973 28.8467 49.9773 28.3533 49.5373 27.98C49.1106 27.5933 48.5439 27.4 47.8373 27.4H42.0173V33H47.4573ZM61.6084 29.92H55.3084L53.7684 34H52.6284L57.9684 20H58.4884C58.8084 20 59.0484 20.2067 59.2084 20.62L64.2684 34H63.1284L61.6084 29.92ZM55.6484 28.98H61.2684L58.4684 21.48H58.4484L55.6484 28.98ZM70.033 34.16C69.1797 34.16 68.4197 33.9533 67.753 33.54C67.0997 33.1267 66.593 32.5467 66.233 31.8C65.873 31.04 65.693 30.1667 65.693 29.18V24.8C65.693 23.8133 65.873 22.9467 66.233 22.2C66.6064 21.4533 67.1264 20.8733 67.793 20.46C68.473 20.0467 69.2464 19.84 70.113 19.84H72.233C73.0597 19.84 73.793 20.02 74.433 20.38C75.073 20.74 75.5664 21.2467 75.913 21.9C76.2597 22.54 76.433 23.28 76.433 24.12H75.373C75.373 23.1333 75.0864 22.34 74.513 21.74C73.9397 21.1267 73.1797 20.82 72.233 20.82H70.113C69.1264 20.82 68.3264 21.1867 67.713 21.92C67.0997 22.6533 66.793 23.6133 66.793 24.8V29.18C66.793 30.38 67.0864 31.3467 67.673 32.08C68.273 32.8 69.0597 33.16 70.033 33.16H72.193C73.1664 33.16 73.9464 32.8333 74.533 32.18C75.1197 31.5133 75.413 30.6333 75.413 29.54H76.473C76.473 30.46 76.293 31.2733 75.933 31.98C75.5864 32.6733 75.0864 33.2133 74.433 33.6C73.793 33.9733 73.0464 34.16 72.193 34.16H70.033ZM87.7795 34L82.1395 27.04L80.2595 29.04V34H79.1595V20H80.2595V27.62L87.3995 20H88.7995L82.8995 26.24L89.1595 34H87.7795Z" fill="#FCB433"/>
<defs>
<linearGradient id="paint0_linear_1237_384" x1="178.478" y1="17.6543" x2="113.864" y2="37.0848" gradientUnits="userSpaceOnUse">
<stop stop-color="#FCB433"/>
<stop offset="1" stop-color="#966B1E"/>
</linearGradient>
<linearGradient id="paint1_linear_1237_384" x1="178.478" y1="17.6543" x2="113.864" y2="37.0848" gradientUnits="userSpaceOnUse">
<stop stop-color="#FCB433"/>
<stop offset="1" stop-color="#966B1E"/>
</linearGradient>
</defs>
</svg>
