<svg width="134" height="33" viewBox="0 0 134 33" fill="none" xmlns="http://www.w3.org/2000/svg">
<path d="M44.6498 24.5C44.2365 24.5 43.9165 24.3867 43.6898 24.16C43.4631 23.9333 43.3498 23.6133 43.3498 23.2V10.5H44.8298V23.18H52.4298V24.5H44.6498ZM57.5468 24.66C56.4268 24.66 55.5268 24.3133 54.8468 23.62C54.1668 22.9267 53.8268 22.0133 53.8268 20.88V18.14C53.8268 17.0067 54.1668 16.0933 54.8468 15.4C55.5402 14.7067 56.4535 14.36 57.5868 14.36H59.2268C60.3602 14.36 61.2668 14.7067 61.9468 15.4C62.6402 16.0933 62.9868 17.0067 62.9868 18.14V20.88C62.9868 22.0133 62.6402 22.9267 61.9468 23.62C61.2535 24.3133 60.3335 24.66 59.1868 24.66H57.5468ZM59.1868 23.38C59.9068 23.38 60.4802 23.1533 60.9068 22.7C61.3335 22.2333 61.5468 21.6267 61.5468 20.88V18.14C61.5468 17.3933 61.3335 16.7933 60.9068 16.34C60.4802 15.8733 59.9202 15.64 59.2268 15.64H57.5868C56.8935 15.64 56.3335 15.8733 55.9068 16.34C55.4802 16.7933 55.2668 17.3933 55.2668 18.14V20.88C55.2668 21.64 55.4735 22.2467 55.8868 22.7C56.3002 23.1533 56.8535 23.38 57.5468 23.38H59.1868ZM68.8731 28.56C67.9931 28.56 67.2664 28.32 66.6931 27.84C66.1198 27.3733 65.7998 26.7533 65.7331 25.98H67.1731C67.2264 26.38 67.4064 26.7 67.7131 26.94C68.0331 27.1933 68.4198 27.32 68.8731 27.32H70.5331C71.2264 27.32 71.7598 27.0867 72.1331 26.62C72.5198 26.1667 72.7131 25.5267 72.7131 24.7V23.16C72.4198 23.56 72.0331 23.8867 71.5531 24.14C71.0864 24.38 70.6331 24.5 70.1931 24.5H68.7331C68.0531 24.5 67.4464 24.34 66.9131 24.02C66.3798 23.7 65.9664 23.2533 65.6731 22.68C65.3798 22.1067 65.2331 21.44 65.2331 20.68V18.34C65.2331 17.1533 65.5731 16.1933 66.2531 15.46C66.9464 14.7267 67.8531 14.36 68.9731 14.36H70.3731C70.7998 14.36 71.2398 14.48 71.6931 14.72C72.1464 14.96 72.4998 15.2667 72.7531 15.64V14.52H74.1531V24.7C74.1531 25.9133 73.8331 26.86 73.1931 27.54C72.5531 28.22 71.6664 28.56 70.5331 28.56H68.8731ZM70.1931 23.22C70.8598 23.22 71.4264 22.96 71.8931 22.44C72.3731 21.9067 72.6464 21.2333 72.7131 20.42V17.96C72.6598 17.28 72.4064 16.7267 71.9531 16.3C71.5131 15.86 70.9864 15.64 70.3731 15.64H69.0131C68.3064 15.64 67.7398 15.8867 67.3131 16.38C66.8864 16.8733 66.6731 17.5267 66.6731 18.34V20.68C66.6731 21.4267 66.8664 22.04 67.2531 22.52C67.6531 22.9867 68.1598 23.22 68.7731 23.22H70.1931ZM78.2756 13.02C77.9556 13.02 77.6956 12.92 77.4956 12.72C77.2956 12.52 77.1956 12.26 77.1956 11.94C77.1956 11.62 77.2956 11.36 77.4956 11.16C77.6956 10.96 77.9556 10.86 78.2756 10.86C78.5956 10.86 78.8556 10.96 79.0556 11.16C79.2556 11.36 79.3556 11.62 79.3556 11.94C79.3556 12.26 79.2556 12.52 79.0556 12.72C78.8556 12.92 78.5956 13.02 78.2756 13.02ZM77.5556 14.52H78.9956V24.5H77.5556V14.52ZM82.3909 14.52H83.7909V16C84.0976 15.52 84.4976 15.1267 84.9909 14.82C85.4842 14.5133 85.9776 14.36 86.4709 14.36H87.8309C88.7509 14.36 89.4909 14.6733 90.0509 15.3C90.6242 15.9267 90.9109 16.7467 90.9109 17.76V24.5H89.4709V17.72C89.4709 17.1067 89.3176 16.6067 89.0109 16.22C88.7042 15.8333 88.2976 15.64 87.7909 15.64H86.5109C85.8842 15.64 85.3109 15.8867 84.7909 16.38C84.2842 16.8733 83.9642 17.5067 83.8309 18.28V24.5H82.3909V14.52Z" fill="url(#paint0_linear_811_992)"/>
<defs>
<linearGradient id="paint0_linear_811_992" x1="122.133" y1="4.83945" x2="105.475" y2="57.1221" gradientUnits="userSpaceOnUse">
<stop stop-color="#FCB433"/>
<stop offset="1" stop-color="#966B1E"/>
</linearGradient>
</defs>
</svg>
