<svg width="121" height="25" viewBox="0 0 121 25" fill="none" xmlns="http://www.w3.org/2000/svg">
<g opacity="0.6">
<path d="M79.6786 12.6219C79.6205 11.9972 79.4926 11.3987 79.2951 10.8234C79.0975 10.251 78.7924 9.74252 78.3827 9.29797C78.098 9.01323 77.7696 8.78078 77.3948 8.60064C77.02 8.42049 76.5929 8.32751 76.1164 8.32751H64.9387L62.1436 24.3778H67.4985C67.4317 24.2936 67.3852 24.1948 67.3619 24.0873L68.7886 16.3556C68.8757 16.0999 69.0646 15.9662 69.5905 15.667C70.1135 15.3706 70.1048 15.0684 70.1048 15.0684L69.7794 15.0074L69.9072 14.3101L69.4045 14.2171L69.6544 12.8689L74.498 13.7609L74.2481 15.1091L73.7454 15.0161L73.6176 15.7134L73.2864 15.6524C73.2195 15.8878 73.3823 16.2568 73.7251 16.6113C74.068 16.9657 74.0651 17.3231 74.0651 17.3231L72.7663 24.3749H78.0602L79.4229 16.3498C79.5246 15.7716 79.6089 15.1585 79.6699 14.5193C79.7338 13.8771 79.7367 13.2437 79.6786 12.619V12.6219Z" fill="white"/>
<path d="M15.8727 4.07968H10.605L7.14736 23.9043C7.08924 24.2442 6.79288 24.4941 6.44712 24.4941H3.35851C2.91686 24.4941 2.58273 24.0961 2.65827 23.6602L6.05777 4.07968H1.04569C0.601135 4.07968 0.266996 3.68162 0.345446 3.24288L0.653435 1.5315C0.714452 1.19155 1.00791 0.94458 1.35367 0.94458H16.1807C16.6224 0.94458 16.9594 1.34555 16.881 1.78138L16.573 3.49566C16.512 3.83561 16.2185 4.08258 15.8727 4.08258V4.07968Z" fill="white"/>
<path d="M22.1865 9.266L19.6355 23.9129C19.5774 24.25 19.2839 24.494 18.9439 24.494H15.8205C15.3846 24.494 15.0534 24.1018 15.1289 23.6718L17.68 9.02484C17.7381 8.68779 18.0316 8.44373 18.3715 8.44373H21.495C21.9309 8.44373 22.2621 8.83598 22.1865 9.266Z" fill="white"/>
<path d="M42.7231 9.54225L33.4108 24.163C33.28 24.3693 33.0505 24.4942 32.8064 24.4942H29.6306C29.311 24.4942 29.0321 24.285 28.942 23.9771L24.7057 9.35629C24.5721 8.89721 24.9178 8.44104 25.3943 8.44104H28.7241C29.0583 8.44104 29.3488 8.67348 29.4214 9.00181L31.4873 18.2967C31.6297 18.933 32.481 19.0638 32.8064 18.4972L38.3793 8.80133C38.5071 8.58051 38.7425 8.44104 39.0011 8.44104H42.1216C42.6853 8.44104 43.0282 9.06574 42.726 9.54225H42.7231Z" fill="white"/>
<path d="M44.0222 22.7565C43.7375 22.2451 43.5719 21.6727 43.5196 21.0364C43.4673 20.4001 43.4992 19.787 43.6125 19.1972C43.7142 18.6306 43.8944 18.064 44.1501 17.5003C44.4057 16.9367 44.7718 16.4079 45.2484 15.9081C45.4634 15.6582 45.7132 15.4287 45.998 15.2166C46.2827 15.0074 46.5849 14.8272 46.9103 14.6791C47.2329 14.5309 47.5699 14.4176 47.9157 14.3391C48.2614 14.2607 48.6159 14.2258 48.982 14.2374H56.0716C56.0832 14.0224 56.0832 13.7958 56.0716 13.5546C56.0599 13.3163 56.0309 13.0839 55.9873 12.8573C55.9408 12.6306 55.8798 12.4185 55.7984 12.218C55.72 12.0205 55.6096 11.8519 55.4759 11.7154C55.4091 11.6486 55.3568 11.6079 55.3219 11.5963C55.2871 11.5846 55.2377 11.5788 55.1679 11.5788H47.0556L47.6193 8.44373H57.1117C57.5883 8.44373 58.0067 8.52508 58.364 8.6907C58.7214 8.85631 59.0352 9.07423 59.3025 9.34735C59.5698 9.62048 59.7936 9.93137 59.9766 10.2858C60.1568 10.6374 60.3108 11.0006 60.4357 11.3754C60.6071 12.1251 60.6885 12.9415 60.6827 13.8219C60.6769 14.7023 60.5955 15.5856 60.4357 16.4718C60.334 17.0849 60.1887 17.727 59.9999 18.3982C59.811 19.0693 59.5757 19.7231 59.2938 20.3565C59.0091 20.9928 58.6691 21.5885 58.2711 22.1463C57.873 22.7042 57.4081 23.1749 56.8735 23.5613C56.5103 23.8345 56.1122 24.0582 55.6793 24.2354C55.2464 24.4127 54.7931 24.4998 54.3166 24.4998H47.1776C46.4629 24.4998 45.8237 24.3313 45.26 23.9972C44.6963 23.663 44.2866 23.2504 44.0251 22.7623L44.0222 22.7565ZM49.8159 17.3725C49.5544 17.3725 49.3568 17.4074 49.2203 17.4742C49.0837 17.541 48.9355 17.6514 48.7786 17.7967C48.6537 17.9565 48.5316 18.157 48.4125 18.4011C48.2934 18.6451 48.2062 18.9095 48.1481 19.1943C48.09 19.4907 48.0813 19.7725 48.1132 20.0456C48.1452 20.3187 48.2149 20.5338 48.3166 20.6936C48.4183 20.8534 48.5229 20.9667 48.6304 21.0335C48.7379 21.1003 48.9123 21.1352 49.1505 21.1352H53.4449C53.5118 21.1352 53.5728 21.1294 53.6251 21.1178C53.6774 21.1061 53.7587 21.0655 53.872 20.9986C54.1452 20.8069 54.3834 20.5599 54.5868 20.2577C54.7902 19.9555 54.9645 19.6359 55.1069 19.296C55.2493 18.956 55.3655 18.6132 55.4556 18.2732C55.5457 17.9333 55.6212 17.6311 55.6764 17.3696H49.8159V17.3725Z" fill="white"/>
<path d="M85.9031 11.0443H82.1201C82.0126 11.0443 81.9312 10.9484 81.9486 10.8409L82.0155 10.4602C82.03 10.376 82.1026 10.3179 82.1869 10.3179H85.9728C86.0803 10.3179 86.1617 10.4138 86.1443 10.5213L86.0774 10.9019C86.0629 10.9832 85.9903 11.0443 85.906 11.0443H85.9031Z" fill="white"/>
<path d="M87.2883 12.8486H83.7349C83.5576 12.8486 83.424 12.6888 83.4559 12.5144L83.5605 11.9159C83.5838 11.7793 83.7029 11.6805 83.8394 11.6805H87.3959C87.5731 11.6805 87.7068 11.8403 87.6748 12.0147L87.5673 12.6132C87.544 12.7498 87.4249 12.8486 87.2883 12.8486Z" fill="white"/>
<path d="M87.4484 19.5865H83.7467C83.613 19.5865 83.5113 19.7086 83.5346 19.8393L83.6101 20.2664C83.6275 20.3681 83.7176 20.4437 83.8222 20.4437H87.5268C87.6605 20.4437 87.7622 20.3217 87.7389 20.1909L87.6634 19.7638C87.6459 19.6621 87.5559 19.5865 87.4513 19.5865H87.4484Z" fill="white"/>
<path d="M85.574 18.2238H81.791C81.6835 18.2238 81.6021 18.3196 81.6195 18.4271L81.6864 18.8078C81.7009 18.892 81.7735 18.9501 81.8578 18.9501H85.6437C85.7512 18.9501 85.8326 18.8543 85.8152 18.7468L85.7483 18.3661C85.7338 18.2848 85.6612 18.2238 85.5769 18.2238H85.574Z" fill="white"/>
<path d="M86.9602 16.4194H83.4067C83.2295 16.4194 83.0958 16.5792 83.1278 16.7536L83.2324 17.3521C83.2556 17.4887 83.3748 17.5875 83.5113 17.5875H87.0677C87.245 17.5875 87.3786 17.4277 87.3467 17.2533L87.2392 16.6548C87.2159 16.5182 87.0968 16.4194 86.9602 16.4194Z" fill="white"/>
<path d="M87.7755 9.68148H84.0738C83.9402 9.68148 83.8385 9.55945 83.8617 9.4287L83.9373 9.00158C83.9547 8.89989 84.0448 8.82434 84.1494 8.82434H87.854C87.9876 8.82434 88.0893 8.94637 88.0661 9.07712L87.9905 9.50424C87.9731 9.60594 87.883 9.68148 87.7784 9.68148H87.7755Z" fill="white"/>
<path d="M81.2733 14.7952H94.5692L94.4675 15.3676C94.4065 15.7191 94.1014 15.9748 93.744 15.9748H81.9358C81.4796 15.9748 81.1339 15.5622 81.2123 15.1148L81.2675 14.7981L81.2733 14.7952Z" fill="white"/>
<path d="M94.7193 14.156L94.6845 14.3594H81.3857L81.4671 13.9004C81.5281 13.5488 81.8332 13.2931 82.1906 13.2931H93.9988C94.4549 13.2931 94.8007 13.7057 94.7222 14.1531L94.7193 14.156Z" fill="white"/>
<path d="M96.748 7.26112L96.6172 7.98169C96.594 8.11244 96.4806 8.20542 96.3499 8.20542H82.7606C82.5921 8.20542 82.4613 8.05143 82.4904 7.88581L82.6153 7.16523C82.6386 7.03448 82.7519 6.9386 82.8855 6.9386H96.4777C96.6492 6.9386 96.777 7.09259 96.7451 7.26112H96.748Z" fill="white"/>
<path d="M98.7506 5.59917L98.6751 6.02048C98.6576 6.11926 98.5705 6.1919 98.4717 6.1919H84.7429C84.6151 6.1919 84.5163 6.07568 84.5395 5.94784L84.6122 5.52653C84.6296 5.42774 84.7168 5.3551 84.8156 5.3551H98.5472C98.678 5.3551 98.7739 5.47132 98.7506 5.59917Z" fill="white"/>
<path d="M96.4198 22.0069L96.2891 21.2864C96.2658 21.1556 96.1525 21.0626 96.0218 21.0626H82.4325C82.264 21.0626 82.1332 21.2166 82.1623 21.3822L82.2872 22.1028C82.3104 22.2336 82.4238 22.3294 82.5574 22.3294H96.1496C96.321 22.3294 96.4489 22.1755 96.4169 22.0069H96.4198Z" fill="white"/>
<path d="M98.4225 23.6689L98.347 23.2476C98.3295 23.1488 98.2424 23.0762 98.1436 23.0762H84.4148C84.287 23.0762 84.1882 23.1924 84.2114 23.3202L84.2841 23.7415C84.3015 23.8403 84.3887 23.913 84.4874 23.913H98.2191C98.3499 23.913 98.4457 23.7968 98.4225 23.6689Z" fill="white"/>
<path d="M105.872 5.32609C105.628 4.8089 106.006 4.21326 106.576 4.21326H109.051C109.368 4.21326 109.652 4.40502 109.772 4.70139L110.332 6.09025H106.233L105.872 5.32609Z" fill="white"/>
<path d="M105.541 7.10721L105.526 7.07525C105.454 6.92126 105.567 6.74402 105.735 6.74402H109.269C109.365 6.74402 109.449 6.80213 109.484 6.8893L109.495 6.92126C109.556 7.07235 109.446 7.24087 109.28 7.24087H105.75C105.66 7.24087 105.579 7.18857 105.541 7.10721Z" fill="white"/>
<path d="M107.388 8.54542L107.246 8.24615C107.173 8.09216 107.287 7.91492 107.455 7.91492H110.907C111.003 7.91492 111.087 7.97303 111.122 8.06019L111.244 8.35947C111.305 8.51056 111.195 8.67908 111.029 8.67908H107.598C107.508 8.67908 107.426 8.62678 107.388 8.54542Z" fill="white"/>
<path d="M106.867 9.9112L106.701 9.56253C106.628 9.40854 106.742 9.2313 106.91 9.2313H110.313C110.382 9.2313 110.452 9.26326 110.496 9.31847C110.792 9.71362 111.408 9.74558 111.734 9.32428V9.31847C111.78 9.26035 111.85 9.22839 111.922 9.22839H115.255C115.453 9.22839 115.56 9.45793 115.432 9.60902L115.142 9.95769C115.098 10.01 115.031 10.0419 114.964 10.0419H107.079C106.989 10.0419 106.907 9.98965 106.87 9.90829L106.867 9.9112Z" fill="white"/>
<path d="M108.554 11.0095C108.481 10.8555 108.594 10.6782 108.763 10.6782H115.21C115.408 10.6782 115.515 10.9078 115.387 11.0589C115.344 11.1112 115.277 11.1431 115.21 11.1431H108.763C108.673 11.1431 108.591 11.0908 108.554 11.0095Z" fill="white"/>
<path d="M108.219 14.682H112.017C112.107 14.682 112.185 14.7314 112.226 14.8128L112.569 15.5188C112.644 15.6728 112.531 15.8529 112.36 15.8529H107.603C107.403 15.8529 107.298 15.6176 107.429 15.4694L108.045 14.7634C108.089 14.714 108.152 14.6849 108.219 14.6849V14.682Z" fill="white"/>
<path d="M108.238 13.4385L107.854 12.6249C107.782 12.4709 107.895 12.2937 108.064 12.2937H113.099C113.297 12.2937 113.404 12.5232 113.276 12.6743L112.596 13.4879C112.553 13.5402 112.486 13.5721 112.419 13.5721H108.447C108.357 13.5721 108.276 13.5198 108.238 13.4385Z" fill="white"/>
<path d="M117.268 8.67908H113.874C113.682 8.67908 113.572 8.45826 113.691 8.30426L113.923 8.00499C113.967 7.94688 114.034 7.91492 114.106 7.91492H117.518C117.715 7.91492 117.823 8.14446 117.695 8.29554L117.445 8.59482C117.401 8.64712 117.335 8.67908 117.268 8.67908Z" fill="white"/>
<path d="M117.506 7.12465L117.48 7.15661C117.437 7.20891 117.37 7.24087 117.303 7.24087H113.822C113.63 7.24087 113.52 7.02005 113.639 6.86605L113.662 6.83409C113.706 6.77598 113.773 6.74402 113.845 6.74402H117.326C117.524 6.74402 117.631 6.97356 117.504 7.12465H117.506Z" fill="white"/>
<path d="M120.034 5.49463L119.534 6.09318H115.402L116.62 4.51836C116.768 4.3295 116.995 4.21619 117.236 4.21619H119.432C120.092 4.21619 120.452 4.98616 120.031 5.49463H120.034Z" fill="white"/>
<path d="M117.588 23.2912C117.852 23.8491 117.445 24.4941 116.827 24.4941H114.151C113.808 24.4941 113.5 24.2849 113.369 23.9682L112.762 22.4661H117.196L117.585 23.2941L117.588 23.2912Z" fill="white"/>
<path d="M115.507 21.359L115.542 21.4316C115.614 21.5856 115.501 21.7629 115.333 21.7629H111.471C111.375 21.7629 111.291 21.7048 111.256 21.6176L111.227 21.545C111.166 21.3939 111.276 21.2253 111.442 21.2253H115.301C115.391 21.2253 115.472 21.2776 115.51 21.359H115.507Z" fill="white"/>
<path d="M115.941 19.8016L116.113 20.1648C116.185 20.3188 116.072 20.4961 115.904 20.4961H112.126C112.03 20.4961 111.946 20.4379 111.911 20.3508L111.766 19.9876C111.705 19.8365 111.815 19.668 111.981 19.668H115.732C115.822 19.668 115.904 19.7203 115.941 19.8016Z" fill="white"/>
<path d="M114.075 18.3255L114.273 18.741C114.345 18.895 114.232 19.0723 114.063 19.0723H110.35C110.278 19.0723 110.205 19.0403 110.161 18.9822C109.845 18.5522 109.173 18.5173 108.822 18.9706L108.813 18.9822C108.77 19.0403 108.703 19.0723 108.63 19.0723H104.975C104.777 19.0723 104.67 18.8427 104.798 18.6917L105.143 18.2762C105.187 18.2239 105.254 18.1919 105.321 18.1919H113.869C113.959 18.1919 114.04 18.2442 114.078 18.3255H114.075Z" fill="white"/>
<path d="M114.682 17.1373L114.7 17.1751C114.772 17.3291 114.659 17.5063 114.491 17.5063H107.448C107.25 17.5063 107.142 17.2768 107.27 17.1257L107.302 17.0879C107.346 17.0356 107.413 17.0037 107.479 17.0037H114.473C114.563 17.0037 114.645 17.056 114.682 17.1373Z" fill="white"/>
<path d="M105.257 19.6708H108.973C109.165 19.6708 109.275 19.8916 109.156 20.0456L108.877 20.4088C108.833 20.4669 108.766 20.4989 108.694 20.4989H104.954C104.757 20.4989 104.649 20.2693 104.777 20.1182L105.079 19.755C105.123 19.7027 105.19 19.6708 105.257 19.6708Z" fill="white"/>
<path d="M102.552 21.3793L102.613 21.3067C102.656 21.2544 102.723 21.2224 102.79 21.2224H106.599C106.791 21.2224 106.901 21.4432 106.782 21.5972L106.727 21.6699C106.683 21.728 106.616 21.7599 106.544 21.7599H102.729C102.531 21.7599 102.424 21.5304 102.552 21.3793Z" fill="white"/>
<path d="M102.275 23.1111L102.816 22.4631H107.282L105.963 24.1658C105.803 24.3721 105.556 24.4912 105.297 24.4912H102.92C102.206 24.4912 101.816 23.6573 102.275 23.1082V23.1111Z" fill="white"/>
<path d="M19.7973 0.500096C19.8874 0.520435 20.0414 0.54949 20.1954 0.584357C20.8375 0.732541 21.4767 0.880724 22.1188 1.03181C22.514 1.12479 22.9091 1.20905 23.2985 1.31656C23.6733 1.42116 23.9028 1.8105 23.8389 2.18532C23.7837 2.50784 23.6995 2.82454 23.6239 3.14415C23.4874 3.73689 23.3479 4.32962 23.2113 4.92235C23.1096 5.36109 22.6999 5.64584 22.2525 5.54705C21.7033 5.42792 21.1571 5.29136 20.6079 5.16642C20.0501 5.03567 19.4951 4.90783 18.9373 4.77998C18.4607 4.67248 18.2109 4.20759 18.3271 3.75432C18.452 3.26909 18.5537 2.78096 18.667 2.29573C18.7571 1.90348 18.8559 1.51123 18.9431 1.11898C19.0215 0.75288 19.3847 0.494285 19.7973 0.500096Z" fill="white"/>
<path d="M26.1614 2.87978C26.1353 2.9931 26.0975 3.17615 26.0568 3.35339C25.9522 3.80085 25.8476 4.2483 25.743 4.69576C25.6907 4.9253 25.6471 5.15774 25.5832 5.38438C25.4844 5.73014 25.0776 5.85217 24.8307 5.64297C24.5663 5.41634 24.3164 5.16936 24.0578 4.93111C23.9561 4.83522 23.8544 4.73934 23.7469 4.64927C23.7062 4.6144 23.7033 4.58535 23.712 4.53886C23.8137 4.10593 23.9125 3.673 24.0142 3.24007C24.0462 3.10351 24.0752 2.96695 24.1159 2.83039C24.1246 2.79843 24.1566 2.75775 24.1856 2.74903C24.5634 2.62991 24.944 2.51659 25.3217 2.40327C25.3914 2.38293 25.4641 2.3655 25.5338 2.34226C25.836 2.24056 26.1759 2.48753 26.1585 2.87978H26.1614Z" fill="white"/>
</g>
</svg>
