<svg width="22" height="22" viewBox="0 0 22 22" fill="none" xmlns="http://www.w3.org/2000/svg">
<path fill-rule="evenodd" clip-rule="evenodd" d="M6.31161 6.78018C6.2262 6.84822 6.11801 6.88888 6.00033 6.88888C5.94291 6.88888 5.88776 6.8792 5.83641 6.86139C4.66518 7.08342 3.86692 7.40904 3.30633 7.82949C2.1611 8.68841 1.66699 10.2145 1.66699 13.5C1.66699 16.7854 2.1611 18.3116 3.30633 19.1705C3.91191 19.6247 4.79483 19.9682 6.12566 20.19C7.45511 20.4116 9.15435 20.5 11.3337 20.5C13.513 20.5 15.2122 20.4116 16.5417 20.19C17.8725 19.9682 18.7554 19.6247 19.361 19.1705C20.5062 18.3116 21.0003 16.7854 21.0003 13.5C21.0003 10.2145 20.5062 8.68841 19.361 7.82949C18.8004 7.40904 18.0021 7.08342 16.8309 6.86139C16.7796 6.8792 16.7244 6.88888 16.667 6.88888C16.5493 6.88888 16.4411 6.84822 16.3557 6.78018C15.0547 6.5804 13.4127 6.49999 11.3337 6.49999C9.25466 6.49999 7.61257 6.5804 6.31161 6.78018ZM5.51615 5.905C5.62749 4.22583 6.31848 2.91858 7.33481 2.01517C8.43758 1.03493 9.89379 0.555542 11.3337 0.555542C12.7735 0.555542 14.2297 1.03493 15.3325 2.01517C16.3488 2.91858 17.0398 4.22583 17.1512 5.905C21.0162 6.67937 22.0003 8.73684 22.0003 13.5C22.0003 20.088 20.1177 21.5 11.3337 21.5C2.54966 21.5 0.666992 20.088 0.666992 13.5C0.666992 8.73684 1.65113 6.67937 5.51615 5.905ZM16.1334 5.73858C15.9943 4.42677 15.4344 3.44372 14.6681 2.76258C13.7709 1.96504 12.5605 1.55554 11.3337 1.55554C10.1069 1.55554 8.89641 1.96504 7.99917 2.76258C7.23289 3.44372 6.67303 4.42677 6.53391 5.73858C7.84234 5.56665 9.4251 5.49999 11.3337 5.49999C13.2422 5.49999 14.825 5.56665 16.1334 5.73858Z" fill="url(#paint0_linear_811_963)"/>
<path d="M9.16667 13.4999C9.16667 14.6965 10.1367 15.6666 11.3333 15.6666C12.53 15.6666 13.5 14.6965 13.5 13.4999C13.5 12.3033 12.53 11.3333 11.3333 11.3333C10.1367 11.3333 9.16667 12.3033 9.16667 13.4999Z" stroke="url(#paint1_linear_811_963)"/>
<defs>
<linearGradient id="paint0_linear_811_963" x1="2.85877" y1="1.70318" x2="20.4994" y2="19.7444" gradientUnits="userSpaceOnUse">
<stop stop-color="#727272"/>
<stop offset="1" stop-color="white"/>
</linearGradient>
<linearGradient id="paint1_linear_811_963" x1="13.4521" y1="11.1255" x2="8.9589" y2="15.6369" gradientUnits="userSpaceOnUse">
<stop stop-color="#727272"/>
<stop offset="1" stop-color="white"/>
</linearGradient>
</defs>
</svg>
