<svg width="73" height="12" viewBox="0 0 73 12" fill="none" xmlns="http://www.w3.org/2000/svg">
<path d="M0.613008 0.299999H6.03701C6.86901 0.299999 7.53567 0.534666 8.03701 1.004C8.54901 1.47333 8.80501 2.092 8.80501 2.86V4.508C8.80501 5.32933 8.53301 5.996 7.98901 6.508C7.44501 7.00933 6.73034 7.26 5.84501 7.26H1.79701V11.5H0.613008V0.299999ZM5.81301 6.204C6.35701 6.204 6.79434 6.04933 7.12501 5.74C7.45567 5.42 7.62101 4.99867 7.62101 4.476V2.828C7.62101 2.39067 7.47167 2.03867 7.17301 1.772C6.88501 1.49467 6.49567 1.356 6.00501 1.356H1.79701V6.204H5.81301ZM12.6499 11.628C11.8712 11.628 11.2472 11.4253 10.7779 11.02C10.3192 10.6147 10.0899 10.0707 10.0899 9.388V8.876C10.0899 8.204 10.3299 7.66533 10.8099 7.26C11.2899 6.85467 11.9245 6.652 12.7139 6.652H13.7379C14.0899 6.652 14.4525 6.70533 14.8259 6.812C15.1992 6.91867 15.5192 7.06267 15.7859 7.244V5.916C15.7859 5.468 15.6472 5.10533 15.3699 4.828C15.0925 4.54 14.7245 4.396 14.2659 4.396H12.9859C12.5272 4.396 12.1592 4.50267 11.8819 4.716C11.6045 4.92933 11.4659 5.212 11.4659 5.564H10.3139C10.3139 4.91333 10.5592 4.39067 11.0499 3.996C11.5405 3.59067 12.1859 3.388 12.9859 3.388H14.2659C15.0552 3.388 15.6899 3.62267 16.1699 4.092C16.6605 4.55067 16.9059 5.15867 16.9059 5.916V11.5H15.8179V10.38C15.5725 10.764 15.2472 11.068 14.8419 11.292C14.4472 11.516 14.0365 11.628 13.6099 11.628H12.6499ZM13.6419 10.62C14.1432 10.62 14.5912 10.4653 14.9859 10.156C15.3805 9.84667 15.6472 9.436 15.7859 8.924V8.332C15.5725 8.12933 15.2739 7.96933 14.8899 7.852C14.5165 7.724 14.1325 7.66 13.7379 7.66H12.7139C12.2765 7.66 11.9192 7.772 11.6419 7.996C11.3752 8.22 11.2419 8.51333 11.2419 8.876V9.388C11.2419 9.76133 11.3699 10.06 11.6259 10.284C11.8819 10.508 12.2232 10.62 12.6499 10.62H13.6419ZM21.5085 11.628C20.6978 11.628 20.0472 11.3987 19.5565 10.94C19.0658 10.4813 18.8205 9.87867 18.8205 9.132H19.9405C19.9405 9.58 20.0845 9.94267 20.3725 10.22C20.6605 10.4973 21.0392 10.636 21.5085 10.636H22.9005C23.3592 10.636 23.7325 10.5453 24.0205 10.364C24.3085 10.172 24.4525 9.92667 24.4525 9.628V9.084C24.4525 8.88133 24.3725 8.70533 24.2125 8.556C24.0525 8.396 23.8445 8.28933 23.5885 8.236L20.8205 7.756C20.2658 7.66 19.8178 7.452 19.4765 7.132C19.1458 6.80133 18.9805 6.41733 18.9805 5.98V5.452C18.9805 4.83333 19.2152 4.33733 19.6845 3.964C20.1538 3.58 20.7725 3.388 21.5405 3.388H22.9165C23.6632 3.388 24.2658 3.60133 24.7245 4.028C25.1832 4.444 25.4125 4.99867 25.4125 5.692H24.2925C24.2818 5.29733 24.1485 4.98267 23.8925 4.748C23.6472 4.50267 23.3218 4.38 22.9165 4.38H21.5405C21.1138 4.38 20.7725 4.48133 20.5165 4.684C20.2605 4.876 20.1325 5.132 20.1325 5.452V5.916C20.1325 6.11867 20.2178 6.3 20.3885 6.46C20.5698 6.62 20.7992 6.72133 21.0765 6.764L23.8285 7.244C24.3618 7.34 24.7885 7.548 25.1085 7.868C25.4392 8.188 25.6045 8.572 25.6045 9.02V9.66C25.6045 10.2467 25.3538 10.7213 24.8525 11.084C24.3618 11.4467 23.7112 11.628 22.9005 11.628H21.5085ZM29.821 11.628C29.0103 11.628 28.3597 11.3987 27.869 10.94C27.3783 10.4813 27.133 9.87867 27.133 9.132H28.253C28.253 9.58 28.397 9.94267 28.685 10.22C28.973 10.4973 29.3517 10.636 29.821 10.636H31.213C31.6717 10.636 32.045 10.5453 32.333 10.364C32.621 10.172 32.765 9.92667 32.765 9.628V9.084C32.765 8.88133 32.685 8.70533 32.525 8.556C32.365 8.396 32.157 8.28933 31.901 8.236L29.133 7.756C28.5783 7.66 28.1303 7.452 27.789 7.132C27.4583 6.80133 27.293 6.41733 27.293 5.98V5.452C27.293 4.83333 27.5277 4.33733 27.997 3.964C28.4663 3.58 29.085 3.388 29.853 3.388H31.229C31.9757 3.388 32.5783 3.60133 33.037 4.028C33.4957 4.444 33.725 4.99867 33.725 5.692H32.605C32.5943 5.29733 32.461 4.98267 32.205 4.748C31.9597 4.50267 31.6343 4.38 31.229 4.38H29.853C29.4263 4.38 29.085 4.48133 28.829 4.684C28.573 4.876 28.445 5.132 28.445 5.452V5.916C28.445 6.11867 28.5303 6.3 28.701 6.46C28.8823 6.62 29.1117 6.72133 29.389 6.764L32.141 7.244C32.6743 7.34 33.101 7.548 33.421 7.868C33.7517 8.188 33.917 8.572 33.917 9.02V9.66C33.917 10.2467 33.6663 10.7213 33.165 11.084C32.6743 11.4467 32.0237 11.628 31.213 11.628H29.821ZM45.7015 3.516L43.9735 10.572C43.8882 10.892 43.7708 11.1267 43.6215 11.276C43.4722 11.4253 43.2695 11.5 43.0135 11.5H42.4695L40.4695 5.468L38.4055 11.5H37.8615C37.6162 11.5 37.4135 11.4253 37.2535 11.276C37.0935 11.1267 36.9762 10.892 36.9015 10.572L35.1575 3.516H36.3735L37.8615 10.22L40.0215 3.74H40.4375C40.7468 3.74 40.9548 3.91067 41.0615 4.252L43.0135 10.172L44.4855 3.516H45.7015ZM49.8925 11.628C48.9965 11.628 48.2765 11.3507 47.7325 10.796C47.1885 10.2413 46.9165 9.51067 46.9165 8.604V6.412C46.9165 5.50533 47.1885 4.77467 47.7325 4.22C48.2872 3.66533 49.0178 3.388 49.9245 3.388H51.2365C52.1432 3.388 52.8685 3.66533 53.4125 4.22C53.9672 4.77467 54.2445 5.50533 54.2445 6.412V8.604C54.2445 9.51067 53.9672 10.2413 53.4125 10.796C52.8578 11.3507 52.1218 11.628 51.2045 11.628H49.8925ZM51.2045 10.604C51.7805 10.604 52.2392 10.4227 52.5805 10.06C52.9218 9.68667 53.0925 9.20133 53.0925 8.604V6.412C53.0925 5.81467 52.9218 5.33467 52.5805 4.972C52.2392 4.59867 51.7912 4.412 51.2365 4.412H49.9245C49.3698 4.412 48.9218 4.59867 48.5805 4.972C48.2392 5.33467 48.0685 5.81467 48.0685 6.412V8.604C48.0685 9.212 48.2338 9.69733 48.5645 10.06C48.8952 10.4227 49.3378 10.604 49.8925 10.604H51.2045ZM56.3615 3.516H57.4815V4.748C57.6948 4.37467 58.0148 4.07067 58.4415 3.836C58.8788 3.60133 59.3322 3.484 59.8015 3.484H60.5055V4.524H59.8015C59.1188 4.524 58.5642 4.74267 58.1375 5.18C57.7215 5.60667 57.5135 6.17733 57.5135 6.892V11.5H56.3615V3.516ZM64.279 11.628C63.735 11.628 63.2497 11.5 62.823 11.244C62.3963 10.988 62.0657 10.6307 61.831 10.172C61.5963 9.71333 61.479 9.18 61.479 8.572V6.652C61.479 6.012 61.6017 5.44667 61.847 4.956C62.0923 4.45467 62.439 4.07067 62.887 3.804C63.335 3.52667 63.847 3.388 64.423 3.388H65.607C65.9697 3.388 66.3163 3.47333 66.647 3.644C66.9883 3.81467 67.2603 4.04933 67.463 4.348V0.299999H68.615V11.5H67.495V10.316C67.2497 10.7107 66.9297 11.0307 66.535 11.276C66.1403 11.5107 65.7563 11.628 65.383 11.628H64.279ZM65.351 10.604C65.6923 10.604 66.023 10.4973 66.343 10.284C66.663 10.06 66.9243 9.772 67.127 9.42C67.3297 9.068 67.4417 8.70533 67.463 8.332V6.316C67.3883 5.75067 67.175 5.292 66.823 4.94C66.4817 4.588 66.0657 4.412 65.575 4.412H64.455C63.911 4.412 63.4683 4.62 63.127 5.036C62.7963 5.44133 62.631 5.98 62.631 6.652V8.572C62.631 9.16933 62.7857 9.66 63.095 10.044C63.415 10.4173 63.8203 10.604 64.311 10.604H65.351ZM71.593 5.628C71.337 5.628 71.129 5.548 70.969 5.388C70.809 5.228 70.729 5.02 70.729 4.764C70.729 4.508 70.809 4.3 70.969 4.14C71.129 3.98 71.337 3.9 71.593 3.9C71.849 3.9 72.057 3.98 72.217 4.14C72.377 4.3 72.457 4.508 72.457 4.764C72.457 5.02 72.377 5.228 72.217 5.388C72.057 5.548 71.849 5.628 71.593 5.628ZM71.593 11.1C71.337 11.1 71.129 11.02 70.969 10.86C70.809 10.7 70.729 10.492 70.729 10.236C70.729 9.98 70.809 9.772 70.969 9.612C71.129 9.452 71.337 9.372 71.593 9.372C71.849 9.372 72.057 9.452 72.217 9.612C72.377 9.772 72.457 9.98 72.457 10.236C72.457 10.492 72.377 10.7 72.217 10.86C72.057 11.02 71.849 11.1 71.593 11.1Z" fill="url(#paint0_linear_811_915)"/>
<defs>
<linearGradient id="paint0_linear_811_915" x1="20.0179" y1="-4.33105" x2="23.7695" y2="31.2185" gradientUnits="userSpaceOnUse">
<stop stop-color="#727272"/>
<stop offset="1" stop-color="white"/>
</linearGradient>
</defs>
</svg>
