<svg width="109" height="16" viewBox="0 0 109 16" fill="none" xmlns="http://www.w3.org/2000/svg">
<path opacity="0.45" d="M3.488 13.9614C2.67733 13.9614 2.02667 13.732 1.536 13.2734C1.04533 12.8147 0.8 12.212 0.8 11.4654H1.92C1.92 11.9134 2.064 12.276 2.352 12.5534C2.64 12.8307 3.01867 12.9694 3.488 12.9694H4.88C5.33867 12.9694 5.712 12.8787 6 12.6974C6.288 12.5054 6.432 12.26 6.432 11.9614V11.4174C6.432 11.2147 6.352 11.0387 6.192 10.8894C6.032 10.7294 5.824 10.6227 5.568 10.5694L2.8 10.0894C2.24533 9.99337 1.79733 9.78537 1.456 9.46537C1.12533 9.13471 0.96 8.75071 0.96 8.31337V7.78537C0.96 7.16671 1.19467 6.67071 1.664 6.29737C2.13333 5.91337 2.752 5.72137 3.52 5.72137H4.896C5.64267 5.72137 6.24533 5.93471 6.704 6.36137C7.16267 6.77737 7.392 7.33204 7.392 8.02537H6.272C6.26133 7.63071 6.128 7.31604 5.872 7.08137C5.62667 6.83604 5.30133 6.71337 4.896 6.71337H3.52C3.09333 6.71337 2.752 6.81471 2.496 7.01737C2.24 7.20937 2.112 7.46537 2.112 7.78537V8.24937C2.112 8.45204 2.19733 8.63337 2.368 8.79337C2.54933 8.95337 2.77867 9.05471 3.056 9.09737L5.808 9.57737C6.34133 9.67337 6.768 9.88137 7.088 10.2014C7.41867 10.5214 7.584 10.9054 7.584 11.3534V11.9934C7.584 12.58 7.33333 13.0547 6.832 13.4174C6.34133 13.78 5.69067 13.9614 4.88 13.9614H3.488ZM12.1845 13.9614C11.2885 13.9614 10.5685 13.7 10.0245 13.1774C9.4805 12.644 9.2085 11.94 9.2085 11.0654V8.77737C9.2085 7.86004 9.4805 7.12404 10.0245 6.56937C10.5685 6.00404 11.2885 5.72137 12.1845 5.72137H13.4965C14.3498 5.72137 15.0378 5.99337 15.5605 6.53737C16.0832 7.08137 16.3445 7.80137 16.3445 8.69737V10.1054H10.3605V11.0654C10.3605 11.62 10.5258 12.0734 10.8565 12.4254C11.1978 12.7667 11.6405 12.9374 12.1845 12.9374H13.4005C13.9338 12.9374 14.3658 12.7934 14.6965 12.5054C15.0272 12.2067 15.1925 11.812 15.1925 11.3214H16.3125C16.3125 12.1107 16.0458 12.7507 15.5125 13.2414C14.9792 13.7214 14.2752 13.9614 13.4005 13.9614H12.1845ZM15.1925 9.11337V8.69737C15.1925 8.11071 15.0378 7.64137 14.7285 7.28937C14.4192 6.92671 14.0085 6.74537 13.4965 6.74537H12.1845C11.6405 6.74537 11.1978 6.93204 10.8565 7.30537C10.5258 7.67871 10.3605 8.16937 10.3605 8.77737V9.11337H15.1925ZM20.9486 13.9614C20.074 13.9614 19.37 13.7 18.8366 13.1774C18.3033 12.644 18.0366 11.94 18.0366 11.0654V8.77737C18.0366 7.86004 18.3033 7.12404 18.8366 6.56937C19.37 6.00404 20.0686 5.72137 20.9326 5.72137H22.2446C23.066 5.72137 23.7273 5.95071 24.2286 6.40937C24.73 6.86804 24.9806 7.47071 24.9806 8.21737H23.8606C23.8606 7.78004 23.7113 7.42804 23.4126 7.16137C23.1246 6.88404 22.7353 6.74537 22.2446 6.74537H20.9326C20.41 6.74537 19.9886 6.93204 19.6686 7.30537C19.3486 7.67871 19.1886 8.16937 19.1886 8.77737V11.0654C19.1886 11.6307 19.3486 12.084 19.6686 12.4254C19.9993 12.7667 20.426 12.9374 20.9486 12.9374H22.2606C22.762 12.9374 23.162 12.7614 23.4606 12.4094C23.77 12.0574 23.9246 11.588 23.9246 11.0014H25.0446C25.0446 11.8867 24.7886 12.6014 24.2766 13.1454C23.7646 13.6894 23.0926 13.9614 22.2606 13.9614H20.9486ZM29.3188 13.9614C28.5828 13.9614 27.9854 13.7107 27.5268 13.2094C27.0681 12.708 26.8388 12.052 26.8388 11.2414V5.84937H27.9908V11.2734C27.9908 11.7747 28.1134 12.18 28.3588 12.4894C28.6041 12.788 28.9241 12.9374 29.3188 12.9374H30.3108C30.8014 12.9374 31.2548 12.74 31.6708 12.3454C32.0868 11.9507 32.3534 11.4547 32.4708 10.8574V5.84937H33.6228V13.8334H32.5028V12.6174C32.2574 13.0014 31.9321 13.3214 31.5268 13.5774C31.1214 13.8334 30.7268 13.9614 30.3428 13.9614H29.3188ZM36.0598 5.84937H37.1798V7.08137C37.3931 6.70804 37.7131 6.40404 38.1398 6.16937C38.5771 5.93471 39.0304 5.81737 39.4998 5.81737H40.2038V6.85737H39.4998C38.8171 6.85737 38.2624 7.07604 37.8358 7.51337C37.4198 7.94004 37.2118 8.51071 37.2118 9.22537V13.8334H36.0598V5.84937ZM44.1533 13.9614C43.2573 13.9614 42.5373 13.7 41.9933 13.1774C41.4493 12.644 41.1773 11.94 41.1773 11.0654V8.77737C41.1773 7.86004 41.4493 7.12404 41.9933 6.56937C42.5373 6.00404 43.2573 5.72137 44.1533 5.72137H45.4653C46.3186 5.72137 47.0066 5.99337 47.5293 6.53737C48.0519 7.08137 48.3133 7.80137 48.3133 8.69737V10.1054H42.3293V11.0654C42.3293 11.62 42.4946 12.0734 42.8253 12.4254C43.1666 12.7667 43.6093 12.9374 44.1533 12.9374H45.3693C45.9026 12.9374 46.3346 12.7934 46.6653 12.5054C46.9959 12.2067 47.1613 11.812 47.1613 11.3214H48.2812C48.2812 12.1107 48.0146 12.7507 47.4813 13.2414C46.9479 13.7214 46.2439 13.9614 45.3693 13.9614H44.1533ZM47.1613 9.11337V8.69737C47.1613 8.11071 47.0066 7.64137 46.6973 7.28937C46.3879 6.92671 45.9773 6.74537 45.4653 6.74537H44.1533C43.6093 6.74537 43.1666 6.93204 42.8253 7.30537C42.4946 7.67871 42.3293 8.16937 42.3293 8.77737V9.11337H47.1613ZM52.2614 3.91337L49.6854 5.20937V4.08937L52.4214 2.63337H53.4454V13.8334H52.2614V3.91337ZM61.0521 11.5294H56.1401C55.8308 11.5294 55.6015 11.476 55.4521 11.3694C55.3135 11.2627 55.2441 11.092 55.2441 10.8574V10.5374L61.1161 2.63337H62.2361V10.4734H63.6441V11.5294H62.2361V13.8334H61.0521V11.5294ZM61.0841 10.4734V4.39337H61.0681L56.5561 10.4734H61.0841ZM68.0763 13.9614C67.1696 13.9614 66.4389 13.6894 65.8843 13.1454C65.3296 12.5907 65.0523 11.8654 65.0523 10.9694H66.2043C66.2043 11.556 66.3749 12.0254 66.7163 12.3774C67.0576 12.7294 67.5109 12.9054 68.0763 12.9054H69.6123C70.2309 12.9054 70.7269 12.724 71.1003 12.3614C71.4843 11.988 71.6763 11.4974 71.6763 10.8894V9.89737C71.6763 9.33204 71.4789 8.87871 71.0843 8.53737C70.7003 8.19604 70.1936 8.02537 69.5643 8.02537H65.4523V2.63337H72.4443V3.68937H66.6363V6.96937H69.5643C70.5563 6.96937 71.3509 7.23604 71.9483 7.76937C72.5563 8.30271 72.8603 9.01204 72.8603 9.89737V10.8894C72.8603 11.4974 72.7216 12.036 72.4443 12.5054C72.1776 12.964 71.7989 13.3214 71.3083 13.5774C70.8176 13.8334 70.2523 13.9614 69.6123 13.9614H68.0763ZM78.0548 13.9614C77.4148 13.9614 76.8441 13.812 76.3428 13.5134C75.8521 13.2147 75.4681 12.7934 75.1908 12.2494C74.9134 11.7054 74.7747 11.0814 74.7747 10.3774V6.08937C74.7747 5.38537 74.9134 4.76137 75.1908 4.21737C75.4681 3.67337 75.8521 3.25204 76.3428 2.95337C76.8441 2.65471 77.4148 2.50537 78.0548 2.50537H79.7508C80.3908 2.50537 80.9561 2.65471 81.4468 2.95337C81.9374 3.25204 82.3161 3.67337 82.5828 4.21737C82.8601 4.76137 82.9988 5.38537 82.9988 6.08937V10.3774C82.9988 11.0814 82.8601 11.7054 82.5828 12.2494C82.3161 12.7934 81.9374 13.2147 81.4468 13.5134C80.9561 13.812 80.3908 13.9614 79.7508 13.9614H78.0548ZM79.7188 12.9054C80.3481 12.9054 80.8548 12.676 81.2388 12.2174C81.6228 11.748 81.8148 11.1347 81.8148 10.3774V6.08937C81.8148 5.33204 81.6228 4.72404 81.2388 4.26537C80.8548 3.79604 80.3481 3.56137 79.7188 3.56137H78.0868C77.4574 3.56137 76.9454 3.79604 76.5508 4.26537C76.1561 4.72404 75.9588 5.33204 75.9588 6.08937V10.3774C75.9588 11.1347 76.1561 11.748 76.5508 12.2174C76.9454 12.676 77.4574 12.9054 78.0868 12.9054H79.7188ZM85.6625 2.63337H86.8145V10.6494H85.6625V2.63337ZM86.2385 13.9934C85.9825 13.9934 85.7745 13.9134 85.6145 13.7534C85.4545 13.5934 85.3745 13.3854 85.3745 13.1294C85.3745 12.8734 85.4545 12.6654 85.6145 12.5054C85.7745 12.3454 85.9825 12.2654 86.2385 12.2654C86.4945 12.2654 86.7025 12.3454 86.8625 12.5054C87.0225 12.6654 87.1025 12.8734 87.1025 13.1294C87.1025 13.3854 87.0225 13.5934 86.8625 13.7534C86.7025 13.9134 86.4945 13.9934 86.2385 13.9934ZM91.3019 10.9054H89.3179V9.88137H91.3019V6.63337H89.3179V5.60937H91.3019V2.63337H92.4539V5.60937H95.4459V2.63337H96.5979V5.60937H98.5819V6.63337H96.5979V9.88137H98.5819V10.9054H96.5979V13.8334H95.4459V10.9054H92.4539V13.8334H91.3019V10.9054ZM95.4459 9.88137V6.63337H92.4539V9.88137H95.4459ZM106.092 7.88137C106.924 8.03071 107.57 8.31871 108.028 8.74537C108.487 9.16137 108.716 9.69471 108.716 10.3454V11.3694C108.716 12.148 108.418 12.7774 107.82 13.2574C107.223 13.7267 106.439 13.9614 105.468 13.9614H105.132V15.5934H103.98V13.9614H103.628C102.988 13.9614 102.423 13.828 101.932 13.5614C101.442 13.284 101.058 12.9 100.78 12.4094C100.514 11.908 100.38 11.332 100.38 10.6814H101.532C101.532 11.3427 101.724 11.8814 102.108 12.2974C102.503 12.7027 103.02 12.9054 103.66 12.9054H105.436C106.066 12.9054 106.572 12.7667 106.956 12.4894C107.34 12.2014 107.532 11.828 107.532 11.3694V10.3454C107.532 9.98271 107.388 9.67337 107.1 9.41737C106.823 9.16137 106.439 8.99604 105.948 8.92137L103.068 8.44137C102.258 8.30271 101.628 8.01471 101.18 7.57737C100.732 7.14004 100.508 6.59071 100.508 5.92937V5.06537C100.508 4.28671 100.796 3.66804 101.372 3.20937C101.959 2.74004 102.732 2.50537 103.692 2.50537H103.98V0.873373H105.132V2.50537H105.5C106.407 2.50537 107.138 2.78271 107.692 3.33737C108.247 3.88137 108.524 4.60137 108.524 5.49737H107.372C107.372 4.91071 107.202 4.44137 106.86 4.08937C106.519 3.73737 106.066 3.56137 105.5 3.56137H103.692C103.084 3.56137 102.599 3.70004 102.236 3.97737C101.874 4.24404 101.692 4.60671 101.692 5.06537V5.92937C101.692 6.30271 101.826 6.61737 102.092 6.87337C102.37 7.12937 102.748 7.30004 103.228 7.38537L106.092 7.88137Z" fill="url(#paint0_linear_811_924)"/>
<defs>
<linearGradient id="paint0_linear_811_924" x1="17.8082" y1="-1.99768" x2="22.1491" y2="33.4157" gradientUnits="userSpaceOnUse">
<stop stop-color="#727272"/>
<stop offset="1" stop-color="white"/>
</linearGradient>
</defs>
</svg>
