<svg width="19" height="23" viewBox="0 0 19 23" fill="none" xmlns="http://www.w3.org/2000/svg">
<path d="M0.5 17.7223C0.5 18.6091 0.601529 19.2586 0.830574 19.7494C1.05043 20.2204 1.40537 20.5827 1.99938 20.8656C2.61056 21.1566 3.47166 21.3614 4.68509 21.4898C5.89383 21.6177 7.41702 21.6667 9.33333 21.6667C11.2496 21.6667 12.7728 21.6177 13.9816 21.4898C15.195 21.3614 16.0561 21.1566 16.6673 20.8656C17.2613 20.5827 17.6162 20.2204 17.8361 19.7494C18.0651 19.2586 18.1667 18.6091 18.1667 17.7223C18.1667 16.8355 18.0651 16.186 17.8361 15.6953C17.6162 15.2242 17.2613 14.8619 16.6673 14.579C16.0561 14.288 15.195 14.0833 13.9816 13.9548C12.7728 13.8269 11.2496 13.7779 9.33333 13.7779C7.41702 13.7779 5.89383 13.8269 4.68509 13.9548C3.47166 14.0833 2.61056 14.288 1.99938 14.579C1.40537 14.8619 1.05043 15.2242 0.830574 15.6953C0.601529 16.186 0.5 16.8355 0.5 17.7223Z" stroke="url(#paint0_linear_811_955)" stroke-linecap="round" stroke-linejoin="round"/>
<path d="M4.74201 6.16671C4.74201 8.85826 6.8191 11 9.33292 11C11.8467 11 13.9238 8.85826 13.9238 6.16671C13.9238 3.47516 11.8467 1.33337 9.33292 1.33337C6.8191 1.33337 4.74201 3.47516 4.74201 6.16671Z" stroke="url(#paint1_linear_811_955)"/>
<defs>
<linearGradient id="paint0_linear_811_955" x1="1.91781" y1="21.6797" x2="7.71667" y2="9.45258" gradientUnits="userSpaceOnUse">
<stop stop-color="#727272"/>
<stop offset="1" stop-color="white"/>
</linearGradient>
<linearGradient id="paint1_linear_811_955" x1="13.3778" y1="1.41785" x2="4.39947" y2="10.0229" gradientUnits="userSpaceOnUse">
<stop stop-color="#727272"/>
<stop offset="1" stop-color="white"/>
</linearGradient>
</defs>
</svg>
