<svg width="77" height="12" viewBox="0 0 77 12" fill="none" xmlns="http://www.w3.org/2000/svg">
<path d="M4.00501 11.9614C3.32234 11.9614 2.71967 11.812 2.19701 11.5134C1.67434 11.204 1.26901 10.772 0.981008 10.2174C0.693008 9.65204 0.549008 9.00671 0.549008 8.28137V0.633373H1.73301V8.31337C1.73301 9.09204 1.94101 9.72137 2.35701 10.2014C2.77301 10.6707 3.32234 10.9054 4.00501 10.9054H5.73301C6.41567 10.9054 6.96501 10.6707 7.38101 10.2014C7.79701 9.72137 8.00501 9.09204 8.00501 8.31337V0.633373H9.18901V8.28137C9.18901 9.00671 9.04501 9.65204 8.75701 10.2174C8.46901 10.772 8.06367 11.204 7.54101 11.5134C7.01834 11.812 6.41567 11.9614 5.73301 11.9614H4.00501ZM13.8991 11.9614C13.0885 11.9614 12.4378 11.732 11.9471 11.2734C11.4565 10.8147 11.2111 10.212 11.2111 9.46537H12.3311C12.3311 9.91337 12.4751 10.276 12.7631 10.5534C13.0511 10.8307 13.4298 10.9694 13.8991 10.9694H15.2911C15.7498 10.9694 16.1231 10.8787 16.4111 10.6974C16.6991 10.5054 16.8431 10.26 16.8431 9.96137V9.41737C16.8431 9.21471 16.7631 9.03871 16.6031 8.88937C16.4431 8.72937 16.2351 8.62271 15.9791 8.56937L13.2111 8.08937C12.6565 7.99337 12.2085 7.78537 11.8671 7.46537C11.5365 7.13471 11.3711 6.75071 11.3711 6.31337V5.78537C11.3711 5.16671 11.6058 4.67071 12.0751 4.29737C12.5445 3.91337 13.1631 3.72137 13.9311 3.72137H15.3071C16.0538 3.72137 16.6565 3.93471 17.1151 4.36137C17.5738 4.77737 17.8031 5.33204 17.8031 6.02537H16.6831C16.6725 5.63071 16.5391 5.31604 16.2831 5.08137C16.0378 4.83604 15.7125 4.71337 15.3071 4.71337H13.9311C13.5045 4.71337 13.1631 4.81471 12.9071 5.01737C12.6511 5.20937 12.5231 5.46537 12.5231 5.78537V6.24937C12.5231 6.45204 12.6085 6.63337 12.7791 6.79337C12.9605 6.95337 13.1898 7.05471 13.4671 7.09737L16.2191 7.57737C16.7525 7.67337 17.1791 7.88137 17.4991 8.20137C17.8298 8.52137 17.9951 8.90537 17.9951 9.35337V9.99337C17.9951 10.58 17.7445 11.0547 17.2431 11.4174C16.7525 11.78 16.1018 11.9614 15.2911 11.9614H13.8991ZM22.5956 11.9614C21.6996 11.9614 20.9796 11.7 20.4356 11.1774C19.8916 10.644 19.6196 9.94004 19.6196 9.06537V6.77737C19.6196 5.86004 19.8916 5.12404 20.4356 4.56937C20.9796 4.00404 21.6996 3.72137 22.5956 3.72137H23.9076C24.761 3.72137 25.449 3.99337 25.9716 4.53737C26.4943 5.08137 26.7556 5.80137 26.7556 6.69737V8.10537H20.7716V9.06537C20.7716 9.62004 20.937 10.0734 21.2676 10.4254C21.609 10.7667 22.0516 10.9374 22.5956 10.9374H23.8116C24.345 10.9374 24.777 10.7934 25.1076 10.5054C25.4383 10.2067 25.6036 9.81204 25.6036 9.32137H26.7236C26.7236 10.1107 26.457 10.7507 25.9236 11.2414C25.3903 11.7214 24.6863 11.9614 23.8116 11.9614H22.5956ZM25.6036 7.11337V6.69737C25.6036 6.11071 25.449 5.64137 25.1396 5.28937C24.8303 4.92671 24.4196 4.74537 23.9076 4.74537H22.5956C22.0516 4.74537 21.609 4.93204 21.2676 5.30537C20.937 5.67871 20.7716 6.16937 20.7716 6.77737V7.11337H25.6036ZM28.7678 3.84937H29.8878V5.08137C30.1011 4.70804 30.4211 4.40404 30.8478 4.16937C31.2851 3.93471 31.7384 3.81737 32.2078 3.81737H32.9118V4.85737H32.2078C31.5251 4.85737 30.9704 5.07604 30.5438 5.51337C30.1278 5.94004 29.9198 6.51071 29.9198 7.22537V11.8334H28.7678V3.84937ZM34.4553 3.84937H35.5753V5.03337C35.8206 4.64937 36.1406 4.33471 36.5353 4.08937C36.9299 3.84404 37.3246 3.72137 37.7193 3.72137H38.8073C39.5433 3.72137 40.1353 3.97204 40.5833 4.47337C41.0419 4.97471 41.2713 5.63071 41.2713 6.44137V11.8334H40.1193V6.40937C40.1193 5.91871 39.9966 5.51871 39.7513 5.20937C39.5059 4.90004 39.1806 4.74537 38.7753 4.74537H37.7513C37.2499 4.74537 36.7913 4.94271 36.3753 5.33737C35.9699 5.73204 35.7139 6.23871 35.6073 6.85737V11.8334H34.4553V3.84937ZM45.9155 11.9614C45.1368 11.9614 44.5128 11.7587 44.0435 11.3534C43.5848 10.948 43.3555 10.404 43.3555 9.72137V9.20937C43.3555 8.53737 43.5955 7.99871 44.0755 7.59337C44.5555 7.18804 45.1902 6.98537 45.9795 6.98537H47.0035C47.3555 6.98537 47.7182 7.03871 48.0915 7.14537C48.4648 7.25204 48.7848 7.39604 49.0515 7.57737V6.24937C49.0515 5.80137 48.9128 5.43871 48.6355 5.16137C48.3582 4.87337 47.9902 4.72937 47.5315 4.72937H46.2515C45.7928 4.72937 45.4248 4.83604 45.1475 5.04937C44.8702 5.26271 44.7315 5.54537 44.7315 5.89737H43.5795C43.5795 5.24671 43.8248 4.72404 44.3155 4.32937C44.8062 3.92404 45.4515 3.72137 46.2515 3.72137H47.5315C48.3208 3.72137 48.9555 3.95604 49.4355 4.42537C49.9262 4.88404 50.1715 5.49204 50.1715 6.24937V11.8334H49.0835V10.7134C48.8382 11.0974 48.5128 11.4014 48.1075 11.6254C47.7128 11.8494 47.3022 11.9614 46.8755 11.9614H45.9155ZM46.9075 10.9534C47.4088 10.9534 47.8568 10.7987 48.2515 10.4894C48.6462 10.18 48.9128 9.76937 49.0515 9.25737V8.66537C48.8382 8.46271 48.5395 8.30271 48.1555 8.18537C47.7822 8.05737 47.3982 7.99337 47.0035 7.99337H45.9795C45.5422 7.99337 45.1848 8.10537 44.9075 8.32937C44.6408 8.55337 44.5075 8.84671 44.5075 9.20937V9.72137C44.5075 10.0947 44.6355 10.3934 44.8915 10.6174C45.1475 10.8414 45.4888 10.9534 45.9155 10.9534H46.9075ZM61.2541 3.72137C61.9581 3.72137 62.5128 3.95071 62.9181 4.40937C63.3341 4.85737 63.5421 5.48137 63.5421 6.28137V11.8334H62.3901V6.24937C62.3901 5.78004 62.2835 5.41204 62.0701 5.14537C61.8568 4.87871 61.5741 4.74537 61.2221 4.74537H60.3101C59.8515 4.74537 59.4728 4.90004 59.1741 5.20937C58.8755 5.51871 58.6835 5.95604 58.5981 6.52137V11.8334H57.4461V6.34537C57.4461 5.84404 57.3448 5.45471 57.1421 5.17737C56.9501 4.88937 56.6835 4.74537 56.3421 4.74537H55.4301C54.9928 4.74537 54.6088 4.93737 54.2781 5.32137C53.9475 5.70537 53.7395 6.20671 53.6541 6.82537V11.8334H52.5021V3.84937H53.6221V5.00137C53.8355 4.59604 54.1021 4.28137 54.4221 4.05737C54.7421 3.83337 55.0781 3.72137 55.4301 3.72137H56.3741C56.8221 3.72137 57.2061 3.83337 57.5261 4.05737C57.8568 4.27071 58.1075 4.58537 58.2781 5.00137C58.5235 4.57471 58.8168 4.25471 59.1581 4.04137C59.4995 3.82804 59.8728 3.72137 60.2781 3.72137H61.2541ZM68.5331 11.9614C67.6371 11.9614 66.9171 11.7 66.3731 11.1774C65.8291 10.644 65.5571 9.94004 65.5571 9.06537V6.77737C65.5571 5.86004 65.8291 5.12404 66.3731 4.56937C66.9171 4.00404 67.6371 3.72137 68.5331 3.72137H69.8451C70.6985 3.72137 71.3865 3.99337 71.9091 4.53737C72.4318 5.08137 72.6931 5.80137 72.6931 6.69737V8.10537H66.7091V9.06537C66.7091 9.62004 66.8745 10.0734 67.2051 10.4254C67.5465 10.7667 67.9891 10.9374 68.5331 10.9374H69.7491C70.2825 10.9374 70.7145 10.7934 71.0451 10.5054C71.3758 10.2067 71.5411 9.81204 71.5411 9.32137H72.6611C72.6611 10.1107 72.3945 10.7507 71.8611 11.2414C71.3278 11.7214 70.6238 11.9614 69.7491 11.9614H68.5331ZM71.5411 7.11337V6.69737C71.5411 6.11071 71.3865 5.64137 71.0771 5.28937C70.7678 4.92671 70.3571 4.74537 69.8451 4.74537H68.5331C67.9891 4.74537 67.5465 4.93204 67.2051 5.30537C66.8745 5.67871 66.7091 6.16937 66.7091 6.77737V7.11337H71.5411ZM75.2493 5.96137C74.9933 5.96137 74.7853 5.88137 74.6253 5.72137C74.4653 5.56137 74.3853 5.35337 74.3853 5.09737C74.3853 4.84137 74.4653 4.63337 74.6253 4.47337C74.7853 4.31337 74.9933 4.23337 75.2493 4.23337C75.5053 4.23337 75.7133 4.31337 75.8733 4.47337C76.0333 4.63337 76.1133 4.84137 76.1133 5.09737C76.1133 5.35337 76.0333 5.56137 75.8733 5.72137C75.7133 5.88137 75.5053 5.96137 75.2493 5.96137ZM75.2493 11.4334C74.9933 11.4334 74.7853 11.3534 74.6253 11.1934C74.4653 11.0334 74.3853 10.8254 74.3853 10.5694C74.3853 10.3134 74.4653 10.1054 74.6253 9.94537C74.7853 9.78537 74.9933 9.70537 75.2493 9.70537C75.5053 9.70537 75.7133 9.78537 75.8733 9.94537C76.0333 10.1054 76.1133 10.3134 76.1133 10.5694C76.1133 10.8254 76.0333 11.0334 75.8733 11.1934C75.7133 11.3534 75.5053 11.4334 75.2493 11.4334Z" fill="url(#paint0_linear_811_905)"/>
<defs>
<linearGradient id="paint0_linear_811_905" x1="10.8399" y1="-3.99768" x2="17.422" y2="30.6992" gradientUnits="userSpaceOnUse">
<stop stop-color="#727272"/>
<stop offset="1" stop-color="white"/>
</linearGradient>
</defs>
</svg>
