<svg width="100" height="43" viewBox="0 0 100 43" fill="none" xmlns="http://www.w3.org/2000/svg">
<rect opacity="0.7" x="99" y="1" width="40.9816" height="97.5" rx="14" transform="rotate(90 99 1)" fill="url(#paint0_linear_734_293)" fill-opacity="0.15" stroke="url(#paint1_linear_734_293)" stroke-width="2"/>
<path d="M37.0648 28.128C36.1154 28.128 35.3581 27.8453 34.7928 27.28C34.2381 26.7147 33.9608 25.9467 33.9608 24.976H34.8248C34.8248 25.7013 35.0274 26.2773 35.4328 26.704C35.8381 27.12 36.3874 27.328 37.0807 27.328H38.8728C39.5448 27.328 40.0834 27.1733 40.4888 26.864C40.9048 26.5547 41.1128 26.1493 41.1128 25.648V24.56C41.1128 24.1547 40.9634 23.808 40.6648 23.52C40.3661 23.232 39.9501 23.0453 39.4168 22.96L36.5528 22.48C35.7848 22.352 35.1821 22.0747 34.7448 21.648C34.3181 21.2213 34.1048 20.688 34.1048 20.048V19.12C34.1048 18.384 34.3821 17.792 34.9368 17.344C35.4914 16.896 36.2221 16.672 37.1288 16.672H38.9368C39.8008 16.672 40.4941 16.9333 41.0168 17.456C41.5501 17.9787 41.8168 18.6667 41.8168 19.52H40.9528C40.9528 18.9013 40.7661 18.4053 40.3928 18.032C40.0301 17.648 39.5448 17.456 38.9368 17.456H37.1288C36.4781 17.456 35.9554 17.6107 35.5608 17.92C35.1768 18.2187 34.9848 18.6187 34.9848 19.12V20.048C34.9848 20.4747 35.1288 20.832 35.4168 21.12C35.7048 21.408 36.1101 21.5947 36.6328 21.68L39.4808 22.176C40.2701 22.3147 40.8834 22.592 41.3208 23.008C41.7688 23.424 41.9928 23.9413 41.9928 24.56V25.648C41.9928 26.3947 41.7101 26.9973 41.1448 27.456C40.5794 27.904 39.8274 28.128 38.8888 28.128H37.0648ZM47.2426 28C46.432 28 45.8506 27.8293 45.4986 27.488C45.1466 27.136 44.9706 26.56 44.9706 25.76V20.784H43.5626V20.016H44.9706V17.6H45.8186V20.016L47.8986 20.016V20.784L45.8186 20.784V25.76C45.8186 26.2827 45.9253 26.6613 46.1386 26.896C46.352 27.12 46.7093 27.232 47.2106 27.232H47.8986V28H47.2426ZM52.2071 28.128C51.4605 28.128 50.8631 27.936 50.4151 27.552C49.9671 27.1573 49.7431 26.6347 49.7431 25.984V25.376C49.7431 24.7253 49.9725 24.208 50.4311 23.824C50.8898 23.44 51.4978 23.248 52.2551 23.248H53.2951C53.6578 23.248 54.0311 23.3067 54.4151 23.424C54.8098 23.5413 55.1458 23.7013 55.4231 23.904V22.352C55.4231 21.8507 55.2685 21.44 54.9591 21.12C54.6498 20.8 54.2498 20.64 53.7591 20.64H52.5111C52.0098 20.64 51.6045 20.7573 51.2951 20.992C50.9858 21.2267 50.8311 21.5413 50.8311 21.936H49.9671C49.9671 21.3173 50.2018 20.8213 50.6711 20.448C51.1405 20.0747 51.7538 19.888 52.5111 19.888H53.7591C54.5165 19.888 55.1191 20.112 55.5671 20.56C56.0258 21.008 56.2551 21.6053 56.2551 22.352V28H55.4391V26.752C55.1618 27.1787 54.8205 27.5147 54.4151 27.76C54.0098 28.0053 53.5991 28.128 53.1831 28.128H52.2071ZM53.1991 27.36C53.6471 27.36 54.0738 27.2 54.4791 26.88C54.8951 26.56 55.2098 26.1387 55.4231 25.616V24.752C55.1885 24.528 54.8738 24.3467 54.4791 24.208C54.0951 24.0693 53.7005 24 53.2951 24H52.2551C51.7538 24 51.3538 24.128 51.0551 24.384C50.7565 24.6293 50.6071 24.96 50.6071 25.376V25.984C50.6071 26.4 50.7511 26.736 51.0391 26.992C51.3271 27.2373 51.7165 27.36 52.2071 27.36H53.1991ZM58.7808 20.016H59.6128V21.312C59.8474 20.9067 60.1834 20.5867 60.6208 20.352C61.0581 20.1067 61.5274 19.984 62.0288 19.984H62.6208V20.752H62.0128C61.3194 20.752 60.7488 20.976 60.3008 21.424C59.8634 21.872 59.6448 22.4533 59.6448 23.168V28H58.7808V20.016ZM67.3833 28C66.5726 28 65.9913 27.8293 65.6393 27.488C65.2873 27.136 65.1113 26.56 65.1113 25.76V20.784H63.7033V20.016H65.1113V17.6H65.9593V20.016H68.0393V20.784H65.9593V25.76C65.9593 26.2827 66.0659 26.6613 66.2793 26.896C66.4926 27.12 66.8499 27.232 67.3513 27.232H68.0393V28H67.3833Z" fill="#FCB433"/>
<defs>
<linearGradient id="paint0_linear_734_293" x1="139.244" y1="13.4092" x2="86.6402" y2="30.6241" gradientUnits="userSpaceOnUse">
<stop stop-color="#FCB433"/>
<stop offset="1" stop-color="#966B1E"/>
</linearGradient>
<linearGradient id="paint1_linear_734_293" x1="139.244" y1="13.4092" x2="86.6402" y2="30.6241" gradientUnits="userSpaceOnUse">
<stop stop-color="#FCB433"/>
<stop offset="1" stop-color="#966B1E"/>
</linearGradient>
</defs>
</svg>
