<svg width="32" height="105" viewBox="0 0 32 105" fill="none" xmlns="http://www.w3.org/2000/svg">
<path opacity="0.15" d="M0 0H8C21.2548 0 32 10.7452 32 24V81C32 94.2548 21.2548 105 8 105H0V0Z" fill="url(#paint0_linear_734_295)"/>
<path d="M10.872 24.3651C10.872 23.6611 11.0373 23.0424 11.368 22.5091C11.6987 21.9864 12.1627 21.5757 12.76 21.2771C13.368 20.9891 14.0667 20.8451 14.856 20.8451L18.36 20.8451C19.1493 20.8451 19.8427 20.9944 20.44 21.2931C21.0373 21.5917 21.5013 22.0131 21.832 22.5571C22.1627 23.1011 22.328 23.7251 22.328 24.4291L22.328 26.1251C22.328 26.8077 22.184 27.4051 21.896 27.9171C21.608 28.4397 21.2027 28.8397 20.68 29.1171C20.168 29.4051 19.576 29.5491 18.904 29.5491L18.904 28.7011C19.6933 28.7011 20.328 28.4664 20.808 27.9971C21.2987 27.5277 21.544 26.9037 21.544 26.1251L21.544 24.4291C21.544 23.6184 21.2507 22.9624 20.664 22.4611C20.0773 21.9704 19.3093 21.7251 18.36 21.7251L14.856 21.7251C13.896 21.7251 13.1227 21.9651 12.536 22.4451C11.96 22.9357 11.672 23.5757 11.672 24.3651L11.672 26.0931C11.672 26.8931 11.9387 27.5384 12.472 28.0291C13.016 28.5304 13.7253 28.7811 14.6 28.7811L15.88 28.7811L15.88 25.5971L16.664 25.5971L16.664 29.6291L14.6 29.6291C13.864 29.6291 13.2133 29.4797 12.648 29.1811C12.0827 28.8931 11.6453 28.4824 11.336 27.9491C11.0267 27.4157 10.872 26.7971 10.872 26.0931L10.872 24.3651ZM18.984 31.9292L18.984 32.7612L17.688 32.7612C18.0933 32.9959 18.4133 33.3319 18.648 33.7692C18.8933 34.2065 19.016 34.6759 19.016 35.1772L19.016 35.7692L18.248 35.7692L18.248 35.1612C18.248 34.4679 18.024 33.8972 17.576 33.4492C17.128 33.0119 16.5467 32.7932 15.832 32.7932L11 32.7932L11 31.9292L18.984 31.9292ZM10.872 39.4337C10.872 38.687 11.064 38.0897 11.448 37.6417C11.8427 37.1937 12.3653 36.9697 13.016 36.9697L13.624 36.9697C14.2747 36.9697 14.792 37.199 15.176 37.6577C15.56 38.1164 15.752 38.7244 15.752 39.4817L15.752 40.5217C15.752 40.8844 15.6933 41.2577 15.576 41.6417C15.4587 42.0364 15.2987 42.3724 15.096 42.6497L16.648 42.6497C17.1493 42.6497 17.56 42.495 17.88 42.1857C18.2 41.8764 18.36 41.4764 18.36 40.9857L18.36 39.7377C18.36 39.2364 18.2427 38.831 18.008 38.5217C17.7733 38.2124 17.4587 38.0577 17.064 38.0577L17.064 37.1937C17.6827 37.1937 18.1787 37.4284 18.552 37.8977C18.9253 38.367 19.112 38.9804 19.112 39.7377L19.112 40.9857C19.112 41.743 18.888 42.3457 18.44 42.7937C17.992 43.2524 17.3947 43.4817 16.648 43.4817L11 43.4817L11 42.6657L12.248 42.6657C11.8213 42.3884 11.4853 42.047 11.24 41.6417C10.9947 41.2364 10.872 40.8257 10.872 40.4097L10.872 39.4337ZM11.64 40.4257C11.64 40.8737 11.8 41.3004 12.12 41.7057C12.44 42.1217 12.8613 42.4364 13.384 42.6497L14.248 42.6497C14.472 42.415 14.6533 42.1004 14.792 41.7057C14.9307 41.3217 15 40.927 15 40.5217L15 39.4817C15 38.9804 14.872 38.5804 14.616 38.2817C14.3707 37.983 14.04 37.8337 13.624 37.8337L13.016 37.8337C12.6 37.8337 12.264 37.9777 12.008 38.2657C11.7627 38.5537 11.64 38.943 11.64 39.4337L11.64 40.4257ZM10.872 48.9833C10.872 48.5993 10.9947 48.2046 11.24 47.7993C11.496 47.4046 11.816 47.0846 12.2 46.8393L11 46.8393L11 46.0073L22.2 46.0073L22.2 46.8713L17.864 46.8713C18.248 47.106 18.552 47.4153 18.776 47.7993C19 48.194 19.112 48.6153 19.112 49.0633L19.112 50.1833C19.112 50.9726 18.8453 51.6126 18.312 52.1033C17.7787 52.594 17.0747 52.8393 16.2 52.8393L13.96 52.8393C13.0427 52.8393 12.296 52.5833 11.72 52.0713C11.1547 51.57 10.872 50.9086 10.872 50.0873L10.872 48.9833ZM11.64 50.0713C11.64 50.6366 11.8533 51.0953 12.28 51.4473C12.7067 51.81 13.2667 51.9913 13.96 51.9913L16.2 51.9913C16.84 51.9913 17.3573 51.8206 17.752 51.4793C18.1467 51.1486 18.344 50.7113 18.344 50.1673L18.344 49.0953C18.344 48.4873 18.1307 47.9753 17.704 47.5593C17.288 47.154 16.7387 46.9246 16.056 46.8713L13.656 46.8713C13.112 46.9673 12.6373 47.218 12.232 47.6233C11.8373 48.0393 11.64 48.4926 11.64 48.9833L11.64 50.0713ZM10.872 58.1239C10.872 57.7399 10.9947 57.3453 11.24 56.9399C11.496 56.5453 11.816 56.2253 12.2 55.9799L11 55.9799L11 55.1479L22.2 55.1479L22.2 56.0119L17.864 56.0119C18.248 56.2466 18.552 56.5559 18.776 56.9399C19 57.3346 19.112 57.7559 19.112 58.2039L19.112 59.3239C19.112 60.1133 18.8453 60.7533 18.312 61.2439C17.7787 61.7346 17.0747 61.9799 16.2 61.9799L13.96 61.9799C13.0427 61.9799 12.296 61.7239 11.72 61.2119C11.1547 60.7106 10.872 60.0493 10.872 59.2279L10.872 58.1239ZM11.64 59.2119C11.64 59.7773 11.8533 60.2359 12.28 60.5879C12.7067 60.9506 13.2667 61.1319 13.96 61.1319L16.2 61.1319C16.84 61.1319 17.3573 60.9613 17.752 60.6199C18.1467 60.2893 18.344 59.8519 18.344 59.3079L18.344 58.2359C18.344 57.6279 18.1307 57.1159 17.704 56.6999C17.288 56.2946 16.7387 56.0653 16.056 56.0119L13.656 56.0119C13.112 56.1079 12.6373 56.3586 12.232 56.7639C11.8373 57.1799 11.64 57.6333 11.64 58.1239L11.64 59.2119ZM20.344 65.0086C20.344 64.7952 20.408 64.6192 20.536 64.4806C20.664 64.3526 20.8347 64.2886 21.048 64.2886C21.2613 64.2886 21.432 64.3526 21.56 64.4806C21.6987 64.6192 21.768 64.7952 21.768 65.0086C21.768 65.2219 21.6987 65.3926 21.56 65.5206C21.432 65.6486 21.2613 65.7126 21.048 65.7126C20.8453 65.7126 20.6747 65.6486 20.536 65.5206C20.408 65.3926 20.344 65.2219 20.344 65.0086ZM18.984 64.5766L18.984 65.4246L11 65.4246L11 64.5766L18.984 64.5766ZM18.984 68.3354L18.984 69.1674L17.624 69.1674C18.0827 69.4341 18.4453 69.7701 18.712 70.1754C18.9787 70.5914 19.112 71.0128 19.112 71.4394L19.112 72.5114C19.112 73.2048 18.8667 73.7648 18.376 74.1914C17.896 74.6288 17.256 74.8474 16.456 74.8474L11 74.8474L11 73.9994L16.472 73.9994C17.0267 73.9994 17.4747 73.8608 17.816 73.5834C18.168 73.3061 18.344 72.9434 18.344 72.4954L18.344 71.4554C18.344 70.9754 18.1467 70.5221 17.752 70.0954C17.3573 69.6688 16.8453 69.3701 16.216 69.1994L11 69.1994L11 68.3354L18.984 68.3354ZM7.752 79.8303C7.752 79.169 7.928 78.625 8.28 78.1983C8.62133 77.7716 9.07466 77.5316 9.64 77.4783L9.64 78.3423C9.29866 78.385 9.02666 78.5396 8.824 78.8063C8.61066 79.0836 8.504 79.425 8.504 79.8303L8.504 81.1583C8.504 81.7556 8.70133 82.2196 9.096 82.5503C9.48 82.881 10.0187 83.0463 10.712 83.0463L12.28 83.0463C11.896 82.7903 11.5867 82.465 11.352 82.0703C11.1173 81.6863 11 81.297 11 80.9023L11 79.7183C11 78.929 11.272 78.289 11.816 77.7983C12.36 77.3076 13.08 77.0623 13.976 77.0623L16.04 77.0623C16.9573 77.0623 17.6987 77.3183 18.264 77.8303C18.8293 78.353 19.112 79.041 19.112 79.8943L19.112 81.0783C19.112 81.4623 19.0053 81.8356 18.792 82.1983C18.5893 82.5716 18.3173 82.8596 17.976 83.0623L18.984 83.0623L18.984 83.8943L10.712 83.8943C9.784 83.8943 9.05866 83.6543 8.536 83.1743C8.01333 82.6943 7.752 82.0223 7.752 81.1583L7.752 79.8303ZM11.768 80.8863C11.768 81.4196 11.976 81.8836 12.392 82.2783C12.8187 82.6836 13.3147 82.9396 13.88 83.0463L16.536 83.0463C17.0693 82.9503 17.5013 82.7156 17.832 82.3423C18.1733 81.9796 18.344 81.5583 18.344 81.0783L18.344 79.9103C18.344 79.313 18.1307 78.833 17.704 78.4703C17.2773 78.1076 16.7227 77.9263 16.04 77.9263L13.976 77.9263C13.3253 77.9263 12.792 78.0916 12.376 78.4223C11.9707 78.7636 11.768 79.201 11.768 79.7343L11.768 80.8863Z" fill="white"/>
<defs>
<linearGradient id="paint0_linear_734_295" x1="29.2174" y1="14.1504" x2="-11.9465" y2="23.6543" gradientUnits="userSpaceOnUse">
<stop stop-color="#FCB433"/>
<stop offset="1" stop-color="#966B1E"/>
</linearGradient>
</defs>
</svg>
