<svg width="143" height="43" viewBox="0 0 143 43" fill="none" xmlns="http://www.w3.org/2000/svg">
<rect opacity="0.7" x="142" y="1" width="40.9816" height="140.123" rx="14" transform="rotate(90 142 1)" stroke="url(#paint0_linear_734_292)" stroke-width="2"/>
<path d="M24.2575 26C23.9268 26 23.6708 25.9093 23.4895 25.728C23.3082 25.5467 23.2175 25.2907 23.2175 24.96V14.8H24.4015V24.944H30.4815V26H24.2575ZM32.9706 16.816C32.7146 16.816 32.5066 16.736 32.3466 16.576C32.1866 16.416 32.1066 16.208 32.1066 15.952C32.1066 15.696 32.1866 15.488 32.3466 15.328C32.5066 15.168 32.7146 15.088 32.9706 15.088C33.2266 15.088 33.4346 15.168 33.5946 15.328C33.7546 15.488 33.8346 15.696 33.8346 15.952C33.8346 16.208 33.7546 16.416 33.5946 16.576C33.4346 16.736 33.2266 16.816 32.9706 16.816ZM32.3946 18.016H33.5466V26H32.3946V18.016ZM39.0309 26C38.5829 26 38.2575 25.728 38.0549 25.184L35.3029 18.016H36.5189L38.9829 24.736H38.9989L41.4629 18.016H42.6789L39.5749 26H39.0309ZM46.622 26.128C45.726 26.128 45.006 25.8667 44.462 25.344C43.918 24.8107 43.646 24.1067 43.646 23.232V20.944C43.646 20.0267 43.918 19.2907 44.462 18.736C45.006 18.1707 45.726 17.888 46.622 17.888H47.934C48.7873 17.888 49.4753 18.16 49.998 18.704C50.5207 19.248 50.782 19.968 50.782 20.864V22.272H44.798V23.232C44.798 23.7867 44.9633 24.24 45.294 24.592C45.6353 24.9333 46.078 25.104 46.622 25.104H47.838C48.3713 25.104 48.8033 24.96 49.134 24.672C49.4647 24.3733 49.63 23.9787 49.63 23.488H50.75C50.75 24.2773 50.4833 24.9173 49.95 25.408C49.4167 25.888 48.7127 26.128 47.838 26.128H46.622ZM49.63 21.28V20.864C49.63 20.2773 49.4753 19.808 49.166 19.456C48.8567 19.0933 48.446 18.912 47.934 18.912H46.622C46.078 18.912 45.6353 19.0987 45.294 19.472C44.9633 19.8453 44.798 20.336 44.798 20.944V21.28H49.63ZM60.3584 26.128C59.6224 26.128 58.977 25.9627 58.4224 25.632C57.8784 25.2907 57.4517 24.8107 57.1424 24.192C56.8437 23.5733 56.6944 22.864 56.6944 22.064V18.736C56.6944 17.936 56.849 17.232 57.1584 16.624C57.4784 16.0053 57.921 15.5253 58.4864 15.184C59.0517 14.8427 59.7024 14.672 60.4384 14.672H62.1344C62.8384 14.672 63.457 14.8213 63.9904 15.12C64.5344 15.4187 64.9557 15.84 65.2544 16.384C65.553 16.928 65.7024 17.552 65.7024 18.256H64.5504C64.5504 17.4987 64.3264 16.8907 63.8784 16.432C63.441 15.9627 62.8597 15.728 62.1344 15.728H60.4384C59.6704 15.728 59.0517 16.0053 58.5824 16.56C58.113 17.104 57.8784 17.8293 57.8784 18.736V22.064C57.8784 22.9707 58.1024 23.7013 58.5504 24.256C59.009 24.8 59.6117 25.072 60.3584 25.072H62.0864C62.8437 25.072 63.457 24.8107 63.9264 24.288C64.3957 23.7653 64.6304 23.0773 64.6304 22.224V21.264H61.5264V20.224H65.7824V22.224C65.7824 22.992 65.6277 23.6747 65.3184 24.272C65.0197 24.8587 64.5877 25.3173 64.0224 25.648C63.4677 25.968 62.8224 26.128 62.0864 26.128H60.3584ZM67.8879 18.016H69.0079V19.248C69.2212 18.8747 69.5412 18.5707 69.9679 18.336C70.4052 18.1013 70.8585 17.984 71.3279 17.984H72.0319V19.024H71.3279C70.6452 19.024 70.0905 19.2427 69.6639 19.68C69.2479 20.1067 69.0399 20.6773 69.0399 21.392V26H67.8879V18.016ZM75.6294 26.128C74.8507 26.128 74.2267 25.9253 73.7574 25.52C73.2987 25.1147 73.0694 24.5707 73.0694 23.888V23.376C73.0694 22.704 73.3094 22.1653 73.7894 21.76C74.2694 21.3547 74.904 21.152 75.6934 21.152H76.7174C77.0694 21.152 77.432 21.2053 77.8054 21.312C78.1787 21.4187 78.4987 21.5627 78.7654 21.744V20.416C78.7654 19.968 78.6267 19.6053 78.3494 19.328C78.072 19.04 77.704 18.896 77.2454 18.896H75.9654C75.5067 18.896 75.1387 19.0027 74.8614 19.216C74.584 19.4293 74.4454 19.712 74.4454 20.064H73.2934C73.2934 19.4133 73.5387 18.8907 74.0294 18.496C74.52 18.0907 75.1654 17.888 75.9654 17.888H77.2454C78.0347 17.888 78.6694 18.1227 79.1494 18.592C79.64 19.0507 79.8854 19.6587 79.8854 20.416V26H78.7974V24.88C78.552 25.264 78.2267 25.568 77.8214 25.792C77.4267 26.016 77.016 26.128 76.5894 26.128H75.6294ZM76.6214 25.12C77.1227 25.12 77.5707 24.9653 77.9654 24.656C78.36 24.3467 78.6267 23.936 78.7654 23.424V22.832C78.552 22.6293 78.2534 22.4693 77.8694 22.352C77.496 22.224 77.112 22.16 76.7174 22.16H75.6934C75.256 22.16 74.8987 22.272 74.6214 22.496C74.3547 22.72 74.2214 23.0133 74.2214 23.376V23.888C74.2214 24.2613 74.3494 24.56 74.6054 24.784C74.8614 25.008 75.2027 25.12 75.6294 25.12H76.6214ZM85.368 26.128C85.016 26.128 84.6427 26.0213 84.248 25.808C83.8533 25.584 83.5493 25.3067 83.336 24.976V26H82.216V14.8H83.368V18.96C83.6027 18.6293 83.9013 18.368 84.264 18.176C84.6373 17.984 85.0213 17.888 85.416 17.888H86.552C87.096 17.888 87.576 18.016 87.992 18.272C88.4187 18.5173 88.7493 18.8693 88.984 19.328C89.2293 19.776 89.352 20.2933 89.352 20.88V22.944C89.352 23.5733 89.2293 24.128 88.984 24.608C88.7493 25.088 88.4133 25.4613 87.976 25.728C87.5493 25.9947 87.0533 26.128 86.488 26.128H85.368ZM86.456 25.104C86.968 25.104 87.384 24.9067 87.704 24.512C88.0347 24.1067 88.2 23.584 88.2 22.944V20.88C88.2 20.2933 88.04 19.8187 87.72 19.456C87.4107 19.0933 87.0107 18.912 86.52 18.912H85.448C84.8933 18.912 84.4187 19.1147 84.024 19.52C83.6293 19.9253 83.4107 20.4587 83.368 21.12V23.072C83.3893 23.4453 83.496 23.7867 83.688 24.096C83.88 24.4053 84.1253 24.6507 84.424 24.832C84.7227 25.0133 85.0373 25.104 85.368 25.104H86.456ZM94.618 26.128C94.266 26.128 93.8927 26.0213 93.498 25.808C93.1033 25.584 92.7993 25.3067 92.586 24.976V26H91.466V14.8H92.618V18.96C92.8527 18.6293 93.1513 18.368 93.514 18.176C93.8873 17.984 94.2713 17.888 94.666 17.888H95.802C96.346 17.888 96.826 18.016 97.242 18.272C97.6687 18.5173 97.9993 18.8693 98.234 19.328C98.4793 19.776 98.602 20.2933 98.602 20.88V22.944C98.602 23.5733 98.4793 24.128 98.234 24.608C97.9993 25.088 97.6633 25.4613 97.226 25.728C96.7993 25.9947 96.3033 26.128 95.738 26.128H94.618ZM95.706 25.104C96.218 25.104 96.634 24.9067 96.954 24.512C97.2847 24.1067 97.45 23.584 97.45 22.944V20.88C97.45 20.2933 97.29 19.8187 96.97 19.456C96.6607 19.0933 96.2607 18.912 95.77 18.912H94.698C94.1433 18.912 93.6687 19.1147 93.274 19.52C92.8793 19.9253 92.6607 20.4587 92.618 21.12V23.072C92.6393 23.4453 92.746 23.7867 92.938 24.096C93.13 24.4053 93.3753 24.6507 93.674 24.832C93.9727 25.0133 94.2873 25.104 94.618 25.104H95.706ZM101.58 16.816C101.324 16.816 101.116 16.736 100.956 16.576C100.796 16.416 100.716 16.208 100.716 15.952C100.716 15.696 100.796 15.488 100.956 15.328C101.116 15.168 101.324 15.088 101.58 15.088C101.836 15.088 102.044 15.168 102.204 15.328C102.364 15.488 102.444 15.696 102.444 15.952C102.444 16.208 102.364 16.416 102.204 16.576C102.044 16.736 101.836 16.816 101.58 16.816ZM101.004 18.016H102.156V26H101.004V18.016ZM104.872 18.016H105.992V19.2C106.238 18.816 106.558 18.5013 106.952 18.256C107.347 18.0107 107.742 17.888 108.136 17.888H109.224C109.96 17.888 110.552 18.1387 111 18.64C111.459 19.1413 111.688 19.7973 111.688 20.608V26H110.536V20.576C110.536 20.0853 110.414 19.6853 110.168 19.376C109.923 19.0667 109.598 18.912 109.192 18.912H108.168C107.667 18.912 107.208 19.1093 106.792 19.504C106.387 19.8987 106.131 20.4053 106.024 21.024V26H104.872V18.016ZM116.621 29.248C115.917 29.248 115.335 29.056 114.877 28.672C114.418 28.2987 114.162 27.8027 114.109 27.184H115.261C115.303 27.504 115.447 27.76 115.693 27.952C115.949 28.1547 116.258 28.256 116.621 28.256H117.949C118.503 28.256 118.93 28.0693 119.229 27.696C119.538 27.3333 119.693 26.8213 119.693 26.16V24.928C119.458 25.248 119.149 25.5093 118.765 25.712C118.391 25.904 118.029 26 117.677 26H116.509C115.965 26 115.479 25.872 115.053 25.616C114.626 25.36 114.295 25.0027 114.061 24.544C113.826 24.0853 113.709 23.552 113.709 22.944V21.072C113.709 20.1227 113.981 19.3547 114.525 18.768C115.079 18.1813 115.805 17.888 116.701 17.888H117.821C118.162 17.888 118.514 17.984 118.877 18.176C119.239 18.368 119.522 18.6133 119.725 18.912V18.016H120.845V26.16C120.845 27.1307 120.589 27.888 120.077 28.432C119.565 28.976 118.855 29.248 117.949 29.248H116.621ZM117.677 24.976C118.21 24.976 118.663 24.768 119.037 24.352C119.421 23.9253 119.639 23.3867 119.693 22.736V20.768C119.65 20.224 119.447 19.7813 119.085 19.44C118.733 19.088 118.311 18.912 117.821 18.912H116.733C116.167 18.912 115.714 19.1093 115.373 19.504C115.031 19.8987 114.861 20.4213 114.861 21.072V22.944C114.861 23.5413 115.015 24.032 115.325 24.416C115.645 24.7893 116.05 24.976 116.541 24.976H117.677Z" fill="white"/>
<defs>
<linearGradient id="paint0_linear_734_292" x1="147.416" y1="7.78756" x2="213.993" y2="28.0041" gradientUnits="userSpaceOnUse">
<stop stop-color="#727272"/>
<stop offset="1" stop-color="white"/>
</linearGradient>
</defs>
</svg>
