<svg width="143" height="43" viewBox="0 0 143 43" fill="none" xmlns="http://www.w3.org/2000/svg">
<rect opacity="0.7" x="142" y="1" width="40.9816" height="140.123" rx="14" transform="rotate(90 142 1)" stroke="url(#paint0_linear_734_291)" stroke-width="2"/>
<path d="M30.0112 26.128C29.3712 26.128 28.8059 25.9947 28.3152 25.728C27.8245 25.4507 27.4405 25.0667 27.1632 24.576C26.8965 24.0747 26.7632 23.4987 26.7632 22.848H27.9152C27.9152 23.5093 28.1072 24.048 28.4912 24.464C28.8859 24.8693 29.4032 25.072 30.0432 25.072H31.8192C32.4485 25.072 32.9552 24.9333 33.3392 24.656C33.7232 24.368 33.9152 23.9947 33.9152 23.536V22.512C33.9152 22.1493 33.7712 21.84 33.4832 21.584C33.2059 21.328 32.8219 21.1627 32.3312 21.088L29.4512 20.608C28.6405 20.4693 28.0112 20.1813 27.5632 19.744C27.1152 19.3067 26.8912 18.7573 26.8912 18.096V17.232C26.8912 16.4533 27.1792 15.8347 27.7552 15.376C28.3419 14.9067 29.1152 14.672 30.0752 14.672H31.8832C32.7899 14.672 33.5205 14.9493 34.0752 15.504C34.6299 16.048 34.9072 16.768 34.9072 17.664H33.7552C33.7552 17.0773 33.5845 16.608 33.2432 16.256C32.9019 15.904 32.4485 15.728 31.8832 15.728H30.0752C29.4672 15.728 28.9819 15.8667 28.6192 16.144C28.2565 16.4107 28.0752 16.7733 28.0752 17.232V18.096C28.0752 18.4693 28.2085 18.784 28.4752 19.04C28.7525 19.296 29.1312 19.4667 29.6112 19.552L32.4752 20.048C33.3072 20.1973 33.9525 20.4853 34.4112 20.912C34.8699 21.328 35.0992 21.8613 35.0992 22.512V23.536C35.0992 24.3147 34.8005 24.944 34.2032 25.424C33.6059 25.8933 32.8219 26.128 31.8512 26.128H30.0112ZM39.4184 26.128C38.6398 26.128 38.0158 25.9253 37.5464 25.52C37.0878 25.1147 36.8584 24.5707 36.8584 23.888V23.376C36.8584 22.704 37.0984 22.1653 37.5784 21.76C38.0584 21.3547 38.6931 21.152 39.4824 21.152H40.5064C40.8584 21.152 41.2211 21.2053 41.5944 21.312C41.9678 21.4187 42.2878 21.5627 42.5544 21.744V20.416C42.5544 19.968 42.4158 19.6053 42.1384 19.328C41.8611 19.04 41.4931 18.896 41.0344 18.896H39.7544C39.2958 18.896 38.9278 19.0027 38.6504 19.216C38.3731 19.4293 38.2344 19.712 38.2344 20.064H37.0824C37.0824 19.4133 37.3278 18.8907 37.8184 18.496C38.3091 18.0907 38.9544 17.888 39.7544 17.888H41.0344C41.8238 17.888 42.4584 18.1227 42.9384 18.592C43.4291 19.0507 43.6744 19.6587 43.6744 20.416V26H42.5864V24.88C42.3411 25.264 42.0158 25.568 41.6104 25.792C41.2158 26.016 40.8051 26.128 40.3784 26.128H39.4184ZM40.4104 25.12C40.9118 25.12 41.3598 24.9653 41.7544 24.656C42.1491 24.3467 42.4158 23.936 42.5544 23.424V22.832C42.3411 22.6293 42.0424 22.4693 41.6584 22.352C41.2851 22.224 40.9011 22.16 40.5064 22.16H39.4824C39.0451 22.16 38.6878 22.272 38.4104 22.496C38.1438 22.72 38.0104 23.0133 38.0104 23.376V23.888C38.0104 24.2613 38.1384 24.56 38.3944 24.784C38.6504 25.008 38.9918 25.12 39.4184 25.12H40.4104ZM48.7106 26C48.2626 26 47.9372 25.728 47.7346 25.184L44.9826 18.016H46.1986L48.6626 24.736H48.6786L51.1426 18.016H52.3586L49.2546 26H48.7106ZM56.3017 26.128C55.4057 26.128 54.6857 25.8667 54.1417 25.344C53.5977 24.8107 53.3257 24.1067 53.3257 23.232V20.944C53.3257 20.0267 53.5977 19.2907 54.1417 18.736C54.6857 18.1707 55.4057 17.888 56.3017 17.888H57.6137C58.467 17.888 59.155 18.16 59.6777 18.704C60.2004 19.248 60.4617 19.968 60.4617 20.864V22.272H54.4777V23.232C54.4777 23.7867 54.643 24.24 54.9737 24.592C55.315 24.9333 55.7577 25.104 56.3017 25.104H57.5177C58.051 25.104 58.483 24.96 58.8137 24.672C59.1444 24.3733 59.3097 23.9787 59.3097 23.488H60.4297C60.4297 24.2773 60.163 24.9173 59.6297 25.408C59.0964 25.888 58.3924 26.128 57.5177 26.128H56.3017ZM59.3097 21.28V20.864C59.3097 20.2773 59.155 19.808 58.8457 19.456C58.5364 19.0933 58.1257 18.912 57.6137 18.912H56.3017C55.7577 18.912 55.315 19.0987 54.9737 19.472C54.643 19.8453 54.4777 20.336 54.4777 20.944V21.28H59.3097ZM66.8541 14.8H68.0381V26H66.8541V14.8ZM79.4446 17.888C80.1486 17.888 80.7032 18.1173 81.1086 18.576C81.5246 19.024 81.7326 19.648 81.7326 20.448V26H80.5806V20.416C80.5806 19.9467 80.4739 19.5787 80.2606 19.312C80.0472 19.0453 79.7646 18.912 79.4126 18.912H78.5006C78.0419 18.912 77.6632 19.0667 77.3646 19.376C77.0659 19.6853 76.8739 20.1227 76.7886 20.688V26H75.6366V20.512C75.6366 20.0107 75.5352 19.6213 75.3326 19.344C75.1406 19.056 74.8739 18.912 74.5326 18.912H73.6206C73.1832 18.912 72.7992 19.104 72.4686 19.488C72.1379 19.872 71.9299 20.3733 71.8446 20.992V26H70.6926V18.016H71.8126V19.168C72.0259 18.7627 72.2926 18.448 72.6126 18.224C72.9326 18 73.2686 17.888 73.6206 17.888H74.5646C75.0126 17.888 75.3966 18 75.7166 18.224C76.0472 18.4373 76.2979 18.752 76.4686 19.168C76.7139 18.7413 77.0072 18.4213 77.3486 18.208C77.6899 17.9947 78.0632 17.888 78.4686 17.888H79.4446ZM86.3716 26.128C85.5929 26.128 84.9689 25.9253 84.4996 25.52C84.0409 25.1147 83.8116 24.5707 83.8116 23.888V23.376C83.8116 22.704 84.0516 22.1653 84.5316 21.76C85.0116 21.3547 85.6462 21.152 86.4356 21.152H87.4596C87.8116 21.152 88.1742 21.2053 88.5476 21.312C88.9209 21.4187 89.2409 21.5627 89.5076 21.744V20.416C89.5076 19.968 89.3689 19.6053 89.0916 19.328C88.8142 19.04 88.4462 18.896 87.9876 18.896H86.7076C86.2489 18.896 85.8809 19.0027 85.6036 19.216C85.3262 19.4293 85.1876 19.712 85.1876 20.064H84.0356C84.0356 19.4133 84.2809 18.8907 84.7716 18.496C85.2622 18.0907 85.9076 17.888 86.7076 17.888H87.9876C88.7769 17.888 89.4116 18.1227 89.8916 18.592C90.3822 19.0507 90.6276 19.6587 90.6276 20.416V26H89.5396V24.88C89.2942 25.264 88.9689 25.568 88.5636 25.792C88.1689 26.016 87.7582 26.128 87.3316 26.128H86.3716ZM87.3636 25.12C87.8649 25.12 88.3129 24.9653 88.7076 24.656C89.1022 24.3467 89.3689 23.936 89.5076 23.424V22.832C89.2942 22.6293 88.9956 22.4693 88.6116 22.352C88.2382 22.224 87.8542 22.16 87.4596 22.16H86.4356C85.9982 22.16 85.6409 22.272 85.3636 22.496C85.0969 22.72 84.9636 23.0133 84.9636 23.376V23.888C84.9636 24.2613 85.0916 24.56 85.3476 24.784C85.6036 25.008 85.9449 25.12 86.3716 25.12H87.3636ZM95.5502 29.248C94.8462 29.248 94.2649 29.056 93.8062 28.672C93.3475 28.2987 93.0915 27.8027 93.0382 27.184H94.1902C94.2329 27.504 94.3769 27.76 94.6222 27.952C94.8782 28.1547 95.1875 28.256 95.5502 28.256H96.8782C97.4329 28.256 97.8595 28.0693 98.1582 27.696C98.4675 27.3333 98.6222 26.8213 98.6222 26.16V24.928C98.3875 25.248 98.0782 25.5093 97.6942 25.712C97.3209 25.904 96.9582 26 96.6062 26H95.4382C94.8942 26 94.4089 25.872 93.9822 25.616C93.5555 25.36 93.2249 25.0027 92.9902 24.544C92.7555 24.0853 92.6382 23.552 92.6382 22.944V21.072C92.6382 20.1227 92.9102 19.3547 93.4542 18.768C94.0089 18.1813 94.7342 17.888 95.6302 17.888H96.7502C97.0915 17.888 97.4435 17.984 97.8062 18.176C98.1689 18.368 98.4515 18.6133 98.6542 18.912V18.016H99.7742V26.16C99.7742 27.1307 99.5182 27.888 99.0062 28.432C98.4942 28.976 97.7849 29.248 96.8782 29.248H95.5502ZM96.6062 24.976C97.1395 24.976 97.5929 24.768 97.9662 24.352C98.3502 23.9253 98.5689 23.3867 98.6222 22.736V20.768C98.5795 20.224 98.3769 19.7813 98.0142 19.44C97.6622 19.088 97.2409 18.912 96.7502 18.912H95.6622C95.0969 18.912 94.6435 19.1093 94.3022 19.504C93.9609 19.8987 93.7902 20.4213 93.7902 21.072V22.944C93.7902 23.5413 93.9449 24.032 94.2542 24.416C94.5742 24.7893 94.9795 24.976 95.4702 24.976H96.6062ZM104.864 26.128C103.968 26.128 103.248 25.8667 102.704 25.344C102.16 24.8107 101.888 24.1067 101.888 23.232V20.944C101.888 20.0267 102.16 19.2907 102.704 18.736C103.248 18.1707 103.968 17.888 104.864 17.888H106.176C107.03 17.888 107.718 18.16 108.24 18.704C108.763 19.248 109.024 19.968 109.024 20.864V22.272H103.04V23.232C103.04 23.7867 103.206 24.24 103.536 24.592C103.878 24.9333 104.32 25.104 104.864 25.104H106.08C106.614 25.104 107.046 24.96 107.376 24.672C107.707 24.3733 107.872 23.9787 107.872 23.488H108.992C108.992 24.2773 108.726 24.9173 108.192 25.408C107.659 25.888 106.955 26.128 106.08 26.128H104.864ZM107.872 21.28V20.864C107.872 20.2773 107.718 19.808 107.408 19.456C107.099 19.0933 106.688 18.912 106.176 18.912H104.864C104.32 18.912 103.878 19.0987 103.536 19.472C103.206 19.8453 103.04 20.336 103.04 20.944V21.28H107.872ZM113.308 26.128C112.498 26.128 111.847 25.8987 111.356 25.44C110.866 24.9813 110.62 24.3787 110.62 23.632H111.74C111.74 24.08 111.884 24.4427 112.172 24.72C112.46 24.9973 112.839 25.136 113.308 25.136H114.7C115.159 25.136 115.532 25.0453 115.82 24.864C116.108 24.672 116.252 24.4267 116.252 24.128V23.584C116.252 23.3813 116.172 23.2053 116.012 23.056C115.852 22.896 115.644 22.7893 115.388 22.736L112.62 22.256C112.066 22.16 111.618 21.952 111.276 21.632C110.946 21.3013 110.78 20.9173 110.78 20.48V19.952C110.78 19.3333 111.015 18.8373 111.484 18.464C111.954 18.08 112.572 17.888 113.34 17.888H114.716C115.463 17.888 116.066 18.1013 116.524 18.528C116.983 18.944 117.212 19.4987 117.212 20.192H116.092C116.082 19.7973 115.948 19.4827 115.692 19.248C115.447 19.0027 115.122 18.88 114.716 18.88H113.34C112.914 18.88 112.572 18.9813 112.316 19.184C112.06 19.376 111.932 19.632 111.932 19.952V20.416C111.932 20.6187 112.018 20.8 112.188 20.96C112.37 21.12 112.599 21.2213 112.876 21.264L115.628 21.744C116.162 21.84 116.588 22.048 116.908 22.368C117.239 22.688 117.404 23.072 117.404 23.52V24.16C117.404 24.7467 117.154 25.2213 116.652 25.584C116.162 25.9467 115.511 26.128 114.7 26.128H113.308Z" fill="white"/>
<defs>
<linearGradient id="paint0_linear_734_291" x1="147.416" y1="7.78756" x2="213.993" y2="28.0041" gradientUnits="userSpaceOnUse">
<stop stop-color="#727272"/>
<stop offset="1" stop-color="white"/>
</linearGradient>
</defs>
</svg>
