<svg width="100" height="43" viewBox="0 0 100 43" fill="none" xmlns="http://www.w3.org/2000/svg">
<rect opacity="0.7" x="98.5" y="1" width="40.9816" height="97.5" rx="14" transform="rotate(90 98.5 1)" fill="url(#paint0_linear_734_294)" fill-opacity="0.15" stroke="url(#paint1_linear_734_294)" stroke-width="2"/>
<path d="M36.1819 28.128C35.2326 28.128 34.4753 27.8453 33.9099 27.28C33.3553 26.7147 33.0779 25.9467 33.0779 24.976H33.9419C33.9419 25.7013 34.1446 26.2773 34.5499 26.704C34.9553 27.12 35.5046 27.328 36.1979 27.328H37.9899C38.6619 27.328 39.2006 27.1733 39.6059 26.864C40.0219 26.5547 40.2299 26.1493 40.2299 25.648V24.56C40.2299 24.1547 40.0806 23.808 39.7819 23.52C39.4833 23.232 39.0673 23.0453 38.5339 22.96L35.6699 22.48C34.9019 22.352 34.2993 22.0747 33.8619 21.648C33.4353 21.2213 33.2219 20.688 33.2219 20.048V19.12C33.2219 18.384 33.4993 17.792 34.0539 17.344C34.6086 16.896 35.3393 16.672 36.2459 16.672L38.0539 16.672C38.9179 16.672 39.6113 16.9333 40.1339 17.456C40.6673 17.9787 40.9339 18.6667 40.9339 19.52H40.0699C40.0699 18.9013 39.8833 18.4053 39.5099 18.032C39.1473 17.648 38.6619 17.456 38.0539 17.456L36.2459 17.456C35.5953 17.456 35.0726 17.6107 34.6779 17.92C34.2939 18.2187 34.1019 18.6187 34.1019 19.12V20.048C34.1019 20.4747 34.2459 20.832 34.5339 21.12C34.8219 21.408 35.2273 21.5947 35.7499 21.68L38.5979 22.176C39.3873 22.3147 40.0006 22.592 40.4379 23.008C40.8859 23.424 41.1099 23.9413 41.1099 24.56V25.648C41.1099 26.3947 40.8273 26.9973 40.2619 27.456C39.6966 27.904 38.9446 28.128 38.0059 28.128H36.1819ZM46.3598 28C45.5491 28 44.9678 27.8293 44.6158 27.488C44.2638 27.136 44.0878 26.56 44.0878 25.76V20.784H42.6798V20.016H44.0878V17.6H44.9358V20.016H47.0158V20.784H44.9358V25.76C44.9358 26.2827 45.0425 26.6613 45.2558 26.896C45.4691 27.12 45.8265 27.232 46.3278 27.232H47.0158V28H46.3598ZM51.5978 28.128C50.7445 28.128 50.0565 27.8613 49.5338 27.328C49.0111 26.784 48.7498 26.0747 48.7498 25.2V22.816C48.7498 21.9413 49.0111 21.2373 49.5338 20.704C50.0671 20.16 50.7658 19.888 51.6298 19.888H52.8938C53.7578 19.888 54.4511 20.16 54.9738 20.704C55.5071 21.2373 55.7738 21.9413 55.7738 22.816V25.2C55.7738 26.0747 55.5071 26.784 54.9738 27.328C54.4405 27.8613 53.7365 28.128 52.8618 28.128H51.5978ZM52.8618 27.36C53.4805 27.36 53.9765 27.1627 54.3498 26.768C54.7338 26.3733 54.9258 25.8507 54.9258 25.2V22.816C54.9258 22.1653 54.7391 21.6427 54.3658 21.248C53.9925 20.8533 53.5018 20.656 52.8938 20.656H51.6298C51.0218 20.656 50.5311 20.8533 50.1578 21.248C49.7951 21.6427 49.6138 22.1653 49.6138 22.816V25.2C49.6138 25.8507 49.7951 26.3733 50.1578 26.768C50.5205 27.1627 51.0005 27.36 51.5978 27.36H52.8618ZM58.0854 20.016H58.9174V21.264C59.1521 20.848 59.4614 20.5173 59.8454 20.272C60.2401 20.016 60.6401 19.888 61.0454 19.888H62.2134C63.0241 19.888 63.6748 20.1547 64.1654 20.688C64.6668 21.2107 64.9174 21.904 64.9174 22.768V24.944C64.9174 25.904 64.6668 26.6773 64.1654 27.264C63.6641 27.84 62.9921 28.128 62.1494 28.128H60.9814C60.5974 28.128 60.2188 28.016 59.8454 27.792C59.4828 27.568 59.1841 27.2693 58.9494 26.896V31.184L58.0854 31.184V20.016ZM62.1334 27.36C62.7201 27.36 63.1894 27.1413 63.5414 26.704C63.8934 26.256 64.0694 25.6693 64.0694 24.944V22.768C64.0694 22.1387 63.8988 21.632 63.5574 21.248C63.2161 20.8533 62.7628 20.656 62.1974 20.656H61.0454C60.5761 20.656 60.1441 20.848 59.7494 21.232C59.3654 21.6053 59.0988 22.0587 58.9494 22.592V25.344C59.0454 25.8773 59.2854 26.3467 59.6694 26.752C60.0534 27.1573 60.5014 27.36 61.0134 27.36H62.1334Z" fill="#FCB433"/>
<defs>
<linearGradient id="paint0_linear_734_294" x1="138.744" y1="13.4092" x2="86.1402" y2="30.6241" gradientUnits="userSpaceOnUse">
<stop stop-color="#FCB433"/>
<stop offset="1" stop-color="#966B1E"/>
</linearGradient>
<linearGradient id="paint1_linear_734_294" x1="138.744" y1="13.4092" x2="86.1402" y2="30.6241" gradientUnits="userSpaceOnUse">
<stop stop-color="#FCB433"/>
<stop offset="1" stop-color="#966B1E"/>
</linearGradient>
</defs>
</svg>
