<svg width="143" height="43" viewBox="0 0 143 43" fill="none" xmlns="http://www.w3.org/2000/svg">
<rect opacity="0.7" x="142" y="1" width="40.9816" height="140.123" rx="14" transform="rotate(90 142 1)" stroke="url(#paint0_linear_698_485)" stroke-width="2"/>
<path d="M15.5867 16.824H12.0347V15.8H20.3227V16.824H16.7707V27H15.5867V16.824ZM20.3176 19.016H21.4376V20.248C21.6509 19.8747 21.9709 19.5707 22.3976 19.336C22.8349 19.1013 23.2882 18.984 23.7576 18.984H24.4616V20.024H23.7576C23.0749 20.024 22.5202 20.2427 22.0936 20.68C21.6776 21.1067 21.4696 21.6773 21.4696 22.392V27H20.3176V19.016ZM26.8691 17.816C26.6131 17.816 26.4051 17.736 26.2451 17.576C26.0851 17.416 26.0051 17.208 26.0051 16.952C26.0051 16.696 26.0851 16.488 26.2451 16.328C26.4051 16.168 26.6131 16.088 26.8691 16.088C27.1251 16.088 27.3331 16.168 27.4931 16.328C27.6531 16.488 27.7331 16.696 27.7331 16.952C27.7331 17.208 27.6531 17.416 27.4931 17.576C27.3331 17.736 27.1251 17.816 26.8691 17.816ZM26.2931 19.016H27.4451V27H26.2931V19.016ZM32.7533 30.248C32.0493 30.248 31.468 30.056 31.0093 29.672C30.5506 29.2987 30.2946 28.8027 30.2413 28.184H31.3933C31.436 28.504 31.58 28.76 31.8253 28.952C32.0813 29.1547 32.3906 29.256 32.7533 29.256H34.0813C34.636 29.256 35.0626 29.0693 35.3613 28.696C35.6706 28.3333 35.8253 27.8213 35.8253 27.16V25.928C35.5906 26.248 35.2813 26.5093 34.8973 26.712C34.524 26.904 34.1613 27 33.8093 27H32.6413C32.0973 27 31.612 26.872 31.1853 26.616C30.7586 26.36 30.428 26.0027 30.1933 25.544C29.9586 25.0853 29.8413 24.552 29.8413 23.944V22.072C29.8413 21.1227 30.1133 20.3547 30.6573 19.768C31.212 19.1813 31.9373 18.888 32.8333 18.888H33.9533C34.2946 18.888 34.6466 18.984 35.0093 19.176C35.372 19.368 35.6546 19.6133 35.8573 19.912V19.016H36.9773V27.16C36.9773 28.1307 36.7213 28.888 36.2093 29.432C35.6973 29.976 34.988 30.248 34.0813 30.248H32.7533ZM33.8093 25.976C34.3426 25.976 34.796 25.768 35.1693 25.352C35.5533 24.9253 35.772 24.3867 35.8253 23.736V21.768C35.7826 21.224 35.58 20.7813 35.2173 20.44C34.8653 20.088 34.444 19.912 33.9533 19.912H32.8653C32.3 19.912 31.8466 20.1093 31.5053 20.504C31.164 20.8987 30.9933 21.4213 30.9933 22.072V23.944C30.9933 24.5413 31.148 25.032 31.4573 25.416C31.7773 25.7893 32.1826 25.976 32.6733 25.976H33.8093ZM42.0033 30.248C41.2993 30.248 40.718 30.056 40.2593 29.672C39.8006 29.2987 39.5446 28.8027 39.4913 28.184H40.6433C40.686 28.504 40.83 28.76 41.0753 28.952C41.3313 29.1547 41.6406 29.256 42.0033 29.256H43.3313C43.886 29.256 44.3126 29.0693 44.6113 28.696C44.9206 28.3333 45.0753 27.8213 45.0753 27.16V25.928C44.8406 26.248 44.5313 26.5093 44.1473 26.712C43.774 26.904 43.4113 27 43.0593 27H41.8913C41.3473 27 40.862 26.872 40.4353 26.616C40.0086 26.36 39.678 26.0027 39.4433 25.544C39.2086 25.0853 39.0913 24.552 39.0913 23.944V22.072C39.0913 21.1227 39.3633 20.3547 39.9073 19.768C40.462 19.1813 41.1873 18.888 42.0833 18.888H43.2033C43.5446 18.888 43.8966 18.984 44.2593 19.176C44.622 19.368 44.9046 19.6133 45.1073 19.912V19.016H46.2273V27.16C46.2273 28.1307 45.9713 28.888 45.4593 29.432C44.9473 29.976 44.238 30.248 43.3313 30.248H42.0033ZM43.0593 25.976C43.5926 25.976 44.046 25.768 44.4193 25.352C44.8033 24.9253 45.022 24.3867 45.0753 23.736V21.768C45.0326 21.224 44.83 20.7813 44.4673 20.44C44.1153 20.088 43.694 19.912 43.2033 19.912H42.1153C41.55 19.912 41.0966 20.1093 40.7553 20.504C40.414 20.8987 40.2433 21.4213 40.2433 22.072V23.944C40.2433 24.5413 40.398 25.032 40.7073 25.416C41.0273 25.7893 41.4326 25.976 41.9233 25.976H43.0593ZM51.3173 27.128C50.4213 27.128 49.7013 26.8667 49.1573 26.344C48.6133 25.8107 48.3413 25.1067 48.3413 24.232V21.944C48.3413 21.0267 48.6133 20.2907 49.1573 19.736C49.7013 19.1707 50.4213 18.888 51.3173 18.888H52.6293C53.4826 18.888 54.1706 19.16 54.6933 19.704C55.216 20.248 55.4773 20.968 55.4773 21.864V23.272H49.4933V24.232C49.4933 24.7867 49.6586 25.24 49.9893 25.592C50.3306 25.9333 50.7733 26.104 51.3173 26.104H52.5333C53.0666 26.104 53.4986 25.96 53.8293 25.672C54.16 25.3733 54.3253 24.9787 54.3253 24.488H55.4453C55.4453 25.2773 55.1786 25.9173 54.6453 26.408C54.112 26.888 53.408 27.128 52.5333 27.128H51.3173ZM54.3253 22.28V21.864C54.3253 21.2773 54.1706 20.808 53.8613 20.456C53.552 20.0933 53.1413 19.912 52.6293 19.912H51.3173C50.7733 19.912 50.3306 20.0987 49.9893 20.472C49.6586 20.8453 49.4933 21.336 49.4933 21.944V22.28H54.3253ZM57.4894 19.016H58.6094V20.248C58.8228 19.8747 59.1428 19.5707 59.5694 19.336C60.0068 19.1013 60.4601 18.984 60.9294 18.984H61.6334V20.024H60.9294C60.2468 20.024 59.6921 20.2427 59.2654 20.68C58.8494 21.1067 58.6414 21.6773 58.6414 22.392V27H57.4894V19.016ZM70.7412 27.128C70.0052 27.128 69.3599 26.9627 68.8052 26.632C68.2612 26.2907 67.8345 25.8107 67.5252 25.192C67.2265 24.5733 67.0772 23.864 67.0772 23.064V19.736C67.0772 18.936 67.2319 18.232 67.5412 17.624C67.8612 17.0053 68.3039 16.5253 68.8692 16.184C69.4345 15.8427 70.0852 15.672 70.8212 15.672H72.5172C73.2212 15.672 73.8399 15.8213 74.3732 16.12C74.9172 16.4187 75.3385 16.84 75.6372 17.384C75.9359 17.928 76.0852 18.552 76.0852 19.256H74.9332C74.9332 18.4987 74.7092 17.8907 74.2612 17.432C73.8239 16.9627 73.2425 16.728 72.5172 16.728H70.8212C70.0532 16.728 69.4345 17.0053 68.9652 17.56C68.4959 18.104 68.2612 18.8293 68.2612 19.736V23.064C68.2612 23.9707 68.4852 24.7013 68.9332 25.256C69.3919 25.8 69.9945 26.072 70.7412 26.072H72.4692C73.2265 26.072 73.8399 25.8107 74.3092 25.288C74.7785 24.7653 75.0132 24.0773 75.0132 23.224V22.264H71.9092V21.224H76.1652V23.224C76.1652 23.992 76.0105 24.6747 75.7012 25.272C75.4025 25.8587 74.9705 26.3173 74.4052 26.648C73.8505 26.968 73.2052 27.128 72.4692 27.128H70.7412ZM78.2707 19.016H79.3907V20.248C79.604 19.8747 79.924 19.5707 80.3507 19.336C80.788 19.1013 81.2414 18.984 81.7107 18.984H82.4147V20.024H81.7107C81.028 20.024 80.4734 20.2427 80.0467 20.68C79.6307 21.1067 79.4227 21.6773 79.4227 22.392V27H78.2707V19.016ZM86.0122 27.128C85.2335 27.128 84.6095 26.9253 84.1402 26.52C83.6815 26.1147 83.4522 25.5707 83.4522 24.888V24.376C83.4522 23.704 83.6922 23.1653 84.1722 22.76C84.6522 22.3547 85.2869 22.152 86.0762 22.152H87.1002C87.4522 22.152 87.8149 22.2053 88.1882 22.312C88.5615 22.4187 88.8815 22.5627 89.1482 22.744V21.416C89.1482 20.968 89.0095 20.6053 88.7322 20.328C88.4549 20.04 88.0869 19.896 87.6282 19.896H86.3482C85.8895 19.896 85.5215 20.0027 85.2442 20.216C84.9669 20.4293 84.8282 20.712 84.8282 21.064H83.6762C83.6762 20.4133 83.9215 19.8907 84.4122 19.496C84.9029 19.0907 85.5482 18.888 86.3482 18.888H87.6282C88.4175 18.888 89.0522 19.1227 89.5322 19.592C90.0229 20.0507 90.2682 20.6587 90.2682 21.416V27H89.1802V25.88C88.9349 26.264 88.6095 26.568 88.2042 26.792C87.8095 27.016 87.3989 27.128 86.9722 27.128H86.0122ZM87.0042 26.12C87.5055 26.12 87.9535 25.9653 88.3482 25.656C88.7429 25.3467 89.0095 24.936 89.1482 24.424V23.832C88.9349 23.6293 88.6362 23.4693 88.2522 23.352C87.8789 23.224 87.4949 23.16 87.1002 23.16H86.0762C85.6389 23.16 85.2815 23.272 85.0042 23.496C84.7375 23.72 84.6042 24.0133 84.6042 24.376V24.888C84.6042 25.2613 84.7322 25.56 84.9882 25.784C85.2442 26.008 85.5855 26.12 86.0122 26.12H87.0042ZM95.7508 27.128C95.3988 27.128 95.0255 27.0213 94.6308 26.808C94.2361 26.584 93.9321 26.3067 93.7188 25.976V27H92.5988V15.8H93.7508V19.96C93.9855 19.6293 94.2841 19.368 94.6468 19.176C95.0201 18.984 95.4041 18.888 95.7988 18.888H96.9348C97.4788 18.888 97.9588 19.016 98.3748 19.272C98.8015 19.5173 99.1321 19.8693 99.3668 20.328C99.6121 20.776 99.7348 21.2933 99.7348 21.88V23.944C99.7348 24.5733 99.6121 25.128 99.3668 25.608C99.1321 26.088 98.7961 26.4613 98.3588 26.728C97.9321 26.9947 97.4361 27.128 96.8708 27.128H95.7508ZM96.8388 26.104C97.3508 26.104 97.7668 25.9067 98.0868 25.512C98.4175 25.1067 98.5828 24.584 98.5828 23.944V21.88C98.5828 21.2933 98.4228 20.8187 98.1028 20.456C97.7935 20.0933 97.3935 19.912 96.9028 19.912H95.8308C95.2761 19.912 94.8015 20.1147 94.4068 20.52C94.0121 20.9253 93.7935 21.4587 93.7508 22.12V24.072C93.7721 24.4453 93.8788 24.7867 94.0708 25.096C94.2628 25.4053 94.5081 25.6507 94.8068 25.832C95.1055 26.0133 95.4201 26.104 95.7508 26.104H96.8388ZM105.001 27.128C104.649 27.128 104.275 27.0213 103.881 26.808C103.486 26.584 103.182 26.3067 102.969 25.976V27H101.849V15.8H103.001V19.96C103.235 19.6293 103.534 19.368 103.897 19.176C104.27 18.984 104.654 18.888 105.049 18.888H106.185C106.729 18.888 107.209 19.016 107.625 19.272C108.051 19.5173 108.382 19.8693 108.617 20.328C108.862 20.776 108.985 21.2933 108.985 21.88V23.944C108.985 24.5733 108.862 25.128 108.617 25.608C108.382 26.088 108.046 26.4613 107.609 26.728C107.182 26.9947 106.686 27.128 106.121 27.128H105.001ZM106.089 26.104C106.601 26.104 107.017 25.9067 107.337 25.512C107.667 25.1067 107.833 24.584 107.833 23.944V21.88C107.833 21.2933 107.673 20.8187 107.353 20.456C107.043 20.0933 106.643 19.912 106.153 19.912H105.081C104.526 19.912 104.051 20.1147 103.657 20.52C103.262 20.9253 103.043 21.4587 103.001 22.12V24.072C103.022 24.4453 103.129 24.7867 103.321 25.096C103.513 25.4053 103.758 25.6507 104.057 25.832C104.355 26.0133 104.67 26.104 105.001 26.104H106.089ZM111.963 17.816C111.707 17.816 111.499 17.736 111.339 17.576C111.179 17.416 111.099 17.208 111.099 16.952C111.099 16.696 111.179 16.488 111.339 16.328C111.499 16.168 111.707 16.088 111.963 16.088C112.219 16.088 112.427 16.168 112.587 16.328C112.747 16.488 112.827 16.696 112.827 16.952C112.827 17.208 112.747 17.416 112.587 17.576C112.427 17.736 112.219 17.816 111.963 17.816ZM111.387 19.016H112.539V27H111.387V19.016ZM115.255 19.016H116.375V20.2C116.62 19.816 116.94 19.5013 117.335 19.256C117.73 19.0107 118.124 18.888 118.519 18.888H119.607C120.343 18.888 120.935 19.1387 121.383 19.64C121.842 20.1413 122.071 20.7973 122.071 21.608V27H120.919V21.576C120.919 21.0853 120.796 20.6853 120.551 20.376C120.306 20.0667 119.98 19.912 119.575 19.912H118.551C118.05 19.912 117.591 20.1093 117.175 20.504C116.77 20.8987 116.514 21.4053 116.407 22.024V27H115.255V19.016ZM127.003 30.248C126.299 30.248 125.718 30.056 125.259 29.672C124.801 29.2987 124.545 28.8027 124.491 28.184H125.643C125.686 28.504 125.83 28.76 126.075 28.952C126.331 29.1547 126.641 29.256 127.003 29.256H128.331C128.886 29.256 129.313 29.0693 129.611 28.696C129.921 28.3333 130.075 27.8213 130.075 27.16V25.928C129.841 26.248 129.531 26.5093 129.147 26.712C128.774 26.904 128.411 27 128.059 27H126.891C126.347 27 125.862 26.872 125.435 26.616C125.009 26.36 124.678 26.0027 124.443 25.544C124.209 25.0853 124.091 24.552 124.091 23.944V22.072C124.091 21.1227 124.363 20.3547 124.907 19.768C125.462 19.1813 126.187 18.888 127.083 18.888H128.203C128.545 18.888 128.897 18.984 129.259 19.176C129.622 19.368 129.905 19.6133 130.107 19.912V19.016H131.227V27.16C131.227 28.1307 130.971 28.888 130.459 29.432C129.947 29.976 129.238 30.248 128.331 30.248H127.003ZM128.059 25.976C128.593 25.976 129.046 25.768 129.419 25.352C129.803 24.9253 130.022 24.3867 130.075 23.736V21.768C130.033 21.224 129.83 20.7813 129.467 20.44C129.115 20.088 128.694 19.912 128.203 19.912H127.115C126.55 19.912 126.097 20.1093 125.755 20.504C125.414 20.8987 125.243 21.4213 125.243 22.072V23.944C125.243 24.5413 125.398 25.032 125.707 25.416C126.027 25.7893 126.433 25.976 126.923 25.976H128.059Z" fill="white"/>
<defs>
<linearGradient id="paint0_linear_698_485" x1="147.416" y1="7.78756" x2="213.993" y2="28.0041" gradientUnits="userSpaceOnUse">
<stop stop-color="#727272"/>
<stop offset="1" stop-color="white"/>
</linearGradient>
</defs>
</svg>
