<svg width="74" height="134" viewBox="0 0 74 134" fill="none" xmlns="http://www.w3.org/2000/svg">
<g opacity="0.7">
<mask id="path-1-inside-1_1245_592" fill="white">
<path fill-rule="evenodd" clip-rule="evenodd" d="M50 0C54.6432 0 56.9648 0 58.922 0.171239C60.5125 0.310385 62.0788 0.531544 63.6169 0.830481C67.591 1.60291 69.5781 1.98912 71.0961 3.51934C72.4212 4.85503 73.1544 6.67411 73.1259 8.55535C73.0932 10.7106 71.1178 13.5215 67.167 19.1435C62.736 25.4487 59.8821 32.9487 59.1709 41.078C58.9996 43.0353 58.9996 45.3568 58.9996 50V84C58.9996 88.6431 58.9996 90.9647 59.1709 92.922C59.8821 101.051 62.736 108.551 67.167 114.857C71.1178 120.478 73.0932 123.289 73.1259 125.445C73.1544 127.326 72.4212 129.145 71.0962 130.481C69.5781 132.011 67.591 132.397 63.6169 133.169C62.0788 133.468 60.5125 133.69 58.922 133.829C56.9648 134 54.6432 134 50 134C45.3568 134 43.0353 134 41.078 133.829C19.3229 131.925 2.07457 114.677 0.171239 92.922C0 90.9647 0 88.6431 0 84V50C0 45.3568 0 43.0353 0.171239 41.078C2.07457 19.3229 19.3229 2.07457 41.078 0.171239C43.0353 0 45.3568 0 50 0Z"/>
</mask>
<path fill-rule="evenodd" clip-rule="evenodd" d="M50 0C54.6432 0 56.9648 0 58.922 0.171239C60.5125 0.310385 62.0788 0.531544 63.6169 0.830481C67.591 1.60291 69.5781 1.98912 71.0961 3.51934C72.4212 4.85503 73.1544 6.67411 73.1259 8.55535C73.0932 10.7106 71.1178 13.5215 67.167 19.1435C62.736 25.4487 59.8821 32.9487 59.1709 41.078C58.9996 43.0353 58.9996 45.3568 58.9996 50V84C58.9996 88.6431 58.9996 90.9647 59.1709 92.922C59.8821 101.051 62.736 108.551 67.167 114.857C71.1178 120.478 73.0932 123.289 73.1259 125.445C73.1544 127.326 72.4212 129.145 71.0962 130.481C69.5781 132.011 67.591 132.397 63.6169 133.169C62.0788 133.468 60.5125 133.69 58.922 133.829C56.9648 134 54.6432 134 50 134C45.3568 134 43.0353 134 41.078 133.829C19.3229 131.925 2.07457 114.677 0.171239 92.922C0 90.9647 0 88.6431 0 84V50C0 45.3568 0 43.0353 0.171239 41.078C2.07457 19.3229 19.3229 2.07457 41.078 0.171239C43.0353 0 45.3568 0 50 0Z" fill="url(#paint0_linear_1245_592)" fill-opacity="0.15"/>
<path d="M58.922 0.171239L58.7477 2.16363L58.7477 2.16363L58.922 0.171239ZM59.1709 41.078L57.1785 40.9037L57.1785 40.9037L59.1709 41.078ZM59.1709 92.922L57.1785 93.0963L57.1785 93.0963L59.1709 92.922ZM58.922 133.829L59.0963 135.821L59.0963 135.821L58.922 133.829ZM41.078 133.829L40.9037 135.821L40.9037 135.821L41.078 133.829ZM0.171239 92.922L-1.82115 93.0963L-1.82115 93.0963L0.171239 92.922ZM0.171239 41.078L2.16363 41.2523L2.16363 41.2523L0.171239 41.078ZM41.078 0.171239L41.2523 2.16363L41.2523 2.16363L41.078 0.171239ZM73.1259 125.445L75.1257 125.414L73.1259 125.445ZM63.6169 133.169L63.9985 135.133L63.6169 133.169ZM71.0962 130.481L69.6763 129.072L71.0962 130.481ZM71.0961 3.51934L69.6763 4.92789L71.0961 3.51934ZM67.167 19.1435L65.5306 17.9935L67.167 19.1435ZM73.1259 8.55535L75.1257 8.58565L73.1259 8.55535ZM59.0963 -1.82115C57.0301 -2.00192 54.6009 -2 50 -2V2C54.6855 2 56.8994 2.00192 58.7477 2.16363L59.0963 -1.82115ZM63.9984 -1.13278C62.3921 -1.445 60.7565 -1.6759 59.0963 -1.82115L58.7477 2.16363C60.2684 2.29667 61.7656 2.50809 63.2353 2.79374L63.9984 -1.13278ZM61.1633 41.2523C61.843 33.4828 64.5697 26.3178 68.8033 20.2934L65.5306 17.9935C60.9023 24.5796 57.9212 32.4146 57.1785 40.9037L61.1633 41.2523ZM60.9996 50C60.9996 45.3146 61.0016 43.1006 61.1633 41.2523L57.1785 40.9037C56.9977 42.9699 56.9996 45.3991 56.9996 50H60.9996ZM60.9996 84V50H56.9996V84H60.9996ZM61.1633 92.7477C61.0016 90.8993 60.9996 88.6854 60.9996 84H56.9996C56.9996 88.6009 56.9977 91.0301 57.1785 93.0963L61.1633 92.7477ZM68.8033 113.707C64.5697 107.682 61.843 100.517 61.1633 92.7477L57.1785 93.0963C57.9212 101.585 60.9023 109.42 65.5306 116.006L68.8033 113.707ZM59.0963 135.821C60.7565 135.676 62.3921 135.445 63.9985 135.133L63.2353 131.206C61.7656 131.492 60.2684 131.703 58.7477 131.836L59.0963 135.821ZM50 136C54.6009 136 57.0301 136.002 59.0963 135.821L58.7477 131.836C56.8994 131.998 54.6854 132 50 132V136ZM40.9037 135.821C42.9699 136.002 45.3991 136 50 136V132C45.3146 132 43.1006 131.998 41.2523 131.836L40.9037 135.821ZM-1.82115 93.0963C0.166768 115.818 18.1817 133.833 40.9037 135.821L41.2523 131.836C20.4641 130.018 3.98236 113.536 2.16363 92.7477L-1.82115 93.0963ZM-2 84C-2 88.6009 -2.00192 91.0301 -1.82115 93.0963L2.16363 92.7477C2.00192 90.8993 2 88.6854 2 84H-2ZM-2 50V84H2V50H-2ZM-1.82115 40.9037C-2.00192 42.9699 -2 45.3991 -2 50H2C2 45.3146 2.00192 43.1006 2.16363 41.2523L-1.82115 40.9037ZM40.9037 -1.82115C18.1817 0.166768 0.166768 18.1817 -1.82115 40.9037L2.16363 41.2523C3.98236 20.4641 20.4641 3.98236 41.2523 2.16363L40.9037 -1.82115ZM50 -2C45.3991 -2 42.9699 -2.00192 40.9037 -1.82115L41.2523 2.16363C43.1006 2.00192 45.3146 2 50 2V-2ZM65.5306 116.006C67.5258 118.845 68.9524 120.878 69.8948 122.47C70.8608 124.101 71.1182 124.955 71.1261 125.475L75.1257 125.414C75.1009 123.779 74.3543 122.15 73.3367 120.432C72.2955 118.673 70.759 116.489 68.8033 113.707L65.5306 116.006ZM63.9985 135.133C67.747 134.404 70.4694 133.952 72.516 131.889L69.6763 129.072C68.6868 130.069 67.435 130.39 63.2353 131.206L63.9985 135.133ZM71.1261 125.475C71.1465 126.818 70.6224 128.118 69.6763 129.072L72.516 131.889C74.2201 130.171 75.1623 127.834 75.1257 125.414L71.1261 125.475ZM63.2353 2.79374C67.435 3.61002 68.6868 3.93049 69.6763 4.92789L72.516 2.11078C70.4694 0.0477548 67.747 -0.4042 63.9984 -1.13278L63.2353 2.79374ZM68.8033 20.2934C70.759 17.5105 72.2955 15.3267 73.3367 13.5684C74.3543 11.8499 75.1009 10.2211 75.1257 8.58565L71.1261 8.52505C71.1182 9.04481 70.8608 9.89915 69.8948 11.5303C68.9524 13.1219 67.5258 15.1545 65.5306 17.9935L68.8033 20.2934ZM69.6763 4.92789C70.6224 5.88152 71.1465 7.18192 71.1261 8.52505L75.1257 8.58565C75.1623 6.1663 74.2201 3.82853 72.516 2.11078L69.6763 4.92789Z" fill="url(#paint1_linear_1245_592)" mask="url(#path-1-inside-1_1245_592)"/>
</g>
<path d="M38.888 89.3027C38.888 90.1067 38.708 90.8207 38.348 91.4447C37.976 92.0567 37.46 92.5307 36.8 92.8667C36.128 93.2027 35.36 93.3707 34.496 93.3707L30.392 93.3707C29.516 93.3707 28.748 93.2027 28.088 92.8667C27.428 92.5187 26.918 92.0387 26.558 91.4267C26.186 90.8027 26 90.0887 26 89.2847L26 87.4127C26 86.6087 26.186 85.9007 26.558 85.2887C26.918 84.6647 27.428 84.1847 28.088 83.8487C28.748 83.5127 29.516 83.3447 30.392 83.3447H34.496C35.36 83.3447 36.128 83.5187 36.8 83.8667C37.46 84.2027 37.976 84.6827 38.348 85.3067C38.708 85.9187 38.888 86.6267 38.888 87.4307V89.3027ZM37.988 87.4487C37.988 86.5247 37.67 85.7747 37.034 85.1987C36.386 84.6227 35.54 84.3347 34.496 84.3347H30.392C29.336 84.3347 28.49 84.6227 27.854 85.1987C27.206 85.7627 26.882 86.5067 26.882 87.4307L26.882 89.2667C26.882 90.2027 27.206 90.9587 27.854 91.5347C28.49 92.0987 29.336 92.3807 30.392 92.3807H34.496C35.54 92.3807 36.386 92.0987 37.034 91.5347C37.67 90.9587 37.988 90.2087 37.988 89.2847V87.4487Z" fill="url(#paint2_linear_1245_592)"/>
<path d="M38.744 77.8305C38.744 78.0465 38.69 78.2265 38.582 78.3705C38.462 78.5025 38.276 78.6165 38.024 78.7125L29.762 81.8625V80.8365L37.718 77.8845V77.8665L29.762 74.9145V73.9065L38.744 77.3625V77.8305Z" fill="url(#paint3_linear_1245_592)"/>
<path d="M38.888 69.989C38.888 70.829 38.672 71.501 38.24 72.005C37.796 72.509 37.208 72.761 36.476 72.761H35.792C35.06 72.761 34.478 72.503 34.046 71.987C33.614 71.471 33.398 70.787 33.398 69.935V68.765C33.398 68.357 33.464 67.937 33.596 67.505C33.728 67.061 33.908 66.683 34.136 66.371H32.39C31.826 66.371 31.364 66.545 31.004 66.893C30.644 67.241 30.464 67.691 30.464 68.243V69.647C30.464 70.211 30.596 70.667 30.86 71.015C31.124 71.363 31.478 71.537 31.922 71.537V72.509C31.226 72.509 30.668 72.245 30.248 71.717C29.828 71.189 29.618 70.499 29.618 69.647L29.618 68.243C29.618 67.391 29.87 66.713 30.374 66.209C30.878 65.693 31.55 65.435 32.39 65.435H38.744V66.353H37.34C37.82 66.665 38.198 67.049 38.474 67.505C38.75 67.961 38.888 68.423 38.888 68.891V69.989ZM38.024 68.873C38.024 68.369 37.844 67.889 37.484 67.433C37.124 66.965 36.65 66.611 36.062 66.371H35.09C34.838 66.635 34.634 66.989 34.478 67.433C34.322 67.865 34.244 68.309 34.244 68.765V69.935C34.244 70.499 34.388 70.949 34.676 71.285C34.952 71.621 35.324 71.789 35.792 71.789H36.476C36.944 71.789 37.322 71.627 37.61 71.303C37.886 70.979 38.024 70.541 38.024 69.989V68.873Z" fill="url(#paint4_linear_1245_592)"/>
<path d="M38.744 60.5257C38.744 61.3057 38.564 61.8637 38.204 62.1997C37.844 62.5357 37.244 62.7037 36.404 62.7037H26.144L26.144 61.7317H36.404C36.932 61.7317 37.31 61.6417 37.538 61.4617C37.766 61.2697 37.88 60.9577 37.88 60.5257V59.9497H38.744V60.5257Z" fill="url(#paint5_linear_1245_592)"/>
<path d="M28.232 57.3103C28.232 57.5503 28.16 57.7483 28.016 57.9043C27.872 58.0483 27.68 58.1203 27.44 58.1203C27.2 58.1203 27.008 58.0483 26.864 57.9043C26.708 57.7483 26.63 57.5503 26.63 57.3103C26.63 57.0703 26.708 56.8783 26.864 56.7343C27.008 56.5903 27.2 56.5183 27.44 56.5183C27.668 56.5183 27.86 56.5903 28.016 56.7343C28.16 56.8783 28.232 57.0703 28.232 57.3103ZM29.762 57.7963L29.762 56.8423H38.744V57.7963H29.762Z" fill="url(#paint6_linear_1245_592)"/>
<path d="M38.744 50.2576C38.744 51.1696 38.552 51.8236 38.168 52.2196C37.772 52.6156 37.124 52.8136 36.224 52.8136H30.626V54.3976H29.762V52.8136H27.044V51.8596H29.762V49.5196H30.626V51.8596L36.224 51.8596C36.812 51.8596 37.238 51.7396 37.502 51.4996C37.754 51.2596 37.88 50.8576 37.88 50.2936V49.5196H38.744V50.2576Z" fill="url(#paint7_linear_1245_592)"/>
<path d="M42.398 44.425C42.398 45.157 42.2 45.763 41.804 46.243C41.42 46.723 40.91 46.993 40.274 47.053V46.099C40.658 46.051 40.964 45.877 41.192 45.577C41.432 45.265 41.552 44.881 41.552 44.425V43.003C41.552 42.343 41.33 41.827 40.886 41.455C40.442 41.071 39.836 40.879 39.068 40.879L37.07 40.879C37.574 41.203 37.982 41.599 38.294 42.067C38.594 42.523 38.744 42.973 38.744 43.417V44.587C38.744 45.379 38.48 46.021 37.952 46.513C37.412 47.005 36.704 47.251 35.828 47.251L29.762 47.251L29.762 46.279L35.846 46.279C36.446 46.279 36.938 46.123 37.322 45.811C37.694 45.499 37.88 45.091 37.88 44.587V43.453C37.88 42.925 37.646 42.409 37.178 41.905C36.698 41.389 36.128 41.047 35.468 40.879L29.762 40.879V39.925L39.068 39.925C40.1 39.925 40.91 40.201 41.498 40.753C42.098 41.305 42.398 42.055 42.398 43.003V44.425Z" fill="url(#paint8_linear_1245_592)"/>
<defs>
<linearGradient id="paint0_linear_1245_592" x1="66.8932" y1="18.0586" x2="-17.7005" y2="53.0169" gradientUnits="userSpaceOnUse">
<stop stop-color="#FCB433"/>
<stop offset="1" stop-color="#966B1E"/>
</linearGradient>
<linearGradient id="paint1_linear_1245_592" x1="66.7679" y1="18.0586" x2="-17.8513" y2="53.0423" gradientUnits="userSpaceOnUse">
<stop stop-color="#FCB433"/>
<stop offset="1" stop-color="#966B1E"/>
</linearGradient>
<linearGradient id="paint2_linear_1245_592" x1="40.9721" y1="47.1277" x2="19.8926" y2="52.0273" gradientUnits="userSpaceOnUse">
<stop stop-color="#FCB433"/>
<stop offset="1" stop-color="#966B1E"/>
</linearGradient>
<linearGradient id="paint3_linear_1245_592" x1="40.9721" y1="47.1277" x2="19.8926" y2="52.0273" gradientUnits="userSpaceOnUse">
<stop stop-color="#FCB433"/>
<stop offset="1" stop-color="#966B1E"/>
</linearGradient>
<linearGradient id="paint4_linear_1245_592" x1="40.9721" y1="47.1277" x2="19.8926" y2="52.0273" gradientUnits="userSpaceOnUse">
<stop stop-color="#FCB433"/>
<stop offset="1" stop-color="#966B1E"/>
</linearGradient>
<linearGradient id="paint5_linear_1245_592" x1="40.9721" y1="47.1277" x2="19.8926" y2="52.0273" gradientUnits="userSpaceOnUse">
<stop stop-color="#FCB433"/>
<stop offset="1" stop-color="#966B1E"/>
</linearGradient>
<linearGradient id="paint6_linear_1245_592" x1="40.9721" y1="47.1277" x2="19.8926" y2="52.0273" gradientUnits="userSpaceOnUse">
<stop stop-color="#FCB433"/>
<stop offset="1" stop-color="#966B1E"/>
</linearGradient>
<linearGradient id="paint7_linear_1245_592" x1="40.9721" y1="47.1277" x2="19.8926" y2="52.0273" gradientUnits="userSpaceOnUse">
<stop stop-color="#FCB433"/>
<stop offset="1" stop-color="#966B1E"/>
</linearGradient>
<linearGradient id="paint8_linear_1245_592" x1="40.9721" y1="47.1277" x2="19.8926" y2="52.0273" gradientUnits="userSpaceOnUse">
<stop stop-color="#FCB433"/>
<stop offset="1" stop-color="#966B1E"/>
</linearGradient>
</defs>
</svg>
