<svg width="74" height="134" viewBox="0 0 74 134" fill="none" xmlns="http://www.w3.org/2000/svg">
<g opacity="0.7">
<mask id="path-1-inside-1_1245_588" fill="white">
<path fill-rule="evenodd" clip-rule="evenodd" d="M50 0C54.6432 0 56.9648 0 58.922 0.171239C60.5125 0.310385 62.0788 0.531544 63.6169 0.830481C67.591 1.60291 69.5781 1.98912 71.0961 3.51934C72.4212 4.85503 73.1544 6.67411 73.1259 8.55535C73.0932 10.7106 71.1178 13.5215 67.167 19.1435C62.736 25.4487 59.8821 32.9487 59.1709 41.078C58.9996 43.0353 58.9996 45.3568 58.9996 50V84C58.9996 88.6431 58.9996 90.9647 59.1709 92.922C59.8821 101.051 62.736 108.551 67.167 114.857C71.1178 120.478 73.0932 123.289 73.1259 125.445C73.1544 127.326 72.4212 129.145 71.0962 130.481C69.5781 132.011 67.591 132.397 63.6169 133.169C62.0788 133.468 60.5125 133.69 58.922 133.829C56.9648 134 54.6432 134 50 134C45.3568 134 43.0353 134 41.078 133.829C19.3229 131.925 2.07457 114.677 0.171239 92.922C0 90.9647 0 88.6431 0 84V50C0 45.3568 0 43.0353 0.171239 41.078C2.07457 19.3229 19.3229 2.07457 41.078 0.171239C43.0353 0 45.3568 0 50 0Z"/>
</mask>
<path fill-rule="evenodd" clip-rule="evenodd" d="M50 0C54.6432 0 56.9648 0 58.922 0.171239C60.5125 0.310385 62.0788 0.531544 63.6169 0.830481C67.591 1.60291 69.5781 1.98912 71.0961 3.51934C72.4212 4.85503 73.1544 6.67411 73.1259 8.55535C73.0932 10.7106 71.1178 13.5215 67.167 19.1435C62.736 25.4487 59.8821 32.9487 59.1709 41.078C58.9996 43.0353 58.9996 45.3568 58.9996 50V84C58.9996 88.6431 58.9996 90.9647 59.1709 92.922C59.8821 101.051 62.736 108.551 67.167 114.857C71.1178 120.478 73.0932 123.289 73.1259 125.445C73.1544 127.326 72.4212 129.145 71.0962 130.481C69.5781 132.011 67.591 132.397 63.6169 133.169C62.0788 133.468 60.5125 133.69 58.922 133.829C56.9648 134 54.6432 134 50 134C45.3568 134 43.0353 134 41.078 133.829C19.3229 131.925 2.07457 114.677 0.171239 92.922C0 90.9647 0 88.6431 0 84V50C0 45.3568 0 43.0353 0.171239 41.078C2.07457 19.3229 19.3229 2.07457 41.078 0.171239C43.0353 0 45.3568 0 50 0Z" fill="url(#paint0_linear_1245_588)" fill-opacity="0.15"/>
<path d="M58.922 0.171239L58.7477 2.16363L58.7477 2.16363L58.922 0.171239ZM59.1709 41.078L57.1785 40.9037L57.1785 40.9037L59.1709 41.078ZM59.1709 92.922L57.1785 93.0963L57.1785 93.0963L59.1709 92.922ZM58.922 133.829L59.0963 135.821L59.0963 135.821L58.922 133.829ZM41.078 133.829L40.9037 135.821L40.9037 135.821L41.078 133.829ZM0.171239 92.922L-1.82115 93.0963L-1.82115 93.0963L0.171239 92.922ZM0.171239 41.078L2.16363 41.2523L2.16363 41.2523L0.171239 41.078ZM41.078 0.171239L41.2523 2.16363L41.2523 2.16363L41.078 0.171239ZM73.1259 125.445L75.1257 125.414L73.1259 125.445ZM63.6169 133.169L63.9985 135.133L63.6169 133.169ZM71.0962 130.481L69.6763 129.072L71.0962 130.481ZM71.0961 3.51934L69.6763 4.92789L71.0961 3.51934ZM67.167 19.1435L65.5306 17.9935L67.167 19.1435ZM73.1259 8.55535L75.1257 8.58565L73.1259 8.55535ZM59.0963 -1.82115C57.0301 -2.00192 54.6009 -2 50 -2V2C54.6855 2 56.8994 2.00192 58.7477 2.16363L59.0963 -1.82115ZM63.9984 -1.13278C62.3921 -1.445 60.7565 -1.6759 59.0963 -1.82115L58.7477 2.16363C60.2684 2.29667 61.7656 2.50809 63.2353 2.79374L63.9984 -1.13278ZM61.1633 41.2523C61.843 33.4828 64.5697 26.3178 68.8033 20.2934L65.5306 17.9935C60.9023 24.5796 57.9212 32.4146 57.1785 40.9037L61.1633 41.2523ZM60.9996 50C60.9996 45.3146 61.0016 43.1006 61.1633 41.2523L57.1785 40.9037C56.9977 42.9699 56.9996 45.3991 56.9996 50H60.9996ZM60.9996 84V50H56.9996V84H60.9996ZM61.1633 92.7477C61.0016 90.8993 60.9996 88.6854 60.9996 84H56.9996C56.9996 88.6009 56.9977 91.0301 57.1785 93.0963L61.1633 92.7477ZM68.8033 113.707C64.5697 107.682 61.843 100.517 61.1633 92.7477L57.1785 93.0963C57.9212 101.585 60.9023 109.42 65.5306 116.006L68.8033 113.707ZM59.0963 135.821C60.7565 135.676 62.3921 135.445 63.9985 135.133L63.2353 131.206C61.7656 131.492 60.2684 131.703 58.7477 131.836L59.0963 135.821ZM50 136C54.6009 136 57.0301 136.002 59.0963 135.821L58.7477 131.836C56.8994 131.998 54.6854 132 50 132V136ZM40.9037 135.821C42.9699 136.002 45.3991 136 50 136V132C45.3146 132 43.1006 131.998 41.2523 131.836L40.9037 135.821ZM-1.82115 93.0963C0.166768 115.818 18.1817 133.833 40.9037 135.821L41.2523 131.836C20.4641 130.018 3.98236 113.536 2.16363 92.7477L-1.82115 93.0963ZM-2 84C-2 88.6009 -2.00192 91.0301 -1.82115 93.0963L2.16363 92.7477C2.00192 90.8993 2 88.6854 2 84H-2ZM-2 50V84H2V50H-2ZM-1.82115 40.9037C-2.00192 42.9699 -2 45.3991 -2 50H2C2 45.3146 2.00192 43.1006 2.16363 41.2523L-1.82115 40.9037ZM40.9037 -1.82115C18.1817 0.166768 0.166768 18.1817 -1.82115 40.9037L2.16363 41.2523C3.98236 20.4641 20.4641 3.98236 41.2523 2.16363L40.9037 -1.82115ZM50 -2C45.3991 -2 42.9699 -2.00192 40.9037 -1.82115L41.2523 2.16363C43.1006 2.00192 45.3146 2 50 2V-2ZM65.5306 116.006C67.5258 118.845 68.9524 120.878 69.8948 122.47C70.8608 124.101 71.1182 124.955 71.1261 125.475L75.1257 125.414C75.1009 123.779 74.3543 122.15 73.3367 120.432C72.2955 118.673 70.759 116.489 68.8033 113.707L65.5306 116.006ZM63.9985 135.133C67.747 134.404 70.4694 133.952 72.516 131.889L69.6763 129.072C68.6868 130.069 67.435 130.39 63.2353 131.206L63.9985 135.133ZM71.1261 125.475C71.1465 126.818 70.6224 128.118 69.6763 129.072L72.516 131.889C74.2201 130.171 75.1623 127.834 75.1257 125.414L71.1261 125.475ZM63.2353 2.79374C67.435 3.61002 68.6868 3.93049 69.6763 4.92789L72.516 2.11078C70.4694 0.0477548 67.747 -0.4042 63.9984 -1.13278L63.2353 2.79374ZM68.8033 20.2934C70.759 17.5105 72.2955 15.3267 73.3367 13.5684C74.3543 11.8499 75.1009 10.2211 75.1257 8.58565L71.1261 8.52505C71.1182 9.04481 70.8608 9.89915 69.8948 11.5303C68.9524 13.1219 67.5258 15.1545 65.5306 17.9935L68.8033 20.2934ZM69.6763 4.92789C70.6224 5.88152 71.1465 7.18192 71.1261 8.52505L75.1257 8.58565C75.1623 6.1663 74.2201 3.82853 72.516 2.11078L69.6763 4.92789Z" fill="url(#paint1_linear_1245_588)" mask="url(#path-1-inside-1_1245_588)"/>
</g>
<path d="M36.3828 55.5609L32 58.8345V57.7126L35.6433 54.9908L32 52.2874V51.1655L36.3828 54.4391L41 51V52.1218L37.1403 54.9908L41 57.8782V59L36.3828 55.5609Z" fill="url(#paint2_linear_1245_588)"/>
<path d="M41 65.3514C41 66.154 40.7903 66.7961 40.3709 67.2776C39.9398 67.7592 39.3689 68 38.6583 68H37.9942C37.2835 68 36.7184 67.7535 36.299 67.2604C35.8796 66.7674 35.6699 66.1138 35.6699 65.2998V64.1818C35.6699 63.792 35.734 63.3907 35.8621 62.9779C35.9903 62.5536 36.165 62.1925 36.3864 61.8943H34.6913C34.1437 61.8943 33.6951 62.0606 33.3456 62.3931C32.9961 62.7256 32.8214 63.1556 32.8214 63.683V65.0246C32.8214 65.5635 32.9495 65.9992 33.2058 66.3317C33.4621 66.6642 33.8058 66.8305 34.2369 66.8305V67.7592C33.5612 67.7592 33.0194 67.507 32.6117 67.0025C32.2039 66.498 32 65.8387 32 65.0246V63.683C32 62.869 32.2447 62.2211 32.734 61.7396C33.2233 61.2465 33.8757 61 34.6913 61H40.8602V61.8772H39.4971C39.9631 62.1753 40.3301 62.5422 40.5981 62.9779C40.866 63.4136 41 63.855 41 64.3022V65.3514ZM40.1612 64.285C40.1612 63.8034 39.9864 63.3448 39.6369 62.9091C39.2874 62.4619 38.8272 62.1237 38.2563 61.8943H37.3126C37.068 62.1466 36.8699 62.4848 36.7184 62.9091C36.567 63.3219 36.4913 63.7461 36.4913 64.1818V65.2998C36.4913 65.8387 36.6311 66.2686 36.9107 66.5897C37.1786 66.9107 37.5398 67.0713 37.9942 67.0713H38.6583C39.1126 67.0713 39.4796 66.9165 39.7592 66.6069C40.0272 66.2973 40.1612 65.8788 40.1612 65.3514V64.285Z" fill="url(#paint3_linear_1245_588)"/>
<path d="M28 82V81.0179L36.9143 76.4286L28 71.9643V71H41V71.9643H29.9129L37.8243 75.9464C37.9852 76.0298 38.0967 76.1071 38.1586 76.1786C38.2205 76.2381 38.2514 76.3095 38.2514 76.3929V76.6964L29.9129 81.0357H41V82H28Z" fill="url(#paint4_linear_1245_588)"/>
<defs>
<linearGradient id="paint0_linear_1245_588" x1="66.8932" y1="18.0586" x2="-17.7005" y2="53.0169" gradientUnits="userSpaceOnUse">
<stop stop-color="#FCB433"/>
<stop offset="1" stop-color="#966B1E"/>
</linearGradient>
<linearGradient id="paint1_linear_1245_588" x1="66.7679" y1="18.0586" x2="-17.8513" y2="53.0423" gradientUnits="userSpaceOnUse">
<stop stop-color="#FCB433"/>
<stop offset="1" stop-color="#966B1E"/>
</linearGradient>
<linearGradient id="paint2_linear_1245_588" x1="33.2129" y1="51.6957" x2="38.2349" y2="59.1533" gradientUnits="userSpaceOnUse">
<stop stop-color="#FCB433"/>
<stop offset="1" stop-color="#966B1E"/>
</linearGradient>
<linearGradient id="paint3_linear_1245_588" x1="33.2129" y1="61.6087" x2="37.3612" y2="68.649" gradientUnits="userSpaceOnUse">
<stop stop-color="#FCB433"/>
<stop offset="1" stop-color="#966B1E"/>
</linearGradient>
<linearGradient id="paint4_linear_1245_588" x1="29.752" y1="71.9565" x2="36.5235" y2="82.5201" gradientUnits="userSpaceOnUse">
<stop stop-color="#FCB433"/>
<stop offset="1" stop-color="#966B1E"/>
</linearGradient>
</defs>
</svg>
