<svg width="74" height="134" viewBox="0 0 74 134" fill="none" xmlns="http://www.w3.org/2000/svg">
<g opacity="0.7">
<mask id="path-1-inside-1_1245_581" fill="white">
<path fill-rule="evenodd" clip-rule="evenodd" d="M50 0C54.6432 0 56.9648 0 58.922 0.171239C60.5126 0.310397 62.0791 0.531582 63.6173 0.830558C67.5914 1.60302 69.5784 1.98925 71.0965 3.51946C72.4215 4.85515 73.1547 6.67423 73.1262 8.55546C73.0935 10.7107 71.1181 13.5216 67.1673 19.1435C62.7363 25.4487 59.8825 32.9487 59.1712 41.078C59 43.0353 59 45.3568 59 50V84C59 88.6431 59 90.9647 59.1712 92.922C59.8825 101.051 62.7363 108.551 67.1673 114.856C71.1181 120.478 73.0935 123.289 73.1262 125.445C73.1547 127.326 72.4215 129.145 71.0965 130.481C69.5784 132.011 67.5914 132.397 63.6173 133.169C62.0791 133.468 60.5126 133.69 58.922 133.829C56.9648 134 54.6432 134 50 134C45.3568 134 43.0353 134 41.078 133.829C19.3229 131.925 2.07457 114.677 0.171239 92.922C0 90.9647 0 88.6431 0 84V50C0 45.3568 0 43.0353 0.171239 41.078C2.07457 19.3229 19.3229 2.07457 41.078 0.171239C43.0353 0 45.3568 0 50 0Z"/>
</mask>
<path fill-rule="evenodd" clip-rule="evenodd" d="M50 0C54.6432 0 56.9648 0 58.922 0.171239C60.5126 0.310397 62.0791 0.531582 63.6173 0.830558C67.5914 1.60302 69.5784 1.98925 71.0965 3.51946C72.4215 4.85515 73.1547 6.67423 73.1262 8.55546C73.0935 10.7107 71.1181 13.5216 67.1673 19.1435C62.7363 25.4487 59.8825 32.9487 59.1712 41.078C59 43.0353 59 45.3568 59 50V84C59 88.6431 59 90.9647 59.1712 92.922C59.8825 101.051 62.7363 108.551 67.1673 114.856C71.1181 120.478 73.0935 123.289 73.1262 125.445C73.1547 127.326 72.4215 129.145 71.0965 130.481C69.5784 132.011 67.5914 132.397 63.6173 133.169C62.0791 133.468 60.5126 133.69 58.922 133.829C56.9648 134 54.6432 134 50 134C45.3568 134 43.0353 134 41.078 133.829C19.3229 131.925 2.07457 114.677 0.171239 92.922C0 90.9647 0 88.6431 0 84V50C0 45.3568 0 43.0353 0.171239 41.078C2.07457 19.3229 19.3229 2.07457 41.078 0.171239C43.0353 0 45.3568 0 50 0Z" fill="url(#paint0_linear_1245_581)" fill-opacity="0.15"/>
<path d="M58.922 0.171239L58.7477 2.16363L58.7477 2.16363L58.922 0.171239ZM59.1712 41.078L57.1788 40.9037L57.1788 40.9037L59.1712 41.078ZM59.1712 92.922L57.1788 93.0963L57.1788 93.0963L59.1712 92.922ZM58.922 133.829L59.0963 135.821L59.0963 135.821L58.922 133.829ZM41.078 133.829L40.9037 135.821L40.9037 135.821L41.078 133.829ZM0.171239 92.922L-1.82115 93.0963L-1.82115 93.0963L0.171239 92.922ZM0.171239 41.078L2.16363 41.2523L2.16363 41.2523L0.171239 41.078ZM41.078 0.171239L41.2523 2.16363L41.2523 2.16363L41.078 0.171239ZM73.1262 125.445L75.1259 125.414L73.1262 125.445ZM63.6173 133.169L63.2357 131.206L63.6173 133.169ZM71.0965 130.481L69.6766 129.072L71.0965 130.481ZM73.1262 8.55546L71.1264 8.52515L73.1262 8.55546ZM59.0963 -1.82115C57.0301 -2.00192 54.6009 -2 50 -2V2C54.6855 2 56.8994 2.00192 58.7477 2.16363L59.0963 -1.82115ZM63.9989 -1.1327C62.3924 -1.44496 60.7567 -1.67589 59.0963 -1.82115L58.7477 2.16363C60.2685 2.29668 61.7658 2.50812 63.2357 2.79382L63.9989 -1.1327ZM61.1636 41.2523C61.8434 33.4828 64.57 26.3178 68.8037 20.2934L65.531 17.9935C60.9026 24.5796 57.9215 32.4146 57.1788 40.9037L61.1636 41.2523ZM61 50C61 45.3146 61.0019 43.1006 61.1636 41.2523L57.1788 40.9037C56.9981 42.9699 57 45.3991 57 50H61ZM61 84V50H57V84H61ZM61.1636 92.7477C61.0019 90.8993 61 88.6854 61 84H57C57 88.6009 56.9981 91.0301 57.1788 93.0963L61.1636 92.7477ZM68.8037 113.707C64.57 107.682 61.8434 100.517 61.1636 92.7477L57.1788 93.0963C57.9215 101.585 60.9026 109.42 65.531 116.006L68.8037 113.707ZM59.0963 135.821C60.7567 135.676 62.3924 135.445 63.9989 135.133L63.2357 131.206C61.7658 131.492 60.2685 131.703 58.7477 131.836L59.0963 135.821ZM50 136C54.6009 136 57.0301 136.002 59.0963 135.821L58.7477 131.836C56.8994 131.998 54.6854 132 50 132V136ZM40.9037 135.821C42.9699 136.002 45.3991 136 50 136V132C45.3146 132 43.1006 131.998 41.2523 131.836L40.9037 135.821ZM-1.82115 93.0963C0.166768 115.818 18.1817 133.833 40.9037 135.821L41.2523 131.836C20.4641 130.018 3.98236 113.536 2.16363 92.7477L-1.82115 93.0963ZM-2 84C-2 88.6009 -2.00192 91.0301 -1.82115 93.0963L2.16363 92.7477C2.00192 90.8993 2 88.6854 2 84H-2ZM-2 50V84H2V50H-2ZM-1.82115 40.9037C-2.00192 42.9699 -2 45.3991 -2 50H2C2 45.3146 2.00192 43.1006 2.16363 41.2523L-1.82115 40.9037ZM40.9037 -1.82115C18.1817 0.166768 0.166768 18.1817 -1.82115 40.9037L2.16363 41.2523C3.98236 20.4641 20.4641 3.98236 41.2523 2.16363L40.9037 -1.82115ZM50 -2C45.3991 -2 42.9699 -2.00192 40.9037 -1.82115L41.2523 2.16363C43.1006 2.00192 45.3146 2 50 2V-2ZM65.531 116.006C67.5261 118.845 68.9527 120.878 69.8951 122.47C70.861 124.101 71.1185 124.955 71.1264 125.475L75.1259 125.414C75.1012 123.779 74.3546 122.15 73.337 120.431C72.2958 118.673 70.7594 116.489 68.8037 113.707L65.531 116.006ZM63.9989 135.133C67.7474 134.404 70.4697 133.952 72.5163 131.889L69.6766 129.072C68.6872 130.069 67.4354 130.39 63.2357 131.206L63.9989 135.133ZM71.1264 125.475C71.1468 126.818 70.6227 128.118 69.6766 129.072L72.5163 131.889C74.2204 130.171 75.1626 127.834 75.1259 125.414L71.1264 125.475ZM63.2357 2.79382C67.4354 3.61012 68.6872 3.93061 69.6766 4.92801L72.5163 2.11091C70.4697 0.0478847 67.7474 -0.404091 63.9989 -1.1327L63.2357 2.79382ZM68.8037 20.2934C70.7594 17.5105 72.2958 15.3267 73.337 13.5685C74.3546 11.85 75.1012 10.2212 75.1259 8.58577L71.1264 8.52515C71.1185 9.04491 70.861 9.89924 69.8951 11.5304C68.9527 13.1219 67.5261 15.1545 65.531 17.9935L68.8037 20.2934ZM69.6766 4.92801C70.6227 5.88164 71.1468 7.18203 71.1264 8.52515L75.1259 8.58577C75.1626 6.16643 74.2204 3.82866 72.5163 2.11091L69.6766 4.92801Z" fill="url(#paint1_linear_1245_581)" mask="url(#path-1-inside-1_1245_581)"/>
</g>
<path d="M41 51.8899C41 52.8142 40.6879 53.5636 40.0636 54.1382C39.427 54.7127 38.5946 55 37.5664 55H35.1059C34.041 55 33.1841 54.7002 32.5353 54.1007C31.8743 53.4887 31.5438 52.6893 31.5438 51.7026V50.2787C31.5438 49.8415 31.6601 49.4169 31.8927 49.0047C32.113 48.58 32.4129 48.2428 32.7924 47.993H28V47H40.8531V47.9742H39.3107C39.8371 48.2865 40.2533 48.6737 40.5593 49.1358C40.8531 49.5855 41 50.0601 41 50.5597V51.8899ZM40.1186 50.5785C40.1186 49.9914 39.8677 49.4481 39.3658 48.9485C38.8517 48.4489 38.2335 48.1304 37.5113 47.993H34.5367C33.9124 48.1179 33.4044 48.3927 33.0127 48.8173C32.621 49.242 32.4251 49.7354 32.4251 50.2974V51.6838C32.4251 52.3833 32.67 52.9454 33.1596 53.37C33.6492 53.7822 34.298 53.9883 35.1059 53.9883H37.5664C38.3253 53.9883 38.9435 53.7947 39.4209 53.4075C39.8861 53.0078 40.1186 52.4957 40.1186 51.8712V50.5785Z" fill="url(#paint2_linear_1245_581)"/>
<path d="M41 61.3514C41 62.154 40.7903 62.7961 40.3709 63.2776C39.9398 63.7592 39.3689 64 38.6583 64H37.9942C37.2835 64 36.7184 63.7535 36.299 63.2604C35.8796 62.7674 35.6699 62.1138 35.6699 61.2998V60.1818C35.6699 59.792 35.734 59.3907 35.8621 58.9779C35.9903 58.5536 36.165 58.1925 36.3864 57.8943H34.6913C34.1437 57.8943 33.6951 58.0606 33.3456 58.3931C32.9961 58.7256 32.8214 59.1556 32.8214 59.683V61.0246C32.8214 61.5635 32.9495 61.9992 33.2058 62.3317C33.4621 62.6642 33.8058 62.8305 34.2369 62.8305V63.7592C33.5612 63.7592 33.0194 63.507 32.6117 63.0025C32.2039 62.498 32 61.8387 32 61.0246V59.683C32 58.869 32.2447 58.2211 32.734 57.7396C33.2233 57.2465 33.8757 57 34.6913 57H40.8602V57.8772H39.4971C39.9631 58.1753 40.3301 58.5422 40.5981 58.9779C40.866 59.4136 41 59.855 41 60.3022V61.3514ZM40.1612 60.285C40.1612 59.8034 39.9864 59.3448 39.6369 58.9091C39.2874 58.4619 38.8272 58.1237 38.2563 57.8943H37.3126C37.068 58.1466 36.8699 58.4848 36.7184 58.9091C36.567 59.3219 36.4913 59.7461 36.4913 60.1818V61.2998C36.4913 61.8387 36.6311 62.2686 36.9107 62.5897C37.1786 62.9107 37.5398 63.0713 37.9942 63.0713H38.6583C39.1126 63.0713 39.4796 62.9165 39.7592 62.6069C40.0272 62.2973 40.1612 61.8788 40.1612 61.3514V60.285Z" fill="url(#paint3_linear_1245_581)"/>
<path d="M41 70.7026C41 71.6893 40.7204 72.4887 40.1612 73.1007C39.6019 73.7002 38.8621 74 37.9417 74H35.233C34.266 74 33.4854 73.7002 32.8913 73.1007C32.2971 72.4887 32 71.6893 32 70.7026V69.1663C32 68.217 32.2913 67.4551 32.8738 66.8806C33.4447 66.2935 34.2078 66 35.1631 66H36.6311V72.9883H37.9417C38.6058 72.9883 39.1417 72.7822 39.5495 72.37C39.9573 71.9454 40.1612 71.3895 40.1612 70.7026V69.2787C40.1612 68.6042 39.9806 68.0609 39.6194 67.6487C39.2466 67.224 38.7631 67.0117 38.1689 67.0117V66.0375C39.0194 66.0375 39.7068 66.3372 40.2311 66.9368C40.7437 67.5238 41 68.3045 41 69.2787V70.7026ZM35.8272 66.993H35.1631C34.4641 66.993 33.9049 67.1928 33.4854 67.5925C33.0544 67.9922 32.8388 68.5168 32.8388 69.1663V70.7026C32.8388 71.3895 33.0602 71.9454 33.5029 72.37C33.9456 72.7822 34.5223 72.9883 35.233 72.9883H35.8272V66.993Z" fill="url(#paint4_linear_1245_581)"/>
<path d="M28 86V85.037H33.98V77.963H28V77H41V77.963H34.89V85.037H41V86H28Z" fill="url(#paint5_linear_1245_581)"/>
<defs>
<linearGradient id="paint0_linear_1245_581" x1="7.66363" y1="7.34246" x2="102.79" y2="59.4442" gradientUnits="userSpaceOnUse">
<stop stop-color="#727272"/>
<stop offset="1" stop-color="white"/>
</linearGradient>
<linearGradient id="paint1_linear_1245_581" x1="7.51305" y1="7.34246" x2="102.661" y2="59.4783" gradientUnits="userSpaceOnUse">
<stop stop-color="#727272"/>
<stop offset="1" stop-color="white"/>
</linearGradient>
<linearGradient id="paint2_linear_1245_581" x1="28.7123" y1="54.1781" x2="34.7644" y2="44.3832" gradientUnits="userSpaceOnUse">
<stop stop-color="#727272"/>
<stop offset="1" stop-color="white"/>
</linearGradient>
<linearGradient id="paint3_linear_1245_581" x1="32.4932" y1="63.2808" x2="38.2379" y2="55.9246" gradientUnits="userSpaceOnUse">
<stop stop-color="#727272"/>
<stop offset="1" stop-color="white"/>
</linearGradient>
<linearGradient id="paint4_linear_1245_581" x1="32.4932" y1="73.1781" x2="39.2168" y2="65.6446" gradientUnits="userSpaceOnUse">
<stop stop-color="#727272"/>
<stop offset="1" stop-color="white"/>
</linearGradient>
<linearGradient id="paint5_linear_1245_581" x1="28.7123" y1="85.0753" x2="35.8483" y2="74.8096" gradientUnits="userSpaceOnUse">
<stop stop-color="#727272"/>
<stop offset="1" stop-color="white"/>
</linearGradient>
</defs>
</svg>
