<svg width="74" height="134" viewBox="0 0 74 134" fill="none" xmlns="http://www.w3.org/2000/svg">
<g opacity="0.7">
<mask id="path-1-inside-1_1245_586" fill="white">
<path fill-rule="evenodd" clip-rule="evenodd" d="M50 0C54.6432 0 56.9648 0 58.922 0.171239C60.5126 0.310397 62.0791 0.531582 63.6173 0.830558C67.5914 1.60302 69.5784 1.98925 71.0965 3.51946C72.4215 4.85515 73.1547 6.67423 73.1262 8.55546C73.0935 10.7107 71.1181 13.5216 67.1673 19.1435C62.7363 25.4487 59.8825 32.9487 59.1712 41.078C59 43.0353 59 45.3568 59 50V84C59 88.6431 59 90.9647 59.1712 92.922C59.8825 101.051 62.7363 108.551 67.1673 114.856C71.1181 120.478 73.0935 123.289 73.1262 125.445C73.1547 127.326 72.4215 129.145 71.0965 130.481C69.5784 132.011 67.5914 132.397 63.6173 133.169C62.0791 133.468 60.5126 133.69 58.922 133.829C56.9648 134 54.6432 134 50 134C45.3568 134 43.0353 134 41.078 133.829C19.3229 131.925 2.07457 114.677 0.171239 92.922C0 90.9647 0 88.6431 0 84V50C0 45.3568 0 43.0353 0.171239 41.078C2.07457 19.3229 19.3229 2.07457 41.078 0.171239C43.0353 0 45.3568 0 50 0Z"/>
</mask>
<path fill-rule="evenodd" clip-rule="evenodd" d="M50 0C54.6432 0 56.9648 0 58.922 0.171239C60.5126 0.310397 62.0791 0.531582 63.6173 0.830558C67.5914 1.60302 69.5784 1.98925 71.0965 3.51946C72.4215 4.85515 73.1547 6.67423 73.1262 8.55546C73.0935 10.7107 71.1181 13.5216 67.1673 19.1435C62.7363 25.4487 59.8825 32.9487 59.1712 41.078C59 43.0353 59 45.3568 59 50V84C59 88.6431 59 90.9647 59.1712 92.922C59.8825 101.051 62.7363 108.551 67.1673 114.856C71.1181 120.478 73.0935 123.289 73.1262 125.445C73.1547 127.326 72.4215 129.145 71.0965 130.481C69.5784 132.011 67.5914 132.397 63.6173 133.169C62.0791 133.468 60.5126 133.69 58.922 133.829C56.9648 134 54.6432 134 50 134C45.3568 134 43.0353 134 41.078 133.829C19.3229 131.925 2.07457 114.677 0.171239 92.922C0 90.9647 0 88.6431 0 84V50C0 45.3568 0 43.0353 0.171239 41.078C2.07457 19.3229 19.3229 2.07457 41.078 0.171239C43.0353 0 45.3568 0 50 0Z" fill="url(#paint0_linear_1245_586)" fill-opacity="0.15"/>
<path d="M58.922 0.171239L58.7477 2.16363L58.7477 2.16363L58.922 0.171239ZM59.1712 41.078L57.1788 40.9037L57.1788 40.9037L59.1712 41.078ZM59.1712 92.922L57.1788 93.0963L57.1788 93.0963L59.1712 92.922ZM58.922 133.829L59.0963 135.821L59.0963 135.821L58.922 133.829ZM41.078 133.829L40.9037 135.821L40.9037 135.821L41.078 133.829ZM0.171239 92.922L-1.82115 93.0963L-1.82115 93.0963L0.171239 92.922ZM0.171239 41.078L2.16363 41.2523L2.16363 41.2523L0.171239 41.078ZM41.078 0.171239L41.2523 2.16363L41.2523 2.16363L41.078 0.171239ZM73.1262 125.445L75.1259 125.414L73.1262 125.445ZM63.6173 133.169L63.2357 131.206L63.6173 133.169ZM71.0965 130.481L69.6766 129.072L71.0965 130.481ZM73.1262 8.55546L71.1264 8.52515L73.1262 8.55546ZM59.0963 -1.82115C57.0301 -2.00192 54.6009 -2 50 -2V2C54.6855 2 56.8994 2.00192 58.7477 2.16363L59.0963 -1.82115ZM63.9989 -1.1327C62.3924 -1.44496 60.7567 -1.67589 59.0963 -1.82115L58.7477 2.16363C60.2685 2.29668 61.7658 2.50812 63.2357 2.79382L63.9989 -1.1327ZM61.1636 41.2523C61.8434 33.4828 64.57 26.3178 68.8037 20.2934L65.531 17.9935C60.9026 24.5796 57.9215 32.4146 57.1788 40.9037L61.1636 41.2523ZM61 50C61 45.3146 61.0019 43.1006 61.1636 41.2523L57.1788 40.9037C56.9981 42.9699 57 45.3991 57 50H61ZM61 84V50H57V84H61ZM61.1636 92.7477C61.0019 90.8993 61 88.6854 61 84H57C57 88.6009 56.9981 91.0301 57.1788 93.0963L61.1636 92.7477ZM68.8037 113.707C64.57 107.682 61.8434 100.517 61.1636 92.7477L57.1788 93.0963C57.9215 101.585 60.9026 109.42 65.531 116.006L68.8037 113.707ZM59.0963 135.821C60.7567 135.676 62.3924 135.445 63.9989 135.133L63.2357 131.206C61.7658 131.492 60.2685 131.703 58.7477 131.836L59.0963 135.821ZM50 136C54.6009 136 57.0301 136.002 59.0963 135.821L58.7477 131.836C56.8994 131.998 54.6854 132 50 132V136ZM40.9037 135.821C42.9699 136.002 45.3991 136 50 136V132C45.3146 132 43.1006 131.998 41.2523 131.836L40.9037 135.821ZM-1.82115 93.0963C0.166768 115.818 18.1817 133.833 40.9037 135.821L41.2523 131.836C20.4641 130.018 3.98236 113.536 2.16363 92.7477L-1.82115 93.0963ZM-2 84C-2 88.6009 -2.00192 91.0301 -1.82115 93.0963L2.16363 92.7477C2.00192 90.8993 2 88.6854 2 84H-2ZM-2 50V84H2V50H-2ZM-1.82115 40.9037C-2.00192 42.9699 -2 45.3991 -2 50H2C2 45.3146 2.00192 43.1006 2.16363 41.2523L-1.82115 40.9037ZM40.9037 -1.82115C18.1817 0.166768 0.166768 18.1817 -1.82115 40.9037L2.16363 41.2523C3.98236 20.4641 20.4641 3.98236 41.2523 2.16363L40.9037 -1.82115ZM50 -2C45.3991 -2 42.9699 -2.00192 40.9037 -1.82115L41.2523 2.16363C43.1006 2.00192 45.3146 2 50 2V-2ZM65.531 116.006C67.5261 118.845 68.9527 120.878 69.8951 122.47C70.861 124.101 71.1185 124.955 71.1264 125.475L75.1259 125.414C75.1012 123.779 74.3546 122.15 73.337 120.431C72.2958 118.673 70.7594 116.489 68.8037 113.707L65.531 116.006ZM63.9989 135.133C67.7474 134.404 70.4697 133.952 72.5163 131.889L69.6766 129.072C68.6872 130.069 67.4354 130.39 63.2357 131.206L63.9989 135.133ZM71.1264 125.475C71.1468 126.818 70.6227 128.118 69.6766 129.072L72.5163 131.889C74.2204 130.171 75.1626 127.834 75.1259 125.414L71.1264 125.475ZM63.2357 2.79382C67.4354 3.61012 68.6872 3.93061 69.6766 4.92801L72.5163 2.11091C70.4697 0.0478847 67.7474 -0.404091 63.9989 -1.1327L63.2357 2.79382ZM68.8037 20.2934C70.7594 17.5105 72.2958 15.3267 73.337 13.5685C74.3546 11.85 75.1012 10.2212 75.1259 8.58577L71.1264 8.52515C71.1185 9.04491 70.861 9.89924 69.8951 11.5304C68.9527 13.1219 67.5261 15.1545 65.531 17.9935L68.8037 20.2934ZM69.6766 4.92801C70.6227 5.88164 71.1468 7.18203 71.1264 8.52515L75.1259 8.58577C75.1626 6.16643 74.2204 3.82866 72.5163 2.11091L69.6766 4.92801Z" fill="url(#paint1_linear_1245_586)" mask="url(#path-1-inside-1_1245_586)"/>
</g>
<path d="M28 78.6243L28 77.6343L36.64 73.0083L28 68.5083L28 67.5363H40.6L40.6 68.5083H29.854L37.522 72.5223C37.678 72.6063 37.786 72.6843 37.846 72.7563C37.906 72.8163 37.936 72.8883 37.936 72.9723V73.2783L29.854 77.6523H40.6V78.6243H28Z" fill="url(#paint2_linear_1245_586)"/>
<path d="M30.088 63.8108C30.088 64.0508 30.016 64.2488 29.872 64.4048C29.728 64.5488 29.536 64.6208 29.296 64.6208C29.056 64.6208 28.864 64.5488 28.72 64.4048C28.564 64.2488 28.486 64.0508 28.486 63.8108C28.486 63.5708 28.564 63.3788 28.72 63.2348C28.864 63.0908 29.056 63.0188 29.296 63.0188C29.524 63.0188 29.716 63.0908 29.872 63.2348C30.016 63.3788 30.088 63.5708 30.088 63.8108ZM31.618 64.2968V63.3428H40.6V64.2968H31.618Z" fill="url(#paint3_linear_1245_586)"/>
<path d="M31.618 60.1781V59.2421H33.148C32.632 58.9421 32.224 58.5641 31.924 58.1081C31.624 57.6401 31.474 57.1661 31.474 56.6861L31.474 55.4801C31.474 54.7001 31.75 54.0701 32.302 53.5901C32.842 53.0981 33.562 52.8521 34.462 52.8521L40.6 52.8521V53.8061L34.444 53.8061C33.82 53.8061 33.316 53.9621 32.932 54.2741C32.536 54.5861 32.338 54.9941 32.338 55.4981V56.6681C32.338 57.2081 32.56 57.7181 33.004 58.1981C33.448 58.6781 34.024 59.0141 34.732 59.2061L40.6 59.2061V60.1781L31.618 60.1781Z" fill="url(#paint4_linear_1245_586)"/>
<defs>
<linearGradient id="paint0_linear_1245_586" x1="7.66363" y1="7.34246" x2="102.79" y2="59.4442" gradientUnits="userSpaceOnUse">
<stop stop-color="#727272"/>
<stop offset="1" stop-color="white"/>
</linearGradient>
<linearGradient id="paint1_linear_1245_586" x1="7.51305" y1="7.34246" x2="102.661" y2="59.4783" gradientUnits="userSpaceOnUse">
<stop stop-color="#727272"/>
<stop offset="1" stop-color="white"/>
</linearGradient>
<linearGradient id="paint2_linear_1245_586" x1="29.2945" y1="54.2642" x2="46.4719" y2="62.6964" gradientUnits="userSpaceOnUse">
<stop stop-color="#727272"/>
<stop offset="1" stop-color="white"/>
</linearGradient>
<linearGradient id="paint3_linear_1245_586" x1="29.2945" y1="54.2642" x2="46.4719" y2="62.6964" gradientUnits="userSpaceOnUse">
<stop stop-color="#727272"/>
<stop offset="1" stop-color="white"/>
</linearGradient>
<linearGradient id="paint4_linear_1245_586" x1="29.2945" y1="54.2642" x2="46.4719" y2="62.6964" gradientUnits="userSpaceOnUse">
<stop stop-color="#727272"/>
<stop offset="1" stop-color="white"/>
</linearGradient>
</defs>
</svg>
