<svg width="74" height="134" viewBox="0 0 74 134" fill="none" xmlns="http://www.w3.org/2000/svg">
<g opacity="0.7">
<mask id="path-1-inside-1_1245_584" fill="white">
<path fill-rule="evenodd" clip-rule="evenodd" d="M50 0C54.6432 0 56.9648 0 58.922 0.171239C60.5125 0.310385 62.0788 0.531544 63.6169 0.830481C67.591 1.60291 69.5781 1.98912 71.0961 3.51934C72.4212 4.85503 73.1544 6.67411 73.1259 8.55535C73.0932 10.7106 71.1178 13.5215 67.167 19.1435C62.736 25.4487 59.8821 32.9487 59.1709 41.078C58.9996 43.0353 58.9996 45.3568 58.9996 50V84C58.9996 88.6431 58.9996 90.9647 59.1709 92.922C59.8821 101.051 62.736 108.551 67.167 114.857C71.1178 120.478 73.0932 123.289 73.1259 125.445C73.1544 127.326 72.4212 129.145 71.0962 130.481C69.5781 132.011 67.591 132.397 63.6169 133.169C62.0788 133.468 60.5125 133.69 58.922 133.829C56.9648 134 54.6432 134 50 134C45.3568 134 43.0353 134 41.078 133.829C19.3229 131.925 2.07457 114.677 0.171239 92.922C0 90.9647 0 88.6431 0 84V50C0 45.3568 0 43.0353 0.171239 41.078C2.07457 19.3229 19.3229 2.07457 41.078 0.171239C43.0353 0 45.3568 0 50 0Z"/>
</mask>
<path fill-rule="evenodd" clip-rule="evenodd" d="M50 0C54.6432 0 56.9648 0 58.922 0.171239C60.5125 0.310385 62.0788 0.531544 63.6169 0.830481C67.591 1.60291 69.5781 1.98912 71.0961 3.51934C72.4212 4.85503 73.1544 6.67411 73.1259 8.55535C73.0932 10.7106 71.1178 13.5215 67.167 19.1435C62.736 25.4487 59.8821 32.9487 59.1709 41.078C58.9996 43.0353 58.9996 45.3568 58.9996 50V84C58.9996 88.6431 58.9996 90.9647 59.1709 92.922C59.8821 101.051 62.736 108.551 67.167 114.857C71.1178 120.478 73.0932 123.289 73.1259 125.445C73.1544 127.326 72.4212 129.145 71.0962 130.481C69.5781 132.011 67.591 132.397 63.6169 133.169C62.0788 133.468 60.5125 133.69 58.922 133.829C56.9648 134 54.6432 134 50 134C45.3568 134 43.0353 134 41.078 133.829C19.3229 131.925 2.07457 114.677 0.171239 92.922C0 90.9647 0 88.6431 0 84V50C0 45.3568 0 43.0353 0.171239 41.078C2.07457 19.3229 19.3229 2.07457 41.078 0.171239C43.0353 0 45.3568 0 50 0Z" fill="url(#paint0_linear_1245_584)" fill-opacity="0.15"/>
<path d="M58.922 0.171239L58.7477 2.16363L58.7477 2.16363L58.922 0.171239ZM59.1709 41.078L57.1785 40.9037L57.1785 40.9037L59.1709 41.078ZM59.1709 92.922L57.1785 93.0963L57.1785 93.0963L59.1709 92.922ZM58.922 133.829L59.0963 135.821L59.0963 135.821L58.922 133.829ZM41.078 133.829L40.9037 135.821L40.9037 135.821L41.078 133.829ZM0.171239 92.922L-1.82115 93.0963L-1.82115 93.0963L0.171239 92.922ZM0.171239 41.078L2.16363 41.2523L2.16363 41.2523L0.171239 41.078ZM41.078 0.171239L41.2523 2.16363L41.2523 2.16363L41.078 0.171239ZM73.1259 125.445L75.1257 125.414L73.1259 125.445ZM63.6169 133.169L63.9985 135.133L63.6169 133.169ZM71.0962 130.481L69.6763 129.072L71.0962 130.481ZM71.0961 3.51934L69.6763 4.92789L71.0961 3.51934ZM67.167 19.1435L65.5306 17.9935L67.167 19.1435ZM73.1259 8.55535L75.1257 8.58565L73.1259 8.55535ZM59.0963 -1.82115C57.0301 -2.00192 54.6009 -2 50 -2V2C54.6855 2 56.8994 2.00192 58.7477 2.16363L59.0963 -1.82115ZM63.9984 -1.13278C62.3921 -1.445 60.7565 -1.6759 59.0963 -1.82115L58.7477 2.16363C60.2684 2.29667 61.7656 2.50809 63.2353 2.79374L63.9984 -1.13278ZM61.1633 41.2523C61.843 33.4828 64.5697 26.3178 68.8033 20.2934L65.5306 17.9935C60.9023 24.5796 57.9212 32.4146 57.1785 40.9037L61.1633 41.2523ZM60.9996 50C60.9996 45.3146 61.0016 43.1006 61.1633 41.2523L57.1785 40.9037C56.9977 42.9699 56.9996 45.3991 56.9996 50H60.9996ZM60.9996 84V50H56.9996V84H60.9996ZM61.1633 92.7477C61.0016 90.8993 60.9996 88.6854 60.9996 84H56.9996C56.9996 88.6009 56.9977 91.0301 57.1785 93.0963L61.1633 92.7477ZM68.8033 113.707C64.5697 107.682 61.843 100.517 61.1633 92.7477L57.1785 93.0963C57.9212 101.585 60.9023 109.42 65.5306 116.006L68.8033 113.707ZM59.0963 135.821C60.7565 135.676 62.3921 135.445 63.9985 135.133L63.2353 131.206C61.7656 131.492 60.2684 131.703 58.7477 131.836L59.0963 135.821ZM50 136C54.6009 136 57.0301 136.002 59.0963 135.821L58.7477 131.836C56.8994 131.998 54.6854 132 50 132V136ZM40.9037 135.821C42.9699 136.002 45.3991 136 50 136V132C45.3146 132 43.1006 131.998 41.2523 131.836L40.9037 135.821ZM-1.82115 93.0963C0.166768 115.818 18.1817 133.833 40.9037 135.821L41.2523 131.836C20.4641 130.018 3.98236 113.536 2.16363 92.7477L-1.82115 93.0963ZM-2 84C-2 88.6009 -2.00192 91.0301 -1.82115 93.0963L2.16363 92.7477C2.00192 90.8993 2 88.6854 2 84H-2ZM-2 50V84H2V50H-2ZM-1.82115 40.9037C-2.00192 42.9699 -2 45.3991 -2 50H2C2 45.3146 2.00192 43.1006 2.16363 41.2523L-1.82115 40.9037ZM40.9037 -1.82115C18.1817 0.166768 0.166768 18.1817 -1.82115 40.9037L2.16363 41.2523C3.98236 20.4641 20.4641 3.98236 41.2523 2.16363L40.9037 -1.82115ZM50 -2C45.3991 -2 42.9699 -2.00192 40.9037 -1.82115L41.2523 2.16363C43.1006 2.00192 45.3146 2 50 2V-2ZM65.5306 116.006C67.5258 118.845 68.9524 120.878 69.8948 122.47C70.8608 124.101 71.1182 124.955 71.1261 125.475L75.1257 125.414C75.1009 123.779 74.3543 122.15 73.3367 120.432C72.2955 118.673 70.759 116.489 68.8033 113.707L65.5306 116.006ZM63.9985 135.133C67.747 134.404 70.4694 133.952 72.516 131.889L69.6763 129.072C68.6868 130.069 67.435 130.39 63.2353 131.206L63.9985 135.133ZM71.1261 125.475C71.1465 126.818 70.6224 128.118 69.6763 129.072L72.516 131.889C74.2201 130.171 75.1623 127.834 75.1257 125.414L71.1261 125.475ZM63.2353 2.79374C67.435 3.61002 68.6868 3.93049 69.6763 4.92789L72.516 2.11078C70.4694 0.0477548 67.747 -0.4042 63.9984 -1.13278L63.2353 2.79374ZM68.8033 20.2934C70.759 17.5105 72.2955 15.3267 73.3367 13.5684C74.3543 11.8499 75.1009 10.2211 75.1257 8.58565L71.1261 8.52505C71.1182 9.04481 70.8608 9.89915 69.8948 11.5303C68.9524 13.1219 67.5258 15.1545 65.5306 17.9935L68.8033 20.2934ZM69.6763 4.92789C70.6224 5.88152 71.1465 7.18192 71.1261 8.52505L75.1257 8.58565C75.1623 6.1663 74.2201 3.82853 72.516 2.11078L69.6763 4.92789Z" fill="url(#paint1_linear_1245_584)" mask="url(#path-1-inside-1_1245_584)"/>
</g>
<path d="M27 84L27 77.9207C27 77.0241 27.2422 76.3057 27.7265 75.7653C28.199 75.2249 28.8309 74.9547 29.6224 74.9547H31.0044C31.6305 74.9547 32.1857 75.1635 32.67 75.5811C33.1425 75.9986 33.4673 76.5575 33.6445 77.2575H33.6622C33.8394 76.889 34.1288 76.5575 34.5305 76.2627C34.9321 75.9679 35.4046 75.7407 35.948 75.5811L39.4031 74.5494V75.5811L35.948 76.6127C35.3219 76.8092 34.8258 77.1224 34.4596 77.5522C34.0934 77.9698 33.9103 78.4488 33.9103 78.9892V82.9868H39.4031V84H27ZM33.0421 78.3812C33.0421 77.6566 32.859 77.0733 32.4928 76.6311C32.1148 76.189 31.6187 75.9679 31.0044 75.9679H29.5869C29.0672 75.9679 28.6537 76.146 28.3466 76.5022C28.0277 76.8583 27.8682 77.3373 27.8682 77.9391L27.8682 82.9868H33.0421V78.3812Z" fill="url(#paint2_linear_1245_584)"/>
<path d="M29.0554 71.5196C29.0554 71.7652 28.9845 71.9679 28.8427 72.1275C28.701 72.2749 28.512 72.3486 28.2757 72.3486C28.0395 72.3486 27.8505 72.2749 27.7087 72.1275C27.5552 71.9679 27.4784 71.7652 27.4784 71.5196C27.4784 71.274 27.5552 71.0775 27.7087 70.9301C27.8505 70.7827 28.0395 70.709 28.2757 70.709C28.5002 70.709 28.6892 70.7827 28.8427 70.9301C28.9845 71.0775 29.0554 71.274 29.0554 71.5196ZM30.5615 72.017V71.0406L39.4031 71.0406V72.017H30.5615Z" fill="url(#paint3_linear_1245_584)"/>
<path d="M30.5615 67.8017V66.8437H32.0676C31.5596 66.5367 31.158 66.1498 30.8627 65.6831C30.5674 65.2041 30.4197 64.719 30.4197 64.2278V62.9935C30.4197 62.1952 30.6914 61.5504 31.2348 61.0592C31.7663 60.5556 32.4751 60.3039 33.361 60.3039H39.4031V61.2802H33.3433C32.7291 61.2802 32.2329 61.4399 31.8549 61.7592C31.4651 62.0785 31.2702 62.4961 31.2702 63.0119V64.2094C31.2702 64.762 31.4887 65.284 31.9258 65.7752C32.3629 66.2665 32.9299 66.6104 33.6268 66.8069H39.4031V67.8017H30.5615Z" fill="url(#paint4_linear_1245_584)"/>
<path d="M43 54.6792C43 55.4407 42.8051 56.067 42.4153 56.5583C42.0373 57.0495 41.5353 57.3259 40.9092 57.3873V56.3925C41.2872 56.3434 41.5884 56.1653 41.8128 55.8582C42.0491 55.5389 42.1672 55.1459 42.1672 54.6792V53.1502C42.1672 52.4624 41.9487 51.9282 41.5116 51.5475C41.0864 51.1667 40.4898 50.9764 39.722 50.9764L37.9856 50.9764C38.4109 51.2711 38.7534 51.6457 39.0133 52.1001C39.2732 52.5423 39.4031 52.9905 39.4031 53.4449V54.8082C39.4031 55.717 39.1019 56.4539 38.4994 57.0188C37.897 57.5838 37.0997 57.8663 36.1074 57.8663L33.8217 57.8663C32.8058 57.8663 31.9849 57.5715 31.3588 56.982C30.7327 56.3802 30.4197 55.5881 30.4197 54.6055V53.2423C30.4197 52.8002 30.5378 52.3703 30.7741 51.9527C30.9985 51.5229 31.2997 51.1913 31.6777 50.958L30.5615 50.958L30.5615 50L39.722 50C40.7497 50 41.553 50.2763 42.1318 50.829C42.7106 51.3817 43 52.1554 43 53.1502V54.6792ZM38.5526 53.4634C38.5526 52.8493 38.3223 52.3151 37.8616 51.8606C37.3891 51.3939 36.8398 51.0992 36.2137 50.9764L33.2724 50.9764C32.6818 51.0869 32.2034 51.3571 31.8372 51.7869C31.4592 52.2045 31.2702 52.6896 31.2702 53.2423V54.5871C31.2702 55.2749 31.5065 55.8275 31.979 56.2451C32.4515 56.6627 33.0657 56.8715 33.8217 56.8715H36.1074C36.828 56.8715 37.4186 56.6811 37.8793 56.3004C38.3282 55.9074 38.5526 55.4038 38.5526 54.7898V53.4634Z" fill="url(#paint5_linear_1245_584)"/>
<defs>
<linearGradient id="paint0_linear_1245_584" x1="66.8932" y1="18.0586" x2="-17.7005" y2="53.0169" gradientUnits="userSpaceOnUse">
<stop stop-color="#FCB433"/>
<stop offset="1" stop-color="#966B1E"/>
</linearGradient>
<linearGradient id="paint1_linear_1245_584" x1="66.7679" y1="18.0586" x2="-17.8513" y2="53.0423" gradientUnits="userSpaceOnUse">
<stop stop-color="#FCB433"/>
<stop offset="1" stop-color="#966B1E"/>
</linearGradient>
<linearGradient id="paint2_linear_1245_584" x1="41.6087" y1="54.582" x2="22.3743" y2="61.4392" gradientUnits="userSpaceOnUse">
<stop stop-color="#FCB433"/>
<stop offset="1" stop-color="#966B1E"/>
</linearGradient>
<linearGradient id="paint3_linear_1245_584" x1="41.6087" y1="54.582" x2="22.3743" y2="61.4392" gradientUnits="userSpaceOnUse">
<stop stop-color="#FCB433"/>
<stop offset="1" stop-color="#966B1E"/>
</linearGradient>
<linearGradient id="paint4_linear_1245_584" x1="41.6087" y1="54.582" x2="22.3743" y2="61.4392" gradientUnits="userSpaceOnUse">
<stop stop-color="#FCB433"/>
<stop offset="1" stop-color="#966B1E"/>
</linearGradient>
<linearGradient id="paint5_linear_1245_584" x1="41.6087" y1="54.582" x2="22.3743" y2="61.4392" gradientUnits="userSpaceOnUse">
<stop stop-color="#FCB433"/>
<stop offset="1" stop-color="#966B1E"/>
</linearGradient>
</defs>
</svg>
