<svg width="74" height="134" viewBox="0 0 74 134" fill="none" xmlns="http://www.w3.org/2000/svg">
<g opacity="0.7">
<mask id="path-1-inside-1_1245_582" fill="white">
<path fill-rule="evenodd" clip-rule="evenodd" d="M50 0C54.6432 0 56.9648 0 58.922 0.171239C60.5125 0.310385 62.0788 0.531544 63.6169 0.830481C67.591 1.60291 69.5781 1.98912 71.0961 3.51934C72.4212 4.85503 73.1544 6.67411 73.1259 8.55535C73.0932 10.7106 71.1178 13.5215 67.167 19.1435C62.736 25.4487 59.8821 32.9487 59.1709 41.078C58.9996 43.0353 58.9996 45.3568 58.9996 50V84C58.9996 88.6431 58.9996 90.9647 59.1709 92.922C59.8821 101.051 62.736 108.551 67.167 114.857C71.1178 120.478 73.0932 123.289 73.1259 125.445C73.1544 127.326 72.4212 129.145 71.0962 130.481C69.5781 132.011 67.591 132.397 63.6169 133.169C62.0788 133.468 60.5125 133.69 58.922 133.829C56.9648 134 54.6432 134 50 134C45.3568 134 43.0353 134 41.078 133.829C19.3229 131.925 2.07457 114.677 0.171239 92.922C0 90.9647 0 88.6431 0 84V50C0 45.3568 0 43.0353 0.171239 41.078C2.07457 19.3229 19.3229 2.07457 41.078 0.171239C43.0353 0 45.3568 0 50 0Z"/>
</mask>
<path fill-rule="evenodd" clip-rule="evenodd" d="M50 0C54.6432 0 56.9648 0 58.922 0.171239C60.5125 0.310385 62.0788 0.531544 63.6169 0.830481C67.591 1.60291 69.5781 1.98912 71.0961 3.51934C72.4212 4.85503 73.1544 6.67411 73.1259 8.55535C73.0932 10.7106 71.1178 13.5215 67.167 19.1435C62.736 25.4487 59.8821 32.9487 59.1709 41.078C58.9996 43.0353 58.9996 45.3568 58.9996 50V84C58.9996 88.6431 58.9996 90.9647 59.1709 92.922C59.8821 101.051 62.736 108.551 67.167 114.857C71.1178 120.478 73.0932 123.289 73.1259 125.445C73.1544 127.326 72.4212 129.145 71.0962 130.481C69.5781 132.011 67.591 132.397 63.6169 133.169C62.0788 133.468 60.5125 133.69 58.922 133.829C56.9648 134 54.6432 134 50 134C45.3568 134 43.0353 134 41.078 133.829C19.3229 131.925 2.07457 114.677 0.171239 92.922C0 90.9647 0 88.6431 0 84V50C0 45.3568 0 43.0353 0.171239 41.078C2.07457 19.3229 19.3229 2.07457 41.078 0.171239C43.0353 0 45.3568 0 50 0Z" fill="url(#paint0_linear_1245_582)" fill-opacity="0.15"/>
<path d="M58.922 0.171239L58.7477 2.16363L58.7477 2.16363L58.922 0.171239ZM59.1709 41.078L57.1785 40.9037L57.1785 40.9037L59.1709 41.078ZM59.1709 92.922L57.1785 93.0963L57.1785 93.0963L59.1709 92.922ZM58.922 133.829L59.0963 135.821L59.0963 135.821L58.922 133.829ZM41.078 133.829L40.9037 135.821L40.9037 135.821L41.078 133.829ZM0.171239 92.922L-1.82115 93.0963L-1.82115 93.0963L0.171239 92.922ZM0.171239 41.078L2.16363 41.2523L2.16363 41.2523L0.171239 41.078ZM41.078 0.171239L41.2523 2.16363L41.2523 2.16363L41.078 0.171239ZM73.1259 125.445L75.1257 125.414L73.1259 125.445ZM63.6169 133.169L63.9985 135.133L63.6169 133.169ZM71.0962 130.481L69.6763 129.072L71.0962 130.481ZM71.0961 3.51934L69.6763 4.92789L71.0961 3.51934ZM67.167 19.1435L65.5306 17.9935L67.167 19.1435ZM73.1259 8.55535L75.1257 8.58565L73.1259 8.55535ZM59.0963 -1.82115C57.0301 -2.00192 54.6009 -2 50 -2V2C54.6855 2 56.8994 2.00192 58.7477 2.16363L59.0963 -1.82115ZM63.9984 -1.13278C62.3921 -1.445 60.7565 -1.6759 59.0963 -1.82115L58.7477 2.16363C60.2684 2.29667 61.7656 2.50809 63.2353 2.79374L63.9984 -1.13278ZM61.1633 41.2523C61.843 33.4828 64.5697 26.3178 68.8033 20.2934L65.5306 17.9935C60.9023 24.5796 57.9212 32.4146 57.1785 40.9037L61.1633 41.2523ZM60.9996 50C60.9996 45.3146 61.0016 43.1006 61.1633 41.2523L57.1785 40.9037C56.9977 42.9699 56.9996 45.3991 56.9996 50H60.9996ZM60.9996 84V50H56.9996V84H60.9996ZM61.1633 92.7477C61.0016 90.8993 60.9996 88.6854 60.9996 84H56.9996C56.9996 88.6009 56.9977 91.0301 57.1785 93.0963L61.1633 92.7477ZM68.8033 113.707C64.5697 107.682 61.843 100.517 61.1633 92.7477L57.1785 93.0963C57.9212 101.585 60.9023 109.42 65.5306 116.006L68.8033 113.707ZM59.0963 135.821C60.7565 135.676 62.3921 135.445 63.9985 135.133L63.2353 131.206C61.7656 131.492 60.2684 131.703 58.7477 131.836L59.0963 135.821ZM50 136C54.6009 136 57.0301 136.002 59.0963 135.821L58.7477 131.836C56.8994 131.998 54.6854 132 50 132V136ZM40.9037 135.821C42.9699 136.002 45.3991 136 50 136V132C45.3146 132 43.1006 131.998 41.2523 131.836L40.9037 135.821ZM-1.82115 93.0963C0.166768 115.818 18.1817 133.833 40.9037 135.821L41.2523 131.836C20.4641 130.018 3.98236 113.536 2.16363 92.7477L-1.82115 93.0963ZM-2 84C-2 88.6009 -2.00192 91.0301 -1.82115 93.0963L2.16363 92.7477C2.00192 90.8993 2 88.6854 2 84H-2ZM-2 50V84H2V50H-2ZM-1.82115 40.9037C-2.00192 42.9699 -2 45.3991 -2 50H2C2 45.3146 2.00192 43.1006 2.16363 41.2523L-1.82115 40.9037ZM40.9037 -1.82115C18.1817 0.166768 0.166768 18.1817 -1.82115 40.9037L2.16363 41.2523C3.98236 20.4641 20.4641 3.98236 41.2523 2.16363L40.9037 -1.82115ZM50 -2C45.3991 -2 42.9699 -2.00192 40.9037 -1.82115L41.2523 2.16363C43.1006 2.00192 45.3146 2 50 2V-2ZM65.5306 116.006C67.5258 118.845 68.9524 120.878 69.8948 122.47C70.8608 124.101 71.1182 124.955 71.1261 125.475L75.1257 125.414C75.1009 123.779 74.3543 122.15 73.3367 120.432C72.2955 118.673 70.759 116.489 68.8033 113.707L65.5306 116.006ZM63.9985 135.133C67.747 134.404 70.4694 133.952 72.516 131.889L69.6763 129.072C68.6868 130.069 67.435 130.39 63.2353 131.206L63.9985 135.133ZM71.1261 125.475C71.1465 126.818 70.6224 128.118 69.6763 129.072L72.516 131.889C74.2201 130.171 75.1623 127.834 75.1257 125.414L71.1261 125.475ZM63.2353 2.79374C67.435 3.61002 68.6868 3.93049 69.6763 4.92789L72.516 2.11078C70.4694 0.0477548 67.747 -0.4042 63.9984 -1.13278L63.2353 2.79374ZM68.8033 20.2934C70.759 17.5105 72.2955 15.3267 73.3367 13.5684C74.3543 11.8499 75.1009 10.2211 75.1257 8.58565L71.1261 8.52505C71.1182 9.04481 70.8608 9.89915 69.8948 11.5303C68.9524 13.1219 67.5258 15.1545 65.5306 17.9935L68.8033 20.2934ZM69.6763 4.92789C70.6224 5.88152 71.1465 7.18192 71.1261 8.52505L75.1257 8.58565C75.1623 6.1663 74.2201 3.82853 72.516 2.11078L69.6763 4.92789Z" fill="url(#paint1_linear_1245_582)" mask="url(#path-1-inside-1_1245_582)"/>
</g>
<path d="M28 85.9338L28 84.9438H33.796V77.6718H28L28 76.6818H40.6V77.6718H34.678V84.9438H40.6V85.9338H28Z" fill="url(#paint2_linear_1245_582)"/>
<path d="M40.744 70.9679C40.744 71.9159 40.456 72.6839 39.88 73.2719C39.304 73.8479 38.542 74.1359 37.594 74.1359H34.804C33.808 74.1359 33.004 73.8479 32.392 73.2719C31.78 72.6839 31.474 71.9159 31.474 70.9679V69.4919C31.474 68.5799 31.774 67.8479 32.374 67.2959C32.962 66.7319 33.748 66.4499 34.732 66.4499H36.244V73.1639H37.594C38.278 73.1639 38.83 72.9659 39.25 72.5699C39.67 72.1619 39.88 71.6279 39.88 70.9679V69.5999C39.88 68.9519 39.694 68.4299 39.322 68.0339C38.938 67.6259 38.44 67.4219 37.828 67.4219V66.4859C38.704 66.4859 39.412 66.7739 39.952 67.3499C40.48 67.9139 40.744 68.6639 40.744 69.5999L40.744 70.9679ZM35.416 67.4039H34.732C34.012 67.4039 33.436 67.5959 33.004 67.9799C32.56 68.3639 32.338 68.8679 32.338 69.4919L32.338 70.9679C32.338 71.6279 32.566 72.1619 33.022 72.5699C33.478 72.9659 34.072 73.1639 34.804 73.1639H35.416L35.416 67.4039Z" fill="url(#paint3_linear_1245_582)"/>
<path d="M40.744 61.6113C40.744 62.4513 40.528 63.1233 40.096 63.6273C39.652 64.1313 39.064 64.3833 38.332 64.3833H37.648C36.916 64.3833 36.334 64.1253 35.902 63.6093C35.47 63.0933 35.254 62.4093 35.254 61.5573V60.3873C35.254 59.9793 35.32 59.5593 35.452 59.1273C35.584 58.6833 35.764 58.3053 35.992 57.9933H34.246C33.682 57.9933 33.22 58.1673 32.86 58.5153C32.5 58.8633 32.32 59.3133 32.32 59.8653V61.2693C32.32 61.8333 32.452 62.2893 32.716 62.6373C32.98 62.9853 33.334 63.1593 33.778 63.1593V64.1313C33.082 64.1313 32.524 63.8673 32.104 63.3393C31.684 62.8113 31.474 62.1213 31.474 61.2693V59.8653C31.474 59.0133 31.726 58.3353 32.23 57.8313C32.734 57.3153 33.406 57.0573 34.246 57.0573H40.6V57.9753H39.196C39.676 58.2873 40.054 58.6713 40.33 59.1273C40.606 59.5833 40.744 60.0453 40.744 60.5133V61.6113ZM39.88 60.4953C39.88 59.9913 39.7 59.5113 39.34 59.0553C38.98 58.5873 38.506 58.2333 37.918 57.9933H36.946C36.694 58.2573 36.49 58.6113 36.334 59.0553C36.178 59.4873 36.1 59.9313 36.1 60.3873V61.5573C36.1 62.1213 36.244 62.5713 36.532 62.9073C36.808 63.2433 37.18 63.4113 37.648 63.4113H38.332C38.8 63.4113 39.178 63.2493 39.466 62.9253C39.742 62.6013 39.88 62.1633 39.88 61.6113V60.4953Z" fill="url(#paint4_linear_1245_582)"/>
<path d="M40.744 51.698C40.744 52.586 40.438 53.306 39.826 53.858C39.202 54.41 38.386 54.686 37.378 54.686L34.966 54.686C33.922 54.686 33.082 54.398 32.446 53.822C31.798 53.234 31.474 52.466 31.474 51.518V50.15C31.474 49.73 31.588 49.322 31.816 48.926C32.032 48.518 32.326 48.194 32.698 47.954L28 47.954L28 47L40.6 47L40.6 47.936L39.088 47.936C39.604 48.236 40.012 48.608 40.312 49.052C40.6 49.484 40.744 49.94 40.744 50.42V51.698ZM39.88 50.438C39.88 49.874 39.634 49.352 39.142 48.872C38.638 48.392 38.032 48.086 37.324 47.954L34.408 47.954C33.796 48.074 33.298 48.338 32.914 48.746C32.53 49.154 32.338 49.628 32.338 50.168V51.5C32.338 52.172 32.578 52.712 33.058 53.12C33.538 53.516 34.174 53.714 34.966 53.714H37.378C38.122 53.714 38.728 53.528 39.196 53.156C39.652 52.772 39.88 52.28 39.88 51.68V50.438Z" fill="url(#paint5_linear_1245_582)"/>
<defs>
<linearGradient id="paint0_linear_1245_582" x1="66.8932" y1="18.0586" x2="-17.7005" y2="53.0169" gradientUnits="userSpaceOnUse">
<stop stop-color="#FCB433"/>
<stop offset="1" stop-color="#966B1E"/>
</linearGradient>
<linearGradient id="paint1_linear_1245_582" x1="66.7679" y1="18.0586" x2="-17.8513" y2="53.0423" gradientUnits="userSpaceOnUse">
<stop stop-color="#FCB433"/>
<stop offset="1" stop-color="#966B1E"/>
</linearGradient>
<linearGradient id="paint2_linear_1245_582" x1="39.6358" y1="52.2469" x2="23.3687" y2="56.2807" gradientUnits="userSpaceOnUse">
<stop stop-color="#FCB433"/>
<stop offset="1" stop-color="#966B1E"/>
</linearGradient>
<linearGradient id="paint3_linear_1245_582" x1="39.6358" y1="52.2469" x2="23.3687" y2="56.2807" gradientUnits="userSpaceOnUse">
<stop stop-color="#FCB433"/>
<stop offset="1" stop-color="#966B1E"/>
</linearGradient>
<linearGradient id="paint4_linear_1245_582" x1="39.6358" y1="52.2469" x2="23.3687" y2="56.2807" gradientUnits="userSpaceOnUse">
<stop stop-color="#FCB433"/>
<stop offset="1" stop-color="#966B1E"/>
</linearGradient>
<linearGradient id="paint5_linear_1245_582" x1="39.6358" y1="52.2469" x2="23.3687" y2="56.2807" gradientUnits="userSpaceOnUse">
<stop stop-color="#FCB433"/>
<stop offset="1" stop-color="#966B1E"/>
</linearGradient>
</defs>
</svg>
