<svg width="74" height="134" viewBox="0 0 74 134" fill="none" xmlns="http://www.w3.org/2000/svg">
<g opacity="0.7">
<mask id="path-1-inside-1_1245_583" fill="white">
<path fill-rule="evenodd" clip-rule="evenodd" d="M50 0C54.6432 0 56.9648 0 58.922 0.171239C60.5126 0.310397 62.0791 0.531582 63.6173 0.830558C67.5914 1.60302 69.5784 1.98925 71.0965 3.51946C72.4215 4.85515 73.1547 6.67423 73.1262 8.55546C73.0935 10.7107 71.1181 13.5216 67.1673 19.1435C62.7363 25.4487 59.8825 32.9487 59.1712 41.078C59 43.0353 59 45.3568 59 50V84C59 88.6431 59 90.9647 59.1712 92.922C59.8825 101.051 62.7363 108.551 67.1673 114.856C71.1181 120.478 73.0935 123.289 73.1262 125.445C73.1547 127.326 72.4215 129.145 71.0965 130.481C69.5784 132.011 67.5914 132.397 63.6173 133.169C62.0791 133.468 60.5126 133.69 58.922 133.829C56.9648 134 54.6432 134 50 134C45.3568 134 43.0353 134 41.078 133.829C19.3229 131.925 2.07457 114.677 0.171239 92.922C0 90.9647 0 88.6431 0 84V50C0 45.3568 0 43.0353 0.171239 41.078C2.07457 19.3229 19.3229 2.07457 41.078 0.171239C43.0353 0 45.3568 0 50 0Z"/>
</mask>
<path fill-rule="evenodd" clip-rule="evenodd" d="M50 0C54.6432 0 56.9648 0 58.922 0.171239C60.5126 0.310397 62.0791 0.531582 63.6173 0.830558C67.5914 1.60302 69.5784 1.98925 71.0965 3.51946C72.4215 4.85515 73.1547 6.67423 73.1262 8.55546C73.0935 10.7107 71.1181 13.5216 67.1673 19.1435C62.7363 25.4487 59.8825 32.9487 59.1712 41.078C59 43.0353 59 45.3568 59 50V84C59 88.6431 59 90.9647 59.1712 92.922C59.8825 101.051 62.7363 108.551 67.1673 114.856C71.1181 120.478 73.0935 123.289 73.1262 125.445C73.1547 127.326 72.4215 129.145 71.0965 130.481C69.5784 132.011 67.5914 132.397 63.6173 133.169C62.0791 133.468 60.5126 133.69 58.922 133.829C56.9648 134 54.6432 134 50 134C45.3568 134 43.0353 134 41.078 133.829C19.3229 131.925 2.07457 114.677 0.171239 92.922C0 90.9647 0 88.6431 0 84V50C0 45.3568 0 43.0353 0.171239 41.078C2.07457 19.3229 19.3229 2.07457 41.078 0.171239C43.0353 0 45.3568 0 50 0Z" fill="url(#paint0_linear_1245_583)" fill-opacity="0.15"/>
<path d="M58.922 0.171239L58.7477 2.16363L58.7477 2.16363L58.922 0.171239ZM59.1712 41.078L57.1788 40.9037L57.1788 40.9037L59.1712 41.078ZM59.1712 92.922L57.1788 93.0963L57.1788 93.0963L59.1712 92.922ZM58.922 133.829L59.0963 135.821L59.0963 135.821L58.922 133.829ZM41.078 133.829L40.9037 135.821L40.9037 135.821L41.078 133.829ZM0.171239 92.922L-1.82115 93.0963L-1.82115 93.0963L0.171239 92.922ZM0.171239 41.078L2.16363 41.2523L2.16363 41.2523L0.171239 41.078ZM41.078 0.171239L41.2523 2.16363L41.2523 2.16363L41.078 0.171239ZM73.1262 125.445L75.1259 125.414L73.1262 125.445ZM63.6173 133.169L63.2357 131.206L63.6173 133.169ZM71.0965 130.481L69.6766 129.072L71.0965 130.481ZM73.1262 8.55546L71.1264 8.52515L73.1262 8.55546ZM59.0963 -1.82115C57.0301 -2.00192 54.6009 -2 50 -2V2C54.6855 2 56.8994 2.00192 58.7477 2.16363L59.0963 -1.82115ZM63.9989 -1.1327C62.3924 -1.44496 60.7567 -1.67589 59.0963 -1.82115L58.7477 2.16363C60.2685 2.29668 61.7658 2.50812 63.2357 2.79382L63.9989 -1.1327ZM61.1636 41.2523C61.8434 33.4828 64.57 26.3178 68.8037 20.2934L65.531 17.9935C60.9026 24.5796 57.9215 32.4146 57.1788 40.9037L61.1636 41.2523ZM61 50C61 45.3146 61.0019 43.1006 61.1636 41.2523L57.1788 40.9037C56.9981 42.9699 57 45.3991 57 50H61ZM61 84V50H57V84H61ZM61.1636 92.7477C61.0019 90.8993 61 88.6854 61 84H57C57 88.6009 56.9981 91.0301 57.1788 93.0963L61.1636 92.7477ZM68.8037 113.707C64.57 107.682 61.8434 100.517 61.1636 92.7477L57.1788 93.0963C57.9215 101.585 60.9026 109.42 65.531 116.006L68.8037 113.707ZM59.0963 135.821C60.7567 135.676 62.3924 135.445 63.9989 135.133L63.2357 131.206C61.7658 131.492 60.2685 131.703 58.7477 131.836L59.0963 135.821ZM50 136C54.6009 136 57.0301 136.002 59.0963 135.821L58.7477 131.836C56.8994 131.998 54.6854 132 50 132V136ZM40.9037 135.821C42.9699 136.002 45.3991 136 50 136V132C45.3146 132 43.1006 131.998 41.2523 131.836L40.9037 135.821ZM-1.82115 93.0963C0.166768 115.818 18.1817 133.833 40.9037 135.821L41.2523 131.836C20.4641 130.018 3.98236 113.536 2.16363 92.7477L-1.82115 93.0963ZM-2 84C-2 88.6009 -2.00192 91.0301 -1.82115 93.0963L2.16363 92.7477C2.00192 90.8993 2 88.6854 2 84H-2ZM-2 50V84H2V50H-2ZM-1.82115 40.9037C-2.00192 42.9699 -2 45.3991 -2 50H2C2 45.3146 2.00192 43.1006 2.16363 41.2523L-1.82115 40.9037ZM40.9037 -1.82115C18.1817 0.166768 0.166768 18.1817 -1.82115 40.9037L2.16363 41.2523C3.98236 20.4641 20.4641 3.98236 41.2523 2.16363L40.9037 -1.82115ZM50 -2C45.3991 -2 42.9699 -2.00192 40.9037 -1.82115L41.2523 2.16363C43.1006 2.00192 45.3146 2 50 2V-2ZM65.531 116.006C67.5261 118.845 68.9527 120.878 69.8951 122.47C70.861 124.101 71.1185 124.955 71.1264 125.475L75.1259 125.414C75.1012 123.779 74.3546 122.15 73.337 120.431C72.2958 118.673 70.7594 116.489 68.8037 113.707L65.531 116.006ZM63.9989 135.133C67.7474 134.404 70.4697 133.952 72.5163 131.889L69.6766 129.072C68.6872 130.069 67.4354 130.39 63.2357 131.206L63.9989 135.133ZM71.1264 125.475C71.1468 126.818 70.6227 128.118 69.6766 129.072L72.5163 131.889C74.2204 130.171 75.1626 127.834 75.1259 125.414L71.1264 125.475ZM63.2357 2.79382C67.4354 3.61012 68.6872 3.93061 69.6766 4.92801L72.5163 2.11091C70.4697 0.0478847 67.7474 -0.404091 63.9989 -1.1327L63.2357 2.79382ZM68.8037 20.2934C70.7594 17.5105 72.2958 15.3267 73.337 13.5685C74.3546 11.85 75.1012 10.2212 75.1259 8.58577L71.1264 8.52515C71.1185 9.04491 70.861 9.89924 69.8951 11.5304C68.9527 13.1219 67.5261 15.1545 65.531 17.9935L68.8037 20.2934ZM69.6766 4.92801C70.6227 5.88164 71.1468 7.18203 71.1264 8.52515L75.1259 8.58577C75.1626 6.16643 74.2204 3.82866 72.5163 2.11091L69.6766 4.92801Z" fill="url(#paint1_linear_1245_583)" mask="url(#path-1-inside-1_1245_583)"/>
</g>
<path d="M43 54.7588C43 55.5332 42.7986 56.1702 42.3958 56.6698C42.0052 57.1694 41.4864 57.4504 40.8394 57.5129V56.5012C41.23 56.4512 41.5413 56.2701 41.7732 55.9578C42.0174 55.6331 42.1394 55.2334 42.1394 54.7588V53.2037C42.1394 52.5043 41.9136 51.961 41.462 51.5738C41.0225 51.1866 40.4061 50.993 39.6127 50.993H37.8183C38.2577 51.2927 38.6117 51.6737 38.8803 52.1358C39.1488 52.5855 39.2831 53.0414 39.2831 53.5035V54.8899C39.2831 55.8142 38.9718 56.5636 38.3493 57.1382C37.7268 57.7127 36.9028 58 35.8775 58H33.5155C32.4657 58 31.6174 57.7002 30.9704 57.1007C30.3235 56.4887 30 55.6831 30 54.6838V53.2974C30 52.8478 30.1221 52.4106 30.3662 51.9859C30.5981 51.5488 30.9094 51.2116 31.3 50.9742H30.1465V50H39.6127C40.6746 50 41.5047 50.281 42.1028 50.8431C42.7009 51.4052 43 52.192 43 53.2037V54.7588ZM38.4042 53.5223C38.4042 52.8977 38.1662 52.3544 37.6901 51.8923C37.2019 51.4176 36.6343 51.1179 35.9873 50.993H32.9479C32.3376 51.1054 31.8432 51.3802 31.4648 51.8173C31.0742 52.242 30.8789 52.7354 30.8789 53.2974V54.6651C30.8789 55.3646 31.123 55.9266 31.6113 56.3513C32.0995 56.776 32.7343 56.9883 33.5155 56.9883H35.8775C36.6221 56.9883 37.2324 56.7947 37.7085 56.4075C38.1723 56.0078 38.4042 55.4957 38.4042 54.8712V53.5223Z" fill="url(#paint2_linear_1245_583)"/>
<path d="M30.142 68V67.1057H31.6509C31.142 66.819 30.7396 66.4578 30.4438 66.0221C30.1479 65.5749 30 65.122 30 64.6634V63.5111C30 62.7658 30.2722 62.1638 30.8166 61.7052C31.3491 61.2351 32.0592 61 32.9467 61H39V61.9116H32.929C32.3136 61.9116 31.8166 62.0606 31.4379 62.3587C31.0473 62.6568 30.8521 63.0467 30.8521 63.5283V64.6462C30.8521 65.1622 31.071 65.6495 31.5089 66.1081C31.9467 66.5667 32.5148 66.8878 33.213 67.0713H39V68H30.142Z" fill="url(#paint3_linear_1245_583)"/>
<path d="M28.5869 70.9888C28.5869 71.2884 28.5156 71.5356 28.373 71.7303C28.2303 71.9101 28.0401 72 27.8024 72C27.5646 72 27.3744 71.9101 27.2318 71.7303C27.0773 71.5356 27 71.2884 27 70.9888C27 70.6891 27.0773 70.4494 27.2318 70.2697C27.3744 70.0899 27.5646 70 27.8024 70C28.0282 70 28.2184 70.0899 28.373 70.2697C28.5156 70.4494 28.5869 70.6891 28.5869 70.9888ZM30.1025 71.5955V70.4045H39V71.5955H30.1025Z" fill="url(#paint4_linear_1245_583)"/>
<path d="M27 84V78.2105C27 77.3567 27.2343 76.6725 27.7029 76.1579C28.16 75.6433 28.7714 75.386 29.5371 75.386H30.8743C31.48 75.386 32.0171 75.5848 32.4857 75.9825C32.9429 76.3801 33.2571 76.9123 33.4286 77.5789H33.4457C33.6171 77.2281 33.8971 76.9123 34.2857 76.6316C34.6743 76.3509 35.1314 76.1345 35.6571 75.9825L39 75V75.9825L35.6571 76.9649C35.0514 77.152 34.5714 77.4503 34.2171 77.8597C33.8629 78.2573 33.6857 78.7135 33.6857 79.2281V83.0351H39V84H27ZM32.8457 78.6491C32.8457 77.9591 32.6686 77.4035 32.3143 76.9825C31.9486 76.5614 31.4686 76.3509 30.8743 76.3509H29.5029C29 76.3509 28.6 76.5205 28.3029 76.8596C27.9943 77.1988 27.84 77.655 27.84 78.2281V83.0351H32.8457V78.6491Z" fill="url(#paint5_linear_1245_583)"/>
<defs>
<linearGradient id="paint0_linear_1245_583" x1="7.66363" y1="7.34246" x2="102.79" y2="59.4442" gradientUnits="userSpaceOnUse">
<stop stop-color="#727272"/>
<stop offset="1" stop-color="white"/>
</linearGradient>
<linearGradient id="paint1_linear_1245_583" x1="7.51305" y1="7.34246" x2="102.661" y2="59.4783" gradientUnits="userSpaceOnUse">
<stop stop-color="#727272"/>
<stop offset="1" stop-color="white"/>
</linearGradient>
<linearGradient id="paint2_linear_1245_583" x1="30.7123" y1="57.1781" x2="36.7644" y2="47.3832" gradientUnits="userSpaceOnUse">
<stop stop-color="#727272"/>
<stop offset="1" stop-color="white"/>
</linearGradient>
<linearGradient id="paint3_linear_1245_583" x1="30.4932" y1="67.2808" x2="36.2379" y2="59.9246" gradientUnits="userSpaceOnUse">
<stop stop-color="#727272"/>
<stop offset="1" stop-color="white"/>
</linearGradient>
<linearGradient id="paint4_linear_1245_583" x1="27.6575" y1="71.7945" x2="28.2083" y2="68.5031" gradientUnits="userSpaceOnUse">
<stop stop-color="#727272"/>
<stop offset="1" stop-color="white"/>
</linearGradient>
<linearGradient id="paint5_linear_1245_583" x1="27.6575" y1="83.0753" x2="34.9743" y2="73.3591" gradientUnits="userSpaceOnUse">
<stop stop-color="#727272"/>
<stop offset="1" stop-color="white"/>
</linearGradient>
</defs>
</svg>
