<svg width="74" height="134" viewBox="0 0 74 134" fill="none" xmlns="http://www.w3.org/2000/svg">
<g opacity="0.7">
<mask id="path-1-inside-1_1245_589" fill="white">
<path fill-rule="evenodd" clip-rule="evenodd" d="M50 0C54.6432 0 56.9648 0 58.922 0.171239C60.5126 0.310397 62.0791 0.531582 63.6173 0.830558C67.5914 1.60302 69.5784 1.98925 71.0965 3.51946C72.4215 4.85515 73.1547 6.67423 73.1262 8.55546C73.0935 10.7107 71.1181 13.5216 67.1673 19.1435C62.7363 25.4487 59.8825 32.9487 59.1712 41.078C59 43.0353 59 45.3568 59 50V84C59 88.6431 59 90.9647 59.1712 92.922C59.8825 101.051 62.7363 108.551 67.1673 114.856C71.1181 120.478 73.0935 123.289 73.1262 125.445C73.1547 127.326 72.4215 129.145 71.0965 130.481C69.5784 132.011 67.5914 132.397 63.6173 133.169C62.0791 133.468 60.5126 133.69 58.922 133.829C56.9648 134 54.6432 134 50 134C45.3568 134 43.0353 134 41.078 133.829C19.3229 131.925 2.07457 114.677 0.171239 92.922C0 90.9647 0 88.6431 0 84V50C0 45.3568 0 43.0353 0.171239 41.078C2.07457 19.3229 19.3229 2.07457 41.078 0.171239C43.0353 0 45.3568 0 50 0Z"/>
</mask>
<path fill-rule="evenodd" clip-rule="evenodd" d="M50 0C54.6432 0 56.9648 0 58.922 0.171239C60.5126 0.310397 62.0791 0.531582 63.6173 0.830558C67.5914 1.60302 69.5784 1.98925 71.0965 3.51946C72.4215 4.85515 73.1547 6.67423 73.1262 8.55546C73.0935 10.7107 71.1181 13.5216 67.1673 19.1435C62.7363 25.4487 59.8825 32.9487 59.1712 41.078C59 43.0353 59 45.3568 59 50V84C59 88.6431 59 90.9647 59.1712 92.922C59.8825 101.051 62.7363 108.551 67.1673 114.856C71.1181 120.478 73.0935 123.289 73.1262 125.445C73.1547 127.326 72.4215 129.145 71.0965 130.481C69.5784 132.011 67.5914 132.397 63.6173 133.169C62.0791 133.468 60.5126 133.69 58.922 133.829C56.9648 134 54.6432 134 50 134C45.3568 134 43.0353 134 41.078 133.829C19.3229 131.925 2.07457 114.677 0.171239 92.922C0 90.9647 0 88.6431 0 84V50C0 45.3568 0 43.0353 0.171239 41.078C2.07457 19.3229 19.3229 2.07457 41.078 0.171239C43.0353 0 45.3568 0 50 0Z" fill="url(#paint0_linear_1245_589)" fill-opacity="0.15"/>
<path d="M58.922 0.171239L58.7477 2.16363L58.7477 2.16363L58.922 0.171239ZM59.1712 41.078L57.1788 40.9037L57.1788 40.9037L59.1712 41.078ZM59.1712 92.922L57.1788 93.0963L57.1788 93.0963L59.1712 92.922ZM58.922 133.829L59.0963 135.821L59.0963 135.821L58.922 133.829ZM41.078 133.829L40.9037 135.821L40.9037 135.821L41.078 133.829ZM0.171239 92.922L-1.82115 93.0963L-1.82115 93.0963L0.171239 92.922ZM0.171239 41.078L2.16363 41.2523L2.16363 41.2523L0.171239 41.078ZM41.078 0.171239L41.2523 2.16363L41.2523 2.16363L41.078 0.171239ZM73.1262 125.445L75.1259 125.414L73.1262 125.445ZM63.6173 133.169L63.2357 131.206L63.6173 133.169ZM71.0965 130.481L69.6766 129.072L71.0965 130.481ZM73.1262 8.55546L71.1264 8.52515L73.1262 8.55546ZM59.0963 -1.82115C57.0301 -2.00192 54.6009 -2 50 -2V2C54.6855 2 56.8994 2.00192 58.7477 2.16363L59.0963 -1.82115ZM63.9989 -1.1327C62.3924 -1.44496 60.7567 -1.67589 59.0963 -1.82115L58.7477 2.16363C60.2685 2.29668 61.7658 2.50812 63.2357 2.79382L63.9989 -1.1327ZM61.1636 41.2523C61.8434 33.4828 64.57 26.3178 68.8037 20.2934L65.531 17.9935C60.9026 24.5796 57.9215 32.4146 57.1788 40.9037L61.1636 41.2523ZM61 50C61 45.3146 61.0019 43.1006 61.1636 41.2523L57.1788 40.9037C56.9981 42.9699 57 45.3991 57 50H61ZM61 84V50H57V84H61ZM61.1636 92.7477C61.0019 90.8993 61 88.6854 61 84H57C57 88.6009 56.9981 91.0301 57.1788 93.0963L61.1636 92.7477ZM68.8037 113.707C64.57 107.682 61.8434 100.517 61.1636 92.7477L57.1788 93.0963C57.9215 101.585 60.9026 109.42 65.531 116.006L68.8037 113.707ZM59.0963 135.821C60.7567 135.676 62.3924 135.445 63.9989 135.133L63.2357 131.206C61.7658 131.492 60.2685 131.703 58.7477 131.836L59.0963 135.821ZM50 136C54.6009 136 57.0301 136.002 59.0963 135.821L58.7477 131.836C56.8994 131.998 54.6854 132 50 132V136ZM40.9037 135.821C42.9699 136.002 45.3991 136 50 136V132C45.3146 132 43.1006 131.998 41.2523 131.836L40.9037 135.821ZM-1.82115 93.0963C0.166768 115.818 18.1817 133.833 40.9037 135.821L41.2523 131.836C20.4641 130.018 3.98236 113.536 2.16363 92.7477L-1.82115 93.0963ZM-2 84C-2 88.6009 -2.00192 91.0301 -1.82115 93.0963L2.16363 92.7477C2.00192 90.8993 2 88.6854 2 84H-2ZM-2 50V84H2V50H-2ZM-1.82115 40.9037C-2.00192 42.9699 -2 45.3991 -2 50H2C2 45.3146 2.00192 43.1006 2.16363 41.2523L-1.82115 40.9037ZM40.9037 -1.82115C18.1817 0.166768 0.166768 18.1817 -1.82115 40.9037L2.16363 41.2523C3.98236 20.4641 20.4641 3.98236 41.2523 2.16363L40.9037 -1.82115ZM50 -2C45.3991 -2 42.9699 -2.00192 40.9037 -1.82115L41.2523 2.16363C43.1006 2.00192 45.3146 2 50 2V-2ZM65.531 116.006C67.5261 118.845 68.9527 120.878 69.8951 122.47C70.861 124.101 71.1185 124.955 71.1264 125.475L75.1259 125.414C75.1012 123.779 74.3546 122.15 73.337 120.431C72.2958 118.673 70.7594 116.489 68.8037 113.707L65.531 116.006ZM63.9989 135.133C67.7474 134.404 70.4697 133.952 72.5163 131.889L69.6766 129.072C68.6872 130.069 67.4354 130.39 63.2357 131.206L63.9989 135.133ZM71.1264 125.475C71.1468 126.818 70.6227 128.118 69.6766 129.072L72.5163 131.889C74.2204 130.171 75.1626 127.834 75.1259 125.414L71.1264 125.475ZM63.2357 2.79382C67.4354 3.61012 68.6872 3.93061 69.6766 4.92801L72.5163 2.11091C70.4697 0.0478847 67.7474 -0.404091 63.9989 -1.1327L63.2357 2.79382ZM68.8037 20.2934C70.7594 17.5105 72.2958 15.3267 73.337 13.5685C74.3546 11.85 75.1012 10.2212 75.1259 8.58577L71.1264 8.52515C71.1185 9.04491 70.861 9.89924 69.8951 11.5304C68.9527 13.1219 67.5261 15.1545 65.531 17.9935L68.8037 20.2934ZM69.6766 4.92801C70.6227 5.88164 71.1468 7.18203 71.1264 8.52515L75.1259 8.58577C75.1626 6.16643 74.2204 3.82866 72.5163 2.11091L69.6766 4.92801Z" fill="url(#paint1_linear_1245_589)" mask="url(#path-1-inside-1_1245_589)"/>
</g>
<path d="M40.6 100.484C40.6 100.772 40.522 101 40.366 101.168C40.198 101.324 39.97 101.402 39.682 101.402H28L28 96.416C28 95.552 28.168 94.79 28.504 94.13C28.84 93.47 29.314 92.96 29.926 92.6C30.538 92.24 31.24 92.06 32.032 92.06L36.19 92.06C37.642 92.06 38.74 92.426 39.484 93.158C40.228 93.878 40.6 94.94 40.6 96.344L40.6 100.484ZM39.7 96.362C39.7 95.27 39.406 94.448 38.818 93.896C38.218 93.332 37.342 93.05 36.19 93.05H32.032C31.084 93.05 30.322 93.362 29.746 93.986C29.17 94.598 28.882 95.414 28.882 96.434L28.882 100.412H39.7V96.362Z" fill="url(#paint2_linear_1245_589)"/>
<path d="M30.088 88.7681C30.088 89.0081 30.016 89.2061 29.872 89.3621C29.728 89.5061 29.536 89.5781 29.296 89.5781C29.056 89.5781 28.864 89.5061 28.72 89.3621C28.564 89.2061 28.486 89.0081 28.486 88.7681C28.486 88.5281 28.564 88.3361 28.72 88.1921C28.864 88.0481 29.056 87.9761 29.296 87.9761C29.524 87.9761 29.716 88.0481 29.872 88.1921C30.016 88.3361 30.088 88.5281 30.088 88.7681ZM31.618 89.2541V88.3001H40.6V89.2541H31.618Z" fill="url(#paint3_linear_1245_589)"/>
<path d="M40.744 82.6694C40.744 83.5094 40.528 84.1814 40.096 84.6854C39.652 85.1894 39.064 85.4414 38.332 85.4414H37.648C36.916 85.4414 36.334 85.1834 35.902 84.6674C35.47 84.1514 35.254 83.4674 35.254 82.6154V81.4454C35.254 81.0374 35.32 80.6174 35.452 80.1854C35.584 79.7414 35.764 79.3634 35.992 79.0514L34.246 79.0514C33.682 79.0514 33.22 79.2254 32.86 79.5734C32.5 79.9214 32.32 80.3714 32.32 80.9234V82.3274C32.32 82.8914 32.452 83.3474 32.716 83.6954C32.98 84.0434 33.334 84.2174 33.778 84.2174V85.1894C33.082 85.1894 32.524 84.9254 32.104 84.3974C31.684 83.8694 31.474 83.1794 31.474 82.3274V80.9234C31.474 80.0714 31.726 79.3934 32.23 78.8894C32.734 78.3734 33.406 78.1154 34.246 78.1154H40.6V79.0334H39.196C39.676 79.3454 40.054 79.7294 40.33 80.1854C40.606 80.6414 40.744 81.1034 40.744 81.5714V82.6694ZM39.88 81.5534C39.88 81.0494 39.7 80.5694 39.34 80.1134C38.98 79.6454 38.506 79.2914 37.918 79.0514H36.946C36.694 79.3154 36.49 79.6694 36.334 80.1134C36.178 80.5454 36.1 80.9894 36.1 81.4454V82.6154C36.1 83.1794 36.244 83.6294 36.532 83.9654C36.808 84.3014 37.18 84.4694 37.648 84.4694H38.332C38.8 84.4694 39.178 84.3074 39.466 83.9834C39.742 83.6594 39.88 83.2214 39.88 82.6694V81.5534Z" fill="url(#paint4_linear_1245_589)"/>
<path d="M31.474 65.664C31.474 64.92 31.72 64.326 32.212 63.882C32.704 63.438 33.37 63.216 34.21 63.216H40.6V64.188H34.192C33.628 64.188 33.178 64.326 32.842 64.602C32.506 64.866 32.338 65.226 32.338 65.682V66.744C32.338 67.272 32.53 67.722 32.914 68.094C33.298 68.454 33.82 68.694 34.48 68.814H40.6V69.786L34.336 69.786C33.724 69.786 33.238 69.918 32.878 70.182C32.518 70.434 32.338 70.776 32.338 71.208V72.252C32.338 72.756 32.56 73.206 33.004 73.602C33.448 73.998 34.024 74.268 34.732 74.412H40.6L40.6 75.384H31.618L31.618 74.448H33.076C32.572 74.184 32.182 73.86 31.906 73.476C31.618 73.092 31.474 72.684 31.474 72.252V71.19C31.474 70.698 31.612 70.266 31.888 69.894C32.164 69.522 32.548 69.252 33.04 69.084C32.536 68.82 32.152 68.49 31.888 68.094C31.612 67.686 31.474 67.242 31.474 66.762V65.664Z" fill="url(#paint5_linear_1245_589)"/>
<path d="M40.744 57.6743C40.744 58.6223 40.456 59.3903 39.88 59.9783C39.304 60.5543 38.542 60.8423 37.594 60.8423H34.804C33.808 60.8423 33.004 60.5543 32.392 59.9783C31.78 59.3903 31.474 58.6223 31.474 57.6743V56.1983C31.474 55.2863 31.774 54.5543 32.374 54.0023C32.962 53.4383 33.748 53.1563 34.732 53.1563H36.244L36.244 59.8703H37.594C38.278 59.8703 38.83 59.6723 39.25 59.2763C39.67 58.8683 39.88 58.3343 39.88 57.6743V56.3063C39.88 55.6583 39.694 55.1363 39.322 54.7403C38.938 54.3323 38.44 54.1283 37.828 54.1283V53.1923C38.704 53.1923 39.412 53.4803 39.952 54.0563C40.48 54.6203 40.744 55.3703 40.744 56.3063V57.6743ZM35.416 54.1103H34.732C34.012 54.1103 33.436 54.3023 33.004 54.6863C32.56 55.0703 32.338 55.5743 32.338 56.1983V57.6743C32.338 58.3343 32.566 58.8683 33.022 59.2763C33.478 59.6723 34.072 59.8703 34.804 59.8703H35.416L35.416 54.1103Z" fill="url(#paint6_linear_1245_589)"/>
<path d="M40.6 47.4692C40.6 48.3812 40.408 49.0352 40.024 49.4312C39.628 49.8272 38.98 50.0252 38.08 50.0252H32.482L32.482 51.6092H31.618V50.0252H28.9L28.9 49.0712H31.618L31.618 46.7312H32.482V49.0712H38.08C38.668 49.0712 39.094 48.9512 39.358 48.7112C39.61 48.4712 39.736 48.0692 39.736 47.5052V46.7312H40.6V47.4692Z" fill="url(#paint7_linear_1245_589)"/>
<path d="M40.744 41.7224C40.744 42.6704 40.456 43.4384 39.88 44.0264C39.304 44.6024 38.542 44.8904 37.594 44.8904H34.804C33.808 44.8904 33.004 44.6024 32.392 44.0264C31.78 43.4384 31.474 42.6704 31.474 41.7224V40.2464C31.474 39.3344 31.774 38.6024 32.374 38.0504C32.962 37.4864 33.748 37.2044 34.732 37.2044H36.244L36.244 43.9184H37.594C38.278 43.9184 38.83 43.7204 39.25 43.3244C39.67 42.9164 39.88 42.3824 39.88 41.7224V40.3544C39.88 39.7064 39.694 39.1844 39.322 38.7884C38.938 38.3804 38.44 38.1764 37.828 38.1764V37.2404C38.704 37.2404 39.412 37.5284 39.952 38.1044C40.48 38.6684 40.744 39.4184 40.744 40.3544V41.7224ZM35.416 38.1584H34.732C34.012 38.1584 33.436 38.3504 33.004 38.7344C32.56 39.1184 32.338 39.6224 32.338 40.2464V41.7224C32.338 42.3824 32.566 42.9164 33.022 43.3244C33.478 43.7204 34.072 43.9184 34.804 43.9184H35.416L35.416 38.1584Z" fill="url(#paint8_linear_1245_589)"/>
<path d="M31.618 34.8318V33.8958L33.076 33.8958C32.62 33.6318 32.26 33.2538 31.996 32.7618C31.72 32.2698 31.582 31.7418 31.582 31.1778V30.5118L32.446 30.5118V31.1958C32.446 31.9758 32.698 32.6178 33.202 33.1218C33.706 33.6138 34.36 33.8598 35.164 33.8598L40.6 33.8598V34.8318L31.618 34.8318Z" fill="url(#paint9_linear_1245_589)"/>
<defs>
<linearGradient id="paint0_linear_1245_589" x1="7.66363" y1="7.34246" x2="102.79" y2="59.4442" gradientUnits="userSpaceOnUse">
<stop stop-color="#727272"/>
<stop offset="1" stop-color="white"/>
</linearGradient>
<linearGradient id="paint1_linear_1245_589" x1="7.51305" y1="7.34246" x2="102.661" y2="59.4783" gradientUnits="userSpaceOnUse">
<stop stop-color="#727272"/>
<stop offset="1" stop-color="white"/>
</linearGradient>
<linearGradient id="paint2_linear_1245_589" x1="29.3093" y1="34.3962" x2="50.1893" y2="38.1651" gradientUnits="userSpaceOnUse">
<stop stop-color="#727272"/>
<stop offset="1" stop-color="white"/>
</linearGradient>
<linearGradient id="paint3_linear_1245_589" x1="29.3093" y1="34.3962" x2="50.1893" y2="38.1651" gradientUnits="userSpaceOnUse">
<stop stop-color="#727272"/>
<stop offset="1" stop-color="white"/>
</linearGradient>
<linearGradient id="paint4_linear_1245_589" x1="29.3093" y1="34.3962" x2="50.1893" y2="38.1651" gradientUnits="userSpaceOnUse">
<stop stop-color="#727272"/>
<stop offset="1" stop-color="white"/>
</linearGradient>
<linearGradient id="paint5_linear_1245_589" x1="29.3093" y1="34.3962" x2="50.1893" y2="38.1651" gradientUnits="userSpaceOnUse">
<stop stop-color="#727272"/>
<stop offset="1" stop-color="white"/>
</linearGradient>
<linearGradient id="paint6_linear_1245_589" x1="29.3093" y1="34.3962" x2="50.1893" y2="38.1651" gradientUnits="userSpaceOnUse">
<stop stop-color="#727272"/>
<stop offset="1" stop-color="white"/>
</linearGradient>
<linearGradient id="paint7_linear_1245_589" x1="29.3093" y1="34.3962" x2="50.1893" y2="38.1651" gradientUnits="userSpaceOnUse">
<stop stop-color="#727272"/>
<stop offset="1" stop-color="white"/>
</linearGradient>
<linearGradient id="paint8_linear_1245_589" x1="29.3093" y1="34.3962" x2="50.1893" y2="38.1651" gradientUnits="userSpaceOnUse">
<stop stop-color="#727272"/>
<stop offset="1" stop-color="white"/>
</linearGradient>
<linearGradient id="paint9_linear_1245_589" x1="29.3093" y1="34.3962" x2="50.1893" y2="38.1651" gradientUnits="userSpaceOnUse">
<stop stop-color="#727272"/>
<stop offset="1" stop-color="white"/>
</linearGradient>
</defs>
</svg>
