<svg width="59" height="13" viewBox="0 0 59 13" fill="none" xmlns="http://www.w3.org/2000/svg">
<path d="M4.592 12.128C3.87733 12.128 3.24267 11.9573 2.688 11.616C2.144 11.2747 1.71733 10.8 1.408 10.192C1.10933 9.57333 0.96 8.864 0.96 8.064V4.736C0.96 3.936 1.10933 3.22667 1.408 2.608C1.71733 1.98933 2.14933 1.51467 2.704 1.184C3.26933 0.842666 3.92 0.672 4.656 0.672H6.352C7.04533 0.672 7.65333 0.821333 8.176 1.12C8.70933 1.41867 9.12 1.84 9.408 2.384C9.70667 2.928 9.856 3.552 9.856 4.256H8.704C8.704 3.49867 8.48533 2.89067 8.048 2.432C7.62133 1.96267 7.056 1.728 6.352 1.728H4.656C3.89867 1.728 3.29067 2.00533 2.832 2.56C2.37333 3.104 2.144 3.82933 2.144 4.736V8.064C2.144 8.97067 2.368 9.70133 2.816 10.256C3.264 10.8 3.856 11.072 4.592 11.072H6.32C7.04533 11.072 7.62667 10.816 8.064 10.304C8.512 9.792 8.736 9.12 8.736 8.288H9.888C9.888 9.04533 9.73867 9.71733 9.44 10.304C9.14133 10.88 8.72 11.328 8.176 11.648C7.64267 11.968 7.024 12.128 6.32 12.128H4.592ZM14.0825 12.128C13.3038 12.128 12.6798 11.9253 12.2105 11.52C11.7518 11.1147 11.5225 10.5707 11.5225 9.888V9.376C11.5225 8.704 11.7625 8.16533 12.2425 7.76C12.7225 7.35467 13.3572 7.152 14.1465 7.152H15.1705C15.5225 7.152 15.8852 7.20533 16.2585 7.312C16.6318 7.41867 16.9518 7.56267 17.2185 7.744V6.416C17.2185 5.968 17.0798 5.60533 16.8025 5.328C16.5252 5.04 16.1572 4.896 15.6985 4.896H14.4185C13.9598 4.896 13.5918 5.00267 13.3145 5.216C13.0372 5.42933 12.8985 5.712 12.8985 6.064H11.7465C11.7465 5.41333 11.9918 4.89067 12.4825 4.496C12.9732 4.09067 13.6185 3.888 14.4185 3.888H15.6985C16.4878 3.888 17.1225 4.12267 17.6025 4.592C18.0932 5.05067 18.3385 5.65867 18.3385 6.416V12H17.2505V10.88C17.0052 11.264 16.6798 11.568 16.2745 11.792C15.8798 12.016 15.4692 12.128 15.0425 12.128H14.0825ZM15.0745 11.12C15.5758 11.12 16.0238 10.9653 16.4185 10.656C16.8132 10.3467 17.0798 9.936 17.2185 9.424V8.832C17.0052 8.62933 16.7065 8.46933 16.3225 8.352C15.9492 8.224 15.5652 8.16 15.1705 8.16H14.1465C13.7092 8.16 13.3518 8.272 13.0745 8.496C12.8078 8.72 12.6745 9.01333 12.6745 9.376V9.888C12.6745 10.2613 12.8025 10.56 13.0585 10.784C13.3145 11.008 13.6558 11.12 14.0825 11.12H15.0745ZM29.4211 3.888C30.1251 3.888 30.6798 4.11733 31.0851 4.576C31.5011 5.024 31.7091 5.648 31.7091 6.448V12H30.5571V6.416C30.5571 5.94667 30.4505 5.57867 30.2371 5.312C30.0238 5.04533 29.7411 4.912 29.3891 4.912H28.4771C28.0185 4.912 27.6398 5.06667 27.3411 5.376C27.0425 5.68533 26.8505 6.12267 26.7651 6.688V12H25.6131V6.512C25.6131 6.01067 25.5118 5.62133 25.3091 5.344C25.1171 5.056 24.8505 4.912 24.5091 4.912H23.5971C23.1598 4.912 22.7758 5.104 22.4451 5.488C22.1145 5.872 21.9065 6.37333 21.8211 6.992V12H20.6691V4.016H21.7891V5.168C22.0025 4.76267 22.2691 4.448 22.5891 4.224C22.9091 4 23.2451 3.888 23.5971 3.888H24.5411C24.9891 3.888 25.3731 4 25.6931 4.224C26.0238 4.43733 26.2745 4.752 26.4451 5.168C26.6905 4.74133 26.9838 4.42133 27.3251 4.208C27.6665 3.99467 28.0398 3.888 28.4451 3.888H29.4211ZM36.7001 12.128C35.8041 12.128 35.0841 11.8667 34.5401 11.344C33.9961 10.8107 33.7241 10.1067 33.7241 9.232V6.944C33.7241 6.02667 33.9961 5.29067 34.5401 4.736C35.0841 4.17067 35.8041 3.888 36.7001 3.888H38.0121C38.8655 3.888 39.5535 4.16 40.0761 4.704C40.5988 5.248 40.8601 5.968 40.8601 6.864V8.272H34.8761V9.232C34.8761 9.78667 35.0415 10.24 35.3721 10.592C35.7135 10.9333 36.1561 11.104 36.7001 11.104H37.9161C38.4495 11.104 38.8815 10.96 39.2121 10.672C39.5428 10.3733 39.7081 9.97867 39.7081 9.488H40.8281C40.8281 10.2773 40.5615 10.9173 40.0281 11.408C39.4948 11.888 38.7908 12.128 37.9161 12.128H36.7001ZM39.7081 7.28V6.864C39.7081 6.27733 39.5535 5.808 39.2441 5.456C38.9348 5.09333 38.5241 4.912 38.0121 4.912H36.7001C36.1561 4.912 35.7135 5.09867 35.3721 5.472C35.0415 5.84533 34.8761 6.336 34.8761 6.944V7.28H39.7081ZM42.8723 4.016H43.9923V5.248C44.2056 4.87467 44.5256 4.57067 44.9523 4.336C45.3896 4.10133 45.8429 3.984 46.3123 3.984H47.0163V5.024H46.3123C45.6296 5.024 45.0749 5.24267 44.6483 5.68C44.2323 6.10667 44.0243 6.67733 44.0243 7.392V12H42.8723V4.016ZM50.6138 12.128C49.8351 12.128 49.2111 11.9253 48.7418 11.52C48.2831 11.1147 48.0538 10.5707 48.0538 9.888V9.376C48.0538 8.704 48.2938 8.16533 48.7738 7.76C49.2538 7.35467 49.8884 7.152 50.6778 7.152H51.7018C52.0538 7.152 52.4164 7.20533 52.7898 7.312C53.1631 7.41867 53.4831 7.56267 53.7498 7.744V6.416C53.7498 5.968 53.6111 5.60533 53.3338 5.328C53.0564 5.04 52.6884 4.896 52.2298 4.896H50.9498C50.4911 4.896 50.1231 5.00267 49.8458 5.216C49.5684 5.42933 49.4298 5.712 49.4298 6.064H48.2778C48.2778 5.41333 48.5231 4.89067 49.0138 4.496C49.5044 4.09067 50.1498 3.888 50.9498 3.888H52.2298C53.0191 3.888 53.6538 4.12267 54.1338 4.592C54.6244 5.05067 54.8698 5.65867 54.8698 6.416V12H53.7818V10.88C53.5364 11.264 53.2111 11.568 52.8058 11.792C52.4111 12.016 52.0004 12.128 51.5738 12.128H50.6138ZM51.6058 11.12C52.1071 11.12 52.5551 10.9653 52.9498 10.656C53.3444 10.3467 53.6111 9.936 53.7498 9.424V8.832C53.5364 8.62933 53.2378 8.46933 52.8538 8.352C52.4804 8.224 52.0964 8.16 51.7018 8.16H50.6778C50.2404 8.16 49.8831 8.272 49.6058 8.496C49.3391 8.72 49.2057 9.01333 49.2057 9.376V9.888C49.2057 10.2613 49.3338 10.56 49.5898 10.784C49.8458 11.008 50.1871 11.12 50.6138 11.12H51.6058ZM57.7444 6.128C57.4884 6.128 57.2804 6.048 57.1204 5.888C56.9604 5.728 56.8804 5.52 56.8804 5.264C56.8804 5.008 56.9604 4.8 57.1204 4.64C57.2804 4.48 57.4884 4.4 57.7444 4.4C58.0004 4.4 58.2084 4.48 58.3684 4.64C58.5284 4.8 58.6084 5.008 58.6084 5.264C58.6084 5.52 58.5284 5.728 58.3684 5.888C58.2084 6.048 58.0004 6.128 57.7444 6.128ZM57.7444 11.6C57.4884 11.6 57.2804 11.52 57.1204 11.36C56.9604 11.2 56.8804 10.992 56.8804 10.736C56.8804 10.48 56.9604 10.272 57.1204 10.112C57.2804 9.952 57.4884 9.872 57.7444 9.872C58.0004 9.872 58.2084 9.952 58.3684 10.112C58.5284 10.272 58.6084 10.48 58.6084 10.736C58.6084 10.992 58.5284 11.2 58.3684 11.36C58.2084 11.52 58.0004 11.6 57.7444 11.6Z" fill="url(#paint0_linear_703_626)"/>
<defs>
<linearGradient id="paint0_linear_703_626" x1="6.67808" y1="-1.12329" x2="12.9126" y2="24.3074" gradientUnits="userSpaceOnUse">
<stop stop-color="#727272"/>
<stop offset="1" stop-color="white"/>
</linearGradient>
</defs>
</svg>
