<svg width="53" height="13" viewBox="0 0 53 13" fill="none" xmlns="http://www.w3.org/2000/svg">
<path d="M1.32 12C0.989333 12 0.733333 11.9093 0.552 11.728C0.370667 11.5467 0.28 11.2907 0.28 10.96V0.799999H4.92C5.70933 0.799999 6.40267 0.954666 7 1.264C7.59733 1.56267 8.06133 1.99467 8.392 2.56C8.72267 3.11467 8.888 3.75467 8.888 4.48V8C8.888 9.312 8.55733 10.3093 7.896 10.992C7.23467 11.664 6.264 12 4.984 12H1.32ZM4.952 10.944C5.85867 10.944 6.54133 10.6987 7 10.208C7.46933 9.70667 7.704 8.97067 7.704 8V4.48C7.704 3.70133 7.44267 3.072 6.92 2.592C6.408 2.10133 5.73067 1.856 4.888 1.856H1.464V10.944H4.952ZM11.8613 2.816C11.6053 2.816 11.3973 2.736 11.2373 2.576C11.0773 2.416 10.9973 2.208 10.9973 1.952C10.9973 1.696 11.0773 1.488 11.2373 1.328C11.3973 1.168 11.6053 1.088 11.8613 1.088C12.1173 1.088 12.3253 1.168 12.4853 1.328C12.6453 1.488 12.7253 1.696 12.7253 1.952C12.7253 2.208 12.6453 2.416 12.4853 2.576C12.3253 2.736 12.1173 2.816 11.8613 2.816ZM11.2853 4.016H12.4373V12H11.2853V4.016ZM17.9215 12C17.4735 12 17.1482 11.728 16.9455 11.184L14.1935 4.016H15.4095L17.8735 10.736H17.8895L20.3535 4.016H21.5695L18.4655 12H17.9215ZM23.9081 2.816C23.6521 2.816 23.4441 2.736 23.2841 2.576C23.1241 2.416 23.0441 2.208 23.0441 1.952C23.0441 1.696 23.1241 1.488 23.2841 1.328C23.4441 1.168 23.6521 1.088 23.9081 1.088C24.1641 1.088 24.3721 1.168 24.5321 1.328C24.6921 1.488 24.7721 1.696 24.7721 1.952C24.7721 2.208 24.6921 2.416 24.5321 2.576C24.3721 2.736 24.1641 2.816 23.9081 2.816ZM23.3321 4.016H24.4841V12H23.3321V4.016ZM29.6804 12.128C29.1364 12.128 28.651 12 28.2244 11.744C27.7977 11.488 27.467 11.1307 27.2324 10.672C26.9977 10.2133 26.8804 9.68 26.8804 9.072V7.152C26.8804 6.512 27.003 5.94667 27.2484 5.456C27.4937 4.95467 27.8404 4.57067 28.2884 4.304C28.7364 4.02667 29.2484 3.888 29.8244 3.888H31.0084C31.371 3.888 31.7177 3.97333 32.0484 4.144C32.3897 4.31467 32.6617 4.54933 32.8644 4.848V0.799999H34.0164V12H32.8964V10.816C32.651 11.2107 32.331 11.5307 31.9364 11.776C31.5417 12.0107 31.1577 12.128 30.7844 12.128H29.6804ZM30.7524 11.104C31.0937 11.104 31.4244 10.9973 31.7444 10.784C32.0644 10.56 32.3257 10.272 32.5284 9.92C32.731 9.568 32.843 9.20533 32.8644 8.832V6.816C32.7897 6.25067 32.5764 5.792 32.2244 5.44C31.883 5.088 31.467 4.912 30.9764 4.912H29.8564C29.3124 4.912 28.8697 5.12 28.5284 5.536C28.1977 5.94133 28.0324 6.48 28.0324 7.152V9.072C28.0324 9.66933 28.187 10.16 28.4964 10.544C28.8164 10.9173 29.2217 11.104 29.7124 11.104H30.7524ZM39.1064 12.128C38.2104 12.128 37.4904 11.8667 36.9464 11.344C36.4024 10.8107 36.1304 10.1067 36.1304 9.232V6.944C36.1304 6.02667 36.4024 5.29067 36.9464 4.736C37.4904 4.17067 38.2104 3.888 39.1064 3.888H40.4184C41.2717 3.888 41.9597 4.16 42.4824 4.704C43.005 5.248 43.2664 5.968 43.2664 6.864V8.272H37.2824V9.232C37.2824 9.78667 37.4477 10.24 37.7784 10.592C38.1197 10.9333 38.5624 11.104 39.1064 11.104H40.3224C40.8557 11.104 41.2877 10.96 41.6184 10.672C41.949 10.3733 42.1144 9.97867 42.1144 9.488H43.2344C43.2344 10.2773 42.9677 10.9173 42.4344 11.408C41.901 11.888 41.197 12.128 40.3224 12.128H39.1064ZM42.1144 7.28V6.864C42.1144 6.27733 41.9597 5.808 41.6504 5.456C41.341 5.09333 40.9304 4.912 40.4184 4.912H39.1064C38.5624 4.912 38.1197 5.09867 37.7784 5.472C37.4477 5.84533 37.2824 6.336 37.2824 6.944V7.28H42.1144ZM45.2785 4.016H46.3985V5.248C46.6118 4.87467 46.9318 4.57067 47.3585 4.336C47.7958 4.10133 48.2492 3.984 48.7185 3.984H49.4225V5.024H48.7185C48.0358 5.024 47.4812 5.24267 47.0545 5.68C46.6385 6.10667 46.4305 6.67733 46.4305 7.392V12H45.2785V4.016ZM51.51 6.128C51.254 6.128 51.046 6.048 50.886 5.888C50.726 5.728 50.646 5.52 50.646 5.264C50.646 5.008 50.726 4.8 50.886 4.64C51.046 4.48 51.254 4.4 51.51 4.4C51.766 4.4 51.974 4.48 52.134 4.64C52.294 4.8 52.374 5.008 52.374 5.264C52.374 5.52 52.294 5.728 52.134 5.888C51.974 6.048 51.766 6.128 51.51 6.128ZM51.51 11.6C51.254 11.6 51.046 11.52 50.886 11.36C50.726 11.2 50.646 10.992 50.646 10.736C50.646 10.48 50.726 10.272 50.886 10.112C51.046 9.952 51.254 9.872 51.51 9.872C51.766 9.872 51.974 9.952 52.134 10.112C52.294 10.272 52.374 10.48 52.374 10.736C52.374 10.992 52.294 11.2 52.134 11.36C51.974 11.52 51.766 11.6 51.51 11.6Z" fill="url(#paint0_linear_703_631)"/>
<defs>
<linearGradient id="paint0_linear_703_631" x1="5.67808" y1="-1.12329" x2="11.9126" y2="24.3074" gradientUnits="userSpaceOnUse">
<stop stop-color="#727272"/>
<stop offset="1" stop-color="white"/>
</linearGradient>
</defs>
</svg>
