<svg width="70" height="16" viewBox="0 0 70 16" fill="none" xmlns="http://www.w3.org/2000/svg">
<path d="M1.32 12C0.989333 12 0.733333 11.9093 0.552 11.728C0.370667 11.536 0.28 11.2747 0.28 10.944V0.799999H7.8V1.824H1.464V5.76H7.32V6.784H1.464V10.976H7.8V12H1.32ZM11.8578 7.92L8.97775 4.016H10.2898L12.5138 7.024L14.7378 4.016H16.0498L13.1698 7.92L16.1778 12H14.8658L12.5138 8.816L10.1618 12H8.84975L11.8578 7.92ZM17.6535 4.016H18.7735V5.104C18.9975 4.74133 19.2908 4.448 19.6535 4.224C20.0268 4 20.4002 3.888 20.7735 3.888H21.9255C22.7788 3.888 23.4668 4.16 23.9895 4.704C24.5228 5.248 24.7895 5.968 24.7895 6.864V8.832C24.7895 9.824 24.5175 10.624 23.9735 11.232C23.4402 11.8293 22.7308 12.128 21.8455 12.128H20.6935C20.3628 12.128 20.0162 12.0373 19.6535 11.856C19.2908 11.664 19.0082 11.4187 18.8055 11.12V15.184H17.6535V4.016ZM21.8135 11.104C22.3682 11.104 22.8108 10.896 23.1415 10.48C23.4722 10.064 23.6375 9.51467 23.6375 8.832V6.864C23.6375 6.27733 23.4775 5.808 23.1575 5.456C22.8375 5.09333 22.4162 4.912 21.8935 4.912H20.7735C20.3255 4.912 19.9202 5.088 19.5575 5.44C19.1948 5.78133 18.9442 6.224 18.8055 6.768V9.168C18.8802 9.73333 19.0988 10.1973 19.4615 10.56C19.8242 10.9227 20.2562 11.104 20.7575 11.104H21.8135ZM29.5595 12.128C28.6635 12.128 27.9435 11.8507 27.3995 11.296C26.8555 10.7413 26.5835 10.0107 26.5835 9.104V6.912C26.5835 6.00533 26.8555 5.27467 27.3995 4.72C27.9542 4.16533 28.6848 3.888 29.5915 3.888H30.9035C31.8102 3.888 32.5355 4.16533 33.0795 4.72C33.6342 5.27467 33.9115 6.00533 33.9115 6.912V9.104C33.9115 10.0107 33.6342 10.7413 33.0795 11.296C32.5248 11.8507 31.7888 12.128 30.8715 12.128H29.5595ZM30.8715 11.104C31.4475 11.104 31.9062 10.9227 32.2475 10.56C32.5888 10.1867 32.7595 9.70133 32.7595 9.104V6.912C32.7595 6.31467 32.5888 5.83467 32.2475 5.472C31.9062 5.09867 31.4582 4.912 30.9035 4.912H29.5915C29.0368 4.912 28.5888 5.09867 28.2475 5.472C27.9062 5.83467 27.7355 6.31467 27.7355 6.912V9.104C27.7355 9.712 27.9008 10.1973 28.2315 10.56C28.5622 10.9227 29.0048 11.104 29.5595 11.104H30.8715ZM38.3005 12.128C37.4898 12.128 36.8392 11.8987 36.3485 11.44C35.8578 10.9813 35.6125 10.3787 35.6125 9.632H36.7325C36.7325 10.08 36.8765 10.4427 37.1645 10.72C37.4525 10.9973 37.8312 11.136 38.3005 11.136H39.6925C40.1512 11.136 40.5245 11.0453 40.8125 10.864C41.1005 10.672 41.2445 10.4267 41.2445 10.128V9.584C41.2445 9.38133 41.1645 9.20533 41.0045 9.056C40.8445 8.896 40.6365 8.78933 40.3805 8.736L37.6125 8.256C37.0578 8.16 36.6098 7.952 36.2685 7.632C35.9378 7.30133 35.7725 6.91733 35.7725 6.48V5.952C35.7725 5.33333 36.0072 4.83733 36.4765 4.464C36.9458 4.08 37.5645 3.888 38.3325 3.888H39.7085C40.4552 3.888 41.0578 4.10133 41.5165 4.528C41.9752 4.944 42.2045 5.49867 42.2045 6.192H41.0845C41.0738 5.79733 40.9405 5.48267 40.6845 5.248C40.4392 5.00267 40.1138 4.88 39.7085 4.88H38.3325C37.9058 4.88 37.5645 4.98133 37.3085 5.184C37.0525 5.376 36.9245 5.632 36.9245 5.952V6.416C36.9245 6.61867 37.0098 6.8 37.1805 6.96C37.3618 7.12 37.5912 7.22133 37.8685 7.264L40.6205 7.744C41.1538 7.84 41.5805 8.048 41.9005 8.368C42.2312 8.688 42.3965 9.072 42.3965 9.52V10.16C42.3965 10.7467 42.1458 11.2213 41.6445 11.584C41.1538 11.9467 40.5032 12.128 39.6925 12.128H38.3005ZM46.725 12.128C45.989 12.128 45.3917 11.8773 44.933 11.376C44.4743 10.8747 44.245 10.2187 44.245 9.408V4.016H45.397V9.44C45.397 9.94133 45.5197 10.3467 45.765 10.656C46.0103 10.9547 46.3303 11.104 46.725 11.104H47.717C48.2077 11.104 48.661 10.9067 49.077 10.512C49.493 10.1173 49.7597 9.62133 49.877 9.024V4.016H51.029V12H49.909V10.784C49.6637 11.168 49.3383 11.488 48.933 11.744C48.5277 12 48.133 12.128 47.749 12.128H46.725ZM56.122 12.128C55.226 12.128 54.506 11.8667 53.962 11.344C53.418 10.8107 53.146 10.1067 53.146 9.232V6.944C53.146 6.02667 53.418 5.29067 53.962 4.736C54.506 4.17067 55.226 3.888 56.122 3.888H57.434C58.2873 3.888 58.9753 4.16 59.498 4.704C60.0207 5.248 60.282 5.968 60.282 6.864V8.272H54.298V9.232C54.298 9.78667 54.4633 10.24 54.794 10.592C55.1353 10.9333 55.578 11.104 56.122 11.104H57.338C57.8713 11.104 58.3033 10.96 58.634 10.672C58.9647 10.3733 59.13 9.97867 59.13 9.488H60.25C60.25 10.2773 59.9833 10.9173 59.45 11.408C58.9167 11.888 58.2127 12.128 57.338 12.128H56.122ZM59.13 7.28V6.864C59.13 6.27733 58.9753 5.808 58.666 5.456C58.3567 5.09333 57.946 4.912 57.434 4.912H56.122C55.578 4.912 55.1353 5.09867 54.794 5.472C54.4633 5.84533 54.298 6.336 54.298 6.944V7.28H59.13ZM62.2941 4.016H63.4141V5.248C63.6275 4.87467 63.9475 4.57067 64.3741 4.336C64.8115 4.10133 65.2648 3.984 65.7341 3.984H66.4381V5.024H65.7341C65.0515 5.024 64.4968 5.24267 64.0701 5.68C63.6541 6.10667 63.4461 6.67733 63.4461 7.392V12H62.2941V4.016ZM68.5256 6.128C68.2696 6.128 68.0616 6.048 67.9016 5.888C67.7416 5.728 67.6616 5.52 67.6616 5.264C67.6616 5.008 67.7416 4.8 67.9016 4.64C68.0616 4.48 68.2696 4.4 68.5256 4.4C68.7816 4.4 68.9896 4.48 69.1496 4.64C69.3096 4.8 69.3896 5.008 69.3896 5.264C69.3896 5.52 69.3096 5.728 69.1496 5.888C68.9896 6.048 68.7816 6.128 68.5256 6.128ZM68.5256 11.6C68.2696 11.6 68.0616 11.52 67.9016 11.36C67.7416 11.2 67.6616 10.992 67.6616 10.736C67.6616 10.48 67.7416 10.272 67.9016 10.112C68.0616 9.952 68.2696 9.872 68.5256 9.872C68.7816 9.872 68.9896 9.952 69.1496 10.112C69.3096 10.272 69.3896 10.48 69.3896 10.736C69.3896 10.992 69.3096 11.2 69.1496 11.36C68.9896 11.52 68.7816 11.6 68.5256 11.6Z" fill="url(#paint0_linear_703_632)"/>
<defs>
<linearGradient id="paint0_linear_703_632" x1="6.39726" y1="-1.12329" x2="12.0853" y2="24.5769" gradientUnits="userSpaceOnUse">
<stop stop-color="#727272"/>
<stop offset="1" stop-color="white"/>
</linearGradient>
</defs>
</svg>
