<svg width="69" height="16" viewBox="0 0 69 16" fill="none" xmlns="http://www.w3.org/2000/svg">
<path d="M2.016 5.04H0.64V4.016H2.016V3.392C2.016 2.51733 2.24 1.856 2.688 1.408C3.136 0.959999 3.792 0.735999 4.656 0.735999H5.264V1.728H4.656C4.144 1.728 3.76533 1.86667 3.52 2.144C3.28533 2.41067 3.168 2.82667 3.168 3.392V4.016H5.088V5.04H3.168V12H2.016V5.04ZM9.20013 12.128C8.30413 12.128 7.58413 11.8667 7.04013 11.344C6.49613 10.8107 6.22413 10.1067 6.22413 9.232V6.944C6.22413 6.02667 6.49613 5.29067 7.04013 4.736C7.58413 4.17067 8.30413 3.888 9.20013 3.888H10.5121C11.3655 3.888 12.0535 4.16 12.5761 4.704C13.0988 5.248 13.3601 5.968 13.3601 6.864V8.272H7.37613V9.232C7.37613 9.78667 7.54146 10.24 7.87213 10.592C8.21346 10.9333 8.65613 11.104 9.20013 11.104H10.4161C10.9495 11.104 11.3815 10.96 11.7121 10.672C12.0428 10.3733 12.2081 9.97867 12.2081 9.488H13.3281C13.3281 10.2773 13.0615 10.9173 12.5281 11.408C11.9948 11.888 11.2908 12.128 10.4161 12.128H9.20013ZM12.2081 7.28V6.864C12.2081 6.27733 12.0535 5.808 11.7441 5.456C11.4348 5.09333 11.0241 4.912 10.5121 4.912H9.20013C8.65613 4.912 8.21346 5.09867 7.87213 5.472C7.54146 5.84533 7.37613 6.336 7.37613 6.944V7.28H12.2081ZM18.0283 12.128C17.1323 12.128 16.4123 11.8667 15.8683 11.344C15.3243 10.8107 15.0523 10.1067 15.0523 9.232V6.944C15.0523 6.02667 15.3243 5.29067 15.8683 4.736C16.4123 4.17067 17.1323 3.888 18.0283 3.888H19.3403C20.1936 3.888 20.8816 4.16 21.4043 4.704C21.9269 5.248 22.1883 5.968 22.1883 6.864V8.272H16.2043V9.232C16.2043 9.78667 16.3696 10.24 16.7003 10.592C17.0416 10.9333 17.4843 11.104 18.0283 11.104H19.2443C19.7776 11.104 20.2096 10.96 20.5403 10.672C20.8709 10.3733 21.0363 9.97867 21.0363 9.488H22.1562C22.1562 10.2773 21.8896 10.9173 21.3563 11.408C20.8229 11.888 20.1189 12.128 19.2443 12.128H18.0283ZM21.0363 7.28V6.864C21.0363 6.27733 20.8816 5.808 20.5723 5.456C20.2629 5.09333 19.8523 4.912 19.3403 4.912H18.0283C17.4843 4.912 17.0416 5.09867 16.7003 5.472C16.3696 5.84533 16.2043 6.336 16.2043 6.944V7.28H21.0363ZM26.6804 12.128C26.1364 12.128 25.651 12 25.2244 11.744C24.7977 11.488 24.467 11.1307 24.2324 10.672C23.9977 10.2133 23.8804 9.68 23.8804 9.072V7.152C23.8804 6.512 24.003 5.94667 24.2484 5.456C24.4937 4.95467 24.8404 4.57067 25.2884 4.304C25.7364 4.02667 26.2484 3.888 26.8244 3.888H28.0084C28.371 3.888 28.7177 3.97333 29.0484 4.144C29.3897 4.31467 29.6617 4.54933 29.8644 4.848V0.799999H31.0164V12H29.8964V10.816C29.651 11.2107 29.331 11.5307 28.9364 11.776C28.5417 12.0107 28.1577 12.128 27.7844 12.128H26.6804ZM27.7524 11.104C28.0937 11.104 28.4244 10.9973 28.7444 10.784C29.0644 10.56 29.3257 10.272 29.5284 9.92C29.731 9.568 29.843 9.20533 29.8644 8.832V6.816C29.7897 6.25067 29.5764 5.792 29.2244 5.44C28.883 5.088 28.467 4.912 27.9764 4.912H26.8564C26.3124 4.912 25.8697 5.12 25.5284 5.536C25.1977 5.94133 25.0324 6.48 25.0324 7.152V9.072C25.0324 9.66933 25.187 10.16 25.4964 10.544C25.8164 10.9173 26.2217 11.104 26.7124 11.104H27.7524ZM38.5666 2.816C38.3106 2.816 38.1026 2.736 37.9426 2.576C37.7826 2.416 37.7026 2.208 37.7026 1.952C37.7026 1.696 37.7826 1.488 37.9426 1.328C38.1026 1.168 38.3106 1.088 38.5666 1.088C38.8226 1.088 39.0306 1.168 39.1906 1.328C39.3506 1.488 39.4306 1.696 39.4306 1.952C39.4306 2.208 39.3506 2.416 39.1906 2.576C39.0306 2.736 38.8226 2.816 38.5666 2.816ZM35.8786 14.16H36.4386C36.9933 14.16 37.388 14.0107 37.6226 13.712C37.868 13.4133 37.9906 12.9227 37.9906 12.24V4.016H39.1426V12.16C39.1426 13.2373 38.9346 14.0107 38.5186 14.48C38.1026 14.9493 37.4093 15.184 36.4386 15.184H35.8786V14.16ZM44.1606 12.128C43.382 12.128 42.758 11.9253 42.2886 11.52C41.83 11.1147 41.6006 10.5707 41.6006 9.888V9.376C41.6006 8.704 41.8406 8.16533 42.3206 7.76C42.8006 7.35467 43.4353 7.152 44.2246 7.152H45.2486C45.6006 7.152 45.9633 7.20533 46.3366 7.312C46.71 7.41867 47.03 7.56267 47.2966 7.744V6.416C47.2966 5.968 47.158 5.60533 46.8806 5.328C46.6033 5.04 46.2353 4.896 45.7766 4.896H44.4966C44.038 4.896 43.67 5.00267 43.3926 5.216C43.1153 5.42933 42.9766 5.712 42.9766 6.064H41.8246C41.8246 5.41333 42.07 4.89067 42.5606 4.496C43.0513 4.09067 43.6966 3.888 44.4966 3.888H45.7766C46.566 3.888 47.2006 4.12267 47.6806 4.592C48.1713 5.05067 48.4166 5.65867 48.4166 6.416V12H47.3286V10.88C47.0833 11.264 46.758 11.568 46.3526 11.792C45.958 12.016 45.5473 12.128 45.1206 12.128H44.1606ZM45.1526 11.12C45.654 11.12 46.102 10.9653 46.4966 10.656C46.8913 10.3467 47.158 9.936 47.2966 9.424V8.832C47.0833 8.62933 46.7846 8.46933 46.4006 8.352C46.0273 8.224 45.6433 8.16 45.2486 8.16H44.2246C43.7873 8.16 43.43 8.272 43.1526 8.496C42.886 8.72 42.7526 9.01333 42.7526 9.376V9.888C42.7526 10.2613 42.8806 10.56 43.1366 10.784C43.3926 11.008 43.734 11.12 44.1606 11.12H45.1526ZM53.3393 12.128C52.4646 12.128 51.7606 11.8667 51.2273 11.344C50.6939 10.8107 50.4273 10.1067 50.4273 9.232V6.944C50.4273 6.02667 50.6939 5.29067 51.2273 4.736C51.7606 4.17067 52.4593 3.888 53.3233 3.888H54.6353C55.4566 3.888 56.1179 4.11733 56.6193 4.576C57.1206 5.03467 57.3713 5.63733 57.3713 6.384H56.2513C56.2513 5.94667 56.1019 5.59467 55.8033 5.328C55.5153 5.05067 55.1259 4.912 54.6353 4.912H53.3233C52.8006 4.912 52.3793 5.09867 52.0593 5.472C51.7393 5.84533 51.5793 6.336 51.5793 6.944V9.232C51.5793 9.79733 51.7393 10.2507 52.0593 10.592C52.3899 10.9333 52.8166 11.104 53.3393 11.104H54.6513C55.1526 11.104 55.5526 10.928 55.8513 10.576C56.1606 10.224 56.3153 9.75467 56.3153 9.168H57.4353C57.4353 10.0533 57.1793 10.768 56.6673 11.312C56.1553 11.856 55.4833 12.128 54.6513 12.128H53.3393ZM64.7174 12L61.5814 8.224L60.4774 9.328V12H59.3254V0.799999H60.4774V7.92L64.4294 4.016H65.8374L62.3814 7.44L66.0934 12H64.7174ZM68.0413 6.128C67.7853 6.128 67.5773 6.048 67.4173 5.888C67.2573 5.728 67.1773 5.52 67.1773 5.264C67.1773 5.008 67.2573 4.8 67.4173 4.64C67.5773 4.48 67.7853 4.4 68.0413 4.4C68.2973 4.4 68.5053 4.48 68.6653 4.64C68.8253 4.8 68.9053 5.008 68.9053 5.264C68.9053 5.52 68.8253 5.728 68.6653 5.888C68.5053 6.048 68.2973 6.128 68.0413 6.128ZM68.0413 11.6C67.7853 11.6 67.5773 11.52 67.4173 11.36C67.2573 11.2 67.1773 10.992 67.1773 10.736C67.1773 10.48 67.2573 10.272 67.4173 10.112C67.5773 9.952 67.7853 9.872 68.0413 9.872C68.2973 9.872 68.5053 9.952 68.6653 10.112C68.8253 10.272 68.9053 10.48 68.9053 10.736C68.9053 10.992 68.8253 11.2 68.6653 11.36C68.5053 11.52 68.2973 11.6 68.0413 11.6Z" fill="url(#paint0_linear_703_624)"/>
<defs>
<linearGradient id="paint0_linear_703_624" x1="8.21918" y1="-1.12329" x2="13.3842" y2="24.807" gradientUnits="userSpaceOnUse">
<stop stop-color="#727272"/>
<stop offset="1" stop-color="white"/>
</linearGradient>
</defs>
</svg>
