<svg width="46" height="13" viewBox="0 0 46 13" fill="none" xmlns="http://www.w3.org/2000/svg">
<path d="M0.28 0.799999H7.64V1.856H1.464V5.952H7.048V7.008H1.464V12H0.28V0.799999ZM11.4501 12.128C10.5541 12.128 9.83413 11.8507 9.29013 11.296C8.74613 10.7413 8.47413 10.0107 8.47413 9.104V6.912C8.47413 6.00533 8.74613 5.27467 9.29013 4.72C9.84479 4.16533 10.5755 3.888 11.4821 3.888H12.7941C13.7008 3.888 14.4261 4.16533 14.9701 4.72C15.5248 5.27467 15.8021 6.00533 15.8021 6.912V9.104C15.8021 10.0107 15.5248 10.7413 14.9701 11.296C14.4155 11.8507 13.6795 12.128 12.7621 12.128H11.4501ZM12.7621 11.104C13.3381 11.104 13.7968 10.9227 14.1381 10.56C14.4795 10.1867 14.6501 9.70133 14.6501 9.104V6.912C14.6501 6.31467 14.4795 5.83467 14.1381 5.472C13.7968 5.09867 13.3488 4.912 12.7941 4.912H11.4821C10.9275 4.912 10.4795 5.09867 10.1381 5.472C9.79679 5.83467 9.62613 6.31467 9.62613 6.912V9.104C9.62613 9.712 9.79146 10.1973 10.1221 10.56C10.4528 10.9227 10.8955 11.104 11.4501 11.104H12.7621ZM20.5111 12.128C19.6365 12.128 18.9325 11.8667 18.3991 11.344C17.8658 10.8107 17.5991 10.1067 17.5991 9.232V6.944C17.5991 6.02667 17.8658 5.29067 18.3991 4.736C18.9325 4.17067 19.6311 3.888 20.4951 3.888H21.8071C22.6285 3.888 23.2898 4.11733 23.7911 4.576C24.2925 5.03467 24.5431 5.63733 24.5431 6.384H23.4231C23.4231 5.94667 23.2738 5.59467 22.9751 5.328C22.6871 5.05067 22.2978 4.912 21.8071 4.912H20.4951C19.9725 4.912 19.5511 5.09867 19.2311 5.472C18.9111 5.84533 18.7511 6.336 18.7511 6.944V9.232C18.7511 9.79733 18.9111 10.2507 19.2311 10.592C19.5618 10.9333 19.9885 11.104 20.5111 11.104H21.8231C22.3245 11.104 22.7245 10.928 23.0231 10.576C23.3325 10.224 23.4871 9.75467 23.4871 9.168H24.6071C24.6071 10.0533 24.3511 10.768 23.8391 11.312C23.3271 11.856 22.6551 12.128 21.8231 12.128H20.5111ZM28.8813 12.128C28.1453 12.128 27.5479 11.8773 27.0893 11.376C26.6306 10.8747 26.4013 10.2187 26.4013 9.408V4.016H27.5533V9.44C27.5533 9.94133 27.6759 10.3467 27.9213 10.656C28.1666 10.9547 28.4866 11.104 28.8813 11.104H29.8733C30.3639 11.104 30.8173 10.9067 31.2333 10.512C31.6493 10.1173 31.9159 9.62133 32.0333 9.024V4.016H33.1853V12H32.0653V10.784C31.8199 11.168 31.4946 11.488 31.0893 11.744C30.6839 12 30.2893 12.128 29.9053 12.128H28.8813ZM37.8943 12.128C37.0836 12.128 36.4329 11.8987 35.9423 11.44C35.4516 10.9813 35.2063 10.3787 35.2063 9.632H36.3263C36.3263 10.08 36.4703 10.4427 36.7582 10.72C37.0463 10.9973 37.4249 11.136 37.8943 11.136H39.2863C39.7449 11.136 40.1183 11.0453 40.4063 10.864C40.6943 10.672 40.8383 10.4267 40.8383 10.128V9.584C40.8383 9.38133 40.7583 9.20533 40.5983 9.056C40.4383 8.896 40.2303 8.78933 39.9743 8.736L37.2063 8.256C36.6516 8.16 36.2036 7.952 35.8623 7.632C35.5316 7.30133 35.3663 6.91733 35.3663 6.48V5.952C35.3663 5.33333 35.6009 4.83733 36.0703 4.464C36.5396 4.08 37.1583 3.888 37.9263 3.888H39.3023C40.0489 3.888 40.6516 4.10133 41.1103 4.528C41.5689 4.944 41.7983 5.49867 41.7983 6.192H40.6783C40.6676 5.79733 40.5343 5.48267 40.2783 5.248C40.0329 5.00267 39.7076 4.88 39.3023 4.88H37.9263C37.4996 4.88 37.1583 4.98133 36.9023 5.184C36.6463 5.376 36.5182 5.632 36.5182 5.952V6.416C36.5182 6.61867 36.6036 6.8 36.7743 6.96C36.9556 7.12 37.1849 7.22133 37.4623 7.264L40.2143 7.744C40.7476 7.84 41.1743 8.048 41.4943 8.368C41.8249 8.688 41.9903 9.072 41.9903 9.52V10.16C41.9903 10.7467 41.7396 11.2213 41.2383 11.584C40.7476 11.9467 40.0969 12.128 39.2863 12.128H37.8943ZM44.4788 6.128C44.2228 6.128 44.0148 6.048 43.8548 5.888C43.6948 5.728 43.6148 5.52 43.6148 5.264C43.6148 5.008 43.6948 4.8 43.8548 4.64C44.0148 4.48 44.2228 4.4 44.4788 4.4C44.7348 4.4 44.9428 4.48 45.1028 4.64C45.2628 4.8 45.3428 5.008 45.3428 5.264C45.3428 5.52 45.2628 5.728 45.1028 5.888C44.9428 6.048 44.7348 6.128 44.4788 6.128ZM44.4788 11.6C44.2228 11.6 44.0148 11.52 43.8548 11.36C43.6948 11.2 43.6148 10.992 43.6148 10.736C43.6148 10.48 43.6948 10.272 43.8548 10.112C44.0148 9.952 44.2228 9.872 44.4788 9.872C44.7348 9.872 44.9428 9.952 45.1028 10.112C45.2628 10.272 45.3428 10.48 45.3428 10.736C45.3428 10.992 45.2628 11.2 45.1028 11.36C44.9428 11.52 44.7348 11.6 44.4788 11.6Z" fill="url(#paint0_linear_703_635)"/>
<defs>
<linearGradient id="paint0_linear_703_635" x1="4.03425" y1="-1.12329" x2="11.963" y2="23.2573" gradientUnits="userSpaceOnUse">
<stop stop-color="#727272"/>
<stop offset="1" stop-color="white"/>
</linearGradient>
</defs>
</svg>
