<svg width="59" height="13" viewBox="0 0 59 13" fill="none" xmlns="http://www.w3.org/2000/svg">
<path d="M4.704 12.128C3.968 12.128 3.31733 11.9627 2.752 11.632C2.18667 11.3013 1.744 10.832 1.424 10.224C1.11467 9.616 0.96 8.912 0.96 8.112V4.688C0.96 3.888 1.11467 3.184 1.424 2.576C1.744 1.968 2.18667 1.49867 2.752 1.168C3.31733 0.837333 3.97333 0.672 4.72 0.672H6.416C7.16267 0.672 7.81867 0.837333 8.384 1.168C8.94933 1.49867 9.38667 1.968 9.696 2.576C10.016 3.184 10.176 3.888 10.176 4.688V8.112C10.176 8.912 10.016 9.616 9.696 10.224C9.38667 10.8213 8.944 11.2907 8.368 11.632C7.80267 11.9627 7.152 12.128 6.416 12.128H4.704ZM6.384 11.072C7.16267 11.072 7.792 10.8 8.272 10.256C8.752 9.712 8.992 8.99733 8.992 8.112V4.688C8.992 3.80267 8.752 3.088 8.272 2.544C7.792 2 7.16267 1.728 6.384 1.728H4.752C3.97333 1.728 3.344 2 2.864 2.544C2.384 3.088 2.144 3.80267 2.144 4.688V8.112C2.144 8.99733 2.37867 9.712 2.848 10.256C3.328 10.8 3.95733 11.072 4.736 11.072H6.384ZM12.4206 0.799999H13.5406L19.7486 10.128V0.799999H20.9006V12H19.7806L13.5726 2.736V12H12.4206V0.799999ZM28.7795 0.447999H29.9315L23.9155 12.4H22.7635L28.7795 0.447999ZM34.4696 12.128C33.7336 12.128 33.083 11.9627 32.5176 11.632C31.9523 11.3013 31.5096 10.832 31.1896 10.224C30.8803 9.616 30.7256 8.912 30.7256 8.112V4.688C30.7256 3.888 30.8803 3.184 31.1896 2.576C31.5096 1.968 31.9523 1.49867 32.5176 1.168C33.083 0.837333 33.739 0.672 34.4856 0.672H36.1816C36.9283 0.672 37.5843 0.837333 38.1496 1.168C38.715 1.49867 39.1523 1.968 39.4616 2.576C39.7816 3.184 39.9416 3.888 39.9416 4.688V8.112C39.9416 8.912 39.7816 9.616 39.4616 10.224C39.1523 10.8213 38.7096 11.2907 38.1336 11.632C37.5683 11.9627 36.9176 12.128 36.1816 12.128H34.4696ZM36.1496 11.072C36.9283 11.072 37.5576 10.8 38.0376 10.256C38.5176 9.712 38.7576 8.99733 38.7576 8.112V4.688C38.7576 3.80267 38.5176 3.088 38.0376 2.544C37.5576 2 36.9283 1.728 36.1496 1.728H34.5176C33.739 1.728 33.1096 2 32.6296 2.544C32.1496 3.088 31.9096 3.80267 31.9096 4.688V8.112C31.9096 8.99733 32.1443 9.712 32.6136 10.256C33.0936 10.8 33.723 11.072 34.5016 11.072H36.1496ZM42.1863 0.799999H49.5463V1.856H43.3703V5.952H48.9543V7.008H43.3703V12H42.1863V0.799999ZM51.405 0.799999H58.765V1.856H52.589V5.952H58.173V7.008H52.589V12H51.405V0.799999Z" fill="url(#paint0_linear_703_634)"/>
<defs>
<linearGradient id="paint0_linear_703_634" x1="6.67808" y1="-1.12329" x2="12.9126" y2="24.3074" gradientUnits="userSpaceOnUse">
<stop stop-color="#727272"/>
<stop offset="1" stop-color="white"/>
</linearGradient>
</defs>
</svg>
