<svg width="31" height="13" viewBox="0 0 31 13" fill="none" xmlns="http://www.w3.org/2000/svg">
<path d="M0.28 0.799999H5.704C6.536 0.799999 7.20267 1.03467 7.704 1.504C8.216 1.97333 8.472 2.592 8.472 3.36V5.008C8.472 5.82933 8.2 6.496 7.656 7.008C7.112 7.50933 6.39733 7.76 5.512 7.76H1.464V12H0.28V0.799999ZM5.48 6.704C6.024 6.704 6.46133 6.54933 6.792 6.24C7.12267 5.92 7.288 5.49867 7.288 4.976V3.328C7.288 2.89067 7.13867 2.53867 6.84 2.272C6.552 1.99467 6.16267 1.856 5.672 1.856H1.464V6.704H5.48ZM11.3044 12C10.9737 12 10.7177 11.9093 10.5364 11.728C10.355 11.5467 10.2644 11.2907 10.2644 10.96V0.799999H11.4484V10.944H17.5284V12H11.3044ZM22.1076 12.128C21.393 12.128 20.7583 11.9573 20.2036 11.616C19.6596 11.2747 19.233 10.8 18.9236 10.192C18.625 9.57333 18.4756 8.864 18.4756 8.064V4.736C18.4756 3.936 18.625 3.22667 18.9236 2.608C19.233 1.98933 19.665 1.51467 20.2196 1.184C20.785 0.842666 21.4356 0.672 22.1716 0.672H23.8676C24.561 0.672 25.169 0.821333 25.6916 1.12C26.225 1.41867 26.6356 1.84 26.9236 2.384C27.2223 2.928 27.3716 3.552 27.3716 4.256H26.2196C26.2196 3.49867 26.001 2.89067 25.5636 2.432C25.137 1.96267 24.5716 1.728 23.8676 1.728H22.1716C21.4143 1.728 20.8063 2.00533 20.3476 2.56C19.889 3.104 19.6596 3.82933 19.6596 4.736V8.064C19.6596 8.97067 19.8836 9.70133 20.3316 10.256C20.7796 10.8 21.3716 11.072 22.1076 11.072H23.8356C24.561 11.072 25.1423 10.816 25.5796 10.304C26.0276 9.792 26.2516 9.12 26.2516 8.288H27.4036C27.4036 9.04533 27.2543 9.71733 26.9556 10.304C26.657 10.88 26.2356 11.328 25.6916 11.648C25.1583 11.968 24.5396 12.128 23.8356 12.128H22.1076ZM29.8381 6.128C29.5821 6.128 29.3741 6.048 29.2141 5.888C29.0541 5.728 28.9741 5.52 28.9741 5.264C28.9741 5.008 29.0541 4.8 29.2141 4.64C29.3741 4.48 29.5821 4.4 29.8381 4.4C30.0941 4.4 30.3021 4.48 30.4621 4.64C30.6221 4.8 30.7021 5.008 30.7021 5.264C30.7021 5.52 30.6221 5.728 30.4621 5.888C30.3021 6.048 30.0941 6.128 29.8381 6.128ZM29.8381 11.6C29.5821 11.6 29.3741 11.52 29.2141 11.36C29.0541 11.2 28.9741 10.992 28.9741 10.736C28.9741 10.48 29.0541 10.272 29.2141 10.112C29.3741 9.952 29.5821 9.872 29.8381 9.872C30.0941 9.872 30.3021 9.952 30.4621 10.112C30.6221 10.272 30.7021 10.48 30.7021 10.736C30.7021 10.992 30.6221 11.2 30.4621 11.36C30.3021 11.52 30.0941 11.6 29.8381 11.6Z" fill="url(#paint0_linear_703_630)"/>
<defs>
<linearGradient id="paint0_linear_703_630" x1="2.59589" y1="-1.12329" x2="12.7627" y2="21.207" gradientUnits="userSpaceOnUse">
<stop stop-color="#727272"/>
<stop offset="1" stop-color="white"/>
</linearGradient>
</defs>
</svg>
