<svg width="70" height="14" viewBox="0 0 70 14" fill="none" xmlns="http://www.w3.org/2000/svg">
<path d="M64.7096 14C63.5995 14 62.7002 13.6893 62.0117 13.068C61.3372 12.4466 61 11.6246 61 10.6019V7.59223C61 6.5178 61.3372 5.65048 62.0117 4.99029C62.7002 4.3301 63.5995 4 64.7096 4H66.4379C67.5059 4 68.363 4.32362 69.0094 4.97087C69.6698 5.60518 70 6.45307 70 7.51456V9.14563H62.1382V10.6019C62.1382 11.3398 62.37 11.9353 62.8337 12.3883C63.3115 12.8414 63.9368 13.068 64.7096 13.068H66.3115C67.0703 13.068 67.6815 12.8673 68.1452 12.466C68.623 12.0518 68.8618 11.5146 68.8618 10.8544H69.9578C69.9578 11.7994 69.6206 12.5631 68.9461 13.1456C68.2857 13.7152 67.4075 14 66.3115 14H64.7096ZM68.8829 8.25243V7.51456C68.8829 6.73786 68.6581 6.1165 68.2084 5.65049C67.7588 5.17152 67.1686 4.93204 66.4379 4.93204H64.7096C63.9368 4.93204 63.3115 5.17799 62.8337 5.6699C62.37 6.16181 62.1382 6.80259 62.1382 7.59223V8.25243H68.8829Z" fill="#FCB433"/>
<path d="M54.121 14C53.186 14 52.4288 13.7346 51.8494 13.2039C51.2831 12.6602 51 11.9482 51 11.068H52.0272C52.0272 11.6634 52.2181 12.1489 52.6 12.5243C52.9951 12.8997 53.5021 13.0874 54.121 13.0874H55.8198C56.465 13.0874 56.9786 12.9579 57.3605 12.699C57.7556 12.4401 57.9531 12.1036 57.9531 11.6893V10.932C57.9531 10.6472 57.8412 10.3948 57.6173 10.1748C57.4066 9.95469 57.13 9.8123 56.7877 9.74757L53.3506 9.16505C52.7054 9.06149 52.1852 8.82201 51.7901 8.4466C51.4082 8.05825 51.2173 7.60518 51.2173 7.08738V6.42718C51.2173 5.70227 51.4872 5.11974 52.0272 4.67961C52.5802 4.22654 53.3045 4 54.2 4H55.879C56.7482 4 57.4461 4.24595 57.9728 4.73786C58.5128 5.22977 58.7827 5.87702 58.7827 6.67961H57.7556C57.7292 6.14887 57.5449 5.72168 57.2025 5.39806C56.8733 5.07443 56.4321 4.91262 55.879 4.91262H54.2C53.6206 4.91262 53.1531 5.05502 52.7975 5.33981C52.442 5.61165 52.2642 5.97411 52.2642 6.42718V7.04854C52.2642 7.34628 52.3827 7.61165 52.6198 7.84466C52.8568 8.06472 53.1663 8.20065 53.5482 8.25243L56.9852 8.83495C57.591 8.93851 58.0782 9.17799 58.4469 9.5534C58.8156 9.9288 59 10.3754 59 10.8932V11.7087C59 12.3948 58.7103 12.9515 58.1309 13.3786C57.5514 13.7929 56.7811 14 55.8198 14H54.121Z" fill="#FCB433"/>
<path d="M44 4.03992H45.0833V5.65669C45.3889 5.15103 45.8264 4.75183 46.3958 4.45908C46.9653 4.15303 47.5764 4 48.2292 4H49V4.95808H48.2083C47.3056 4.95808 46.5625 5.23753 45.9792 5.79641C45.4097 6.35529 45.125 7.08051 45.125 7.97206V14H44V4.03992Z" fill="#FCB433"/>
<path d="M36.7096 14C35.5995 14 34.7002 13.6893 34.0117 13.068C33.3372 12.4466 33 11.6246 33 10.6019V7.59223C33 6.5178 33.3372 5.65048 34.0117 4.99029C34.7002 4.3301 35.5995 4 36.7096 4H38.4379C39.5059 4 40.363 4.32362 41.0094 4.97087C41.6698 5.60518 42 6.45307 42 7.51456V9.14563H34.1382V10.6019C34.1382 11.3398 34.37 11.9353 34.8337 12.3883C35.3115 12.8414 35.9368 13.068 36.7096 13.068H38.3115C39.0703 13.068 39.6815 12.8673 40.1452 12.466C40.623 12.0518 40.8618 11.5146 40.8618 10.8544H41.9578C41.9578 11.7994 41.6206 12.5631 40.9461 13.1456C40.2857 13.7152 39.4075 14 38.3115 14H36.7096ZM40.8829 8.25243V7.51456C40.8829 6.73786 40.6581 6.1165 40.2084 5.65049C39.7588 5.17152 39.1686 4.93204 38.4379 4.93204H36.7096C35.9368 4.93204 35.3115 5.17799 34.8337 5.6699C34.37 6.16181 34.1382 6.80259 34.1382 7.59223V8.25243H40.8829Z" fill="#FCB433"/>
<path d="M27.5611 14C27.3167 14 27.1131 13.9399 26.9502 13.8196C26.8009 13.686 26.6719 13.479 26.5633 13.1984L23 4H24.1606L27.5 12.8577H27.5204L30.8597 4H32L28.0905 14H27.5611Z" fill="#FCB433"/>
<path d="M16.7096 14C15.5995 14 14.7002 13.6893 14.0117 13.068C13.3372 12.4466 13 11.6246 13 10.6019V7.59223C13 6.5178 13.3372 5.65048 14.0117 4.99029C14.7002 4.3301 15.5995 4 16.7096 4H18.4379C19.5059 4 20.363 4.32362 21.0094 4.97087C21.6698 5.60518 22 6.45307 22 7.51456V9.14563H14.1382V10.6019C14.1382 11.3398 14.37 11.9353 14.8337 12.3883C15.3115 12.8414 15.9368 13.068 16.7096 13.068H18.3115C19.0703 13.068 19.6815 12.8673 20.1452 12.466C20.623 12.0518 20.8618 11.5146 20.8618 10.8544H21.9578C21.9578 11.7994 21.6206 12.5631 20.9461 13.1456C20.2857 13.7152 19.4075 14 18.3115 14H16.7096ZM20.8829 8.25243V7.51456C20.8829 6.73786 20.6581 6.1165 20.2084 5.65049C19.7588 5.17152 19.1686 4.93204 18.4379 4.93204H16.7096C15.9368 4.93204 15.3115 5.17799 14.8337 5.6699C14.37 6.16181 14.1382 6.80259 14.1382 7.59223V8.25243H20.8829Z" fill="#FCB433"/>
<path d="M0 0H6.43275C7.38142 0 8.14165 0.273333 8.71345 0.82C9.28525 1.35333 9.57115 2.06667 9.57115 2.96V4.52C9.57115 5.22667 9.35023 5.85333 8.90838 6.4C8.46654 6.93333 7.87524 7.3 7.1345 7.5V7.52C7.52437 7.72 7.87524 8.04667 8.18713 8.5C8.49902 8.95333 8.73944 9.48667 8.90838 10.1L10 14H8.90838L7.81676 10.1C7.60884 9.39333 7.27745 8.83333 6.82261 8.42C6.38077 8.00667 5.87394 7.8 5.30214 7.8H1.07212V14H0V0ZM5.94542 6.82C6.71215 6.82 7.32943 6.61333 7.79727 6.2C8.26511 5.77333 8.49902 5.21333 8.49902 4.52V2.92C8.49902 2.33333 8.31059 1.86667 7.93372 1.52C7.55685 1.16 7.05003 0.98 6.41326 0.98H1.07212V6.82H5.94542Z" fill="#FCB433"/>
</svg>
