<svg width="87" height="156" viewBox="0 0 87 156" fill="none" xmlns="http://www.w3.org/2000/svg">
<g opacity="0.7">
<mask id="path-1-inside-1_703_683" fill="white">
<path fill-rule="evenodd" clip-rule="evenodd" d="M58.5 3.05183e-05C71.0507 3.10532e-05 77.3261 3.30116e-05 82.505 1.24339C87.1438 2.35706 87.348 8.42864 83.8105 11.6294C77.2097 17.6018 72.4003 25.5107 70.2434 34.495C69 39.6739 69 45.9493 69 58.5L69 97.5C69 110.051 69 116.326 70.2434 121.505C72.4003 130.489 77.2097 138.398 83.8105 144.371C87.348 147.571 87.1438 153.643 82.505 154.757C77.3261 156 71.0507 156 58.5 156C45.9493 156 39.6739 156 34.495 154.757C18.0408 150.806 5.19366 137.959 1.24335 121.505C-8.43209e-07 116.326 -5.61887e-07 110.051 7.56596e-10 97.5L1.74911e-06 58.5C2.31175e-06 45.9493 4.37164e-06 39.6739 1.24336 34.495C5.19366 18.0408 18.0408 5.19369 34.495 1.24338C39.6739 2.97159e-05 45.9493 2.99834e-05 58.5 3.05183e-05Z"/>
</mask>
<path fill-rule="evenodd" clip-rule="evenodd" d="M58.5 3.05183e-05C71.0507 3.10532e-05 77.3261 3.30116e-05 82.505 1.24339C87.1438 2.35706 87.348 8.42864 83.8105 11.6294C77.2097 17.6018 72.4003 25.5107 70.2434 34.495C69 39.6739 69 45.9493 69 58.5L69 97.5C69 110.051 69 116.326 70.2434 121.505C72.4003 130.489 77.2097 138.398 83.8105 144.371C87.348 147.571 87.1438 153.643 82.505 154.757C77.3261 156 71.0507 156 58.5 156C45.9493 156 39.6739 156 34.495 154.757C18.0408 150.806 5.19366 137.959 1.24335 121.505C-8.43209e-07 116.326 -5.61887e-07 110.051 7.56596e-10 97.5L1.74911e-06 58.5C2.31175e-06 45.9493 4.37164e-06 39.6739 1.24336 34.495C5.19366 18.0408 18.0408 5.19369 34.495 1.24338C39.6739 2.97159e-05 45.9493 2.99834e-05 58.5 3.05183e-05Z" fill="url(#paint0_linear_703_683)" fill-opacity="0.15"/>
<path d="M70.2434 34.495L72.1881 34.9619L70.2434 34.495ZM69 58.5H71H69ZM69 97.5H67H69ZM70.2434 121.505L72.1881 121.038L70.2434 121.505ZM34.495 154.757L34.9618 152.812L34.495 154.757ZM1.24335 121.505L3.18809 121.038L1.24335 121.505ZM7.56596e-10 97.5H2H7.56596e-10ZM1.74911e-06 58.5H-2H1.74911e-06ZM1.24336 34.495L-0.701383 34.0281L-0.701383 34.0281L1.24336 34.495ZM34.495 1.24338L34.0281 -0.701357V-0.701357L34.495 1.24338ZM83.8105 144.371L82.4686 145.854L83.8105 144.371ZM83.8105 11.6294L82.4686 10.1463L83.8105 11.6294ZM82.9719 -0.701355C77.5048 -2.0139 70.9352 -1.99997 58.5 -1.99997V2.00003C71.1663 2.00003 77.1474 2.01396 82.0382 3.18813L82.9719 -0.701355ZM72.1881 34.9619C74.2492 26.3769 78.8444 18.8199 85.1523 13.1124L82.4686 10.1463C75.575 16.3837 70.5514 24.6444 68.2986 34.0281L72.1881 34.9619ZM71 58.5C71 45.8338 71.0139 39.8526 72.1881 34.9619L68.2986 34.0281C66.9861 39.4952 67 46.0648 67 58.5H71ZM71 97.5L71 58.5H67L67 97.5H71ZM72.1881 121.038C71.0139 116.147 71 110.166 71 97.5H67C67 109.935 66.9861 116.505 68.2986 121.972L72.1881 121.038ZM85.1523 142.888C78.8444 137.18 74.2492 129.623 72.1881 121.038L68.2986 121.972C70.5514 131.356 75.575 139.616 82.4686 145.854L85.1523 142.888ZM58.5 158C70.9352 158 77.5048 158.014 82.9719 156.701L82.0381 152.812C77.1474 153.986 71.1662 154 58.5 154V158ZM34.0281 156.701C39.4952 158.014 46.0648 158 58.5 158V154C45.8337 154 39.8526 153.986 34.9618 152.812L34.0281 156.701ZM-0.701387 121.972C3.42449 139.157 16.8426 152.576 34.0281 156.701L34.9618 152.812C19.2389 149.037 6.96283 136.761 3.18809 121.038L-0.701387 121.972ZM-2 97.5C-2 109.935 -2.01393 116.505 -0.701387 121.972L3.18809 121.038C2.01393 116.147 2 110.166 2 97.5H-2ZM-2 58.5L-2 97.5H2L2 58.5H-2ZM-0.701383 34.0281C-2.01393 39.4952 -2 46.0648 -2 58.5H2C2 45.8338 2.01393 39.8526 3.1881 34.9619L-0.701383 34.0281ZM34.0281 -0.701357C16.8426 3.42452 3.42449 16.8426 -0.701383 34.0281L3.1881 34.9619C6.96283 19.239 19.239 6.96286 34.9619 3.18812L34.0281 -0.701357ZM58.5 -1.99997C46.0648 -1.99997 39.4952 -2.0139 34.0281 -0.701357L34.9619 3.18812C39.8526 2.01396 45.8338 2.00003 58.5 2.00003V-1.99997ZM82.4686 145.854C83.7735 147.034 84.3631 148.736 84.2322 150.164C84.1088 151.509 83.3939 152.486 82.0381 152.812L82.9719 156.701C86.2549 155.913 87.9615 153.298 88.2155 150.529C88.462 147.842 87.385 144.908 85.1523 142.888L82.4686 145.854ZM82.0382 3.18813C83.394 3.51363 84.1088 4.49101 84.2322 5.83642C84.3631 7.26353 83.7735 8.9657 82.4686 10.1463L85.1523 13.1124C87.385 11.0923 88.462 8.15834 88.2155 5.47105C87.9615 2.70207 86.2549 0.0868232 82.9719 -0.701355L82.0382 3.18813Z" fill="url(#paint1_linear_703_683)" mask="url(#path-1-inside-1_703_683)"/>
</g>
<defs>
<linearGradient id="paint0_linear_703_683" x1="8.86131" y1="8.54797" x2="120.404" y2="70.4691" gradientUnits="userSpaceOnUse">
<stop stop-color="#727272"/>
<stop offset="1" stop-color="white"/>
</linearGradient>
<linearGradient id="paint1_linear_703_683" x1="8.86131" y1="8.54797" x2="120.404" y2="70.4691" gradientUnits="userSpaceOnUse">
<stop stop-color="#727272"/>
<stop offset="1" stop-color="white"/>
</linearGradient>
</defs>
</svg>
