<svg width="33" height="13" viewBox="0 0 33 13" fill="none" xmlns="http://www.w3.org/2000/svg">
<path d="M3.672 12.128C2.98933 12.128 2.38667 11.9787 1.864 11.68C1.34133 11.3707 0.936 10.9387 0.648 10.384C0.36 9.81867 0.216 9.17333 0.216 8.448V0.799999H1.4V8.48C1.4 9.25867 1.608 9.888 2.024 10.368C2.44 10.8373 2.98933 11.072 3.672 11.072H5.4C6.08267 11.072 6.632 10.8373 7.048 10.368C7.464 9.888 7.672 9.25867 7.672 8.48V0.799999H8.856V8.448C8.856 9.17333 8.712 9.81867 8.424 10.384C8.136 10.9387 7.73067 11.3707 7.208 11.68C6.68533 11.9787 6.08267 12.128 5.4 12.128H3.672ZM11.3581 0.799999H16.7821C17.6141 0.799999 18.2808 1.03467 18.7821 1.504C19.2941 1.97333 19.5501 2.592 19.5501 3.36V5.008C19.5501 5.82933 19.2781 6.496 18.7341 7.008C18.1901 7.50933 17.4755 7.76 16.5901 7.76H12.5421V12H11.3581V0.799999ZM16.5581 6.704C17.1021 6.704 17.5395 6.54933 17.8701 6.24C18.2008 5.92 18.3661 5.49867 18.3661 4.976V3.328C18.3661 2.89067 18.2168 2.53867 17.9181 2.272C17.6301 1.99467 17.2408 1.856 16.7501 1.856H12.5421V6.704H16.5581ZM24.2065 12.128C23.5665 12.128 23.0012 11.9947 22.5105 11.728C22.0198 11.4507 21.6358 11.0667 21.3585 10.576C21.0918 10.0747 20.9585 9.49867 20.9585 8.848H22.1105C22.1105 9.50933 22.3025 10.048 22.6865 10.464C23.0812 10.8693 23.5985 11.072 24.2385 11.072H26.0145C26.6438 11.072 27.1505 10.9333 27.5345 10.656C27.9185 10.368 28.1105 9.99467 28.1105 9.536V8.512C28.1105 8.14933 27.9665 7.84 27.6785 7.584C27.4012 7.328 27.0172 7.16267 26.5265 7.088L23.6465 6.608C22.8358 6.46933 22.2065 6.18133 21.7585 5.744C21.3105 5.30667 21.0865 4.75733 21.0865 4.096V3.232C21.0865 2.45333 21.3745 1.83467 21.9505 1.376C22.5372 0.906666 23.3105 0.672 24.2705 0.672H26.0785C26.9852 0.672 27.7158 0.949333 28.2705 1.504C28.8252 2.048 29.1025 2.768 29.1025 3.664H27.9505C27.9505 3.07733 27.7798 2.608 27.4385 2.256C27.0972 1.904 26.6438 1.728 26.0785 1.728H24.2705C23.6625 1.728 23.1772 1.86667 22.8145 2.144C22.4518 2.41067 22.2705 2.77333 22.2705 3.232V4.096C22.2705 4.46933 22.4038 4.784 22.6705 5.04C22.9478 5.296 23.3265 5.46667 23.8065 5.552L26.6705 6.048C27.5025 6.19733 28.1478 6.48533 28.6065 6.912C29.0652 7.328 29.2945 7.86133 29.2945 8.512V9.536C29.2945 10.3147 28.9958 10.944 28.3985 11.424C27.8012 11.8933 27.0172 12.128 26.0465 12.128H24.2065ZM31.8538 6.128C31.5978 6.128 31.3898 6.048 31.2298 5.888C31.0698 5.728 30.9898 5.52 30.9898 5.264C30.9898 5.008 31.0698 4.8 31.2298 4.64C31.3898 4.48 31.5978 4.4 31.8538 4.4C32.1098 4.4 32.3178 4.48 32.4778 4.64C32.6378 4.8 32.7178 5.008 32.7178 5.264C32.7178 5.52 32.6378 5.728 32.4778 5.888C32.3178 6.048 32.1098 6.128 31.8538 6.128ZM31.8538 11.6C31.5978 11.6 31.3898 11.52 31.2298 11.36C31.0698 11.2 30.9898 10.992 30.9898 10.736C30.9898 10.48 31.0698 10.272 31.2298 10.112C31.3898 9.952 31.5978 9.872 31.8538 9.872C32.1098 9.872 32.3178 9.952 32.4778 10.112C32.6378 10.272 32.7178 10.48 32.7178 10.736C32.7178 10.992 32.6378 11.2 32.4778 11.36C32.3178 11.52 32.1098 11.6 31.8538 11.6Z" fill="url(#paint0_linear_703_625)"/>
<defs>
<linearGradient id="paint0_linear_703_625" x1="2.59589" y1="-1.12329" x2="12.7627" y2="21.207" gradientUnits="userSpaceOnUse">
<stop stop-color="#727272"/>
<stop offset="1" stop-color="white"/>
</linearGradient>
</defs>
</svg>
