<svg width="114" height="13" viewBox="0 0 114 13" fill="none" xmlns="http://www.w3.org/2000/svg">
<path d="M3.504 12C3.20533 12 2.97067 11.92 2.8 11.76C2.62933 11.5893 2.512 11.3227 2.448 10.96L0.544 0.799999H1.712L3.456 10.464H3.472L6.288 1.392H6.784C6.976 1.392 7.13067 1.45067 7.248 1.568C7.36533 1.67467 7.46133 1.84533 7.536 2.08L10.032 10.464H10.048L11.792 0.799999H12.96L11.056 10.96C10.992 11.3227 10.8747 11.5893 10.704 11.76C10.5333 11.92 10.2987 12 10 12H9.52L6.8 2.976H6.784L3.984 12H3.504ZM14.716 0.799999H15.868V5.12C16.1133 4.74667 16.428 4.448 16.812 4.224C17.196 4 17.5853 3.888 17.98 3.888H19.1C19.836 3.888 20.428 4.13867 20.876 4.64C21.3347 5.14133 21.564 5.79733 21.564 6.608V12H20.412V6.576C20.412 6.08533 20.2893 5.68533 20.044 5.376C19.7987 5.06667 19.4733 4.912 19.068 4.912H18.012C17.5107 4.912 17.052 5.10933 16.636 5.504C16.2307 5.888 15.9747 6.384 15.868 6.992V12H14.716V0.799999ZM24.7675 2.816C24.5115 2.816 24.3035 2.736 24.1435 2.576C23.9835 2.416 23.9035 2.208 23.9035 1.952C23.9035 1.696 23.9835 1.488 24.1435 1.328C24.3035 1.168 24.5115 1.088 24.7675 1.088C25.0235 1.088 25.2315 1.168 25.3915 1.328C25.5515 1.488 25.6315 1.696 25.6315 1.952C25.6315 2.208 25.5515 2.416 25.3915 2.576C25.2315 2.736 25.0235 2.816 24.7675 2.816ZM24.1915 4.016H25.3435V12H24.1915V4.016ZM31.1958 12C30.3531 12 29.7451 11.8187 29.3718 11.456C29.0091 11.0933 28.8278 10.496 28.8278 9.664V5.04H27.4198V4.016H28.8278V1.6H29.9798V4.016H32.0598V5.04H29.9798V9.664C29.9798 10.1333 30.0704 10.4693 30.2518 10.672C30.4438 10.8747 30.7584 10.976 31.1958 10.976H32.0598V12H31.1958ZM36.5751 12.128C35.6791 12.128 34.9591 11.8667 34.4151 11.344C33.8711 10.8107 33.5991 10.1067 33.5991 9.232V6.944C33.5991 6.02667 33.8711 5.29067 34.4151 4.736C34.9591 4.17067 35.6791 3.888 36.5751 3.888H37.8871C38.7405 3.888 39.4285 4.16 39.9511 4.704C40.4738 5.248 40.7351 5.968 40.7351 6.864V8.272H34.7511V9.232C34.7511 9.78667 34.9165 10.24 35.2471 10.592C35.5885 10.9333 36.0311 11.104 36.5751 11.104H37.7911C38.3245 11.104 38.7565 10.96 39.0871 10.672C39.4178 10.3733 39.5831 9.97867 39.5831 9.488H40.7031C40.7031 10.2773 40.4365 10.9173 39.9031 11.408C39.3698 11.888 38.6658 12.128 37.7911 12.128H36.5751ZM39.5831 7.28V6.864C39.5831 6.27733 39.4285 5.808 39.1191 5.456C38.8098 5.09333 38.3991 4.912 37.8871 4.912H36.5751C36.0311 4.912 35.5885 5.09867 35.2471 5.472C34.9165 5.84533 34.7511 6.336 34.7511 6.944V7.28H39.5831ZM47.7675 2.816C47.5115 2.816 47.3035 2.736 47.1435 2.576C46.9835 2.416 46.9035 2.208 46.9035 1.952C46.9035 1.696 46.9835 1.488 47.1435 1.328C47.3035 1.168 47.5115 1.088 47.7675 1.088C48.0235 1.088 48.2315 1.168 48.3915 1.328C48.5515 1.488 48.6315 1.696 48.6315 1.952C48.6315 2.208 48.5515 2.416 48.3915 2.576C48.2315 2.736 48.0235 2.816 47.7675 2.816ZM47.1915 4.016H48.3435V12H47.1915V4.016ZM51.0598 4.016H52.1798V5.2C52.4251 4.816 52.7451 4.50133 53.1398 4.256C53.5344 4.01067 53.9291 3.888 54.3238 3.888H55.4118C56.1478 3.888 56.7398 4.13867 57.1878 4.64C57.6464 5.14133 57.8758 5.79733 57.8758 6.608V12H56.7238V6.576C56.7238 6.08533 56.6011 5.68533 56.3558 5.376C56.1104 5.06667 55.7851 4.912 55.3798 4.912H54.3558C53.8544 4.912 53.3958 5.10933 52.9798 5.504C52.5744 5.89867 52.3184 6.40533 52.2118 7.024V12H51.0598V4.016ZM62.696 12.128C62.152 12.128 61.6667 12 61.24 11.744C60.8133 11.488 60.4827 11.1307 60.248 10.672C60.0133 10.2133 59.896 9.68 59.896 9.072V7.152C59.896 6.512 60.0187 5.94667 60.264 5.456C60.5093 4.95467 60.856 4.57067 61.304 4.304C61.752 4.02667 62.264 3.888 62.84 3.888H64.024C64.3867 3.888 64.7333 3.97333 65.064 4.144C65.4053 4.31467 65.6773 4.54933 65.88 4.848V0.799999H67.032V12H65.912V10.816C65.6667 11.2107 65.3467 11.5307 64.952 11.776C64.5573 12.0107 64.1733 12.128 63.8 12.128H62.696ZM63.768 11.104C64.1093 11.104 64.44 10.9973 64.76 10.784C65.08 10.56 65.3413 10.272 65.544 9.92C65.7467 9.568 65.8587 9.20533 65.88 8.832V6.816C65.8053 6.25067 65.592 5.792 65.24 5.44C64.8987 5.088 64.4827 4.912 63.992 4.912H62.872C62.328 4.912 61.8853 5.12 61.544 5.536C61.2133 5.94133 61.048 6.48 61.048 7.152V9.072C61.048 9.66933 61.2027 10.16 61.512 10.544C61.832 10.9173 62.2373 11.104 62.728 11.104H63.768ZM70.33 2.816C70.074 2.816 69.866 2.736 69.706 2.576C69.546 2.416 69.466 2.208 69.466 1.952C69.466 1.696 69.546 1.488 69.706 1.328C69.866 1.168 70.074 1.088 70.33 1.088C70.586 1.088 70.794 1.168 70.954 1.328C71.114 1.488 71.194 1.696 71.194 1.952C71.194 2.208 71.114 2.416 70.954 2.576C70.794 2.736 70.586 2.816 70.33 2.816ZM69.754 4.016H70.906V12H69.754V4.016ZM76.2143 12.128C75.3396 12.128 74.6356 11.8667 74.1023 11.344C73.5689 10.8107 73.3023 10.1067 73.3023 9.232V6.944C73.3023 6.02667 73.5689 5.29067 74.1023 4.736C74.6356 4.17067 75.3343 3.888 76.1983 3.888H77.5103C78.3316 3.888 78.9929 4.11733 79.4943 4.576C79.9956 5.03467 80.2463 5.63733 80.2463 6.384H79.1263C79.1263 5.94667 78.9769 5.59467 78.6783 5.328C78.3903 5.05067 78.0009 4.912 77.5103 4.912H76.1983C75.6756 4.912 75.2543 5.09867 74.9343 5.472C74.6143 5.84533 74.4543 6.336 74.4543 6.944V9.232C74.4543 9.79733 74.6143 10.2507 74.9343 10.592C75.2649 10.9333 75.6916 11.104 76.2143 11.104H77.5263C78.0276 11.104 78.4276 10.928 78.7263 10.576C79.0356 10.224 79.1903 9.75467 79.1903 9.168H80.3103C80.3103 10.0533 80.0543 10.768 79.5423 11.312C79.0303 11.856 78.3583 12.128 77.5263 12.128H76.2143ZM84.5044 12.128C83.7257 12.128 83.1017 11.9253 82.6324 11.52C82.1737 11.1147 81.9444 10.5707 81.9444 9.888V9.376C81.9444 8.704 82.1844 8.16533 82.6644 7.76C83.1444 7.35467 83.779 7.152 84.5684 7.152H85.5924C85.9444 7.152 86.307 7.20533 86.6804 7.312C87.0537 7.41867 87.3737 7.56267 87.6404 7.744V6.416C87.6404 5.968 87.5017 5.60533 87.2244 5.328C86.947 5.04 86.579 4.896 86.1204 4.896H84.8404C84.3817 4.896 84.0137 5.00267 83.7364 5.216C83.459 5.42933 83.3204 5.712 83.3204 6.064H82.1684C82.1684 5.41333 82.4137 4.89067 82.9044 4.496C83.395 4.09067 84.0404 3.888 84.8404 3.888H86.1204C86.9097 3.888 87.5444 4.12267 88.0244 4.592C88.515 5.05067 88.7604 5.65867 88.7604 6.416V12H87.6724V10.88C87.427 11.264 87.1017 11.568 86.6964 11.792C86.3017 12.016 85.891 12.128 85.4644 12.128H84.5044ZM85.4964 11.12C85.9977 11.12 86.4457 10.9653 86.8404 10.656C87.235 10.3467 87.5017 9.936 87.6404 9.424V8.832C87.427 8.62933 87.1284 8.46933 86.7444 8.352C86.371 8.224 85.987 8.16 85.5924 8.16H84.5684C84.131 8.16 83.7737 8.272 83.4964 8.496C83.2297 8.72 83.0964 9.01333 83.0964 9.376V9.888C83.0964 10.2613 83.2244 10.56 83.4804 10.784C83.7364 11.008 84.0777 11.12 84.5044 11.12H85.4964ZM94.227 12C93.3843 12 92.7763 11.8187 92.403 11.456C92.0403 11.0933 91.859 10.496 91.859 9.664V5.04H90.451V4.016H91.859V1.6H93.011V4.016H95.091V5.04H93.011V9.664C93.011 10.1333 93.1017 10.4693 93.283 10.672C93.475 10.8747 93.7897 10.976 94.227 10.976H95.091V12H94.227ZM99.6064 12.128C98.7104 12.128 97.9904 11.8507 97.4464 11.296C96.9024 10.7413 96.6304 10.0107 96.6304 9.104V6.912C96.6304 6.00533 96.9024 5.27467 97.4464 4.72C98.001 4.16533 98.7317 3.888 99.6384 3.888H100.95C101.857 3.888 102.582 4.16533 103.126 4.72C103.681 5.27467 103.958 6.00533 103.958 6.912V9.104C103.958 10.0107 103.681 10.7413 103.126 11.296C102.572 11.8507 101.836 12.128 100.918 12.128H99.6064ZM100.918 11.104C101.494 11.104 101.953 10.9227 102.294 10.56C102.636 10.1867 102.806 9.70133 102.806 9.104V6.912C102.806 6.31467 102.636 5.83467 102.294 5.472C101.953 5.09867 101.505 4.912 100.95 4.912H99.6384C99.0837 4.912 98.6357 5.09867 98.2944 5.472C97.953 5.83467 97.7824 6.31467 97.7824 6.912V9.104C97.7824 9.712 97.9477 10.1973 98.2784 10.56C98.609 10.9227 99.0517 11.104 99.6064 11.104H100.918ZM106.075 4.016H107.195V5.248C107.409 4.87467 107.729 4.57067 108.155 4.336C108.593 4.10133 109.046 3.984 109.515 3.984H110.219V5.024H109.515C108.833 5.024 108.278 5.24267 107.851 5.68C107.435 6.10667 107.227 6.67733 107.227 7.392V12H106.075V4.016ZM112.307 6.128C112.051 6.128 111.843 6.048 111.683 5.888C111.523 5.728 111.443 5.52 111.443 5.264C111.443 5.008 111.523 4.8 111.683 4.64C111.843 4.48 112.051 4.4 112.307 4.4C112.563 4.4 112.771 4.48 112.931 4.64C113.091 4.8 113.171 5.008 113.171 5.264C113.171 5.52 113.091 5.728 112.931 5.888C112.771 6.048 112.563 6.128 112.307 6.128ZM112.307 11.6C112.051 11.6 111.843 11.52 111.683 11.36C111.523 11.2 111.443 10.992 111.443 10.736C111.443 10.48 111.523 10.272 111.683 10.112C111.843 9.952 112.051 9.872 112.307 9.872C112.563 9.872 112.771 9.952 112.931 10.112C113.091 10.272 113.171 10.48 113.171 10.736C113.171 10.992 113.091 11.2 112.931 11.36C112.771 11.52 112.563 11.6 112.307 11.6Z" fill="url(#paint0_linear_723_206)"/>
<defs>
<linearGradient id="paint0_linear_723_206" x1="12.3288" y1="-1.12329" x2="15.8467" y2="25.3687" gradientUnits="userSpaceOnUse">
<stop stop-color="#727272"/>
<stop offset="1" stop-color="white"/>
</linearGradient>
</defs>
</svg>
