<svg width="91" height="13" viewBox="0 0 91 13" fill="none" xmlns="http://www.w3.org/2000/svg">
<path d="M7.632 8.896H2.72L1.568 12H0.352L4.656 0.799999H5.2C5.552 0.799999 5.808 1.01333 5.968 1.44L8.432 7.904H8.448V7.936L10 12H8.784L7.632 8.896ZM3.088 7.904H7.264L5.184 2.336H5.168L3.088 7.904ZM13.9174 12.128C13.0427 12.128 12.3387 11.8667 11.8054 11.344C11.272 10.8107 11.0054 10.1067 11.0054 9.232V6.944C11.0054 6.02667 11.272 5.29067 11.8054 4.736C12.3387 4.17067 13.0374 3.888 13.9014 3.888H15.2134C16.0347 3.888 16.696 4.11733 17.1974 4.576C17.6987 5.03467 17.9494 5.63733 17.9494 6.384H16.8294C16.8294 5.94667 16.68 5.59467 16.3814 5.328C16.0934 5.05067 15.704 4.912 15.2134 4.912H13.9014C13.3787 4.912 12.9574 5.09867 12.6374 5.472C12.3174 5.84533 12.1574 6.336 12.1574 6.944V9.232C12.1574 9.79733 12.3174 10.2507 12.6374 10.592C12.968 10.9333 13.3947 11.104 13.9174 11.104H15.2294C15.7307 11.104 16.1307 10.928 16.4294 10.576C16.7387 10.224 16.8934 9.75467 16.8934 9.168H18.0134C18.0134 10.0533 17.7574 10.768 17.2454 11.312C16.7334 11.856 16.0614 12.128 15.2294 12.128H13.9174ZM22.4955 12.128C21.6208 12.128 20.9168 11.8667 20.3835 11.344C19.8502 10.8107 19.5835 10.1067 19.5835 9.232V6.944C19.5835 6.02667 19.8502 5.29067 20.3835 4.736C20.9168 4.17067 21.6155 3.888 22.4795 3.888H23.7915C24.6128 3.888 25.2742 4.11733 25.7755 4.576C26.2768 5.03467 26.5275 5.63733 26.5275 6.384H25.4075C25.4075 5.94667 25.2582 5.59467 24.9595 5.328C24.6715 5.05067 24.2822 4.912 23.7915 4.912H22.4795C21.9568 4.912 21.5355 5.09867 21.2155 5.472C20.8955 5.84533 20.7355 6.336 20.7355 6.944V9.232C20.7355 9.79733 20.8955 10.2507 21.2155 10.592C21.5462 10.9333 21.9728 11.104 22.4955 11.104H23.8075C24.3088 11.104 24.7088 10.928 25.0075 10.576C25.3168 10.224 25.4715 9.75467 25.4715 9.168H26.5915C26.5915 10.0533 26.3355 10.768 25.8235 11.312C25.3115 11.856 24.6395 12.128 23.8075 12.128H22.4955ZM31.1376 12.128C30.2416 12.128 29.5216 11.8667 28.9776 11.344C28.4336 10.8107 28.1616 10.1067 28.1616 9.232V6.944C28.1616 6.02667 28.4336 5.29067 28.9776 4.736C29.5216 4.17067 30.2416 3.888 31.1376 3.888H32.4496C33.303 3.888 33.991 4.16 34.5136 4.704C35.0363 5.248 35.2976 5.968 35.2976 6.864V8.272H29.3136V9.232C29.3136 9.78667 29.479 10.24 29.8096 10.592C30.151 10.9333 30.5936 11.104 31.1376 11.104H32.3536C32.887 11.104 33.319 10.96 33.6496 10.672C33.9803 10.3733 34.1456 9.97867 34.1456 9.488H35.2656C35.2656 10.2773 34.999 10.9173 34.4656 11.408C33.9323 11.888 33.2283 12.128 32.3536 12.128H31.1376ZM34.1456 7.28V6.864C34.1456 6.27733 33.991 5.808 33.6816 5.456C33.3723 5.09333 32.9616 4.912 32.4496 4.912H31.1376C30.5936 4.912 30.151 5.09867 29.8096 5.472C29.479 5.84533 29.3136 6.336 29.3136 6.944V7.28H34.1456ZM39.5818 12.128C38.7711 12.128 38.1204 11.8987 37.6298 11.44C37.1391 10.9813 36.8938 10.3787 36.8938 9.632H38.0138C38.0138 10.08 38.1578 10.4427 38.4457 10.72C38.7338 10.9973 39.1124 11.136 39.5818 11.136H40.9738C41.4324 11.136 41.8058 11.0453 42.0938 10.864C42.3818 10.672 42.5258 10.4267 42.5258 10.128V9.584C42.5258 9.38133 42.4458 9.20533 42.2858 9.056C42.1258 8.896 41.9178 8.78933 41.6618 8.736L38.8938 8.256C38.3391 8.16 37.8911 7.952 37.5498 7.632C37.2191 7.30133 37.0538 6.91733 37.0538 6.48V5.952C37.0538 5.33333 37.2884 4.83733 37.7578 4.464C38.2271 4.08 38.8458 3.888 39.6138 3.888H40.9898C41.7364 3.888 42.3391 4.10133 42.7978 4.528C43.2564 4.944 43.4858 5.49867 43.4858 6.192H42.3658C42.3551 5.79733 42.2218 5.48267 41.9658 5.248C41.7204 5.00267 41.3951 4.88 40.9898 4.88H39.6138C39.1871 4.88 38.8458 4.98133 38.5898 5.184C38.3338 5.376 38.2057 5.632 38.2057 5.952V6.416C38.2057 6.61867 38.2911 6.8 38.4618 6.96C38.6431 7.12 38.8724 7.22133 39.1498 7.264L41.9018 7.744C42.4351 7.84 42.8618 8.048 43.1818 8.368C43.5124 8.688 43.6778 9.072 43.6778 9.52V10.16C43.6778 10.7467 43.4271 11.2213 42.9258 11.584C42.4351 11.9467 41.7844 12.128 40.9738 12.128H39.5818ZM47.8943 12.128C47.0836 12.128 46.4329 11.8987 45.9423 11.44C45.4516 10.9813 45.2063 10.3787 45.2063 9.632H46.3263C46.3263 10.08 46.4703 10.4427 46.7582 10.72C47.0463 10.9973 47.4249 11.136 47.8943 11.136H49.2863C49.7449 11.136 50.1183 11.0453 50.4063 10.864C50.6943 10.672 50.8383 10.4267 50.8383 10.128V9.584C50.8383 9.38133 50.7583 9.20533 50.5983 9.056C50.4383 8.896 50.2303 8.78933 49.9743 8.736L47.2063 8.256C46.6516 8.16 46.2036 7.952 45.8623 7.632C45.5316 7.30133 45.3663 6.91733 45.3663 6.48V5.952C45.3663 5.33333 45.6009 4.83733 46.0703 4.464C46.5396 4.08 47.1583 3.888 47.9263 3.888H49.3023C50.0489 3.888 50.6516 4.10133 51.1103 4.528C51.5689 4.944 51.7983 5.49867 51.7983 6.192H50.6783C50.6676 5.79733 50.5343 5.48267 50.2783 5.248C50.0329 5.00267 49.7076 4.88 49.3023 4.88H47.9263C47.4996 4.88 47.1583 4.98133 46.9023 5.184C46.6463 5.376 46.5182 5.632 46.5182 5.952V6.416C46.5182 6.61867 46.6036 6.8 46.7743 6.96C46.9556 7.12 47.1849 7.22133 47.4623 7.264L50.2143 7.744C50.7476 7.84 51.1743 8.048 51.4943 8.368C51.8249 8.688 51.9903 9.072 51.9903 9.52V10.16C51.9903 10.7467 51.7396 11.2213 51.2383 11.584C50.7476 11.9467 50.0969 12.128 49.2863 12.128H47.8943ZM60.299 12C59.5097 12 58.9443 11.8347 58.603 11.504C58.2617 11.1627 58.091 10.6027 58.091 9.824V0.799999H59.243V9.824C59.243 10.2293 59.323 10.5227 59.483 10.704C59.6537 10.8853 59.9257 10.976 60.299 10.976H60.843V12H60.299ZM65.0283 12.128C64.1323 12.128 63.4123 11.8667 62.8683 11.344C62.3243 10.8107 62.0523 10.1067 62.0523 9.232V6.944C62.0523 6.02667 62.3243 5.29067 62.8683 4.736C63.4123 4.17067 64.1323 3.888 65.0283 3.888H66.3403C67.1936 3.888 67.8816 4.16 68.4043 4.704C68.9269 5.248 69.1883 5.968 69.1883 6.864V8.272H63.2043V9.232C63.2043 9.78667 63.3696 10.24 63.7003 10.592C64.0416 10.9333 64.4843 11.104 65.0283 11.104H66.2443C66.7776 11.104 67.2096 10.96 67.5403 10.672C67.8709 10.3733 68.0363 9.97867 68.0363 9.488H69.1562C69.1562 10.2773 68.8896 10.9173 68.3563 11.408C67.8229 11.888 67.1189 12.128 66.2443 12.128H65.0283ZM68.0363 7.28V6.864C68.0363 6.27733 67.8816 5.808 67.5723 5.456C67.2629 5.09333 66.8523 4.912 66.3403 4.912H65.0283C64.4843 4.912 64.0416 5.09867 63.7003 5.472C63.3696 5.84533 63.2043 6.336 63.2043 6.944V7.28H68.0363ZM73.9684 12C73.5204 12 73.195 11.728 72.9924 11.184L70.2404 4.016H71.4564L73.9204 10.736H73.9364L76.4004 4.016H77.6164L74.5124 12H73.9684ZM81.5595 12.128C80.6635 12.128 79.9435 11.8667 79.3995 11.344C78.8555 10.8107 78.5835 10.1067 78.5835 9.232V6.944C78.5835 6.02667 78.8555 5.29067 79.3995 4.736C79.9435 4.17067 80.6635 3.888 81.5595 3.888H82.8715C83.7248 3.888 84.4128 4.16 84.9355 4.704C85.4582 5.248 85.7195 5.968 85.7195 6.864V8.272H79.7355V9.232C79.7355 9.78667 79.9008 10.24 80.2315 10.592C80.5728 10.9333 81.0155 11.104 81.5595 11.104H82.7755C83.3088 11.104 83.7408 10.96 84.0715 10.672C84.4022 10.3733 84.5675 9.97867 84.5675 9.488H85.6875C85.6875 10.2773 85.4208 10.9173 84.8875 11.408C84.3542 11.888 83.6502 12.128 82.7755 12.128H81.5595ZM84.5675 7.28V6.864C84.5675 6.27733 84.4128 5.808 84.1035 5.456C83.7942 5.09333 83.3835 4.912 82.8715 4.912H81.5595C81.0155 4.912 80.5728 5.09867 80.2315 5.472C79.9008 5.84533 79.7355 6.336 79.7355 6.944V7.28H84.5675ZM89.9396 12C89.1503 12 88.585 11.8347 88.2436 11.504C87.9023 11.1627 87.7316 10.6027 87.7316 9.824V0.799999H88.8836V9.824C88.8836 10.2293 88.9636 10.5227 89.1236 10.704C89.2943 10.8853 89.5663 10.976 89.9396 10.976H90.4836V12H89.9396Z" fill="url(#paint0_linear_621_155)"/>
<defs>
<linearGradient id="paint0_linear_621_155" x1="9.34932" y1="-1.12329" x2="13.9297" y2="25.0337" gradientUnits="userSpaceOnUse">
<stop stop-color="#727272"/>
<stop offset="1" stop-color="white"/>
</linearGradient>
</defs>
</svg>
