<svg width="45" height="13" viewBox="0 0 45 13" fill="none" xmlns="http://www.w3.org/2000/svg">
<path d="M7.632 8.896H2.72L1.568 12H0.352L4.656 0.799999H5.2C5.552 0.799999 5.808 1.01333 5.968 1.44L8.432 7.904H8.448V7.936L10 12H8.784L7.632 8.896ZM3.088 7.904H7.264L5.184 2.336H5.168L3.088 7.904ZM13.8054 12.128C13.2614 12.128 12.776 12 12.3494 11.744C11.9227 11.488 11.592 11.1307 11.3574 10.672C11.1227 10.2133 11.0054 9.68 11.0054 9.072V7.152C11.0054 6.512 11.128 5.94667 11.3734 5.456C11.6187 4.95467 11.9654 4.57067 12.4134 4.304C12.8614 4.02667 13.3734 3.888 13.9494 3.888H15.1334C15.496 3.888 15.8427 3.97333 16.1734 4.144C16.5147 4.31467 16.7867 4.54933 16.9894 4.848V0.799999H18.1414V12H17.0214V10.816C16.776 11.2107 16.456 11.5307 16.0614 11.776C15.6667 12.0107 15.2827 12.128 14.9094 12.128H13.8054ZM14.8774 11.104C15.2187 11.104 15.5494 10.9973 15.8694 10.784C16.1894 10.56 16.4507 10.272 16.6534 9.92C16.856 9.568 16.968 9.20533 16.9894 8.832V6.816C16.9147 6.25067 16.7014 5.792 16.3494 5.44C16.008 5.088 15.592 4.912 15.1014 4.912H13.9814C13.4374 4.912 12.9947 5.12 12.6534 5.536C12.3227 5.94133 12.1574 6.48 12.1574 7.152V9.072C12.1574 9.66933 12.312 10.16 12.6214 10.544C12.9414 10.9173 13.3467 11.104 13.8374 11.104H14.8774ZM29.3274 3.888C30.0314 3.888 30.586 4.11733 30.9914 4.576C31.4074 5.024 31.6154 5.648 31.6154 6.448V12H30.4634V6.416C30.4634 5.94667 30.3567 5.57867 30.1434 5.312C29.93 5.04533 29.6474 4.912 29.2954 4.912H28.3834C27.9247 4.912 27.546 5.06667 27.2474 5.376C26.9487 5.68533 26.7567 6.12267 26.6714 6.688V12H25.5194V6.512C25.5194 6.01067 25.418 5.62133 25.2154 5.344C25.0234 5.056 24.7567 4.912 24.4154 4.912H23.5034C23.066 4.912 22.682 5.104 22.3514 5.488C22.0207 5.872 21.8127 6.37333 21.7274 6.992V12H20.5754V4.016H21.6954V5.168C21.9087 4.76267 22.1754 4.448 22.4954 4.224C22.8154 4 23.1514 3.888 23.5034 3.888H24.4474C24.8954 3.888 25.2794 4 25.5994 4.224C25.93 4.43733 26.1807 4.752 26.3514 5.168C26.5967 4.74133 26.89 4.42133 27.2314 4.208C27.5727 3.99467 27.946 3.888 28.3514 3.888H29.3274ZM34.8144 2.816C34.5584 2.816 34.3504 2.736 34.1904 2.576C34.0304 2.416 33.9504 2.208 33.9504 1.952C33.9504 1.696 34.0304 1.488 34.1904 1.328C34.3504 1.168 34.5584 1.088 34.8144 1.088C35.0704 1.088 35.2784 1.168 35.4384 1.328C35.5984 1.488 35.6784 1.696 35.6784 1.952C35.6784 2.208 35.5984 2.416 35.4384 2.576C35.2784 2.736 35.0704 2.816 34.8144 2.816ZM34.2384 4.016H35.3904V12H34.2384V4.016ZM38.1066 4.016H39.2266V5.2C39.472 4.816 39.792 4.50133 40.1866 4.256C40.5813 4.01067 40.976 3.888 41.3706 3.888H42.4586C43.1946 3.888 43.7866 4.13867 44.2346 4.64C44.6933 5.14133 44.9226 5.79733 44.9226 6.608V12H43.7706V6.576C43.7706 6.08533 43.648 5.68533 43.4026 5.376C43.1573 5.06667 42.832 4.912 42.4266 4.912H41.4026C40.9013 4.912 40.4426 5.10933 40.0266 5.504C39.6213 5.89867 39.3653 6.40533 39.2586 7.024V12H38.1066V4.016Z" fill="white"/>
</svg>
