<svg width="148" height="17" viewBox="0 0 148 17" fill="none" xmlns="http://www.w3.org/2000/svg">
<path d="M5.07491 13.144C4.23491 13.144 3.49091 12.952 2.84291 12.568C2.19491 12.184 1.69091 11.644 1.33091 10.948C0.982914 10.24 0.808914 9.424 0.808914 8.5V4.9C0.808914 3.976 0.988914 3.166 1.34891 2.47C1.70891 1.762 2.21291 1.216 2.86091 0.831999C3.52091 0.448 4.28291 0.256 5.14691 0.256H7.05491C7.87091 0.256 8.59091 0.436 9.21491 0.795999C9.85091 1.144 10.3369 1.636 10.6729 2.272C11.0209 2.908 11.1949 3.64 11.1949 4.468H9.52091C9.52091 3.664 9.29291 3.016 8.83691 2.524C8.39291 2.032 7.79891 1.786 7.05491 1.786H5.14691C4.36691 1.786 3.73091 2.074 3.23891 2.65C2.75891 3.226 2.51891 3.988 2.51891 4.936V8.464C2.51891 9.412 2.75291 10.174 3.22091 10.75C3.68891 11.326 4.30691 11.614 5.07491 11.614H7.01891C7.78691 11.614 8.39891 11.344 8.85491 10.804C9.32291 10.252 9.55691 9.532 9.55691 8.644H11.2309C11.2309 9.532 11.0569 10.318 10.7089 11.002C10.3609 11.686 9.86891 12.214 9.23291 12.586C8.59691 12.958 7.85891 13.144 7.01891 13.144H5.07491ZM13.1379 0.399999H14.8119V5.152C15.0879 4.768 15.4359 4.462 15.8559 4.234C16.2759 3.994 16.6899 3.874 17.0979 3.874H18.3219C19.1859 3.874 19.8819 4.162 20.4099 4.738C20.9499 5.314 21.2199 6.07 21.2199 7.006V13H19.5459V7.006C19.5459 6.514 19.4199 6.118 19.1679 5.818C18.9159 5.506 18.5859 5.35 18.1779 5.35H17.0259C16.5099 5.35 16.0419 5.548 15.6219 5.944C15.2019 6.328 14.9319 6.832 14.8119 7.456V13H13.1379V0.399999ZM26.3141 13.144C25.4141 13.144 24.6941 12.916 24.1541 12.46C23.6141 11.992 23.3441 11.374 23.3441 10.606V10.012C23.3441 9.256 23.6261 8.65 24.1901 8.194C24.7541 7.726 25.4921 7.492 26.4041 7.492H27.5381C27.8981 7.492 28.2821 7.546 28.6901 7.654C29.0981 7.762 29.4461 7.912 29.7341 8.104V6.79C29.7341 6.346 29.5961 5.992 29.3201 5.728C29.0441 5.452 28.6841 5.314 28.2401 5.314H26.7641C26.3081 5.314 25.9421 5.422 25.6661 5.638C25.3901 5.854 25.2521 6.136 25.2521 6.484H23.5961C23.5961 5.704 23.8841 5.074 24.4601 4.594C25.0481 4.114 25.8161 3.874 26.7641 3.874H28.2401C29.1881 3.874 29.9501 4.144 30.5261 4.684C31.1021 5.212 31.3901 5.914 31.3901 6.79V13H29.8241V11.794C29.5481 12.202 29.1881 12.532 28.7441 12.784C28.3001 13.024 27.8501 13.144 27.3941 13.144H26.3141ZM27.4841 11.758C28.0121 11.758 28.4801 11.608 28.8881 11.308C29.2961 10.996 29.5781 10.582 29.7341 10.066V9.526C29.5061 9.322 29.1941 9.16 28.7981 9.04C28.4021 8.92 27.9941 8.86 27.5741 8.86H26.4221C26.0021 8.86 25.6601 8.968 25.3961 9.184C25.1321 9.4 25.0001 9.688 25.0001 10.048V10.588C25.0001 10.948 25.1261 11.236 25.3781 11.452C25.6421 11.656 25.9901 11.758 26.4221 11.758H27.4841ZM33.8098 4.018H35.4118V5.26C35.6758 4.852 36.0238 4.522 36.4558 4.27C36.8998 4.006 37.3378 3.874 37.7698 3.874H38.9578C39.8218 3.874 40.5178 4.162 41.0458 4.738C41.5858 5.314 41.8558 6.07 41.8558 7.006V13H40.1818V7.006C40.1818 6.514 40.0558 6.118 39.8038 5.818C39.5518 5.506 39.2218 5.35 38.8138 5.35H37.6978C37.1818 5.35 36.7138 5.548 36.2938 5.944C35.8738 6.34 35.6038 6.856 35.4838 7.492V13H33.8098V4.018ZM47.3828 16.654C46.5308 16.654 45.8228 16.42 45.2588 15.952C44.7068 15.484 44.4008 14.872 44.3408 14.116H46.0148C46.0508 14.44 46.1948 14.704 46.4468 14.908C46.6988 15.112 47.0108 15.214 47.3828 15.214H48.9128C49.4528 15.214 49.8728 15.022 50.1728 14.638C50.4848 14.266 50.6408 13.75 50.6408 13.09V11.884C50.3768 12.208 50.0468 12.472 49.6508 12.676C49.2548 12.88 48.8768 12.982 48.5168 12.982H47.2208C46.5728 12.982 45.9968 12.838 45.4928 12.55C44.9888 12.262 44.5988 11.854 44.3228 11.326C44.0468 10.798 43.9088 10.192 43.9088 9.508V7.492C43.9088 6.784 44.0528 6.154 44.3408 5.602C44.6408 5.05 45.0548 4.624 45.5828 4.324C46.1108 4.024 46.7168 3.874 47.4008 3.874H48.5888C48.9728 3.874 49.3688 3.982 49.7768 4.198C50.1848 4.402 50.5028 4.666 50.7308 4.99V4.018H52.3148V13.09C52.3148 14.194 52.0088 15.064 51.3968 15.7C50.7968 16.336 49.9688 16.654 48.9128 16.654H47.3828ZM48.5708 11.524C49.1228 11.524 49.5908 11.302 49.9748 10.858C50.3708 10.414 50.5928 9.844 50.6408 9.148V7.258C50.5928 6.694 50.3888 6.238 50.0288 5.89C49.6688 5.53 49.2368 5.35 48.7328 5.35H47.4908C46.9268 5.35 46.4648 5.554 46.1048 5.962C45.7568 6.358 45.5828 6.886 45.5828 7.546V9.454C45.5828 10.066 45.7448 10.564 46.0688 10.948C46.3928 11.332 46.8008 11.524 47.2928 11.524H48.5708ZM57.9832 13.144C56.9272 13.144 56.0752 12.844 55.4272 12.244C54.7912 11.632 54.4732 10.834 54.4732 9.85V7.366C54.4732 6.31 54.7912 5.464 55.4272 4.828C56.0752 4.192 56.9272 3.874 57.9832 3.874H59.4592C60.4792 3.874 61.3012 4.186 61.9252 4.81C62.5492 5.434 62.8612 6.262 62.8612 7.294V8.986H56.1472V9.85C56.1472 10.402 56.3152 10.846 56.6512 11.182C56.9872 11.518 57.4312 11.686 57.9832 11.686H59.3692C59.9092 11.686 60.3472 11.548 60.6832 11.272C61.0192 10.984 61.1872 10.606 61.1872 10.138H62.8252C62.8252 11.038 62.5072 11.764 61.8712 12.316C61.2352 12.868 60.3952 13.144 59.3512 13.144H57.9832ZM61.1872 7.654V7.294C61.1872 6.694 61.0252 6.214 60.7012 5.854C60.3892 5.494 59.9752 5.314 59.4592 5.314H57.9832C57.4312 5.314 56.9872 5.506 56.6512 5.89C56.3152 6.262 56.1472 6.76 56.1472 7.384V7.654H61.1872ZM69.8291 0.399999H76.1111C77.1071 0.399999 77.9051 0.681999 78.5051 1.246C79.1171 1.798 79.4231 2.536 79.4231 3.46V5.26C79.4231 6.232 79.0991 7.018 78.4511 7.618C77.8151 8.206 76.9691 8.5 75.9131 8.5H71.5391V13H69.8291V0.399999ZM75.8771 6.988C76.4291 6.988 76.8731 6.826 77.2091 6.502C77.5451 6.166 77.7131 5.728 77.7131 5.188V3.478C77.7131 3.01 77.5631 2.632 77.2631 2.344C76.9631 2.056 76.5671 1.912 76.0751 1.912H71.5391V6.988H75.8771ZM83.6188 13.144C82.7188 13.144 81.9988 12.916 81.4588 12.46C80.9188 11.992 80.6488 11.374 80.6488 10.606V10.012C80.6488 9.256 80.9308 8.65 81.4948 8.194C82.0588 7.726 82.7968 7.492 83.7088 7.492H84.8428C85.2028 7.492 85.5868 7.546 85.9948 7.654C86.4028 7.762 86.7508 7.912 87.0388 8.104V6.79C87.0388 6.346 86.9008 5.992 86.6248 5.728C86.3488 5.452 85.9888 5.314 85.5448 5.314H84.0688C83.6128 5.314 83.2468 5.422 82.9708 5.638C82.6948 5.854 82.5568 6.136 82.5568 6.484H80.9008C80.9008 5.704 81.1888 5.074 81.7648 4.594C82.3528 4.114 83.1208 3.874 84.0688 3.874H85.5448C86.4928 3.874 87.2548 4.144 87.8308 4.684C88.4068 5.212 88.6948 5.914 88.6948 6.79V13H87.1288V11.794C86.8528 12.202 86.4928 12.532 86.0488 12.784C85.6048 13.024 85.1548 13.144 84.6988 13.144H83.6188ZM84.7888 11.758C85.3168 11.758 85.7848 11.608 86.1928 11.308C86.6008 10.996 86.8828 10.582 87.0388 10.066V9.526C86.8108 9.322 86.4988 9.16 86.1028 9.04C85.7068 8.92 85.2988 8.86 84.8788 8.86H83.7268C83.3068 8.86 82.9648 8.968 82.7008 9.184C82.4368 9.4 82.3048 9.688 82.3048 10.048V10.588C82.3048 10.948 82.4308 11.236 82.6828 11.452C82.9468 11.656 83.2948 11.758 83.7268 11.758H84.7888ZM93.8865 13.144C92.9145 13.144 92.1345 12.88 91.5465 12.352C90.9585 11.812 90.6645 11.104 90.6645 10.228H92.3025C92.3025 10.672 92.4465 11.032 92.7345 11.308C93.0225 11.584 93.4065 11.722 93.8865 11.722H95.4705C95.9265 11.722 96.2925 11.638 96.5685 11.47C96.8445 11.29 96.9825 11.056 96.9825 10.768V10.246C96.9825 10.054 96.8985 9.886 96.7305 9.742C96.5745 9.586 96.3705 9.484 96.1185 9.436L93.0045 8.896C92.3445 8.776 91.8165 8.53 91.4205 8.158C91.0245 7.774 90.8265 7.33 90.8265 6.826V6.232C90.8265 5.524 91.1085 4.954 91.6725 4.522C92.2365 4.09 92.9925 3.874 93.9405 3.874H95.4525C96.3525 3.874 97.0725 4.12 97.6125 4.612C98.1645 5.104 98.4405 5.758 98.4405 6.574H96.8025C96.7905 6.19 96.6585 5.884 96.4065 5.656C96.1665 5.416 95.8485 5.296 95.4525 5.296H93.9585C93.5145 5.296 93.1605 5.386 92.8965 5.566C92.6445 5.746 92.5185 5.986 92.5185 6.286V6.736C92.5185 6.928 92.6025 7.096 92.7705 7.24C92.9385 7.384 93.1545 7.486 93.4185 7.546L96.5685 8.104C97.1925 8.212 97.6965 8.452 98.0805 8.824C98.4765 9.196 98.6745 9.628 98.6745 10.12V10.822C98.6745 11.518 98.3805 12.082 97.7925 12.514C97.2045 12.934 96.4305 13.144 95.4705 13.144H93.8865ZM103.431 13.144C102.459 13.144 101.679 12.88 101.091 12.352C100.503 11.812 100.209 11.104 100.209 10.228H101.847C101.847 10.672 101.991 11.032 102.279 11.308C102.567 11.584 102.951 11.722 103.431 11.722H105.015C105.471 11.722 105.837 11.638 106.113 11.47C106.389 11.29 106.527 11.056 106.527 10.768V10.246C106.527 10.054 106.443 9.886 106.275 9.742C106.119 9.586 105.915 9.484 105.663 9.436L102.549 8.896C101.889 8.776 101.361 8.53 100.965 8.158C100.569 7.774 100.371 7.33 100.371 6.826V6.232C100.371 5.524 100.653 4.954 101.217 4.522C101.781 4.09 102.537 3.874 103.485 3.874H104.997C105.897 3.874 106.617 4.12 107.157 4.612C107.709 5.104 107.985 5.758 107.985 6.574H106.347C106.335 6.19 106.203 5.884 105.951 5.656C105.711 5.416 105.393 5.296 104.997 5.296H103.503C103.059 5.296 102.705 5.386 102.441 5.566C102.189 5.746 102.063 5.986 102.063 6.286V6.736C102.063 6.928 102.147 7.096 102.315 7.24C102.483 7.384 102.699 7.486 102.963 7.546L106.113 8.104C106.737 8.212 107.241 8.452 107.625 8.824C108.021 9.196 108.219 9.628 108.219 10.12V10.822C108.219 11.518 107.925 12.082 107.337 12.514C106.749 12.934 105.975 13.144 105.015 13.144H103.431ZM121.652 4.018L119.762 11.83C119.666 12.238 119.516 12.538 119.312 12.73C119.108 12.91 118.844 13 118.52 13H117.746L115.568 6.574L113.336 13H112.562C112.238 13 111.974 12.91 111.77 12.73C111.566 12.538 111.416 12.238 111.32 11.83L109.412 4.018H111.176L112.652 10.93L114.938 4.252H115.568C115.784 4.252 115.958 4.306 116.09 4.414C116.222 4.51 116.324 4.666 116.396 4.882L118.412 10.948L119.888 4.018H121.652ZM126.327 13.144C125.271 13.144 124.419 12.826 123.771 12.19C123.135 11.554 122.817 10.72 122.817 9.688V7.348C122.817 6.304 123.141 5.464 123.789 4.828C124.437 4.192 125.295 3.874 126.363 3.874H127.875C128.943 3.874 129.801 4.192 130.449 4.828C131.097 5.464 131.421 6.304 131.421 7.348V9.688C131.421 10.72 131.091 11.554 130.431 12.19C129.783 12.826 128.925 13.144 127.857 13.144H126.327ZM127.839 11.668C128.415 11.668 128.877 11.482 129.225 11.11C129.573 10.738 129.747 10.24 129.747 9.616V7.402C129.747 6.778 129.573 6.28 129.225 5.908C128.889 5.536 128.439 5.35 127.875 5.35H126.363C125.799 5.35 125.343 5.536 124.995 5.908C124.659 6.28 124.491 6.778 124.491 7.402V9.616C124.491 10.24 124.659 10.738 124.995 11.11C125.331 11.482 125.781 11.668 126.345 11.668H127.839ZM133.583 4.018H135.185V5.332C135.425 4.936 135.773 4.612 136.229 4.36C136.697 4.108 137.183 3.982 137.687 3.982H138.623V5.476H137.687C136.955 5.476 136.367 5.704 135.923 6.16C135.479 6.604 135.257 7.192 135.257 7.924V13H133.583V4.018ZM142.793 13.144C141.809 13.144 141.011 12.826 140.399 12.19C139.799 11.554 139.499 10.714 139.499 9.67V7.546C139.499 6.826 139.643 6.19 139.931 5.638C140.219 5.074 140.621 4.642 141.137 4.342C141.665 4.03 142.271 3.874 142.955 3.874H144.179C144.563 3.874 144.941 3.964 145.313 4.144C145.685 4.324 145.985 4.564 146.213 4.864V0.399999H147.905V13H146.303V11.722C146.039 12.142 145.691 12.484 145.259 12.748C144.827 13.012 144.395 13.144 143.963 13.144H142.793ZM144.035 11.668C144.599 11.668 145.091 11.44 145.511 10.984C145.931 10.516 146.165 9.964 146.213 9.328V7.294C146.129 6.706 145.907 6.238 145.547 5.89C145.199 5.53 144.779 5.35 144.287 5.35H143.081C142.517 5.35 142.055 5.56 141.695 5.98C141.347 6.388 141.173 6.934 141.173 7.618V9.616C141.173 10.228 141.335 10.726 141.659 11.11C141.995 11.482 142.415 11.668 142.919 11.668H144.035Z" fill="white"/>
</svg>
