<svg width="152" height="44" viewBox="0 0 152 44" fill="none" xmlns="http://www.w3.org/2000/svg">
<rect opacity="0.7" x="151.5" y="0.5" width="43" height="151" rx="14.5" transform="rotate(90 151.5 0.5)" fill="url(#paint0_linear_734_308)" fill-opacity="0.25" stroke="url(#paint1_linear_734_308)"/>
<path d="M63.6581 28.16C62.8581 28.16 62.1515 27.9933 61.5381 27.66C60.9248 27.3133 60.4448 26.8333 60.0981 26.22C59.7648 25.5933 59.5981 24.8733 59.5981 24.06H61.0381C61.0381 24.8867 61.2781 25.56 61.7581 26.08C62.2515 26.5867 62.8981 26.84 63.6981 26.84H65.9181C66.7048 26.84 67.3381 26.6667 67.8181 26.32C68.2981 25.96 68.5381 25.4933 68.5381 24.92V23.64C68.5381 23.1867 68.3581 22.8 67.9981 22.48C67.6515 22.16 67.1715 21.9533 66.5581 21.86L62.9581 21.26C61.9448 21.0867 61.1581 20.7267 60.5981 20.18C60.0381 19.6333 59.7581 18.9467 59.7581 18.12V17.04C59.7581 16.0667 60.1181 15.2933 60.8381 14.72C61.5715 14.1333 62.5381 13.84 63.7381 13.84H65.9981C67.1315 13.84 68.0448 14.1867 68.7381 14.88C69.4315 15.56 69.7781 16.46 69.7781 17.58H68.3381C68.3381 16.8467 68.1248 16.26 67.6981 15.82C67.2715 15.38 66.7048 15.16 65.9981 15.16H63.7381C62.9781 15.16 62.3715 15.3333 61.9181 15.68C61.4648 16.0133 61.2381 16.4667 61.2381 17.04V18.12C61.2381 18.5867 61.4048 18.98 61.7381 19.3C62.0848 19.62 62.5581 19.8333 63.1581 19.94L66.7381 20.56C67.7781 20.7467 68.5848 21.1067 69.1581 21.64C69.7315 22.16 70.0181 22.8267 70.0181 23.64V24.92C70.0181 25.8933 69.6448 26.68 68.8981 27.28C68.1515 27.8667 67.1715 28.16 65.9581 28.16H63.6581ZM75.8572 28.16C74.7372 28.16 73.8372 27.8333 73.1572 27.18C72.4772 26.5133 72.1372 25.6333 72.1372 24.54V21.68C72.1372 20.5333 72.4772 19.6133 73.1572 18.92C73.8372 18.2133 74.7372 17.86 75.8572 17.86H77.4972C78.5639 17.86 79.4239 18.2 80.0772 18.88C80.7305 19.56 81.0572 20.46 81.0572 21.58V23.34H73.5772V24.54C73.5772 25.2333 73.7839 25.8 74.1972 26.24C74.6239 26.6667 75.1772 26.88 75.8572 26.88H77.3772C78.0439 26.88 78.5839 26.7 78.9972 26.34C79.4105 25.9667 79.6172 25.4733 79.6172 24.86H81.0172C81.0172 25.8467 80.6839 26.6467 80.0172 27.26C79.3505 27.86 78.4705 28.16 77.3772 28.16H75.8572ZM79.6172 22.1V21.58C79.6172 20.8467 79.4239 20.26 79.0372 19.82C78.6505 19.3667 78.1372 19.14 77.4972 19.14H75.8572C75.1772 19.14 74.6239 19.3733 74.1972 19.84C73.7839 20.3067 73.5772 20.92 73.5772 21.68V22.1H79.6172ZM87.3752 28C86.3218 28 85.5618 27.7733 85.0952 27.32C84.6418 26.8667 84.4152 26.12 84.4152 25.08V19.3H82.6552V18.02H84.4152V15H85.8552V18.02H88.4552V19.3H85.8552V25.08C85.8552 25.6667 85.9685 26.0867 86.1952 26.34C86.4352 26.5933 86.8285 26.72 87.3752 26.72H88.4552V28H87.3752Z" fill="url(#paint2_linear_734_308)"/>
<defs>
<linearGradient id="paint0_linear_734_308" x1="192.174" y1="20.4844" x2="135.292" y2="32.9585" gradientUnits="userSpaceOnUse">
<stop stop-color="#FCB433"/>
<stop offset="1" stop-color="#966B1E"/>
</linearGradient>
<linearGradient id="paint1_linear_734_308" x1="192.174" y1="20.4844" x2="135.292" y2="32.9585" gradientUnits="userSpaceOnUse">
<stop stop-color="#FCB433"/>
<stop offset="1" stop-color="#966B1E"/>
</linearGradient>
<linearGradient id="paint2_linear_734_308" x1="115.35" y1="11.2546" x2="102.856" y2="50.4666" gradientUnits="userSpaceOnUse">
<stop stop-color="#FCB433"/>
<stop offset="1" stop-color="#966B1E"/>
</linearGradient>
</defs>
</svg>
