<svg width="152" height="44" viewBox="0 0 152 44" fill="none" xmlns="http://www.w3.org/2000/svg">
<rect opacity="0.7" x="151.5" y="0.5" width="43" height="151" rx="14.5" transform="rotate(90 151.5 0.5)" fill="url(#paint0_linear_734_306)" fill-opacity="0.25" stroke="url(#paint1_linear_734_306)"/>
<path d="M65.6841 24.12H59.5441L58.1041 28H56.5841L61.9641 14H62.6441C63.0841 14 63.4041 14.2667 63.6041 14.8L66.6841 22.88H66.7041V22.92L68.6441 28H67.1241L65.6841 24.12ZM60.0041 22.88H65.2241L62.6241 15.92H62.6041L60.0041 22.88ZM73.4009 28.16C72.7209 28.16 72.1142 28 71.5809 27.68C71.0475 27.36 70.6342 26.9133 70.3409 26.34C70.0475 25.7667 69.9009 25.1 69.9009 24.34V21.94C69.9009 21.14 70.0542 20.4333 70.3609 19.82C70.6675 19.1933 71.1009 18.7133 71.6609 18.38C72.2209 18.0333 72.8609 17.86 73.5809 17.86H75.0609C75.5142 17.86 75.9475 17.9667 76.3609 18.18C76.7875 18.3933 77.1275 18.6867 77.3809 19.06V14H78.8209V28H77.4209V26.52C77.1142 27.0133 76.7142 27.4133 76.2209 27.72C75.7275 28.0133 75.2475 28.16 74.7809 28.16H73.4009ZM74.7409 26.88C75.1675 26.88 75.5809 26.7467 75.9809 26.48C76.3809 26.2 76.7075 25.84 76.9609 25.4C77.2142 24.96 77.3542 24.5067 77.3809 24.04V21.52C77.2875 20.8133 77.0209 20.24 76.5809 19.8C76.1542 19.36 75.6342 19.14 75.0209 19.14H73.6209C72.9409 19.14 72.3875 19.4 71.9609 19.92C71.5475 20.4267 71.3409 21.1 71.3409 21.94V24.34C71.3409 25.0867 71.5342 25.7 71.9209 26.18C72.3209 26.6467 72.8275 26.88 73.4409 26.88H74.7409ZM84.9634 28.16C84.2834 28.16 83.6767 28 83.1434 27.68C82.61 27.36 82.1967 26.9133 81.9034 26.34C81.61 25.7667 81.4634 25.1 81.4634 24.34V21.94C81.4634 21.14 81.6167 20.4333 81.9234 19.82C82.23 19.1933 82.6634 18.7133 83.2234 18.38C83.7834 18.0333 84.4234 17.86 85.1434 17.86H86.6234C87.0767 17.86 87.51 17.9667 87.9234 18.18C88.35 18.3933 88.69 18.6867 88.9434 19.06V14H90.3834V28H88.9834V26.52C88.6767 27.0133 88.2767 27.4133 87.7834 27.72C87.29 28.0133 86.81 28.16 86.3434 28.16H84.9634ZM86.3034 26.88C86.73 26.88 87.1434 26.7467 87.5434 26.48C87.9434 26.2 88.27 25.84 88.5234 25.4C88.7767 24.96 88.9167 24.5067 88.9434 24.04V21.52C88.85 20.8133 88.5834 20.24 88.1434 19.8C87.7167 19.36 87.1967 19.14 86.5834 19.14H85.1834C84.5034 19.14 83.95 19.4 83.5234 19.92C83.11 20.4267 82.9034 21.1 82.9034 21.94V24.34C82.9034 25.0867 83.0967 25.7 83.4834 26.18C83.8834 26.6467 84.39 26.88 85.0034 26.88H86.3034Z" fill="url(#paint2_linear_734_306)"/>
<defs>
<linearGradient id="paint0_linear_734_306" x1="192.174" y1="20.4844" x2="135.292" y2="32.9585" gradientUnits="userSpaceOnUse">
<stop stop-color="#FCB433"/>
<stop offset="1" stop-color="#966B1E"/>
</linearGradient>
<linearGradient id="paint1_linear_734_306" x1="192.174" y1="20.4844" x2="135.292" y2="32.9585" gradientUnits="userSpaceOnUse">
<stop stop-color="#FCB433"/>
<stop offset="1" stop-color="#966B1E"/>
</linearGradient>
<linearGradient id="paint2_linear_734_306" x1="115.35" y1="11.2546" x2="102.856" y2="50.4666" gradientUnits="userSpaceOnUse">
<stop stop-color="#FCB433"/>
<stop offset="1" stop-color="#966B1E"/>
</linearGradient>
</defs>
</svg>
