<svg width="428" height="80" viewBox="0 0 428 80" fill="none" xmlns="http://www.w3.org/2000/svg">
<rect opacity="0.7" x="427" y="1" width="77.9816" height="426" rx="31" transform="rotate(90 427 1)" fill="url(#paint0_linear_734_309)" fill-opacity="0.15" stroke="url(#paint1_linear_734_309)" stroke-width="2"/>
<path d="M140.5 39.9997C140.5 43.3268 140.616 45.8782 141.088 47.8516C141.554 49.8037 142.359 51.1531 143.724 52.1187C145.112 53.1005 147.132 53.7248 150.111 54.0955C153.083 54.4655 156.95 54.5767 161.987 54.5767C167.025 54.5767 170.891 54.4655 173.864 54.0955C176.842 53.7248 178.862 53.1005 180.25 52.1187C181.615 51.1531 182.42 49.8037 182.887 47.8516C183.358 45.8782 183.474 43.3268 183.474 39.9997C183.474 36.6727 183.358 34.1213 182.887 32.1479C182.42 30.1958 181.615 28.8464 180.25 27.8808C178.862 26.899 176.842 26.2747 173.864 25.904C170.891 25.534 167.025 25.4228 161.987 25.4228C156.95 25.4228 153.083 25.534 150.111 25.904C147.132 26.2747 145.112 26.899 143.724 27.8808C142.359 28.8464 141.554 30.1958 141.088 32.1479C140.616 34.1213 140.5 36.6727 140.5 39.9997Z" stroke="url(#paint2_linear_734_309)" stroke-linecap="round" stroke-linejoin="round"/>
<path d="M171.149 36.2305H174.813M154.658 43.7689H169.316" stroke="url(#paint3_linear_734_309)" stroke-width="2" stroke-linecap="round" stroke-linejoin="round"/>
<path fill-rule="evenodd" clip-rule="evenodd" d="M149.16 38.1151C150.172 38.1151 150.993 37.2713 150.993 36.2304C150.993 35.1896 150.172 34.3458 149.16 34.3458C148.148 34.3458 147.328 35.1896 147.328 36.2304C147.328 37.2713 148.148 38.1151 149.16 38.1151ZM149.16 45.6535C150.172 45.6535 150.993 44.8097 150.993 43.7689C150.993 42.7281 150.172 41.8843 149.16 41.8843C148.148 41.8843 147.328 42.7281 147.328 43.7689C147.328 44.8097 148.148 45.6535 149.16 45.6535ZM156.489 36.2304C156.489 37.2713 155.669 38.1151 154.657 38.1151C153.645 38.1151 152.825 37.2713 152.825 36.2304C152.825 35.1896 153.645 34.3458 154.657 34.3458C155.669 34.3458 156.489 35.1896 156.489 36.2304ZM160.154 38.1151C161.166 38.1151 161.986 37.2713 161.986 36.2304C161.986 35.1896 161.166 34.3458 160.154 34.3458C159.142 34.3458 158.322 35.1896 158.322 36.2304C158.322 37.2713 159.142 38.1151 160.154 38.1151ZM167.483 36.2304C167.483 37.2713 166.663 38.1151 165.651 38.1151C164.639 38.1151 163.819 37.2713 163.819 36.2304C163.819 35.1896 164.639 34.3458 165.651 34.3458C166.663 34.3458 167.483 35.1896 167.483 36.2304ZM174.813 45.6535C175.824 45.6535 176.645 44.8097 176.645 43.7689C176.645 42.7281 175.824 41.8843 174.813 41.8843C173.801 41.8843 172.98 42.7281 172.98 43.7689C172.98 44.8097 173.801 45.6535 174.813 45.6535Z" fill="url(#paint4_linear_734_309)"/>
<path d="M209.964 46.9485L204.324 39.9885L202.444 41.9885V46.9485H201.344V32.9485H202.444V40.5685L209.584 32.9485H210.984L205.084 39.1885L211.344 46.9485H209.964ZM216.025 47.1085C214.971 47.1085 214.118 46.7885 213.465 46.1485C212.825 45.5085 212.505 44.6618 212.505 43.6085V40.5085C212.505 39.4018 212.825 38.5085 213.465 37.8285C214.118 37.1485 214.971 36.8085 216.025 36.8085H217.665C218.678 36.8085 219.491 37.1418 220.105 37.8085C220.731 38.4618 221.045 39.3352 221.045 40.4285V42.1085H213.585V43.6085C213.585 44.3685 213.805 44.9818 214.245 45.4485C214.698 45.9152 215.291 46.1485 216.025 46.1485H217.545C218.265 46.1485 218.845 45.9418 219.285 45.5285C219.738 45.1018 219.965 44.5485 219.965 43.8685H221.005C221.005 44.8418 220.685 45.6285 220.045 46.2285C219.418 46.8152 218.585 47.1085 217.545 47.1085H216.025ZM219.985 41.1885V40.4285C219.985 39.6285 219.771 38.9885 219.345 38.5085C218.918 38.0152 218.358 37.7685 217.665 37.7685H216.025C215.291 37.7685 214.698 38.0218 214.245 38.5285C213.805 39.0352 213.585 39.6952 213.585 40.5085V41.1885H219.985ZM226.823 51.0085C226.01 51.0085 225.336 50.7885 224.803 50.3485C224.27 49.9218 223.97 49.3552 223.903 48.6485H224.963C225.016 49.0752 225.21 49.4152 225.543 49.6685C225.89 49.9352 226.316 50.0685 226.823 50.0685H228.403C229.136 50.0685 229.71 49.8218 230.123 49.3285C230.55 48.8352 230.763 48.1618 230.763 47.3085V45.0885C230.403 45.6485 229.963 46.1018 229.443 46.4485C228.936 46.7818 228.436 46.9485 227.943 46.9485H226.643C225.763 46.9485 225.05 46.6552 224.503 46.0685C223.956 45.4685 223.683 44.6818 223.683 43.7085V36.9685H224.763V43.7285C224.763 44.3952 224.936 44.9418 225.283 45.3685C225.63 45.7818 226.083 45.9885 226.643 45.9885H227.903C228.49 45.9885 229.063 45.7285 229.623 45.2085C230.196 44.6752 230.576 44.0418 230.763 43.3085V36.9685H231.823V47.3085C231.823 48.4552 231.516 49.3552 230.903 50.0085C230.29 50.6752 229.456 51.0085 228.403 51.0085H226.823ZM238.832 47.1085C238.352 47.1085 237.858 46.9552 237.352 46.6485C236.858 46.3285 236.458 45.9285 236.152 45.4485V46.9485H235.112V32.9485H236.192V38.3685C236.485 37.8885 236.872 37.5085 237.352 37.2285C237.845 36.9485 238.372 36.8085 238.932 36.8085H240.332C241.318 36.8085 242.118 37.1418 242.732 37.8085C243.345 38.4752 243.652 39.3552 243.652 40.4485V43.2485C243.652 44.3952 243.332 45.3285 242.692 46.0485C242.065 46.7552 241.238 47.1085 240.212 47.1085H238.832ZM240.192 46.1485C240.898 46.1485 241.472 45.8818 241.912 45.3485C242.365 44.8152 242.592 44.1152 242.592 43.2485V40.4485C242.592 39.6485 242.378 39.0018 241.952 38.5085C241.538 38.0152 240.992 37.7685 240.312 37.7685H238.972C238.212 37.7685 237.572 38.0352 237.052 38.5685C236.545 39.0885 236.258 39.7752 236.192 40.6285V43.6285C236.312 44.3085 236.625 44.9018 237.132 45.4085C237.652 45.9018 238.218 46.1485 238.832 46.1485H240.192ZM249.697 47.1085C248.631 47.1085 247.771 46.7752 247.117 46.1085C246.464 45.4285 246.137 44.5418 246.137 43.4485V40.4685C246.137 39.3752 246.464 38.4952 247.117 37.8285C247.784 37.1485 248.657 36.8085 249.737 36.8085H251.317C252.397 36.8085 253.264 37.1485 253.917 37.8285C254.584 38.4952 254.917 39.3752 254.917 40.4685V43.4485C254.917 44.5418 254.584 45.4285 253.917 46.1085C253.251 46.7752 252.371 47.1085 251.277 47.1085H249.697ZM251.277 46.1485C252.051 46.1485 252.671 45.9018 253.137 45.4085C253.617 44.9152 253.857 44.2618 253.857 43.4485V40.4685C253.857 39.6552 253.624 39.0018 253.157 38.5085C252.691 38.0152 252.077 37.7685 251.317 37.7685H249.737C248.977 37.7685 248.364 38.0152 247.897 38.5085C247.444 39.0018 247.217 39.6552 247.217 40.4685V43.4485C247.217 44.2618 247.444 44.9152 247.897 45.4085C248.351 45.9018 248.951 46.1485 249.697 46.1485H251.277ZM260.547 47.1085C259.614 47.1085 258.867 46.8685 258.307 46.3885C257.747 45.8952 257.467 45.2418 257.467 44.4285V43.6685C257.467 42.8552 257.754 42.2085 258.327 41.7285C258.9 41.2485 259.66 41.0085 260.607 41.0085H261.907C262.36 41.0085 262.827 41.0818 263.307 41.2285C263.8 41.3752 264.22 41.5752 264.567 41.8285V39.8885C264.567 39.2618 264.374 38.7485 263.987 38.3485C263.6 37.9485 263.1 37.7485 262.487 37.7485H260.927C260.3 37.7485 259.794 37.8952 259.407 38.1885C259.02 38.4818 258.827 38.8752 258.827 39.3685H257.747C257.747 38.5952 258.04 37.9752 258.627 37.5085C259.214 37.0418 259.98 36.8085 260.927 36.8085H262.487C263.434 36.8085 264.187 37.0885 264.747 37.6485C265.32 38.2085 265.607 38.9552 265.607 39.8885V46.9485H264.587V45.3885C264.24 45.9218 263.814 46.3418 263.307 46.6485C262.8 46.9552 262.287 47.1085 261.767 47.1085H260.547ZM261.787 46.1485C262.347 46.1485 262.88 45.9485 263.387 45.5485C263.907 45.1485 264.3 44.6218 264.567 43.9685V42.8885C264.274 42.6085 263.88 42.3818 263.387 42.2085C262.907 42.0352 262.414 41.9485 261.907 41.9485H260.607C259.98 41.9485 259.48 42.1085 259.107 42.4285C258.734 42.7352 258.547 43.1485 258.547 43.6685V44.4285C258.547 44.9485 258.727 45.3685 259.087 45.6885C259.447 45.9952 259.934 46.1485 260.547 46.1485H261.787ZM268.764 36.9685H269.804V38.5885C270.097 38.0818 270.517 37.6818 271.064 37.3885C271.611 37.0818 272.197 36.9285 272.824 36.9285H273.564V37.8885H272.804C271.937 37.8885 271.224 38.1685 270.664 38.7285C270.117 39.2885 269.844 40.0152 269.844 40.9085V46.9485H268.764V36.9685ZM278.325 47.1085C277.338 47.1085 276.538 46.7685 275.925 46.0885C275.311 45.3952 275.005 44.4885 275.005 43.3685V40.6885C275.005 39.5285 275.325 38.5952 275.965 37.8885C276.618 37.1685 277.471 36.8085 278.525 36.8085H280.045C280.511 36.8085 280.965 36.9352 281.405 37.1885C281.858 37.4285 282.218 37.7552 282.485 38.1685V32.9485H283.545V46.9485H282.505V45.2685C282.171 45.8418 281.758 46.2952 281.265 46.6285C280.785 46.9485 280.278 47.1085 279.745 47.1085H278.325ZM279.725 46.1485C280.351 46.1485 280.931 45.8752 281.465 45.3285C281.998 44.7685 282.338 44.0952 282.485 43.3085V40.0685C282.351 39.3885 282.058 38.8352 281.605 38.4085C281.151 37.9818 280.625 37.7685 280.025 37.7685H278.545C277.798 37.7685 277.198 38.0352 276.745 38.5685C276.305 39.1018 276.085 39.8085 276.085 40.6885V43.3685C276.085 44.1952 276.291 44.8685 276.705 45.3885C277.131 45.8952 277.678 46.1485 278.345 46.1485H279.725Z" fill="#FCB433"/>
<defs>
<linearGradient id="paint0_linear_734_309" x1="501.027" y1="57.6796" x2="394.786" y2="72.7202" gradientUnits="userSpaceOnUse">
<stop stop-color="#FCB433"/>
<stop offset="1" stop-color="#966B1E"/>
</linearGradient>
<linearGradient id="paint1_linear_734_309" x1="501.027" y1="57.6796" x2="394.786" y2="72.7202" gradientUnits="userSpaceOnUse">
<stop stop-color="#FCB433"/>
<stop offset="1" stop-color="#966B1E"/>
</linearGradient>
<linearGradient id="paint2_linear_734_309" x1="180.151" y1="51.013" x2="153.318" y2="21.369" gradientUnits="userSpaceOnUse">
<stop stop-color="#FCB433"/>
<stop offset="1" stop-color="#966B1E"/>
</linearGradient>
<linearGradient id="paint3_linear_734_309" x1="173.061" y1="37.2464" x2="167.708" y2="48.0867" gradientUnits="userSpaceOnUse">
<stop stop-color="#FCB433"/>
<stop offset="1" stop-color="#966B1E"/>
</linearGradient>
<linearGradient id="paint4_linear_734_309" x1="174.096" y1="35.8697" x2="165.918" y2="51.9305" gradientUnits="userSpaceOnUse">
<stop stop-color="#FCB433"/>
<stop offset="1" stop-color="#966B1E"/>
</linearGradient>
</defs>
</svg>
