<svg width="113" height="59" viewBox="0 0 113 59" fill="none" xmlns="http://www.w3.org/2000/svg">
<path d="M29.632 11.896H24.72L23.568 15H22.352L26.656 3.8H27.2C27.552 3.8 27.808 4.01333 27.968 4.44L30.432 10.904H30.448V10.936L32 15H30.784L29.632 11.896ZM25.088 10.904H29.264L27.184 5.336H27.168L25.088 10.904ZM35.9174 15.128C35.0427 15.128 34.3387 14.8667 33.8054 14.344C33.272 13.8107 33.0054 13.1067 33.0054 12.232V9.944C33.0054 9.02667 33.272 8.29067 33.8054 7.736C34.3387 7.17067 35.0374 6.888 35.9014 6.888H37.2134C38.0347 6.888 38.696 7.11733 39.1974 7.576C39.6987 8.03467 39.9494 8.63733 39.9494 9.384H38.8294C38.8294 8.94667 38.68 8.59467 38.3814 8.328C38.0934 8.05067 37.704 7.912 37.2134 7.912H35.9014C35.3787 7.912 34.9574 8.09867 34.6374 8.472C34.3174 8.84533 34.1574 9.336 34.1574 9.944V12.232C34.1574 12.7973 34.3174 13.2507 34.6374 13.592C34.968 13.9333 35.3947 14.104 35.9174 14.104H37.2294C37.7307 14.104 38.1307 13.928 38.4294 13.576C38.7387 13.224 38.8934 12.7547 38.8934 12.168H40.0134C40.0134 13.0533 39.7574 13.768 39.2454 14.312C38.7334 14.856 38.0614 15.128 37.2294 15.128H35.9174ZM44.4955 15.128C43.6208 15.128 42.9168 14.8667 42.3835 14.344C41.8502 13.8107 41.5835 13.1067 41.5835 12.232V9.944C41.5835 9.02667 41.8502 8.29067 42.3835 7.736C42.9168 7.17067 43.6155 6.888 44.4795 6.888H45.7915C46.6128 6.888 47.2742 7.11733 47.7755 7.576C48.2768 8.03467 48.5275 8.63733 48.5275 9.384H47.4075C47.4075 8.94667 47.2582 8.59467 46.9595 8.328C46.6715 8.05067 46.2822 7.912 45.7915 7.912H44.4795C43.9568 7.912 43.5355 8.09867 43.2155 8.472C42.8955 8.84533 42.7355 9.336 42.7355 9.944V12.232C42.7355 12.7973 42.8955 13.2507 43.2155 13.592C43.5462 13.9333 43.9728 14.104 44.4955 14.104H45.8075C46.3088 14.104 46.7088 13.928 47.0075 13.576C47.3168 13.224 47.4715 12.7547 47.4715 12.168H48.5915C48.5915 13.0533 48.3355 13.768 47.8235 14.312C47.3115 14.856 46.6395 15.128 45.8075 15.128H44.4955ZM53.1376 15.128C52.2416 15.128 51.5216 14.8667 50.9776 14.344C50.4336 13.8107 50.1616 13.1067 50.1616 12.232V9.944C50.1616 9.02667 50.4336 8.29067 50.9776 7.736C51.5216 7.17067 52.2416 6.888 53.1376 6.888H54.4496C55.303 6.888 55.991 7.16 56.5136 7.704C57.0363 8.248 57.2976 8.968 57.2976 9.864V11.272H51.3136V12.232C51.3136 12.7867 51.479 13.24 51.8096 13.592C52.151 13.9333 52.5936 14.104 53.1376 14.104H54.3536C54.887 14.104 55.319 13.96 55.6496 13.672C55.9803 13.3733 56.1456 12.9787 56.1456 12.488H57.2656C57.2656 13.2773 56.999 13.9173 56.4656 14.408C55.9323 14.888 55.2283 15.128 54.3536 15.128H53.1376ZM56.1456 10.28V9.864C56.1456 9.27733 55.991 8.808 55.6816 8.456C55.3723 8.09333 54.9616 7.912 54.4496 7.912H53.1376C52.5936 7.912 52.151 8.09867 51.8096 8.472C51.479 8.84533 51.3136 9.336 51.3136 9.944V10.28H56.1456ZM61.5818 15.128C60.7711 15.128 60.1204 14.8987 59.6298 14.44C59.1391 13.9813 58.8938 13.3787 58.8938 12.632H60.0138C60.0138 13.08 60.1578 13.4427 60.4457 13.72C60.7338 13.9973 61.1124 14.136 61.5818 14.136H62.9738C63.4324 14.136 63.8058 14.0453 64.0938 13.864C64.3818 13.672 64.5258 13.4267 64.5258 13.128V12.584C64.5258 12.3813 64.4458 12.2053 64.2858 12.056C64.1258 11.896 63.9178 11.7893 63.6618 11.736L60.8938 11.256C60.3391 11.16 59.8911 10.952 59.5498 10.632C59.2191 10.3013 59.0538 9.91733 59.0538 9.48V8.952C59.0538 8.33333 59.2884 7.83733 59.7578 7.464C60.2271 7.08 60.8458 6.888 61.6138 6.888H62.9898C63.7364 6.888 64.3391 7.10133 64.7978 7.528C65.2564 7.944 65.4858 8.49867 65.4858 9.192H64.3658C64.3551 8.79733 64.2218 8.48267 63.9658 8.248C63.7204 8.00267 63.3951 7.88 62.9898 7.88H61.6138C61.1871 7.88 60.8458 7.98133 60.5898 8.184C60.3338 8.376 60.2057 8.632 60.2057 8.952V9.416C60.2057 9.61867 60.2911 9.8 60.4618 9.96C60.6431 10.12 60.8724 10.2213 61.1498 10.264L63.9018 10.744C64.4351 10.84 64.8618 11.048 65.1818 11.368C65.5124 11.688 65.6778 12.072 65.6778 12.52V13.16C65.6778 13.7467 65.4271 14.2213 64.9258 14.584C64.4351 14.9467 63.7844 15.128 62.9738 15.128H61.5818ZM69.8943 15.128C69.0836 15.128 68.4329 14.8987 67.9423 14.44C67.4516 13.9813 67.2063 13.3787 67.2063 12.632H68.3263C68.3263 13.08 68.4703 13.4427 68.7582 13.72C69.0463 13.9973 69.4249 14.136 69.8943 14.136H71.2863C71.7449 14.136 72.1183 14.0453 72.4063 13.864C72.6943 13.672 72.8383 13.4267 72.8383 13.128V12.584C72.8383 12.3813 72.7583 12.2053 72.5983 12.056C72.4383 11.896 72.2303 11.7893 71.9743 11.736L69.2063 11.256C68.6516 11.16 68.2036 10.952 67.8623 10.632C67.5316 10.3013 67.3663 9.91733 67.3663 9.48V8.952C67.3663 8.33333 67.6009 7.83733 68.0703 7.464C68.5396 7.08 69.1583 6.888 69.9263 6.888H71.3023C72.0489 6.888 72.6516 7.10133 73.1103 7.528C73.5689 7.944 73.7983 8.49867 73.7983 9.192H72.6783C72.6676 8.79733 72.5343 8.48267 72.2783 8.248C72.0329 8.00267 71.7076 7.88 71.3023 7.88H69.9263C69.4996 7.88 69.1583 7.98133 68.9023 8.184C68.6463 8.376 68.5182 8.632 68.5182 8.952V9.416C68.5182 9.61867 68.6036 9.8 68.7743 9.96C68.9556 10.12 69.1849 10.2213 69.4623 10.264L72.2143 10.744C72.7476 10.84 73.1743 11.048 73.4943 11.368C73.8249 11.688 73.9903 12.072 73.9903 12.52V13.16C73.9903 13.7467 73.7396 14.2213 73.2383 14.584C72.7476 14.9467 72.0969 15.128 71.2863 15.128H69.8943ZM82.299 15C81.5097 15 80.9443 14.8347 80.603 14.504C80.2617 14.1627 80.091 13.6027 80.091 12.824V3.8H81.243V12.824C81.243 13.2293 81.323 13.5227 81.483 13.704C81.6537 13.8853 81.9257 13.976 82.299 13.976H82.843V15H82.299ZM87.0283 15.128C86.1323 15.128 85.4123 14.8667 84.8683 14.344C84.3243 13.8107 84.0523 13.1067 84.0523 12.232V9.944C84.0523 9.02667 84.3243 8.29067 84.8683 7.736C85.4123 7.17067 86.1323 6.888 87.0283 6.888H88.3403C89.1936 6.888 89.8816 7.16 90.4043 7.704C90.9269 8.248 91.1883 8.968 91.1883 9.864V11.272H85.2043V12.232C85.2043 12.7867 85.3696 13.24 85.7003 13.592C86.0416 13.9333 86.4843 14.104 87.0283 14.104H88.2443C88.7776 14.104 89.2096 13.96 89.5403 13.672C89.8709 13.3733 90.0363 12.9787 90.0363 12.488H91.1562C91.1562 13.2773 90.8896 13.9173 90.3563 14.408C89.8229 14.888 89.1189 15.128 88.2443 15.128H87.0283ZM90.0363 10.28V9.864C90.0363 9.27733 89.8816 8.808 89.5723 8.456C89.2629 8.09333 88.8523 7.912 88.3403 7.912H87.0283C86.4843 7.912 86.0416 8.09867 85.7003 8.472C85.3696 8.84533 85.2043 9.336 85.2043 9.944V10.28H90.0363ZM95.9684 15C95.5204 15 95.195 14.728 94.9924 14.184L92.2404 7.016H93.4564L95.9204 13.736H95.9364L98.4004 7.016H99.6164L96.5124 15H95.9684ZM103.56 15.128C102.664 15.128 101.944 14.8667 101.4 14.344C100.856 13.8107 100.584 13.1067 100.584 12.232V9.944C100.584 9.02667 100.856 8.29067 101.4 7.736C101.944 7.17067 102.664 6.888 103.56 6.888H104.872C105.725 6.888 106.413 7.16 106.936 7.704C107.458 8.248 107.72 8.968 107.72 9.864V11.272H101.736V12.232C101.736 12.7867 101.901 13.24 102.232 13.592C102.573 13.9333 103.016 14.104 103.56 14.104H104.776C105.309 14.104 105.741 13.96 106.072 13.672C106.402 13.3733 106.568 12.9787 106.568 12.488H107.688C107.688 13.2773 107.421 13.9173 106.888 14.408C106.354 14.888 105.65 15.128 104.776 15.128H103.56ZM106.568 10.28V9.864C106.568 9.27733 106.413 8.808 106.104 8.456C105.794 8.09333 105.384 7.912 104.872 7.912H103.56C103.016 7.912 102.573 8.09867 102.232 8.472C101.901 8.84533 101.736 9.336 101.736 9.944V10.28H106.568ZM111.94 15C111.15 15 110.585 14.8347 110.244 14.504C109.902 14.1627 109.732 13.6027 109.732 12.824V3.8H110.884V12.824C110.884 13.2293 110.964 13.5227 111.124 13.704C111.294 13.8853 111.566 13.976 111.94 13.976H112.484V15H111.94Z" fill="url(#paint0_linear_621_348)"/>
<path opacity="0.75" d="M8.632 53.896H3.72L2.568 57H1.352L5.656 45.8H6.2C6.552 45.8 6.808 46.0133 6.968 46.44L9.432 52.904H9.448V52.936L11 57H9.784L8.632 53.896ZM4.088 52.904H8.264L6.184 47.336H6.168L4.088 52.904ZM14.8054 57.128C14.2614 57.128 13.776 57 13.3494 56.744C12.9227 56.488 12.592 56.1307 12.3574 55.672C12.1227 55.2133 12.0054 54.68 12.0054 54.072V52.152C12.0054 51.512 12.128 50.9467 12.3734 50.456C12.6187 49.9547 12.9654 49.5707 13.4134 49.304C13.8614 49.0267 14.3734 48.888 14.9494 48.888H16.1334C16.496 48.888 16.8427 48.9733 17.1734 49.144C17.5147 49.3147 17.7867 49.5493 17.9894 49.848V45.8H19.1414V57H18.0214V55.816C17.776 56.2107 17.456 56.5307 17.0614 56.776C16.6667 57.0107 16.2827 57.128 15.9094 57.128H14.8054ZM15.8774 56.104C16.2187 56.104 16.5494 55.9973 16.8694 55.784C17.1894 55.56 17.4507 55.272 17.6534 54.92C17.856 54.568 17.968 54.2053 17.9894 53.832V51.816C17.9147 51.2507 17.7014 50.792 17.3494 50.44C17.008 50.088 16.592 49.912 16.1014 49.912H14.9814C14.4374 49.912 13.9947 50.12 13.6534 50.536C13.3227 50.9413 13.1574 51.48 13.1574 52.152V54.072C13.1574 54.6693 13.312 55.16 13.6214 55.544C13.9414 55.9173 14.3467 56.104 14.8374 56.104H15.8774ZM30.3274 48.888C31.0314 48.888 31.586 49.1173 31.9914 49.576C32.4074 50.024 32.6154 50.648 32.6154 51.448V57H31.4634V51.416C31.4634 50.9467 31.3567 50.5787 31.1434 50.312C30.93 50.0453 30.6474 49.912 30.2954 49.912H29.3834C28.9247 49.912 28.546 50.0667 28.2474 50.376C27.9487 50.6853 27.7567 51.1227 27.6714 51.688V57H26.5194V51.512C26.5194 51.0107 26.418 50.6213 26.2154 50.344C26.0234 50.056 25.7567 49.912 25.4154 49.912H24.5034C24.066 49.912 23.682 50.104 23.3514 50.488C23.0207 50.872 22.8127 51.3733 22.7274 51.992V57H21.5754V49.016H22.6954V50.168C22.9087 49.7627 23.1754 49.448 23.4954 49.224C23.8154 49 24.1514 48.888 24.5034 48.888H25.4474C25.8954 48.888 26.2794 49 26.5994 49.224C26.93 49.4373 27.1807 49.752 27.3514 50.168C27.5967 49.7413 27.89 49.4213 28.2314 49.208C28.5727 48.9947 28.946 48.888 29.3514 48.888H30.3274ZM35.8144 47.816C35.5584 47.816 35.3504 47.736 35.1904 47.576C35.0304 47.416 34.9504 47.208 34.9504 46.952C34.9504 46.696 35.0304 46.488 35.1904 46.328C35.3504 46.168 35.5584 46.088 35.8144 46.088C36.0704 46.088 36.2784 46.168 36.4384 46.328C36.5984 46.488 36.6784 46.696 36.6784 46.952C36.6784 47.208 36.5984 47.416 36.4384 47.576C36.2784 47.736 36.0704 47.816 35.8144 47.816ZM35.2384 49.016H36.3904V57H35.2384V49.016ZM39.1066 49.016H40.2266V50.2C40.472 49.816 40.792 49.5013 41.1866 49.256C41.5813 49.0107 41.976 48.888 42.3706 48.888H43.4586C44.1946 48.888 44.7866 49.1387 45.2346 49.64C45.6933 50.1413 45.9226 50.7973 45.9226 51.608V57H44.7706V51.576C44.7706 51.0853 44.648 50.6853 44.4026 50.376C44.1573 50.0667 43.832 49.912 43.4266 49.912H42.4026C41.9013 49.912 41.4426 50.1093 41.0266 50.504C40.6213 50.8987 40.3653 51.4053 40.2586 52.024V57H39.1066V49.016Z" fill="white"/>
<path d="M0.5 12.6667C0.5 13.3247 0.575789 13.7904 0.736202 14.1341C0.887422 14.4581 1.13084 14.7101 1.55328 14.9113C1.99288 15.1206 2.62236 15.2722 3.52697 15.368C4.4269 15.4632 5.56406 15.5 7 15.5C8.43594 15.5 9.5731 15.4632 10.473 15.368C11.3776 15.2722 12.0071 15.1206 12.4467 14.9113C12.8692 14.7101 13.1126 14.4581 13.2638 14.1341C13.4242 13.7904 13.5 13.3247 13.5 12.6667C13.5 12.0086 13.4242 11.543 13.2638 11.1992C13.1126 10.8752 12.8692 10.6232 12.4467 10.4221C12.0071 10.2127 11.3776 10.0611 10.473 9.96537C9.5731 9.87014 8.43594 9.83333 7 9.83333C5.56406 9.83333 4.4269 9.87014 3.52697 9.96537C2.62236 10.0611 1.99288 10.2127 1.55328 10.4221C1.13084 10.6232 0.887422 10.8752 0.736202 11.1992C0.575789 11.543 0.5 12.0086 0.5 12.6667Z" stroke="url(#paint1_linear_621_348)" stroke-linecap="round" stroke-linejoin="round"/>
<path d="M3.682 4C3.682 5.95517 5.18926 7.5 7.00018 7.5C8.81109 7.5 10.3184 5.95517 10.3184 4C10.3184 2.04483 8.81109 0.5 7.00018 0.5C5.18926 0.5 3.682 2.04483 3.682 4Z" stroke="url(#paint2_linear_621_348)"/>
<defs>
<linearGradient id="paint0_linear_621_348" x1="31.3493" y1="1.87671" x2="35.9297" y2="28.0337" gradientUnits="userSpaceOnUse">
<stop stop-color="#727272"/>
<stop offset="1" stop-color="white"/>
</linearGradient>
<linearGradient id="paint1_linear_621_348" x1="1.43836" y1="15.6347" x2="5.7875" y2="6.46437" gradientUnits="userSpaceOnUse">
<stop stop-color="#727272"/>
<stop offset="1" stop-color="white"/>
</linearGradient>
<linearGradient id="paint2_linear_621_348" x1="10.0338" y1="0.438356" x2="3.30009" y2="6.89212" gradientUnits="userSpaceOnUse">
<stop stop-color="#727272"/>
<stop offset="1" stop-color="white"/>
</linearGradient>
</defs>
</svg>
