<svg width="90" height="18" viewBox="0 0 90 18" fill="none" xmlns="http://www.w3.org/2000/svg">
<g opacity="0.6">
<path d="M59.5087 9.09154C59.4651 8.62302 59.3692 8.17411 59.2211 7.74263C59.0729 7.31334 58.8441 6.93198 58.5368 6.59857C58.3232 6.38501 58.077 6.21068 57.7959 6.07557C57.5148 5.94046 57.1944 5.87073 56.837 5.87073H48.4538L46.3574 17.9085H50.3736C50.3235 17.8453 50.2886 17.7712 50.2712 17.6905L51.3412 11.8918C51.4066 11.7 51.5482 11.5998 51.9426 11.3753C52.3349 11.153 52.3283 10.9264 52.3283 10.9264L52.0843 10.8806L52.1802 10.3576L51.8032 10.2879L51.9906 9.27677L55.6232 9.94577L55.4358 10.9569L55.0588 10.8872L54.963 11.4102L54.7145 11.3644C54.6644 11.5409 54.7864 11.8177 55.0436 12.0835C55.3007 12.3494 55.2985 12.6174 55.2985 12.6174L54.3245 17.9063H58.2949L59.3169 11.8874C59.3932 11.4538 59.4564 10.994 59.5022 10.5145C59.5501 10.0329 59.5523 9.55788 59.5087 9.08936V9.09154Z" fill="white"/>
<path d="M11.6541 2.68482H7.70324L5.11003 17.5533C5.06645 17.8082 4.84417 17.9957 4.58485 17.9957H2.26839C1.93716 17.9957 1.68656 17.6971 1.74321 17.3702L4.29284 2.68482H0.533776C0.200363 2.68482 -0.0502413 2.38627 0.00859625 2.05722L0.239588 0.773688C0.285351 0.518725 0.505447 0.333496 0.764768 0.333496H11.8851C12.2163 0.333496 12.4691 0.634221 12.4102 0.961097L12.1792 2.24681C12.1335 2.50177 11.9134 2.687 11.6541 2.687V2.68482Z" fill="white"/>
<path d="M16.3892 6.57459L14.4759 17.5598C14.4323 17.8126 14.2122 17.9956 13.9572 17.9956H11.6146C11.2877 17.9956 11.0393 17.7014 11.096 17.3789L13.0093 6.39372C13.0529 6.14094 13.273 5.95789 13.5279 5.95789H15.8705C16.1974 5.95789 16.4458 6.25207 16.3892 6.57459Z" fill="white"/>
<path d="M31.7916 6.78172L24.8074 17.7473C24.7093 17.902 24.5371 17.9957 24.3541 17.9957H21.9723C21.7325 17.9957 21.5233 17.8388 21.4558 17.6078L18.2786 6.64225C18.1783 6.29794 18.4376 5.95581 18.795 5.95581H21.2924C21.543 5.95581 21.7609 6.13014 21.8154 6.37639L23.3647 13.3475C23.4715 13.8248 24.11 13.9229 24.3541 13.4979L28.5337 6.22603C28.6296 6.06041 28.8061 5.95581 29.0001 5.95581H31.3405C31.7633 5.95581 32.0204 6.42433 31.7938 6.78172H31.7916Z" fill="white"/>
<path d="M32.7664 16.6925C32.5529 16.3089 32.4286 15.8796 32.3894 15.4024C32.3502 14.9252 32.3742 14.4654 32.4592 14.023C32.5354 13.598 32.6705 13.1731 32.8623 12.7504C33.0541 12.3276 33.3286 11.931 33.686 11.5562C33.8473 11.3688 34.0347 11.1966 34.2482 11.0375C34.4618 10.8806 34.6884 10.7455 34.9325 10.6344C35.1744 10.5232 35.4272 10.4383 35.6865 10.3794C35.9458 10.3206 36.2117 10.2944 36.4863 10.3031H41.8034C41.8121 10.1419 41.8121 9.97191 41.8034 9.79104C41.7947 9.61235 41.7729 9.43802 41.7402 9.26804C41.7054 9.09807 41.6596 8.93899 41.5986 8.78863C41.5397 8.64044 41.4569 8.51405 41.3567 8.41163C41.3066 8.36151 41.2673 8.331 41.2412 8.32228C41.215 8.31357 41.178 8.30921 41.1257 8.30921H35.0415L35.4642 5.95789H42.5836C42.941 5.95789 43.2548 6.0189 43.5228 6.14312C43.7908 6.26733 44.0262 6.43077 44.2267 6.63561C44.4271 6.84045 44.5949 7.07362 44.7322 7.33948C44.8673 7.60316 44.9828 7.87555 45.0765 8.15667C45.2051 8.71889 45.2661 9.33124 45.2618 9.99153C45.2574 10.6518 45.1964 11.3143 45.0765 11.9789C45.0003 12.4387 44.8913 12.9203 44.7497 13.4237C44.608 13.9271 44.4315 14.4174 44.2201 14.8925C44.0066 15.3697 43.7516 15.8164 43.4531 16.2348C43.1545 16.6532 42.8058 17.0063 42.4049 17.2961C42.1325 17.5009 41.8339 17.6687 41.5092 17.8017C41.1845 17.9346 40.8446 18 40.4872 18H35.133C34.5969 18 34.1175 17.8736 33.6947 17.623C33.272 17.3724 32.9647 17.0629 32.7686 16.6968L32.7664 16.6925ZM37.1117 12.6545C36.9156 12.6545 36.7674 12.6806 36.6649 12.7307C36.5625 12.7809 36.4514 12.8637 36.3337 12.9726C36.24 13.0925 36.1485 13.2428 36.0591 13.4259C35.9698 13.6089 35.9044 13.8072 35.8608 14.0208C35.8172 14.2431 35.8107 14.4545 35.8347 14.6593C35.8587 14.8641 35.911 15.0254 35.9872 15.1453C36.0635 15.2651 36.1419 15.3501 36.2226 15.4002C36.3032 15.4503 36.434 15.4765 36.6126 15.4765H39.8335C39.8836 15.4765 39.9293 15.4721 39.9686 15.4634C40.0078 15.4547 40.0688 15.4242 40.1538 15.3741C40.3586 15.2302 40.5373 15.045 40.6899 14.8184C40.8424 14.5918 40.9732 14.352 41.0799 14.0971C41.1867 13.8421 41.2739 13.585 41.3414 13.33C41.409 13.075 41.4657 12.8484 41.5071 12.6523H37.1117V12.6545Z" fill="white"/>
<path d="M64.1776 7.90832H61.3403C61.2597 7.90832 61.1987 7.8364 61.2117 7.75578L61.2618 7.4703C61.2727 7.40711 61.3272 7.36353 61.3904 7.36353H64.2299C64.3105 7.36353 64.3715 7.43544 64.3584 7.51607L64.3083 7.80154C64.2974 7.86255 64.243 7.90832 64.1798 7.90832H64.1776Z" fill="white"/>
<path d="M65.2167 9.26152H62.5516C62.4187 9.26152 62.3185 9.14167 62.3424 9.01092L62.4209 8.56201C62.4383 8.45959 62.5277 8.3855 62.6301 8.3855H65.2974C65.4303 8.3855 65.5306 8.50535 65.5066 8.6361L65.426 9.08501C65.4085 9.18743 65.3192 9.26152 65.2167 9.26152Z" fill="white"/>
<path d="M65.3363 14.3151H62.56C62.4598 14.3151 62.3835 14.4066 62.4009 14.5047L62.4576 14.825C62.4707 14.9013 62.5382 14.9579 62.6167 14.9579H65.3951C65.4953 14.9579 65.5716 14.8664 65.5542 14.7683L65.4975 14.448C65.4845 14.3717 65.4169 14.3151 65.3384 14.3151H65.3363Z" fill="white"/>
<path d="M63.9305 13.293H61.0932C61.0126 13.293 60.9516 13.3649 60.9647 13.4455L61.0148 13.731C61.0257 13.7942 61.0802 13.8378 61.1433 13.8378H63.9828C64.0634 13.8378 64.1245 13.7658 64.1114 13.6852L64.0613 13.3997C64.0504 13.3387 63.9959 13.293 63.9327 13.293H63.9305Z" fill="white"/>
<path d="M64.9707 11.9397H62.3055C62.1726 11.9397 62.0724 12.0596 62.0963 12.1903L62.1748 12.6392C62.1922 12.7416 62.2816 12.8157 62.384 12.8157H65.0513C65.1842 12.8157 65.2845 12.6959 65.2605 12.5651L65.1799 12.1162C65.1624 12.0138 65.0731 11.9397 64.9707 11.9397Z" fill="white"/>
<path d="M65.5824 6.88626H62.8061C62.7059 6.88626 62.6296 6.79474 62.647 6.69668L62.7037 6.37634C62.7168 6.30007 62.7843 6.24341 62.8628 6.24341H65.6412C65.7414 6.24341 65.8177 6.33493 65.8003 6.433L65.7436 6.75333C65.7305 6.8296 65.663 6.88626 65.5845 6.88626H65.5824Z" fill="white"/>
<path d="M60.7055 10.7216H70.6774L70.6011 11.1509C70.5553 11.4145 70.3265 11.6063 70.0585 11.6063H61.2023C60.8602 11.6063 60.6009 11.2969 60.6597 10.9613L60.7011 10.7237L60.7055 10.7216Z" fill="white"/>
<path d="M70.7902 10.2422L70.7641 10.3947H60.79L60.8511 10.0504C60.8968 9.78674 61.1256 9.59497 61.3937 9.59497H70.2498C70.5919 9.59497 70.8513 9.90441 70.7924 10.24L70.7902 10.2422Z" fill="white"/>
<path d="M72.3115 5.07099L72.2134 5.61142C72.196 5.70949 72.111 5.77922 72.0129 5.77922H61.8209C61.6945 5.77922 61.5965 5.66372 61.6183 5.53951L61.712 4.99908C61.7294 4.90101 61.8144 4.8291 61.9146 4.8291H72.1088C72.2374 4.8291 72.3332 4.9446 72.3093 5.07099H72.3115Z" fill="white"/>
<path d="M73.8132 3.82453L73.7566 4.14051C73.7435 4.2146 73.6781 4.26908 73.604 4.26908H63.3074C63.2116 4.26908 63.1375 4.18191 63.1549 4.08603L63.2094 3.77005C63.2225 3.69596 63.2878 3.64148 63.3619 3.64148H73.6607C73.7587 3.64148 73.8306 3.72865 73.8132 3.82453Z" fill="white"/>
<path d="M72.0654 16.1303L71.9673 15.5899C71.9499 15.4919 71.8649 15.4221 71.7668 15.4221H61.5748C61.4485 15.4221 61.3504 15.5376 61.3722 15.6618L61.4659 16.2023C61.4833 16.3003 61.5683 16.3722 61.6685 16.3722H71.8627C71.9913 16.3722 72.0872 16.2567 72.0632 16.1303H72.0654Z" fill="white"/>
<path d="M73.5671 17.3768L73.5105 17.0608C73.4974 16.9867 73.432 16.9323 73.3579 16.9323H63.0613C62.9655 16.9323 62.8914 17.0194 62.9088 17.1153L62.9633 17.4313C62.9764 17.5054 63.0417 17.5599 63.1158 17.5599H73.4146C73.5126 17.5599 73.5846 17.4727 73.5671 17.3768Z" fill="white"/>
<path d="M79.1543 3.61966C78.9712 3.23176 79.2545 2.78503 79.6816 2.78503H81.5383C81.7758 2.78503 81.9894 2.92886 82.0787 3.15113L82.4993 4.19278H79.4245L79.1543 3.61966Z" fill="white"/>
<path d="M78.9056 4.9555L78.8947 4.93153C78.8402 4.81603 78.9252 4.68311 79.0516 4.68311H81.7015C81.7734 4.68311 81.8366 4.72669 81.8627 4.79206L81.8715 4.81603C81.9172 4.92935 81.8344 5.05574 81.7102 5.05574H79.0625C78.9949 5.05574 78.9339 5.01652 78.9056 4.9555Z" fill="white"/>
<path d="M80.2915 6.03416L80.1847 5.8097C80.1303 5.69421 80.2153 5.56128 80.3416 5.56128H82.9305C83.0024 5.56128 83.0656 5.60486 83.0918 5.67024L83.1833 5.89469C83.229 6.00801 83.1462 6.1344 83.022 6.1344H80.4484C80.3809 6.1344 80.3199 6.09518 80.2915 6.03416Z" fill="white"/>
<path d="M79.8998 7.05849L79.7756 6.79699C79.7211 6.6815 79.8061 6.54857 79.9325 6.54857H82.4843C82.5366 6.54857 82.5889 6.57254 82.6216 6.61394C82.8438 6.91031 83.3058 6.93428 83.5499 6.6183V6.61394C83.5848 6.57036 83.6371 6.54639 83.6915 6.54639H86.191C86.3392 6.54639 86.4199 6.71854 86.324 6.83186L86.1061 7.09336C86.0734 7.13258 86.0232 7.15655 85.9731 7.15655H80.0589C79.9913 7.15655 79.9303 7.11733 79.902 7.05631L79.8998 7.05849Z" fill="white"/>
<path d="M81.1652 7.88221C81.1107 7.76672 81.1957 7.63379 81.3221 7.63379H86.1577C86.3059 7.63379 86.3865 7.80594 86.2906 7.91926C86.2579 7.95849 86.2078 7.98246 86.1577 7.98246H81.3221C81.2546 7.98246 81.1935 7.94323 81.1652 7.88221Z" fill="white"/>
<path d="M80.9145 10.6366H83.7627C83.8302 10.6366 83.8891 10.6736 83.9196 10.7347L84.1767 11.2642C84.2334 11.3797 84.1484 11.5148 84.0198 11.5148H80.4525C80.3021 11.5148 80.2237 11.3383 80.3218 11.2272L80.7837 10.6976C80.8164 10.6606 80.8644 10.6388 80.9145 10.6388V10.6366Z" fill="white"/>
<path d="M80.9285 9.70393L80.6408 9.09376C80.5863 8.97827 80.6713 8.84534 80.7977 8.84534H84.5742C84.7224 8.84534 84.803 9.01749 84.7071 9.13081L84.1972 9.74098C84.1645 9.7802 84.1144 9.80417 84.0643 9.80417H81.0854C81.0178 9.80417 80.9568 9.76495 80.9285 9.70393Z" fill="white"/>
<path d="M87.701 6.1344H85.1557C85.0119 6.1344 84.9291 5.96878 85.0185 5.85329L85.1928 5.62883C85.2255 5.58525 85.2756 5.56128 85.3301 5.56128H87.8884C88.0366 5.56128 88.1172 5.73343 88.0214 5.84675L87.8339 6.0712C87.8013 6.11043 87.7511 6.1344 87.701 6.1344Z" fill="white"/>
<path d="M87.8799 4.96858L87.8603 4.99255C87.8276 5.03177 87.7775 5.05574 87.7273 5.05574H85.1167C84.9729 5.05574 84.8901 4.89013 84.9794 4.77463L84.9968 4.75066C85.0295 4.70708 85.0796 4.68311 85.1341 4.68311H87.7448C87.8929 4.68311 87.9736 4.85526 87.8777 4.96858H87.8799Z" fill="white"/>
<path d="M89.7754 3.74607L89.4005 4.19497H86.3018L87.2148 3.01386C87.326 2.87222 87.4959 2.78723 87.6768 2.78723H89.3243C89.8189 2.78723 90.0892 3.36471 89.7732 3.74607H89.7754Z" fill="white"/>
<path d="M87.9409 17.0935C88.1392 17.5119 87.8341 17.9957 87.3699 17.9957H85.3629C85.1058 17.9957 84.8748 17.8388 84.7767 17.6012L84.3213 16.4746H87.6467L87.9387 17.0957L87.9409 17.0935Z" fill="white"/>
<path d="M86.3799 15.6443L86.4061 15.6988C86.4605 15.8143 86.3755 15.9472 86.2492 15.9472H83.353C83.2811 15.9472 83.2179 15.9036 83.1918 15.8383L83.17 15.7838C83.1242 15.6705 83.207 15.5441 83.3312 15.5441H86.2252C86.2927 15.5441 86.3537 15.5833 86.3821 15.6443H86.3799Z" fill="white"/>
<path d="M86.7057 14.4763L86.8343 14.7487C86.8888 14.8642 86.8038 14.9972 86.6774 14.9972H83.8445C83.7726 14.9972 83.7094 14.9536 83.6832 14.8882L83.5743 14.6158C83.5285 14.5025 83.6113 14.3761 83.7355 14.3761H86.5488C86.6164 14.3761 86.6774 14.4153 86.7057 14.4763Z" fill="white"/>
<path d="M85.3063 13.3693L85.4545 13.6809C85.509 13.7964 85.424 13.9293 85.2976 13.9293H82.5126C82.4581 13.9293 82.4036 13.9054 82.371 13.8618C82.1334 13.5393 81.63 13.5131 81.3664 13.8531L81.3598 13.8618C81.3271 13.9054 81.277 13.9293 81.2225 13.9293H78.4812C78.333 13.9293 78.2523 13.7572 78.3482 13.6439L78.6075 13.3322C78.6402 13.293 78.6903 13.269 78.7405 13.269H85.1516C85.2191 13.269 85.2802 13.3083 85.3085 13.3693H85.3063Z" fill="white"/>
<path d="M85.7618 12.478L85.7748 12.5064C85.8293 12.6219 85.7443 12.7548 85.6179 12.7548H80.3356C80.1875 12.7548 80.1068 12.5826 80.2027 12.4693L80.2267 12.441C80.2594 12.4018 80.3095 12.3778 80.3596 12.3778H85.6049C85.6724 12.3778 85.7334 12.417 85.7618 12.478Z" fill="white"/>
<path d="M78.6922 14.3782H81.4793C81.6231 14.3782 81.7059 14.5438 81.6166 14.6593L81.4074 14.9317C81.3747 14.9753 81.3246 14.9992 81.2701 14.9992H78.4655C78.3173 14.9992 78.2367 14.8271 78.3326 14.7138L78.5592 14.4414C78.5919 14.4021 78.642 14.3782 78.6922 14.3782Z" fill="white"/>
<path d="M76.6636 15.6595L76.7094 15.6051C76.7421 15.5658 76.7922 15.5419 76.8423 15.5419H79.6992C79.8431 15.5419 79.9259 15.7075 79.8365 15.823L79.7951 15.8775C79.7624 15.921 79.7123 15.945 79.6578 15.945H76.7966C76.6484 15.945 76.5678 15.7729 76.6636 15.6595Z" fill="white"/>
<path d="M76.4563 16.9584L76.8616 16.4724H80.211L79.2217 17.7494C79.1018 17.9041 78.9166 17.9935 78.7226 17.9935H76.9401C76.404 17.9935 76.112 17.3681 76.4563 16.9562V16.9584Z" fill="white"/>
<path d="M14.5975 7.19976e-05C14.665 0.0153262 14.7805 0.0371179 14.896 0.0632679C15.3776 0.174405 15.857 0.285543 16.3386 0.39886C16.635 0.468593 16.9314 0.531789 17.2234 0.612418C17.5045 0.690868 17.6766 0.982877 17.6287 1.26399C17.5873 1.50588 17.5241 1.74341 17.4674 1.98312C17.365 2.42767 17.2604 2.87222 17.158 3.31677C17.0817 3.64582 16.7745 3.85938 16.4389 3.78529C16.027 3.69594 15.6173 3.59352 15.2055 3.49982C14.7871 3.40175 14.3709 3.30587 13.9525 3.20999C13.5951 3.12936 13.4077 2.78069 13.4948 2.44074C13.5885 2.07682 13.6648 1.71072 13.7498 1.3468C13.8173 1.05261 13.8914 0.758423 13.9568 0.464235C14.0156 0.18966 14.288 -0.00428634 14.5975 7.19976e-05Z" fill="white"/>
<path d="M19.3703 1.78484C19.3507 1.86983 19.3224 2.00711 19.2919 2.14004C19.2134 2.47563 19.135 2.81123 19.0565 3.14682C19.0173 3.31897 18.9846 3.49331 18.9367 3.66328C18.8626 3.9226 18.5575 4.01413 18.3723 3.85723C18.174 3.68725 17.9866 3.50202 17.7926 3.32333C17.7163 3.25142 17.6401 3.17951 17.5594 3.11195C17.5289 3.0858 17.5267 3.06401 17.5333 3.02914C17.6096 2.70445 17.6836 2.37975 17.7599 2.05506C17.7839 1.95263 17.8057 1.85021 17.8362 1.74779C17.8427 1.72382 17.8667 1.69331 17.8885 1.68678C18.1718 1.59743 18.4573 1.51244 18.7405 1.42745C18.7928 1.4122 18.8473 1.39913 18.8996 1.38169C19.1263 1.30542 19.3812 1.49065 19.3681 1.78484H19.3703Z" fill="white"/>
</g>
</svg>
