<svg width="16" height="16" viewBox="0 0 16 16" fill="none" xmlns="http://www.w3.org/2000/svg">
<path fill-rule="evenodd" clip-rule="evenodd" d="M4.5277 4.16273C5.48387 4.04575 6.63002 3.99996 8 3.99996C9.36998 3.99996 10.5161 4.04576 11.4723 4.16273C11.366 3.22335 10.9626 2.52455 10.4178 2.04033C9.77058 1.46501 8.89347 1.16663 8 1.16663C7.10654 1.16663 6.22942 1.46501 5.58218 2.04033C5.03744 2.52455 4.63402 3.22335 4.5277 4.16273ZM12.49 4.33006C12.4117 3.02286 11.8771 1.99956 11.0822 1.29292C10.2294 0.534908 9.10653 0.166626 8 0.166626C6.89346 0.166626 5.77058 0.534908 4.91782 1.29292C4.12286 1.99956 3.58827 3.02286 3.50996 4.33006C0.71648 4.93047 0 6.48031 0 9.99996C0 14.941 1.412 16 8 16C14.588 16 16 14.941 16 9.99996C16 6.48031 15.2835 4.93047 12.49 4.33006ZM1 9.99996C1 12.4619 1.37644 13.488 2.1295 14.0528C2.539 14.36 3.15721 14.6079 4.1351 14.7709C5.11162 14.9337 6.36969 15 8 15C9.63031 15 10.8884 14.9337 11.8649 14.7709C12.8428 14.6079 13.461 14.36 13.8705 14.0528C14.6236 13.488 15 12.4619 15 9.99996C15 7.53801 14.6236 6.51188 13.8705 5.94708C13.461 5.63996 12.8428 5.39202 11.8649 5.22902C10.8884 5.06626 9.63031 4.99996 8 4.99996C6.36969 4.99996 5.11162 5.06626 4.1351 5.22902C3.15721 5.39202 2.539 5.63996 2.1295 5.94708C1.37644 6.51188 1 7.53801 1 9.99996Z" fill="url(#paint0_linear_621_338)"/>
<circle cx="2" cy="2" r="1.5" transform="matrix(-1 0 0 1 10 8)" stroke="url(#paint1_linear_621_338)"/>
<defs>
<linearGradient id="paint0_linear_621_338" x1="1.64384" y1="1.03421" x2="14.9816" y2="14.5671" gradientUnits="userSpaceOnUse">
<stop stop-color="#727272"/>
<stop offset="1" stop-color="white"/>
</linearGradient>
<linearGradient id="paint1_linear_621_338" x1="0.410959" y1="0.219178" x2="3.78082" y2="3.60274" gradientUnits="userSpaceOnUse">
<stop stop-color="#727272"/>
<stop offset="1" stop-color="white"/>
</linearGradient>
</defs>
</svg>
