<svg width="76" height="14" viewBox="0 0 76 14" fill="none" xmlns="http://www.w3.org/2000/svg">
<path d="M0.177703 0.399999H1.7617L8.4217 10.246V0.399999H10.0957V13H8.5297L1.8517 3.19V13H0.177703V0.399999ZM15.8416 13.144C14.7856 13.144 13.9336 12.844 13.2856 12.244C12.6496 11.632 12.3316 10.834 12.3316 9.85V7.366C12.3316 6.31 12.6496 5.464 13.2856 4.828C13.9336 4.192 14.7856 3.874 15.8416 3.874H17.3176C18.3376 3.874 19.1596 4.186 19.7836 4.81C20.4076 5.434 20.7196 6.262 20.7196 7.294V8.986H14.0056V9.85C14.0056 10.402 14.1736 10.846 14.5096 11.182C14.8456 11.518 15.2896 11.686 15.8416 11.686H17.2276C17.7676 11.686 18.2056 11.548 18.5416 11.272C18.8776 10.984 19.0456 10.606 19.0456 10.138H20.6836C20.6836 11.038 20.3656 11.764 19.7296 12.316C19.0936 12.868 18.2536 13.144 17.2096 13.144H15.8416ZM19.0456 7.654V7.294C19.0456 6.694 18.8836 6.214 18.5596 5.854C18.2476 5.494 17.8336 5.314 17.3176 5.314H15.8416C15.2896 5.314 14.8456 5.506 14.5096 5.89C14.1736 6.262 14.0056 6.76 14.0056 7.384V7.654H19.0456ZM34.2295 4.018L32.3395 11.83C32.2435 12.238 32.0935 12.538 31.8895 12.73C31.6855 12.91 31.4215 13 31.0975 13H30.3235L28.1455 6.574L25.9135 13H25.1395C24.8155 13 24.5515 12.91 24.3475 12.73C24.1435 12.538 23.9935 12.238 23.8975 11.83L21.9895 4.018H23.7535L25.2295 10.93L27.5155 4.252H28.1455C28.3615 4.252 28.5355 4.306 28.6675 4.414C28.7995 4.51 28.9015 4.666 28.9735 4.882L30.9895 10.948L32.4655 4.018H34.2295ZM43.6071 13.144C42.7311 13.144 42.0231 12.85 41.4831 12.262C40.9551 11.674 40.6911 10.9 40.6911 9.94V4.018H42.3651V9.976C42.3651 10.48 42.4911 10.888 42.7431 11.2C42.9951 11.512 43.3251 11.668 43.7331 11.668H44.8131C45.3171 11.668 45.7791 11.464 46.1991 11.056C46.6191 10.648 46.8951 10.132 47.0271 9.508V4.018H48.7011V13H47.1171V11.704C46.8291 12.124 46.4691 12.472 46.0371 12.748C45.6051 13.012 45.1791 13.144 44.7591 13.144H43.6071ZM53.9949 13.144C53.0229 13.144 52.2429 12.88 51.6549 12.352C51.0669 11.812 50.7729 11.104 50.7729 10.228H52.4109C52.4109 10.672 52.5549 11.032 52.8429 11.308C53.1309 11.584 53.5149 11.722 53.9949 11.722H55.5789C56.0349 11.722 56.4009 11.638 56.6769 11.47C56.9529 11.29 57.0909 11.056 57.0909 10.768V10.246C57.0909 10.054 57.0069 9.886 56.8389 9.742C56.6829 9.586 56.4789 9.484 56.2269 9.436L53.1129 8.896C52.4529 8.776 51.9249 8.53 51.5289 8.158C51.1329 7.774 50.9349 7.33 50.9349 6.826V6.232C50.9349 5.524 51.2169 4.954 51.7809 4.522C52.3449 4.09 53.1009 3.874 54.0489 3.874H55.5609C56.4609 3.874 57.1809 4.12 57.7209 4.612C58.2729 5.104 58.5489 5.758 58.5489 6.574H56.9109C56.8989 6.19 56.7669 5.884 56.5149 5.656C56.2749 5.416 55.9569 5.296 55.5609 5.296H54.0669C53.6229 5.296 53.2689 5.386 53.0049 5.566C52.7529 5.746 52.6269 5.986 52.6269 6.286V6.736C52.6269 6.928 52.7109 7.096 52.8789 7.24C53.0469 7.384 53.2629 7.486 53.5269 7.546L56.6769 8.104C57.3009 8.212 57.8049 8.452 58.1889 8.824C58.5849 9.196 58.7829 9.628 58.7829 10.12V10.822C58.7829 11.518 58.4889 12.082 57.9009 12.514C57.3129 12.934 56.5389 13.144 55.5789 13.144H53.9949ZM63.9178 13.144C62.8618 13.144 62.0098 12.844 61.3618 12.244C60.7258 11.632 60.4078 10.834 60.4078 9.85V7.366C60.4078 6.31 60.7258 5.464 61.3618 4.828C62.0098 4.192 62.8618 3.874 63.9178 3.874H65.3938C66.4138 3.874 67.2358 4.186 67.8598 4.81C68.4838 5.434 68.7958 6.262 68.7958 7.294V8.986H62.0818V9.85C62.0818 10.402 62.2498 10.846 62.5858 11.182C62.9218 11.518 63.3658 11.686 63.9178 11.686H65.3038C65.8438 11.686 66.2818 11.548 66.6178 11.272C66.9538 10.984 67.1218 10.606 67.1218 10.138H68.7598C68.7598 11.038 68.4418 11.764 67.8058 12.316C67.1698 12.868 66.3298 13.144 65.2858 13.144H63.9178ZM67.1218 7.654V7.294C67.1218 6.694 66.9598 6.214 66.6358 5.854C66.3238 5.494 65.9098 5.314 65.3938 5.314H63.9178C63.3658 5.314 62.9218 5.506 62.5858 5.89C62.2498 6.262 62.0818 6.76 62.0818 7.384V7.654H67.1218ZM70.8577 4.018H72.4597V5.332C72.6997 4.936 73.0477 4.612 73.5037 4.36C73.9717 4.108 74.4577 3.982 74.9617 3.982H75.8977V5.476H74.9617C74.2297 5.476 73.6417 5.704 73.1977 6.16C72.7537 6.604 72.5317 7.192 72.5317 7.924V13H70.8577V4.018Z" fill="white"/>
</svg>
