<svg width="73" height="13" viewBox="0 0 73 13" fill="none" xmlns="http://www.w3.org/2000/svg">
<path d="M0.28 0.799999H5.704C6.536 0.799999 7.20267 1.03467 7.704 1.504C8.216 1.97333 8.472 2.592 8.472 3.36V5.008C8.472 5.82933 8.2 6.496 7.656 7.008C7.112 7.50933 6.39733 7.76 5.512 7.76H1.464V12H0.28V0.799999ZM5.48 6.704C6.024 6.704 6.46133 6.54933 6.792 6.24C7.12267 5.92 7.288 5.49867 7.288 4.976V3.328C7.288 2.89067 7.13867 2.53867 6.84 2.272C6.552 1.99467 6.16267 1.856 5.672 1.856H1.464V6.704H5.48ZM12.3169 12.128C11.5382 12.128 10.9142 11.9253 10.4449 11.52C9.98621 11.1147 9.75688 10.5707 9.75688 9.888V9.376C9.75688 8.704 9.99688 8.16533 10.4769 7.76C10.9569 7.35467 11.5915 7.152 12.3809 7.152H13.4049C13.7569 7.152 14.1195 7.20533 14.4929 7.312C14.8662 7.41867 15.1862 7.56267 15.4529 7.744V6.416C15.4529 5.968 15.3142 5.60533 15.0369 5.328C14.7595 5.04 14.3915 4.896 13.9329 4.896H12.6529C12.1942 4.896 11.8262 5.00267 11.5489 5.216C11.2715 5.42933 11.1329 5.712 11.1329 6.064H9.98088C9.98088 5.41333 10.2262 4.89067 10.7169 4.496C11.2075 4.09067 11.8529 3.888 12.6529 3.888H13.9329C14.7222 3.888 15.3569 4.12267 15.8369 4.592C16.3275 5.05067 16.5729 5.65867 16.5729 6.416V12H15.4849V10.88C15.2395 11.264 14.9142 11.568 14.5089 11.792C14.1142 12.016 13.7035 12.128 13.2769 12.128H12.3169ZM13.3089 11.12C13.8102 11.12 14.2582 10.9653 14.6529 10.656C15.0475 10.3467 15.3142 9.936 15.4529 9.424V8.832C15.2395 8.62933 14.9409 8.46933 14.5569 8.352C14.1835 8.224 13.7995 8.16 13.4049 8.16H12.3809C11.9435 8.16 11.5862 8.272 11.3089 8.496C11.0422 8.72 10.9089 9.01333 10.9089 9.376V9.888C10.9089 10.2613 11.0369 10.56 11.2929 10.784C11.5489 11.008 11.8902 11.12 12.3169 11.12H13.3089ZM21.1755 12.128C20.3648 12.128 19.7142 11.8987 19.2235 11.44C18.7328 10.9813 18.4875 10.3787 18.4875 9.632H19.6075C19.6075 10.08 19.7515 10.4427 20.0395 10.72C20.3275 10.9973 20.7062 11.136 21.1755 11.136H22.5675C23.0262 11.136 23.3995 11.0453 23.6875 10.864C23.9755 10.672 24.1195 10.4267 24.1195 10.128V9.584C24.1195 9.38133 24.0395 9.20533 23.8795 9.056C23.7195 8.896 23.5115 8.78933 23.2555 8.736L20.4875 8.256C19.9328 8.16 19.4848 7.952 19.1435 7.632C18.8128 7.30133 18.6475 6.91733 18.6475 6.48V5.952C18.6475 5.33333 18.8822 4.83733 19.3515 4.464C19.8208 4.08 20.4395 3.888 21.2075 3.888H22.5835C23.3302 3.888 23.9328 4.10133 24.3915 4.528C24.8502 4.944 25.0795 5.49867 25.0795 6.192H23.9595C23.9488 5.79733 23.8155 5.48267 23.5595 5.248C23.3142 5.00267 22.9888 4.88 22.5835 4.88H21.2075C20.7808 4.88 20.4395 4.98133 20.1835 5.184C19.9275 5.376 19.7995 5.632 19.7995 5.952V6.416C19.7995 6.61867 19.8848 6.8 20.0555 6.96C20.2368 7.12 20.4662 7.22133 20.7435 7.264L23.4955 7.744C24.0288 7.84 24.4555 8.048 24.7755 8.368C25.1062 8.688 25.2715 9.072 25.2715 9.52V10.16C25.2715 10.7467 25.0208 11.2213 24.5195 11.584C24.0288 11.9467 23.3782 12.128 22.5675 12.128H21.1755ZM29.488 12.128C28.6773 12.128 28.0267 11.8987 27.536 11.44C27.0453 10.9813 26.8 10.3787 26.8 9.632H27.92C27.92 10.08 28.064 10.4427 28.352 10.72C28.64 10.9973 29.0187 11.136 29.488 11.136H30.88C31.3387 11.136 31.712 11.0453 32 10.864C32.288 10.672 32.432 10.4267 32.432 10.128V9.584C32.432 9.38133 32.352 9.20533 32.192 9.056C32.032 8.896 31.824 8.78933 31.568 8.736L28.8 8.256C28.2453 8.16 27.7973 7.952 27.456 7.632C27.1253 7.30133 26.96 6.91733 26.96 6.48V5.952C26.96 5.33333 27.1947 4.83733 27.664 4.464C28.1333 4.08 28.752 3.888 29.52 3.888H30.896C31.6427 3.888 32.2453 4.10133 32.704 4.528C33.1627 4.944 33.392 5.49867 33.392 6.192H32.272C32.2613 5.79733 32.128 5.48267 31.872 5.248C31.6267 5.00267 31.3013 4.88 30.896 4.88H29.52C29.0933 4.88 28.752 4.98133 28.496 5.184C28.24 5.376 28.112 5.632 28.112 5.952V6.416C28.112 6.61867 28.1973 6.8 28.368 6.96C28.5493 7.12 28.7787 7.22133 29.056 7.264L31.808 7.744C32.3413 7.84 32.768 8.048 33.088 8.368C33.4187 8.688 33.584 9.072 33.584 9.52V10.16C33.584 10.7467 33.3333 11.2213 32.832 11.584C32.3413 11.9467 31.6907 12.128 30.88 12.128H29.488ZM45.3685 4.016L43.6405 11.072C43.5552 11.392 43.4378 11.6267 43.2885 11.776C43.1392 11.9253 42.9365 12 42.6805 12H42.1365L40.1365 5.968L38.0725 12H37.5285C37.2832 12 37.0805 11.9253 36.9205 11.776C36.7605 11.6267 36.6432 11.392 36.5685 11.072L34.8245 4.016H36.0405L37.5285 10.72L39.6885 4.24H40.1045C40.4138 4.24 40.6218 4.41067 40.7285 4.752L42.6805 10.672L44.1525 4.016H45.3685ZM49.5595 12.128C48.6635 12.128 47.9435 11.8507 47.3995 11.296C46.8555 10.7413 46.5835 10.0107 46.5835 9.104V6.912C46.5835 6.00533 46.8555 5.27467 47.3995 4.72C47.9542 4.16533 48.6848 3.888 49.5915 3.888H50.9035C51.8102 3.888 52.5355 4.16533 53.0795 4.72C53.6342 5.27467 53.9115 6.00533 53.9115 6.912V9.104C53.9115 10.0107 53.6342 10.7413 53.0795 11.296C52.5248 11.8507 51.7888 12.128 50.8715 12.128H49.5595ZM50.8715 11.104C51.4475 11.104 51.9062 10.9227 52.2475 10.56C52.5888 10.1867 52.7595 9.70133 52.7595 9.104V6.912C52.7595 6.31467 52.5888 5.83467 52.2475 5.472C51.9062 5.09867 51.4582 4.912 50.9035 4.912H49.5915C49.0368 4.912 48.5888 5.09867 48.2475 5.472C47.9062 5.83467 47.7355 6.31467 47.7355 6.912V9.104C47.7355 9.712 47.9008 10.1973 48.2315 10.56C48.5622 10.9227 49.0048 11.104 49.5595 11.104H50.8715ZM56.0285 4.016H57.1485V5.248C57.3618 4.87467 57.6818 4.57067 58.1085 4.336C58.5458 4.10133 58.9992 3.984 59.4685 3.984H60.1725V5.024H59.4685C58.7858 5.024 58.2312 5.24267 57.8045 5.68C57.3885 6.10667 57.1805 6.67733 57.1805 7.392V12H56.0285V4.016ZM63.946 12.128C63.402 12.128 62.9167 12 62.49 11.744C62.0633 11.488 61.7327 11.1307 61.498 10.672C61.2633 10.2133 61.146 9.68 61.146 9.072V7.152C61.146 6.512 61.2687 5.94667 61.514 5.456C61.7593 4.95467 62.106 4.57067 62.554 4.304C63.002 4.02667 63.514 3.888 64.09 3.888H65.274C65.6367 3.888 65.9833 3.97333 66.314 4.144C66.6553 4.31467 66.9273 4.54933 67.13 4.848V0.799999H68.282V12H67.162V10.816C66.9167 11.2107 66.5967 11.5307 66.202 11.776C65.8073 12.0107 65.4233 12.128 65.05 12.128H63.946ZM65.018 11.104C65.3593 11.104 65.69 10.9973 66.01 10.784C66.33 10.56 66.5913 10.272 66.794 9.92C66.9967 9.568 67.1087 9.20533 67.13 8.832V6.816C67.0553 6.25067 66.842 5.792 66.49 5.44C66.1487 5.088 65.7327 4.912 65.242 4.912H64.122C63.578 4.912 63.1353 5.12 62.794 5.536C62.4633 5.94133 62.298 6.48 62.298 7.152V9.072C62.298 9.66933 62.4527 10.16 62.762 10.544C63.082 10.9173 63.4873 11.104 63.978 11.104H65.018ZM71.26 6.128C71.004 6.128 70.796 6.048 70.636 5.888C70.476 5.728 70.396 5.52 70.396 5.264C70.396 5.008 70.476 4.8 70.636 4.64C70.796 4.48 71.004 4.4 71.26 4.4C71.516 4.4 71.724 4.48 71.884 4.64C72.044 4.8 72.124 5.008 72.124 5.264C72.124 5.52 72.044 5.728 71.884 5.888C71.724 6.048 71.516 6.128 71.26 6.128ZM71.26 11.6C71.004 11.6 70.796 11.52 70.636 11.36C70.476 11.2 70.396 10.992 70.396 10.736C70.396 10.48 70.476 10.272 70.636 10.112C70.796 9.952 71.004 9.872 71.26 9.872C71.516 9.872 71.724 9.952 71.884 10.112C72.044 10.272 72.124 10.48 72.124 10.736C72.124 10.992 72.044 11.2 71.884 11.36C71.724 11.52 71.516 11.6 71.26 11.6Z" fill="url(#paint0_linear_618_650)"/>
<defs>
<linearGradient id="paint0_linear_618_650" x1="7.63014" y1="-1.12329" x2="12.5668" y2="24.8993" gradientUnits="userSpaceOnUse">
<stop stop-color="#727272"/>
<stop offset="1" stop-color="white"/>
</linearGradient>
</defs>
</svg>
