<svg width="109" height="15" viewBox="0 0 109 15" fill="none" xmlns="http://www.w3.org/2000/svg">
<path opacity="0.45" d="M3.488 13.128C2.67733 13.128 2.02667 12.8987 1.536 12.44C1.04533 11.9813 0.8 11.3787 0.8 10.632H1.92C1.92 11.08 2.064 11.4427 2.352 11.72C2.64 11.9973 3.01867 12.136 3.488 12.136H4.88C5.33867 12.136 5.712 12.0453 6 11.864C6.288 11.672 6.432 11.4267 6.432 11.128V10.584C6.432 10.3813 6.352 10.2053 6.192 10.056C6.032 9.896 5.824 9.78933 5.568 9.736L2.8 9.256C2.24533 9.16 1.79733 8.952 1.456 8.632C1.12533 8.30133 0.96 7.91733 0.96 7.48V6.952C0.96 6.33333 1.19467 5.83733 1.664 5.464C2.13333 5.08 2.752 4.888 3.52 4.888H4.896C5.64267 4.888 6.24533 5.10133 6.704 5.528C7.16267 5.944 7.392 6.49867 7.392 7.192H6.272C6.26133 6.79733 6.128 6.48267 5.872 6.248C5.62667 6.00267 5.30133 5.88 4.896 5.88H3.52C3.09333 5.88 2.752 5.98133 2.496 6.184C2.24 6.376 2.112 6.632 2.112 6.952V7.416C2.112 7.61867 2.19733 7.8 2.368 7.96C2.54933 8.12 2.77867 8.22133 3.056 8.264L5.808 8.744C6.34133 8.84 6.768 9.048 7.088 9.368C7.41867 9.688 7.584 10.072 7.584 10.52V11.16C7.584 11.7467 7.33333 12.2213 6.832 12.584C6.34133 12.9467 5.69067 13.128 4.88 13.128H3.488ZM12.1845 13.128C11.2885 13.128 10.5685 12.8667 10.0245 12.344C9.4805 11.8107 9.2085 11.1067 9.2085 10.232V7.944C9.2085 7.02667 9.4805 6.29067 10.0245 5.736C10.5685 5.17067 11.2885 4.888 12.1845 4.888H13.4965C14.3498 4.888 15.0378 5.16 15.5605 5.704C16.0832 6.248 16.3445 6.968 16.3445 7.864V9.272H10.3605V10.232C10.3605 10.7867 10.5258 11.24 10.8565 11.592C11.1978 11.9333 11.6405 12.104 12.1845 12.104H13.4005C13.9338 12.104 14.3658 11.96 14.6965 11.672C15.0272 11.3733 15.1925 10.9787 15.1925 10.488H16.3125C16.3125 11.2773 16.0458 11.9173 15.5125 12.408C14.9792 12.888 14.2752 13.128 13.4005 13.128H12.1845ZM15.1925 8.28V7.864C15.1925 7.27733 15.0378 6.808 14.7285 6.456C14.4192 6.09333 14.0085 5.912 13.4965 5.912H12.1845C11.6405 5.912 11.1978 6.09867 10.8565 6.472C10.5258 6.84533 10.3605 7.336 10.3605 7.944V8.28H15.1925ZM20.9486 13.128C20.074 13.128 19.37 12.8667 18.8366 12.344C18.3033 11.8107 18.0366 11.1067 18.0366 10.232V7.944C18.0366 7.02667 18.3033 6.29067 18.8366 5.736C19.37 5.17067 20.0686 4.888 20.9326 4.888H22.2446C23.066 4.888 23.7273 5.11733 24.2286 5.576C24.73 6.03467 24.9806 6.63733 24.9806 7.384H23.8606C23.8606 6.94667 23.7113 6.59467 23.4126 6.328C23.1246 6.05067 22.7353 5.912 22.2446 5.912H20.9326C20.41 5.912 19.9886 6.09867 19.6686 6.472C19.3486 6.84533 19.1886 7.336 19.1886 7.944V10.232C19.1886 10.7973 19.3486 11.2507 19.6686 11.592C19.9993 11.9333 20.426 12.104 20.9486 12.104H22.2606C22.762 12.104 23.162 11.928 23.4606 11.576C23.77 11.224 23.9246 10.7547 23.9246 10.168H25.0446C25.0446 11.0533 24.7886 11.768 24.2766 12.312C23.7646 12.856 23.0926 13.128 22.2606 13.128H20.9486ZM29.3188 13.128C28.5828 13.128 27.9854 12.8773 27.5268 12.376C27.0681 11.8747 26.8388 11.2187 26.8388 10.408V5.016H27.9908V10.44C27.9908 10.9413 28.1134 11.3467 28.3588 11.656C28.6041 11.9547 28.9241 12.104 29.3188 12.104H30.3108C30.8014 12.104 31.2548 11.9067 31.6708 11.512C32.0868 11.1173 32.3534 10.6213 32.4708 10.024V5.016H33.6228V13H32.5028V11.784C32.2574 12.168 31.9321 12.488 31.5268 12.744C31.1214 13 30.7268 13.128 30.3428 13.128H29.3188ZM36.0598 5.016H37.1798V6.248C37.3931 5.87467 37.7131 5.57067 38.1398 5.336C38.5771 5.10133 39.0304 4.984 39.4998 4.984H40.2038V6.024H39.4998C38.8171 6.024 38.2624 6.24267 37.8358 6.68C37.4198 7.10667 37.2118 7.67733 37.2118 8.392V13H36.0598V5.016ZM44.1533 13.128C43.2573 13.128 42.5373 12.8667 41.9933 12.344C41.4493 11.8107 41.1773 11.1067 41.1773 10.232V7.944C41.1773 7.02667 41.4493 6.29067 41.9933 5.736C42.5373 5.17067 43.2573 4.888 44.1533 4.888H45.4653C46.3186 4.888 47.0066 5.16 47.5293 5.704C48.0519 6.248 48.3133 6.968 48.3133 7.864V9.272H42.3293V10.232C42.3293 10.7867 42.4946 11.24 42.8253 11.592C43.1666 11.9333 43.6093 12.104 44.1533 12.104H45.3693C45.9026 12.104 46.3346 11.96 46.6653 11.672C46.9959 11.3733 47.1613 10.9787 47.1613 10.488H48.2812C48.2812 11.2773 48.0146 11.9173 47.4813 12.408C46.9479 12.888 46.2439 13.128 45.3693 13.128H44.1533ZM47.1613 8.28V7.864C47.1613 7.27733 47.0066 6.808 46.6973 6.456C46.3879 6.09333 45.9773 5.912 45.4653 5.912H44.1533C43.6093 5.912 43.1666 6.09867 42.8253 6.472C42.4946 6.84533 42.3293 7.336 42.3293 7.944V8.28H47.1613ZM52.2614 3.08L49.6854 4.376V3.256L52.4214 1.8H53.4454V13H52.2614V3.08ZM61.0521 10.696H56.1401C55.8308 10.696 55.6015 10.6427 55.4521 10.536C55.3135 10.4293 55.2441 10.2587 55.2441 10.024V9.704L61.1161 1.8H62.2361V9.64H63.6441V10.696H62.2361V13H61.0521V10.696ZM61.0841 9.64V3.56H61.0681L56.5561 9.64H61.0841ZM68.0763 13.128C67.1696 13.128 66.4389 12.856 65.8843 12.312C65.3296 11.7573 65.0523 11.032 65.0523 10.136H66.2043C66.2043 10.7227 66.3749 11.192 66.7163 11.544C67.0576 11.896 67.5109 12.072 68.0763 12.072H69.6123C70.2309 12.072 70.7269 11.8907 71.1003 11.528C71.4843 11.1547 71.6763 10.664 71.6763 10.056V9.064C71.6763 8.49867 71.4789 8.04533 71.0843 7.704C70.7003 7.36267 70.1936 7.192 69.5643 7.192H65.4523V1.8H72.4443V2.856H66.6363V6.136H69.5643C70.5563 6.136 71.3509 6.40267 71.9483 6.936C72.5563 7.46933 72.8603 8.17867 72.8603 9.064V10.056C72.8603 10.664 72.7216 11.2027 72.4443 11.672C72.1776 12.1307 71.7989 12.488 71.3083 12.744C70.8176 13 70.2523 13.128 69.6123 13.128H68.0763ZM78.0548 13.128C77.4148 13.128 76.8441 12.9787 76.3428 12.68C75.8521 12.3813 75.4681 11.96 75.1908 11.416C74.9134 10.872 74.7747 10.248 74.7747 9.544V5.256C74.7747 4.552 74.9134 3.928 75.1908 3.384C75.4681 2.84 75.8521 2.41867 76.3428 2.12C76.8441 1.82133 77.4148 1.672 78.0548 1.672H79.7508C80.3908 1.672 80.9561 1.82133 81.4468 2.12C81.9374 2.41867 82.3161 2.84 82.5828 3.384C82.8601 3.928 82.9988 4.552 82.9988 5.256V9.544C82.9988 10.248 82.8601 10.872 82.5828 11.416C82.3161 11.96 81.9374 12.3813 81.4468 12.68C80.9561 12.9787 80.3908 13.128 79.7508 13.128H78.0548ZM79.7188 12.072C80.3481 12.072 80.8548 11.8427 81.2388 11.384C81.6228 10.9147 81.8148 10.3013 81.8148 9.544V5.256C81.8148 4.49867 81.6228 3.89067 81.2388 3.432C80.8548 2.96267 80.3481 2.728 79.7188 2.728H78.0868C77.4574 2.728 76.9454 2.96267 76.5508 3.432C76.1561 3.89067 75.9588 4.49867 75.9588 5.256V9.544C75.9588 10.3013 76.1561 10.9147 76.5508 11.384C76.9454 11.8427 77.4574 12.072 78.0868 12.072H79.7188ZM85.6625 1.8H86.8145V9.816H85.6625V1.8ZM86.2385 13.16C85.9825 13.16 85.7745 13.08 85.6145 12.92C85.4545 12.76 85.3745 12.552 85.3745 12.296C85.3745 12.04 85.4545 11.832 85.6145 11.672C85.7745 11.512 85.9825 11.432 86.2385 11.432C86.4945 11.432 86.7025 11.512 86.8625 11.672C87.0225 11.832 87.1025 12.04 87.1025 12.296C87.1025 12.552 87.0225 12.76 86.8625 12.92C86.7025 13.08 86.4945 13.16 86.2385 13.16ZM91.3019 10.072H89.3179V9.048H91.3019V5.8H89.3179V4.776H91.3019V1.8H92.4539V4.776H95.4459V1.8H96.5979V4.776H98.5819V5.8H96.5979V9.048H98.5819V10.072H96.5979V13H95.4459V10.072H92.4539V13H91.3019V10.072ZM95.4459 9.048V5.8H92.4539V9.048H95.4459ZM106.092 7.048C106.924 7.19733 107.57 7.48533 108.028 7.912C108.487 8.328 108.716 8.86133 108.716 9.512V10.536C108.716 11.3147 108.418 11.944 107.82 12.424C107.223 12.8933 106.439 13.128 105.468 13.128H105.132V14.76H103.98V13.128H103.628C102.988 13.128 102.423 12.9947 101.932 12.728C101.442 12.4507 101.058 12.0667 100.78 11.576C100.514 11.0747 100.38 10.4987 100.38 9.848H101.532C101.532 10.5093 101.724 11.048 102.108 11.464C102.503 11.8693 103.02 12.072 103.66 12.072H105.436C106.066 12.072 106.572 11.9333 106.956 11.656C107.34 11.368 107.532 10.9947 107.532 10.536V9.512C107.532 9.14933 107.388 8.84 107.1 8.584C106.823 8.328 106.439 8.16267 105.948 8.088L103.068 7.608C102.258 7.46933 101.628 7.18133 101.18 6.744C100.732 6.30667 100.508 5.75733 100.508 5.096V4.232C100.508 3.45333 100.796 2.83467 101.372 2.376C101.959 1.90667 102.732 1.672 103.692 1.672H103.98V0.039999H105.132V1.672H105.5C106.407 1.672 107.138 1.94933 107.692 2.504C108.247 3.048 108.524 3.768 108.524 4.664H107.372C107.372 4.07733 107.202 3.608 106.86 3.256C106.519 2.904 106.066 2.728 105.5 2.728H103.692C103.084 2.728 102.599 2.86667 102.236 3.144C101.874 3.41067 101.692 3.77333 101.692 4.232V5.096C101.692 5.46933 101.826 5.784 102.092 6.04C102.37 6.296 102.748 6.46667 103.228 6.552L106.092 7.048Z" fill="url(#paint0_linear_618_651)"/>
<defs>
<linearGradient id="paint0_linear_618_651" x1="13.3562" y1="-0.123288" x2="16.6119" y2="26.4368" gradientUnits="userSpaceOnUse">
<stop stop-color="#727272"/>
<stop offset="1" stop-color="white"/>
</linearGradient>
</defs>
</svg>
