<svg width="73" height="13" viewBox="0 0 73 13" fill="none" xmlns="http://www.w3.org/2000/svg">
<path d="M3.672 12.128C2.98933 12.128 2.38667 11.9787 1.864 11.68C1.34133 11.3707 0.936 10.9387 0.648 10.384C0.36 9.81867 0.216 9.17333 0.216 8.448V0.799999H1.4V8.48C1.4 9.25867 1.608 9.888 2.024 10.368C2.44 10.8373 2.98933 11.072 3.672 11.072H5.4C6.08267 11.072 6.632 10.8373 7.048 10.368C7.464 9.888 7.672 9.25867 7.672 8.48V0.799999H8.856V8.448C8.856 9.17333 8.712 9.81867 8.424 10.384C8.136 10.9387 7.73067 11.3707 7.208 11.68C6.68533 11.9787 6.08267 12.128 5.4 12.128H3.672ZM13.5661 12.128C12.7555 12.128 12.1048 11.8987 11.6141 11.44C11.1235 10.9813 10.8781 10.3787 10.8781 9.632H11.9981C11.9981 10.08 12.1421 10.4427 12.4301 10.72C12.7181 10.9973 13.0968 11.136 13.5661 11.136H14.9581C15.4168 11.136 15.7901 11.0453 16.0781 10.864C16.3661 10.672 16.5101 10.4267 16.5101 10.128V9.584C16.5101 9.38133 16.4301 9.20533 16.2701 9.056C16.1101 8.896 15.9021 8.78933 15.6461 8.736L12.8781 8.256C12.3235 8.16 11.8755 7.952 11.5341 7.632C11.2035 7.30133 11.0381 6.91733 11.0381 6.48V5.952C11.0381 5.33333 11.2728 4.83733 11.7421 4.464C12.2115 4.08 12.8301 3.888 13.5981 3.888H14.9741C15.7208 3.888 16.3235 4.10133 16.7821 4.528C17.2408 4.944 17.4701 5.49867 17.4701 6.192H16.3501C16.3395 5.79733 16.2061 5.48267 15.9501 5.248C15.7048 5.00267 15.3795 4.88 14.9741 4.88H13.5981C13.1715 4.88 12.8301 4.98133 12.5741 5.184C12.3181 5.376 12.1901 5.632 12.1901 5.952V6.416C12.1901 6.61867 12.2755 6.8 12.4461 6.96C12.6275 7.12 12.8568 7.22133 13.1341 7.264L15.8861 7.744C16.4195 7.84 16.8461 8.048 17.1661 8.368C17.4968 8.688 17.6621 9.072 17.6621 9.52V10.16C17.6621 10.7467 17.4115 11.2213 16.9101 11.584C16.4195 11.9467 15.7688 12.128 14.9581 12.128H13.5661ZM22.2626 12.128C21.3666 12.128 20.6466 11.8667 20.1026 11.344C19.5586 10.8107 19.2866 10.1067 19.2866 9.232V6.944C19.2866 6.02667 19.5586 5.29067 20.1026 4.736C20.6466 4.17067 21.3666 3.888 22.2626 3.888H23.5746C24.428 3.888 25.116 4.16 25.6386 4.704C26.1613 5.248 26.4226 5.968 26.4226 6.864V8.272H20.4386V9.232C20.4386 9.78667 20.604 10.24 20.9346 10.592C21.276 10.9333 21.7186 11.104 22.2626 11.104H23.4786C24.012 11.104 24.444 10.96 24.7746 10.672C25.1053 10.3733 25.2706 9.97867 25.2706 9.488H26.3906C26.3906 10.2773 26.124 10.9173 25.5906 11.408C25.0573 11.888 24.3533 12.128 23.4786 12.128H22.2626ZM25.2706 7.28V6.864C25.2706 6.27733 25.116 5.808 24.8066 5.456C24.4973 5.09333 24.0866 4.912 23.5746 4.912H22.2626C21.7186 4.912 21.276 5.09867 20.9346 5.472C20.604 5.84533 20.4386 6.336 20.4386 6.944V7.28H25.2706ZM28.4348 4.016H29.5548V5.248C29.7681 4.87467 30.0881 4.57067 30.5148 4.336C30.9521 4.10133 31.4054 3.984 31.8748 3.984H32.5788V5.024H31.8748C31.1921 5.024 30.6374 5.24267 30.2108 5.68C29.7948 6.10667 29.5868 6.67733 29.5868 7.392V12H28.4348V4.016ZM34.1223 4.016H35.2423V5.2C35.4876 4.816 35.8076 4.50133 36.2023 4.256C36.5969 4.01067 36.9916 3.888 37.3863 3.888H38.4743C39.2103 3.888 39.8023 4.13867 40.2503 4.64C40.7089 5.14133 40.9383 5.79733 40.9383 6.608V12H39.7863V6.576C39.7863 6.08533 39.6636 5.68533 39.4183 5.376C39.1729 5.06667 38.8476 4.912 38.4423 4.912H37.4183C36.9169 4.912 36.4583 5.10933 36.0423 5.504C35.6369 5.89867 35.3809 6.40533 35.2743 7.024V12H34.1223V4.016ZM45.5825 12.128C44.8038 12.128 44.1798 11.9253 43.7105 11.52C43.2518 11.1147 43.0225 10.5707 43.0225 9.888V9.376C43.0225 8.704 43.2625 8.16533 43.7425 7.76C44.2225 7.35467 44.8572 7.152 45.6465 7.152H46.6705C47.0225 7.152 47.3852 7.20533 47.7585 7.312C48.1318 7.41867 48.4518 7.56267 48.7185 7.744V6.416C48.7185 5.968 48.5798 5.60533 48.3025 5.328C48.0252 5.04 47.6572 4.896 47.1985 4.896H45.9185C45.4598 4.896 45.0918 5.00267 44.8145 5.216C44.5372 5.42933 44.3985 5.712 44.3985 6.064H43.2465C43.2465 5.41333 43.4918 4.89067 43.9825 4.496C44.4732 4.09067 45.1185 3.888 45.9185 3.888H47.1985C47.9878 3.888 48.6225 4.12267 49.1025 4.592C49.5932 5.05067 49.8385 5.65867 49.8385 6.416V12H48.7505V10.88C48.5052 11.264 48.1798 11.568 47.7745 11.792C47.3798 12.016 46.9692 12.128 46.5425 12.128H45.5825ZM46.5745 11.12C47.0758 11.12 47.5238 10.9653 47.9185 10.656C48.3132 10.3467 48.5798 9.936 48.7185 9.424V8.832C48.5052 8.62933 48.2065 8.46933 47.8225 8.352C47.4492 8.224 47.0652 8.16 46.6705 8.16H45.6465C45.2092 8.16 44.8518 8.272 44.5745 8.496C44.3078 8.72 44.1745 9.01333 44.1745 9.376V9.888C44.1745 10.2613 44.3025 10.56 44.5585 10.784C44.8145 11.008 45.1558 11.12 45.5825 11.12H46.5745ZM60.9211 3.888C61.6251 3.888 62.1798 4.11733 62.5851 4.576C63.0011 5.024 63.2091 5.648 63.2091 6.448V12H62.0571V6.416C62.0571 5.94667 61.9505 5.57867 61.7371 5.312C61.5238 5.04533 61.2411 4.912 60.8891 4.912H59.9771C59.5185 4.912 59.1398 5.06667 58.8411 5.376C58.5425 5.68533 58.3505 6.12267 58.2651 6.688V12H57.1131V6.512C57.1131 6.01067 57.0118 5.62133 56.8091 5.344C56.6171 5.056 56.3505 4.912 56.0091 4.912H55.0971C54.6598 4.912 54.2758 5.104 53.9451 5.488C53.6145 5.872 53.4065 6.37333 53.3211 6.992V12H52.1691V4.016H53.2891V5.168C53.5025 4.76267 53.7691 4.448 54.0891 4.224C54.4091 4 54.7451 3.888 55.0971 3.888H56.0411C56.4891 3.888 56.8731 4 57.1931 4.224C57.5238 4.43733 57.7745 4.752 57.9451 5.168C58.1905 4.74133 58.4838 4.42133 58.8251 4.208C59.1665 3.99467 59.5398 3.888 59.9451 3.888H60.9211ZM68.2001 12.128C67.3041 12.128 66.5841 11.8667 66.0401 11.344C65.4961 10.8107 65.2241 10.1067 65.2241 9.232V6.944C65.2241 6.02667 65.4961 5.29067 66.0401 4.736C66.5841 4.17067 67.3041 3.888 68.2001 3.888H69.5121C70.3655 3.888 71.0535 4.16 71.5761 4.704C72.0988 5.248 72.3601 5.968 72.3601 6.864V8.272H66.3761V9.232C66.3761 9.78667 66.5415 10.24 66.8721 10.592C67.2135 10.9333 67.6561 11.104 68.2001 11.104H69.4161C69.9495 11.104 70.3815 10.96 70.7121 10.672C71.0428 10.3733 71.2081 9.97867 71.2081 9.488H72.3281C72.3281 10.2773 72.0615 10.9173 71.5281 11.408C70.9948 11.888 70.2908 12.128 69.4161 12.128H68.2001ZM71.2081 7.28V6.864C71.2081 6.27733 71.0535 5.808 70.7441 5.456C70.4348 5.09333 70.0241 4.912 69.5121 4.912H68.2001C67.6561 4.912 67.2135 5.09867 66.8721 5.472C66.5415 5.84533 66.3761 6.336 66.3761 6.944V7.28H71.2081Z" fill="url(#paint0_linear_618_643)"/>
<defs>
<linearGradient id="paint0_linear_618_643" x1="7.63014" y1="-1.12329" x2="12.5668" y2="24.8993" gradientUnits="userSpaceOnUse">
<stop stop-color="#727272"/>
<stop offset="1" stop-color="white"/>
</linearGradient>
</defs>
</svg>
