<svg width="14" height="16" viewBox="0 0 14 16" fill="none" xmlns="http://www.w3.org/2000/svg">
<path d="M0.5 12.6667C0.5 13.3247 0.575789 13.7904 0.736202 14.1341C0.887422 14.4581 1.13084 14.7101 1.55328 14.9113C1.99288 15.1206 2.62236 15.2722 3.52697 15.368C4.4269 15.4632 5.56406 15.5 7 15.5C8.43594 15.5 9.5731 15.4632 10.473 15.368C11.3776 15.2722 12.0071 15.1206 12.4467 14.9113C12.8692 14.7101 13.1126 14.4581 13.2638 14.1341C13.4242 13.7904 13.5 13.3247 13.5 12.6667C13.5 12.0086 13.4242 11.543 13.2638 11.1992C13.1126 10.8752 12.8692 10.6232 12.4467 10.4221C12.0071 10.2127 11.3776 10.0611 10.473 9.96537C9.5731 9.87014 8.43594 9.83333 7 9.83333C5.56406 9.83333 4.4269 9.87014 3.52697 9.96537C2.62236 10.0611 1.99288 10.2127 1.55328 10.4221C1.13084 10.6232 0.887422 10.8752 0.736202 11.1992C0.575789 11.543 0.5 12.0086 0.5 12.6667Z" stroke="url(#paint0_linear_621_160)" stroke-linecap="round" stroke-linejoin="round"/>
<path d="M3.682 4C3.682 5.95517 5.18926 7.5 7.00018 7.5C8.81109 7.5 10.3184 5.95517 10.3184 4C10.3184 2.04483 8.81109 0.5 7.00018 0.5C5.18926 0.5 3.682 2.04483 3.682 4Z" stroke="url(#paint1_linear_621_160)"/>
<defs>
<linearGradient id="paint0_linear_621_160" x1="1.43836" y1="15.6347" x2="5.7875" y2="6.46437" gradientUnits="userSpaceOnUse">
<stop stop-color="#727272"/>
<stop offset="1" stop-color="white"/>
</linearGradient>
<linearGradient id="paint1_linear_621_160" x1="10.0338" y1="0.438356" x2="3.30009" y2="6.89212" gradientUnits="userSpaceOnUse">
<stop stop-color="#727272"/>
<stop offset="1" stop-color="white"/>
</linearGradient>
</defs>
</svg>
