<svg width="147" height="13" viewBox="0 0 147 13" fill="none" xmlns="http://www.w3.org/2000/svg">
<path d="M5.024 12C4.82133 12 4.65067 11.9413 4.512 11.824C4.384 11.7067 4.272 11.52 4.176 11.264L0.352 0.799999H1.568L5.056 10.576H5.072L8.576 0.799999H9.792L5.632 12H5.024ZM12.4419 12.128C11.6632 12.128 11.0392 11.9253 10.5699 11.52C10.1112 11.1147 9.88188 10.5707 9.88188 9.888V9.376C9.88188 8.704 10.1219 8.16533 10.6019 7.76C11.0819 7.35467 11.7165 7.152 12.5059 7.152H13.5299C13.8819 7.152 14.2445 7.20533 14.6179 7.312C14.9912 7.41867 15.3112 7.56267 15.5779 7.744V6.416C15.5779 5.968 15.4392 5.60533 15.1619 5.328C14.8845 5.04 14.5165 4.896 14.0579 4.896H12.7779C12.3192 4.896 11.9512 5.00267 11.6739 5.216C11.3965 5.42933 11.2579 5.712 11.2579 6.064H10.1059C10.1059 5.41333 10.3512 4.89067 10.8419 4.496C11.3325 4.09067 11.9779 3.888 12.7779 3.888H14.0579C14.8472 3.888 15.4819 4.12267 15.9619 4.592C16.4525 5.05067 16.6979 5.65867 16.6979 6.416V12H15.6099V10.88C15.3645 11.264 15.0392 11.568 14.6339 11.792C14.2392 12.016 13.8285 12.128 13.4019 12.128H12.4419ZM13.4339 11.12C13.9352 11.12 14.3832 10.9653 14.7779 10.656C15.1725 10.3467 15.4392 9.936 15.5779 9.424V8.832C15.3645 8.62933 15.0659 8.46933 14.6819 8.352C14.3085 8.224 13.9245 8.16 13.5299 8.16H12.5059C12.0685 8.16 11.7112 8.272 11.4339 8.496C11.1672 8.72 11.0339 9.01333 11.0339 9.376V9.888C11.0339 10.2613 11.1619 10.56 11.4179 10.784C11.6739 11.008 12.0152 11.12 12.4419 11.12H13.4339ZM21.2365 12C20.4472 12 19.8818 11.8347 19.5405 11.504C19.1992 11.1627 19.0285 10.6027 19.0285 9.824V0.799999H20.1805V9.824C20.1805 10.2293 20.2605 10.5227 20.4205 10.704C20.5912 10.8853 20.8632 10.976 21.2365 10.976H21.7805V12H21.2365ZM24.1738 2.816C23.9178 2.816 23.7098 2.736 23.5498 2.576C23.3898 2.416 23.3098 2.208 23.3098 1.952C23.3098 1.696 23.3898 1.488 23.5498 1.328C23.7098 1.168 23.9178 1.088 24.1738 1.088C24.4298 1.088 24.6378 1.168 24.7978 1.328C24.9578 1.488 25.0378 1.696 25.0378 1.952C25.0378 2.208 24.9578 2.416 24.7978 2.576C24.6378 2.736 24.4298 2.816 24.1738 2.816ZM23.5978 4.016H24.7498V12H23.5978V4.016ZM29.946 12.128C29.402 12.128 28.9167 12 28.49 11.744C28.0633 11.488 27.7327 11.1307 27.498 10.672C27.2633 10.2133 27.146 9.68 27.146 9.072V7.152C27.146 6.512 27.2687 5.94667 27.514 5.456C27.7593 4.95467 28.106 4.57067 28.554 4.304C29.002 4.02667 29.514 3.888 30.09 3.888H31.274C31.6367 3.888 31.9833 3.97333 32.314 4.144C32.6553 4.31467 32.9273 4.54933 33.13 4.848V0.799999H34.282V12H33.162V10.816C32.9167 11.2107 32.5967 11.5307 32.202 11.776C31.8073 12.0107 31.4233 12.128 31.05 12.128H29.946ZM31.018 11.104C31.3593 11.104 31.69 10.9973 32.01 10.784C32.33 10.56 32.5913 10.272 32.794 9.92C32.9967 9.568 33.1087 9.20533 33.13 8.832V6.816C33.0553 6.25067 32.842 5.792 32.49 5.44C32.1487 5.088 31.7327 4.912 31.242 4.912H30.122C29.578 4.912 29.1353 5.12 28.794 5.536C28.4633 5.94133 28.298 6.48 28.298 7.152V9.072C28.298 9.66933 28.4527 10.16 28.762 10.544C29.082 10.9173 29.4873 11.104 29.978 11.104H31.018ZM39.02 12.128C38.2413 12.128 37.6173 11.9253 37.148 11.52C36.6893 11.1147 36.46 10.5707 36.46 9.888V9.376C36.46 8.704 36.7 8.16533 37.18 7.76C37.66 7.35467 38.2947 7.152 39.084 7.152H40.108C40.46 7.152 40.8227 7.20533 41.196 7.312C41.5693 7.41867 41.8893 7.56267 42.156 7.744V6.416C42.156 5.968 42.0173 5.60533 41.74 5.328C41.4627 5.04 41.0947 4.896 40.636 4.896H39.356C38.8973 4.896 38.5293 5.00267 38.252 5.216C37.9747 5.42933 37.836 5.712 37.836 6.064H36.684C36.684 5.41333 36.9293 4.89067 37.42 4.496C37.9107 4.09067 38.556 3.888 39.356 3.888H40.636C41.4253 3.888 42.06 4.12267 42.54 4.592C43.0307 5.05067 43.276 5.65867 43.276 6.416V12H42.188V10.88C41.9427 11.264 41.6173 11.568 41.212 11.792C40.8173 12.016 40.4067 12.128 39.98 12.128H39.02ZM40.012 11.12C40.5133 11.12 40.9613 10.9653 41.356 10.656C41.7507 10.3467 42.0173 9.936 42.156 9.424V8.832C41.9427 8.62933 41.644 8.46933 41.26 8.352C40.8867 8.224 40.5027 8.16 40.108 8.16H39.084C38.6467 8.16 38.2893 8.272 38.012 8.496C37.7453 8.72 37.612 9.01333 37.612 9.376V9.888C37.612 10.2613 37.74 10.56 37.996 10.784C38.252 11.008 38.5933 11.12 39.02 11.12H40.012ZM48.7426 12C47.9 12 47.292 11.8187 46.9186 11.456C46.556 11.0933 46.3746 10.496 46.3746 9.664V5.04H44.9666V4.016H46.3746V1.6H47.5266V4.016H49.6066V5.04H47.5266V9.664C47.5266 10.1333 47.6173 10.4693 47.7986 10.672C47.9906 10.8747 48.3053 10.976 48.7426 10.976H49.6066V12H48.7426ZM52.58 2.816C52.324 2.816 52.116 2.736 51.956 2.576C51.796 2.416 51.716 2.208 51.716 1.952C51.716 1.696 51.796 1.488 51.956 1.328C52.116 1.168 52.324 1.088 52.58 1.088C52.836 1.088 53.044 1.168 53.204 1.328C53.364 1.488 53.444 1.696 53.444 1.952C53.444 2.208 53.364 2.416 53.204 2.576C53.044 2.736 52.836 2.816 52.58 2.816ZM52.004 4.016H53.156V12H52.004V4.016ZM58.5283 12.128C57.6323 12.128 56.9123 11.8507 56.3683 11.296C55.8243 10.7413 55.5523 10.0107 55.5523 9.104V6.912C55.5523 6.00533 55.8243 5.27467 56.3683 4.72C56.9229 4.16533 57.6536 3.888 58.5603 3.888H59.8723C60.7789 3.888 61.5043 4.16533 62.0483 4.72C62.6029 5.27467 62.8802 6.00533 62.8802 6.912V9.104C62.8802 10.0107 62.6029 10.7413 62.0483 11.296C61.4936 11.8507 60.7576 12.128 59.8403 12.128H58.5283ZM59.8403 11.104C60.4163 11.104 60.8749 10.9227 61.2163 10.56C61.5576 10.1867 61.7283 9.70133 61.7283 9.104V6.912C61.7283 6.31467 61.5576 5.83467 61.2163 5.472C60.8749 5.09867 60.4269 4.912 59.8723 4.912H58.5603C58.0056 4.912 57.5576 5.09867 57.2163 5.472C56.8749 5.83467 56.7043 6.31467 56.7043 6.912V9.104C56.7043 9.712 56.8696 10.1973 57.2003 10.56C57.5309 10.9227 57.9736 11.104 58.5283 11.104H59.8403ZM64.9973 4.016H66.1173V5.2C66.3626 4.816 66.6826 4.50133 67.0773 4.256C67.4719 4.01067 67.8666 3.888 68.2613 3.888H69.3493C70.0853 3.888 70.6773 4.13867 71.1253 4.64C71.5839 5.14133 71.8133 5.79733 71.8133 6.608V12H70.6613V6.576C70.6613 6.08533 70.5386 5.68533 70.2933 5.376C70.0479 5.06667 69.7226 4.912 69.3173 4.912H68.2933C67.7919 4.912 67.3333 5.10933 66.9173 5.504C66.5119 5.89867 66.2559 6.40533 66.1493 7.024V12H64.9973V4.016ZM74.2175 0.799999H79.6415C80.4735 0.799999 81.1402 1.03467 81.6415 1.504C82.1535 1.97333 82.4095 2.592 82.4095 3.36V5.008C82.4095 5.82933 82.1375 6.496 81.5935 7.008C81.0495 7.50933 80.3348 7.76 79.4495 7.76H75.4015V12H74.2175V0.799999ZM79.4175 6.704C79.9615 6.704 80.3988 6.54933 80.7295 6.24C81.0602 5.92 81.2255 5.49867 81.2255 4.976V3.328C81.2255 2.89067 81.0762 2.53867 80.7775 2.272C80.4895 1.99467 80.1002 1.856 79.6095 1.856H75.4015V6.704H79.4175ZM86.2544 12.128C85.4757 12.128 84.8517 11.9253 84.3824 11.52C83.9237 11.1147 83.6944 10.5707 83.6944 9.888V9.376C83.6944 8.704 83.9344 8.16533 84.4144 7.76C84.8944 7.35467 85.529 7.152 86.3184 7.152H87.3424C87.6944 7.152 88.057 7.20533 88.4304 7.312C88.8037 7.41867 89.1237 7.56267 89.3904 7.744V6.416C89.3904 5.968 89.2517 5.60533 88.9744 5.328C88.697 5.04 88.329 4.896 87.8704 4.896H86.5904C86.1317 4.896 85.7637 5.00267 85.4864 5.216C85.209 5.42933 85.0704 5.712 85.0704 6.064H83.9184C83.9184 5.41333 84.1637 4.89067 84.6544 4.496C85.145 4.09067 85.7904 3.888 86.5904 3.888H87.8704C88.6597 3.888 89.2944 4.12267 89.7744 4.592C90.265 5.05067 90.5104 5.65867 90.5104 6.416V12H89.4224V10.88C89.177 11.264 88.8517 11.568 88.4464 11.792C88.0517 12.016 87.641 12.128 87.2144 12.128H86.2544ZM87.2464 11.12C87.7477 11.12 88.1957 10.9653 88.5904 10.656C88.985 10.3467 89.2517 9.936 89.3904 9.424V8.832C89.177 8.62933 88.8784 8.46933 88.4944 8.352C88.121 8.224 87.737 8.16 87.3424 8.16H86.3184C85.881 8.16 85.5237 8.272 85.2464 8.496C84.9797 8.72 84.8464 9.01333 84.8464 9.376V9.888C84.8464 10.2613 84.9744 10.56 85.2304 10.784C85.4864 11.008 85.8277 11.12 86.2544 11.12H87.2464ZM95.113 12.128C94.3023 12.128 93.6517 11.8987 93.161 11.44C92.6703 10.9813 92.425 10.3787 92.425 9.632H93.545C93.545 10.08 93.689 10.4427 93.977 10.72C94.265 10.9973 94.6437 11.136 95.113 11.136H96.505C96.9637 11.136 97.337 11.0453 97.625 10.864C97.913 10.672 98.057 10.4267 98.057 10.128V9.584C98.057 9.38133 97.977 9.20533 97.817 9.056C97.657 8.896 97.449 8.78933 97.193 8.736L94.425 8.256C93.8703 8.16 93.4223 7.952 93.081 7.632C92.7503 7.30133 92.585 6.91733 92.585 6.48V5.952C92.585 5.33333 92.8197 4.83733 93.289 4.464C93.7583 4.08 94.377 3.888 95.145 3.888H96.521C97.2677 3.888 97.8703 4.10133 98.329 4.528C98.7877 4.944 99.017 5.49867 99.017 6.192H97.897C97.8863 5.79733 97.753 5.48267 97.497 5.248C97.2517 5.00267 96.9263 4.88 96.521 4.88H95.145C94.7183 4.88 94.377 4.98133 94.121 5.184C93.865 5.376 93.737 5.632 93.737 5.952V6.416C93.737 6.61867 93.8223 6.8 93.993 6.96C94.1743 7.12 94.4037 7.22133 94.681 7.264L97.433 7.744C97.9663 7.84 98.393 8.048 98.713 8.368C99.0437 8.688 99.209 9.072 99.209 9.52V10.16C99.209 10.7467 98.9583 11.2213 98.457 11.584C97.9663 11.9467 97.3157 12.128 96.505 12.128H95.113ZM103.426 12.128C102.615 12.128 101.964 11.8987 101.474 11.44C100.983 10.9813 100.738 10.3787 100.738 9.632H101.858C101.858 10.08 102.002 10.4427 102.289 10.72C102.578 10.9973 102.956 11.136 103.426 11.136H104.818C105.276 11.136 105.65 11.0453 105.938 10.864C106.226 10.672 106.37 10.4267 106.37 10.128V9.584C106.37 9.38133 106.29 9.20533 106.13 9.056C105.97 8.896 105.762 8.78933 105.506 8.736L102.738 8.256C102.183 8.16 101.735 7.952 101.394 7.632C101.063 7.30133 100.898 6.91733 100.898 6.48V5.952C100.898 5.33333 101.132 4.83733 101.602 4.464C102.071 4.08 102.69 3.888 103.458 3.888H104.834C105.58 3.888 106.183 4.10133 106.642 4.528C107.1 4.944 107.33 5.49867 107.33 6.192H106.21C106.199 5.79733 106.066 5.48267 105.81 5.248C105.564 5.00267 105.239 4.88 104.834 4.88H103.458C103.031 4.88 102.69 4.98133 102.434 5.184C102.178 5.376 102.049 5.632 102.049 5.952V6.416C102.049 6.61867 102.135 6.8 102.306 6.96C102.487 7.12 102.716 7.22133 102.994 7.264L105.746 7.744C106.279 7.84 106.706 8.048 107.026 8.368C107.356 8.688 107.522 9.072 107.522 9.52V10.16C107.522 10.7467 107.271 11.2213 106.77 11.584C106.279 11.9467 105.628 12.128 104.818 12.128H103.426ZM119.306 4.016L117.578 11.072C117.493 11.392 117.375 11.6267 117.226 11.776C117.077 11.9253 116.874 12 116.618 12H116.074L114.074 5.968L112.01 12H111.466C111.221 12 111.018 11.9253 110.858 11.776C110.698 11.6267 110.581 11.392 110.506 11.072L108.762 4.016H109.978L111.466 10.72L113.626 4.24H114.042C114.351 4.24 114.559 4.41067 114.666 4.752L116.618 10.672L118.09 4.016H119.306ZM123.497 12.128C122.601 12.128 121.881 11.8507 121.337 11.296C120.793 10.7413 120.521 10.0107 120.521 9.104V6.912C120.521 6.00533 120.793 5.27467 121.337 4.72C121.892 4.16533 122.622 3.888 123.529 3.888H124.841C125.748 3.888 126.473 4.16533 127.017 4.72C127.572 5.27467 127.849 6.00533 127.849 6.912V9.104C127.849 10.0107 127.572 10.7413 127.017 11.296C126.462 11.8507 125.726 12.128 124.809 12.128H123.497ZM124.809 11.104C125.385 11.104 125.844 10.9227 126.185 10.56C126.526 10.1867 126.697 9.70133 126.697 9.104V6.912C126.697 6.31467 126.526 5.83467 126.185 5.472C125.844 5.09867 125.396 4.912 124.841 4.912H123.529C122.974 4.912 122.526 5.09867 122.185 5.472C121.844 5.83467 121.673 6.31467 121.673 6.912V9.104C121.673 9.712 121.838 10.1973 122.169 10.56C122.5 10.9227 122.942 11.104 123.497 11.104H124.809ZM129.966 4.016H131.086V5.248C131.299 4.87467 131.619 4.57067 132.046 4.336C132.483 4.10133 132.937 3.984 133.406 3.984H134.11V5.024H133.406C132.723 5.024 132.169 5.24267 131.742 5.68C131.326 6.10667 131.118 6.67733 131.118 7.392V12H129.966V4.016ZM137.884 12.128C137.34 12.128 136.854 12 136.428 11.744C136.001 11.488 135.67 11.1307 135.436 10.672C135.201 10.2133 135.084 9.68 135.084 9.072V7.152C135.084 6.512 135.206 5.94667 135.452 5.456C135.697 4.95467 136.044 4.57067 136.492 4.304C136.94 4.02667 137.452 3.888 138.028 3.888H139.212C139.574 3.888 139.921 3.97333 140.252 4.144C140.593 4.31467 140.865 4.54933 141.068 4.848V0.799999H142.22V12H141.1V10.816C140.854 11.2107 140.534 11.5307 140.14 11.776C139.745 12.0107 139.361 12.128 138.988 12.128H137.884ZM138.956 11.104C139.297 11.104 139.628 10.9973 139.948 10.784C140.268 10.56 140.529 10.272 140.732 9.92C140.934 9.568 141.046 9.20533 141.068 8.832V6.816C140.993 6.25067 140.78 5.792 140.428 5.44C140.086 5.088 139.67 4.912 139.18 4.912H138.06C137.516 4.912 137.073 5.12 136.732 5.536C136.401 5.94133 136.236 6.48 136.236 7.152V9.072C136.236 9.66933 136.39 10.16 136.7 10.544C137.02 10.9173 137.425 11.104 137.916 11.104H138.956ZM145.198 6.128C144.942 6.128 144.734 6.048 144.574 5.888C144.414 5.728 144.334 5.52 144.334 5.264C144.334 5.008 144.414 4.8 144.574 4.64C144.734 4.48 144.942 4.4 145.198 4.4C145.454 4.4 145.662 4.48 145.822 4.64C145.982 4.8 146.062 5.008 146.062 5.264C146.062 5.52 145.982 5.728 145.822 5.888C145.662 6.048 145.454 6.128 145.198 6.128ZM145.198 11.6C144.942 11.6 144.734 11.52 144.574 11.36C144.414 11.2 144.334 10.992 144.334 10.736C144.334 10.48 144.414 10.272 144.574 10.112C144.734 9.952 144.942 9.872 145.198 9.872C145.454 9.872 145.662 9.952 145.822 10.112C145.982 10.272 146.062 10.48 146.062 10.736C146.062 10.992 145.982 11.2 145.822 11.36C145.662 11.52 145.454 11.6 145.198 11.6Z" fill="url(#paint0_linear_619_683)"/>
<defs>
<linearGradient id="paint0_linear_619_683" x1="15.5137" y1="-1.12329" x2="18.3274" y2="25.5389" gradientUnits="userSpaceOnUse">
<stop stop-color="#727272"/>
<stop offset="1" stop-color="white"/>
</linearGradient>
</defs>
</svg>
